<svg xmlns="http://www.w3.org/2000/svg" viewBox="0 0 350 53"><defs><style>.cls-1{fill:#fff;}</style></defs><title>logo_phdhv_mijn-pensioen</title><g id="Layer_2" data-name="Layer 2"><g id="Layer_2-2" data-name="Layer 2"><path class="cls-1" d="M11.4,6.44a5,5,0,0,1-1.77,4.13,7.78,7.78,0,0,1-5,1.44H2.82v6.44H0V1.24H5A7.5,7.5,0,0,1,9.79,2.56,4.74,4.74,0,0,1,11.4,6.44ZM2.82,9.65h1.5a5.36,5.36,0,0,0,3.18-.75,2.74,2.74,0,0,0,1-2.36A2.67,2.67,0,0,0,7.6,4.32a4.48,4.48,0,0,0-2.83-.73h-2Z"/><path class="cls-1" d="M20.24,18.69a6.3,6.3,0,0,1-4.75-1.77A6.73,6.73,0,0,1,13.77,12a7.38,7.38,0,0,1,1.59-5,5.49,5.49,0,0,1,4.37-1.83A5.37,5.37,0,0,1,23.8,6.76a6,6,0,0,1,1.5,4.31v1.5H16.62a4.28,4.28,0,0,0,1,2.92,3.57,3.57,0,0,0,2.72,1,10,10,0,0,0,2.15-.22,11.27,11.27,0,0,0,2.14-.72v2.25a8.5,8.5,0,0,1-2,.68A12.57,12.57,0,0,1,20.24,18.69Zm-.51-11.4a2.78,2.78,0,0,0-2.11.84,4,4,0,0,0-.95,2.44h5.91a3.61,3.61,0,0,0-.78-2.44A2.66,2.66,0,0,0,19.73,7.29Z"/><path class="cls-1" d="M39.91,18.46H37.13v-8a3.51,3.51,0,0,0-.61-2.25,2.34,2.34,0,0,0-1.93-.74,3.06,3.06,0,0,0-2.57,1A5.72,5.72,0,0,0,31.21,12v6.49H28.45v-13h2.17L31,7.14h.14A3.85,3.85,0,0,1,32.82,5.7a5.61,5.61,0,0,1,2.4-.51q4.69,0,4.69,4.77Z"/><path class="cls-1" d="M52.51,14.75a3.41,3.41,0,0,1-1.39,2.93,6.66,6.66,0,0,1-4,1A9.4,9.4,0,0,1,43,17.9V15.51a10.27,10.27,0,0,0,4.28,1.06q2.56,0,2.56-1.54a1.22,1.22,0,0,0-.28-.82,3.35,3.35,0,0,0-.93-.68,16,16,0,0,0-1.8-.8,8.34,8.34,0,0,1-3-1.74,3.23,3.23,0,0,1-.8-2.26,3,3,0,0,1,1.35-2.6A6.4,6.4,0,0,1,48,5.19a10.39,10.39,0,0,1,4.35.93l-.9,2.08a9.67,9.67,0,0,0-3.55-.87q-2.19,0-2.19,1.25a1.26,1.26,0,0,0,.57,1,12.56,12.56,0,0,0,2.49,1.17,11.39,11.39,0,0,1,2.34,1.14,3.41,3.41,0,0,1,1.08,1.2A3.46,3.46,0,0,1,52.51,14.75Z"/><path class="cls-1" d="M55.34,2A1.53,1.53,0,0,1,55.74.84,1.58,1.58,0,0,1,56.9.44,1.55,1.55,0,0,1,58,.84,1.53,1.53,0,0,1,58.45,2,1.5,1.5,0,0,1,58,3.09a1.54,1.54,0,0,1-1.14.41,1.57,1.57,0,0,1-1.16-.41A1.5,1.5,0,0,1,55.34,2Zm2.93,16.48H55.5v-13h2.77Z"/><path class="cls-1" d="M73.78,11.92a7.11,7.11,0,0,1-1.64,5,5.87,5.87,0,0,1-4.56,1.79,6.25,6.25,0,0,1-3.23-.82A5.44,5.44,0,0,1,62.2,15.5a8.06,8.06,0,0,1-.75-3.58A7.06,7.06,0,0,1,63.07,7a5.89,5.89,0,0,1,4.58-1.78A5.74,5.74,0,0,1,72.13,7,7,7,0,0,1,73.78,11.92Zm-9.48,0q0,4.51,3.33,4.51t3.3-4.51q0-4.46-3.32-4.46a2.83,2.83,0,0,0-2.53,1.15A5.87,5.87,0,0,0,64.3,11.92Z"/><path class="cls-1" d="M82.65,18.69a6.3,6.3,0,0,1-4.75-1.77A6.73,6.73,0,0,1,76.18,12a7.38,7.38,0,0,1,1.59-5,5.49,5.49,0,0,1,4.37-1.83,5.37,5.37,0,0,1,4.08,1.57,6,6,0,0,1,1.5,4.31v1.5H79a4.28,4.28,0,0,0,1,2.92,3.57,3.57,0,0,0,2.72,1,10,10,0,0,0,2.15-.22,11.27,11.27,0,0,0,2.14-.72v2.25a8.5,8.5,0,0,1-2,.68A12.57,12.57,0,0,1,82.65,18.69Zm-.51-11.4A2.78,2.78,0,0,0,80,8.13a4,4,0,0,0-.95,2.44H85a3.61,3.61,0,0,0-.78-2.44A2.66,2.66,0,0,0,82.14,7.29Z"/><path class="cls-1" d="M102.32,18.46H99.54v-8a3.51,3.51,0,0,0-.61-2.25A2.34,2.34,0,0,0,97,7.46a3.06,3.06,0,0,0-2.57,1A5.72,5.72,0,0,0,93.63,12v6.49H90.86v-13H93l.39,1.71h.14A3.85,3.85,0,0,1,95.23,5.7a5.61,5.61,0,0,1,2.4-.51q4.69,0,4.69,4.77Z"/><path class="cls-1" d="M112.71,7.53h-3.18V18.46h-2.78V7.53h-2.14V6.23l2.14-.85V4.53a4.74,4.74,0,0,1,1.08-3.42A4.43,4.43,0,0,1,111.14,0,8.83,8.83,0,0,1,114,.48l-.73,2.1a6.38,6.38,0,0,0-2-.33,1.59,1.59,0,0,0-1.37.58,2.94,2.94,0,0,0-.43,1.75v.85h3.18Z"/><path class="cls-1" d="M126.48,11.92a7.11,7.11,0,0,1-1.64,5,5.87,5.87,0,0,1-4.56,1.79,6.25,6.25,0,0,1-3.23-.82,5.44,5.44,0,0,1-2.16-2.37,8.06,8.06,0,0,1-.75-3.58A7.06,7.06,0,0,1,115.77,7a5.89,5.89,0,0,1,4.58-1.78A5.74,5.74,0,0,1,124.83,7,7,7,0,0,1,126.48,11.92Zm-9.48,0q0,4.51,3.33,4.51t3.3-4.51q0-4.46-3.32-4.46a2.83,2.83,0,0,0-2.53,1.15A5.87,5.87,0,0,0,117,11.92Z"/><path class="cls-1" d="M141.12,18.46h-2.78v-8a3.51,3.51,0,0,0-.61-2.25,2.34,2.34,0,0,0-1.93-.74,3.06,3.06,0,0,0-2.57,1,5.72,5.72,0,0,0-.81,3.47v6.49h-2.77v-13h2.17l.39,1.71h.14A3.85,3.85,0,0,1,134,5.7a5.61,5.61,0,0,1,2.4-.51q4.69,0,4.69,4.77Z"/><path class="cls-1" d="M149.36,18.69a4.54,4.54,0,0,1-3.8-1.77,7.94,7.94,0,0,1-1.37-5,8,8,0,0,1,1.38-5,4.58,4.58,0,0,1,3.83-1.78,4.49,4.49,0,0,1,3.91,1.9h.14a16.59,16.59,0,0,1-.2-2.21V.13H156V18.46h-2.17l-.48-1.71h-.13A4.43,4.43,0,0,1,149.36,18.69Zm.74-2.24a3,3,0,0,0,2.49-1,5.05,5.05,0,0,0,.8-3.12V12a5.84,5.84,0,0,0-.8-3.5,3,3,0,0,0-2.51-1,2.55,2.55,0,0,0-2.25,1.18A6.07,6.07,0,0,0,147,12a5.91,5.91,0,0,0,.77,3.3A2.58,2.58,0,0,0,150.11,16.45Z"/><path class="cls-1" d="M168.75,14.75a3.41,3.41,0,0,1-1.39,2.93,6.66,6.66,0,0,1-4,1,9.4,9.4,0,0,1-4.18-.79V15.51a10.27,10.27,0,0,0,4.28,1.06Q166,16.57,166,15a1.22,1.22,0,0,0-.28-.82,3.35,3.35,0,0,0-.93-.68,16,16,0,0,0-1.8-.8A8.34,8.34,0,0,1,160,11a3.23,3.23,0,0,1-.8-2.26,3,3,0,0,1,1.35-2.6,6.4,6.4,0,0,1,3.67-.92,10.39,10.39,0,0,1,4.35.93l-.9,2.08a9.67,9.67,0,0,0-3.55-.87q-2.19,0-2.19,1.25a1.26,1.26,0,0,0,.57,1A12.56,12.56,0,0,0,165,10.79a11.39,11.39,0,0,1,2.34,1.14,3.41,3.41,0,0,1,1.08,1.2A3.46,3.46,0,0,1,168.75,14.75Z"/><path class="cls-1" d="M191.88,18.46h-2.83V10.69h-7.94v7.76H178.3V1.24h2.82v7h7.94v-7h2.83Z"/><path class="cls-1" d="M204.28,18.46l-.55-1.81h-.09a5.34,5.34,0,0,1-1.9,1.62,6,6,0,0,1-2.45.43,4.15,4.15,0,0,1-3-1,3.88,3.88,0,0,1-1.08-2.93,3.44,3.44,0,0,1,1.5-3,8.63,8.63,0,0,1,4.56-1.12l2.25-.07V9.8a2.63,2.63,0,0,0-.58-1.87,2.38,2.38,0,0,0-1.81-.62,6.25,6.25,0,0,0-1.92.29,14.49,14.49,0,0,0-1.77.69l-.9-2a9.63,9.63,0,0,1,2.32-.84,10.68,10.68,0,0,1,2.38-.29A5.64,5.64,0,0,1,205,6.28a4.24,4.24,0,0,1,1.27,3.4v8.78Zm-4.12-1.88a3.43,3.43,0,0,0,2.42-.84,3.05,3.05,0,0,0,.91-2.36V12.24l-1.67.07A5.72,5.72,0,0,0,199,13a2,2,0,0,0-.89,1.78,1.74,1.74,0,0,0,.52,1.35A2.23,2.23,0,0,0,200.15,16.57Z"/><path class="cls-1" d="M218.87,14.75a3.41,3.41,0,0,1-1.39,2.93,6.66,6.66,0,0,1-4,1,9.4,9.4,0,0,1-4.18-.79V15.51a10.27,10.27,0,0,0,4.28,1.06q2.56,0,2.56-1.54a1.22,1.22,0,0,0-.28-.82,3.35,3.35,0,0,0-.93-.68,16,16,0,0,0-1.8-.8,8.34,8.34,0,0,1-3-1.74,3.23,3.23,0,0,1-.8-2.26,3,3,0,0,1,1.35-2.6,6.4,6.4,0,0,1,3.67-.92,10.39,10.39,0,0,1,4.35.93l-.9,2.08a9.67,9.67,0,0,0-3.55-.87Q212,7.34,212,8.59a1.26,1.26,0,0,0,.57,1,12.56,12.56,0,0,0,2.49,1.17,11.39,11.39,0,0,1,2.34,1.14,3.41,3.41,0,0,1,1.08,1.2A3.46,3.46,0,0,1,218.87,14.75Z"/><path class="cls-1" d="M224.53,11.58l1.57-2L230,5.43h3.19L228,11l5.57,7.43h-3.25l-4.18-5.71L224.61,14v4.46h-2.74V.13h2.74V9.07l-.14,2.51Z"/><path class="cls-1" d="M247.21,11.92a7.11,7.11,0,0,1-1.64,5A5.87,5.87,0,0,1,241,18.69a6.25,6.25,0,0,1-3.23-.82,5.44,5.44,0,0,1-2.16-2.37,8.06,8.06,0,0,1-.75-3.58A7.06,7.06,0,0,1,236.5,7a5.89,5.89,0,0,1,4.58-1.78A5.74,5.74,0,0,1,245.56,7,7,7,0,0,1,247.21,11.92Zm-9.48,0q0,4.51,3.33,4.51t3.3-4.51q0-4.46-3.32-4.46a2.83,2.83,0,0,0-2.53,1.15A5.87,5.87,0,0,0,237.73,11.92Z"/><path class="cls-1" d="M261.85,18.46h-2.78v-8a3.51,3.51,0,0,0-.61-2.25,2.34,2.34,0,0,0-1.93-.74,3.06,3.06,0,0,0-2.57,1,5.72,5.72,0,0,0-.81,3.47v6.49h-2.77v-13h2.17l.39,1.71h.14a3.85,3.85,0,0,1,1.67-1.44,5.61,5.61,0,0,1,2.4-.51q4.69,0,4.69,4.77Z"/><path class="cls-1" d="M265.54,2a1.53,1.53,0,0,1,.41-1.14,1.58,1.58,0,0,1,1.16-.4,1.55,1.55,0,0,1,1.14.4A1.53,1.53,0,0,1,268.65,2a1.5,1.5,0,0,1-.41,1.11,1.54,1.54,0,0,1-1.14.41,1.57,1.57,0,0,1-1.16-.41A1.5,1.5,0,0,1,265.54,2Zm2.93,16.48H265.7v-13h2.77Z"/><path class="cls-1" d="M283.89,18.46h-2.78v-8a3.51,3.51,0,0,0-.61-2.25,2.34,2.34,0,0,0-1.93-.74,3.06,3.06,0,0,0-2.57,1,5.72,5.72,0,0,0-.81,3.47v6.49h-2.77v-13h2.17L275,7.14h.14A3.85,3.85,0,0,1,276.8,5.7a5.61,5.61,0,0,1,2.4-.51q4.69,0,4.69,4.77Z"/><path class="cls-1" d="M298.74,5.43V6.95l-2.23.41a3.59,3.59,0,0,1,.51,1,4,4,0,0,1,.2,1.27,3.9,3.9,0,0,1-1.39,3.17A5.82,5.82,0,0,1,292,14a6.21,6.21,0,0,1-1.13-.09,1.56,1.56,0,0,0-.9,1.3.72.72,0,0,0,.42.67,3.62,3.62,0,0,0,1.54.22h2.27a5.05,5.05,0,0,1,3.27.92,3.23,3.23,0,0,1,1.12,2.65,3.85,3.85,0,0,1-1.83,3.42,9.61,9.61,0,0,1-5.28,1.2,7.28,7.28,0,0,1-4.06-.94,3,3,0,0,1-1.4-2.69,2.86,2.86,0,0,1,.76-2,4.07,4.07,0,0,1,2.13-1.14,2.08,2.08,0,0,1-.91-.76,1.92,1.92,0,0,1-.36-1.1,1.9,1.9,0,0,1,.41-1.24,4.76,4.76,0,0,1,1.22-1,3.63,3.63,0,0,1-1.64-1.42,4.17,4.17,0,0,1-.63-2.3,4.13,4.13,0,0,1,1.34-3.29,5.62,5.62,0,0,1,3.81-1.17,9.28,9.28,0,0,1,1.16.08,7.3,7.3,0,0,1,.91.16ZM288.5,20.48a1.52,1.52,0,0,0,.81,1.38,4.43,4.43,0,0,0,2.27.48,6.85,6.85,0,0,0,3.37-.65A1.94,1.94,0,0,0,296.05,20a1.29,1.29,0,0,0-.61-1.21,4.87,4.87,0,0,0-2.26-.36h-2.1a3,3,0,0,0-1.89.56A1.83,1.83,0,0,0,288.5,20.48Zm1.19-10.84a2.62,2.62,0,0,0,.63,1.88,2.38,2.38,0,0,0,1.81.66q2.4,0,2.4-2.57a2.91,2.91,0,0,0-.59-2A2.26,2.26,0,0,0,292.13,7a2.33,2.33,0,0,0-1.82.68A2.87,2.87,0,0,0,289.69,9.65Z"/><path class="cls-1" d="M315.45,9.68q0,4.26-2.37,6.52t-6.82,2.26h-4.82V1.24h5.32a8.81,8.81,0,0,1,6.4,2.21A8.27,8.27,0,0,1,315.45,9.68Zm-3,.09q0-6.18-5.78-6.18h-2.44v12.5h2Q312.49,16.09,312.49,9.78Z"/><path class="cls-1" d="M332.73,18.46h-2.83V10.69H322v7.76h-2.82V1.24H322v7h7.94v-7h2.83Z"/><path class="cls-1" d="M347.08,1.24H350l-6,17.22h-3L335,1.24h2.9l3.59,10.71q.28.77.6,2t.41,1.8q.15-.9.47-2.07t.52-1.74Z"/><path class="cls-1" d="M6.22,48,1.84,36.6H1.77q.12,1.36.12,3.23V48H.51V35.13H2.77L6.86,45.79h.07l4.13-10.65H13.3V48H11.8V39.73q0-1.43.12-3.11h-.07L7.43,48Z"/><path class="cls-1" d="M16.5,35.74a1,1,0,0,1,.25-.74A.91.91,0,0,1,18,35a1,1,0,0,1,.26.73,1,1,0,0,1-.26.74.9.9,0,0,1-1.23,0A1,1,0,0,1,16.5,35.74ZM18.09,48H16.62V38.37h1.47Z"/><path class="cls-1" d="M20,52.39a3.53,3.53,0,0,1-1.36-.22V51a4.3,4.3,0,0,0,1.2.18,1.27,1.27,0,0,0,1-.37,1.73,1.73,0,0,0,.32-1.14V38.37h1.47V49.53Q22.66,52.39,20,52.39Zm1.05-16.65a1,1,0,0,1,.25-.74.91.91,0,0,1,1.23,0,1,1,0,0,1,.26.73,1,1,0,0,1-.26.74.9.9,0,0,1-1.23,0A1,1,0,0,1,21.07,35.74Z"/><path class="cls-1" d="M32.4,48V41.78A2.53,2.53,0,0,0,31.86,40a2.2,2.2,0,0,0-1.69-.58,2.78,2.78,0,0,0-2.23.82A4.15,4.15,0,0,0,27.24,43V48H25.77V38.37H27l.24,1.33h.07a3,3,0,0,1,1.26-1.11,4.1,4.1,0,0,1,1.81-.39A3.68,3.68,0,0,1,33,39a3.59,3.59,0,0,1,.88,2.7V48Z"/><path class="cls-1" d="M46.08,48.22a4.2,4.2,0,0,1-1.73-.35A3.25,3.25,0,0,1,43,46.8h-.11A13,13,0,0,1,43,48.41v4H41.58v-14h1.19l.2,1.33H43a3.41,3.41,0,0,1,1.32-1.15,4,4,0,0,1,1.72-.35,3.58,3.58,0,0,1,3,1.32,5.79,5.79,0,0,1,1,3.69A5.76,5.76,0,0,1,49,46.9,3.58,3.58,0,0,1,46.08,48.22Zm-.21-8.79a2.6,2.6,0,0,0-2.15.82A4.23,4.23,0,0,0,43,42.87v.33a4.85,4.85,0,0,0,.68,2.92A2.59,2.59,0,0,0,45.9,47a2.27,2.27,0,0,0,2-1,4.82,4.82,0,0,0,.71-2.8,4.63,4.63,0,0,0-.71-2.78A2.34,2.34,0,0,0,45.87,39.43Z"/><path class="cls-1" d="M56.75,48.22a4.45,4.45,0,0,1-3.39-1.31,5.06,5.06,0,0,1-1.24-3.63,5.61,5.61,0,0,1,1.15-3.72,3.83,3.83,0,0,1,3.1-1.38,3.65,3.65,0,0,1,2.88,1.2,4.59,4.59,0,0,1,1.06,3.16v.93H53.64a3.84,3.84,0,0,0,.86,2.59,3,3,0,0,0,2.3.88,7.8,7.8,0,0,0,3.09-.65V47.6a7.77,7.77,0,0,1-1.47.48A8.26,8.26,0,0,1,56.75,48.22Zm-.4-8.81a2.39,2.39,0,0,0-1.86.76,3.5,3.5,0,0,0-.82,2.1h5.06a3.22,3.22,0,0,0-.62-2.12A2.18,2.18,0,0,0,56.36,39.42Z"/><path class="cls-1" d="M69.44,48V41.78A2.53,2.53,0,0,0,68.9,40a2.2,2.2,0,0,0-1.69-.58,2.78,2.78,0,0,0-2.23.82A4.15,4.15,0,0,0,64.28,43V48H62.81V38.37H64l.24,1.33h.07a3,3,0,0,1,1.26-1.11,4.1,4.1,0,0,1,1.81-.39A3.68,3.68,0,0,1,70,39a3.59,3.59,0,0,1,.88,2.7V48Z"/><path class="cls-1" d="M80.16,45.41a2.43,2.43,0,0,1-1,2.08,4.73,4.73,0,0,1-2.83.73,6.15,6.15,0,0,1-3-.61V46.25a7.26,7.26,0,0,0,1.5.56,6.26,6.26,0,0,0,1.54.2,3.5,3.5,0,0,0,1.77-.37,1.26,1.26,0,0,0,.13-2.08,7.73,7.73,0,0,0-1.91-1,10.34,10.34,0,0,1-1.92-.88,2.61,2.61,0,0,1-.85-.85,2.21,2.21,0,0,1-.28-1.14,2.17,2.17,0,0,1,1-1.87,4.49,4.49,0,0,1,2.64-.69,7.73,7.73,0,0,1,3.06.64L79.44,40a7,7,0,0,0-2.64-.6,3,3,0,0,0-1.57.33,1,1,0,0,0-.53.9,1.1,1.1,0,0,0,.2.66,2,2,0,0,0,.64.52,14.31,14.31,0,0,0,1.7.72,6.33,6.33,0,0,1,2.33,1.26A2.23,2.23,0,0,1,80.16,45.41Z"/><path class="cls-1" d="M82.42,35.74a1,1,0,0,1,.25-.74.91.91,0,0,1,1.23,0,1,1,0,0,1,.26.73,1,1,0,0,1-.26.74.9.9,0,0,1-1.23,0A1,1,0,0,1,82.42,35.74ZM84,48H82.55V38.37H84Z"/><path class="cls-1" d="M95.48,43.2a5.34,5.34,0,0,1-1.19,3.7A4.2,4.2,0,0,1,91,48.22a4.36,4.36,0,0,1-2.31-.61,4,4,0,0,1-1.55-1.75,6.1,6.1,0,0,1-.55-2.67,5.33,5.33,0,0,1,1.18-3.69,4.19,4.19,0,0,1,3.29-1.32,4.09,4.09,0,0,1,3.23,1.35A5.32,5.32,0,0,1,95.48,43.2Zm-7.38,0A4.6,4.6,0,0,0,88.85,46a2.95,2.95,0,0,0,4.37,0A4.58,4.58,0,0,0,94,43.2a4.5,4.5,0,0,0-.75-2.8,2.63,2.63,0,0,0-2.2-1,2.58,2.58,0,0,0-2.17.95A4.55,4.55,0,0,0,88.1,43.2Z"/><path class="cls-1" d="M102.14,48.22a4.45,4.45,0,0,1-3.39-1.31,5.06,5.06,0,0,1-1.24-3.63,5.61,5.61,0,0,1,1.15-3.72,3.83,3.83,0,0,1,3.1-1.38,3.65,3.65,0,0,1,2.88,1.2,4.59,4.59,0,0,1,1.06,3.16v.93H99a3.84,3.84,0,0,0,.86,2.59,3,3,0,0,0,2.3.88,7.8,7.8,0,0,0,3.09-.65V47.6a7.77,7.77,0,0,1-1.47.48A8.26,8.26,0,0,1,102.14,48.22Zm-.4-8.81a2.39,2.39,0,0,0-1.86.76,3.5,3.5,0,0,0-.82,2.1h5.06a3.22,3.22,0,0,0-.62-2.12A2.18,2.18,0,0,0,101.74,39.42Z"/><path class="cls-1" d="M114.83,48V41.78a2.53,2.53,0,0,0-.54-1.77,2.2,2.2,0,0,0-1.69-.58,2.78,2.78,0,0,0-2.23.82,4.15,4.15,0,0,0-.71,2.71V48H108.2V38.37h1.19l.24,1.33h.07A3,3,0,0,1,111,38.58a4.1,4.1,0,0,1,1.81-.39,3.68,3.68,0,0,1,2.63.84,3.59,3.59,0,0,1,.88,2.7V48Z"/></g></g></svg>