<?xml version="1.0" encoding="UTF-8"?>
<svg width="607px" height="179px" viewBox="0 0 607 179" version="1.1" xmlns="http://www.w3.org/2000/svg" xmlns:xlink="http://www.w3.org/1999/xlink">
    <!-- Generator: Sketch 53.2 (72643) - https://sketchapp.com -->
    <title>Logo-black-text</title>
    <desc>Created with Sketch.</desc>
    <defs>
        <linearGradient x1="49.9998726%" y1="99.1605061%" x2="49.9998726%" y2="0.292940582%" id="linearGradient-1">
            <stop stop-color="#38A33A" offset="0%"></stop>
            <stop stop-color="#60B89A" offset="100%"></stop>
        </linearGradient>
        <linearGradient x1="49.9999798%" y1="99.034735%" x2="49.9999798%" y2="-1.80530305%" id="linearGradient-2">
            <stop stop-color="#EC828B" offset="0%"></stop>
            <stop stop-color="#52355E" offset="100%"></stop>
        </linearGradient>
    </defs>
    <g id="Logo-black-text" stroke="none" stroke-width="1" fill="none" fill-rule="evenodd">
        <path d="M231.721786,89.8568629 C237.271319,89.8568629 240.680364,86.3345258 240.680364,80.6861663 C240.680364,75.0378067 237.271319,71.7150202 231.788523,71.7150202 L223.030701,71.7150202 L223.030701,89.8568629 L231.721786,89.8568629 Z M216.345543,71.7150202 L212,71.7150202 L212,66.0003236 L232.791758,66.0003236 C241.415563,66.0003236 247.566277,71.7813573 247.566277,80.6861663 C247.566277,89.5909753 241.415563,95.5715596 232.791758,95.5715596 L223.030701,95.5715596 L223.030701,112.915739 L216.345543,112.915739 L216.345543,71.7150202 Z M273.641052,92.1827056 C273.440839,86.6006831 269.897234,83.6101213 265.685709,83.6101213 C260.738442,83.6101213 256.72713,86.6006831 255.724438,92.1827056 L273.641052,92.1827056 Z M265.752446,78.4935371 C275.245468,78.4935371 280.32621,85.5371326 280.32621,94.242391 C280.32621,95.106391 280.125997,96.9007281 280.125997,96.9007281 L255.456402,96.9007281 C255.857913,104.077537 261.072673,108.13111 267.08937,108.13111 C272.905853,108.13111 276.983902,104.210751 276.983902,104.210751 L279.791766,108.796099 C279.791766,108.796099 274.777762,113.713133 266.755139,113.713133 C256.058669,113.713133 248.771245,106.071425 248.771245,96.1036045 C248.771245,85.4044584 256.125407,78.4935371 265.752446,78.4935371 Z M288.95262,86.2682966 C288.95262,85.2716225 288.417633,84.8067236 287.481679,84.8067236 L284.740552,84.8067236 L284.740552,79.2904989 L290.958004,79.2904989 C293.832606,79.2904989 295.236809,80.5536 295.236809,83.0118472 L295.236809,84.2749483 C295.236809,85.3379596 295.102791,86.2019596 295.102791,86.2019596 L295.236809,86.2019596 C296.573732,83.2782742 300.585044,78.4933753 307.938663,78.4933753 C315.961287,78.4933753 319.57163,82.812836 319.57163,91.3854202 L319.57163,105.938589 C319.57163,106.935263 320.106617,107.400162 321.042571,107.400162 L323.783155,107.400162 L323.783155,112.915847 L317.36549,112.915847 C314.356871,112.915847 313.086685,111.653285 313.086685,108.662724 L313.086685,92.8469933 C313.086685,88.1289708 312.150731,84.4076225 306.735216,84.4076225 C301.520999,84.4076225 297.375669,87.7967461 296.039288,92.647982 C295.57104,93.9768809 295.437022,95.5053303 295.437022,97.1669933 L295.437022,112.915847 L288.95262,112.915847 L288.95262,86.2682966 Z M328.932534,103.479587 C328.932534,103.479587 332.944388,108.463497 339.16184,108.463497 C342.303935,108.463497 345.044519,107.068261 345.044519,104.144036 C345.044519,98.0971146 326.592918,98.761564 326.592918,87.9297438 C326.592918,81.4837213 332.275384,78.4931596 339.16184,78.4931596 C343.239347,78.4931596 350.259278,79.8889348 350.259278,85.0060584 L350.259278,88.1956315 L344.442795,88.1956315 L344.442795,86.5345079 C344.442795,84.5406202 341.434175,83.6766202 339.362053,83.6766202 C335.550954,83.6766202 333.077863,85.0060584 333.077863,87.6638562 C333.077863,94.0430022 351.528921,92.6477663 351.528921,103.878148 C351.528921,109.859272 346.181229,113.713294 339.09456,113.713294 C330.069244,113.713294 325.590226,107.799047 325.590226,107.799047 L328.932534,103.479587 Z M360.289023,72.7119101 L360.289023,66 L366.105506,66 L366.105506,72.7119101 L360.289023,72.7119101 Z M360.155005,86.2684045 C360.155005,85.2717303 359.620019,84.8062921 358.684606,84.8062921 L355.94348,84.8062921 L355.94348,79.2906067 L362.294407,79.2906067 C365.303027,79.2906067 366.573212,80.5537079 366.573212,83.5437303 L366.573212,105.938157 C366.573212,106.935371 367.107656,107.40027 368.044153,107.40027 L370.78528,107.40027 L370.78528,112.915955 L364.43381,112.915955 C361.425733,112.915955 360.155005,111.653393 360.155005,108.662831 L360.155005,86.2684045 Z M393.114662,108.131272 C399.532327,108.131272 404.747087,103.081025 404.747087,96.0368899 C404.747087,89.0596315 399.532327,84.075182 393.114662,84.075182 C386.763735,84.075182 381.548975,89.0596315 381.548975,96.0368899 C381.548975,103.081025 386.763735,108.131272 393.114662,108.131272 Z M393.114662,78.4931596 C403.209408,78.4931596 411.366049,85.8695191 411.366049,96.0368899 C411.366049,106.270598 403.209408,113.713294 393.114662,113.713294 C383.019916,113.713294 374.930012,106.270598 374.930012,96.0368899 C374.930012,85.8695191 383.019916,78.4931596 393.114662,78.4931596 Z M439.713702,92.1827056 C439.513489,86.6006831 435.969883,83.6101213 431.758359,83.6101213 C426.811092,83.6101213 422.79978,86.6006831 421.797088,92.1827056 L439.713702,92.1827056 Z M431.825096,78.4935371 C441.318118,78.4935371 446.39886,85.5371326 446.39886,94.242391 C446.39886,95.106391 446.198647,96.9007281 446.198647,96.9007281 L421.529052,96.9007281 C421.930563,104.077537 427.145323,108.13111 433.162019,108.13111 C438.978503,108.13111 443.056552,104.210751 443.056552,104.210751 L445.864416,108.796099 C445.864416,108.796099 440.850412,113.713133 432.827788,113.713133 C422.131319,113.713133 414.843894,106.071425 414.843894,96.1036045 C414.843894,85.4044584 422.198056,78.4935371 431.825096,78.4935371 Z M453.687804,86.2682966 C453.687804,85.2716225 453.152817,84.8067236 452.216863,84.8067236 L449.475736,84.8067236 L449.475736,79.2904989 L455.693188,79.2904989 C458.56779,79.2904989 459.971993,80.5536 459.971993,83.0118472 L459.971993,84.2749483 C459.971993,85.3379596 459.837975,86.2019596 459.837975,86.2019596 L459.971993,86.2019596 C461.308916,83.2782742 465.320228,78.4933753 472.673848,78.4933753 C480.696471,78.4933753 484.306815,82.812836 484.306815,91.3854202 L484.306815,105.938589 C484.306815,106.935263 484.841801,107.400162 485.777755,107.400162 L488.518339,107.400162 L488.518339,112.915847 L482.100674,112.915847 C479.092055,112.915847 477.82187,111.653285 477.82187,108.662724 L477.82187,92.8469933 C477.82187,88.1289708 476.885915,84.4076225 471.4704,84.4076225 C466.256183,84.4076225 462.110853,87.7967461 460.774473,92.647982 C460.306224,93.9768809 460.172206,95.5053303 460.172206,97.1669933 L460.172206,112.915847 L453.687804,112.915847 L453.687804,86.2682966 Z M512.119806,89.8568629 C517.668797,89.8568629 521.078385,86.3345258 521.078385,80.6861663 C521.078385,75.0378067 517.668797,71.7150202 512.186544,71.7150202 L503.428721,71.7150202 L503.428721,89.8568629 L512.119806,89.8568629 Z M496.743563,71.7150202 L492.398021,71.7150202 L492.398021,66.0003236 L513.189779,66.0003236 C521.813584,66.0003236 527.964298,71.7813573 527.964298,80.6861663 C527.964298,89.5909753 521.813584,95.5715596 513.189779,95.5715596 L503.428721,95.5715596 L503.428721,112.915739 L496.743563,112.915739 L496.743563,71.7150202 Z M548.691163,108.131272 C555.108828,108.131272 560.32413,103.081025 560.32413,96.0368899 C560.32413,89.0596315 555.108828,84.075182 548.691163,84.075182 C542.340236,84.075182 537.125477,89.0596315 537.125477,96.0368899 C537.125477,103.081025 542.340236,108.131272 548.691163,108.131272 Z M548.691163,78.4931596 C558.786452,78.4931596 566.942551,85.8695191 566.942551,96.0368899 C566.942551,106.270598 558.786452,113.713294 548.691163,113.713294 C538.596418,113.713294 530.506514,106.270598 530.506514,96.0368899 C530.506514,85.8695191 538.596418,78.4931596 548.691163,78.4931596 Z M596.426262,96.0369978 C596.426262,90.0564135 593.284168,84.0752899 586.799223,84.0752899 C581.517725,84.0752899 577.105445,88.461627 577.105445,96.1033348 C577.105445,103.413357 581.050019,108.13138 586.665747,108.13138 C591.679751,108.13138 596.426262,104.609582 596.426262,96.0369978 Z M585.79653,78.4932674 C593.618398,78.4932674 596.226049,83.6767281 596.226049,83.6767281 L596.359525,83.6767281 C596.359525,83.6767281 596.226049,82.6800539 596.226049,81.4174921 L596.226049,72.977582 C596.226049,71.9809079 595.691063,71.516009 594.755109,71.516009 L592.013982,71.516009 L592.013982,66.0003236 L598.431647,66.0003236 C601.440266,66.0003236 602.710452,67.2628854 602.710452,70.2529079 L602.710452,105.938481 C602.710452,106.935155 603.245438,107.400054 604.181393,107.400054 L606.922519,107.400054 L606.922519,112.915739 L600.705067,112.915739 C597.763185,112.915739 596.559738,111.58738 596.559738,109.327604 C596.559738,108.330391 596.627018,107.599604 596.627018,107.599604 L596.493,107.599604 C596.493,107.599604 593.685136,113.713402 585.395562,113.713402 C576.236228,113.713402 570.486482,106.536593 570.486482,96.1033348 C570.486482,85.4047281 576.837952,78.4932674 585.79653,78.4932674 Z" id="Shape" fill="#474748"></path>
        <path d="M69.7345946,43.9843243 L69.7340541,43.9848649 L69.7324324,43.9783784 C63.8681081,46.4118919 58.3713514,50.0124324 53.6037838,54.7935135 L53.6037838,54.7935135 L53.6037838,54.7945946 L53.5994595,54.7897297 C49.1102703,59.2886486 45.4059459,64.7248649 42.8264865,70.9713514 L42.8264865,70.9713514 L42.8264865,70.9718919 L42.8210811,70.9702703 C40.3891892,76.8491892 39.0416216,83.292973 39.0416216,90.0540541 L39.0416216,90.0540541 L39.0416216,90.0551351 L39.0351351,90.0551351 C39.0318919,96.4194595 40.2454054,102.891351 42.8281081,109.136216 L42.8281081,109.136216 L42.8264865,109.138378 L42.8205405,109.140541 C45.2464865,115.022162 48.8356757,120.535135 53.6054054,125.314054 L53.6054054,125.314054 L53.6048649,125.315676 L53.5994595,125.320541 C58.0854054,129.823243 63.5059459,133.538919 69.7351351,136.124324 L69.7351351,136.124324 L69.7351351,136.125405 L69.7324324,136.131351 C75.5940541,138.56973 82.02,139.922162 88.7616216,139.919459 L88.7616216,139.919459 L88.7610811,139.920541 L88.7610811,139.928649 C95.1075676,139.93027 101.56,138.712973 107.788649,136.124324 L107.788649,136.124324 L107.788649,136.125405 L107.791351,136.131351 C113.655135,133.698378 119.152432,130.097297 123.918919,125.314054 L123.918919,125.314054 L123.918919,125.315676 L123.923784,125.320541 C128.412973,120.821081 132.116757,115.384865 134.696757,109.136216 L134.696757,109.136216 L134.696757,109.138378 L135.131892,109.318919 L134.702703,109.14 C137.133514,103.261622 138.481622,96.8162162 138.481081,90.0540541 L138.481081,90.0540541 L138.481081,90.0551351 L138.488649,90.0551351 C138.49027,83.6902703 137.277297,77.2189189 134.696757,70.9718919 L134.696757,70.9718919 L134.702703,70.9697297 C132.276757,65.0881081 128.685946,59.5751351 123.918919,54.7940541 L123.918919,54.7940541 L123.923784,54.7897297 C119.438378,50.2864865 114.016757,46.5718919 107.788649,43.9843243 L107.788649,43.9843243 L107.791351,43.9783784 C101.929189,41.54 95.5032432,40.1881081 88.7616216,40.1875676 L88.7616216,40.1875676 L88.7610811,40.1881081 L88.7610811,40.1816216 C88.7545946,40.1816216 88.7486486,40.1816216 88.7421622,40.1816216 L88.7421622,40.1816216 C82.4027027,40.1816216 75.9567568,41.3989189 69.7345946,43.9843243" id="Clip-39"></path>
        <path d="M69.7345946,43.9843243 L69.7340541,43.9848649 L69.7324324,43.9783784 C63.8681081,46.4118919 58.3713514,50.0124324 53.6037838,54.7935135 L53.6037838,54.7935135 L53.6037838,54.7945946 L53.5994595,54.7897297 C49.1102703,59.2886486 45.4059459,64.7248649 42.8264865,70.9713514 L42.8264865,70.9713514 L42.8264865,70.9718919 L42.8210811,70.9702703 C40.3891892,76.8491892 39.0416216,83.292973 39.0416216,90.0540541 L39.0416216,90.0540541 L39.0416216,90.0551351 L39.0351351,90.0551351 C39.0318919,96.4194595 40.2454054,102.891351 42.8281081,109.136216 L42.8281081,109.136216 L42.8264865,109.138378 L42.8205405,109.140541 C45.2464865,115.022162 48.8356757,120.535135 53.6054054,125.314054 L53.6054054,125.314054 L53.6048649,125.315676 L53.5994595,125.320541 C58.0854054,129.823243 63.5059459,133.538919 69.7351351,136.124324 L69.7351351,136.124324 L69.7351351,136.125405 L69.7324324,136.131351 C75.5940541,138.56973 82.02,139.922162 88.7616216,139.919459 L88.7616216,139.919459 L88.7610811,139.920541 L88.7610811,139.928649 C95.1075676,139.93027 101.56,138.712973 107.788649,136.124324 L107.788649,136.124324 L107.788649,136.125405 L107.791351,136.131351 C113.655135,133.698378 119.152432,130.097297 123.918919,125.314054 L123.918919,125.314054 L123.918919,125.315676 L123.923784,125.320541 C128.412973,120.821081 132.116757,115.384865 134.696757,109.136216 L134.696757,109.136216 L134.696757,109.138378 L135.131892,109.318919 L134.702703,109.14 C137.133514,103.261622 138.481622,96.8162162 138.481081,90.0540541 L138.481081,90.0540541 L138.481081,90.0551351 L138.488649,90.0551351 C138.49027,83.6902703 137.277297,77.2189189 134.696757,70.9718919 L134.696757,70.9718919 L134.702703,70.9697297 C132.276757,65.0881081 128.685946,59.5751351 123.918919,54.7940541 L123.918919,54.7940541 L123.923784,54.7897297 C119.438378,50.2864865 114.016757,46.5718919 107.788649,43.9843243 L107.788649,43.9843243 L107.791351,43.9783784 C101.929189,41.54 95.5032432,40.1881081 88.7616216,40.1875676 L88.7616216,40.1875676 L88.7610811,40.1881081 L88.7610811,40.1816216 C88.7545946,40.1816216 88.7486486,40.1816216 88.7421622,40.1816216 L88.7421622,40.1816216 C82.4027027,40.1816216 75.9567568,41.3989189 69.7345946,43.9843243" id="Fill-38" fill="#3A403F"></path>
        <path d="M88.8948634,0.491978788 C76.8430308,0.492521212 65.3520132,2.90576667 54.8710044,7.2695697 L54.8710044,7.2695697 C44.0058238,11.7928455 34.2248855,18.4131333 26.0364449,26.6346576 L26.0364449,26.6346576 C17.8480044,34.8556394 11.2542291,44.6756879 6.74928634,55.5854667 L6.74928634,55.5854667 C2.40310573,66.1074121 0,77.6436909 0,89.7451758 L0,89.7451758 C0,101.846661 2.40364758,113.382397 6.74928634,123.90597 L6.74928634,123.90597 C11.2542291,134.813579 17.8469207,144.633627 26.0342775,152.854067 L26.0342775,152.854067 C34.2216344,161.074506 44.0004053,167.695336 54.8645022,172.219155 L54.8645022,172.219155 C65.3449692,176.584042 76.8349031,178.998373 88.8883612,179 L88.8883612,179 L88.8986564,179 C100.948322,179 112.435546,176.587839 122.914388,172.226206 L122.914388,172.226206 L110.623057,142.425961 C103.931207,145.210224 96.5945551,146.750167 88.8986564,146.750167 L88.8986564,146.750167 L88.8899868,146.750167 C81.1930044,146.748539 73.854185,145.20697 67.1601674,142.420536 L67.1601674,142.420536 C60.2206916,139.531585 53.9742423,135.304473 48.7453877,130.053264 L48.7453877,130.053264 C43.5154493,124.803139 39.3047313,118.53163 36.4269648,111.563648 L36.4269648,111.563648 C33.6516079,104.843012 32.1165463,97.4752636 32.1165463,89.7451758 L32.1165463,89.7451758 L32.1165463,89.7446333 C32.1165463,82.0156303 33.6521498,74.6484242 36.4280485,67.926703 L36.4280485,67.926703 C39.3063568,60.9598061 43.5170749,54.6877545 48.7480969,49.4365455 L48.7480969,49.4365455 C53.9774934,44.1858788 60.2244846,39.9582242 67.1645022,37.0687303 L67.1645022,37.0687303 C73.8590617,34.2812121 81.1973392,32.7396424 88.8948634,32.7391 L88.8948634,32.7391 L88.8986564,32.7391 C96.5961806,32.7391 103.934458,34.2806697 110.628476,37.067103 L110.628476,37.067103 L122.923057,7.26848485 C112.441507,2.90522424 100.950489,0.491978788 88.8986564,0.491978788 L88.8986564,0.491978788 L88.8948634,0.491978788 Z" id="Clip-42"></path>
        <path d="M88.8948634,0.491978788 C76.8430308,0.492521212 65.3520132,2.90576667 54.8710044,7.2695697 L54.8710044,7.2695697 C44.0058238,11.7928455 34.2248855,18.4131333 26.0364449,26.6346576 L26.0364449,26.6346576 C17.8480044,34.8556394 11.2542291,44.6756879 6.74928634,55.5854667 L6.74928634,55.5854667 C2.40310573,66.1074121 0,77.6436909 0,89.7451758 L0,89.7451758 C0,101.846661 2.40364758,113.382397 6.74928634,123.90597 L6.74928634,123.90597 C11.2542291,134.813579 17.8469207,144.633627 26.0342775,152.854067 L26.0342775,152.854067 C34.2216344,161.074506 44.0004053,167.695336 54.8645022,172.219155 L54.8645022,172.219155 C65.3449692,176.584042 76.8349031,178.998373 88.8883612,179 L88.8883612,179 L88.8986564,179 C100.948322,179 112.435546,176.587839 122.914388,172.226206 L122.914388,172.226206 L110.623057,142.425961 C103.931207,145.210224 96.5945551,146.750167 88.8986564,146.750167 L88.8986564,146.750167 L88.8899868,146.750167 C81.1930044,146.748539 73.854185,145.20697 67.1601674,142.420536 L67.1601674,142.420536 C60.2206916,139.531585 53.9742423,135.304473 48.7453877,130.053264 L48.7453877,130.053264 C43.5154493,124.803139 39.3047313,118.53163 36.4269648,111.563648 L36.4269648,111.563648 C33.6516079,104.843012 32.1165463,97.4752636 32.1165463,89.7451758 L32.1165463,89.7451758 L32.1165463,89.7446333 C32.1165463,82.0156303 33.6521498,74.6484242 36.4280485,67.926703 L36.4280485,67.926703 C39.3063568,60.9598061 43.5170749,54.6877545 48.7480969,49.4365455 L48.7480969,49.4365455 C53.9774934,44.1858788 60.2244846,39.9582242 67.1645022,37.0687303 L67.1645022,37.0687303 C73.8590617,34.2812121 81.1973392,32.7396424 88.8948634,32.7391 L88.8948634,32.7391 L88.8986564,32.7391 C96.5961806,32.7391 103.934458,34.2806697 110.628476,37.067103 L110.628476,37.067103 L122.923057,7.26848485 C112.441507,2.90522424 100.950489,0.491978788 88.8986564,0.491978788 L88.8986564,0.491978788 L88.8948634,0.491978788 Z" id="Fill-41" fill="url(#linearGradient-1)"></path>
        <path d="M110.623057,37 C117.590609,39.8818197 123.33072,44.0341148 128.580864,49.2708361 C133.832096,54.5075574 138.05952,60.7629508 140.948704,67.7124262 C143.736704,74.4157541 145.277312,81.7650164 145.277312,89.4734918 C145.277312,97.1862951 143.735616,104.538262 140.947072,111.244295 C138.0568,118.19323 133.827744,124.448623 128.575968,129.684262 C123.32528,134.919902 117.590609,139.545764 110.623057,142.425961 L122.914388,172.226206 C133.822132,167.717108 143.152992,160.626361 151.375008,152.429918 C159.597568,144.231311 166.218592,134.438426 170.744128,123.558164 C175.110816,113.059295 177.525632,101.548787 177.525632,89.4740328 C177.525632,77.4030656 175.112448,65.8968852 170.74848,55.4012623 C166.224576,44.521 159.605184,34.7270328 151.383712,26.5278852 C143.162784,18.3287377 133.34304,11.7271148 122.434752,7.21639344 L110.623057,37 Z" id="Fill-44" fill="url(#linearGradient-2)"></path>
        <path d="M58,102.45112 C58,108.849147 62.3831555,115 69.5890936,115 C76.6316675,115 81.1771018,108.849147 81.1771018,102.45112 C81.1771018,102.460985 58,102.460985 58,102.45112 L58,102.45112 Z M95.9835488,90.4108378 L98.5588426,90.4108378 L107.2432,70.8868261 L107.544963,70.8111941 L116.264056,90.4108378 L118.838807,90.4108378 L109.844545,70.232445 L112.759051,69.4985956 L112.145214,67 L93.501606,71.6930191 C92.6793573,69.6509557 90.7032466,68.2101117 88.3911809,68.2101117 C85.3431619,68.2101117 82.8720739,70.7130917 82.8720739,73.8003014 C82.8720739,73.9899294 82.8823859,74.1773652 82.9002963,74.3620607 L64.7690337,78.9257382 L65.3812426,81.4243338 L66.9546413,81.028636 L58.4830372,100.025416 L61.058331,100.025416 L69.831155,80.3041036 L69.9738952,80.2679318 L78.7624585,100.025416 L81.3377524,100.025416 L72.2745634,79.6891827 L83.7415408,76.8031102 C84.7217264,78.3568541 86.4356944,79.3899431 88.3911809,79.3899431 C91.2899469,79.3899431 93.6622565,77.1253682 93.8880357,74.2486127 L104.361259,71.6124546 L95.9835488,90.4108378 Z M95.8228982,92.8365418 C95.8228982,99.2345687 100.206054,105.385422 107.411449,105.385422 C114.455651,105.385422 119,99.2345687 119,92.8365418 C119,92.8464068 95.8228982,92.8464068 95.8228982,92.8365418 L95.8228982,92.8365418 Z" id="Fill-47" fill="#FEFEFE"></path>
    </g>
</svg>