<?xml version="1.0" encoding="utf-8"?>
<!-- Generator: Adobe Illustrator 18.1.1, SVG Export Plug-In . SVG Version: 6.00 Build 0)  -->
<svg version="1.1" id="Layer_1" xmlns="http://www.w3.org/2000/svg" xmlns:xlink="http://www.w3.org/1999/xlink" x="0px" y="0px"
	 viewBox="0 0 191.5 70.1" enable-background="new 0 0 191.5 70.1" xml:space="preserve">
<g>
	<path fill="#004C71" d="M49,30.7h4c4.5,0,6.6,1.3,6.6,5.1c0,2.4-0.8,3.8-2.6,4.5l3.2,5.4v0.1h-1.6c-1.1,0-1.5,0-2-0.9l-2.3-4h-2.5
		v4.9H49V30.7z M53.1,33h-1.4v5.7h1.4c2.4,0,3.6-0.6,3.6-2.8C56.7,33.6,55.6,33,53.1,33z"/>
	<path fill="#004C71" d="M66.7,34.6c3.4,0,5.2,1.8,5.2,5.8c0,4-1.8,5.8-5.2,5.8c-3.4,0-5.2-1.8-5.2-5.8
		C61.5,36.4,63.3,34.6,66.7,34.6z M66.7,44c1.7,0,2.5-1.2,2.5-3.7s-0.8-3.7-2.5-3.7c-1.7,0-2.5,1.2-2.5,3.7S65,44,66.7,44z"/>
	<path fill="#004C71" d="M75.4,49.8l1.5-3.9l-4.1-11v-0.1h2.5l1.9,5.3c0.4,1.2,0.7,2.1,0.9,3.1h0c0.2-1,0.5-2,0.9-3.1l2-5.3h2.6v0.1
		L78.3,49c-0.3,0.8-1,0.8-2.1,0.8L75.4,49.8L75.4,49.8z"/>
	<path fill="#004C71" d="M94.3,38.3v7.5h-0.6c-0.7-0.2-1.2-0.5-1.5-0.8c-0.7,0.6-1.6,1-3.3,1c-2.8,0-4.2-1-4.2-3.7
		c0-2.6,1.4-3.7,4.3-3.7c1.1,0,2,0.2,2.7,0.4v-0.6c0-1.4-0.6-1.8-2.5-1.8c-1.3,0-2.4,0.2-3.7,0.4L85.3,35c1.3-0.3,2.4-0.5,4.4-0.5
		C92.8,34.6,94.3,35.6,94.3,38.3z M91.7,43.5V41c-0.6-0.2-1.4-0.3-2.4-0.3c-1.5,0-2,0.7-2,1.7c0,1,0.5,1.7,2,1.7
		C90.4,44.1,91.1,43.8,91.7,43.5z"/>
	<path fill="#004C71" d="M97.2,43.5V32.9c0-1,0-1.7,2.6-2.4v12.2c0,0.7,0.3,0.9,0.8,0.9c0.3,0,0.5,0,0.8,0l0.1,2.1
		c-0.5,0.1-1.3,0.2-2,0.2C98.1,46,97.2,45.2,97.2,43.5z"/>
	<path fill="#004C71" d="M57,59.6h-5.3v6.5H49V51h2.8v6.3H57V51h2.8v15.1H57V59.6z"/>
	<path fill="#004C71" d="M72.1,58.6v7.5h-0.6c-0.7-0.2-1.2-0.5-1.5-0.8c-0.7,0.6-1.6,1-3.3,1c-2.8,0-4.2-1-4.2-3.7
		c0-2.6,1.4-3.7,4.3-3.7c1.1,0,2,0.2,2.7,0.4v-0.6c0-1.4-0.6-1.8-2.5-1.8c-1.3,0-2.4,0.2-3.7,0.4l-0.2-2.1c1.3-0.3,2.4-0.5,4.4-0.5
		C70.7,54.8,72.1,55.9,72.1,58.6z M69.5,63.8v-2.5c-0.6-0.2-1.4-0.3-2.4-0.3c-1.5,0-2,0.7-2,1.7c0,1,0.5,1.7,2,1.7
		C68.3,64.4,69,64.1,69.5,63.8z"/>
	<path fill="#004C71" d="M74.6,65.9l0.2-2.1c1.3,0.2,2.2,0.4,3.4,0.4c1.5,0,2.3-0.3,2.3-1.2c0-1-1.5-1.2-2.8-1.5
		c-1.3-0.3-3-0.7-3-3.3c0-2.2,1.3-3.4,4.3-3.4c1.7,0,2.7,0.2,3.8,0.5l-0.2,2.1c-1.1-0.2-1.9-0.4-3.1-0.4c-1.5,0-2.1,0.3-2.1,1.1
		c0,1,1.3,1.2,2.6,1.5c1.3,0.4,3.2,0.7,3.2,3.2c0,2.3-1.6,3.5-4.5,3.5C76.9,66.4,75.9,66.2,74.6,65.9z"/>
	<path fill="#004C71" d="M85.9,53.2c0-1,0-1.7,2.6-2.4v15.4h-2.6V53.2z M92.2,55.1h3v0.1l-3.5,5.1l3.5,5.9v0.1h-1.6
		c-0.7,0-1.4,0-2-1l-2.9-4.8L92.2,55.1z"/>
	<path fill="#004C71" d="M101.7,54.8c3.4,0,5.2,1.8,5.2,5.8c0,3.9-1.8,5.8-5.2,5.8c-3.4,0-5.2-1.8-5.2-5.8
		C96.6,56.7,98.3,54.8,101.7,54.8z M101.7,64.3c1.7,0,2.5-1.2,2.5-3.7c0-2.5-0.8-3.7-2.5-3.7c-1.7,0-2.5,1.2-2.5,3.7
		C99.3,63.1,100,64.3,101.7,64.3z"/>
	<path fill="#004C71" d="M109.5,55.1h0.6c0.5,0.2,0.8,0.3,1.2,0.5c0.7-0.4,1.7-0.8,3.1-0.8c3,0,4.4,1.1,4.4,4.5v6.8h-2.6v-6.4
		c0-2.1-0.6-2.7-2-2.7c-0.9,0-1.5,0.2-2,0.4v8.7h-2.6V55.1z"/>
	<path fill="#004C71" d="M121.7,51h2.6v2.7h-2.6V51z M121.7,55.1h2.6v11.1h-2.6V55.1z"/>
	<path fill="#004C71" d="M127.4,55.1h0.6c0.5,0.2,0.8,0.3,1.2,0.5c0.7-0.4,1.7-0.8,3.2-0.8c2.9,0,4.4,1.1,4.4,4.5v6.8h-2.6v-6.4
		c0-2.1-0.6-2.7-2-2.7c-0.9,0-1.5,0.2-2,0.4v8.7h-2.6V55.1z"/>
	<path fill="#004C71" d="M139.1,60.4c0-4.4,1.6-5.5,4.5-5.5c1.4,0,2.5,0.3,3.1,0.8c0.3-0.2,0.6-0.4,1.2-0.5h0.6v11.3
		c0,2.7-1.4,3.8-4.7,3.8c-2,0-3-0.2-4.4-0.5l0.2-2.1c1.3,0.2,2.4,0.4,3.7,0.4c2,0,2.5-0.4,2.5-1.8v-0.8c-0.6,0.4-1.4,0.6-2.3,0.6
		C140.7,65.9,139.1,64.7,139.1,60.4z M146,63.2v-5.7c-0.5-0.2-1.2-0.4-2-0.4c-1.5,0-2.1,0.6-2.1,3.3c0,2.7,0.6,3.3,2.1,3.3
		C144.8,63.7,145.5,63.5,146,63.2z"/>
	<path fill="#004C71" d="M151.9,51h4.6c4.5,0,6.8,2.4,6.8,7.6c0,5.2-2.3,7.6-6.8,7.6h-4.6V51z M156.6,53.3h-2v10.6h2
		c2.4,0,3.8-1.7,3.8-5.3C160.4,54.9,159.1,53.3,156.6,53.3z"/>
	<path fill="#004C71" d="M174.2,59.6h-5.3v6.5h-2.8V51h2.8v6.3h5.3V51h2.8v15.1h-2.8V59.6z"/>
	<path fill="#004C71" d="M179.1,51.1L179.1,51.1l2.9-0.1l2.4,8.2c0.4,1.4,0.7,2.9,0.9,3.9h0c0.2-1,0.5-2.5,0.9-3.9l2.2-7.3
		c0.2-0.8,1.1-0.9,2.1-0.9h1v0.1l-4.7,15.1h-2.9L179.1,51.1z"/>
</g>
<g>
	<g>
		<radialGradient id="SVGID_1_" cx="37.9728" cy="39.2581" r="36.24" gradientUnits="userSpaceOnUse">
			<stop  offset="0.2883" style="stop-color:#BFD730"/>
			<stop  offset="1" style="stop-color:#0091AC"/>
		</radialGradient>
		<path fill="url(#SVGID_1_)" d="M31.6,32.5l-9,7.6l2.6-14.8L11.8,12.9l14.8,4.3C15.5,4.4,0,7,0,7s3.8,13,18.1,19
			c-4.7,8.2-3.9,16.7-0.5,25l13.8-12.4c0.6,0.7,1.7,1.8,3.7,2.6c1.9,0.8,4.6,1.2,7.5,0L31.6,32.5z"/>
		<radialGradient id="SVGID_2_" cx="37.9719" cy="39.2584" r="36.241" gradientUnits="userSpaceOnUse">
			<stop  offset="0.2883" style="stop-color:#BFD730"/>
			<stop  offset="1" style="stop-color:#0091AC"/>
		</radialGradient>
		<path fill="url(#SVGID_2_)" d="M34.8,13.3l1.6-12.8c-3.6-1.3-7.1-0.2-9.3,2c-3.2,3.2-3.6,8.8,0,12.4l1.6-9.3L34,19.3l9.8,2.8
			l-6.6,5.6c12.9-1.2,18.1-10.7,18.1-10.7L34.8,13.3z"/>
	</g>
</g>
</svg>
