<?xml version="1.0" encoding="utf-8"?>
<!-- Generator: Adobe Illustrator 18.1.1, SVG Export Plug-In . SVG Version: 6.00 Build 0)  -->
<svg version="1.1" id="Layer_1" xmlns="http://www.w3.org/2000/svg" xmlns:xlink="http://www.w3.org/1999/xlink" x="0px" y="0px"
	 viewBox="4.3 260 635.7 272" enable-background="new 4.3 260 635.7 272" xml:space="preserve">
<path fill="#37A9BE" d="M640,260c-178.9,0-590.9,0-635.7,0c6.9,10.7,96.5,272,96.5,272H640V260z"/>
<g>
	<path fill="#FFFFFF" d="M222.4,385.1h9.9c10.9,0,16.5,3.2,16.5,12.8c0,5.9-2.1,9.3-6.1,10.9l7.7,13.6v0.3h-4c-2.7,0-3.7,0-5.1-2.1
		l-5.6-9.6h-6.4v12h-6.7v-37.9H222.4z M232.8,390.7h-3.5v14.1h3.5c5.9,0,8.8-1.3,8.8-6.9S238.9,390.7,232.8,390.7"/>
	<path fill="#FFFFFF" d="M266.4,394.4c8.5,0,13.1,4.5,13.1,14.4c0,9.6-4.3,14.4-13.1,14.4c-8.5,0-13.1-4.5-13.1-14.4
		C253.6,399.2,257.9,394.4,266.4,394.4 M266.4,417.9c4.3,0,6.1-2.9,6.1-9.1c0-6.1-1.9-9.1-6.1-9.1s-6.1,2.9-6.1,9.1
		C260,415.2,261.9,417.9,266.4,417.9"/>
	<path fill="#FFFFFF" d="M288,432.3l3.5-9.6l-10.1-27.2v-0.3h6.1l4.8,13.3c1.1,2.9,1.6,5.1,2.4,7.5l0,0c0.5-2.4,1.3-4.8,2.1-7.5
		l4.8-13.3h6.4v0.3l-13.3,34.9c-0.8,1.9-2.4,1.9-5.1,1.9H288L288,432.3z"/>
	<path fill="#FFFFFF" d="M334.7,404v18.7h-1.6c-1.6-0.5-2.9-1.3-3.5-1.9c-1.6,1.3-4,2.4-8,2.4c-6.9,0-10.4-2.7-10.4-9.1
		s3.5-9.1,10.7-9.1c2.7,0,4.8,0.5,6.7,1.1v-1.6c0-3.5-1.3-4.3-6.1-4.3c-3.2,0-5.9,0.3-9.1,1.1l-0.5-5.3c3.2-0.8,5.9-1.1,10.7-1.1
		C331.2,394.4,334.7,397.3,334.7,404 M328.3,416.8v-6.1c-1.6-0.5-3.2-0.8-5.9-0.8c-3.7,0-4.8,1.6-4.8,4s1.1,4.3,4.8,4.3
		C325.1,418.1,326.9,417.3,328.3,416.8"/>
	<path fill="#FFFFFF" d="M342.1,416.5v-26.1c0-2.7,0-4.3,6.4-5.9v30.1c0,1.9,0.8,2.4,2.1,2.4c0.8,0,1.3,0,1.9,0l0.3,5.3
		c-1.3,0.3-3.2,0.5-5.1,0.5C344.3,422.9,342.1,421.3,342.1,416.5"/>
	<polygon fill="#FFFFFF" points="242.4,456.8 229.3,456.8 229.3,473.1 222.4,473.1 222.4,435.5 229.3,435.5 229.3,451.2 
		242.4,451.2 242.4,435.5 249.3,435.5 249.3,473.1 242.4,473.1 	"/>
	<path fill="#FFFFFF" d="M279.7,454.1v18.7h-1.6c-1.6-0.5-2.9-1.3-3.5-1.9c-1.6,1.3-4,2.4-8,2.4c-6.9,0-10.4-2.7-10.4-9.1
		s3.5-9.1,10.7-9.1c2.7,0,4.8,0.5,6.7,1.1v-1.6c0-3.5-1.3-4.3-6.1-4.3c-3.2,0-5.9,0.3-9.1,1.1l-0.5-5.3c3.2-0.8,5.9-1.1,10.7-1.1
		C276.3,444.8,279.7,447.5,279.7,454.1 M273.3,466.9v-6.1c-1.6-0.5-3.2-0.8-5.9-0.8c-3.7,0-4.8,1.6-4.8,4c0,2.4,1.1,4,4.8,4
		C270.4,468.3,272,467.7,273.3,466.9"/>
	<path fill="#FFFFFF" d="M285.9,472.3l0.5-5.1c3.2,0.5,5.3,1.1,8.5,1.1c3.7,0,5.6-0.8,5.6-2.9c0-2.4-3.7-2.9-6.9-3.5
		c-3.2-0.8-7.2-1.9-7.2-8.3c0-5.3,3.2-8.3,10.4-8.3c4,0,6.7,0.5,9.3,1.1l-0.5,5.1c-2.7-0.5-4.8-1.1-7.7-1.1c-3.7,0-5.1,0.8-5.1,2.7
		c0,2.4,3.2,2.9,6.4,3.7c3.2,0.8,7.7,1.9,7.7,8c0,5.6-3.7,8.5-10.9,8.5C291.7,473.6,289.3,473.1,285.9,472.3"/>
	<path fill="#FFFFFF" d="M314.1,440.5c0-2.7,0-4.3,6.4-5.9v38.1h-6.4V440.5z M329.6,445.6h7.5v0.3l-8.5,12.8l8.8,14.7l0,0h-4
		c-1.6,0-3.5,0-4.8-2.4l-7.2-11.7L329.6,445.6z"/>
	<path fill="#FFFFFF" d="M353.1,444.8c8.5,0,13.1,4.5,13.1,14.4c0,9.6-4.3,14.4-13.1,14.4c-8.8,0-13.1-4.5-13.1-14.4
		C340.5,449.3,344.8,444.8,353.1,444.8 M353.1,468c4.3,0,6.1-2.9,6.1-9.1c0-6.1-1.9-9.1-6.1-9.1c-4.3,0-6.1,2.9-6.1,9.1
		C346.9,465.3,348.8,468,353.1,468"/>
	<path fill="#FFFFFF" d="M372.3,445.6h1.6c1.3,0.5,2.1,0.8,2.9,1.3c1.6-1.1,4.3-1.9,7.7-1.9c7.2,0,10.7,2.7,10.7,10.9v17.1h-6.4v-16
		c0-5.1-1.3-6.4-5.1-6.4c-2.1,0-3.7,0.5-5.1,1.1v21.3h-6.4L372.3,445.6L372.3,445.6z"/>
	<path fill="#FFFFFF" d="M402.7,435.5h6.4v6.4h-6.4V435.5z M402.7,445.6h6.4v27.5h-6.4V445.6z"/>
	<path fill="#FFFFFF" d="M416.8,445.6h1.6c1.3,0.5,2.1,0.8,2.9,1.3c1.6-1.1,4.3-1.9,7.7-1.9c7.2,0,10.7,2.7,10.7,10.9v17.1h-6.4v-16
		c0-5.1-1.3-6.4-5.1-6.4c-2.1,0-3.7,0.5-5.1,1.1v21.3h-6.4L416.8,445.6L416.8,445.6z"/>
	<path fill="#FFFFFF" d="M445.6,458.7c0-10.7,4-13.9,11.2-13.9c3.5,0,6.1,0.8,7.7,1.9c0.8-0.5,1.6-0.8,2.9-1.3h1.6v28
		c0,6.7-3.5,9.3-11.5,9.3c-4.8,0-7.5-0.5-10.7-1.1l0.5-5.3c3.2,0.5,5.9,1.1,9.1,1.1c4.8,0,6.1-0.8,6.1-4.3v-2.1
		c-1.3,1.1-3.5,1.3-5.6,1.3C449.6,472.3,445.6,469.3,445.6,458.7 M462.7,465.6v-14.4c-1.3-0.5-2.9-1.1-5.1-1.1
		c-3.7,0-5.1,1.3-5.1,8.3c0,6.7,1.6,8,5.1,8C459.7,466.7,461.6,466.1,462.7,465.6"/>
	<path fill="#FFFFFF" d="M477.3,435.5h11.2c10.9,0,17.1,5.9,17.1,18.7c0,12.8-5.6,18.7-17.1,18.7h-11.2V435.5z M489.1,441.1h-4.8
		v26.1h4.8c5.9,0,9.3-4,9.3-13.1C498.4,445.1,495.2,441.1,489.1,441.1"/>
	<polygon fill="#FFFFFF" points="532.5,456.8 519.5,456.8 519.5,473.1 512.8,473.1 512.8,435.5 519.5,435.5 519.5,451.2 
		532.5,451.2 532.5,435.5 539.5,435.5 539.5,473.1 532.5,473.1 	"/>
	<path fill="#FFFFFF" d="M544.8,435.5L544.8,435.5l6.9-0.3l5.9,20.3c1.1,3.5,1.9,6.9,2.4,9.6l0,0c0.5-2.4,1.1-6.1,2.1-9.6l5.3-18.1
		c0.5-1.9,2.7-2.1,5.3-2.1h2.4v0.3l-11.7,37.3h-7.2L544.8,435.5z"/>
	<g>
		<g>
			<path id="SVGID_1_" fill="#FFFFFF" d="M101.3,326.4c0,0,9.3,32,44.8,46.9c-11.5,20.3-9.6,41.3-1.3,62.1l33.9-30.9
				c1.6,2.1,4.3,4.8,9.3,6.7c4.8,1.9,11.2,2.9,18.7,0l-27.2-21.9l-22.1,18.9l6.1-36.5l-33.1-30.7l36.5,10.4
				c-19.5-22.7-44.5-25.9-57.3-25.9C104.5,325.9,101.3,326.4,101.3,326.4"/>
		</g>
	</g>
	<g>
		<g>
			<path id="SVGID_3_" fill="#FFFFFF" d="M168.3,315.5c-8,8-8.8,21.9,0,30.7l4-23.2l13.3,33.6l24.3,6.9l-16.3,14.1
				c32-2.9,45.1-26.4,45.1-26.4l-51.2-9.3l4-31.5c-2.7-0.8-5.1-1.3-7.7-1.3C177.6,309.1,172.3,311.5,168.3,315.5"/>
		</g>
	</g>
</g>
</svg>
