<?xml version="1.0" encoding="utf-8"?>
<!-- Generator: Adobe Illustrator 18.1.1, SVG Export Plug-In . SVG Version: 6.00 Build 0)  -->
<svg version="1.1" id="Layer_1" xmlns="http://www.w3.org/2000/svg" xmlns:xlink="http://www.w3.org/1999/xlink" x="0px" y="0px"
	 viewBox="8.8 340.1 601.2 115.2" enable-background="new 8.8 340.1 601.2 115.2" xml:space="preserve">
<g>
	<path fill="#FFFFFF" d="M17.8,383.3c-2.7,0-5.6-0.4-7.9-0.9l0.5-7c2.2,0.7,5.2,1.4,8.1,1.4c3.8,0,6.7-1.6,6.7-5
		c0-7.4-16.4-4-16.4-16.7c0-6.8,5.4-11.7,14.8-11.7c2.2,0,4.7,0.4,7,0.7l-0.4,6.5c-2.2-0.7-4.7-1.1-7-1.1c-4.3,0-6.5,2-6.5,4.7
		c0,7,16.4,4.3,16.4,16.6C33.1,377.9,27.4,383.3,17.8,383.3z"/>
	<path fill="#FFFFFF" d="M49.1,383.1c-6.3,0-8.3-2.3-8.3-9v-14.6H36v-5.8h4.9v-8.6l7.4-2V354h7v5.8h-7v12.6c0,3.6,0.9,4.7,3.4,4.7
		c1.3,0,2.5-0.2,3.6-0.5v5.9C53.3,383,51.1,383.1,49.1,383.1z"/>
	<path fill="#FFFFFF" d="M64.8,350.2c-2.5,0-4.5-2-4.5-4.5c0-2.3,2-4.5,4.5-4.5s4.7,2,4.7,4.5S67.3,350.2,64.8,350.2z M61.2,382.6
		V354h7.4v28.6H61.2z"/>
	<path fill="#FFFFFF" d="M87.3,383.1c-7.9,0-13-4.1-13-13.9c0-9,4.7-15.8,14.8-15.8c2,0,4,0.4,5.9,0.7l-0.7,6.5
		c-1.6-0.5-3.4-1.1-5.2-1.1c-4.5,0-6.8,3.6-6.8,9c0,4.9,2,8.3,6.8,8.3c2,0,4.1-0.4,5.6-1.3l0.5,6.3
		C93.2,382.6,90.3,383.1,87.3,383.1z"/>
	<path fill="#FFFFFF" d="M118.4,382.6v-18.4c0-3.1-0.7-4.9-3.6-4.9c-3.8,0-6.7,4.3-6.7,9.4v13.9h-7.4v-42.1h7.4v12.2
		c0,1.8-0.2,4.1-0.5,5.8h0.2c1.6-3.2,5-5.4,9.4-5.4c6.5,0,8.5,4.1,8.5,9.2v20.2h-7.2V382.6z"/>
	<path fill="#FFFFFF" d="M143.4,383.1c-6.3,0-8.3-2.3-8.3-9v-14.6h-5v-5.8h4.9v-8.6l7.4-2V354h7v5.8h-7v12.6c0,3.6,0.9,4.7,3.4,4.7
		c1.3,0,2.5-0.2,3.6-0.5v5.9C147.6,383,145.4,383.1,143.4,383.1z"/>
	<path fill="#FFFFFF" d="M159.1,350.2c-2.5,0-4.5-2-4.5-4.5c0-2.3,2-4.5,4.5-4.5s4.7,2.2,4.7,4.7
		C163.8,348.2,161.6,350.2,159.1,350.2z M155.5,382.6V354h7.4v28.6H155.5z"/>
	<path fill="#FFFFFF" d="M188.2,382.6v-18.4c0-3.1-0.7-4.9-3.6-4.9c-3.8,0-6.7,4.3-6.7,9.4v13.9h-7.4V354h7c0,1.3-0.2,3.6-0.4,5l0,0
		c1.8-3.4,5-5.8,9.7-5.8c6.5,0,8.5,4.1,8.5,9.2v20.2H188.2z"/>
	<path fill="#FFFFFF" d="M214,397.2c-7.6,0-12.2-2.9-12.2-8.5c0-3.1,2-5.8,4.3-6.8c-1.8-0.9-2.9-2.3-2.9-4.3c0-2.2,1.4-4.1,3.4-5
		c-2.9-1.4-4.3-4.5-4.3-7.9c0-6.1,4.5-11.2,13-11.2c2,0,3.4,0.4,5,0.7h9.7v5.8h-3.8c0.9,0.7,1.4,2.2,1.4,3.8
		c0,6.3-4.5,10.4-12.4,10.4c-0.9,0-2.2,0-2.9-0.2c-0.9,0.4-1.4,1.1-1.4,1.8c0,1.3,1.1,1.8,4.5,1.8h4.5c6.3,0,9.7,2.9,9.7,8.5
		C229.6,392,223.5,397.2,214,397.2z M217.7,383.3h-5c-0.4,0-0.9,0-1.3,0c-1.6,0.9-2.5,2.5-2.5,4.1c0,2.7,2.3,4.1,6.1,4.1
		c4.9,0,7.4-2,7.4-4.7C222.4,384.8,221,383.3,217.7,383.3z M215,358.7c-3.6,0-5.6,2.2-5.6,5.2c0,3.2,2.2,5,5.6,5s5.6-2,5.6-5
		C220.4,360.6,218.5,358.7,215,358.7z"/>
	<path fill="#FFFFFF" d="M258.2,368.9c-0.7,0-1.6,0-2.5-0.2v13.7h-7.6v-38.7c3.2-0.2,6.7-0.2,10.4-0.2c9.5,0,14.8,4.5,14.8,12.1
		C273.3,363.2,267.6,368.9,258.2,368.9z M258.2,349.7c-0.9,0-1.8,0-2.7,0v13c0.7,0.2,1.4,0.2,2.2,0.2c4.7,0,7.7-2.5,7.7-6.8
		C265.6,352,263.4,349.7,258.2,349.7z"/>
	<path fill="#FFFFFF" d="M302,369.5h-17.8c0,5.4,2.5,7.9,7.9,7.9c2.9,0,5.9-0.7,8.3-1.8l0.7,5.8c-3.1,1.3-6.7,1.8-10.3,1.8
		c-9.2,0-14.2-4.5-14.2-14.6c0-8.8,4.9-15.1,13.5-15.1c8.3,0,12.1,5.8,12.1,12.8C302.1,367.1,302.1,368.2,302,369.5z M289.9,358.8
		c-3.1,0-5.2,2.2-5.6,5.8h10.6C294.9,360.8,293,358.8,289.9,358.8z"/>
	<path fill="#FFFFFF" d="M325.9,382.6v-18.4c0-3.1-0.7-4.9-3.6-4.9c-3.8,0-6.7,4.3-6.7,9.4v13.9h-7.4V354h7c0,1.3-0.2,3.6-0.4,5l0,0
		c1.8-3.4,5-5.8,9.7-5.8c6.5,0,8.5,4.1,8.5,9.2v20.2H325.9z"/>
	<path fill="#FFFFFF" d="M346,383.1c-2.2,0-4.1-0.2-5.9-0.5l0.2-6.1c1.8,0.5,4,0.9,6.1,0.9c2.9,0,4.7-1.1,4.7-3.1
		c0-5-11.5-2.2-11.5-11.9c0-5,4.1-9.2,12.2-9.2c1.6,0,3.6,0.2,5.2,0.5l-0.2,5.8c-1.6-0.5-3.6-0.7-5.2-0.7c-2.9,0-4.3,1.1-4.3,2.9
		c0,4.7,11.7,2.5,11.7,11.9C358.8,379.4,354,383.1,346,383.1z"/>
	<path fill="#FFFFFF" d="M368.9,350.2c-2.5,0-4.5-2-4.5-4.5c0-2.3,2-4.5,4.5-4.5s4.7,2,4.7,4.5C373.4,348.2,371.4,350.2,368.9,350.2
		z M365.1,382.6V354h7.4v28.6H365.1z"/>
	<path fill="#FFFFFF" d="M391.7,383.1c-8.1,0-13.3-4.1-13.3-14.4c0-9,5.9-15.3,14.6-15.3c8.1,0,13.3,4.5,13.3,14.4
		C406.3,376.7,400.4,383.1,391.7,383.1z M392.5,359.6c-3.2,0-6.5,2.5-6.5,8.5c0,5.9,2.2,8.8,6.5,8.8c3.6,0,6.5-2.9,6.5-8.8
		C398.8,362.6,396.8,359.6,392.5,359.6z"/>
	<path fill="#FFFFFF" d="M435.5,369.5h-17.8c0,5.4,2.5,7.9,7.9,7.9c2.9,0,5.9-0.7,8.3-1.8l0.7,5.8c-3.1,1.3-6.7,1.8-10.3,1.8
		c-9.2,0-14.2-4.5-14.2-14.6c0-8.8,4.9-15.1,13.5-15.1c8.3,0,12.1,5.8,12.1,12.8C435.8,367.1,435.7,368.2,435.5,369.5z M423.4,358.8
		c-3.1,0-5.2,2.2-5.6,5.8h10.6C428.6,360.8,426.7,358.8,423.4,358.8z"/>
	<path fill="#FFFFFF" d="M459.4,382.6v-18.4c0-3.1-0.7-4.9-3.6-4.9c-3.8,0-6.7,4.3-6.7,9.4v13.9h-7.4V354h7c0,1.3-0.2,3.6-0.4,5l0,0
		c1.8-3.4,5-5.8,9.7-5.8c6.5,0,8.5,4.1,8.5,9.2v20.2H459.4z"/>
	<path fill="#FFFFFF" d="M491.8,346.6c-1.1-0.4-2.5-0.5-3.6-0.5c-3.2,0-4.7,1.6-4.7,5.4v2.3h6.7v5.8h-6.7v22.9h-7.4v-22.7h-5V354h5
		v-2.3c0-7.7,3.6-11.5,11.3-11.5c1.6,0,3.2,0.2,4.7,0.5L491.8,346.6z"/>
	<path fill="#FFFFFF" d="M506.6,383.1c-8.1,0-13.3-4.1-13.3-14.4c0-9,5.9-15.3,14.6-15.3c8.1,0,13.3,4.5,13.3,14.4
		C521.1,376.7,515,383.1,506.6,383.1z M507.3,359.6c-3.2,0-6.5,2.5-6.5,8.5c0,5.9,2.2,8.8,6.5,8.8c3.6,0,6.5-2.9,6.5-8.8
		C513.6,362.6,511.6,359.6,507.3,359.6z"/>
	<path fill="#FFFFFF" d="M544.5,382.6v-18.4c0-3.1-0.7-4.9-3.6-4.9c-3.8,0-6.7,4.3-6.7,9.4v13.9h-7.4V354h7c0,1.3-0.2,3.6-0.4,5l0,0
		c1.8-3.4,5-5.8,9.7-5.8c6.5,0,8.5,4.1,8.5,9.2v20.2H544.5z"/>
	<path fill="#FFFFFF" d="M577.1,382.6c0-1.4,0.2-3.2,0.4-4.9h-0.2c-1.4,3.2-4.7,5.4-9,5.4c-7,0-10.4-5.2-10.4-13.5
		c0-9.7,5.6-16.4,15.1-16.4c1.3,0,2.3,0,3.6,0.2v-13h7.4v42.1H577.1z M576.7,359.7c-1.3-0.4-2.5-0.5-3.8-0.5c-4.1,0-7.2,2.7-7.2,9.7
		c0,5.4,1.6,8.1,4.9,8.1c3.8,0,6.1-4.5,6.1-9.4V359.7z"/>
	<path fill="#FFFFFF" d="M597.1,383.1c-2.2,0-4.1-0.2-5.9-0.5l0.2-6.1c1.8,0.5,4,0.9,6.1,0.9c2.9,0,4.7-1.1,4.7-3.1
		c0-5-11.5-2.2-11.5-11.9c0-5,4.1-9.2,12.2-9.2c1.6,0,3.6,0.2,5.2,0.5l-0.2,5.8c-1.6-0.5-3.6-0.7-5.2-0.7c-2.9,0-4.3,1.1-4.3,2.9
		c0,4.7,11.7,2.5,11.7,11.9C609.8,379.4,604.8,383.1,597.1,383.1z"/>
	<path fill="#FFFFFF" d="M38,440.2v-18.7H15.8v18.7h-3.6v-38.9h3.6v17.1h22.3v-17.1h3.6v38.9C41.7,440.2,38,440.2,38,440.2z"/>
	<path fill="#FFFFFF" d="M68,440.2c0-2.3,0-4.7,0.4-6.3h-0.2c-1.4,3.8-5,6.8-10.1,6.8c-4.5,0-7.7-2.2-7.7-6.8
		c0-5.8,6.1-10.1,17.6-10.1v-2.5c0-4.7-1.6-7.2-6.8-7.2c-2.7,0-6.3,0.9-8.8,2.5l-0.4-3.2c2.7-1.3,5.9-2.2,9.9-2.2
		c7.6,0,9.7,4,9.7,9.2v11c0,2.9,0,6.3,0.2,8.8H68z M67.8,426.5c-11.5,0-13.9,3.6-13.9,6.5s2,4.5,5,4.5c5.4,0,9-5.4,9-10.6v-0.4H67.8
		z"/>
	<path fill="#FFFFFF" d="M86.9,440.7c-2.2,0-4.3-0.2-6.1-0.5l0.2-3.4c1.8,0.5,4.1,0.9,6.5,0.9c4.5,0,7.6-2,7.6-5.2
		c0-7.4-14.4-2.7-14.4-13c0-4.7,3.8-8.1,11-8.1c1.8,0,3.8,0.2,5.8,0.7l-0.2,3.2c-2-0.5-4-0.9-6.1-0.9c-4.5,0-6.7,2-6.7,4.9
		c0,7.4,14.6,3.1,14.6,13C98.6,436.6,94.3,440.7,86.9,440.7z"/>
	<path fill="#FFFFFF" d="M122.9,440.2L111,425.1v15.1h-3.6v-42.1h3.6v26.5l11.3-13h4.3l-11.5,13l12.6,15.7H122.9z"/>
	<path fill="#FFFFFF" d="M144.1,440.7c-7.6,0-12.4-4.7-12.4-14.8c0-7.9,4.9-14.9,13.5-14.9c6.7,0,12.4,3.6,12.4,14.4
		C157.6,433.7,152.6,440.7,144.1,440.7z M144.7,414.1c-4.7,0-9.2,3.6-9.2,11.7c0,7.6,3.4,12.1,9.4,12.1c4.7,0,9.2-3.6,9.2-12.1
		C153.9,418.4,150.8,414.1,144.7,414.1z"/>
	<path fill="#FFFFFF" d="M184.4,440.2v-18.5c0-4.9-1.3-7.6-5.8-7.6c-5.4,0-9.2,5.2-9.2,12.4v13.7h-3.6v-28.6h3.6
		c0,2-0.2,4.9-0.5,6.7h0.2c1.6-4.3,5.2-7.2,10.4-7.2c6.7,0,8.6,4.1,8.6,9.2v20C188.2,440.2,184.4,440.2,184.4,440.2z"/>
	<path fill="#FFFFFF" d="M201,406.2c-1.4,0-2.5-1.1-2.5-2.5c0-1.4,1.1-2.5,2.5-2.5c1.4,0,2.5,1.1,2.5,2.5
		C203.5,404.9,202.4,406.2,201,406.2z M199.2,440.2v-28.6h3.6v28.6C202.8,440.2,199.2,440.2,199.2,440.2z"/>
	<path fill="#FFFFFF" d="M232.5,440.2v-18.5c0-4.9-1.3-7.6-5.8-7.6c-5.4,0-9.2,5.2-9.2,12.4v13.7H214v-28.6h3.6c0,2-0.2,4.9-0.5,6.7
		h0.2c1.6-4.3,5.2-7.2,10.4-7.2c6.7,0,8.6,4.1,8.6,9.2v20C236.3,440.2,232.5,440.2,232.5,440.2z"/>
	<path fill="#FFFFFF" d="M256.1,455.3c-7.2,0-11.9-3.1-11.9-8.5c0-3.6,2.3-6.3,5-7.7c-1.8-0.9-2.9-2.3-2.9-4.1c0-2,1.1-3.6,3.1-4.5
		c-2.9-1.8-4.3-4.7-4.3-8.5c0-5.9,4.7-11,12.2-11c1.4,0,2.7,0.2,4.1,0.5h9.7v2.9h-5.4c1.8,1.4,3.1,3.8,3.1,6.8
		c0,6.1-4.1,10.8-12.4,10.8c-1.4,0-3.1-0.2-4.1-0.5c-1.6,0.7-2.2,1.6-2.2,2.7c0,1.8,1.8,2.5,5.2,2.5h5.9c6.3,0,9.5,3.1,9.5,7.9
		C271,451,264.7,455.3,256.1,455.3z M260.4,440.2h-8.1c-2.7,1.4-4.5,3.6-4.5,6.1c0,4,3.8,5.9,8.8,5.9c6.7,0,10.6-2.9,10.6-6.8
		C267.2,442.2,264.9,440.2,260.4,440.2z M257.3,413.9c-5.2,0-8.5,3.2-8.5,7.7c0,5,3.1,7.6,8.1,7.6c5,0,8.3-2.7,8.3-7.6
		S262.4,413.9,257.3,413.9z"/>
	<path fill="#FFFFFF" d="M288.3,440.4c-3.8,0-6.5-0.2-9.2-0.2v-38.9c3.1,0,7-0.2,10.8-0.2c12.8,0,20.2,6.1,20.2,19.3
		C310.2,433.7,301.1,440.4,288.3,440.4z M289.5,404.2c-2.2,0-5,0.2-6.7,0.2v32.6c1.8,0.2,4.3,0.4,5.9,0.4c10.4,0,17.5-5,17.5-16.6
		C306.3,409.6,300.5,404.2,289.5,404.2z"/>
	<path fill="#FFFFFF" d="M344.6,440.2v-18.7h-22.3v18.7h-3.6v-38.9h3.6v17.1h22.3v-17.1h3.6v38.9
		C348.2,440.2,344.6,440.2,344.6,440.2z"/>
	<path fill="#FFFFFF" d="M373,440.2h-4l-14.4-38.9h4.3l9.4,26.6c0.9,2.3,2,5.4,2.7,8.5l0,0c0.7-2.9,1.8-5.8,2.9-8.8l9.9-26.3h3.8
		L373,440.2z"/>
</g>
</svg>
