<svg width="16" height="16" xmlns="http://www.w3.org/2000/svg" viewBox="0 0 64 64"><path class="lcls-1" d="M6.54 24.41c2.16-1.72 5.38-.75 5.38-.75s-3.54.33-4.45 2.2c-.59 1.22.27 2.5 1.24 3.35a7.63 7.63 0 0 0 2 1.07c2.56-7.55 11.3-13.11 21.7-13.11a27 27 0 0 1 11.85 2.66c4-1.64 8.72-3.45 9.57-3.23 1 .26-1.38 5-3.08 8.05a17.23 17.23 0 0 1 2.08 2.85h4.25a1.72 1.72 0 0 1 1.72 1.72v10.7a1.72 1.72 0 0 1-1.72 1.72h-3.95a17.78 17.78 0 0 1-4.08 5.07l1.72 5.44a1.72 1.72 0 0 1-1.12 2.16l-5.1 1.62a1.72 1.72 0 0 1-2.16-1.12l-1.17-3.69a28.14 28.14 0 0 1-17.68 0l-1.16 3.68a1.72 1.72 0 0 1-2.16 1.12l-5.1-1.62A1.72 1.72 0 0 1 14 52.14l1.72-5.44a15.76 15.76 0 0 1-5.8-11.85 14.13 14.13 0 0 1 .08-1.77 8.79 8.79 0 0 1-4-2.79c-1-1.48-1.21-4.48.54-5.88zM32.48 14.41a28.1 28.1 0 0 0-6.57.77v-.58a6.6 6.6 0 1 1 13.19 0v.58a28.1 28.1 0 0 0-6.62-.77z"></path></svg>