<?xml version="1.0" encoding="utf-8"?>
<!DOCTYPE svg PUBLIC "-//W3C//DTD SVG 1.1//EN" "http://www.w3.org/Graphics/SVG/1.1/DTD/svg11.dtd">
<svg version="1.1" id="Layer_1" xmlns="http://www.w3.org/2000/svg" xmlns:xlink="http://www.w3.org/1999/xlink" x="0px" y="0px"
	 width="595.28px" height="841.89px" viewBox="0 0 595.28 841.89" enable-background="new 0 0 595.28 841.89" xml:space="preserve">
<g>
	<path fill="#c3c3c3" fill-rule="evenodd" clip-rule="evenodd" d="M60.023,347.135c0-27.494-0.004-54.988,0.001-82.482
		c0.002-11.738,4.524-16.256,16.271-16.258c31.493-0.004,62.987,0,94.48-0.001c5.188,0,9.988,1.043,13.046,5.717
		c2.544,3.889,2.784,7.912,0.249,12.067c-2.704,4.433-6.721,6.185-11.65,6.19c-24.661,0.03-49.323,0.015-73.984,0.015
		c-3,0-6.002,0.09-8.997-0.021c-3.722-0.14-5.487,1.413-5.485,5.259c0.034,46.156,0.026,92.313-0.014,138.47
		c-0.003,3.801,1.715,5.33,5.463,5.313c16.163-0.074,32.327,0.036,48.488-0.129c1.729-0.018,4.253-0.98,4.917-2.272
		c0.566-1.101-0.697-3.526-1.708-4.978c-2.276-3.269-4.991-6.227-7.356-9.436c-3.996-5.422-3.606-12.181,0.792-16.282
		c4.426-4.127,12.119-4.071,16.679,0.882c10.703,11.628,21.206,23.448,31.483,35.453c4.717,5.51,4.256,13.491-1.182,19.866
		c-9.723,11.396-19.71,22.579-29.877,33.582c-5.095,5.515-11.449,5.344-17.139,0.329c-4.543-4.003-4.986-10.677-0.928-16.148
		c2.376-3.204,5.1-6.156,7.378-9.423c1.016-1.458,2.326-4.2,1.724-4.972c-1.083-1.391-3.502-2.398-5.372-2.414
		c-19.995-0.164-39.991-0.102-59.987-0.104c-1.167,0-2.334,0.035-3.499-0.01c-9.034-0.345-13.768-5.326-13.781-14.732
		C59.998,402.79,60.023,374.962,60.023,347.135z"/>
	<path fill="#c3c3c3" fill-rule="evenodd" clip-rule="evenodd" d="M523.908,174.26c0.006,27.163-0.098,54.327,0.058,81.489
		c0.06,10.535-4.093,17.045-16.862,16.754c-19.986-0.455-39.991-0.182-59.988-0.029c-2.087,0.017-4.163,1.299-6.244,1.992
		c0.773,1.981,1.22,4.187,2.392,5.895c2.155,3.144,4.874,5.896,7.114,8.988c3.954,5.463,3.242,12.452-1.496,16.647
		c-4.729,4.188-11.924,4.171-16.535-0.823c-10.5-11.37-20.833-22.907-30.862-34.691c-5.187-6.095-4.829-12.82,0.447-18.857
		c10.08-11.532,20.295-22.947,30.595-34.284c4.606-5.071,11.461-5.521,16.44-1.472c4.909,3.991,5.631,10.857,1.498,16.476
		c-2.657,3.612-5.69,6.944-8.44,10.49c-2.52,3.247-1.237,6.448,2.87,6.486c16.997,0.158,33.996,0.138,50.993,0.008
		c3.815-0.029,4.104-2.994,4.1-6.069c-0.042-24.997-0.015-49.993-0.013-74.99c0.001-20.498-0.095-40.996,0.062-61.491
		c0.036-4.714-1.625-6.476-6.394-6.451c-26.829,0.143-53.659,0.066-80.49,0.076c-5.208,0.002-10.074-1.054-13.058-5.736
		c-5.239-8.226,0.651-18.05,10.98-18.207c12.162-0.184,24.33-0.044,36.494-0.044c20.664,0,41.329-0.012,61.992,0.005
		c9.711,0.008,14.307,4.536,14.324,14.349C523.937,118.6,523.903,146.43,523.908,174.26z"/>
	<path fill="#c3c3c3" fill-rule="evenodd" clip-rule="evenodd" d="M292.274,198.399c21.828,0,43.655-0.009,65.483,0.004
		c9.846,0.006,14.08,3.958,14.108,13.742c0.094,32.324,0.086,64.649,0.014,96.974c-0.02,9.276-4.922,14.165-14.255,14.18
		c-43.822,0.068-87.644,0.067-131.465,0.013c-9.235-0.011-14.089-4.994-14.104-14.311c-0.048-31.991-0.045-63.983-0.013-95.975
		c0.01-9.75,4.982-14.62,14.749-14.624C248.619,198.393,270.446,198.399,292.274,198.399z M291.962,222.389
		c-16.655,0-33.312,0.092-49.965-0.061c-4.526-0.042-6.162,1.681-6.132,6.178c0.139,21.317,0.056,42.637,0.071,63.956
		c0.004,6.297,0.655,6.963,6.821,6.964c32.811,0.004,65.622-0.002,98.433-0.018c6.191-0.003,6.809-0.634,6.813-6.955
		c0.015-21.152,0.015-42.305,0.005-63.457c-0.002-6.017-0.581-6.598-6.578-6.603C324.939,222.38,308.451,222.389,291.962,222.389z"
		/>
	<path fill="#c3c3c3" fill-rule="evenodd" clip-rule="evenodd" d="M291.684,489.329c-21.482,0.004-42.965,0.021-64.448-0.003
		c-10.491-0.011-15.186-4.722-15.193-15.259c-0.022-31.475-0.025-62.95-0.008-94.425c0.006-10.468,4.779-15.261,15.114-15.262
		c43.464-0.005,86.929-0.007,130.395,0.001c9.682,0.002,14.322,4.549,14.338,14.316c0.053,31.975,0.048,63.948,0.015,95.923
		c-0.011,9.854-4.814,14.655-14.765,14.684C335.315,489.368,313.5,489.324,291.684,489.329z M291.981,465.395
		c0-0.007,0-0.013,0-0.02c16.49,0,32.98,0.012,49.471-0.006c5.872-0.007,6.547-0.692,6.552-6.689
		c0.017-21.321-0.083-42.643,0.078-63.962c0.036-4.737-1.653-6.438-6.406-6.419c-33.146,0.131-66.293,0.132-99.439,0
		c-4.779-0.02-6.415,1.732-6.38,6.445c0.159,21.319,0.06,42.64,0.077,63.961c0.004,5.967,0.708,6.677,6.578,6.684
		C259.001,465.406,275.491,465.395,291.981,465.395z"/>
	<path fill="#c3c3c3" fill-rule="evenodd" clip-rule="evenodd" d="M291.839,150.398c-21.651,0-43.302,0.008-64.952-0.003
		c-9.874-0.005-14.808-4.722-14.828-14.509c-0.063-31.976-0.063-63.953-0.006-95.929c0.018-9.627,4.818-14.464,14.448-14.478
		c43.8-0.061,87.602-0.061,131.404-0.009c9.431,0.011,13.965,4.674,13.979,14.233c0.047,32.143,0.054,64.286,0.004,96.429
		c-0.015,9.392-5.087,14.256-14.597,14.261C335.474,150.407,313.656,150.398,291.839,150.398z M291.632,126.409
		c16.657,0,33.316-0.108,49.973,0.069c4.691,0.05,6.515-1.563,6.479-6.359c-0.161-21.32-0.063-42.643-0.075-63.964
		c-0.003-6.19-0.592-6.763-6.974-6.765c-32.816-0.009-65.631-0.007-98.447,0.001c-5.948,0.002-6.652,0.69-6.657,6.589
		c-0.015,21.321-0.015,42.644,0,63.965c0.004,5.888,0.61,6.455,6.728,6.459C258.982,126.416,275.307,126.409,291.632,126.409z"/>
	<path fill="#c3c3c3" fill-rule="evenodd" clip-rule="evenodd" d="M283.473,272.13c11.295-11.532,22.554-23.071,33.866-34.559
		c7.281-7.394,8.66-7.337,15.042,1.192c0.804,1.074,0.749,4.045-0.128,4.935c-15.544,15.77-31.236,31.397-47.079,46.868
		c-0.896,0.874-4.084,0.901-4.98,0.043c-9.015-8.637-17.845-17.472-26.488-26.48c-0.848-0.884-0.831-4.012,0.026-4.896
		c9.244-9.542,7.195-8.87,15.356-0.783c4.139,4.102,8.254,8.228,12.389,12.333C281.707,271.012,282.021,271.157,283.473,272.13z"/>
</g>
</svg>
