<svg xmlns="http://www.w3.org/2000/svg" width="22.906" height="22.906" viewBox="0 0 22.906 22.906"><defs><style>.a{fill:#006f47;}</style></defs><path class="a" d="M20.452,54.906h-18A2.454,2.454,0,0,1,0,52.452v-18A2.454,2.454,0,0,1,2.454,32h18a2.454,2.454,0,0,1,2.454,2.454v18A2.454,2.454,0,0,1,20.452,54.906ZM9.986,49.892l9.408-9.408a.818.818,0,0,0,0-1.157l-1.157-1.157a.818.818,0,0,0-1.157,0L9.408,45.843,5.826,42.261a.818.818,0,0,0-1.157,0L3.512,43.418a.818.818,0,0,0,0,1.157l5.317,5.317A.818.818,0,0,0,9.986,49.892Z" transform="translate(0 -32)"/></svg>