<svg xmlns="http://www.w3.org/2000/svg" width="23.351" height="23.351" viewBox="0 0 23.351 23.351"><defs><style>.a{fill:#24abde;}</style></defs><path class="a" d="M19.675,8A11.675,11.675,0,1,0,31.351,19.675,11.677,11.677,0,0,0,19.675,8Zm0,5.179A1.977,1.977,0,1,1,17.7,15.156,1.977,1.977,0,0,1,19.675,13.179Zm2.636,11.958a.565.565,0,0,1-.565.565H17.6a.565.565,0,0,1-.565-.565v-1.13a.565.565,0,0,1,.565-.565h.565V20.429H17.6a.565.565,0,0,1-.565-.565v-1.13a.565.565,0,0,1,.565-.565h3.013a.565.565,0,0,1,.565.565v4.708h.565a.565.565,0,0,1,.565.565Z" transform="translate(-8 -8)"/></svg>