<svg xmlns="http://www.w3.org/2000/svg" viewBox="0 0 51.46 47.81"><path fill="#0086a8" d="M38.71 39.1c-1.89-.11-4.25.47-5.57-.45-3.73-2.61-5.96-.76-8.47 1.71-2.47 2.44-5.15 4.65-8.3 7.45-3.74-8.19-2.68-15.66.03-23.5C8.97 20.38 2.98 15.11 0 6.41c9.29-.82 16.84 1.85 23.04 8.78l-9.6-2.34c-.31.28-.63.55-.94.83 7.89 5.51 13.97 11.71 8.31 22.43.51.03 1.01.06 1.52.09 2.29-1.73 4.59-3.47 7.38-5.58 3.05 2.45 6.19 4.97 9.33 7.5l-.33.98ZM26.6 7.52c-.49 1.64-.97 3.27-1.76 5.92-2.39-3.83-2.53-6.82-.6-9.81C26.4.3 29.52-.63 33.36.39c.15.63.39 1.1.36 1.56q-.76 10.46 9.78 12.41c2.42.45 4.81 1.05 7.96 1.74-3.74 5.87-8.84 8.29-15.78 9.76 1.81-2 3.01-3.35 5.07-5.63-9.5.3-10.91-6.66-14.15-12.71Z"></path></svg>