<?xml version="1.0" encoding="utf-8"?>
<!-- Generator: Adobe Illustrator 19.0.0, SVG Export Plug-In . SVG Version: 6.00 Build 0)  -->
<svg version="1.1" id="Layer_1" xmlns="http://www.w3.org/2000/svg" xmlns:xlink="http://www.w3.org/1999/xlink" x="0px" y="0px"
	 viewBox="0 0 28 29" style="enable-background:new 0 0 28 29;" xml:space="preserve">
<style type="text/css">
	.st0{fill:#00587E;}
	.st1{fill:url(#XMLID_33_);}
	.st2{fill:#FFFFFF;}
</style>
<g>
	<g id="XMLID_21_">
		<path id="XMLID_23_" class="st0" d="M28,26c0,1.6-1.4,3-3,3H3c-1.6,0-3-1.4-3-3V4c0-1.7,1.4-3,3-3h22c1.6,0,3,1.3,3,3V26z"/>
	</g>
	<g id="XMLID_18_">
		<linearGradient id="XMLID_33_" gradientUnits="userSpaceOnUse" x1="14" y1="-4.938556e-010" x2="14" y2="28">
			<stop  offset="0" style="stop-color:#0086a8"/>
			<stop  offset="1" style="stop-color:#0086a8"/>
		</linearGradient>
		<path id="XMLID_20_" class="st1" d="M28,25c0,1.6-1.4,3-3,3H3c-1.6,0-3-1.4-3-3V3c0-1.6,1.4-3,3-3h22c1.6,0,3,1.4,3,3V25z"/>
	</g>
</g>
<g>
	<path class="st2" d="M22,19.4c0,0.6,0,1.9,0,1.9h-8.2H5.5c0,0,0-1.3,0-1.9s1.4-1.4,3.6-2.1c2.2-0.8,2.8-1.5,2.8-2.9
		c0-0.9-0.6-0.6-0.9-2.1c-0.1-0.7-0.7,0-0.8-1.5c0-0.6,0.3-0.7,0.3-0.7s-0.1-0.9-0.2-1.5c-0.1-0.8,0.5-3,3.5-3c3,0,3.6,2.1,3.5,3
		C17.2,9.2,17,10,17,10s0.3,0.1,0.3,0.7c-0.1,1.5-0.7,0.8-0.8,1.5c-0.3,1.5-0.9,1.3-0.9,2.1c0,1.4,0.7,2.1,2.8,2.9
		C20.6,18,22,18.8,22,19.4z"/>
</g>
</svg>
