<?xml version="1.0" encoding="utf-8"?>
<!-- Generator: Adobe Illustrator 19.0.0, SVG Export Plug-In . SVG Version: 6.00 Build 0)  -->
<svg version="1.1" id="Layer_1" xmlns="http://www.w3.org/2000/svg" xmlns:xlink="http://www.w3.org/1999/xlink" x="0px" y="0px"
	 viewBox="0 0 28 29" style="enable-background:new 0 0 28 29;" xml:space="preserve">
<style type="text/css">
	.st0{fill:#00587E;}
	.st1{fill:url(#XMLID_33_);}
	.st2{fill:#FFFFFF;}
</style>
<g>
	<g id="XMLID_21_">
		<path id="XMLID_23_" class="st0" d="M28,26c0,1.6-1.4,3-3,3H3c-1.6,0-3-1.4-3-3V4c0-1.7,1.4-3,3-3h22c1.6,0,3,1.3,3,3V26z"/>
	</g>
	<g id="XMLID_18_">
		<linearGradient id="XMLID_33_" gradientUnits="userSpaceOnUse" x1="14" y1="-4.938556e-010" x2="14" y2="28">
			<stop  offset="0" style="stop-color:#0086a8"/>
			<stop  offset="1" style="stop-color:#0086a8"/>
		</linearGradient>
		<path id="XMLID_20_" class="st1" d="M28,25c0,1.6-1.4,3-3,3H3c-1.6,0-3-1.4-3-3V3c0-1.6,1.4-3,3-3h22c1.6,0,3,1.4,3,3V25z"/>
	</g>
</g>
<g>
	<path class="st2" d="M6.4,9.6c0-0.6,0.5-1.1,1.1-1.1h13.8c0.6,0,1.2,0.5,1.2,1.1c0,0.6-0.5,1.2-1.2,1.2H7.5
		C6.9,10.8,6.4,10.2,6.4,9.6z M22.5,14.2c0,0.6-0.5,1.2-1.2,1.2H7.5c-0.6,0-1.1-0.6-1.1-1.2c0-0.6,0.5-1.1,1.1-1.1h13.8
		C22,13.1,22.5,13.6,22.5,14.2z M22.5,18.8c0,0.6-0.5,1.2-1.2,1.2H7.5c-0.6,0-1.1-0.6-1.1-1.2c0-0.6,0.5-1.1,1.1-1.1h13.8
		C22,17.7,22.5,18.2,22.5,18.8z"/>
</g>
</svg>