<?xml version="1.0" encoding="utf-8"?>
<!-- Generator: Adobe Illustrator 19.0.0, SVG Export Plug-In . SVG Version: 6.00 Build 0)  -->
<svg version="1.1" id="Layer_1" xmlns="http://www.w3.org/2000/svg" xmlns:xlink="http://www.w3.org/1999/xlink" x="0px" y="0px"
	 viewBox="0 0 28 29" style="enable-background:new 0 0 28 29;" xml:space="preserve">
<style type="text/css">
	.st0{fill:#00587E;}
	.st1{fill:url(#XMLID_46_);}
	.st2{fill:#FFFFFF;}
</style>
<g>
	<g id="XMLID_21_">
		<path id="XMLID_23_" class="st0" d="M28,26c0,1.6-1.4,3-3,3H3c-1.6,0-3-1.4-3-3V4c0-1.7,1.4-3,3-3h22c1.6,0,3,1.3,3,3V26z"/>
	</g>
	<g id="XMLID_18_">
		<linearGradient id="XMLID_46_" gradientUnits="userSpaceOnUse" x1="14" y1="-4.938556e-010" x2="14" y2="28">
			<stop  offset="0" style="stop-color:#0086a8"/>
			<stop  offset="1" style="stop-color:#0086a8"/>
		</linearGradient>
		<path id="XMLID_20_" class="st1" d="M28,25c0,1.6-1.4,3-3,3H3c-1.6,0-3-1.4-3-3V3c0-1.6,1.4-3,3-3h22c1.6,0,3,1.4,3,3V25z"/>
	</g>
</g>
<g>
	<path class="st2" d="M21.7,20.6l-0.9,0.9c-0.4,0.4-1,0.4-1.4,0l-3.8-3.8c-0.9,0.5-2,0.8-3.1,0.8c-3.4,0-6.4-3-6.4-6.4
		C6.2,8.7,8.9,6,12.3,6c3.4,0,6.4,3,6.4,6.4c0,1.2-0.3,2.3-0.9,3.2l3.8,3.8C22,19.7,22.1,20.2,21.7,20.6z M12.5,16.6
		c2.4,0,4.3-1.9,4.3-4.3c0-2.4-2.1-4.4-4.5-4.4c-2.4,0-4.3,1.9-4.3,4.3C8.1,14.5,10.2,16.6,12.5,16.6z"/>
</g>
</svg>
