<?xml version="1.0" encoding="utf-8"?>
<!-- Generator: Adobe Illustrator 19.0.0, SVG Export Plug-In . SVG Version: 6.00 Build 0)  -->
<svg version="1.1" id="User" xmlns="http://www.w3.org/2000/svg" xmlns:xlink="http://www.w3.org/1999/xlink" x="0px" y="0px" width="24" height="23"
	 viewBox="-294 387.2 18 19.8" style="enable-background:new -294 387.2 18 19.8;" xml:space="preserve">
<style type="text/css">
	.st0{fill:#40A4BE;}
</style>
<path class="st0" d="M-287.3,389.1c-1,0.8-1.3,2-1.2,2.6c0.1,0.8,0.2,1.8,0.2,1.8s-0.3,0.2-0.3,0.9c0.1,1.7,0.7,1,0.8,1.7
	c0.3,1.8,0.9,1.5,0.9,2.5c0,1.6-0.7,2.4-2.8,3.3c-2.1,0.9-4.3,2.1-4.3,4.1v1h18v-1c0-2-2.2-3.2-4.3-4.1c-2.1-0.9-2.8-1.7-2.8-3.3
	c0-1,0.6-0.7,0.9-2.5c0.1-0.8,0.7,0,0.8-1.7c0-0.7-0.3-0.9-0.3-0.9s0.2-1,0.2-1.8c0.1-0.8-0.4-2.6-2.3-3.1c-0.3-0.3-0.6-0.9,0.5-1.4
	C-285.6,387.1-286.1,388.3-287.3,389.1z"/>
</svg>
