<?xml version="1.0" encoding="utf-8"?>
<!-- Generator: Adobe Illustrator 19.0.0, SVG Export Plug-In . SVG Version: 6.00 Build 0)  -->
<svg version="1.1" id="Layer_1" xmlns="http://www.w3.org/2000/svg" xmlns:xlink="http://www.w3.org/1999/xlink" x="0px" y="0px" width="19" height="19"
	 viewBox="0 0 15.8 15.8" style="enable-background:new 0 0 15.8 15.8;" xml:space="preserve">
<style type="text/css">
	.st0{fill:#999999;}
</style>
<g>
	<path class="st0" d="M15.6,14.6l-0.9,0.9c-0.4,0.4-1,0.4-1.4,0l-3.8-3.8c-0.9,0.5-2,0.8-3.1,0.8C3,12.6,0,9.6,0,6.2
		C0,2.8,2.8,0,6.2,0c3.4,0,6.4,3,6.4,6.4c0,1.2-0.3,2.3-0.9,3.2l3.8,3.8C15.8,13.8,15.9,14.2,15.6,14.6z M6.4,10.7
		c2.4,0,4.3-1.9,4.3-4.3c0-2.4-2.1-4.4-4.5-4.4c-2.4,0-4.3,1.9-4.3,4.3C1.9,8.6,4,10.7,6.4,10.7z"/>
</g>
</svg>
