<?xml version="1.0" encoding="utf-8"?>
<!-- Generator: Adobe Illustrator 19.0.0, SVG Export Plug-In . SVG Version: 6.00 Build 0)  -->
<svg version="1.1" id="Mail" xmlns="http://www.w3.org/2000/svg" xmlns:xlink="http://www.w3.org/1999/xlink" x="0px" y="0px" width="16" height="10"
	 viewBox="-294 391 18 12" style="enable-background:new -294 391 18 12;" xml:space="preserve">
<style type="text/css">
	.st0{fill:#00567D;}
</style>
<path class="st0" d="M-293.4,392.3c0.5,0.3,7.2,3.9,7.5,4c0.3,0.1,0.6,0.2,0.9,0.2s0.7-0.1,0.9-0.2c0.3-0.1,7-3.8,7.5-4
	c0.5-0.3,1-1.3,0.1-1.3h-16.9C-294.4,391-293.9,392-293.4,392.3z M-276.4,394.5c-0.6,0.3-7.4,3.8-7.7,4c-0.3,0.2-0.6,0.2-0.9,0.2
	s-0.6,0-0.9-0.2c-0.3-0.2-7.1-3.7-7.7-4c-0.4-0.2-0.4,0-0.4,0.2s0,7.3,0,7.3c0,0.4,0.6,1,1,1h16c0.4,0,1-0.6,1-1c0,0,0-7.1,0-7.3
	C-276,394.5-276,394.3-276.4,394.5z"/>
</svg>
