<?xml version="1.0" encoding="utf-8"?>
<!-- Generator: Adobe Illustrator 19.0.0, SVG Export Plug-In . SVG Version: 6.00 Build 0)  -->
<svg version="1.1" id="Layer_1" xmlns="http://www.w3.org/2000/svg" xmlns:xlink="http://www.w3.org/1999/xlink" x="0px" y="0px"
	 viewBox="0 0 16.9 16.2" style="enable-background:new 0 0 16.9 16.2;" xml:space="preserve">
<style type="text/css">
	.st0{fill:#FFFFFF;}
</style>
<g>
	<path class="st0" d="M16.9,14.3c0,0.6,0,1.9,0,1.9H8.5H0c0,0,0-1.3,0-1.9c0-0.6,1.4-1.4,3.7-2.2c2.2-0.8,2.9-1.5,2.9-3
		c0-0.9-0.6-0.6-1-2.2c-0.1-0.7-0.7,0-0.8-1.5c0-0.6,0.3-0.8,0.3-0.8S5,3.7,4.9,3.1C4.8,2.2,5.4,0,8.5,0c3.1,0,3.7,2.2,3.6,3.1
		c0,0.7-0.2,1.6-0.2,1.6s0.3,0.1,0.3,0.8c-0.1,1.5-0.7,0.9-0.8,1.5c-0.3,1.6-1,1.3-1,2.2c0,1.4,0.7,2.1,2.9,3
		C15.5,12.9,16.9,13.7,16.9,14.3z"/>
</g>
</svg>
