<?xml version="1.0" encoding="utf-8"?>
<!-- Generator: Adobe Illustrator 19.0.0, SVG Export Plug-In . SVG Version: 6.00 Build 0)  -->
<svg version="1.1" id="Help" xmlns="http://www.w3.org/2000/svg" xmlns:xlink="http://www.w3.org/1999/xlink" x="0px" y="0px" width="10" height="16"
	 viewBox="-290.8 388 11.6 18" style="enable-background:new -290.8 388 11.6 18;" xml:space="preserve">
<style type="text/css">
	.st0{fill:#00567D;}
</style>
<g>
	<path class="st0" d="M-280.9,389.2c-1.1-0.8-2.6-1.2-4.3-1.2c-1.3,0-2.4,0.3-3.3,0.9c-1.4,0.9-2.2,2.4-2.3,4.6h3.3
		c0-0.6,0.2-1.2,0.6-1.8c0.4-0.6,1-0.9,1.9-0.9c0.9,0,1.5,0.2,1.9,0.7c0.3,0.5,0.5,1,0.5,1.6c0,0.5-0.3,1-0.6,1.4
		c-0.2,0.2-0.4,0.5-0.7,0.7c0,0-1.8,1.2-2.6,2.1c-0.5,0.5-0.5,1.3-0.5,2.5c0,0.1,0,0.3,0.3,0.3c0.3,0,2.3,0,2.6,0
		c0.3,0,0.3-0.2,0.3-0.3c0-0.4,0.1-0.6,0.1-0.9c0.1-0.5,0.5-0.9,1-1.2l0.9-0.6c0.8-0.6,1.5-1.2,1.8-1.6c0.5-0.7,0.8-1.5,0.8-2.5
		C-279.2,391.3-279.8,390.1-280.9,389.2z M-285.3,401.9c-1.1,0-2.1,0.8-2.1,2c0,1.2,0.9,2.1,2,2.1c1.2,0,2.1-0.7,2.1-2
		C-283.2,402.8-284.1,402-285.3,401.9z"/>
</g>
</svg>
