<svg xmlns="http://www.w3.org/2000/svg" viewBox="174 -1785.216 385 26.755"><defs><style>.a{fill:#fff;}</style></defs><g transform="translate(174 -1785.216)"><g transform="translate(0 0)"><path class="a" d="M12.54,6.962A5.5,5.5,0,0,1,10.593,11.5a8.558,8.558,0,0,1-5.5,1.584H3.1v7.084H0V1.242H5.5a8.25,8.25,0,0,1,5.269,1.452A5.214,5.214,0,0,1,12.54,6.962ZM3.1,10.493h1.65a5.9,5.9,0,0,0,3.5-.825,3.014,3.014,0,0,0,1.1-2.6A2.937,2.937,0,0,0,8.36,4.63a4.928,4.928,0,0,0-3.113-.8h-2.2Z" transform="translate(0 0.138)"/><path class="a" d="M20.888,20.043A6.93,6.93,0,0,1,15.663,18.1a7.4,7.4,0,0,1-1.892-5.412,8.118,8.118,0,0,1,1.749-5.5,6.039,6.039,0,0,1,4.807-2.013A5.907,5.907,0,0,1,24.8,6.92a6.6,6.6,0,0,1,1.65,4.741v1.65H16.906a4.708,4.708,0,0,0,1.1,3.212A3.927,3.927,0,0,0,21,17.623a11,11,0,0,0,2.365-.242,12.4,12.4,0,0,0,2.354-.792v2.475a9.35,9.35,0,0,1-2.2.748,13.827,13.827,0,0,1-2.629.231ZM20.327,7.5a3.058,3.058,0,0,0-2.321.924,4.4,4.4,0,0,0-1.045,2.684h6.5A3.971,3.971,0,0,0,22.6,8.427,2.926,2.926,0,0,0,20.327,7.5Z" transform="translate(1.376 0.532)"/><path class="a" d="M41.056,19.787H38v-8.8a3.861,3.861,0,0,0-.671-2.475A2.574,2.574,0,0,0,35.2,7.7a3.366,3.366,0,0,0-2.827,1.1,6.292,6.292,0,0,0-.891,3.883V19.82H28.45V5.52h2.387l.418,1.815h.154a4.235,4.235,0,0,1,1.848-1.584A6.171,6.171,0,0,1,35.9,5.19q5.159,0,5.159,5.247Z" transform="translate(2.845 0.535)"/><path class="a" d="M53.461,15.707a3.751,3.751,0,0,1-1.529,3.223,7.326,7.326,0,0,1-4.4,1.1A10.34,10.34,0,0,1,43,19.172V16.543a11.3,11.3,0,0,0,4.708,1.166q2.816,0,2.816-1.694a1.342,1.342,0,0,0-.308-.9,3.685,3.685,0,0,0-1.023-.748,17.6,17.6,0,0,0-1.98-.88,9.174,9.174,0,0,1-3.3-1.914,3.553,3.553,0,0,1-.88-2.486,3.3,3.3,0,0,1,1.485-2.86A7.04,7.04,0,0,1,48.5,5.191a11.429,11.429,0,0,1,4.785,1.023L52.295,8.5a10.637,10.637,0,0,0-3.9-.957q-2.409,0-2.409,1.375a1.386,1.386,0,0,0,.627,1.1,13.816,13.816,0,0,0,2.739,1.287,12.529,12.529,0,0,1,2.574,1.254,3.751,3.751,0,0,1,1.188,1.32,3.806,3.806,0,0,1,.352,1.826Z" transform="translate(4.3 0.535)"/><path class="a" d="M55.34,2.156A1.683,1.683,0,0,1,55.78.88,1.738,1.738,0,0,1,57.056.44a1.705,1.705,0,0,1,1.21.44,1.683,1.683,0,0,1,.495,1.276,1.65,1.65,0,0,1-.5,1.2,1.694,1.694,0,0,1-1.254.451,1.727,1.727,0,0,1-1.276-.451,1.65,1.65,0,0,1-.4-1.2Zm3.223,18.128H55.516V5.984h3.047Z" transform="translate(5.534 0.06)"/><path class="a" d="M75.014,12.591a7.821,7.821,0,0,1-1.8,5.5,6.457,6.457,0,0,1-5.016,1.969,6.875,6.875,0,0,1-3.553-.9,5.984,5.984,0,0,1-2.365-2.629,8.866,8.866,0,0,1-.825-3.938,7.766,7.766,0,0,1,1.782-5.412,6.479,6.479,0,0,1,5.038-1.958A6.314,6.314,0,0,1,73.2,7.179a7.7,7.7,0,0,1,1.815,5.412Zm-10.428,0q0,4.961,3.663,4.961t3.63-4.961q0-4.906-3.652-4.906A3.113,3.113,0,0,0,65.444,8.95a6.457,6.457,0,0,0-.858,3.641Z" transform="translate(6.144 0.537)"/><path class="a" d="M83.3,20.043A6.93,6.93,0,0,1,78.073,18.1a7.4,7.4,0,0,1-1.892-5.412,8.118,8.118,0,0,1,1.749-5.5,6.039,6.039,0,0,1,4.807-2.013A5.907,5.907,0,0,1,87.225,6.9a6.6,6.6,0,0,1,1.65,4.741v1.65H79.283a4.708,4.708,0,0,0,1.1,3.212,3.927,3.927,0,0,0,2.992,1.1,11,11,0,0,0,2.365-.242,12.4,12.4,0,0,0,2.354-.792v2.475a9.35,9.35,0,0,1-2.2.748A13.827,13.827,0,0,1,83.3,20.043ZM82.737,7.5a3.058,3.058,0,0,0-2.354.924,4.4,4.4,0,0,0-1.045,2.684h6.545a3.971,3.971,0,0,0-.858-2.684A2.926,2.926,0,0,0,82.737,7.5Z" transform="translate(7.617 0.532)"/><path class="a" d="M103.466,19.787h-3.058v-8.8a3.861,3.861,0,0,0-.671-2.475,2.574,2.574,0,0,0-2.123-.825,3.366,3.366,0,0,0-2.827,1.1,6.292,6.292,0,0,0-.88,3.894V19.82H90.86V5.52h2.354L93.643,7.4H93.8a4.235,4.235,0,0,1,1.87-1.65,6.171,6.171,0,0,1,2.64-.561q5.159,0,5.159,5.247Z" transform="translate(9.086 0.535)"/><path class="a" d="M113.52,8.284h-3.5V20.307h-3.058V8.284H104.61V6.854l2.354-.935V4.984a5.214,5.214,0,0,1,1.188-3.762A4.873,4.873,0,0,1,111.793,0a9.713,9.713,0,0,1,3.146.528l-.8,2.31a7.018,7.018,0,0,0-2.2-.363,1.749,1.749,0,0,0-1.507.638,3.234,3.234,0,0,0-.473,1.925v.935h3.5Z" transform="translate(10.461 0.015)"/><path class="a" d="M127.715,12.591a7.821,7.821,0,0,1-1.8,5.5A6.457,6.457,0,0,1,120.9,20.06a6.875,6.875,0,0,1-3.553-.9,5.984,5.984,0,0,1-2.376-2.607,8.866,8.866,0,0,1-.825-3.938,7.766,7.766,0,0,1,1.793-5.434,6.479,6.479,0,0,1,5.038-1.958A6.314,6.314,0,0,1,125.9,7.179a7.7,7.7,0,0,1,1.815,5.412Zm-10.428,0q0,4.961,3.663,4.961t3.63-4.961q0-4.906-3.652-4.906a3.113,3.113,0,0,0-2.783,1.265A6.457,6.457,0,0,0,117.287,12.591Z" transform="translate(11.413 0.537)"/><path class="a" d="M142.267,19.787h-3.058v-8.8a3.861,3.861,0,0,0-.671-2.475,2.574,2.574,0,0,0-2.123-.814,3.366,3.366,0,0,0-2.827,1.1,6.292,6.292,0,0,0-.891,3.817v7.139H129.65V5.454h2.387l.429,1.881h.154a4.235,4.235,0,0,1,1.815-1.584,6.171,6.171,0,0,1,2.64-.561q5.159,0,5.159,5.247Z" transform="translate(12.965 0.535)"/><path class="a" d="M149.879,20.546A4.994,4.994,0,0,1,145.7,18.6a8.734,8.734,0,0,1-1.507-5.5,8.8,8.8,0,0,1,1.518-5.5,5.038,5.038,0,0,1,4.213-1.958,4.939,4.939,0,0,1,4.3,2.09h.154a18.252,18.252,0,0,1-.22-2.431V.13h3.025V20.293H154.8l-.528-1.881h-.143a4.873,4.873,0,0,1-4.246,2.134Zm.814-2.464a3.3,3.3,0,0,0,2.739-1.1,5.555,5.555,0,0,0,.88-3.432v-.363a6.424,6.424,0,0,0-.88-3.85,3.3,3.3,0,0,0-2.761-1.1,2.805,2.805,0,0,0-2.475,1.3,6.677,6.677,0,0,0-.913,3.652,6.5,6.5,0,0,0,.847,3.63,2.838,2.838,0,0,0,2.574,1.265Z" transform="translate(14.417 0.029)"/><path class="a" d="M169.707,15.7a3.751,3.751,0,0,1-1.529,3.223,7.326,7.326,0,0,1-4.4,1.1,10.34,10.34,0,0,1-4.6-.869V16.54a11.3,11.3,0,0,0,4.708,1.166q2.794,0,2.794-1.727a1.342,1.342,0,0,0-.308-.9,3.685,3.685,0,0,0-1.023-.748,17.6,17.6,0,0,0-1.98-.88,9.174,9.174,0,0,1-3.289-1.87,3.553,3.553,0,0,1-.88-2.486,3.3,3.3,0,0,1,1.485-2.86,7.04,7.04,0,0,1,4.037-1.012,11.429,11.429,0,0,1,4.785,1.023l-.99,2.288a10.637,10.637,0,0,0-3.905-.957q-2.409,0-2.409,1.375a1.386,1.386,0,0,0,.627,1.1,13.816,13.816,0,0,0,2.75,1.3,12.529,12.529,0,0,1,2.574,1.254,3.751,3.751,0,0,1,1.188,1.32,3.806,3.806,0,0,1,.363,1.782Z" transform="translate(15.918 0.537)"/><path class="a" d="M193.238,20.182h-3.113V11.635h-8.734v8.536H178.3V1.24h3.1v7.7h8.734V1.24h3.113Z" transform="translate(17.83 0.14)"/><path class="a" d="M205.188,19.791l-.605-1.991h-.1a5.874,5.874,0,0,1-2.09,1.782,6.6,6.6,0,0,1-2.695.473,4.565,4.565,0,0,1-3.3-1.1,4.268,4.268,0,0,1-1.188-3.223,3.784,3.784,0,0,1,1.65-3.3,9.493,9.493,0,0,1,5.016-1.232l2.475-.077v-.858a2.893,2.893,0,0,0-.638-2.057,2.618,2.618,0,0,0-1.991-.682,6.875,6.875,0,0,0-2.112.319,15.939,15.939,0,0,0-1.947.759l-.99-2.2a10.593,10.593,0,0,1,2.552-.924,11.748,11.748,0,0,1,2.618-.319,6.2,6.2,0,0,1,4.136,1.232,4.664,4.664,0,0,1,1.4,3.74v9.658Zm-4.532-2.068a3.773,3.773,0,0,0,2.662-.924,3.355,3.355,0,0,0,1-2.6V12.949l-1.837.077a6.292,6.292,0,0,0-3.1.759,2.2,2.2,0,0,0-.979,1.958,1.914,1.914,0,0,0,.572,1.485,2.453,2.453,0,0,0,1.672.484Z" transform="translate(19.52 0.531)"/><path class="a" d="M219.827,15.7a3.751,3.751,0,0,1-1.529,3.223,7.326,7.326,0,0,1-4.4,1.1,10.34,10.34,0,0,1-4.6-.869V16.541a11.3,11.3,0,0,0,4.708,1.166q2.816,0,2.816-1.694a1.342,1.342,0,0,0-.308-.9,3.684,3.684,0,0,0-1.023-.748,17.6,17.6,0,0,0-1.98-.88,9.174,9.174,0,0,1-3.3-1.914,3.553,3.553,0,0,1-.88-2.486,3.3,3.3,0,0,1,1.485-2.86,7.04,7.04,0,0,1,4.037-1.012,11.429,11.429,0,0,1,4.785,1.023l-.99,2.288a10.637,10.637,0,0,0-3.9-.957q-2.475-.011-2.475,1.364a1.386,1.386,0,0,0,.627,1.1,13.817,13.817,0,0,0,2.739,1.287,12.529,12.529,0,0,1,2.574,1.254,3.751,3.751,0,0,1,1.188,1.32,3.806,3.806,0,0,1,.429,1.815Z" transform="translate(20.93 0.536)"/><path class="a" d="M224.8,12.725l1.727-2.2,4.29-4.565h3.509l-5.709,6.127,6.127,8.173h-3.575l-4.6-6.281-1.683,1.408v4.906H221.87V.13h3.014V9.964l-.154,2.761Z" transform="translate(22.187 0.029)"/><path class="a" d="M248.446,12.591a7.821,7.821,0,0,1-1.8,5.5,6.457,6.457,0,0,1-5.027,1.947,6.875,6.875,0,0,1-3.553-.9,5.984,5.984,0,0,1-2.376-2.607,8.866,8.866,0,0,1-.825-3.938,7.766,7.766,0,0,1,1.8-5.412A6.479,6.479,0,0,1,241.7,5.221a6.314,6.314,0,0,1,4.928,1.958,7.7,7.7,0,0,1,1.815,5.412Zm-10.428,0q0,4.961,3.663,4.961t3.63-4.961q0-4.906-3.652-4.906a3.113,3.113,0,0,0-2.783,1.265,6.457,6.457,0,0,0-.858,3.641Z" transform="translate(23.485 0.537)"/><path class="a" d="M263,19.787h-3.058v-8.8a3.861,3.861,0,0,0-.671-2.475,2.574,2.574,0,0,0-2.123-.814,3.366,3.366,0,0,0-2.827,1.1,6.292,6.292,0,0,0-.891,3.817v7.139H250.38V5.454h2.387l.429,1.881h.154a4.235,4.235,0,0,1,1.837-1.584,6.171,6.171,0,0,1,2.64-.561q5.159,0,5.159,5.247Z" transform="translate(25.038 0.535)"/><path class="a" d="M265.54,2.154A1.683,1.683,0,0,1,265.991.9a1.738,1.738,0,0,1,1.276-.44,1.705,1.705,0,0,1,1.254.44,1.683,1.683,0,0,1,.44,1.254,1.65,1.65,0,0,1-.451,1.221,1.694,1.694,0,0,1-1.254.451,1.727,1.727,0,0,1-1.276-.451,1.65,1.65,0,0,1-.44-1.221Zm3.223,18.128h-3.047V5.982h3.047Z" transform="translate(26.554 0.062)"/><path class="a" d="M285.037,19.787h-3.058v-8.8a3.861,3.861,0,0,0-.671-2.475,2.574,2.574,0,0,0-2.123-.814,3.366,3.366,0,0,0-2.827,1.1,6.292,6.292,0,0,0-.891,3.817v7.139H272.42V5.454h2.387l.451,1.881h.154a4.235,4.235,0,0,1,1.826-1.584,6.171,6.171,0,0,1,2.64-.561q5.159,0,5.159,5.247Z" transform="translate(27.242 0.535)"/><path class="a" d="M300.012,5.45V7.122l-2.453.451a3.948,3.948,0,0,1,.561,1.1,4.4,4.4,0,0,1,.22,1.4,4.29,4.29,0,0,1-1.529,3.487,6.4,6.4,0,0,1-4.213,1.32,6.831,6.831,0,0,1-1.243-.1,1.716,1.716,0,0,0-.99,1.43.792.792,0,0,0,.462.737,3.982,3.982,0,0,0,1.694.242h2.5a5.555,5.555,0,0,1,3.6,1.012,3.553,3.553,0,0,1,1.232,2.915,4.235,4.235,0,0,1-2.013,3.762,10.571,10.571,0,0,1-5.808,1.32,8.008,8.008,0,0,1-4.466-1.034,3.3,3.3,0,0,1-1.54-2.959,3.146,3.146,0,0,1,.836-2.2,4.477,4.477,0,0,1,2.343-1.254,2.288,2.288,0,0,1-1-.836,2.112,2.112,0,0,1-.4-1.21,2.09,2.09,0,0,1,.451-1.364,5.236,5.236,0,0,1,1.342-1.1,3.993,3.993,0,0,1-1.8-1.562,4.587,4.587,0,0,1-.693-2.53,4.543,4.543,0,0,1,1.474-3.619,6.182,6.182,0,0,1,4.191-1.287,10.209,10.209,0,0,1,1.276.088,8.03,8.03,0,0,1,1,.176ZM288.748,22.005a1.672,1.672,0,0,0,.891,1.518,4.873,4.873,0,0,0,2.5.528,7.535,7.535,0,0,0,3.707-.715,2.134,2.134,0,0,0,1.21-1.859,1.419,1.419,0,0,0-.671-1.331,5.357,5.357,0,0,0-2.486-.4h-2.31a3.3,3.3,0,0,0-2.079.616,2.013,2.013,0,0,0-.759,1.639Zm1.309-11.924a2.882,2.882,0,0,0,.693,2.068,2.618,2.618,0,0,0,1.991.726q2.64,0,2.64-2.827a3.2,3.2,0,0,0-.649-2.2,2.486,2.486,0,0,0-1.991-.671,2.563,2.563,0,0,0-2,.748,3.157,3.157,0,0,0-.682,2.167Z" transform="translate(28.602 0.539)"/><path class="a" d="M316.851,10.526q0,4.686-2.607,7.172t-7.5,2.486h-5.3V1.242h5.852a9.691,9.691,0,0,1,7.04,2.431,9.1,9.1,0,0,1,2.519,6.853Zm-3.3.1q0-6.8-6.358-6.8h-2.684v13.75h2.2q6.886,0,6.886-6.941Z" transform="translate(30.144 0.138)"/><path class="a" d="M334.085,20.182h-3.113V11.635h-8.69v8.536h-3.1V1.24h3.1v7.7h8.734V1.24h3.113Z" transform="translate(31.918 0.14)"/><path class="a" d="M348.288,1.24H351.5l-6.6,18.942h-3.3L335,1.24h3.19l3.949,11.781q.308.847.66,2.2t.451,1.98a23.278,23.278,0,0,1,.517-2.277q.352-1.287.572-1.914Z" transform="translate(33.5 0.14)"/></g></g></svg>