<?xml version="1.0" encoding="utf-8"?>
<!-- Generator: Adobe Illustrator 19.2.1, SVG Export Plug-In . SVG Version: 6.00 Build 0)  -->
<svg version="1.1" id="Layer_1" xmlns="http://www.w3.org/2000/svg" xmlns:xlink="http://www.w3.org/1999/xlink" x="0px" y="0px"
	 width="177.3px" height="54.9px" viewBox="0 0 177.3 54.9" style="enable-background:new 0 0 177.3 54.9;" xml:space="preserve">
<style type="text/css">
	.st0{fill:#FFFFFF;}
</style>
<g>
	<path class="st0" d="M4.8,14.1c-0.9,0-1.6-0.1-1.6-0.1v7H0.1V1.8c0,0,2.6-0.1,5.1-0.1c4.6,0,7.1,2.2,7.1,5.7
		C12.2,11.2,9.5,14.1,4.8,14.1z M4.9,4.2c-0.9,0-1.7,0-1.7,0v7.1c0,0,0.8,0.1,1.8,0.1c2.6,0,4-1.5,4-3.7S7.7,4.2,4.9,4.2z"/>
	<path class="st0" d="M25.8,14.2h-9c-0.1,3.1,1.3,4.6,4.2,4.6c1.4,0,2.8-0.3,4.1-0.8l0.4,2.4c-1.5,0.6-3.2,0.9-5,0.9
		c-4.4,0-6.8-2.3-6.8-7.3c0-4.2,2.4-7.5,6.5-7.5c4,0,5.7,2.7,5.7,5.9C25.9,12.9,25.8,13.7,25.8,14.2z M20,8.8
		c-1.7,0-2.9,1.3-3.2,3.3h6C22.9,10,21.8,8.8,20,8.8z"/>
	<path class="st0" d="M38.2,21v-9.1c0-1.8-0.5-2.8-2.1-2.8c-2.1,0-3.7,2.2-3.7,5.1V21h-3V6.8h2.9c0,0.8-0.1,2-0.2,2.8l0,0
		c0.8-1.8,2.5-3.1,4.9-3.1c3.2,0,4.2,2,4.2,4.5v10H38.2z"/>
	<path class="st0" d="M48,21.2c-1.1,0-2.2-0.1-3.1-0.4l0.2-2.6c0.9,0.3,2,0.5,3.1,0.5c1.6,0,2.7-0.7,2.7-1.8c0-2.9-6.2-1.1-6.2-6
		c0-2.5,1.9-4.4,5.8-4.4c0.9,0,1.8,0.1,2.7,0.3L53,9.3c-0.8-0.3-1.8-0.4-2.7-0.4c-1.7,0-2.5,0.7-2.5,1.8c0,2.8,6.3,1.3,6.3,6
		C54.1,19.3,51.8,21.2,48,21.2z"/>
	<path class="st0" d="M59.1,4.3c-1.1,0-2-0.8-2-1.9s0.9-1.9,2-1.9S61,1.4,61,2.4S60.2,4.3,59.1,4.3z M57.6,21V6.8h3V21H57.6z"/>
	<path class="st0" d="M70.4,21.2c-3.9,0-6.5-2.2-6.5-7.2c0-4.3,2.8-7.5,7-7.5c3.8,0,6.5,2.1,6.5,7.1C77.4,18,74.6,21.2,70.4,21.2z
		 M70.7,9.1c-1.8,0-3.6,1.4-3.6,4.7c0,3.2,1.3,4.9,3.6,4.9c2,0,3.6-1.5,3.6-4.8C74.3,10.8,73.1,9.1,70.7,9.1z"/>
	<path class="st0" d="M91.7,14.2h-9c-0.1,3.1,1.3,4.6,4.2,4.6c1.4,0,2.8-0.3,4.1-0.8l0.4,2.4c-1.5,0.6-3.2,0.9-5,0.9
		c-4.4,0-6.8-2.3-6.8-7.3c0-4.2,2.4-7.5,6.5-7.5c4,0,5.7,2.7,5.7,5.9C91.8,12.9,91.8,13.7,91.7,14.2z M85.9,8.8
		c-1.7,0-2.9,1.3-3.2,3.3h6C88.8,10,87.7,8.8,85.9,8.8z"/>
	<path class="st0" d="M104.1,21v-9.1c0-1.8-0.5-2.8-2.1-2.8c-2.1,0-3.7,2.2-3.7,5.1V21h-3V6.8h2.9c0,0.8-0.1,2-0.2,2.8l0,0
		c0.8-1.8,2.5-3.1,4.9-3.1c3.2,0,4.2,2,4.2,4.5v10H104.1z"/>
	<path class="st0" d="M119.8,2.8c-0.6-0.2-1.3-0.3-1.9-0.3c-1.8,0-2.6,1-2.6,3.2v1.1h3.7v2.4h-3.7V21h-3V9.2h-2.7V6.8h2.7V5.7
		c0-3.9,1.8-5.7,5.5-5.7c0.8,0,1.6,0.1,2.3,0.3L119.8,2.8z"/>
	<path class="st0" d="M126.4,21.2c-3.9,0-6.5-2.2-6.5-7.2c0-4.3,2.8-7.5,7-7.5c3.8,0,6.5,2.1,6.5,7.1
		C133.4,18,130.6,21.2,126.4,21.2z M126.7,9.1c-1.8,0-3.6,1.4-3.6,4.7c0,3.2,1.3,4.9,3.6,4.9c2,0,3.6-1.5,3.6-4.8
		C130.2,10.8,129.1,9.1,126.7,9.1z"/>
	<path class="st0" d="M145.5,21v-9.1c0-1.8-0.5-2.8-2.1-2.8c-2.1,0-3.7,2.2-3.7,5.1V21h-3V6.8h2.9c0,0.8-0.1,2-0.2,2.8l0,0
		c0.8-1.8,2.5-3.1,4.9-3.1c3.2,0,4.2,2,4.2,4.5v10H145.5z"/>
	<path class="st0" d="M161.5,21c0-0.7,0.1-1.8,0.2-2.6h-0.1c-0.8,1.7-2.4,2.9-4.6,2.9c-3.5,0-5.2-2.6-5.2-6.7c0-4.9,2.8-8,7.4-8
		c0.7,0,1.4,0.1,2.1,0.1V0.2h3V21H161.5z M161.4,9.3c-0.8-0.2-1.5-0.3-2.2-0.3c-2.4,0-4.1,1.5-4.1,5.3c0,2.8,0.9,4.4,2.8,4.4
		c2.2,0,3.5-2.7,3.5-5.1V9.3z"/>
	<path class="st0" d="M171.2,21.2c-1.1,0-2.2-0.1-3.1-0.4l0.2-2.6c0.9,0.3,2,0.5,3.1,0.5c1.6,0,2.7-0.7,2.7-1.8c0-2.9-6.2-1.1-6.2-6
		c0-2.5,1.9-4.4,5.8-4.4c0.9,0,1.8,0.1,2.7,0.3l-0.2,2.4c-0.8-0.3-1.8-0.4-2.7-0.4c-1.7,0-2.5,0.7-2.5,1.8c0,2.8,6.3,1.3,6.3,6
		C177.3,19.3,175,21.2,171.2,21.2z"/>
	<path class="st0" d="M11.6,48.1v-8.2H3v8.2H0V29.8h3v7.6h8.6v-7.6h2.9v18.3H11.6z"/>
	<path class="st0" d="M26,48.1c0-0.9,0-1.8,0.1-2.5l0,0c-0.7,1.6-2.3,2.8-4.5,2.8c-2.3,0-3.8-1.5-3.8-3.7c0-3,3-4.7,7.9-4.7v-0.6
		c0-1.9-0.7-2.8-2.7-2.8c-1.2,0-2.9,0.4-4.1,0.9l-0.5-2.2c1.4-0.5,3.2-0.9,5-0.9c3.9,0,5.1,1.8,5.1,4.7v5.3c0,1.2,0,2.5,0.1,3.7H26z
		 M25.8,41.9c-4,0-5.1,1.1-5.1,2.4c0,1,0.7,1.8,1.8,1.8c2,0,3.3-1.9,3.3-3.8C25.8,42.3,25.8,41.9,25.8,41.9z"/>
	<path class="st0" d="M35.2,48.3c-1,0-2.1-0.1-3-0.4l0.2-2.5c0.8,0.3,1.9,0.5,3,0.5c1.5,0,2.6-0.7,2.6-1.8c0-2.8-5.9-1.1-5.9-5.7
		c0-2.4,1.8-4.2,5.5-4.2c0.8,0,1.8,0.1,2.5,0.3L40,36.9c-0.8-0.2-1.7-0.4-2.5-0.4c-1.6,0-2.4,0.7-2.4,1.7c0,2.7,6,1.2,6,5.7
		C41,46.5,38.8,48.3,35.2,48.3z"/>
	<path class="st0" d="M51.9,48.1l-4.6-6.8v6.8h-2.9V28.3h2.9v12.1l4.4-5.8h3.5l-5,6.1l5.4,7.3L51.9,48.1L51.9,48.1z"/>
	<path class="st0" d="M62.3,48.3c-3.7,0-6.2-2.1-6.2-6.8c0-4.1,2.6-7.2,6.7-7.2c3.6,0,6.2,2,6.2,6.7C69,45.2,66.3,48.3,62.3,48.3z
		 M62.6,36.8c-1.8,0-3.5,1.4-3.5,4.4s1.2,4.6,3.4,4.6c1.9,0,3.4-1.5,3.4-4.6C66,38.4,64.9,36.8,62.6,36.8z"/>
	<path class="st0" d="M80.6,48.1v-8.6c0-1.7-0.5-2.7-2-2.7c-2,0-3.5,2.1-3.5,4.8v6.5h-2.9V34.6H75c0,0.7-0.1,1.9-0.2,2.7l0,0
		c0.8-1.7,2.4-2.9,4.7-2.9c3.1,0,4,2,4,4.3v9.4H80.6z"/>
	<path class="st0" d="M89.1,32.2c-1,0-1.9-0.8-1.9-1.8s0.8-1.8,1.9-1.8c1,0,1.8,0.8,1.8,1.8C91,31.4,90.1,32.2,89.1,32.2z
		 M87.7,48.1V34.6h2.9v13.5H87.7z"/>
	<path class="st0" d="M103.2,48.1v-8.6c0-1.7-0.5-2.7-2-2.7c-2,0-3.5,2.1-3.5,4.8v6.5h-2.9V34.6h2.8c0,0.7-0.1,1.9-0.2,2.7l0,0
		c0.8-1.7,2.4-2.9,4.7-2.9c3.1,0,4,2,4,4.3v9.4H103.2z"/>
	<path class="st0" d="M114.9,54.9c-3.5,0-5.7-1.4-5.7-4c0-1.5,1-2.8,2.2-3.5c-0.8-0.4-1.3-1.1-1.3-2c0-1,0.6-1.9,1.5-2.3
		c-1.2-0.7-2-1.9-2-3.7c0-2.7,2-5.1,5.8-5.1c0.8,0,1.3,0.1,2,0.3h4.6v2.3h-2c0.6,0.5,0.9,1.2,0.9,2.1c0,2.8-1.9,4.9-5.7,4.9
		c-0.5,0-0.8-0.1-1.3-0.2c-0.5,0.2-0.8,0.7-0.8,1c0,0.7,0.6,0.9,2.2,1l2.3,0.1c2.9,0.1,4.6,1.4,4.6,3.9
		C122.2,52.6,119.3,54.9,114.9,54.9z M116.8,48.1l-2.5-0.1c-0.2,0-0.5,0-0.7,0c-0.9,0.7-1.5,1.5-1.5,2.4c0,1.4,1.4,2.3,3.3,2.3
		c2.5,0,3.9-1.1,3.9-2.6C119.3,48.9,118.5,48.2,116.8,48.1z M115.3,36.5c-1.8,0-2.9,1.2-2.9,2.7c0,1.7,1,2.7,2.8,2.7s2.8-1,2.8-2.7
		C118.1,37.5,117.1,36.5,115.3,36.5z"/>
	<path class="st0" d="M129.9,48.2c-1.9,0-3.4-0.1-4.8-0.1V29.8c1.4,0,3.5-0.1,5.7-0.1c5.8,0,9.3,2.6,9.3,9
		C140,44.9,135.8,48.2,129.9,48.2z M130.5,32.1c-0.9,0-1.8,0-2.5,0.1v13.3c0.6,0.1,1.5,0.1,2.2,0.1c3.9,0,6.7-2.1,6.7-6.8
		C136.9,34.5,134.9,32.1,130.5,32.1z"/>
	<path class="st0" d="M154.9,48.1v-8.2h-8.6v8.2h-3V29.8h3v7.6h8.6v-7.6h2.9v18.3H154.9z"/>
	<path class="st0" d="M170,48.1h-3.4l-6.5-18.3h3.3l3.8,11.3c0.4,1.1,0.8,2.5,1.1,3.7l0,0c0.3-1.2,0.8-2.6,1.2-3.8l3.9-11.1h3
		L170,48.1z"/>
</g>
</svg>
