<?xml version="1.0" encoding="utf-8"?>
<!-- Generator: Adobe Illustrator 18.0.0, SVG Export Plug-In . SVG Version: 6.00 Build 0)  -->
<!DOCTYPE svg PUBLIC "-//W3C//DTD SVG 1.1//EN" "http://www.w3.org/Graphics/SVG/1.1/DTD/svg11.dtd">
<svg version="1.1" id="Layer_1" xmlns="http://www.w3.org/2000/svg" xmlns:xlink="http://www.w3.org/1999/xlink" x="0px" y="0px"
	 viewBox="0 0 346.3 20" enable-background="new 0 0 346.3 20" xml:space="preserve" width="346.3" height="20">
<g>
	<path fill="#004C71" d="M3.1,15c-1,0-1.9-0.1-2.8-0.3l0.2-2.4c0.8,0.3,1.8,0.5,2.8,0.5c1.3,0,2.3-0.5,2.3-1.8C5.7,8.4,0,9.5,0,5.1
		C0,2.7,1.9,1,5.1,1c0.8,0,1.6,0.1,2.4,0.2L7.4,3.6C6.7,3.3,5.8,3.2,5,3.2c-1.5,0-2.3,0.7-2.3,1.6c0,2.4,5.7,1.5,5.7,5.7
		C8.4,13.1,6.4,15,3.1,15z"/>
	<path fill="#004C71" d="M14,15c-2.2,0-2.9-0.8-2.9-3.1v-5H9.4v-2h1.7V1.8l2.6-0.7v3.7h2.4v2h-2.4v4.4c0,1.3,0.3,1.6,1.2,1.6
		c0.4,0,0.9-0.1,1.2-0.2v2.1C15.4,14.9,14.7,15,14,15z"/>
	<path fill="#004C71" d="M19.4,3.5c-0.9,0-1.6-0.7-1.6-1.6c0-0.8,0.7-1.5,1.6-1.5C20.3,0.4,21,1.1,21,2S20.3,3.5,19.4,3.5z
		 M18.1,14.8V4.8h2.6v9.9H18.1z"/>
	<path fill="#004C71" d="M27.2,14.9c-2.8,0-4.5-1.4-4.5-4.8c0-3.1,1.6-5.5,5.1-5.5c0.7,0,1.4,0.1,2,0.3l-0.3,2.2
		c-0.5-0.2-1.2-0.4-1.8-0.4c-1.6,0-2.4,1.2-2.4,3.1c0,1.7,0.7,2.9,2.4,2.9c0.7,0,1.4-0.1,2-0.4l0.2,2.2
		C29.3,14.7,28.3,14.9,27.2,14.9z"/>
	<path fill="#004C71" d="M38.1,14.8V8.4c0-1-0.3-1.7-1.2-1.7c-1.3,0-2.3,1.5-2.3,3.2v4.8H32V0.2h2.6v4.3c0,0.6,0,1.4-0.2,2l0,0
		c0.6-1.1,1.7-1.9,3.3-1.9c2.2,0,3,1.4,3,3.2v7H38.1z"/>
	<path fill="#004C71" d="M46.7,15c-2.2,0-2.9-0.8-2.9-3.1v-5h-1.7v-2h1.7V1.8l2.6-0.7v3.7h2.4v2h-2.4v4.4c0,1.3,0.3,1.6,1.2,1.6
		c0.4,0,0.9-0.1,1.2-0.2v2.1C48.2,14.9,47.4,15,46.7,15z"/>
	<path fill="#004C71" d="M52.2,3.5c-0.9,0-1.6-0.7-1.6-1.6c0-0.8,0.7-1.5,1.6-1.5c0.9,0,1.6,0.7,1.6,1.5S53,3.5,52.2,3.5z
		 M50.9,14.8V4.8h2.6v9.9H50.9z"/>
	<path fill="#004C71" d="M62.3,14.8V8.4c0-1-0.3-1.7-1.2-1.7c-1.3,0-2.3,1.5-2.3,3.2v4.8h-2.6V4.8h2.4c0,0.5,0,1.2-0.1,1.8l0,0
		c0.6-1.2,1.8-2,3.4-2c2.2,0,3,1.4,3,3.2v7H62.3z"/>
	<path fill="#004C71" d="M71.2,19.8c-2.6,0-4.3-1-4.3-2.9c0-1,0.7-2,1.5-2.4c-0.6-0.3-1-0.8-1-1.5c0-0.7,0.5-1.5,1.2-1.7
		c-1-0.5-1.5-1.6-1.5-2.8c0-2.1,1.6-3.9,4.5-3.9c0.7,0,1.2,0.1,1.7,0.2h3.4v2h-1.3c0.3,0.3,0.5,0.8,0.5,1.3c0,2.2-1.5,3.6-4.3,3.6
		c-0.3,0-0.7,0-1-0.1c-0.3,0.1-0.5,0.4-0.5,0.6c0,0.5,0.4,0.6,1.5,0.6h1.5c2.2,0,3.4,1,3.4,2.9C76.7,18,74.5,19.8,71.2,19.8z
		 M72.6,15h-1.7c-0.1,0-0.3,0-0.5,0c-0.6,0.3-0.9,0.9-0.9,1.4c0,0.9,0.8,1.5,2.1,1.5c1.7,0,2.6-0.7,2.6-1.6
		C74.1,15.5,73.7,15,72.6,15z M71.6,6.5c-1.2,0-2,0.7-2,1.8c0,1.1,0.7,1.8,2,1.8c1.2,0,1.9-0.7,1.9-1.8C73.5,7.1,72.8,6.5,71.6,6.5z
		"/>
	<path fill="#004C71" d="M86.6,10c-0.2,0-0.6,0-0.9,0v4.8h-2.6V1.3c1.1-0.1,2.3-0.1,3.6-0.1c3.3,0,5.1,1.5,5.1,4.2
		C91.9,8,89.9,10,86.6,10z M86.6,3.3c-0.3,0-0.6,0-0.9,0v4.5c0.3,0,0.5,0.1,0.8,0.1c1.6,0,2.7-0.9,2.7-2.4
		C89.2,4.2,88.4,3.3,86.6,3.3z"/>
	<path fill="#004C71" d="M101.8,10.2h-6.2c0,1.9,0.9,2.8,2.7,2.8c1,0,2-0.2,2.9-0.6l0.2,2c-1.1,0.4-2.3,0.6-3.6,0.6
		c-3.2,0-4.9-1.6-4.9-5.1c0-3,1.7-5.3,4.7-5.3c2.9,0,4.2,2,4.2,4.4C101.8,9.4,101.8,9.8,101.8,10.2z M97.6,6.5c-1.1,0-1.8,0.8-1.9,2
		h3.7C99.3,7.2,98.7,6.5,97.6,6.5z"/>
	<path fill="#004C71" d="M110.1,14.8V8.4c0-1-0.3-1.7-1.2-1.7c-1.3,0-2.3,1.5-2.3,3.2v4.8H104V4.8h2.4c0,0.5,0,1.2-0.1,1.8l0,0
		c0.6-1.2,1.8-2,3.4-2c2.2,0,3,1.4,3,3.2v7H110.1z"/>
	<path fill="#004C71" d="M117.1,15c-0.7,0-1.4-0.1-2.1-0.2l0.1-2.1c0.6,0.2,1.4,0.3,2.1,0.3c1,0,1.6-0.4,1.6-1.1c0-1.8-4-0.8-4-4.1
		c0-1.7,1.4-3.2,4.2-3.2c0.6,0,1.2,0.1,1.8,0.2l-0.1,2c-0.6-0.2-1.2-0.3-1.8-0.3c-1,0-1.5,0.4-1.5,1c0,1.6,4.1,0.9,4.1,4.1
		C121.6,13.6,119.8,15,117.1,15z"/>
	<path fill="#004C71" d="M125,3.5c-0.9,0-1.6-0.7-1.6-1.6c0-0.8,0.7-1.5,1.6-1.5c0.9,0,1.6,0.7,1.6,1.5S125.9,3.5,125,3.5z
		 M123.7,14.8V4.8h2.6v9.9H123.7z"/>
	<path fill="#004C71" d="M133,15c-2.8,0-4.6-1.5-4.6-5c0-3.1,2.1-5.3,5.1-5.3c2.8,0,4.6,1.6,4.6,5C138.1,12.7,136,15,133,15z
		 M133.2,6.8c-1.1,0-2.3,0.9-2.3,2.9s0.7,3.1,2.2,3.1c1.3,0,2.2-1,2.2-3C135.4,7.8,134.7,6.8,133.2,6.8z"/>
	<path fill="#004C71" d="M148.2,10.2H142c0,1.9,0.9,2.8,2.7,2.8c1,0,2-0.2,2.9-0.6l0.2,2c-1.1,0.4-2.3,0.6-3.6,0.6
		c-3.2,0-4.9-1.6-4.9-5.1c0-3,1.7-5.3,4.7-5.3c2.9,0,4.2,2,4.2,4.4C148.3,9.4,148.2,9.8,148.2,10.2z M144,6.5c-1.1,0-1.8,0.8-1.9,2
		h3.7C145.8,7.2,145.1,6.5,144,6.5z"/>
	<path fill="#004C71" d="M156.5,14.8V8.4c0-1-0.3-1.7-1.2-1.7c-1.3,0-2.3,1.5-2.3,3.2v4.8h-2.6V4.8h2.4c0,0.5,0,1.2-0.1,1.8l0,0
		c0.6-1.2,1.8-2,3.4-2c2.2,0,3,1.4,3,3.2v7H156.5z"/>
	<path fill="#004C71" d="M167.7,2.3c-0.4-0.1-0.9-0.2-1.2-0.2c-1.1,0-1.6,0.6-1.6,1.9v0.8h2.3v2h-2.3v8h-2.5v-8h-1.7v-2h1.7V4
		c0-2.7,1.2-4,4-4c0.5,0,1.1,0,1.6,0.2L167.7,2.3z"/>
	<path fill="#004C71" d="M172.8,15c-2.8,0-4.6-1.5-4.6-5c0-3.1,2.1-5.3,5.1-5.3c2.8,0,4.6,1.6,4.6,5C177.9,12.7,175.8,15,172.8,15z
		 M173.1,6.8c-1.1,0-2.3,0.9-2.3,2.9s0.7,3.1,2.2,3.1c1.3,0,2.2-1,2.2-3C175.3,7.8,174.6,6.8,173.1,6.8z"/>
	<path fill="#004C71" d="M186.1,14.8V8.4c0-1-0.3-1.7-1.2-1.7c-1.3,0-2.3,1.5-2.3,3.2v4.8H180V4.8h2.4c0,0.5,0,1.2-0.1,1.8l0,0
		c0.6-1.2,1.8-2,3.4-2c2.2,0,3,1.4,3,3.2v7H186.1z"/>
	<path fill="#004C71" d="M197.4,14.8c0-0.5,0-1.1,0.1-1.7h0c-0.5,1.1-1.6,1.9-3.1,1.9c-2.4,0-3.6-1.8-3.6-4.7c0-3.4,2-5.7,5.3-5.7
		c0.4,0,0.8,0,1.3,0.1V0.2h2.5v14.6H197.4z M197.2,6.8c-0.5-0.1-0.9-0.2-1.3-0.2c-1.5,0-2.5,0.9-2.5,3.4c0,1.9,0.5,2.8,1.7,2.8
		c1.3,0,2.1-1.6,2.1-3.3V6.8z"/>
	<path fill="#004C71" d="M204.3,15c-0.7,0-1.4-0.1-2.1-0.2l0.1-2.1c0.6,0.2,1.4,0.3,2.1,0.3c1,0,1.6-0.4,1.6-1.1c0-1.8-4-0.8-4-4.1
		c0-1.7,1.4-3.2,4.2-3.2c0.6,0,1.2,0.1,1.8,0.2l-0.1,2c-0.6-0.2-1.2-0.3-1.8-0.3c-1,0-1.5,0.4-1.5,1c0,1.6,4.1,0.9,4.1,4.1
		C208.7,13.6,207,15,204.3,15z"/>
	<path fill="#004C71" d="M224.8,14.8V8.3h-7.7v6.5h-1.3V1.3h1.3v6h7.7v-6h1.3v13.5H224.8z"/>
	<path fill="#004C71" d="M235.2,14.8c0-0.8,0-1.6,0.1-2.2l0,0c-0.5,1.3-1.8,2.4-3.5,2.4c-1.5,0-2.7-0.8-2.7-2.4c0-2,2.1-3.5,6.1-3.5
		V8.2c0-1.6-0.6-2.5-2.4-2.5c-1,0-2.2,0.3-3,0.9l-0.1-1.1c0.9-0.4,2.1-0.8,3.4-0.8c2.6,0,3.4,1.4,3.4,3.2v3.8c0,1,0,2.2,0,3.1H235.2
		z M235.2,10c-4,0-4.8,1.3-4.8,2.3c0,1,0.7,1.6,1.7,1.6c1.9,0,3.1-1.9,3.1-3.7V10z"/>
	<path fill="#004C71" d="M241.7,14.9c-0.8,0-1.5-0.1-2.1-0.2l0-1.2c0.6,0.2,1.5,0.3,2.2,0.3c1.5,0,2.6-0.7,2.6-1.8
		c0-2.5-5-0.9-5-4.5c0-1.6,1.3-2.8,3.8-2.8c0.6,0,1.3,0.1,2,0.2L245.2,6c-0.7-0.2-1.4-0.3-2.1-0.3c-1.5,0-2.3,0.7-2.3,1.7
		c0,2.6,5,1,5,4.5C245.8,13.5,244.3,14.9,241.7,14.9z"/>
	<path fill="#004C71" d="M254.3,14.8l-4.1-5.3v5.3h-1.3V0.2h1.3v9.2l3.9-4.5h1.5l-4,4.5l4.4,5.4H254.3z"/>
	<path fill="#004C71" d="M261.6,14.9c-2.6,0-4.3-1.6-4.3-5.1c0-2.8,1.7-5.2,4.7-5.2c2.3,0,4.3,1.3,4.3,5
		C266.3,12.5,264.6,14.9,261.6,14.9z M261.8,5.7c-1.6,0-3.2,1.3-3.2,4c0,2.6,1.2,4.2,3.2,4.2c1.6,0,3.2-1.3,3.2-4.2
		C265,7.2,263.9,5.7,261.8,5.7z"/>
	<path fill="#004C71" d="M275.6,14.8V8.3c0-1.7-0.5-2.6-2-2.6c-1.9,0-3.2,1.8-3.2,4.3v4.8h-1.3V4.8h1.3c0,0.7-0.1,1.7-0.2,2.3l0,0
		c0.6-1.5,1.8-2.5,3.6-2.5c2.3,0,3,1.4,3,3.2v6.9H275.6z"/>
	<path fill="#004C71" d="M281.4,2.9c-0.5,0-0.9-0.4-0.9-0.9s0.4-0.9,0.9-0.9s0.9,0.4,0.9,0.9C282.3,2.5,281.9,2.9,281.4,2.9z
		 M280.7,14.8V4.8h1.3v9.9H280.7z"/>
	<path fill="#004C71" d="M292.3,14.8V8.3c0-1.7-0.5-2.6-2-2.6c-1.9,0-3.2,1.8-3.2,4.3v4.8h-1.3V4.8h1.3c0,0.7-0.1,1.7-0.2,2.3l0,0
		c0.6-1.5,1.8-2.5,3.6-2.5c2.3,0,3,1.4,3,3.2v6.9H292.3z"/>
	<path fill="#004C71" d="M300.5,20c-2.5,0-4.1-1-4.1-2.9c0-1.3,0.8-2.2,1.8-2.7c-0.6-0.3-1-0.8-1-1.4c0-0.7,0.4-1.2,1.1-1.6
		c-1-0.6-1.5-1.6-1.5-2.9c0-2.1,1.6-3.8,4.3-3.8c0.5,0,0.9,0.1,1.4,0.2h3.4v1H304c0.6,0.5,1,1.3,1,2.4c0,2.1-1.4,3.8-4.3,3.8
		c-0.5,0-1.1-0.1-1.5-0.2c-0.5,0.2-0.8,0.6-0.8,1c0,0.6,0.6,0.9,1.8,0.9h2c2.2,0,3.3,1.1,3.3,2.8C305.7,18.5,303.5,20,300.5,20z
		 M302,14.8h-2.8c-0.9,0.5-1.5,1.2-1.5,2.1c0,1.4,1.3,2.1,3.1,2.1c2.3,0,3.7-1,3.7-2.4C304.4,15.4,303.6,14.8,302,14.8z M301,5.6
		c-1.8,0-2.9,1.1-2.9,2.7c0,1.7,1,2.6,2.8,2.6c1.7,0,2.9-0.9,2.9-2.6S302.7,5.6,301,5.6z"/>
	<path fill="#004C71" d="M311.7,14.8c-1.3,0-2.3-0.1-3.2-0.1V1.3c1,0,2.5-0.1,3.8-0.1c4.4,0,7,2.1,7,6.7
		C319.3,12.5,316.1,14.8,311.7,14.8z M312.2,2.2c-0.8,0-1.8,0-2.3,0.1v11.3c0.6,0.1,1.5,0.1,2.1,0.1c3.6,0,6.1-1.8,6.1-5.8
		C318,4.1,316,2.2,312.2,2.2z"/>
	<path fill="#004C71" d="M331.3,14.8V8.3h-7.7v6.5h-1.3V1.3h1.3v6h7.7v-6h1.3v13.5H331.3z"/>
	<path fill="#004C71" d="M341.2,14.8h-1.4l-5-13.5h1.5l3.3,9.2c0.3,0.8,0.7,1.9,1,2.9h0c0.3-1,0.6-2,1-3l3.4-9.1h1.3L341.2,14.8z"/>
</g>
</svg>
