<?xml version="1.0" encoding="utf-8"?>
<!-- Generator: Adobe Illustrator 18.0.0, SVG Export Plug-In . SVG Version: 6.00 Build 0)  -->
<!DOCTYPE svg PUBLIC "-//W3C//DTD SVG 1.1//EN" "http://www.w3.org/Graphics/SVG/1.1/DTD/svg11.dtd">
<svg version="1.1" id="Layer_1" xmlns="http://www.w3.org/2000/svg" xmlns:xlink="http://www.w3.org/1999/xlink" x="0px" y="0px"
	 viewBox="0 0 124 59" enable-background="new 0 0 124 59" xml:space="preserve">
<path fill-rule="evenodd" clip-rule="evenodd" fill="#36A9BE" d="M17,0h107v59H17L0,29.1L17,0z"/>
<g>
	<path fill="#FFFFFF" d="M48.6,34.8v-4.7H44v4.7h-2.1V24H44v4.3h4.6V24h2.1v10.8H48.6z"/>
	<path fill="#FFFFFF" d="M56,35c-2.3,0-3.7-1.2-3.7-4c0-2.5,1.6-4.3,4.1-4.3c2.3,0,3.7,1.2,3.7,4C60.1,33.2,58.4,35,56,35z
		 M56.2,28.4c-0.9,0-1.8,0.7-1.8,2.3c0,1.6,0.6,2.5,1.8,2.5c1,0,1.8-0.8,1.8-2.4C58,29.3,57.4,28.4,56.2,28.4z"/>
	<path fill="#FFFFFF" d="M71.3,34.8v-5c0-0.8-0.2-1.4-0.9-1.4c-0.9,0-1.8,1.1-1.8,2.6v3.8h-2v-5c0-0.8-0.2-1.4-0.9-1.4
		c-0.9,0-1.8,1.1-1.8,2.6v3.8h-2v-8h1.9c0,0.4,0,1-0.1,1.4h0c0.5-1,1.4-1.6,2.6-1.6c1.4,0,2,0.8,2.2,1.6c0.4-0.8,1.2-1.6,2.6-1.6
		c1.5,0,2.4,0.8,2.4,2.7v5.5H71.3z"/>
	<path fill="#FFFFFF" d="M82,31.2h-4.9c0,1.5,0.7,2.2,2.2,2.2c0.8,0,1.6-0.2,2.3-0.5l0.2,1.6C81,34.8,80,35,79,35
		c-2.5,0-3.9-1.3-3.9-4.1c0-2.4,1.3-4.2,3.7-4.2c2.3,0,3.3,1.6,3.3,3.6C82.1,30.5,82.1,30.8,82,31.2z M78.7,28.2
		c-0.8,0-1.4,0.6-1.6,1.6h2.9C80.1,28.8,79.6,28.2,78.7,28.2z"/>
</g>
</svg>
