<?xml version="1.0" encoding="utf-8"?>
<!-- Generator: Adobe Illustrator 18.1.1, SVG Export Plug-In . SVG Version: 6.00 Build 0)  -->
<svg version="1.1" id="Layer_1" xmlns="http://www.w3.org/2000/svg" xmlns:xlink="http://www.w3.org/1999/xlink" x="0px" y="0px"
	 viewBox="0 0 340.1 68.5" enable-background="new 0 0 340.1 68.5" xml:space="preserve">
<g>
	<path fill="#FFFFFF" d="M9.9,27.2c-1.5,0-3.1-0.2-4.4-0.5l0.3-3.9c1.2,0.4,2.9,0.8,4.5,0.8c2.1,0,3.7-0.9,3.7-2.8
		c0-4.1-9.1-2.2-9.1-9.3c0-3.8,3-6.5,8.2-6.5c1.2,0,2.6,0.2,3.9,0.4l-0.2,3.6c-1.2-0.4-2.6-0.6-3.9-0.6c-2.4,0-3.6,1.1-3.6,2.6
		c0,3.9,9.1,2.4,9.1,9.2C18.4,24.2,15.2,27.2,9.9,27.2z"/>
	<path fill="#FFFFFF" d="M27.3,27.1c-3.5,0-4.6-1.3-4.6-5v-8.1H20v-3.2h2.7V6l4.1-1.1v6h3.9v3.2h-3.9v7c0,2,0.5,2.6,1.9,2.6
		c0.7,0,1.4-0.1,2-0.3v3.3C29.6,27,28.4,27.1,27.3,27.1z"/>
	<path fill="#FFFFFF" d="M36,8.8c-1.4,0-2.5-1.1-2.5-2.5c0-1.3,1.1-2.5,2.5-2.5s2.6,1.1,2.6,2.5C38.6,7.7,37.4,8.8,36,8.8z M34,26.8
		V10.9h4.1v15.9H34z"/>
	<path fill="#FFFFFF" d="M48.5,27.1c-4.4,0-7.2-2.3-7.2-7.7c0-5,2.6-8.8,8.2-8.8c1.1,0,2.2,0.2,3.3,0.4l-0.4,3.6
		c-0.9-0.3-1.9-0.6-2.9-0.6C47,14,45.7,16,45.7,19c0,2.7,1.1,4.6,3.8,4.6c1.1,0,2.3-0.2,3.1-0.7l0.3,3.5
		C51.8,26.8,50.2,27.1,48.5,27.1z"/>
	<path fill="#FFFFFF" d="M65.8,26.8V16.6c0-1.7-0.4-2.7-2-2.7c-2.1,0-3.7,2.4-3.7,5.2v7.7h-4.1V3.4h4.1v6.8c0,1-0.1,2.3-0.3,3.2
		l0.1,0c0.9-1.8,2.8-3,5.2-3c3.6,0,4.7,2.3,4.7,5.1v11.2H65.8z"/>
	<path fill="#FFFFFF" d="M79.7,27.1c-3.5,0-4.6-1.3-4.6-5v-8.1h-2.8v-3.2h2.7V6l4.1-1.1v6H83v3.2h-3.9v7c0,2,0.5,2.6,1.9,2.6
		c0.7,0,1.4-0.1,2-0.3v3.3C82,27,80.8,27.1,79.7,27.1z"/>
	<path fill="#FFFFFF" d="M88.4,8.8c-1.4,0-2.5-1.1-2.5-2.5c0-1.3,1.1-2.5,2.5-2.5S91,5,91,6.4C91,7.7,89.8,8.8,88.4,8.8z M86.4,26.8
		V10.9h4.1v15.9H86.4z"/>
	<path fill="#FFFFFF" d="M104.6,26.8V16.6c0-1.7-0.4-2.7-2-2.7c-2.1,0-3.7,2.4-3.7,5.2v7.7h-4.1V10.9h3.9c0,0.7-0.1,2-0.2,2.8l0,0
		c1-1.9,2.8-3.2,5.4-3.2c3.6,0,4.7,2.3,4.7,5.1v11.2H104.6z"/>
	<path fill="#FFFFFF" d="M118.9,34.9c-4.2,0-6.8-1.6-6.8-4.7c0-1.7,1.1-3.2,2.4-3.8c-1-0.5-1.6-1.3-1.6-2.4c0-1.2,0.8-2.3,1.9-2.8
		c-1.6-0.8-2.4-2.5-2.4-4.4c0-3.4,2.5-6.2,7.2-6.2c1.1,0,1.9,0.2,2.8,0.4h5.4v3.2h-2.1c0.5,0.4,0.8,1.2,0.8,2.1
		c0,3.5-2.5,5.8-6.9,5.8c-0.5,0-1.2,0-1.6-0.1c-0.5,0.2-0.8,0.6-0.8,1c0,0.7,0.6,1,2.5,1h2.5c3.5,0,5.4,1.6,5.4,4.7
		C127.6,32,124.2,34.9,118.9,34.9z M121,27.2h-2.8c-0.2,0-0.5,0-0.7,0c-0.9,0.5-1.4,1.4-1.4,2.3c0,1.5,1.3,2.3,3.4,2.3
		c2.7,0,4.1-1.1,4.1-2.6C123.6,28,122.8,27.2,121,27.2z M119.5,13.5c-2,0-3.1,1.2-3.1,2.9c0,1.8,1.2,2.8,3.1,2.8
		c1.9,0,3.1-1.1,3.1-2.8C122.5,14.6,121.4,13.5,119.5,13.5z"/>
	<path fill="#FFFFFF" d="M143.5,19.2c-0.4,0-0.9,0-1.4-0.1v7.6h-4.2V5.2c1.8-0.1,3.7-0.1,5.8-0.1c5.3,0,8.2,2.5,8.2,6.7
		C151.9,16,148.7,19.2,143.5,19.2z M143.5,8.5c-0.5,0-1,0-1.5,0v7.2c0.4,0.1,0.8,0.1,1.2,0.1c2.6,0,4.3-1.4,4.3-3.8
		C147.6,9.8,146.4,8.5,143.5,8.5z"/>
	<path fill="#FFFFFF" d="M167.8,19.5h-9.9c0,3,1.4,4.4,4.4,4.4c1.6,0,3.3-0.4,4.6-1l0.4,3.2c-1.7,0.7-3.7,1-5.7,1
		c-5.1,0-7.9-2.5-7.9-8.1c0-4.9,2.7-8.4,7.5-8.4c4.6,0,6.7,3.2,6.7,7.1C167.9,18.2,167.9,18.8,167.8,19.5z M161.1,13.6
		c-1.7,0-2.9,1.2-3.1,3.2h5.9C163.9,14.7,162.8,13.6,161.1,13.6z"/>
	<path fill="#FFFFFF" d="M181.1,26.8V16.6c0-1.7-0.4-2.7-2-2.7c-2.1,0-3.7,2.4-3.7,5.2v7.7h-4.1V10.9h3.9c0,0.7-0.1,2-0.2,2.8l0,0
		c1-1.9,2.8-3.2,5.4-3.2c3.6,0,4.7,2.3,4.7,5.1v11.2H181.1z"/>
	<path fill="#FFFFFF" d="M192.3,27.1c-1.2,0-2.3-0.1-3.3-0.3l0.1-3.4c1,0.3,2.2,0.5,3.4,0.5c1.6,0,2.6-0.6,2.6-1.7
		c0-2.8-6.4-1.2-6.4-6.6c0-2.8,2.3-5.1,6.8-5.1c0.9,0,2,0.1,2.9,0.3l-0.1,3.2c-0.9-0.3-2-0.4-2.9-0.4c-1.6,0-2.4,0.6-2.4,1.6
		c0,2.6,6.5,1.4,6.5,6.6C199.4,25,196.7,27.1,192.3,27.1z"/>
	<path fill="#FFFFFF" d="M205,8.8c-1.4,0-2.5-1.1-2.5-2.5c0-1.3,1.1-2.5,2.5-2.5s2.6,1.1,2.6,2.5C207.5,7.7,206.4,8.8,205,8.8z
		 M202.9,26.8V10.9h4.1v15.9H202.9z"/>
	<path fill="#FFFFFF" d="M217.7,27.1c-4.5,0-7.4-2.3-7.4-8c0-5,3.3-8.5,8.1-8.5c4.5,0,7.4,2.5,7.4,8
		C225.8,23.5,222.5,27.1,217.7,27.1z M218.1,14c-1.8,0-3.6,1.4-3.6,4.7c0,3.3,1.2,4.9,3.6,4.9c2,0,3.6-1.6,3.6-4.9
		C221.6,15.7,220.5,14,218.1,14z"/>
	<path fill="#FFFFFF" d="M242,19.5h-9.9c0,3,1.4,4.4,4.4,4.4c1.6,0,3.3-0.4,4.6-1l0.4,3.2c-1.7,0.7-3.7,1-5.7,1
		c-5.1,0-7.9-2.5-7.9-8.1c0-4.9,2.7-8.4,7.5-8.4c4.6,0,6.7,3.2,6.7,7.1C242.2,18.2,242.1,18.8,242,19.5z M235.3,13.6
		c-1.7,0-2.9,1.2-3.1,3.2h5.9C238.2,14.7,237.1,13.6,235.3,13.6z"/>
	<path fill="#FFFFFF" d="M255.3,26.8V16.6c0-1.7-0.4-2.7-2-2.7c-2.1,0-3.7,2.4-3.7,5.2v7.7h-4.1V10.9h3.9c0,0.7-0.1,2-0.2,2.8l0,0
		c1-1.9,2.8-3.2,5.4-3.2c3.6,0,4.7,2.3,4.7,5.1v11.2H255.3z"/>
	<path fill="#FFFFFF" d="M273.3,6.8c-0.6-0.2-1.4-0.3-2-0.3c-1.8,0-2.6,0.9-2.6,3v1.3h3.7v3.2h-3.7v12.7h-4.1V14.1h-2.8v-3.2h2.8
		V9.6c0-4.3,2-6.4,6.3-6.4c0.9,0,1.8,0.1,2.6,0.3L273.3,6.8z"/>
	<path fill="#FFFFFF" d="M281.5,27.1c-4.5,0-7.4-2.3-7.4-8c0-5,3.3-8.5,8.1-8.5c4.5,0,7.4,2.5,7.4,8
		C289.6,23.5,286.2,27.1,281.5,27.1z M281.9,14c-1.8,0-3.6,1.4-3.6,4.7c0,3.3,1.2,4.9,3.6,4.9c2,0,3.6-1.6,3.6-4.9
		C285.4,15.7,284.3,14,281.9,14z"/>
	<path fill="#FFFFFF" d="M302.6,26.8V16.6c0-1.7-0.4-2.7-2-2.7c-2.1,0-3.7,2.4-3.7,5.2v7.7h-4.1V10.9h3.9c0,0.7-0.1,2-0.2,2.8l0,0
		c1-1.9,2.8-3.2,5.4-3.2c3.6,0,4.7,2.3,4.7,5.1v11.2H302.6z"/>
	<path fill="#FFFFFF" d="M320.7,26.8c0-0.8,0.1-1.8,0.2-2.7h-0.1c-0.8,1.8-2.6,3-5,3c-3.9,0-5.8-2.9-5.8-7.5c0-5.4,3.1-9.1,8.4-9.1
		c0.7,0,1.3,0,2,0.1V3.4h4.1v23.4H320.7z M320.5,14.1c-0.7-0.2-1.4-0.3-2.1-0.3c-2.3,0-4,1.5-4,5.4c0,3,0.9,4.5,2.7,4.5
		c2.1,0,3.4-2.5,3.4-5.2V14.1z"/>
	<path fill="#FFFFFF" d="M331.8,27.1c-1.2,0-2.3-0.1-3.3-0.3l0.1-3.4c1,0.3,2.2,0.5,3.4,0.5c1.6,0,2.6-0.6,2.6-1.7
		c0-2.8-6.4-1.2-6.4-6.6c0-2.8,2.3-5.1,6.8-5.1c0.9,0,2,0.1,2.9,0.3l-0.1,3.2c-0.9-0.3-2-0.4-2.9-0.4c-1.6,0-2.4,0.6-2.4,1.6
		c0,2.6,6.5,1.4,6.5,6.6C338.9,25,336.1,27.1,331.8,27.1z"/>
	<path fill="#FFFFFF" d="M21.1,58.8V48.4H8.8v10.4h-2V37.2h2v9.5h12.4v-9.5h2v21.6H21.1z"/>
	<path fill="#FFFFFF" d="M37.8,58.8c0-1.3,0-2.6,0.2-3.5l-0.1,0c-0.8,2.1-2.8,3.8-5.6,3.8c-2.5,0-4.3-1.2-4.3-3.8
		c0-3.2,3.4-5.6,9.8-5.6v-1.4c0-2.6-0.9-4-3.8-4c-1.5,0-3.5,0.5-4.9,1.4l-0.2-1.8c1.5-0.7,3.3-1.2,5.5-1.2c4.2,0,5.4,2.2,5.4,5.1
		v6.1c0,1.6,0,3.5,0.1,4.9H37.8z M37.7,51.2c-6.4,0-7.7,2-7.7,3.6c0,1.6,1.1,2.5,2.8,2.5c3,0,5-3,5-5.9V51.2z"/>
	<path fill="#FFFFFF" d="M48.3,59.1c-1.2,0-2.4-0.1-3.4-0.3l0.1-1.9c1,0.3,2.3,0.5,3.6,0.5c2.5,0,4.2-1.1,4.2-2.9c0-4.1-8-1.5-8-7.2
		c0-2.6,2.1-4.5,6.1-4.5c1,0,2.1,0.1,3.2,0.4l-0.1,1.8c-1.1-0.3-2.2-0.5-3.4-0.5c-2.5,0-3.7,1.1-3.7,2.7c0,4.1,8.1,1.7,8.1,7.2
		C54.8,56.8,52.4,59.1,48.3,59.1z"/>
	<path fill="#FFFFFF" d="M68.3,58.8l-6.6-8.4v8.4h-2V35.4h2v14.7l6.3-7.2h2.4L64,50.1l7,8.7H68.3z"/>
	<path fill="#FFFFFF" d="M80.1,59.1c-4.2,0-6.9-2.6-6.9-8.2c0-4.4,2.7-8.3,7.5-8.3c3.7,0,6.9,2,6.9,8C87.6,55.2,84.8,59.1,80.1,59.1
		z M80.4,44.3c-2.6,0-5.1,2-5.1,6.5c0,4.2,1.9,6.7,5.2,6.7c2.6,0,5.1-2,5.1-6.7C85.5,46.7,83.8,44.3,80.4,44.3z"/>
	<path fill="#FFFFFF" d="M102.5,58.8V48.5c0-2.7-0.7-4.2-3.2-4.2c-3,0-5.1,2.9-5.1,6.9v7.6h-2V42.9h2c0,1.1-0.1,2.7-0.3,3.7l0.1,0
		c0.9-2.4,2.9-4,5.8-4c3.7,0,4.8,2.3,4.8,5.1v11.1H102.5z"/>
	<path fill="#FFFFFF" d="M111.7,39.9c-0.8,0-1.4-0.6-1.4-1.4s0.6-1.4,1.4-1.4s1.4,0.6,1.4,1.4C113.1,39.2,112.5,39.9,111.7,39.9z
		 M110.7,58.8V42.9h2v15.9H110.7z"/>
	<path fill="#FFFFFF" d="M129.2,58.8V48.5c0-2.7-0.7-4.2-3.2-4.2c-3,0-5.1,2.9-5.1,6.9v7.6h-2V42.9h2c0,1.1-0.1,2.7-0.3,3.7l0.1,0
		c0.9-2.4,2.9-4,5.8-4c3.7,0,4.8,2.3,4.8,5.1v11.1H129.2z"/>
	<path fill="#FFFFFF" d="M142.3,67.2c-4,0-6.6-1.7-6.6-4.7c0-2,1.3-3.5,2.8-4.3c-1-0.5-1.6-1.3-1.6-2.3c0-1.1,0.6-2,1.7-2.5
		c-1.6-1-2.4-2.6-2.4-4.7c0-3.3,2.6-6.1,6.8-6.1c0.8,0,1.5,0.1,2.3,0.3h5.4v1.6h-3c1,0.8,1.7,2.1,1.7,3.8c0,3.4-2.3,6-6.9,6
		c-0.8,0-1.7-0.1-2.3-0.3c-0.9,0.4-1.2,0.9-1.2,1.5c0,1,1,1.4,2.9,1.4h3.3c3.5,0,5.3,1.7,5.3,4.4C150.6,64.8,147.1,67.2,142.3,67.2z
		 M144.7,58.8h-4.5c-1.5,0.8-2.5,2-2.5,3.4c0,2.2,2.1,3.3,4.9,3.3c3.7,0,5.9-1.6,5.9-3.8C148.5,59.9,147.2,58.8,144.7,58.8z
		 M143,44.2c-2.9,0-4.7,1.8-4.7,4.3c0,2.8,1.7,4.2,4.5,4.2c2.8,0,4.6-1.5,4.6-4.2S145.8,44.2,143,44.2z"/>
	<path fill="#FFFFFF" d="M160.2,58.9c-2.1,0-3.6-0.1-5.1-0.1V37.2c1.7,0,3.9-0.1,6-0.1c7.1,0,11.2,3.4,11.2,10.7
		C172.4,55.2,167.3,58.9,160.2,58.9z M160.9,38.8c-1.2,0-2.8,0.1-3.7,0.1V57c1,0.1,2.4,0.2,3.3,0.2c5.8,0,9.7-2.8,9.7-9.2
		C170.2,41.8,167,38.8,160.9,38.8z"/>
	<path fill="#FFFFFF" d="M191.5,58.8V48.4h-12.4v10.4h-2V37.2h2v9.5h12.4v-9.5h2v21.6H191.5z"/>
	<path fill="#FFFFFF" d="M207.3,58.8h-2.2l-8-21.6h2.4l5.2,14.8c0.5,1.3,1.1,3,1.5,4.7h0c0.4-1.6,1-3.2,1.6-4.9l5.5-14.6h2.1
		L207.3,58.8z"/>
</g>
</svg>
