<?xml version="1.0" encoding="utf-8"?>
<!-- Generator: Adobe Illustrator 18.1.1, SVG Export Plug-In . SVG Version: 6.00 Build 0)  -->
<svg version="1.1" id="Layer_1" xmlns="http://www.w3.org/2000/svg" xmlns:xlink="http://www.w3.org/1999/xlink" x="0px" y="0px"
	 viewBox="0 0 229.5 102" enable-background="new 0 0 229.5 102" xml:space="preserve">
<path fill="#37A9BE" d="M240,0C172.9,0,18.4,0,1.6,0c2.6,4,36.2,102,36.2,102H240V0z"/>
<g>
	<path fill="#FFFFFF" d="M83.4,46.9h3.7c4.1,0,6.2,1.2,6.2,4.8c0,2.2-0.8,3.5-2.3,4.1l2.9,5.1V61h-1.5c-1,0-1.4,0-1.9-0.8l-2.1-3.6
		H86v4.5h-2.5V46.9H83.4z M87.3,49H86v5.3h1.3c2.2,0,3.3-0.5,3.3-2.6S89.6,49,87.3,49"/>
	<path fill="#FFFFFF" d="M99.9,50.4c3.2,0,4.9,1.7,4.9,5.4c0,3.6-1.6,5.4-4.9,5.4c-3.2,0-4.9-1.7-4.9-5.4
		C95.1,52.2,96.7,50.4,99.9,50.4 M99.9,59.2c1.6,0,2.3-1.1,2.3-3.4c0-2.3-0.7-3.4-2.3-3.4c-1.6,0-2.3,1.1-2.3,3.4
		C97.5,58.2,98.2,59.2,99.9,59.2"/>
	<path fill="#FFFFFF" d="M108,64.6l1.3-3.6l-3.8-10.2v-0.1h2.3l1.8,5c0.4,1.1,0.6,1.9,0.9,2.8l0,0c0.2-0.9,0.5-1.8,0.8-2.8l1.8-5
		h2.4v0.1l-5,13.1c-0.3,0.7-0.9,0.7-1.9,0.7H108L108,64.6z"/>
	<path fill="#FFFFFF" d="M125.5,54v7h-0.6c-0.6-0.2-1.1-0.5-1.3-0.7c-0.6,0.5-1.5,0.9-3,0.9c-2.6,0-3.9-1-3.9-3.4s1.3-3.4,4-3.4
		c1,0,1.8,0.2,2.5,0.4v-0.6c0-1.3-0.5-1.6-2.3-1.6c-1.2,0-2.2,0.1-3.4,0.4l-0.2-2c1.2-0.3,2.2-0.4,4-0.4
		C124.2,50.4,125.5,51.5,125.5,54 M123.1,58.8v-2.3c-0.6-0.2-1.2-0.3-2.2-0.3c-1.4,0-1.8,0.6-1.8,1.5s0.4,1.6,1.8,1.6
		C121.9,59.3,122.6,59,123.1,58.8"/>
	<path fill="#FFFFFF" d="M128.3,58.7v-9.8c0-1,0-1.6,2.4-2.2V58c0,0.7,0.3,0.9,0.8,0.9c0.3,0,0.5,0,0.7,0l0.1,2
		c-0.5,0.1-1.2,0.2-1.9,0.2C129.1,61.1,128.3,60.5,128.3,58.7"/>
	<polygon fill="#FFFFFF" points="90.9,73.8 86,73.8 86,79.9 83.4,79.9 83.4,65.8 86,65.8 86,71.7 90.9,71.7 90.9,65.8 93.5,65.8 
		93.5,79.9 90.9,79.9 	"/>
	<path fill="#FFFFFF" d="M104.9,72.8v7h-0.6c-0.6-0.2-1.1-0.5-1.3-0.7c-0.6,0.5-1.5,0.9-3,0.9c-2.6,0-3.9-1-3.9-3.4
		c0-2.4,1.3-3.4,4-3.4c1,0,1.8,0.2,2.5,0.4V73c0-1.3-0.5-1.6-2.3-1.6c-1.2,0-2.2,0.1-3.4,0.4l-0.2-2c1.2-0.3,2.2-0.4,4-0.4
		C103.6,69.3,104.9,70.3,104.9,72.8 M102.5,77.6v-2.3c-0.6-0.2-1.2-0.3-2.2-0.3c-1.4,0-1.8,0.6-1.8,1.5s0.4,1.5,1.8,1.5
		C101.4,78.1,102,77.9,102.5,77.6"/>
	<path fill="#FFFFFF" d="M107.2,79.6l0.2-1.9c1.2,0.2,2,0.4,3.2,0.4c1.4,0,2.1-0.3,2.1-1.1c0-0.9-1.4-1.1-2.6-1.3
		c-1.2-0.3-2.7-0.7-2.7-3.1c0-2,1.2-3.1,3.9-3.1c1.5,0,2.5,0.2,3.5,0.4l-0.2,1.9c-1-0.2-1.8-0.4-2.9-0.4c-1.4,0-1.9,0.3-1.9,1
		c0,0.9,1.2,1.1,2.4,1.4c1.2,0.3,2.9,0.7,2.9,3c0,2.1-1.4,3.2-4.1,3.2C109.4,80.1,108.5,79.9,107.2,79.6"/>
	<path fill="#FFFFFF" d="M117.8,67.7c0-1,0-1.6,2.4-2.2v14.3h-2.4V67.7z M123.6,69.6h2.8v0.1l-3.2,4.8l3.3,5.5V80H125
		c-0.6,0-1.3,0-1.8-0.9l-2.7-4.4L123.6,69.6z"/>
	<path fill="#FFFFFF" d="M132.4,69.3c3.2,0,4.9,1.7,4.9,5.4c0,3.6-1.6,5.4-4.9,5.4s-4.9-1.7-4.9-5.4C127.7,71,129.3,69.3,132.4,69.3
		 M132.4,78c1.6,0,2.3-1.1,2.3-3.4c0-2.3-0.7-3.4-2.3-3.4s-2.3,1.1-2.3,3.4C130.1,77,130.8,78,132.4,78"/>
	<path fill="#FFFFFF" d="M139.6,69.6h0.6c0.5,0.2,0.8,0.3,1.1,0.5c0.6-0.4,1.6-0.7,2.9-0.7c2.7,0,4,1,4,4.1v6.4h-2.4v-6
		c0-1.9-0.5-2.4-1.9-2.4c-0.8,0-1.4,0.2-1.9,0.4v8h-2.4L139.6,69.6L139.6,69.6z"/>
	<path fill="#FFFFFF" d="M151,65.8h2.4v2.4H151V65.8z M151,69.6h2.4v10.3H151V69.6z"/>
	<path fill="#FFFFFF" d="M156.3,69.6h0.6c0.5,0.2,0.8,0.3,1.1,0.5c0.6-0.4,1.6-0.7,2.9-0.7c2.7,0,4,1,4,4.1v6.4h-2.4v-6
		c0-1.9-0.5-2.4-1.9-2.4c-0.8,0-1.4,0.2-1.9,0.4v8h-2.4L156.3,69.6L156.3,69.6z"/>
	<path fill="#FFFFFF" d="M167.1,74.5c0-4,1.5-5.2,4.2-5.2c1.3,0,2.3,0.3,2.9,0.7c0.3-0.2,0.6-0.3,1.1-0.5h0.6v10.5
		c0,2.5-1.3,3.5-4.3,3.5c-1.8,0-2.8-0.2-4-0.4l0.2-2c1.2,0.2,2.2,0.4,3.4,0.4c1.8,0,2.3-0.3,2.3-1.6v-0.8c-0.5,0.4-1.3,0.5-2.1,0.5
		C168.6,79.6,167.1,78.5,167.1,74.5 M173.5,77.1v-5.4c-0.5-0.2-1.1-0.4-1.9-0.4c-1.4,0-1.9,0.5-1.9,3.1c0,2.5,0.6,3,1.9,3
		C172.4,77.5,173.1,77.3,173.5,77.1"/>
	<path fill="#FFFFFF" d="M179,65.8h4.2c4.1,0,6.4,2.2,6.4,7c0,4.8-2.1,7-6.4,7H179V65.8z M183.4,67.9h-1.8v9.8h1.8
		c2.2,0,3.5-1.5,3.5-4.9C186.9,69.4,185.7,67.9,183.4,67.9"/>
	<polygon fill="#FFFFFF" points="199.7,73.8 194.8,73.8 194.8,79.9 192.3,79.9 192.3,65.8 194.8,65.8 194.8,71.7 199.7,71.7 
		199.7,65.8 202.3,65.8 202.3,79.9 199.7,79.9 	"/>
	<path fill="#FFFFFF" d="M204.3,65.8L204.3,65.8l2.6-0.1l2.2,7.6c0.4,1.3,0.7,2.6,0.9,3.6l0,0c0.2-0.9,0.4-2.3,0.8-3.6l2-6.8
		c0.2-0.7,1-0.8,2-0.8h0.9v0.1l-4.4,14h-2.7L204.3,65.8z"/>
	<g>
		<g>
			<path id="SVGID_1_" fill="#FFFFFF" d="M38,24.9c0,0,3.5,12,16.8,17.6c-4.3,7.6-3.6,15.5-0.5,23.3L67,54.2
				c0.6,0.8,1.6,1.8,3.5,2.5c1.8,0.7,4.2,1.1,7,0l-10.2-8.2L59,55.6l2.3-13.7L48.9,30.4l13.7,3.9c-7.3-8.5-16.7-9.7-21.5-9.7
				C39.2,24.7,38,24.9,38,24.9"/>
		</g>
	</g>
	<g>
		<g>
			<path id="SVGID_3_" fill="#FFFFFF" d="M63.1,20.8c-3,3-3.3,8.2,0,11.5l1.5-8.7l5,12.6l9.1,2.6l-6.1,5.3c12-1.1,16.9-9.9,16.9-9.9
				l-19.2-3.5l1.5-11.8c-1-0.3-1.9-0.5-2.9-0.5C66.6,18.4,64.6,19.3,63.1,20.8"/>
		</g>
	</g>
</g>
</svg>
