<svg id="Layer_1" data-name="Layer 1" xmlns="http://www.w3.org/2000/svg" viewBox="0 0 210.32 33.74"><defs><style>.cls-1,.cls-2{fill:#00577e;}.cls-1{fill-rule:evenodd;}</style></defs><title>backlink</title><path class="cls-1" d="M15.43,15.91H2l5.24,4.75a.56.56,0,1,1-.79.79L.21,15.77l-.06,0a.6.6,0,0,1,0-.81l.06,0L6.47,9.23a.56.56,0,0,1,.79.79L2,14.77h13.4a.57.57,0,1,1,0,1.14Z"/><path class="cls-2" d="M33.61,12.86a9.72,9.72,0,0,1-2.34-.28l.1-1.77a7.43,7.43,0,0,0,2.41.43c1.27,0,2.31-.53,2.31-1.79C36.09,7,31,8,31,4.29,31,2.29,32.58.9,35.28.9a12.56,12.56,0,0,1,2.1.21l-.1,1.67a7.32,7.32,0,0,0-2.1-.33c-1.45,0-2.19.67-2.19,1.64,0,2.32,5.08,1.46,5.08,5.1C38.07,11.31,36.38,12.86,33.61,12.86Z"/><path class="cls-2" d="M43,12.84c-1.82,0-2.38-.71-2.38-2.62V5.56H38.95V4.13h1.64V1.41l1.82-.5V4.13h2.26V5.56H42.43v4.1c0,1.27.26,1.62,1.12,1.62a4.63,4.63,0,0,0,1.12-.14v1.52A8.91,8.91,0,0,1,43,12.84Z"/><path class="cls-2" d="M47.57,2.86A1.17,1.17,0,0,1,46.39,1.7,1.17,1.17,0,0,1,47.57.55,1.16,1.16,0,0,1,48.75,1.7,1.17,1.17,0,0,1,47.57,2.86Zm-.93,9.83V4.13h1.84v8.56Z"/><path class="cls-2" d="M54.29,12.83c-2.2,0-3.8-1.08-3.8-4.13C50.48,6,51.88,4,54.82,4a6.55,6.55,0,0,1,1.86.26l-.19,1.6a5,5,0,0,0-1.72-.33c-1.57,0-2.36,1.15-2.36,3,0,1.57.57,2.75,2.27,2.75a4.28,4.28,0,0,0,1.86-.41l.15,1.57A6.94,6.94,0,0,1,54.29,12.83Z"/><path class="cls-2" d="M63.95,12.69V7.18c0-1.07-.29-1.69-1.27-1.69-1.29,0-2.24,1.36-2.24,3.08v4.11H58.59V.12h1.84V4a7.9,7.9,0,0,1-.16,1.72l0,0A3.06,3.06,0,0,1,63.22,4c1.95,0,2.55,1.22,2.55,2.74v6Z"/><path class="cls-2" d="M71.2,12.84c-1.82,0-2.38-.71-2.38-2.62V5.56H67.18V4.13h1.64V1.41l1.82-.5V4.13H72.9V5.56H70.66v4.1c0,1.27.26,1.62,1.12,1.62a4.63,4.63,0,0,0,1.12-.14v1.52A8.91,8.91,0,0,1,71.2,12.84Z"/><path class="cls-2" d="M75.81,2.86A1.17,1.17,0,0,1,74.62,1.7,1.17,1.17,0,0,1,75.81.55,1.16,1.16,0,0,1,77,1.7,1.17,1.17,0,0,1,75.81,2.86Zm-.93,9.83V4.13h1.84v8.56Z"/><path class="cls-2" d="M84.76,12.69V7.18c0-1.07-.29-1.69-1.27-1.69-1.29,0-2.24,1.36-2.24,3.06v4.13H79.41V4.13h1.76A11.21,11.21,0,0,1,81,5.8l0,0A3.13,3.13,0,0,1,84,4C86,4,86.59,5.18,86.59,6.7v6Z"/><path class="cls-2" d="M92.22,17.1c-2.24,0-3.63-.86-3.63-2.51A2.49,2.49,0,0,1,90,12.43a1.41,1.41,0,0,1-.84-1.27,1.61,1.61,0,0,1,1-1.46,2.6,2.6,0,0,1-1.27-2.41C88.83,5.47,90.2,4,92.65,4a6.21,6.21,0,0,1,1.41.17H97V5.58H95.64A1.81,1.81,0,0,1,96.23,7c0,1.86-1.29,3.17-3.7,3.17a5.63,5.63,0,0,1-1-.09.71.71,0,0,0-.5.64c0,.43.38.6,1.41.6h1.46c1.86,0,2.91.88,2.91,2.48C96.83,15.63,95,17.1,92.22,17.1Zm1.21-4.27h-1.6a4,4,0,0,1-.47,0,1.67,1.67,0,0,0-.95,1.43c0,.91.86,1.43,2.1,1.43,1.6,0,2.5-.69,2.5-1.62C95,13.31,94.51,12.83,93.42,12.83Zm-.86-7.51a1.75,1.75,0,0,0-1.95,1.79,1.93,1.93,0,0,0,3.84,0A1.7,1.7,0,0,0,92.56,5.32Z"/><path class="cls-2" d="M105.34,8.44a7.47,7.47,0,0,1-.86,0v4.29H102.6V1.07c.9,0,1.89-.07,3-.07,2.75,0,4.27,1.34,4.27,3.49S108,8.44,105.34,8.44Zm.1-5.91a8.53,8.53,0,0,0-1,0V6.82a6.46,6.46,0,0,0,.83.07c1.57,0,2.6-.88,2.6-2.24S107.13,2.53,105.44,2.53Z"/><path class="cls-2" d="M118.33,8.52h-5.46c-.05,2,.83,2.88,2.53,2.88a5.9,5.9,0,0,0,2.5-.55l.17,1.46a7.81,7.81,0,0,1-3,.55c-2.67,0-4.13-1.38-4.13-4.39C111,5.89,112.4,4,114.89,4s3.5,1.67,3.5,3.7A8.42,8.42,0,0,1,118.33,8.52Zm-3.51-3.2a2,2,0,0,0-1.91,1.91h3.63A1.67,1.67,0,0,0,114.82,5.32Z"/><path class="cls-2" d="M125.82,12.69V7.18c0-1.07-.29-1.69-1.27-1.69-1.29,0-2.24,1.36-2.24,3.06v4.13h-1.84V4.13h1.76a11.21,11.21,0,0,1-.12,1.67l0,0a3.13,3.13,0,0,1,3-1.86c1.95,0,2.55,1.22,2.55,2.74v6Z"/><path class="cls-2" d="M131.75,12.86a9.77,9.77,0,0,1-1.81-.17l.05-1.57a6.91,6.91,0,0,0,1.86.28c1,0,1.69-.43,1.69-1.14,0-1.72-3.75-.69-3.75-3.65C129.78,5.13,131,4,133.31,4a10.27,10.27,0,0,1,1.6.15l-.05,1.5a6,6,0,0,0-1.67-.24c-1,0-1.52.41-1.52,1.07,0,1.65,3.79.81,3.79,3.65C135.47,11.69,134,12.86,131.75,12.86Z"/><path class="cls-2" d="M138.51,2.86a1.17,1.17,0,0,1-1.19-1.15A1.17,1.17,0,0,1,138.51.55a1.16,1.16,0,0,1,1.17,1.15A1.17,1.17,0,0,1,138.51,2.86Zm-.93,9.83V4.13h1.84v8.56Z"/><path class="cls-2" d="M145.31,12.86c-2.38,0-3.93-1.33-3.93-4.34A4.24,4.24,0,0,1,145.66,4c2.29,0,3.91,1.27,3.91,4.29C149.57,10.88,147.84,12.86,145.31,12.86Zm.19-7.35c-1.12,0-2.2.86-2.2,2.82s.76,2.94,2.19,2.94c1.19,0,2.19-.93,2.19-2.91C147.67,6.54,147,5.51,145.5,5.51Z"/><path class="cls-2" d="M158.23,8.52h-5.46c-.05,2,.83,2.88,2.53,2.88a5.9,5.9,0,0,0,2.5-.55l.17,1.46a7.81,7.81,0,0,1-3,.55c-2.67,0-4.13-1.38-4.13-4.39,0-2.58,1.41-4.51,3.91-4.51s3.5,1.67,3.5,3.7A8.42,8.42,0,0,1,158.23,8.52Zm-3.51-3.2a2,2,0,0,0-1.91,1.91h3.63A1.67,1.67,0,0,0,154.71,5.32Z"/><path class="cls-2" d="M165.72,12.69V7.18c0-1.07-.29-1.69-1.27-1.69-1.29,0-2.24,1.36-2.24,3.06v4.13h-1.84V4.13h1.76A11.21,11.21,0,0,1,162,5.8l0,0A3.13,3.13,0,0,1,165,4c1.95,0,2.55,1.22,2.55,2.74v6Z"/><path class="cls-2" d="M175.25,1.67a3.94,3.94,0,0,0-1.17-.17c-1.1,0-1.6.6-1.6,1.95v.69h2.22V5.56h-2.22v7.13h-1.83V5.56H169V4.13h1.64V3.48C170.66,1.14,171.78,0,174,0a6.18,6.18,0,0,1,1.39.15Z"/><path class="cls-2" d="M179.49,12.86c-2.38,0-3.93-1.33-3.93-4.34A4.24,4.24,0,0,1,179.83,4c2.29,0,3.91,1.27,3.91,4.29C183.74,10.88,182,12.86,179.49,12.86Zm.19-7.35c-1.12,0-2.2.86-2.2,2.82s.76,2.94,2.19,2.94c1.19,0,2.19-.93,2.19-2.91C181.85,6.54,181.14,5.51,179.68,5.51Z"/><path class="cls-2" d="M191.09,12.69V7.18c0-1.07-.29-1.69-1.27-1.69-1.29,0-2.24,1.36-2.24,3.06v4.13h-1.84V4.13h1.76a11.21,11.21,0,0,1-.12,1.67l0,0a3.13,3.13,0,0,1,3-1.86c1.95,0,2.55,1.22,2.55,2.74v6Z"/><path class="cls-2" d="M200.77,12.69a10.36,10.36,0,0,1,.12-1.6h0a3,3,0,0,1-2.79,1.77c-2.1,0-3.15-1.55-3.15-4,0-2.94,1.7-4.84,4.48-4.84.41,0,.83,0,1.29.07V.12h1.83V12.69Zm-.09-7.08a6.22,6.22,0,0,0-1.36-.15c-1.46,0-2.46.9-2.46,3.2,0,1.72.53,2.69,1.7,2.69,1.36,0,2.12-1.62,2.12-3.08Z"/><path class="cls-2" d="M206.6,12.86a9.77,9.77,0,0,1-1.81-.17l.05-1.57a6.91,6.91,0,0,0,1.86.28c1,0,1.69-.43,1.69-1.14,0-1.72-3.75-.69-3.75-3.65,0-1.48,1.21-2.65,3.53-2.65a10.27,10.27,0,0,1,1.6.15l-.05,1.5a6,6,0,0,0-1.67-.24c-1,0-1.52.41-1.52,1.07,0,1.65,3.79.81,3.79,3.65C210.32,11.69,208.89,12.86,206.6,12.86Z"/><path class="cls-2" d="M39.45,29.29V23.81H32.93v5.48H31.84V17.88h1.08v5h6.53v-5h1.08V29.29Z"/><path class="cls-2" d="M48.25,29.29a12,12,0,0,1,.1-1.84l0,0a3.12,3.12,0,0,1-3,2c-1.3,0-2.28-.66-2.28-2,0-1.71,1.79-2.94,5.17-2.94v-.74c0-1.37-.49-2.13-2-2.13a5,5,0,0,0-2.57.74l-.12-1a6.75,6.75,0,0,1,2.89-.64c2.23,0,2.86,1.15,2.86,2.71v3.23c0,.86,0,1.84,0,2.6Zm0-4c-3.36,0-4.09,1.08-4.09,1.91a1.3,1.3,0,0,0,1.45,1.34c1.59,0,2.64-1.59,2.64-3.13Z"/><path class="cls-2" d="M53.79,29.43A8.26,8.26,0,0,1,52,29.26l0-1a7.32,7.32,0,0,0,1.89.27c1.3,0,2.21-.57,2.21-1.54,0-2.15-4.24-.79-4.24-3.82,0-1.37,1.13-2.4,3.21-2.4a8.17,8.17,0,0,1,1.67.19l-.05.95A6.29,6.29,0,0,0,55,21.6c-1.3,0-2,.56-2,1.44,0,2.16,4.26.88,4.26,3.79C57.24,28.26,56,29.43,53.79,29.43Z"/><path class="cls-2" d="M64.38,29.29l-3.47-4.46v4.46H59.85V16.95h1.07v7.76l3.31-3.82h1.29l-3.42,3.82,3.7,4.58Z"/><path class="cls-2" d="M70.62,29.43c-2.23,0-3.65-1.37-3.65-4.31,0-2.35,1.42-4.36,3.94-4.36,2,0,3.67,1.08,3.67,4.21C74.57,27.41,73.09,29.43,70.62,29.43Zm.17-7.81c-1.39,0-2.71,1.07-2.71,3.42s1,3.52,2.72,3.52c1.39,0,2.67-1.06,2.67-3.53C73.47,22.9,72.56,21.61,70.79,21.61Z"/><path class="cls-2" d="M82.45,29.29V23.83c0-1.4-.39-2.23-1.71-2.23-1.59,0-2.71,1.56-2.71,3.67v4H77v-8.4h1.08a12.08,12.08,0,0,1-.15,1.94l0,0a3.11,3.11,0,0,1,3-2.11c1.94,0,2.54,1.2,2.54,2.71v5.85Z"/><path class="cls-2" d="M87.31,19.28a.76.76,0,1,1,0-1.52.75.75,0,0,1,.76.76A.76.76,0,0,1,87.31,19.28Zm-.54,10v-8.4h1.07v8.4Z"/><path class="cls-2" d="M96.55,29.29V23.83c0-1.4-.39-2.23-1.71-2.23-1.59,0-2.71,1.56-2.71,3.67v4H91.08v-8.4h1.08A12.08,12.08,0,0,1,92,22.83l0,0a3.11,3.11,0,0,1,3-2.11c1.94,0,2.54,1.2,2.54,2.71v5.85Z"/><path class="cls-2" d="M103.49,33.74c-2.11,0-3.48-.88-3.48-2.47A2.57,2.57,0,0,1,101.49,29a1.34,1.34,0,0,1-.85-1.22,1.44,1.44,0,0,1,.91-1.32A2.69,2.69,0,0,1,100.31,24a3.31,3.31,0,0,1,3.62-3.23,6,6,0,0,1,1.22.14H108v.85h-1.59a2.46,2.46,0,0,1,.88,2c0,1.78-1.22,3.18-3.65,3.18a5.35,5.35,0,0,1-1.23-.15.9.9,0,0,0-.66.81c0,.52.51.76,1.56.76H105c1.83,0,2.82.9,2.82,2.33C107.85,32.44,106,33.74,103.49,33.74Zm1.25-4.45h-2.37a2.12,2.12,0,0,0-1.3,1.79c0,1.17,1.13,1.76,2.6,1.76,1.94,0,3.09-.83,3.09-2C106.77,29.85,106.09,29.29,104.74,29.29Zm-.88-7.71a2.24,2.24,0,0,0-2.47,2.28,2.1,2.1,0,0,0,2.4,2.23,2.14,2.14,0,0,0,2.42-2.23A2.12,2.12,0,0,0,103.86,21.58Z"/><path class="cls-2" d="M112.94,29.34c-1.13,0-1.93-.07-2.67-.05V17.88c.88,0,2.08-.05,3.2-.05,3.75,0,5.9,1.81,5.9,5.66S116.68,29.34,112.94,29.34Zm.39-10.63c-.66,0-1.49,0-2,.05v9.57a15.34,15.34,0,0,0,1.74.12c3,0,5.14-1.5,5.14-4.89S116.54,18.71,113.33,18.71Z"/><path class="cls-2" d="M129.48,29.29V23.81H123v5.48h-1.08V17.88H123v5h6.53v-5h1.08V29.29Z"/><path class="cls-2" d="M137.85,29.29h-1.17l-4.23-11.41h1.25l2.77,7.81c.25.68.57,1.59.81,2.47h0c.24-.85.54-1.71.86-2.57l2.89-7.71h1.13Z"/></svg>