<svg xmlns="http://www.w3.org/2000/svg" viewBox="0 0 150 47"><defs><style>.cls-1{fill:#fff;}</style></defs><title>logo_phdhv_block</title><g id="Layer_2" data-name="Layer 2"><g id="Layer_1-2" data-name="Layer 1"><path class="cls-1" d="M4,11.9a10.61,10.61,0,0,1-1.35-.08v5.91H.08V1.52s2.19-.08,4.3-.08c3.88,0,6,1.86,6,4.81C10.29,9.45,8,11.9,4,11.9Zm.08-8.35H2.7v6a13.65,13.65,0,0,0,1.52.08c2.19,0,3.37-1.27,3.37-3.12S6.5,3.54,4.13,3.54Z"/><path class="cls-1" d="M21.77,12H14.17c-.08,2.62,1.1,3.88,3.54,3.88a9.71,9.71,0,0,0,3.46-.67l.34,2A11.37,11.37,0,0,1,17.3,18c-3.71,0-5.74-1.94-5.74-6.16,0-3.54,2-6.33,5.48-6.33s4.81,2.28,4.81,5C21.85,10.88,21.77,11.56,21.77,12ZM16.87,7.42c-1.43,0-2.45,1.1-2.7,2.78h5.06C19.32,8.44,18.39,7.42,16.87,7.42Z"/><path class="cls-1" d="M32.23,17.72V10c0-1.52-.42-2.36-1.77-2.36-1.77,0-3.12,1.86-3.12,4.3v5.74H24.81v-12h2.45a22.23,22.23,0,0,1-.17,2.36h0a4.35,4.35,0,0,1,4.13-2.62c2.7,0,3.54,1.69,3.54,3.8v8.44Z"/><path class="cls-1" d="M40.5,17.89a8.54,8.54,0,0,1-2.62-.34l.17-2.19a8.5,8.5,0,0,0,2.62.42c1.35,0,2.28-.59,2.28-1.52,0-2.45-5.23-.93-5.23-5.06,0-2.11,1.6-3.71,4.89-3.71a10.47,10.47,0,0,1,2.28.25l-.17,2.11a6.78,6.78,0,0,0-2.28-.34C41,7.51,40.33,8.1,40.33,9c0,2.36,5.32,1.1,5.32,5.06C45.65,16.28,43.71,17.89,40.5,17.89Z"/><path class="cls-1" d="M49.86,3.63A1.62,1.62,0,0,1,48.18,2,1.62,1.62,0,0,1,49.86.42a1.6,1.6,0,1,1,0,3.21ZM48.6,17.72v-12h2.53v12Z"/><path class="cls-1" d="M59.4,17.89c-3.29,0-5.48-1.86-5.48-6.07,0-3.63,2.36-6.33,5.91-6.33,3.21,0,5.48,1.77,5.48,6C65.3,15.19,62.94,17.89,59.4,17.89Zm.25-10.21c-1.52,0-3,1.18-3,4s1.1,4.13,3,4.13c1.69,0,3-1.27,3-4C62.69,9.11,61.68,7.68,59.65,7.68Z"/><path class="cls-1" d="M77.37,12H69.78c-.08,2.62,1.1,3.88,3.54,3.88a9.71,9.71,0,0,0,3.46-.67l.34,2A11.37,11.37,0,0,1,72.9,18c-3.71,0-5.74-1.94-5.74-6.16,0-3.54,2-6.33,5.48-6.33s4.81,2.28,4.81,5A9.17,9.17,0,0,1,77.37,12ZM72.48,7.42c-1.43,0-2.45,1.1-2.7,2.78h5.06C74.92,8.44,74,7.42,72.48,7.42Z"/><path class="cls-1" d="M87.83,17.72V10c0-1.52-.42-2.36-1.77-2.36-1.77,0-3.12,1.86-3.12,4.3v5.74H80.41v-12h2.45a22.23,22.23,0,0,1-.17,2.36h0a4.35,4.35,0,0,1,4.13-2.62c2.7,0,3.54,1.69,3.54,3.8v8.44Z"/><path class="cls-1" d="M101.08,2.36a5.3,5.3,0,0,0-1.6-.25c-1.52,0-2.19.84-2.19,2.7v.93h3.12v2H97.28v10H94.75v-10H92.47v-2h2.28V4.81C94.75,1.52,96.27,0,99.39,0a7.19,7.19,0,0,1,1.94.25Z"/><path class="cls-1" d="M106.65,17.89c-3.29,0-5.48-1.86-5.48-6.07,0-3.63,2.36-6.33,5.91-6.33,3.21,0,5.48,1.77,5.48,6C112.55,15.19,110.19,17.89,106.65,17.89Zm.25-10.21c-1.52,0-3,1.18-3,4s1.1,4.13,3,4.13c1.69,0,3-1.27,3-4C109.85,9.11,108.93,7.68,106.9,7.68Z"/><path class="cls-1" d="M122.76,17.72V10c0-1.52-.42-2.36-1.77-2.36-1.77,0-3.12,1.86-3.12,4.3v5.74h-2.53v-12h2.45a22.24,22.24,0,0,1-.17,2.36h0a4.35,4.35,0,0,1,4.13-2.62c2.7,0,3.54,1.69,3.54,3.8v8.44Z"/><path class="cls-1" d="M136.26,17.72a20.78,20.78,0,0,1,.17-2.19h-.08A4.15,4.15,0,0,1,132.47,18c-3,0-4.39-2.19-4.39-5.65,0-4.13,2.36-6.75,6.24-6.75.59,0,1.18.08,1.77.08V.17h2.53V17.72Zm-.08-9.87a7.52,7.52,0,0,0-1.86-.25c-2,0-3.46,1.27-3.46,4.47,0,2.36.76,3.71,2.36,3.71,1.86,0,3-2.28,3-4.3Z"/><path class="cls-1" d="M144.45,17.89a8.54,8.54,0,0,1-2.62-.34l.17-2.19a8.5,8.5,0,0,0,2.62.42c1.35,0,2.28-.59,2.28-1.52,0-2.45-5.23-.93-5.23-5.06,0-2.11,1.6-3.71,4.89-3.71a10.47,10.47,0,0,1,2.28.25l-.17,2a6.78,6.78,0,0,0-2.28-.34c-1.43,0-2.11.59-2.11,1.52,0,2.36,5.32,1.1,5.32,5.06C149.59,16.28,147.65,17.89,144.45,17.89Z"/><path class="cls-1" d="M9.79,40.58V33.66H2.53v6.92H0V25.14H2.53v6.41H9.79V25.14h2.45V40.58Z"/><path class="cls-1" d="M21.94,40.58A16.28,16.28,0,0,1,22,38.47h0a4,4,0,0,1-3.8,2.36A3,3,0,0,1,15,37.71c0-2.53,2.53-4,6.67-4v-.51c0-1.6-.59-2.36-2.28-2.36a10.22,10.22,0,0,0-3.46.76l-.42-1.86A13,13,0,0,1,19.74,29C23,29,24,30.54,24,33v4.47c0,1,0,2.11.08,3.12Zm-.17-5.23c-3.37,0-4.3.93-4.3,2A1.46,1.46,0,0,0,19,38.9a3,3,0,0,0,2.78-3.21Z"/><path class="cls-1" d="M29.7,40.75a8.34,8.34,0,0,1-2.53-.34l.17-2.11a7.56,7.56,0,0,0,2.53.42c1.27,0,2.19-.59,2.19-1.52,0-2.36-5-.93-5-4.81,0-2,1.52-3.54,4.64-3.54a8.5,8.5,0,0,1,2.11.25l-.08,2a9.16,9.16,0,0,0-2.11-.34c-1.35,0-2,.59-2,1.43,0,2.28,5.06,1,5.06,4.81C34.59,39.23,32.74,40.75,29.7,40.75Z"/><path class="cls-1" d="M43.79,40.58l-3.88-5.74v5.74H37.46V23.88h2.45V34.09l3.71-4.89h3l-4.22,5.15,4.56,6.16-3.12.08Z"/><path class="cls-1" d="M52.56,40.75c-3.12,0-5.23-1.77-5.23-5.74,0-3.46,2.19-6.07,5.65-6.07,3,0,5.23,1.69,5.23,5.65C58.22,38.14,55.94,40.75,52.56,40.75Zm.25-9.7c-1.52,0-3,1.18-3,3.71s1,3.88,2.87,3.88c1.6,0,2.87-1.27,2.87-3.88C55.69,32.4,54.76,31,52.82,31Z"/><path class="cls-1" d="M68,40.58V33.33c0-1.43-.42-2.28-1.69-2.28-1.69,0-3,1.77-3,4v5.48H60.92V29.19h2.36a22.32,22.32,0,0,1-.17,2.28h0a4.18,4.18,0,0,1,4-2.45c2.62,0,3.37,1.69,3.37,3.63v7.93Z"/><path class="cls-1" d="M75.18,27.17a1.59,1.59,0,0,1-1.6-1.52,1.53,1.53,0,0,1,1.6-1.52,1.51,1.51,0,0,1,1.52,1.52A1.46,1.46,0,0,1,75.18,27.17ZM74,40.58V29.19h2.45V40.58Z"/><path class="cls-1" d="M87.07,40.58V33.33c0-1.43-.42-2.28-1.69-2.28-1.69,0-3,1.77-3,4v5.48H80V29.19h2.36a22.32,22.32,0,0,1-.17,2.28h0a4.18,4.18,0,0,1,4-2.45c2.62,0,3.37,1.69,3.37,3.63v7.93Z"/><path class="cls-1" d="M96.94,46.32c-3,0-4.81-1.18-4.81-3.37A3.56,3.56,0,0,1,94,40a1.85,1.85,0,0,1-1.1-1.69,2.13,2.13,0,0,1,1.27-1.94,3.39,3.39,0,0,1-1.69-3.12c0-2.28,1.69-4.3,4.89-4.3a5.44,5.44,0,0,1,1.69.25h3.88v1.94h-1.69a2.18,2.18,0,0,1,.76,1.77c0,2.36-1.6,4.13-4.81,4.13a4.94,4.94,0,0,1-1.1-.17,1.07,1.07,0,0,0-.67.84c0,.59.51.76,1.86.84l1.94.08c2.45.08,3.88,1.18,3.88,3.29C103.1,44.38,100.66,46.32,96.94,46.32Zm1.6-5.74-2.11-.08h-.59a2.71,2.71,0,0,0-1.27,2c0,1.18,1.18,1.94,2.78,1.94,2.11,0,3.29-.93,3.29-2.19C100.66,41.26,100,40.67,98.55,40.58ZM97.28,30.8a2.26,2.26,0,0,0-2.45,2.28,2.36,2.36,0,0,0,4.72,0A2,2,0,0,0,97.28,30.8Z"/><path class="cls-1" d="M109.6,40.67c-1.6,0-2.87-.08-4-.08V25.14c1.18,0,3-.08,4.81-.08,4.89,0,7.85,2.19,7.85,7.59C118.12,37.88,114.58,40.67,109.6,40.67Zm.51-13.58a16.28,16.28,0,0,0-2.11.08V38.39a13.06,13.06,0,0,0,1.86.08c3.29,0,5.65-1.77,5.65-5.74C115.51,29.11,113.82,27.08,110.11,27.08Z"/><path class="cls-1" d="M130.69,40.58V33.66h-7.26v6.92h-2.53V25.14h2.53v6.41h7.26V25.14h2.45V40.58Z"/><path class="cls-1" d="M143.43,40.58h-2.87l-5.48-15.44h2.78l3.21,9.53c.34.93.67,2.11.93,3.12h0c.25-1,.67-2.19,1-3.21l3.29-9.37h2.53Z"/></g></g></svg>