<svg xmlns="http://www.w3.org/2000/svg" viewBox="0 0 349 25"><defs><style>.cls-1{fill:#fff;}</style></defs><title>logo_phdhv</title><g id="Layer_2" data-name="Layer 2"><g id="Layer_1-2" data-name="Layer 1"><path class="cls-1" d="M11.34,6.41a5,5,0,0,1-1.76,4.11,7.74,7.74,0,0,1-5,1.43H2.8v6.41H0V1.23H4.93A7.46,7.46,0,0,1,9.74,2.54,4.71,4.71,0,0,1,11.34,6.41ZM2.8,9.6H4.29a5.33,5.33,0,0,0,3.16-.75,2.73,2.73,0,0,0,1-2.34,2.66,2.66,0,0,0-.9-2.2,4.46,4.46,0,0,0-2.81-.73H2.8Z"/><path class="cls-1" d="M20.13,18.6a6.27,6.27,0,0,1-4.73-1.76A6.7,6.7,0,0,1,13.7,12a7.35,7.35,0,0,1,1.58-5,5.46,5.46,0,0,1,4.35-1.82,5.34,5.34,0,0,1,4.05,1.56A6,6,0,0,1,25.17,11V12.5H16.54a4.26,4.26,0,0,0,1,2.9,3.55,3.55,0,0,0,2.71,1,10,10,0,0,0,2.14-.22,11.21,11.21,0,0,0,2.13-.72v2.24a8.46,8.46,0,0,1-2,.68A12.5,12.5,0,0,1,20.13,18.6Zm-.5-11.34a2.77,2.77,0,0,0-2.1.83,4,4,0,0,0-.94,2.43h5.88a3.59,3.59,0,0,0-.77-2.43A2.65,2.65,0,0,0,19.63,7.25Z"/><path class="cls-1" d="M39.7,18.36H36.94v-8a3.49,3.49,0,0,0-.6-2.24,2.33,2.33,0,0,0-1.92-.74,3,3,0,0,0-2.55,1,5.69,5.69,0,0,0-.81,3.46v6.46H28.3V5.4h2.16l.39,1.7H31a3.83,3.83,0,0,1,1.66-1.43A5.58,5.58,0,0,1,35,5.17q4.66,0,4.66,4.75Z"/><path class="cls-1" d="M52.24,14.67a3.39,3.39,0,0,1-1.38,2.91,6.62,6.62,0,0,1-4,1,9.36,9.36,0,0,1-4.16-.79V15.43A10.21,10.21,0,0,0,47,16.49q2.54,0,2.54-1.54a1.22,1.22,0,0,0-.28-.82,3.33,3.33,0,0,0-.93-.68,15.93,15.93,0,0,0-1.79-.8,8.29,8.29,0,0,1-3-1.73,3.21,3.21,0,0,1-.79-2.25,3,3,0,0,1,1.34-2.58,6.37,6.37,0,0,1,3.65-.92A10.34,10.34,0,0,1,52,6.09l-.89,2.07a9.62,9.62,0,0,0-3.53-.87q-2.18,0-2.18,1.24a1.25,1.25,0,0,0,.57,1,12.5,12.5,0,0,0,2.48,1.16,11.33,11.33,0,0,1,2.33,1.14,3.4,3.4,0,0,1,1.08,1.19A3.44,3.44,0,0,1,52.24,14.67Z"/><path class="cls-1" d="M55.05,2a1.52,1.52,0,0,1,.4-1.14,1.58,1.58,0,0,1,1.15-.4,1.54,1.54,0,0,1,1.13.4A1.52,1.52,0,0,1,58.15,2a1.5,1.5,0,0,1-.4,1.11,1.53,1.53,0,0,1-1.13.4,1.56,1.56,0,0,1-1.15-.4A1.5,1.5,0,0,1,55.05,2ZM58,18.36H55.22V5.4H58Z"/><path class="cls-1" d="M73.41,11.86a7.07,7.07,0,0,1-1.63,5,5.84,5.84,0,0,1-4.54,1.78A6.21,6.21,0,0,1,64,17.78a5.42,5.42,0,0,1-2.14-2.36,8,8,0,0,1-.75-3.56,7,7,0,0,1,1.62-4.92,5.86,5.86,0,0,1,4.56-1.77A5.71,5.71,0,0,1,71.77,7,7,7,0,0,1,73.41,11.86Zm-9.43,0q0,4.49,3.32,4.49t3.28-4.49q0-4.44-3.3-4.44a2.82,2.82,0,0,0-2.51,1.15A5.84,5.84,0,0,0,64,11.86Z"/><path class="cls-1" d="M82.23,18.6a6.27,6.27,0,0,1-4.73-1.76A6.7,6.7,0,0,1,75.8,12a7.35,7.35,0,0,1,1.58-5,5.46,5.46,0,0,1,4.35-1.82,5.34,5.34,0,0,1,4.05,1.56A6,6,0,0,1,87.27,11V12.5H78.63a4.26,4.26,0,0,0,1,2.9,3.55,3.55,0,0,0,2.71,1,10,10,0,0,0,2.14-.22,11.21,11.21,0,0,0,2.13-.72v2.24a8.46,8.46,0,0,1-2,.68A12.5,12.5,0,0,1,82.23,18.6Zm-.5-11.34a2.77,2.77,0,0,0-2.1.83,4,4,0,0,0-.94,2.43h5.88a3.59,3.59,0,0,0-.77-2.43A2.65,2.65,0,0,0,81.73,7.25Z"/><path class="cls-1" d="M101.8,18.36H99v-8a3.49,3.49,0,0,0-.6-2.24,2.33,2.33,0,0,0-1.92-.74,3,3,0,0,0-2.55,1,5.69,5.69,0,0,0-.81,3.46v6.46H90.4V5.4h2.16l.39,1.7h.14a3.83,3.83,0,0,1,1.66-1.43,5.58,5.58,0,0,1,2.39-.5q4.66,0,4.66,4.75Z"/><path class="cls-1" d="M112.14,7.49H109V18.36h-2.77V7.49h-2.13V6.2l2.13-.84V4.51a4.72,4.72,0,0,1,1.08-3.4A4.41,4.41,0,0,1,110.58,0a8.79,8.79,0,0,1,2.86.48l-.73,2.09a6.35,6.35,0,0,0-1.95-.33,1.58,1.58,0,0,0-1.37.58A2.92,2.92,0,0,0,109,4.56V5.4h3.16Z"/><path class="cls-1" d="M125.84,11.86a7.07,7.07,0,0,1-1.63,5,5.84,5.84,0,0,1-4.54,1.78,6.21,6.21,0,0,1-3.21-.82,5.42,5.42,0,0,1-2.14-2.36,8,8,0,0,1-.75-3.56,7,7,0,0,1,1.62-4.92,5.86,5.86,0,0,1,4.56-1.77A5.71,5.71,0,0,1,124.2,7,7,7,0,0,1,125.84,11.86Zm-9.43,0q0,4.49,3.32,4.49T123,11.86q0-4.44-3.3-4.44a2.82,2.82,0,0,0-2.51,1.15A5.84,5.84,0,0,0,116.4,11.86Z"/><path class="cls-1" d="M140.4,18.36h-2.77v-8a3.49,3.49,0,0,0-.6-2.24,2.33,2.33,0,0,0-1.92-.74,3,3,0,0,0-2.55,1,5.69,5.69,0,0,0-.81,3.46v6.46H129V5.4h2.16l.39,1.7h.14a3.83,3.83,0,0,1,1.66-1.43,5.58,5.58,0,0,1,2.39-.5q4.66,0,4.66,4.75Z"/><path class="cls-1" d="M148.61,18.6a4.51,4.51,0,0,1-3.79-1.76,7.9,7.9,0,0,1-1.36-4.93,7.93,7.93,0,0,1,1.38-5,4.56,4.56,0,0,1,3.81-1.78,4.47,4.47,0,0,1,3.89,1.89h.14a16.51,16.51,0,0,1-.2-2.2V.13h2.77V18.36h-2.16l-.48-1.7h-.13A4.4,4.4,0,0,1,148.61,18.6Zm.74-2.23a3,3,0,0,0,2.47-1,5,5,0,0,0,.8-3.1v-.39a5.81,5.81,0,0,0-.8-3.48,3,3,0,0,0-2.5-1,2.53,2.53,0,0,0-2.24,1.18A6,6,0,0,0,146.3,12a5.88,5.88,0,0,0,.76,3.29A2.57,2.57,0,0,0,149.34,16.37Z"/><path class="cls-1" d="M167.89,14.67a3.39,3.39,0,0,1-1.38,2.91,6.62,6.62,0,0,1-4,1,9.36,9.36,0,0,1-4.16-.79V15.43a10.21,10.21,0,0,0,4.25,1.05q2.54,0,2.54-1.54a1.22,1.22,0,0,0-.28-.82,3.33,3.33,0,0,0-.93-.68,15.93,15.93,0,0,0-1.79-.8,8.29,8.29,0,0,1-3-1.73,3.21,3.21,0,0,1-.79-2.25,3,3,0,0,1,1.34-2.58,6.37,6.37,0,0,1,3.65-.92,10.34,10.34,0,0,1,4.32.93l-.89,2.07a9.62,9.62,0,0,0-3.53-.87q-2.18,0-2.18,1.24a1.25,1.25,0,0,0,.57,1,12.5,12.5,0,0,0,2.48,1.16,11.33,11.33,0,0,1,2.33,1.14,3.4,3.4,0,0,1,1.08,1.19A3.44,3.44,0,0,1,167.89,14.67Z"/><path class="cls-1" d="M190.91,18.36H188.1V10.64h-7.9v7.72h-2.8V1.23h2.8v7h7.9v-7h2.81Z"/><path class="cls-1" d="M203.24,18.36l-.55-1.8h-.09a5.31,5.31,0,0,1-1.89,1.61,6,6,0,0,1-2.44.43,4.13,4.13,0,0,1-3-1,3.86,3.86,0,0,1-1.07-2.92,3.43,3.43,0,0,1,1.49-3,8.58,8.58,0,0,1,4.54-1.11l2.24-.07V9.75a2.62,2.62,0,0,0-.58-1.86,2.37,2.37,0,0,0-1.8-.62,6.22,6.22,0,0,0-1.91.29,14.41,14.41,0,0,0-1.76.69l-.89-2a9.58,9.58,0,0,1,2.31-.84,10.62,10.62,0,0,1,2.37-.29,5.61,5.61,0,0,1,3.73,1.08,4.22,4.22,0,0,1,1.26,3.39v8.73Zm-4.1-1.87a3.41,3.41,0,0,0,2.41-.84,3,3,0,0,0,.91-2.35V12.18l-1.66.07a5.69,5.69,0,0,0-2.83.65,2,2,0,0,0-.88,1.78,1.73,1.73,0,0,0,.52,1.34A2.22,2.22,0,0,0,199.14,16.49Z"/><path class="cls-1" d="M217.76,14.67a3.39,3.39,0,0,1-1.38,2.91,6.62,6.62,0,0,1-4,1,9.36,9.36,0,0,1-4.16-.79V15.43a10.21,10.21,0,0,0,4.25,1.05q2.54,0,2.54-1.54a1.22,1.22,0,0,0-.28-.82,3.33,3.33,0,0,0-.93-.68,15.93,15.93,0,0,0-1.79-.8,8.29,8.29,0,0,1-3-1.73,3.21,3.21,0,0,1-.79-2.25,3,3,0,0,1,1.34-2.58,6.37,6.37,0,0,1,3.65-.92,10.34,10.34,0,0,1,4.32.93l-.89,2.07a9.62,9.62,0,0,0-3.53-.87q-2.18,0-2.18,1.24a1.25,1.25,0,0,0,.57,1A12.5,12.5,0,0,0,214,10.73a11.33,11.33,0,0,1,2.33,1.14,3.4,3.4,0,0,1,1.08,1.19A3.44,3.44,0,0,1,217.76,14.67Z"/><path class="cls-1" d="M223.4,11.52,225,9.57l3.91-4.17H232L226.83,11l5.54,7.39h-3.23L225,12.68l-1.51,1.24v4.44h-2.73V.13h2.73V9l-.14,2.5Z"/><path class="cls-1" d="M246,11.86a7.07,7.07,0,0,1-1.63,5,5.84,5.84,0,0,1-4.54,1.78,6.21,6.21,0,0,1-3.21-.82,5.42,5.42,0,0,1-2.14-2.36,8,8,0,0,1-.75-3.56,7,7,0,0,1,1.62-4.92,5.86,5.86,0,0,1,4.56-1.77A5.71,5.71,0,0,1,244.31,7,7,7,0,0,1,246,11.86Zm-9.43,0q0,4.49,3.32,4.49t3.28-4.49q0-4.44-3.3-4.44a2.82,2.82,0,0,0-2.51,1.15A5.84,5.84,0,0,0,236.52,11.86Z"/><path class="cls-1" d="M260.52,18.36h-2.77v-8a3.49,3.49,0,0,0-.6-2.24,2.33,2.33,0,0,0-1.92-.74,3,3,0,0,0-2.55,1,5.69,5.69,0,0,0-.81,3.46v6.46h-2.75V5.4h2.16l.39,1.7h.14a3.83,3.83,0,0,1,1.66-1.43,5.58,5.58,0,0,1,2.39-.5q4.66,0,4.66,4.75Z"/><path class="cls-1" d="M264.19,2a1.52,1.52,0,0,1,.4-1.14,1.58,1.58,0,0,1,1.15-.4,1.54,1.54,0,0,1,1.13.4,1.52,1.52,0,0,1,.4,1.14,1.5,1.5,0,0,1-.4,1.11,1.53,1.53,0,0,1-1.13.4,1.56,1.56,0,0,1-1.15-.4A1.5,1.5,0,0,1,264.19,2Zm2.92,16.39h-2.75V5.4h2.75Z"/><path class="cls-1" d="M282.45,18.36h-2.77v-8a3.49,3.49,0,0,0-.6-2.24,2.33,2.33,0,0,0-1.92-.74,3,3,0,0,0-2.55,1,5.69,5.69,0,0,0-.81,3.46v6.46H271V5.4h2.16l.39,1.7h.14a3.83,3.83,0,0,1,1.66-1.43,5.58,5.58,0,0,1,2.39-.5q4.66,0,4.66,4.75Z"/><path class="cls-1" d="M297.22,5.4V6.91L295,7.32a3.57,3.57,0,0,1,.5,1,4,4,0,0,1,.2,1.27,3.88,3.88,0,0,1-1.38,3.15,5.79,5.79,0,0,1-3.81,1.15,6.18,6.18,0,0,1-1.12-.09,1.55,1.55,0,0,0-.89,1.29.72.72,0,0,0,.42.67,3.6,3.6,0,0,0,1.53.22h2.26a5,5,0,0,1,3.26.91,3.22,3.22,0,0,1,1.11,2.64,3.83,3.83,0,0,1-1.82,3.4,9.56,9.56,0,0,1-5.25,1.2,7.25,7.25,0,0,1-4-.94,3,3,0,0,1-1.39-2.67,2.84,2.84,0,0,1,.76-2,4.05,4.05,0,0,1,2.12-1.13,2.07,2.07,0,0,1-.91-.76,1.91,1.91,0,0,1-.36-1.1,1.89,1.89,0,0,1,.41-1.23,4.73,4.73,0,0,1,1.22-1,3.61,3.61,0,0,1-1.63-1.41,4.15,4.15,0,0,1-.63-2.29,4.11,4.11,0,0,1,1.33-3.27,5.59,5.59,0,0,1,3.79-1.16,9.23,9.23,0,0,1,1.15.08,7.27,7.27,0,0,1,.91.16ZM287,20.38a1.51,1.51,0,0,0,.8,1.37,4.41,4.41,0,0,0,2.26.48,6.82,6.82,0,0,0,3.35-.64,1.93,1.93,0,0,0,1.1-1.71,1.28,1.28,0,0,0-.6-1.2,4.85,4.85,0,0,0-2.24-.36h-2.09a2.93,2.93,0,0,0-1.88.56A1.83,1.83,0,0,0,287,20.38ZM288.22,9.6a2.61,2.61,0,0,0,.63,1.88,2.37,2.37,0,0,0,1.8.66q2.39,0,2.39-2.55a2.9,2.9,0,0,0-.59-2,2.25,2.25,0,0,0-1.8-.69,2.32,2.32,0,0,0-1.81.68A2.86,2.86,0,0,0,288.22,9.6Z"/><path class="cls-1" d="M313.85,9.63a8.54,8.54,0,0,1-2.36,6.49q-2.36,2.24-6.79,2.24h-4.79V1.23h5.3a8.76,8.76,0,0,1,6.36,2.2A8.23,8.23,0,0,1,313.85,9.63Zm-3,.09q0-6.15-5.75-6.15h-2.43V16h2Q310.9,16,310.9,9.73Z"/><path class="cls-1" d="M331,18.36h-2.81V10.64h-7.9v7.72h-2.8V1.23h2.8v7h7.9v-7H331Z"/><path class="cls-1" d="M345.32,1.23h2.91l-6,17.13h-3l-6-17.13h2.88l3.57,10.65q.28.76.6,2t.41,1.79q.15-.89.47-2.06t.52-1.73Z"/></g></g></svg>