<?xml version="1.0" encoding="utf-8"?>
<!-- Generator: Adobe Illustrator 19.0.0, SVG Export Plug-In . SVG Version: 6.00 Build 0)  -->
<svg version="1.1" id="Layer_1" xmlns="http://www.w3.org/2000/svg" xmlns:xlink="http://www.w3.org/1999/xlink" x="0px" y="0px"
	 viewBox="0 0 211.3 77.4" style="enable-background:new 0 0 211.3 77.4;" xml:space="preserve">
<style type="text/css">
	.st0{fill:#FFFFFF;}
</style>
<g>
	<path class="st0" d="M54,33.9h4.4c5,0,7.3,1.4,7.3,5.7c0,2.6-0.9,4.2-2.8,5l3.5,6v0.1h-1.8c-1.2,0-1.7,0-2.3-1l-2.6-4.4h-2.8v5.4
		h-3V33.9z M58.6,36.4h-1.5v6.3h1.5c2.7,0,4-0.6,4-3.1C62.6,37,61.3,36.4,58.6,36.4"/>
	<path class="st0" d="M73.6,38.1c3.8,0,5.7,2,5.7,6.4c0,4.4-1.9,6.4-5.7,6.4s-5.7-2-5.7-6.4C67.9,40.1,69.8,38.1,73.6,38.1
		 M73.6,48.6c1.9,0,2.7-1.3,2.7-4.1c0-2.8-0.9-4.1-2.7-4.1c-1.9,0-2.7,1.3-2.7,4.1C70.9,47.3,71.7,48.6,73.6,48.6"/>
	<path class="st0" d="M83.2,54.9l1.6-4.3l-4.6-12.2v-0.1h2.8l2.1,5.9c0.5,1.3,0.8,2.3,1,3.4h0c0.3-1.1,0.6-2.2,1-3.4l2.2-5.9h2.9
		v0.1l-5.9,15.7C86.1,55,85.3,55,84.1,55L83.2,54.9L83.2,54.9z"/>
	<path class="st0" d="M104.1,42.3v8.3h-0.7c-0.7-0.2-1.3-0.6-1.6-0.8c-0.7,0.6-1.8,1.1-3.6,1.1c-3.1,0-4.7-1.1-4.7-4.1
		c0-2.9,1.6-4,4.8-4c1.2,0,2.2,0.2,3,0.4v-0.7c0-1.6-0.6-2-2.8-2c-1.4,0-2.6,0.2-4,0.4l-0.3-2.4c1.5-0.3,2.7-0.5,4.8-0.5
		C102.5,38.1,104.1,39.3,104.1,42.3 M101.2,48v-2.7c-0.7-0.2-1.5-0.3-2.6-0.3c-1.6,0-2.2,0.8-2.2,1.8c0,1.1,0.5,1.9,2.2,1.9
		C99.8,48.7,100.6,48.3,101.2,48"/>
	<path class="st0" d="M107.3,48V36.3c0-1.2,0-1.9,2.9-2.6v13.5c0,0.8,0.4,1,0.9,1c0.3,0,0.6,0,0.8,0l0.1,2.3
		c-0.6,0.1-1.4,0.2-2.3,0.2C108.3,50.7,107.3,49.9,107.3,48"/>
	<polygon class="st0" points="62.9,65.8 57.1,65.8 57.1,73 54,73 54,56.3 57.1,56.3 57.1,63.3 62.9,63.3 62.9,56.3 66,56.3 66,73 
		62.9,73 	"/>
	<path class="st0" d="M79.6,64.7V73h-0.7c-0.7-0.2-1.3-0.6-1.6-0.8c-0.7,0.6-1.8,1.1-3.6,1.1c-3.1,0-4.7-1.1-4.7-4.1
		c0-2.9,1.6-4,4.8-4c1.2,0,2.2,0.2,3,0.4v-0.7c0-1.6-0.6-2-2.8-2c-1.4,0-2.6,0.2-4,0.4l-0.3-2.4c1.5-0.3,2.7-0.5,4.8-0.5
		C78,60.5,79.6,61.7,79.6,64.7 M76.7,70.4v-2.7c-0.7-0.2-1.5-0.3-2.6-0.3c-1.6,0-2.2,0.8-2.2,1.8c0,1.1,0.5,1.9,2.2,1.9
		C75.3,71,76.1,70.7,76.7,70.4"/>
	<path class="st0" d="M82.4,72.7l0.3-2.3c1.4,0.3,2.4,0.4,3.8,0.4c1.7,0,2.5-0.3,2.5-1.3c0-1.1-1.6-1.3-3.1-1.6
		c-1.4-0.3-3.3-0.8-3.3-3.7c0-2.4,1.5-3.8,4.7-3.8c1.9,0,3,0.2,4.2,0.5l-0.3,2.3c-1.2-0.3-2.1-0.4-3.5-0.4c-1.7,0-2.3,0.3-2.3,1.2
		c0,1.1,1.4,1.3,2.9,1.7c1.4,0.4,3.5,0.8,3.5,3.6c0,2.5-1.7,3.9-5,3.9C84.9,73.3,83.7,73,82.4,72.7"/>
	<path class="st0" d="M94.8,58.7c0-1.2,0-1.9,2.9-2.6V73h-2.9V58.7z M101.8,60.8h3.3v0.1l-3.8,5.6l3.9,6.5V73h-1.8
		c-0.7,0-1.5,0-2.2-1.1L98,66.6L101.8,60.8z"/>
	<path class="st0" d="M112.3,60.5c3.8,0,5.7,2,5.7,6.4c0,4.4-1.9,6.4-5.7,6.4c-3.8,0-5.7-2-5.7-6.4
		C106.6,62.5,108.5,60.5,112.3,60.5 M112.3,70.9c1.9,0,2.7-1.3,2.7-4.1c0-2.8-0.9-4.1-2.7-4.1c-1.9,0-2.7,1.3-2.7,4.1
		C109.6,69.7,110.4,70.9,112.3,70.9"/>
	<path class="st0" d="M120.8,60.8h0.7c0.6,0.2,0.9,0.4,1.3,0.6c0.8-0.5,1.9-0.8,3.5-0.8c3.3,0,4.9,1.2,4.9,4.9V73h-2.9v-7.1
		c0-2.3-0.6-2.9-2.3-2.9c-1,0-1.7,0.2-2.3,0.5V73h-2.9V60.8z"/>
	<path class="st0" d="M134.3,56.3h2.9v2.9h-2.9V56.3z M134.3,60.8h2.9V73h-2.9V60.8z"/>
	<path class="st0" d="M140.6,60.8h0.7c0.6,0.2,0.9,0.4,1.3,0.6c0.8-0.5,1.9-0.8,3.5-0.8c3.3,0,4.8,1.2,4.8,4.9V73H148v-7.1
		c0-2.3-0.6-2.9-2.3-2.9c-1,0-1.7,0.2-2.2,0.5V73h-2.9V60.8z"/>
	<path class="st0" d="M153.5,66.6c0-4.8,1.8-6.1,5-6.1c1.6,0,2.7,0.3,3.5,0.8c0.3-0.2,0.7-0.4,1.3-0.6h0.7v12.5c0,3-1.6,4.2-5.1,4.2
		c-2.2,0-3.4-0.2-4.8-0.5l0.3-2.3c1.4,0.3,2.6,0.4,4,0.4c2.2,0,2.8-0.4,2.8-2v-0.9c-0.7,0.4-1.5,0.6-2.5,0.6
		C155.3,72.7,153.5,71.4,153.5,66.6 M161.1,69.8v-6.3c-0.6-0.3-1.3-0.5-2.3-0.5c-1.6,0-2.3,0.6-2.3,3.7c0,3,0.7,3.6,2.3,3.6
		C159.8,70.3,160.5,70,161.1,69.8"/>
	<path class="st0" d="M167.7,56.3h5c5,0,7.5,2.6,7.5,8.3c0,5.7-2.5,8.3-7.5,8.3h-5V56.3z M172.9,58.8h-2.2v11.7h2.2
		c2.7,0,4.2-1.8,4.2-5.8C177,60.6,175.6,58.8,172.9,58.8"/>
	<polygon class="st0" points="192.2,65.8 186.4,65.8 186.4,73 183.4,73 183.4,56.3 186.4,56.3 186.4,63.3 192.2,63.3 192.2,56.3 
		195.3,56.3 195.3,73 192.2,73 	"/>
	<path class="st0" d="M197.7,56.4L197.7,56.4l3.2-0.1l2.6,9c0.5,1.5,0.8,3.2,1,4.3h0c0.2-1.1,0.5-2.7,1-4.3l2.4-8
		c0.3-0.9,1.2-1,2.4-1h1.1v0.1L206.1,73h-3.2L197.7,56.4z"/>
	<path class="st0" d="M34.9,35.9L25,44.3l2.8-16.4L13,14.3L29.4,19C17.2,4.8,0,7.7,0,7.7s4.2,14.4,20,21c-5.2,9.1-4.3,18.4-0.6,27.6
		l15.2-13.6c0.7,0.8,1.9,2,4.1,2.9c2.1,0.9,5.1,1.3,8.3,0L34.9,35.9z"/>
	<path class="st0" d="M38.4,14.7l1.7-14.1c-4-1.4-7.8-0.3-10.3,2.3c-3.6,3.6-4,9.8,0,13.7l1.8-10.2l5.9,15l10.8,3.1l-7.2,6.2
		c14.2-1.4,20-11.8,20-11.8L38.4,14.7z"/>
</g>
</svg>
