<?xml version="1.0" encoding="utf-8"?><!DOCTYPE svg PUBLIC "-//W3C//DTD SVG 1.1//EN" "http://www.w3.org/Graphics/SVG/1.1/DTD/svg11.dtd"><svg xmlns="http://www.w3.org/2000/svg" xmlns:xlink="http://www.w3.org/1999/xlink"><symbol viewBox="0 0 20 20" id="chevron-thin-down" xmlns="http://www.w3.org/2000/svg"><path d="M17.418 6.109a.697.697 0 0 1 .979 0 .68.68 0 0 1 0 .969l-7.908 7.83a.697.697 0 0 1-.979 0l-7.908-7.83a.68.68 0 0 1 0-.969.697.697 0 0 1 .979 0L10 13.25l7.418-7.141z"/></symbol><symbol viewBox="0 0 20 20" id="chevron-thin-left" xmlns="http://www.w3.org/2000/svg"><path d="M13.891 17.418a.697.697 0 0 1 0 .979.68.68 0 0 1-.969 0l-7.83-7.908a.697.697 0 0 1 0-.979l7.83-7.908a.68.68 0 0 1 .969 0 .697.697 0 0 1 0 .979L6.75 10l7.141 7.418z"/></symbol><symbol viewBox="0 0 20 20" id="chevron-thin-right" xmlns="http://www.w3.org/2000/svg"><path d="M13.25 10L6.109 2.58a.697.697 0 0 1 0-.979.68.68 0 0 1 .969 0l7.83 7.908a.697.697 0 0 1 0 .979l-7.83 7.908a.68.68 0 0 1-.969 0 .697.697 0 0 1 0-.979L13.25 10z"/></symbol><symbol viewBox="0 0 20 20" id="chevron-thin-up" xmlns="http://www.w3.org/2000/svg"><path d="M2.582 13.891c-.272.268-.709.268-.979 0s-.271-.701 0-.969l7.908-7.83a.697.697 0 0 1 .979 0l7.908 7.83a.68.68 0 0 1 0 .969.695.695 0 0 1-.978 0L10 6.75l-7.418 7.141z"/></symbol><symbol viewBox="0 0 20 20" id="cross" xmlns="http://www.w3.org/2000/svg"><path d="M14.348 14.849a1.2 1.2 0 0 1-1.697 0L10 11.819l-2.651 3.029a1.2 1.2 0 1 1-1.697-1.697l2.758-3.15-2.759-3.152a1.2 1.2 0 1 1 1.697-1.697L10 8.183l2.651-3.031a1.2 1.2 0 1 1 1.697 1.697l-2.758 3.152 2.758 3.15a1.2 1.2 0 0 1 0 1.698z"/></symbol><symbol viewBox="0 0 20 20" id="eye" xmlns="http://www.w3.org/2000/svg"><path d="M10 4.4C3.44 4.4 0 9.23 0 10s3.44 5.6 10 5.6 10-4.83 10-5.6-3.44-5.6-10-5.6zm0 9.91A4.38 4.38 0 0 1 5.55 10 4.38 4.38 0 0 1 10 5.69 4.38 4.38 0 0 1 14.44 10 4.38 4.38 0 0 1 10 14.31zM10 10c-.41-.45.66-2.15 0-2.15A2.16 2.16 0 1 0 12.22 10c0-.55-1.87.38-2.22 0z"/></symbol><symbol viewBox="0 0 16 16" id="icn-arrow-left" xmlns="http://www.w3.org/2000/svg"><path d="M15.45 8.54H2l5.24 4.75a.56.56 0 1 1-.73.85l-.06-.06L.23 8.4H.17a.6.6 0 0 1 0-.81h.06l6.26-5.73a.56.56 0 0 1 .79.79L2 7.4h13.4a.57.57 0 0 1 0 1.14z"/></symbol><symbol viewBox="0 0 20 20" id="icn-logout" xmlns="http://www.w3.org/2000/svg"><path d="M19 10l-6-5v3H6v4h7v3l6-5zM3 3h8V1H3c-1.1 0-2 .9-2 2v14c0 1.1.9 2 2 2h8v-2H3V3z"/></symbol><symbol viewBox="0 0 20 20" id="icn_chevron_small_down" xmlns="http://www.w3.org/2000/svg"><path d="M13.418 7.859a.695.695 0 0 1 .978 0 .68.68 0 0 1 0 .969l-3.908 3.83a.697.697 0 0 1-.979 0l-3.908-3.83a.68.68 0 0 1 0-.969.695.695 0 0 1 .978 0L10 11l3.418-3.141z"/></symbol><symbol viewBox="0 0 64 64" id="icn_file" xmlns="http://www.w3.org/2000/svg"><path d="M39.6 22V9.7c.4.2.7.5.9.7L51.1 21c.3.3.5.6.7.9H39.6zm-3.3.8c0 1.4 1.1 2.5 2.5 2.5H53v27.5c0 1.4-1.1 2.5-2.5 2.5h-35c-1.4 0-2.5-1.1-2.5-2.5V11.2c0-1.4 1.1-2.5 2.5-2.5h20.8v14.1z"/></symbol><symbol id="icn_messages" viewBox="0 0 64 64" xmlns="http://www.w3.org/2000/svg"><defs><style>.kcls-1{fill:#00577e}</style></defs><path class="kcls-1" d="M56 25.28v19.63a3.18 3.18 0 0 1-2.67 2.56H10.67A3.18 3.18 0 0 1 8 44.91V25.28c0-.43 0-1.07 1.07-.53 1.49.75 19.63 10.24 20.48 10.67a4.3 4.3 0 0 0 2.45.53 4.3 4.3 0 0 0 2.45-.53c.85-.43 19.09-9.92 20.48-10.67 1.07-.54 1.07.1 1.07.53zM9.49 16.53h45.12c2.35 0 1.17 2.13-.21 2.88S35.09 29.76 34.45 30.08a4.63 4.63 0 0 1-2.45.53 4.87 4.87 0 0 1-2.45-.53c-.64-.32-18.67-10-19.95-10.67s-2.6-2.88-.11-2.88z"/></symbol><symbol id="icn_piggybank" viewBox="0 0 64 64" xmlns="http://www.w3.org/2000/svg"><defs><style>.lcls-1{fill:#00577e}</style></defs><path class="lcls-1" d="M6.54 24.41c2.16-1.72 5.38-.75 5.38-.75s-3.54.33-4.45 2.2c-.59 1.22.27 2.5 1.24 3.35a7.63 7.63 0 0 0 2 1.07c2.56-7.55 11.3-13.11 21.7-13.11a27 27 0 0 1 11.85 2.66c4-1.64 8.72-3.45 9.57-3.23 1 .26-1.38 5-3.08 8.05a17.23 17.23 0 0 1 2.08 2.85h4.25a1.72 1.72 0 0 1 1.72 1.72v10.7a1.72 1.72 0 0 1-1.72 1.72h-3.95a17.78 17.78 0 0 1-4.08 5.07l1.72 5.44a1.72 1.72 0 0 1-1.12 2.16l-5.1 1.62a1.72 1.72 0 0 1-2.16-1.12l-1.17-3.69a28.14 28.14 0 0 1-17.68 0l-1.16 3.68a1.72 1.72 0 0 1-2.16 1.12l-5.1-1.62A1.72 1.72 0 0 1 14 52.14l1.72-5.44a15.76 15.76 0 0 1-5.8-11.85 14.13 14.13 0 0 1 .08-1.77 8.79 8.79 0 0 1-4-2.79c-1-1.48-1.21-4.48.54-5.88zM32.48 14.41a28.1 28.1 0 0 0-6.57.77v-.58a6.6 6.6 0 1 1 13.19 0v.58a28.1 28.1 0 0 0-6.62-.77z"/></symbol><symbol id="icn_user" viewBox="0 0 64 64" xmlns="http://www.w3.org/2000/svg"><defs><style>.mcls-1{fill:#00577e}</style></defs><path class="mcls-1" d="M45.77 40.82c-3.75-1.41-6-2.68-7.2-4.35a16.82 16.82 0 0 0 5-12.4C43.52 15.73 38.36 9 32 9s-11.52 6.77-11.52 15.1a16.81 16.81 0 0 0 5 12.42c-1.2 1.65-3.43 2.92-7.22 4.33-6.45 2.25-10.59 4.63-10.59 6.28v5.49S9 56 32 56s24.33-3.38 24.33-3.38v-5.49c0-1.65-4.14-4.03-10.56-6.31z"/></symbol></svg>