<svg width="348" height="25" viewBox="0 0 348 25" fill="none" xmlns="http://www.w3.org/2000/svg">
<path d="M5.23047 1.86719C7.44141 1.86719 9.05469 2.32031 10.0703 3.22656C11.0859 4.13281 11.5938 5.40234 11.5938 7.03516C11.5938 7.77734 11.4766 8.48438 11.2422 9.15625C11.0156 9.82031 10.6406 10.4102 10.1172 10.9258C9.59375 11.4336 8.90234 11.8359 8.04297 12.1328C7.19141 12.4297 6.14062 12.5781 4.89062 12.5781H3.0625V19H0.25V1.86719H5.23047ZM5.04297 4.19922H3.0625V10.2344H4.59766C5.48047 10.2344 6.23047 10.1328 6.84766 9.92969C7.46484 9.71875 7.93359 9.38672 8.25391 8.93359C8.57422 8.48047 8.73438 7.88281 8.73438 7.14062C8.73438 6.14844 8.43359 5.41016 7.83203 4.92578C7.23828 4.44141 6.30859 4.19922 5.04297 4.19922ZM19.9023 5.78125C21.0586 5.78125 22.0508 6.01953 22.8789 6.49609C23.707 6.97266 24.3438 7.64844 24.7891 8.52344C25.2344 9.39844 25.457 10.4453 25.457 11.6641V13.1406H16.7969C16.8281 14.3984 17.1641 15.3672 17.8047 16.0469C18.4531 16.7266 19.3594 17.0664 20.5234 17.0664C21.3516 17.0664 22.0938 16.9883 22.75 16.832C23.4141 16.668 24.0977 16.4297 24.8008 16.1172V18.3555C24.1523 18.6602 23.4922 18.8828 22.8203 19.0234C22.1484 19.1641 21.3438 19.2344 20.4062 19.2344C19.1328 19.2344 18.0117 18.9883 17.043 18.4961C16.082 17.9961 15.3281 17.2539 14.7812 16.2695C14.2422 15.2852 13.9727 14.0625 13.9727 12.6016C13.9727 11.1484 14.2188 9.91406 14.7109 8.89844C15.2031 7.88281 15.8945 7.10938 16.7852 6.57812C17.6758 6.04688 18.7148 5.78125 19.9023 5.78125ZM19.9023 7.85547C19.0352 7.85547 18.332 8.13672 17.793 8.69922C17.2617 9.26172 16.9492 10.0859 16.8555 11.1719H22.7617C22.7539 10.5234 22.6445 9.94922 22.4336 9.44922C22.2305 8.94922 21.918 8.55859 21.4961 8.27734C21.082 7.99609 20.5508 7.85547 19.9023 7.85547ZM35.3242 5.78125C36.7852 5.78125 37.9219 6.16016 38.7344 6.91797C39.5547 7.66797 39.9648 8.875 39.9648 10.5391V19H37.2109V11.0547C37.2109 10.0469 37.0039 9.29297 36.5898 8.79297C36.1758 8.28516 35.5352 8.03125 34.668 8.03125C33.4102 8.03125 32.5352 8.41797 32.043 9.19141C31.5586 9.96484 31.3164 11.0859 31.3164 12.5547V19H28.5625V6.02734H30.707L31.0938 7.78516H31.2461C31.5273 7.33203 31.875 6.96094 32.2891 6.67188C32.7109 6.375 33.1797 6.15234 33.6953 6.00391C34.2188 5.85547 34.7617 5.78125 35.3242 5.78125ZM52.5391 15.2969C52.5391 16.1484 52.332 16.8672 51.918 17.4531C51.5039 18.0391 50.8984 18.4844 50.1016 18.7891C49.3125 19.0859 48.3438 19.2344 47.1953 19.2344C46.2891 19.2344 45.5078 19.168 44.8516 19.0352C44.2031 18.9102 43.5898 18.7148 43.0117 18.4492V16.0703C43.6289 16.3594 44.3203 16.6094 45.0859 16.8203C45.8594 17.0312 46.5898 17.1367 47.2773 17.1367C48.1836 17.1367 48.8359 16.9961 49.2344 16.7148C49.6328 16.4258 49.832 16.043 49.832 15.5664C49.832 15.2852 49.75 15.0352 49.5859 14.8164C49.4297 14.5898 49.1328 14.3594 48.6953 14.125C48.2656 13.8828 47.6328 13.5938 46.7969 13.2578C45.9766 12.9297 45.2852 12.6016 44.7227 12.2734C44.1602 11.9453 43.7344 11.5508 43.4453 11.0898C43.1562 10.6211 43.0117 10.0234 43.0117 9.29688C43.0117 8.14844 43.4648 7.27734 44.3711 6.68359C45.2852 6.08203 46.4922 5.78125 47.9922 5.78125C48.7891 5.78125 49.5391 5.86328 50.2422 6.02734C50.9531 6.18359 51.6484 6.41406 52.3281 6.71875L51.4609 8.79297C50.875 8.53516 50.2852 8.32422 49.6914 8.16016C49.1055 7.98828 48.5078 7.90234 47.8984 7.90234C47.1875 7.90234 46.6445 8.01172 46.2695 8.23047C45.9023 8.44922 45.7188 8.76172 45.7188 9.16797C45.7188 9.47266 45.8086 9.73047 45.9883 9.94141C46.168 10.1523 46.4766 10.3633 46.9141 10.5742C47.3594 10.7852 47.9766 11.0469 48.7656 11.3594C49.5391 11.6562 50.207 11.9688 50.7695 12.2969C51.3398 12.6172 51.7773 13.0117 52.082 13.4805C52.3867 13.9492 52.5391 14.5547 52.5391 15.2969ZM58.2695 6.02734V19H55.5156V6.02734H58.2695ZM56.9102 1.05859C57.332 1.05859 57.6953 1.17188 58 1.39844C58.3125 1.625 58.4688 2.01562 58.4688 2.57031C58.4688 3.11719 58.3125 3.50781 58 3.74219C57.6953 3.96875 57.332 4.08203 56.9102 4.08203C56.4727 4.08203 56.1016 3.96875 55.7969 3.74219C55.5 3.50781 55.3516 3.11719 55.3516 2.57031C55.3516 2.01562 55.5 1.625 55.7969 1.39844C56.1016 1.17188 56.4727 1.05859 56.9102 1.05859ZM73.7031 12.4844C73.7031 13.5625 73.5625 14.5195 73.2812 15.3555C73 16.1914 72.5898 16.8984 72.0508 17.4766C71.5117 18.0469 70.8633 18.4844 70.1055 18.7891C69.3477 19.0859 68.4922 19.2344 67.5391 19.2344C66.6484 19.2344 65.832 19.0859 65.0898 18.7891C64.3477 18.4844 63.7031 18.0469 63.1562 17.4766C62.6172 16.8984 62.1992 16.1914 61.9023 15.3555C61.6055 14.5195 61.457 13.5625 61.457 12.4844C61.457 11.0547 61.7031 9.84375 62.1953 8.85156C62.6953 7.85156 63.4062 7.08984 64.3281 6.56641C65.25 6.04297 66.3477 5.78125 67.6211 5.78125C68.8164 5.78125 69.8711 6.04297 70.7852 6.56641C71.6992 7.08984 72.4141 7.85156 72.9297 8.85156C73.4453 9.85156 73.7031 11.0625 73.7031 12.4844ZM64.293 12.4844C64.293 13.4297 64.4062 14.2383 64.6328 14.9102C64.8672 15.582 65.2266 16.0977 65.7109 16.457C66.1953 16.8086 66.8203 16.9844 67.5859 16.9844C68.3516 16.9844 68.9766 16.8086 69.4609 16.457C69.9453 16.0977 70.3008 15.582 70.5273 14.9102C70.7539 14.2383 70.8672 13.4297 70.8672 12.4844C70.8672 11.5391 70.7539 10.7383 70.5273 10.082C70.3008 9.41797 69.9453 8.91406 69.4609 8.57031C68.9766 8.21875 68.3477 8.04297 67.5742 8.04297C66.4336 8.04297 65.6016 8.42578 65.0781 9.19141C64.5547 9.95703 64.293 11.0547 64.293 12.4844ZM82.0352 5.78125C83.1914 5.78125 84.1836 6.01953 85.0117 6.49609C85.8398 6.97266 86.4766 7.64844 86.9219 8.52344C87.3672 9.39844 87.5898 10.4453 87.5898 11.6641V13.1406H78.9297C78.9609 14.3984 79.2969 15.3672 79.9375 16.0469C80.5859 16.7266 81.4922 17.0664 82.6562 17.0664C83.4844 17.0664 84.2266 16.9883 84.8828 16.832C85.5469 16.668 86.2305 16.4297 86.9336 16.1172V18.3555C86.2852 18.6602 85.625 18.8828 84.9531 19.0234C84.2812 19.1641 83.4766 19.2344 82.5391 19.2344C81.2656 19.2344 80.1445 18.9883 79.1758 18.4961C78.2148 17.9961 77.4609 17.2539 76.9141 16.2695C76.375 15.2852 76.1055 14.0625 76.1055 12.6016C76.1055 11.1484 76.3516 9.91406 76.8438 8.89844C77.3359 7.88281 78.0273 7.10938 78.918 6.57812C79.8086 6.04688 80.8477 5.78125 82.0352 5.78125ZM82.0352 7.85547C81.168 7.85547 80.4648 8.13672 79.9258 8.69922C79.3945 9.26172 79.082 10.0859 78.9883 11.1719H84.8945C84.8867 10.5234 84.7773 9.94922 84.5664 9.44922C84.3633 8.94922 84.0508 8.55859 83.6289 8.27734C83.2148 7.99609 82.6836 7.85547 82.0352 7.85547ZM97.457 5.78125C98.918 5.78125 100.055 6.16016 100.867 6.91797C101.688 7.66797 102.098 8.875 102.098 10.5391V19H99.3438V11.0547C99.3438 10.0469 99.1367 9.29297 98.7227 8.79297C98.3086 8.28516 97.668 8.03125 96.8008 8.03125C95.543 8.03125 94.668 8.41797 94.1758 9.19141C93.6914 9.96484 93.4492 11.0859 93.4492 12.5547V19H90.6953V6.02734H92.8398L93.2266 7.78516H93.3789C93.6602 7.33203 94.0078 6.96094 94.4219 6.67188C94.8438 6.375 95.3125 6.15234 95.8281 6.00391C96.3516 5.85547 96.8945 5.78125 97.457 5.78125ZM112.434 8.125H109.281V19H106.527V8.125H104.406V6.80078L106.527 5.99219V5.08984C106.527 3.98828 106.699 3.11328 107.043 2.46484C107.395 1.81641 107.895 1.35156 108.543 1.07031C109.199 0.78125 109.98 0.636719 110.887 0.636719C111.48 0.636719 112.023 0.6875 112.516 0.789062C113.008 0.882812 113.422 0.992187 113.758 1.11719L113.043 3.20312C112.777 3.11719 112.48 3.03906 112.152 2.96875C111.824 2.89062 111.473 2.85156 111.098 2.85156C110.473 2.85156 110.012 3.04688 109.715 3.4375C109.426 3.82812 109.281 4.39844 109.281 5.14844V6.02734H112.434V8.125ZM126.133 12.4844C126.133 13.5625 125.992 14.5195 125.711 15.3555C125.43 16.1914 125.02 16.8984 124.48 17.4766C123.941 18.0469 123.293 18.4844 122.535 18.7891C121.777 19.0859 120.922 19.2344 119.969 19.2344C119.078 19.2344 118.262 19.0859 117.52 18.7891C116.777 18.4844 116.133 18.0469 115.586 17.4766C115.047 16.8984 114.629 16.1914 114.332 15.3555C114.035 14.5195 113.887 13.5625 113.887 12.4844C113.887 11.0547 114.133 9.84375 114.625 8.85156C115.125 7.85156 115.836 7.08984 116.758 6.56641C117.68 6.04297 118.777 5.78125 120.051 5.78125C121.246 5.78125 122.301 6.04297 123.215 6.56641C124.129 7.08984 124.844 7.85156 125.359 8.85156C125.875 9.85156 126.133 11.0625 126.133 12.4844ZM116.723 12.4844C116.723 13.4297 116.836 14.2383 117.062 14.9102C117.297 15.582 117.656 16.0977 118.141 16.457C118.625 16.8086 119.25 16.9844 120.016 16.9844C120.781 16.9844 121.406 16.8086 121.891 16.457C122.375 16.0977 122.73 15.582 122.957 14.9102C123.184 14.2383 123.297 13.4297 123.297 12.4844C123.297 11.5391 123.184 10.7383 122.957 10.082C122.73 9.41797 122.375 8.91406 121.891 8.57031C121.406 8.21875 120.777 8.04297 120.004 8.04297C118.863 8.04297 118.031 8.42578 117.508 9.19141C116.984 9.95703 116.723 11.0547 116.723 12.4844ZM136.059 5.78125C137.52 5.78125 138.656 6.16016 139.469 6.91797C140.289 7.66797 140.699 8.875 140.699 10.5391V19H137.945V11.0547C137.945 10.0469 137.738 9.29297 137.324 8.79297C136.91 8.28516 136.27 8.03125 135.402 8.03125C134.145 8.03125 133.27 8.41797 132.777 9.19141C132.293 9.96484 132.051 11.0859 132.051 12.5547V19H129.297V6.02734H131.441L131.828 7.78516H131.98C132.262 7.33203 132.609 6.96094 133.023 6.67188C133.445 6.375 133.914 6.15234 134.43 6.00391C134.953 5.85547 135.496 5.78125 136.059 5.78125ZM148.914 19.2344C147.367 19.2344 146.125 18.6719 145.188 17.5469C144.258 16.4141 143.793 14.7461 143.793 12.543C143.793 10.3164 144.266 8.63281 145.211 7.49219C146.164 6.35156 147.418 5.78125 148.973 5.78125C149.629 5.78125 150.203 5.87109 150.695 6.05078C151.188 6.22266 151.609 6.45703 151.961 6.75391C152.32 7.05078 152.625 7.38281 152.875 7.75H153.004C152.965 7.50781 152.918 7.16016 152.863 6.70703C152.816 6.24609 152.793 5.82031 152.793 5.42969V0.765625H155.559V19H153.402L152.91 17.2305H152.793C152.559 17.6055 152.262 17.9453 151.902 18.25C151.551 18.5469 151.129 18.7852 150.637 18.9648C150.152 19.1445 149.578 19.2344 148.914 19.2344ZM149.688 16.9961C150.867 16.9961 151.699 16.6562 152.184 15.9766C152.668 15.2969 152.918 14.2773 152.934 12.918V12.5547C152.934 11.1016 152.699 9.98828 152.23 9.21484C151.762 8.43359 150.906 8.04297 149.664 8.04297C148.672 8.04297 147.914 8.44531 147.391 9.25C146.875 10.0469 146.617 11.1602 146.617 12.5898C146.617 14.0195 146.875 15.1133 147.391 15.8711C147.914 16.6211 148.68 16.9961 149.688 16.9961ZM168.227 15.2969C168.227 16.1484 168.02 16.8672 167.605 17.4531C167.191 18.0391 166.586 18.4844 165.789 18.7891C165 19.0859 164.031 19.2344 162.883 19.2344C161.977 19.2344 161.195 19.168 160.539 19.0352C159.891 18.9102 159.277 18.7148 158.699 18.4492V16.0703C159.316 16.3594 160.008 16.6094 160.773 16.8203C161.547 17.0312 162.277 17.1367 162.965 17.1367C163.871 17.1367 164.523 16.9961 164.922 16.7148C165.32 16.4258 165.52 16.043 165.52 15.5664C165.52 15.2852 165.438 15.0352 165.273 14.8164C165.117 14.5898 164.82 14.3594 164.383 14.125C163.953 13.8828 163.32 13.5938 162.484 13.2578C161.664 12.9297 160.973 12.6016 160.41 12.2734C159.848 11.9453 159.422 11.5508 159.133 11.0898C158.844 10.6211 158.699 10.0234 158.699 9.29688C158.699 8.14844 159.152 7.27734 160.059 6.68359C160.973 6.08203 162.18 5.78125 163.68 5.78125C164.477 5.78125 165.227 5.86328 165.93 6.02734C166.641 6.18359 167.336 6.41406 168.016 6.71875L167.148 8.79297C166.562 8.53516 165.973 8.32422 165.379 8.16016C164.793 7.98828 164.195 7.90234 163.586 7.90234C162.875 7.90234 162.332 8.01172 161.957 8.23047C161.59 8.44922 161.406 8.76172 161.406 9.16797C161.406 9.47266 161.496 9.73047 161.676 9.94141C161.855 10.1523 162.164 10.3633 162.602 10.5742C163.047 10.7852 163.664 11.0469 164.453 11.3594C165.227 11.6562 165.895 11.9688 166.457 12.2969C167.027 12.6172 167.465 13.0117 167.77 13.4805C168.074 13.9492 168.227 14.5547 168.227 15.2969ZM190.305 19H189.098V10.5625H179.09V19H177.883V1.86719H179.09V9.46094H189.098V1.86719H190.305V19ZM200.265 6.03906C201.663 6.03906 202.71 6.39062 203.405 7.09375C204.101 7.79688 204.448 8.91797 204.448 10.457V19H203.534L203.323 16.7734H203.253C202.98 17.25 202.648 17.6758 202.257 18.0508C201.866 18.418 201.386 18.707 200.815 18.918C200.253 19.1289 199.565 19.2344 198.753 19.2344C197.933 19.2344 197.23 19.0977 196.644 18.8242C196.065 18.5508 195.616 18.1523 195.296 17.6289C194.983 17.1055 194.827 16.4688 194.827 15.7188C194.827 14.4531 195.351 13.4922 196.398 12.8359C197.444 12.1719 198.948 11.7969 200.909 11.7109L203.276 11.5938V10.668C203.276 9.36328 203.019 8.43359 202.503 7.87891C201.987 7.32422 201.226 7.04688 200.218 7.04688C199.562 7.04688 198.929 7.13281 198.319 7.30469C197.718 7.46875 197.105 7.70703 196.48 8.01953L196.105 7.03516C196.714 6.74609 197.366 6.50781 198.062 6.32031C198.765 6.13281 199.499 6.03906 200.265 6.03906ZM203.265 12.5195L201.038 12.6133C199.421 12.6914 198.19 12.9805 197.347 13.4805C196.503 13.9805 196.081 14.7305 196.081 15.7305C196.081 16.5352 196.331 17.1523 196.831 17.582C197.339 18.0117 198.042 18.2266 198.94 18.2266C200.339 18.2266 201.405 17.8281 202.14 17.0312C202.882 16.2344 203.257 15.1484 203.265 13.7734V12.5195ZM217.467 15.6602C217.467 16.418 217.275 17.0664 216.893 17.6055C216.518 18.1367 215.967 18.543 215.24 18.8242C214.514 19.0977 213.619 19.2344 212.557 19.2344C211.674 19.2344 210.885 19.1562 210.19 19C209.494 18.8438 208.912 18.6523 208.443 18.4258V17.2539C209.029 17.543 209.678 17.7773 210.389 17.957C211.1 18.1367 211.83 18.2266 212.58 18.2266C213.893 18.2266 214.838 18.0039 215.416 17.5586C215.994 17.1133 216.283 16.5039 216.283 15.7305C216.283 15.2227 216.139 14.8047 215.85 14.4766C215.568 14.1406 215.162 13.8516 214.631 13.6094C214.1 13.3672 213.459 13.1211 212.709 12.8711C211.928 12.6055 211.232 12.3438 210.623 12.0859C210.022 11.8203 209.549 11.4727 209.205 11.043C208.861 10.6055 208.69 10.0117 208.69 9.26172C208.69 8.23828 209.1 7.44141 209.92 6.87109C210.74 6.30078 211.842 6.01562 213.225 6.01562C213.99 6.01562 214.701 6.08984 215.357 6.23828C216.022 6.37891 216.623 6.5625 217.162 6.78906L216.74 7.79688C216.256 7.57031 215.697 7.38672 215.065 7.24609C214.432 7.10547 213.799 7.03516 213.166 7.03516C212.127 7.03516 211.315 7.21875 210.729 7.58594C210.143 7.95312 209.85 8.49219 209.85 9.20312C209.85 9.75 209.99 10.1797 210.272 10.4922C210.553 10.7969 210.955 11.0547 211.479 11.2656C212.002 11.4688 212.623 11.6953 213.342 11.9453C214.084 12.2031 214.768 12.4727 215.393 12.7539C216.025 13.0352 216.529 13.3984 216.904 13.8438C217.279 14.2891 217.467 14.8945 217.467 15.6602ZM222.821 0.765625V9.96484C222.821 10.5352 222.814 11.1172 222.798 11.7109C222.79 12.2969 222.778 12.8828 222.763 13.4688H222.786C223.013 13.2031 223.247 12.9258 223.489 12.6367C223.739 12.3398 223.985 12.0547 224.228 11.7812L229.267 6.26172H230.696L225.669 11.7227L231.142 19H229.724L224.86 12.5078L222.821 14.6523V19H221.638V0.765625H222.821ZM244.793 12.6133C244.793 13.5977 244.672 14.4961 244.43 15.3086C244.188 16.1133 243.828 16.8086 243.352 17.3945C242.875 17.9805 242.281 18.4336 241.57 18.7539C240.867 19.0742 240.047 19.2344 239.11 19.2344C238.219 19.2344 237.426 19.0781 236.731 18.7656C236.035 18.4453 235.445 17.9922 234.961 17.4062C234.485 16.8203 234.121 16.125 233.871 15.3203C233.621 14.5078 233.496 13.6055 233.496 12.6133C233.496 11.2461 233.723 10.0703 234.176 9.08594C234.637 8.09375 235.293 7.33594 236.145 6.8125C237.004 6.28125 238.031 6.01562 239.227 6.01562C240.461 6.01562 241.488 6.29688 242.309 6.85938C243.137 7.41406 243.758 8.1875 244.172 9.17969C244.586 10.1719 244.793 11.3164 244.793 12.6133ZM234.715 12.6133C234.715 13.7305 234.875 14.707 235.195 15.543C235.516 16.3789 236 17.0312 236.649 17.5C237.305 17.9688 238.133 18.2031 239.133 18.2031C240.156 18.2031 240.996 17.9688 241.652 17.5C242.309 17.0312 242.793 16.375 243.106 15.5312C243.418 14.6875 243.574 13.7148 243.574 12.6133C243.574 11.543 243.426 10.5898 243.129 9.75391C242.832 8.91797 242.363 8.26172 241.723 7.78516C241.082 7.30078 240.246 7.05859 239.215 7.05859C237.738 7.05859 236.617 7.55078 235.852 8.53516C235.094 9.51953 234.715 10.8789 234.715 12.6133ZM254.882 6.01562C256.312 6.01562 257.409 6.39062 258.175 7.14062C258.941 7.89062 259.323 9.06641 259.323 10.668V19H258.152V10.7383C258.152 9.47266 257.863 8.54297 257.284 7.94922C256.706 7.35547 255.866 7.05859 254.765 7.05859C253.366 7.05859 252.296 7.46875 251.554 8.28906C250.82 9.10156 250.452 10.332 250.452 11.9805V19H249.269V6.26172H250.23L250.405 8.58203H250.476C250.702 8.10547 251.011 7.67578 251.402 7.29297C251.8 6.90234 252.288 6.59375 252.866 6.36719C253.445 6.13281 254.116 6.01562 254.882 6.01562ZM265.592 6.26172V19H264.408V6.26172H265.592ZM265.018 1.55078C265.315 1.55078 265.533 1.64062 265.674 1.82031C265.815 1.99219 265.885 2.22656 265.885 2.52344C265.885 2.82031 265.815 3.05469 265.674 3.22656C265.533 3.39844 265.315 3.48438 265.018 3.48438C264.737 3.48438 264.526 3.39844 264.385 3.22656C264.244 3.05469 264.174 2.82031 264.174 2.52344C264.174 2.22656 264.244 1.99219 264.385 1.82031C264.526 1.64062 264.737 1.55078 265.018 1.55078ZM276.419 6.01562C277.849 6.01562 278.947 6.39062 279.712 7.14062C280.478 7.89062 280.861 9.06641 280.861 10.668V19H279.689V10.7383C279.689 9.47266 279.4 8.54297 278.822 7.94922C278.243 7.35547 277.404 7.05859 276.302 7.05859C274.904 7.05859 273.833 7.46875 273.091 8.28906C272.357 9.10156 271.99 10.332 271.99 11.9805V19H270.806V6.26172H271.767L271.943 8.58203H272.013C272.24 8.10547 272.548 7.67578 272.939 7.29297C273.337 6.90234 273.825 6.59375 274.404 6.36719C274.982 6.13281 275.654 6.01562 276.419 6.01562ZM289.321 24.7656C287.719 24.7656 286.473 24.457 285.582 23.8398C284.7 23.2227 284.258 22.3594 284.258 21.25C284.258 20.3906 284.528 19.6484 285.067 19.0234C285.606 18.4062 286.336 18.0352 287.258 17.9102C286.891 17.7383 286.59 17.5039 286.356 17.207C286.129 16.9102 286.016 16.5664 286.016 16.1758C286.016 15.7383 286.153 15.332 286.426 14.957C286.7 14.5742 287.11 14.2227 287.657 13.9023C286.922 13.6367 286.344 13.1875 285.922 12.5547C285.5 11.9141 285.289 11.1445 285.289 10.2461C285.289 9.38672 285.473 8.64062 285.84 8.00781C286.207 7.375 286.727 6.88672 287.399 6.54297C288.078 6.19141 288.879 6.01562 289.801 6.01562C290.082 6.01562 290.336 6.02344 290.563 6.03906C290.797 6.05469 291.012 6.08203 291.207 6.12109C291.403 6.15234 291.578 6.19531 291.735 6.25H295.848V7.09375L293.223 7.26953C293.567 7.68359 293.825 8.13281 293.996 8.61719C294.168 9.09375 294.254 9.59766 294.254 10.1289C294.254 11.3945 293.856 12.3984 293.059 13.1406C292.262 13.8828 291.153 14.2539 289.731 14.2539C289.34 14.2539 288.957 14.2188 288.582 14.1484C288.106 14.4297 287.742 14.7148 287.492 15.0039C287.242 15.2852 287.117 15.6367 287.117 16.0586C287.117 16.3242 287.196 16.543 287.352 16.7148C287.508 16.8789 287.735 17.0078 288.032 17.1016C288.328 17.1875 288.692 17.2305 289.121 17.2305H291.36C292.742 17.2305 293.801 17.5117 294.535 18.0742C295.27 18.6367 295.637 19.4648 295.637 20.5586C295.637 21.8945 295.086 22.9297 293.985 23.6641C292.891 24.3984 291.336 24.7656 289.321 24.7656ZM289.403 23.7695C290.52 23.7695 291.45 23.6484 292.192 23.4062C292.942 23.1641 293.504 22.8047 293.879 22.3281C294.254 21.8594 294.442 21.2773 294.442 20.582C294.442 20.0117 294.305 19.5703 294.032 19.2578C293.758 18.9453 293.371 18.7305 292.871 18.6133C292.371 18.4883 291.782 18.4258 291.102 18.4258H288.969C288.289 18.4258 287.684 18.5195 287.153 18.707C286.621 18.8867 286.207 19.1758 285.91 19.5742C285.621 19.9727 285.477 20.5039 285.477 21.168C285.477 22.0195 285.809 22.6641 286.473 23.1016C287.145 23.5469 288.121 23.7695 289.403 23.7695ZM289.778 13.3047C290.832 13.3047 291.641 13.0391 292.203 12.5078C292.766 11.9766 293.047 11.207 293.047 10.1992C293.047 9.12109 292.758 8.3125 292.18 7.77344C291.602 7.23438 290.793 6.96484 289.754 6.96484C288.746 6.96484 287.953 7.25391 287.375 7.83203C286.805 8.40234 286.52 9.20703 286.52 10.2461C286.52 11.2148 286.793 11.9688 287.34 12.5078C287.887 13.0391 288.7 13.3047 289.778 13.3047ZM312.71 10.2695C312.71 12.1836 312.37 13.7891 311.691 15.0859C311.019 16.3828 310.019 17.3594 308.691 18.0156C307.37 18.6719 305.734 19 303.781 19H299.679V1.86719H304.32C306.148 1.86719 307.683 2.1875 308.925 2.82812C310.167 3.46875 311.109 4.41406 311.749 5.66406C312.39 6.90625 312.71 8.44141 312.71 10.2695ZM311.445 10.3164C311.445 8.68359 311.179 7.32031 310.648 6.22656C310.117 5.13281 309.304 4.3125 308.21 3.76562C307.117 3.21094 305.73 2.93359 304.05 2.93359H300.886V17.9336H303.722C306.308 17.9336 308.242 17.3008 309.523 16.0352C310.804 14.7617 311.445 12.8555 311.445 10.3164ZM330.006 19H328.799V10.5625H318.791V19H317.584V1.86719H318.791V9.46094H328.799V1.86719H330.006V19ZM347.255 1.86719L340.927 19H339.732L333.404 1.86719H334.669L339.357 14.5469C339.49 14.9141 339.615 15.2734 339.732 15.625C339.849 15.9688 339.958 16.3008 340.06 16.6211C340.162 16.9414 340.251 17.25 340.33 17.5469C340.408 17.25 340.494 16.9492 340.587 16.6445C340.689 16.332 340.798 16.0039 340.915 15.6602C341.033 15.3086 341.162 14.9336 341.302 14.5352L345.978 1.86719H347.255Z" fill="white"/>
</svg>
