<svg class="logo" xmlns="http://www.w3.org/2000/svg" viewBox="206 190.27 428.81 215.45">
  <text font-weight="200" font-size="32px" transform="translate(213.19 289.638)">
    William Schrikker
  </text>
  <text font-weight="600" font-size="38px" transform="translate(206 331.326)">
    Gezinsvormen
  </text>
  <path fill="#f08c3e" d="M632.55 340.62l-9.3-9.3-9.3-9.3-9.3 9.3 9.3 9.3-46.49 46.5-9.3 9.3 9.3 9.3 9.3-9.3 46.49-46.5 9.3-9.3zm-37.19-18.59l9.3-9.3-37.19-37.19-9.3-9.3-4.65-4.66c-12.84-12.84-33.65-12.84-46.49 0-12.84 12.84-12.84 33.66 0 46.48l4.65 4.66 9.3-9.3-4.65-4.66c-7.7-7.7-7.7-20.19 0-27.89 7.7-7.7 20.19-7.7 27.9 0l4.65 4.66 9.3 9.3 37.18 37.2zm-47.03-95.1c0-9.98-8.1-18.08-18.08-18.08-9.99 0-18.08 8.09-18.08 18.08 0 9.98 8.1 18.08 18.08 18.08 9.98 0 18.08-8.09 18.08-18.08zm-18.06 85.8l-9.3 9.3 37.19 37.19 9.3-9.3-37.19-37.19z"/>
  <path class="secondary" d="M623.25 256.93c-15.41-15.41-40.38-15.41-55.79 0l-9.3 9.31 9.3 9.3 9.3-9.3c10.27-10.28 26.92-10.28 37.19 0 10.27 10.27 10.27 26.92 0 37.19l-9.3 9.3-9.3 9.3-27.9 27.89-9.3 9.3 9.3 9.31 9.3-9.31 27.9-27.89 9.3-9.3 9.3-9.3c15.41-15.41 15.41-40.39 0-55.8zm-4.88-43.64c0-12.7-10.3-23.02-23.01-23.02s-23.01 10.31-23.01 23.02c0 12.7 10.3 23.02 23.01 23.02 12.7 0 23.01-10.32 23.01-23.02zm-60.21 71.55l-9.3-9.3-27.9 27.89-9.3 9.3-9.3 9.3-9.3 9.3 9.3 9.3 55.79 55.8 9.3-9.3-55.79-55.8 9.3-9.3 9.3-9.3 27.9-27.89z"/>
</svg>