<svg id="Layer_1" data-name="Layer 1" xmlns="http://www.w3.org/2000/svg" viewBox="0 0 64 64"><defs><style>.cls-1{fill:#00577e;}</style></defs><title>Pensioen</title><path class="cls-1" d="M6.54,24.41c2.16-1.72,5.38-.75,5.38-.75s-3.54.33-4.45,2.2c-.59,1.22.27,2.5,1.24,3.35a7.63,7.63,0,0,0,2,1.07c2.56-7.55,11.3-13.11,21.7-13.11a27,27,0,0,1,11.85,2.66c4-1.64,8.72-3.45,9.57-3.23,1,.26-1.38,5-3.08,8.05a17.23,17.23,0,0,1,2.08,2.85h4.25a1.72,1.72,0,0,1,1.72,1.72V39.92a1.72,1.72,0,0,1-1.72,1.72H53.13a17.78,17.78,0,0,1-4.08,5.07l1.72,5.44a1.72,1.72,0,0,1-1.12,2.16l-5.1,1.62a1.72,1.72,0,0,1-2.16-1.12l-1.17-3.69a28.14,28.14,0,0,1-17.68,0L22.38,54.8a1.72,1.72,0,0,1-2.16,1.12l-5.1-1.62A1.72,1.72,0,0,1,14,52.14l1.72-5.44A15.76,15.76,0,0,1,9.92,34.85,14.13,14.13,0,0,1,10,33.08a8.79,8.79,0,0,1-4-2.79C5,28.81,4.79,25.81,6.54,24.41Z"/><path class="cls-1" d="M32.48,14.41a28.1,28.1,0,0,0-6.57.77c0-.19,0-.38,0-.58a6.6,6.6,0,1,1,13.19,0c0,.2,0,.39,0,.58A28.1,28.1,0,0,0,32.48,14.41Z"/></svg>