<svg id="Layer_1" data-name="Layer 1" xmlns="http://www.w3.org/2000/svg" viewBox="0 0 64 64"><defs><style>.cls-1{fill:#00577e;}</style></defs><title>Berichten</title><path class="cls-1" d="M56,25.28V44.91a3.18,3.18,0,0,1-2.67,2.56H10.67A3.18,3.18,0,0,1,8,44.91V25.28c0-.43,0-1.07,1.07-.53,1.49.75,19.63,10.24,20.48,10.67a4.3,4.3,0,0,0,2.45.53,4.3,4.3,0,0,0,2.45-.53c.85-.43,19.09-9.92,20.48-10.67C56,24.21,56,24.85,56,25.28ZM9.49,16.53H54.61c2.35,0,1.17,2.13-.21,2.88S35.09,29.76,34.45,30.08a4.63,4.63,0,0,1-2.45.53,4.87,4.87,0,0,1-2.45-.53c-.64-.32-18.67-10-19.95-10.67S7,16.53,9.49,16.53Z"/></svg>