<svg xmlns="http://www.w3.org/2000/svg" width="120mm" height="120mm" viewBox="0 0 340.16 340.16"><defs><style>.a{fill:#0286a8;}</style></defs><title>arbeidsongeschiktheidspensioen</title><path class="a" d="M297.64,14.17A28.38,28.38,0,0,1,326,42.52V297.64A28.38,28.38,0,0,1,297.64,326H42.52a28.38,28.38,0,0,1-28.35-28.35V42.52A28.38,28.38,0,0,1,42.52,14.17H297.64m0-14.17H42.52A42.64,42.64,0,0,0,0,42.52V297.64a42.64,42.64,0,0,0,42.52,42.52H297.64a42.64,42.64,0,0,0,42.52-42.52V42.52A42.64,42.64,0,0,0,297.64,0h0Z" transform="translate(0)"/><path class="a" d="M98.34,270.94a84.15,84.15,0,0,1,0-119,84.61,84.61,0,0,1,18.24-13.87c0.08,0,1.05,23.46,1.05,23.46a64.11,64.11,0,0,0,40.22,114c31.54,0,55.51-22.6,64.27-50.93l12.3,21.79A84.19,84.19,0,0,1,98.34,270.94ZM143.29,90.76a23.1,23.1,0,1,0-23.1-23.1A23.1,23.1,0,0,0,143.29,90.76Zm25.58,55.67,12,7.06,27.29-7.06c6.79-1.92,11.51-6.47,11.51-12.83s-5.33-11.78-11.51-10.19l-27.29,7.06-12.9-7.06-0.41-9.8a22,22,0,1,0-44,1.8l2.76,67.49a22,22,0,0,0,13.15,19.26,18.41,18.41,0,0,0,8.15,1.89h73.61l27.39,48.54A14,14,0,0,0,273,238.82l-34.75-61.66a14.76,14.76,0,0,0-.89-1.38A18.5,18.5,0,0,0,221.61,167H169.7Z" transform="translate(0)"/></svg>