<svg xmlns="http://www.w3.org/2000/svg" width="120mm" height="120mm" viewBox="0 0 340.16 340.16"><defs><style>.a{fill:#fff;}.b{fill:#0286a8;}</style></defs><title>beleggingskeuze</title><rect class="a" x="7.09" y="7.09" width="325.98" height="325.98" rx="35.43" ry="35.43"/><path class="b" d="M297.64,14.17A28.38,28.38,0,0,1,326,42.52V297.64A28.38,28.38,0,0,1,297.64,326H42.52a28.38,28.38,0,0,1-28.35-28.35V42.52A28.38,28.38,0,0,1,42.52,14.17H297.64m0-14.17H42.52A42.64,42.64,0,0,0,0,42.52V297.64a42.64,42.64,0,0,0,42.52,42.52H297.64a42.64,42.64,0,0,0,42.52-42.52V42.52A42.64,42.64,0,0,0,297.64,0h0Z" transform="translate(0)"/><path class="b" d="M293.35,177.43H257.76l-53.14-39.6a7,7,0,0,0-10.16,2l-49.34,81L98,162.62a7,7,0,0,0-8-2.11L43.63,178.57v15l0.48-.16,46.19-18,50.2,61.94a7,7,0,0,0,5.44,2.59l0.47,0a7,7,0,0,0,5.51-3.34l50.5-82.93L251.26,190a7,7,0,0,0,4.18,1.39h37.91A7,7,0,0,0,293.35,177.43Z" transform="translate(0)"/><path class="b" d="M296.29,300.32H43.63a4,4,0,0,1-4-4V71a4,4,0,1,1,8,0V292.32H296.29A4,4,0,0,1,296.29,300.32Z" transform="translate(0)"/></svg>