<svg xmlns="http://www.w3.org/2000/svg" width="120mm" height="120mm" viewBox="0 0 340.16 340.16"><defs><style>.a{fill:#fff;}.b,.c{fill:#0286a8;}.c{stroke:#0286a8;stroke-miterlimit:10;}</style></defs><title>buitenland</title><rect class="a" x="7.09" y="7.09" width="325.98" height="325.98" rx="35.43" ry="35.43"/><path class="b" d="M297.64,14.17A28.38,28.38,0,0,1,326,42.52V297.64A28.38,28.38,0,0,1,297.64,326H42.52a28.38,28.38,0,0,1-28.35-28.35V42.52A28.38,28.38,0,0,1,42.52,14.17H297.64m0-14.17H42.52A42.64,42.64,0,0,0,0,42.52V297.64a42.64,42.64,0,0,0,42.52,42.52H297.64a42.64,42.64,0,0,0,42.52-42.52V42.52A42.64,42.64,0,0,0,297.64,0h0Z" transform="translate(0)"/><path class="c" d="M84.91,93.51A6.49,6.49,0,0,1,91.46,87h1.36c3.15,0,5,1.53,6.8,3.83l25.25,33.15V93.25a6.46,6.46,0,0,1,12.92,0V140.6a6.49,6.49,0,0,1-6.55,6.55h-0.42c-3.15,0-5-1.53-6.8-3.83L97.83,109v31.88a6.46,6.46,0,1,1-12.92,0V93.51Z" transform="translate(0)"/><path class="c" d="M147,93.34a6.55,6.55,0,1,1,13.09,0v41.57h24.23a6,6,0,0,1,0,11.9H153.51a6.49,6.49,0,0,1-6.55-6.55V93.34Z" transform="translate(0)"/><path class="c" d="M195.72,207.33v63.22H68.91V71.43H195.72v75.4h29.34V48a6,6,0,0,0-6-6h-174a6,6,0,0,0-6,6V293.84a6,6,0,0,0,6,6h174a6,6,0,0,0,6-6V207.33H195.72Z" transform="translate(0)"/><polygon class="b" points="253.94 146.61 302.7 177.07 253.95 207.55 253.94 146.61"/><path class="b" d="M253.45,208.46V145.71l50.2,31.37Zm1-60.95v59.14l47.31-29.58Z" transform="translate(0)"/><line class="b" x1="273.75" y1="177.08" x2="154.82" y2="177.08"/><path class="b" d="M273.75,189.33H154.82a12.25,12.25,0,1,1,0-24.5H273.75A12.25,12.25,0,0,1,273.75,189.33Z" transform="translate(0)"/></svg>