<svg xmlns="http://www.w3.org/2000/svg" width="120mm" height="120mm" viewBox="0 0 340.16 340.16"><defs><style>.a{fill:#fff;}.b{fill:#0286a8;}.c{fill:#c0e1e9;}.d{fill:#41a4be;}.e,.h{fill:none;stroke-linecap:round;}.e{stroke:#41a4be;stroke-linejoin:round;stroke-width:8px;}.f{fill:#00577e;}.g{fill:#002d3e;}.h{stroke:#002d3e;stroke-miterlimit:10;stroke-width:14px;}</style></defs><title>conversie</title><rect class="a" x="7.09" y="7.09" width="325.98" height="325.98" rx="35.43" ry="35.43"/><path class="b" d="M297.64,14.17A28.38,28.38,0,0,1,326,42.52V297.64A28.38,28.38,0,0,1,297.64,326H42.52a28.38,28.38,0,0,1-28.35-28.35V42.52A28.38,28.38,0,0,1,42.52,14.17H297.64m0-14.17H42.52A42.64,42.64,0,0,0,0,42.52V297.64a42.64,42.64,0,0,0,42.52,42.52H297.64a42.64,42.64,0,0,0,42.52-42.52V42.52A42.64,42.64,0,0,0,297.64,0h0Z" transform="translate(0)"/><ellipse class="c" cx="135.41" cy="172.88" rx="86.74" ry="45.78"/><path class="d" d="M202.21,191c0-4.53,5.55-7.81,5.55-15.79,0-20-32.36-36.14-72.28-36.14s-72.28,16.18-72.28,36.14c0,8.68,3.85,11.49,3.85,15.79,0,10-27.94,22.44-27.94,44.45,0,33.27,43.15,60.24,96.38,60.24s96.38-27,96.38-60.24C231.85,213,202.21,200.31,202.21,191Z" transform="translate(0)"/><circle class="c" cx="123.43" cy="114.72" r="12.05"/><circle class="c" cx="147.52" cy="114.72" r="12.05"/><polyline class="e" points="236.88 106.13 299.02 106.13 299.02 291.24 236.88 291.24"/><line class="e" x1="236.56" y1="165.58" x2="299.02" y2="165.58"/><path class="c" d="M194.11,213c0,17.1-26.27,31-58.68,31s-58.68-13.86-58.68-31,26.27-31,58.68-31S194.11,195.85,194.11,213Zm-66.78-47.49a8.15,8.15,0,1,0,8.15,8.15A8.15,8.15,0,0,0,127.32,165.46Zm16.3,0a8.15,8.15,0,1,0,8.15,8.15A8.15,8.15,0,0,0,143.62,165.46Z" transform="translate(0)"/><path class="f" d="M180.61,225.21c0-3.06,3.75-5.28,3.75-10.68,0-13.5-21.89-24.45-48.9-24.45S86.58,201,86.58,214.54c0,5.87,2.6,7.77,2.6,10.68,0,6.77-18.9,15.18-18.9,30.07,0,22.5,29.19,40.75,65.2,40.75s65.2-18.24,65.2-40.75C200.67,240.07,180.61,231.51,180.61,225.21Z" transform="translate(0)"/><polygon class="g" points="248.46 134 283.62 134.08 266.27 105.72 248.46 134"/><line class="h" x1="265.93" y1="158.15" x2="265.87" y2="126.62"/></svg>