<svg xmlns="http://www.w3.org/2000/svg" width="120mm" height="120mm" viewBox="0 0 340.16 340.16"><defs><style>.a,.f{fill:#fff;}.b{fill:#0286a8;}.c{fill:#81c3d4;}.d{fill:#00577e;}.e,.h,.i{fill:none;}.e,.f{stroke:#0777be;}.e,.f,.h,.i{stroke-miterlimit:10;stroke-width:6.95px;}.g{fill:#c0e1e9;}.h,.i{stroke:#0286a8;}.h{stroke-linecap:round;}</style></defs><title>deeltijdpensioen</title><rect class="a" x="7.09" y="7.09" width="325.98" height="325.98" rx="35.43" ry="35.43"/><path class="b" d="M297.64,14.17A28.38,28.38,0,0,1,326,42.52V297.64A28.38,28.38,0,0,1,297.64,326H42.52a28.38,28.38,0,0,1-28.35-28.35V42.52A28.38,28.38,0,0,1,42.52,14.17H297.64m0-14.17H42.52A42.64,42.64,0,0,0,0,42.52V297.64a42.64,42.64,0,0,0,42.52,42.52H297.64a42.64,42.64,0,0,0,42.52-42.52V42.52A42.64,42.64,0,0,0,297.64,0h0Z" transform="translate(0)"/><ellipse class="c" cx="168.73" cy="125.31" rx="86.74" ry="45.78"/><path class="d" d="M235.53,143.43c0-4.53,5.55-7.81,5.55-15.79,0-20-32.36-36.14-72.28-36.14s-72.28,16.18-72.28,36.14c0,8.68,3.85,11.49,3.85,15.79,0,10-27.94,22.44-27.94,44.45,0,33.27,43.15,60.24,96.38,60.24s96.38-27,96.38-60.24C265.17,165.39,235.53,152.74,235.53,143.43Z" transform="translate(0)"/><circle class="c" cx="156.75" cy="67.15" r="12.05"/><circle class="c" cx="180.84" cy="67.15" r="12.05"/><path class="e" d="M270.58,231.67a60.54,60.54,0,1,1,0-.08v0.08Z" transform="translate(0)"/><path class="f" d="M270.58,231.58v0.08a60.54,60.54,0,1,1,0-.08" transform="translate(0)"/><path class="g" d="M209.46,231.62l43.3,42.56a60.78,60.78,0,1,1-43.3-103.1v60.54Z" transform="translate(0)"/><line class="h" x1="252.69" y1="189.15" x2="242.28" y2="199.57"/><line class="h" x1="148.33" y1="231.39" x2="163.06" y2="231.39"/><line class="h" x1="166.31" y1="189.18" x2="176.72" y2="199.6"/><line class="h" x1="270.58" y1="231.88" x2="255.85" y2="231.88"/><line class="h" x1="166.31" y1="274.07" x2="176.72" y2="263.65"/><line class="h" x1="209.54" y1="292.13" x2="209.54" y2="277.4"/><path class="i" d="M270.58,231.58v0.08a60.54,60.54,0,1,1,0-.08" transform="translate(0)"/><line class="h" x1="252.69" y1="274.04" x2="242.28" y2="263.62"/><line class="h" x1="209.46" y1="171.09" x2="209.46" y2="185.82"/></svg>