<svg xmlns="http://www.w3.org/2000/svg" width="120mm" height="120mm" viewBox="0 0 340.16 340.16"><defs><style>.a{fill:#fff;}.b{fill:#0286a8;}.c,.d{fill:#00577e;}.c{stroke:#00577e;stroke-linecap:round;stroke-linejoin:round;stroke-width:11.34px;}.e{fill:#81c3d4;}</style></defs><title>drie_pijlers</title><rect class="a" x="7.09" y="7.09" width="325.98" height="325.98" rx="35.43" ry="35.43"/><path class="b" d="M297.64,14.17A28.38,28.38,0,0,1,326,42.52V297.64A28.38,28.38,0,0,1,297.64,326H42.52a28.38,28.38,0,0,1-28.35-28.35V42.52A28.38,28.38,0,0,1,42.52,14.17H297.64m0-14.17H42.52A42.64,42.64,0,0,0,0,42.52V297.64a42.64,42.64,0,0,0,42.52,42.52H297.64a42.64,42.64,0,0,0,42.52-42.52V42.52A42.64,42.64,0,0,0,297.64,0h0Z" transform="translate(0)"/><polygon class="c" points="65.37 136.29 170.08 43.52 274.78 136.29 65.37 136.29"/><path class="d" d="M260.68,296.64H79.47c-3.09,0-5.59-2.94-5.59-6.56V218.42H266.27v71.66C266.27,293.7,263.77,296.64,260.68,296.64Z" transform="translate(0)"/><rect class="e" x="73.88" y="141.93" width="192.38" height="76.49"/><path class="a" d="M146.52,276.75l18.2-40.6a5.46,5.46,0,0,1,5.18-3.5h0.42a5.37,5.37,0,0,1,5.11,3.5l18.2,40.6a3.74,3.74,0,0,1,.49,1.82,4,4,0,0,1-4.06,4.13,4.44,4.44,0,0,1-4.2-3l-4-9.17h-23.8L153.94,280a4.14,4.14,0,0,1-4,2.73,3.94,3.94,0,0,1-4-4A4.41,4.41,0,0,1,146.52,276.75Zm32.06-13.86L170,243.08l-8.61,19.81h17.22Z" transform="translate(0)"/><path class="d" d="M151.11,159.49a4.27,4.27,0,0,1,4.34-4.34h17.64c5.6,0,10,1.54,12.81,4.34a11,11,0,0,1,3.29,8.12v0.14c0,5.88-3.36,9-7,10.92,5.74,2,9.73,5.25,9.73,11.9v0.14c0,8.75-7.21,13.44-18.13,13.44H155.45a4.27,4.27,0,0,1-4.34-4.34V159.49Zm20.23,16.31c5.53,0,9.24-2.17,9.24-6.65V169c0-3.85-3.08-6.23-8.61-6.23H159.58v13h11.76Zm2.52,20.72c5.88,0,9.45-2.31,9.45-6.72v-0.14c0-4.13-3.29-6.58-10.08-6.58H159.58v13.44h14.28Z" transform="translate(0)"/><path class="a" d="M148.09,102.2v-0.14c0-13.93,10.43-25.34,25.27-25.34a25.7,25.7,0,0,1,16.8,5.53,4.3,4.3,0,0,1,1.68,3.43A4.31,4.31,0,0,1,185,89a17.77,17.77,0,0,0-11.69-4.41c-9.31,0-16.17,7.7-16.17,17.29v0.14c0,9.59,6.79,17.36,16.17,17.36a17.56,17.56,0,0,0,12.25-4.69,3.92,3.92,0,0,1,2.59-1,4.1,4.1,0,0,1,4.06,4,4.14,4.14,0,0,1-1.4,3.08A25,25,0,0,1,173,127.4C158.73,127.4,148.09,116.27,148.09,102.2Z" transform="translate(0)"/></svg>