<svg xmlns="http://www.w3.org/2000/svg" xmlns:xlink="http://www.w3.org/1999/xlink" width="150mm" height="184.94mm" viewBox="0 0 425.2 524.25"><defs><style>.a{fill:none;}.b{fill:#fff;}.c,.g{fill:#0086a8;}.d{fill:#80c2d3;}.e{fill:#00577e;}.f{clip-path:url(#a);}.g{stroke:#fff;stroke-linecap:round;stroke-miterlimit:10;stroke-width:6px;}.h{fill:#e41f18;opacity:0.75;}</style><clipPath id="a" transform="translate(0 0)"><path class="a" d="M75.14,354.31V258.22A15.86,15.86,0,0,1,91,242.36h11.1v0h66.6v0h11.1a15.86,15.86,0,0,1,15.86,15.86v96.08H171.87V274.08h0s0,0,0,0a1.58,1.58,0,1,0-3.17,0s0,0,0,0h0v80.22h-66.6V274.08h0s0,0,0,0a1.59,1.59,0,1,0-3.17,0,0.23,0.23,0,0,0,0,0h0v80.22H75.14ZM135.4,239.16a31.72,31.72,0,1,0-31.73-31.72A31.72,31.72,0,0,0,135.4,239.16Z"/></clipPath></defs><title>geen_wezenpensioen_op_opbouwbasis</title><rect class="b" x="49.61" y="49.61" width="325.98" height="325.98" rx="35.43" ry="35.43"/><path class="c" d="M340.16,56.69A28.38,28.38,0,0,1,368.5,85V340.16a28.38,28.38,0,0,1-28.35,28.35H85a28.38,28.38,0,0,1-28.35-28.35V85A28.38,28.38,0,0,1,85,56.69H340.16m0-14.17H85A42.64,42.64,0,0,0,42.52,85V340.16A42.64,42.64,0,0,0,85,382.68H340.16a42.64,42.64,0,0,0,42.52-42.52V85a42.64,42.64,0,0,0-42.52-42.52h0Z" transform="translate(0 0)"/><path class="d" d="M260.37,115.62c0,14.11-21.67,25.55-48.41,25.55s-48.41-11.44-48.41-25.55S185.23,90.07,212,90.07,260.37,101.51,260.37,115.62ZM205.27,76.43A6.72,6.72,0,1,0,212,83.16,6.72,6.72,0,0,0,205.27,76.43Zm13.45,0a6.72,6.72,0,1,0,6.72,6.72A6.72,6.72,0,0,0,218.72,76.43Z" transform="translate(0 0)"/><path class="e" d="M249.24,125.73c0-2.53,3.1-4.36,3.1-8.81,0-11.14-18.06-20.17-40.34-20.17s-40.34,9-40.34,20.17c0,4.84,2.15,6.41,2.15,8.81,0,5.59-15.59,12.52-15.59,24.81,0,18.57,24.08,33.61,53.79,33.61s53.79-15,53.79-33.61C265.78,138,249.24,130.92,249.24,125.73Z" transform="translate(0 0)"/><path class="c" d="M307.29,279.95a24.84,24.84,0,1,0-24.85-24.85A24.84,24.84,0,0,0,307.29,279.95Z" transform="translate(0 0)"/><path class="c" d="M342.06,282.45h-8.69v0H281.2v0h-8.69a12.42,12.42,0,0,0-12.42,12.42v59.28h17.52V306a2.35,2.35,0,1,1,4.7,0v48.13h49.81V306a2.35,2.35,0,1,1,4.7,0v48.13h17.66V294.88A12.42,12.42,0,0,0,342.06,282.45Z" transform="translate(0 0)"/><g class="f"><path class="c" d="M157.07,180.42a3,3,0,0,0-3-3h-0.23a3,3,0,0,0,0,5.9h0.23A3,3,0,0,0,157.07,180.42Z" transform="translate(0 0)"/><path class="c" d="M147.76,180.42a3,3,0,0,0-2.95-3h-0.23a3,3,0,1,0,0,5.9h0.23A3,3,0,0,0,147.76,180.42Z" transform="translate(0 0)"/><path class="c" d="M138.45,180.42a3,3,0,0,0-3-3h-0.23a3,3,0,1,0,0,5.9h0.23A3,3,0,0,0,138.45,180.42Z" transform="translate(0 0)"/><path class="c" d="M129.14,180.42a3,3,0,0,0-2.95-3H126a3,3,0,0,0,0,5.9h0.23A3,3,0,0,0,129.14,180.42Z" transform="translate(0 0)"/><path class="c" d="M119.83,180.42a3,3,0,0,0-3-3h-0.23a3,3,0,1,0,0,5.9h0.23A3,3,0,0,0,119.83,180.42Z" transform="translate(0 0)"/><path class="c" d="M166.37,189.4a3,3,0,0,0-3-3h-0.23a3,3,0,0,0,0,5.9h0.23A3,3,0,0,0,166.37,189.4Z" transform="translate(0 0)"/><path class="c" d="M157.07,189.4a3,3,0,0,0-3-3h-0.23a3,3,0,0,0,0,5.9h0.23A3,3,0,0,0,157.07,189.4Z" transform="translate(0 0)"/><path class="c" d="M147.76,189.4a3,3,0,0,0-3-3h-0.23a3,3,0,1,0,0,5.9h0.23A3,3,0,0,0,147.76,189.4Z" transform="translate(0 0)"/><path class="c" d="M138.45,189.4a3,3,0,0,0-3-3h-0.23a3,3,0,0,0,0,5.9h0.23A3,3,0,0,0,138.45,189.4Z" transform="translate(0 0)"/><path class="c" d="M129.14,189.4a3,3,0,0,0-3-3H126a3,3,0,0,0,0,5.9h0.23A3,3,0,0,0,129.14,189.4Z" transform="translate(0 0)"/><path class="c" d="M119.83,189.4a3,3,0,0,0-3-3h-0.23a3,3,0,1,0,0,5.9h0.23A3,3,0,0,0,119.83,189.4Z" transform="translate(0 0)"/><path class="c" d="M110.52,189.4a3,3,0,0,0-3-3h-0.23a3,3,0,1,0,0,5.9h0.23A3,3,0,0,0,110.52,189.4Z" transform="translate(0 0)"/><path class="c" d="M166.37,198.37a3,3,0,0,0-3-3h-0.23a3,3,0,0,0,0,5.9h0.23A3,3,0,0,0,166.37,198.37Z" transform="translate(0 0)"/><path class="c" d="M157.07,198.37a3,3,0,0,0-3-3h-0.23a3,3,0,0,0,0,5.9h0.23A3,3,0,0,0,157.07,198.37Z" transform="translate(0 0)"/><path class="c" d="M147.76,198.37a3,3,0,0,0-3-3h-0.23a3,3,0,1,0,0,5.9h0.23A3,3,0,0,0,147.76,198.37Z" transform="translate(0 0)"/><path class="c" d="M138.45,198.37a3,3,0,0,0-3-3h-0.23a3,3,0,0,0,0,5.9h0.23A3,3,0,0,0,138.45,198.37Z" transform="translate(0 0)"/><path class="c" d="M129.14,198.37a3,3,0,0,0-3-3H126a3,3,0,0,0,0,5.9h0.23A3,3,0,0,0,129.14,198.37Z" transform="translate(0 0)"/><path class="c" d="M119.83,198.37a3,3,0,0,0-3-3h-0.23a3,3,0,1,0,0,5.9h0.23A3,3,0,0,0,119.83,198.37Z" transform="translate(0 0)"/><path class="c" d="M110.52,198.37a3,3,0,0,0-3-3h-0.23a3,3,0,0,0,0,5.9h0.23A3,3,0,0,0,110.52,198.37Z" transform="translate(0 0)"/><path class="c" d="M166.37,207.34a3,3,0,0,0-3-3h-0.23a3,3,0,0,0,0,5.9h0.23A3,3,0,0,0,166.37,207.34Z" transform="translate(0 0)"/><path class="c" d="M157.07,207.34a3,3,0,0,0-3-3h-0.23a3,3,0,0,0,0,5.9h0.23A3,3,0,0,0,157.07,207.34Z" transform="translate(0 0)"/><path class="c" d="M147.76,207.34a3,3,0,0,0-2.95-3h-0.23a3,3,0,1,0,0,5.9h0.23A3,3,0,0,0,147.76,207.34Z" transform="translate(0 0)"/><path class="c" d="M138.45,207.34a3,3,0,0,0-3-3h-0.23a3,3,0,1,0,0,5.9h0.23A3,3,0,0,0,138.45,207.34Z" transform="translate(0 0)"/><path class="c" d="M129.14,207.34a3,3,0,0,0-2.95-3H126a3,3,0,0,0,0,5.9h0.23A3,3,0,0,0,129.14,207.34Z" transform="translate(0 0)"/><path class="c" d="M119.83,207.34a3,3,0,0,0-3-3h-0.23a3,3,0,1,0,0,5.9h0.23A3,3,0,0,0,119.83,207.34Z" transform="translate(0 0)"/><path class="c" d="M110.52,207.34a3,3,0,0,0-3-3h-0.22a3,3,0,1,0,0,5.9h0.22A3,3,0,0,0,110.52,207.34Z" transform="translate(0 0)"/><path class="c" d="M166.37,216.31a3,3,0,0,0-3-3h-0.23a3,3,0,0,0,0,5.9h0.23A3,3,0,0,0,166.37,216.31Z" transform="translate(0 0)"/><path class="c" d="M157.07,216.31a3,3,0,0,0-3-3h-0.23a3,3,0,0,0,0,5.9h0.23A3,3,0,0,0,157.07,216.31Z" transform="translate(0 0)"/><path class="c" d="M147.76,216.31a3,3,0,0,0-3-3h-0.23a3,3,0,1,0,0,5.9h0.23A3,3,0,0,0,147.76,216.31Z" transform="translate(0 0)"/><path class="c" d="M138.45,216.31a3,3,0,0,0-3-3h-0.23a3,3,0,0,0,0,5.9h0.23A3,3,0,0,0,138.45,216.31Z" transform="translate(0 0)"/><path class="c" d="M129.14,216.31a3,3,0,0,0-3-3H126a3,3,0,0,0,0,5.9h0.23A3,3,0,0,0,129.14,216.31Z" transform="translate(0 0)"/><path class="c" d="M119.83,216.31a3,3,0,0,0-3-3h-0.23a3,3,0,1,0,0,5.9h0.23A3,3,0,0,0,119.83,216.31Z" transform="translate(0 0)"/><path class="c" d="M110.52,216.31a3,3,0,0,0-3-3h-0.23a3,3,0,0,0,0,5.9h0.23A3,3,0,0,0,110.52,216.31Z" transform="translate(0 0)"/><path class="c" d="M166.37,225.28a3,3,0,0,0-3-3h-0.23a3,3,0,1,0,0,5.9h0.23A3,3,0,0,0,166.37,225.28Z" transform="translate(0 0)"/><path class="c" d="M157.07,225.28a3,3,0,0,0-3-3h-0.23a3,3,0,0,0,0,5.9h0.23A3,3,0,0,0,157.07,225.28Z" transform="translate(0 0)"/><path class="c" d="M147.76,225.28a3,3,0,0,0-3-3h-0.23a3,3,0,1,0,0,5.9h0.23A3,3,0,0,0,147.76,225.28Z" transform="translate(0 0)"/><path class="c" d="M138.45,225.28a3,3,0,0,0-3-3h-0.23a3,3,0,0,0,0,5.9h0.23A3,3,0,0,0,138.45,225.28Z" transform="translate(0 0)"/><path class="c" d="M129.14,225.28a3,3,0,0,0-3-3H126a3,3,0,0,0,0,5.9h0.23A3,3,0,0,0,129.14,225.28Z" transform="translate(0 0)"/><path class="c" d="M119.83,225.28a3,3,0,0,0-3-3h-0.23a3,3,0,1,0,0,5.9h0.23A3,3,0,0,0,119.83,225.28Z" transform="translate(0 0)"/><path class="c" d="M110.52,225.28a3,3,0,0,0-3-3h-0.23a3,3,0,1,0,0,5.9h0.23A3,3,0,0,0,110.52,225.28Z" transform="translate(0 0)"/><path class="c" d="M157.07,234.25a3,3,0,0,0-3-3h-0.23a3,3,0,0,0,0,5.9h0.23A3,3,0,0,0,157.07,234.25Z" transform="translate(0 0)"/><path class="c" d="M147.76,234.25a3,3,0,0,0-2.95-3h-0.23a3,3,0,1,0,0,5.9h0.23A3,3,0,0,0,147.76,234.25Z" transform="translate(0 0)"/><path class="c" d="M138.45,234.25a3,3,0,0,0-3-3h-0.23a3,3,0,1,0,0,5.9h0.23A3,3,0,0,0,138.45,234.25Z" transform="translate(0 0)"/><path class="c" d="M129.14,234.25a3,3,0,0,0-2.95-3H126a3,3,0,0,0,0,5.9h0.23A3,3,0,0,0,129.14,234.25Z" transform="translate(0 0)"/><path class="c" d="M119.83,234.25a3,3,0,0,0-3-3h-0.23a3,3,0,0,0,0,5.9h0.23A3,3,0,0,0,119.83,234.25Z" transform="translate(0 0)"/><path class="c" d="M185,243.22a3,3,0,0,0-3-3h-0.23a3,3,0,1,0,0,5.9H182A3,3,0,0,0,185,243.22Z" transform="translate(0 0)"/><path class="c" d="M175.68,243.22a3,3,0,0,0-3-3H172.5a3,3,0,1,0,0,5.9h0.23A3,3,0,0,0,175.68,243.22Z" transform="translate(0 0)"/><path class="c" d="M166.37,243.22a3,3,0,0,0-3-3h-0.23a3,3,0,1,0,0,5.9h0.23A3,3,0,0,0,166.37,243.22Z" transform="translate(0 0)"/><path class="c" d="M157.07,243.22a3,3,0,0,0-3-3h-0.23a3,3,0,0,0,0,5.9h0.23A3,3,0,0,0,157.07,243.22Z" transform="translate(0 0)"/><path class="c" d="M147.76,243.22a3,3,0,0,0-3-3h-0.23a3,3,0,1,0,0,5.9h0.23A3,3,0,0,0,147.76,243.22Z" transform="translate(0 0)"/><path class="c" d="M138.45,243.22a3,3,0,0,0-3-3h-0.23a3,3,0,1,0,0,5.9h0.23A3,3,0,0,0,138.45,243.22Z" transform="translate(0 0)"/><path class="c" d="M129.14,243.22a3,3,0,0,0-3-3H126a3,3,0,1,0,0,5.9h0.23A3,3,0,0,0,129.14,243.22Z" transform="translate(0 0)"/><path class="c" d="M119.83,243.22a3,3,0,0,0-3-3h-0.23a3,3,0,1,0,0,5.9h0.23A3,3,0,0,0,119.83,243.22Z" transform="translate(0 0)"/><path class="c" d="M110.52,243.22a3,3,0,0,0-3-3h-0.23a3,3,0,1,0,0,5.9h0.23A3,3,0,0,0,110.52,243.22Z" transform="translate(0 0)"/><path class="c" d="M101.21,243.22a3,3,0,0,0-3-3H98a3,3,0,1,0,0,5.9h0.23A3,3,0,0,0,101.21,243.22Z" transform="translate(0 0)"/><path class="c" d="M91.91,243.22a3,3,0,0,0-3-3H88.73a3,3,0,1,0,0,5.9H89A3,3,0,0,0,91.91,243.22Z" transform="translate(0 0)"/><path class="c" d="M194.3,252.18a3,3,0,0,0-3-2.95h-0.23a3,3,0,0,0,0,5.9h0.23A3,3,0,0,0,194.3,252.18Z" transform="translate(0 0)"/><path class="c" d="M185,252.18a3,3,0,0,0-3-2.95h-0.23a3,3,0,1,0,0,5.9H182A3,3,0,0,0,185,252.18Z" transform="translate(0 0)"/><path class="c" d="M175.68,252.18a3,3,0,0,0-3-2.95H172.5a3,3,0,1,0,0,5.9h0.23A3,3,0,0,0,175.68,252.18Z" transform="translate(0 0)"/><path class="c" d="M166.37,252.18a3,3,0,0,0-3-2.95h-0.23a3,3,0,1,0,0,5.9h0.23A3,3,0,0,0,166.37,252.18Z" transform="translate(0 0)"/><path class="c" d="M157.07,252.18a3,3,0,0,0-3-2.95h-0.23a3,3,0,0,0,0,5.9h0.23A3,3,0,0,0,157.07,252.18Z" transform="translate(0 0)"/><path class="c" d="M147.76,252.18a3,3,0,0,0-3-2.95h-0.23a3,3,0,1,0,0,5.9h0.23A3,3,0,0,0,147.76,252.18Z" transform="translate(0 0)"/><path class="c" d="M138.45,252.18a3,3,0,0,0-3-2.95h-0.23a3,3,0,1,0,0,5.9h0.23A3,3,0,0,0,138.45,252.18Z" transform="translate(0 0)"/><path class="c" d="M129.14,252.18a3,3,0,0,0-3-2.95H126a3,3,0,1,0,0,5.9h0.23A3,3,0,0,0,129.14,252.18Z" transform="translate(0 0)"/><path class="c" d="M119.83,252.18a3,3,0,0,0-3-2.95h-0.23a3,3,0,1,0,0,5.9h0.23A3,3,0,0,0,119.83,252.18Z" transform="translate(0 0)"/><path class="c" d="M110.52,252.18a3,3,0,0,0-3-2.95h-0.23a3,3,0,1,0,0,5.9h0.23A3,3,0,0,0,110.52,252.18Z" transform="translate(0 0)"/><path class="c" d="M101.21,252.18a3,3,0,0,0-3-2.95H98a3,3,0,1,0,0,5.9h0.23A3,3,0,0,0,101.21,252.18Z" transform="translate(0 0)"/><path class="c" d="M91.91,252.18a3,3,0,0,0-3-2.95H88.73a3,3,0,1,0,0,5.9H89A3,3,0,0,0,91.91,252.18Z" transform="translate(0 0)"/><path class="c" d="M82.6,252.18a3,3,0,0,0-3-2.95H79.42a3,3,0,1,0,0,5.9h0.23A3,3,0,0,0,82.6,252.18Z" transform="translate(0 0)"/><path class="c" d="M194.3,261.16a3,3,0,0,0-3-3h-0.23a3,3,0,0,0,0,5.9h0.23A3,3,0,0,0,194.3,261.16Z" transform="translate(0 0)"/><path class="c" d="M185,261.16a3,3,0,0,0-3-3h-0.23a3,3,0,0,0,0,5.9H182A3,3,0,0,0,185,261.16Z" transform="translate(0 0)"/><path class="c" d="M175.68,261.16a3,3,0,0,0-3-3h-0.23a3,3,0,1,0,0,5.9h0.23A3,3,0,0,0,175.68,261.16Z" transform="translate(0 0)"/><path class="c" d="M166.38,261.16a3,3,0,0,0-3-3H163.2a3,3,0,1,0,0,5.9h0.23A3,3,0,0,0,166.38,261.16Z" transform="translate(0 0)"/><path class="c" d="M157.07,261.16a3,3,0,0,0-3-3h-0.23a3,3,0,0,0,0,5.9h0.23A3,3,0,0,0,157.07,261.16Z" transform="translate(0 0)"/><path class="c" d="M147.76,261.16a3,3,0,0,0-3-3h-0.23a3,3,0,0,0,0,5.9h0.23A3,3,0,0,0,147.76,261.16Z" transform="translate(0 0)"/><path class="c" d="M138.45,261.16a3,3,0,0,0-3-3h-0.23a3,3,0,1,0,0,5.9h0.23A3,3,0,0,0,138.45,261.16Z" transform="translate(0 0)"/><path class="c" d="M129.14,261.16a3,3,0,0,0-3-3H126a3,3,0,0,0,0,5.9h0.23A3,3,0,0,0,129.14,261.16Z" transform="translate(0 0)"/><path class="c" d="M119.83,261.16a3,3,0,0,0-3-3h-0.23a3,3,0,0,0,0,5.9h0.23A3,3,0,0,0,119.83,261.16Z" transform="translate(0 0)"/><path class="c" d="M110.53,261.16a3,3,0,0,0-3-3h-0.23a3,3,0,0,0,0,5.9h0.23A3,3,0,0,0,110.53,261.16Z" transform="translate(0 0)"/><path class="c" d="M101.22,261.16a3,3,0,0,0-3-3H98a3,3,0,1,0,0,5.9h0.23A3,3,0,0,0,101.22,261.16Z" transform="translate(0 0)"/><path class="c" d="M91.91,261.16a3,3,0,0,0-3-3H88.73a3,3,0,0,0,0,5.9H89A3,3,0,0,0,91.91,261.16Z" transform="translate(0 0)"/><path class="c" d="M82.6,261.16a3,3,0,0,0-3-3H79.42a3,3,0,0,0,0,5.9h0.23A3,3,0,0,0,82.6,261.16Z" transform="translate(0 0)"/><path class="c" d="M194.3,270.13a3,3,0,0,0-3-3h-0.23a3,3,0,1,0,0,5.9h0.23A3,3,0,0,0,194.3,270.13Z" transform="translate(0 0)"/><path class="c" d="M185,270.13a3,3,0,0,0-3-3h-0.23a3,3,0,1,0,0,5.9H182A3,3,0,0,0,185,270.13Z" transform="translate(0 0)"/><path class="c" d="M175.68,270.13a3,3,0,0,0-3-3H172.5a3,3,0,1,0,0,5.9h0.23A3,3,0,0,0,175.68,270.13Z" transform="translate(0 0)"/><path class="c" d="M166.37,270.13a3,3,0,0,0-3-3h-0.23a3,3,0,1,0,0,5.9h0.23A3,3,0,0,0,166.37,270.13Z" transform="translate(0 0)"/><path class="c" d="M157.07,270.13a3,3,0,0,0-3-3h-0.23a3,3,0,0,0,0,5.9h0.23A3,3,0,0,0,157.07,270.13Z" transform="translate(0 0)"/><path class="c" d="M147.76,270.13a3,3,0,0,0-3-3h-0.23a3,3,0,1,0,0,5.9h0.23A3,3,0,0,0,147.76,270.13Z" transform="translate(0 0)"/><path class="c" d="M138.45,270.13a3,3,0,0,0-3-3h-0.23a3,3,0,1,0,0,5.9h0.23A3,3,0,0,0,138.45,270.13Z" transform="translate(0 0)"/><path class="c" d="M129.14,270.13a3,3,0,0,0-3-3H126a3,3,0,1,0,0,5.9h0.23A3,3,0,0,0,129.14,270.13Z" transform="translate(0 0)"/><path class="c" d="M119.83,270.13a3,3,0,0,0-3-3h-0.23a3,3,0,1,0,0,5.9h0.23A3,3,0,0,0,119.83,270.13Z" transform="translate(0 0)"/><path class="c" d="M110.52,270.13a3,3,0,0,0-3-3h-0.23a3,3,0,1,0,0,5.9h0.23A3,3,0,0,0,110.52,270.13Z" transform="translate(0 0)"/><path class="c" d="M101.21,270.13a3,3,0,0,0-3-3H98a3,3,0,1,0,0,5.9h0.23A3,3,0,0,0,101.21,270.13Z" transform="translate(0 0)"/><path class="c" d="M91.91,270.13a3,3,0,0,0-3-3H88.73a3,3,0,1,0,0,5.9H89A3,3,0,0,0,91.91,270.13Z" transform="translate(0 0)"/><path class="c" d="M82.6,270.13a3,3,0,0,0-3-3H79.42a3,3,0,1,0,0,5.9h0.23A3,3,0,0,0,82.6,270.13Z" transform="translate(0 0)"/><path class="c" d="M194.3,279.1a3,3,0,0,0-3-2.95h-0.22a3,3,0,1,0,0,5.9h0.22A3,3,0,0,0,194.3,279.1Z" transform="translate(0 0)"/><path class="c" d="M185,279.1a3,3,0,0,0-3-2.95h-0.23a3,3,0,0,0,0,5.9H182A3,3,0,0,0,185,279.1Z" transform="translate(0 0)"/><path class="c" d="M175.68,279.1a3,3,0,0,0-3-2.95H172.5a3,3,0,1,0,0,5.9h0.23A3,3,0,0,0,175.68,279.1Z" transform="translate(0 0)"/><path class="c" d="M166.37,279.1a3,3,0,0,0-3-2.95h-0.23a3,3,0,1,0,0,5.9h0.23A3,3,0,0,0,166.37,279.1Z" transform="translate(0 0)"/><path class="c" d="M157.07,279.1a3,3,0,0,0-3-2.95h-0.23a3,3,0,1,0,0,5.9h0.23A3,3,0,0,0,157.07,279.1Z" transform="translate(0 0)"/><path class="c" d="M147.76,279.1a3,3,0,0,0-2.95-2.95h-0.23a3,3,0,1,0,0,5.9h0.23A3,3,0,0,0,147.76,279.1Z" transform="translate(0 0)"/><path class="c" d="M138.45,279.1a3,3,0,0,0-3-2.95h-0.23a3,3,0,1,0,0,5.9h0.23A3,3,0,0,0,138.45,279.1Z" transform="translate(0 0)"/><path class="c" d="M129.14,279.1a3,3,0,0,0-2.95-2.95H126a3,3,0,1,0,0,5.9h0.23A3,3,0,0,0,129.14,279.1Z" transform="translate(0 0)"/><path class="c" d="M119.83,279.1a3,3,0,0,0-3-2.95h-0.23a3,3,0,1,0,0,5.9h0.23A3,3,0,0,0,119.83,279.1Z" transform="translate(0 0)"/><path class="c" d="M110.52,279.1a3,3,0,0,0-3-2.95h-0.22a3,3,0,1,0,0,5.9h0.22A3,3,0,0,0,110.52,279.1Z" transform="translate(0 0)"/><path class="c" d="M101.21,279.1a3,3,0,0,0-3-2.95H98a3,3,0,1,0,0,5.9h0.23A3,3,0,0,0,101.21,279.1Z" transform="translate(0 0)"/><path class="c" d="M91.91,279.1a3,3,0,0,0-3-2.95H88.73a3,3,0,1,0,0,5.9H89A3,3,0,0,0,91.91,279.1Z" transform="translate(0 0)"/><path class="c" d="M82.6,279.1a3,3,0,0,0-3-2.95H79.42a3,3,0,1,0,0,5.9h0.23A3,3,0,0,0,82.6,279.1Z" transform="translate(0 0)"/><path class="c" d="M194.3,288.07a3,3,0,0,0-3-3h-0.23a3,3,0,0,0,0,5.9h0.23A3,3,0,0,0,194.3,288.07Z" transform="translate(0 0)"/><path class="c" d="M185,288.07a3,3,0,0,0-3-3h-0.23a3,3,0,0,0,0,5.9H182A3,3,0,0,0,185,288.07Z" transform="translate(0 0)"/><path class="c" d="M175.68,288.07a3,3,0,0,0-3-3h-0.23a3,3,0,1,0,0,5.9h0.23A3,3,0,0,0,175.68,288.07Z" transform="translate(0 0)"/><path class="c" d="M166.38,288.07a3,3,0,0,0-3-3H163.2a3,3,0,1,0,0,5.9h0.23A3,3,0,0,0,166.38,288.07Z" transform="translate(0 0)"/><path class="c" d="M157.07,288.07a3,3,0,0,0-3-3h-0.23a3,3,0,0,0,0,5.9h0.23A3,3,0,0,0,157.07,288.07Z" transform="translate(0 0)"/><path class="c" d="M147.76,288.07a3,3,0,0,0-3-3h-0.23a3,3,0,1,0,0,5.9h0.23A3,3,0,0,0,147.76,288.07Z" transform="translate(0 0)"/><path class="c" d="M138.45,288.07a3,3,0,0,0-3-3h-0.23a3,3,0,1,0,0,5.9h0.23A3,3,0,0,0,138.45,288.07Z" transform="translate(0 0)"/><path class="c" d="M129.14,288.07a3,3,0,0,0-3-3H126a3,3,0,0,0,0,5.9h0.23A3,3,0,0,0,129.14,288.07Z" transform="translate(0 0)"/><path class="c" d="M119.83,288.07a3,3,0,0,0-3-3h-0.23a3,3,0,0,0,0,5.9h0.23A3,3,0,0,0,119.83,288.07Z" transform="translate(0 0)"/><path class="c" d="M110.53,288.07a3,3,0,0,0-3-3h-0.23a3,3,0,1,0,0,5.9h0.23A3,3,0,0,0,110.53,288.07Z" transform="translate(0 0)"/><path class="c" d="M101.22,288.07a3,3,0,0,0-3-3H98a3,3,0,1,0,0,5.9h0.23A3,3,0,0,0,101.22,288.07Z" transform="translate(0 0)"/><path class="c" d="M91.91,288.07a3,3,0,0,0-3-3H88.73a3,3,0,0,0,0,5.9H89A3,3,0,0,0,91.91,288.07Z" transform="translate(0 0)"/><path class="c" d="M82.6,288.07a3,3,0,0,0-3-3H79.42a3,3,0,1,0,0,5.9h0.23A3,3,0,0,0,82.6,288.07Z" transform="translate(0 0)"/><path class="c" d="M194.3,297a3,3,0,0,0-3-3h-0.23a3,3,0,0,0,0,5.91h0.23A3,3,0,0,0,194.3,297Z" transform="translate(0 0)"/><path class="c" d="M185,297a3,3,0,0,0-3-3h-0.23a3,3,0,0,0,0,5.91H182A3,3,0,0,0,185,297Z" transform="translate(0 0)"/><path class="c" d="M175.68,297a3,3,0,0,0-3-3h-0.23a3,3,0,1,0,0,5.91h0.23A3,3,0,0,0,175.68,297Z" transform="translate(0 0)"/><path class="c" d="M166.38,297a3,3,0,0,0-3-3H163.2a3,3,0,0,0,0,5.91h0.23A3,3,0,0,0,166.38,297Z" transform="translate(0 0)"/><path class="c" d="M157.07,297a3,3,0,0,0-3-3h-0.23a3,3,0,0,0,0,5.91h0.23A3,3,0,0,0,157.07,297Z" transform="translate(0 0)"/><path class="c" d="M147.76,297a3,3,0,0,0-3-3h-0.23a3,3,0,0,0,0,5.91h0.23A3,3,0,0,0,147.76,297Z" transform="translate(0 0)"/><path class="c" d="M138.45,297a3,3,0,0,0-3-3h-0.23a3,3,0,1,0,0,5.91h0.23A3,3,0,0,0,138.45,297Z" transform="translate(0 0)"/><path class="c" d="M129.14,297a3,3,0,0,0-3-3H126a3,3,0,0,0,0,5.91h0.23A3,3,0,0,0,129.14,297Z" transform="translate(0 0)"/><path class="c" d="M119.83,297a3,3,0,0,0-3-3h-0.23a3,3,0,0,0,0,5.91h0.23A3,3,0,0,0,119.83,297Z" transform="translate(0 0)"/><path class="c" d="M110.53,297a3,3,0,0,0-3-3h-0.23a3,3,0,0,0,0,5.91h0.23A3,3,0,0,0,110.53,297Z" transform="translate(0 0)"/><path class="c" d="M101.22,297a3,3,0,0,0-3-3H98A3,3,0,0,0,98,300h0.23A3,3,0,0,0,101.22,297Z" transform="translate(0 0)"/><path class="c" d="M91.91,297a3,3,0,0,0-3-3H88.73a3,3,0,0,0,0,5.91H89A3,3,0,0,0,91.91,297Z" transform="translate(0 0)"/><path class="c" d="M82.6,297a3,3,0,0,0-3-3H79.42a3,3,0,0,0,0,5.91h0.23A3,3,0,0,0,82.6,297Z" transform="translate(0 0)"/><path class="c" d="M194.3,306a3,3,0,0,0-3-3h-0.23a3,3,0,0,0,0,5.91h0.23A3,3,0,0,0,194.3,306Z" transform="translate(0 0)"/><path class="c" d="M185,306a3,3,0,0,0-3-3h-0.23a3,3,0,0,0,0,5.91H182A3,3,0,0,0,185,306Z" transform="translate(0 0)"/><path class="c" d="M175.68,306a3,3,0,0,0-3-3H172.5a3,3,0,0,0,0,5.91h0.23A3,3,0,0,0,175.68,306Z" transform="translate(0 0)"/><path class="c" d="M166.37,306a3,3,0,0,0-3-3h-0.23a3,3,0,0,0,0,5.91h0.23A3,3,0,0,0,166.37,306Z" transform="translate(0 0)"/><path class="c" d="M157.07,306a3,3,0,0,0-3-3h-0.23a3,3,0,0,0,0,5.91h0.23A3,3,0,0,0,157.07,306Z" transform="translate(0 0)"/><path class="c" d="M147.76,306a3,3,0,0,0-3-3h-0.23a3,3,0,0,0,0,5.91h0.23A3,3,0,0,0,147.76,306Z" transform="translate(0 0)"/><path class="c" d="M138.45,306a3,3,0,0,0-3-3h-0.23a3,3,0,0,0,0,5.91h0.23A3,3,0,0,0,138.45,306Z" transform="translate(0 0)"/><path class="c" d="M129.14,306a3,3,0,0,0-3-3H126a3,3,0,0,0,0,5.91h0.23A3,3,0,0,0,129.14,306Z" transform="translate(0 0)"/><path class="c" d="M119.83,306a3,3,0,0,0-3-3h-0.23a3,3,0,0,0,0,5.91h0.23A3,3,0,0,0,119.83,306Z" transform="translate(0 0)"/><path class="c" d="M110.52,306a3,3,0,0,0-3-3h-0.23a3,3,0,0,0,0,5.91h0.23A3,3,0,0,0,110.52,306Z" transform="translate(0 0)"/><path class="c" d="M101.21,306a3,3,0,0,0-3-3H98A3,3,0,0,0,98,309h0.23A3,3,0,0,0,101.21,306Z" transform="translate(0 0)"/><path class="c" d="M91.91,306a3,3,0,0,0-3-3H88.73a3,3,0,0,0,0,5.91H89A3,3,0,0,0,91.91,306Z" transform="translate(0 0)"/><path class="c" d="M82.6,306a3,3,0,0,0-3-3H79.42a3,3,0,0,0,0,5.91h0.23A3,3,0,0,0,82.6,306Z" transform="translate(0 0)"/><path class="c" d="M194.3,315a3,3,0,0,0-3-3h-0.23a3,3,0,0,0,0,5.9h0.23A3,3,0,0,0,194.3,315Z" transform="translate(0 0)"/><path class="c" d="M185,315a3,3,0,0,0-3-3h-0.23a3,3,0,1,0,0,5.9H182A3,3,0,0,0,185,315Z" transform="translate(0 0)"/><path class="c" d="M175.68,315a3,3,0,0,0-3-3H172.5a3,3,0,0,0,0,5.9h0.23A3,3,0,0,0,175.68,315Z" transform="translate(0 0)"/><path class="c" d="M166.37,315a3,3,0,0,0-3-3h-0.23a3,3,0,0,0,0,5.9h0.23A3,3,0,0,0,166.37,315Z" transform="translate(0 0)"/><path class="c" d="M157.07,315a3,3,0,0,0-3-3h-0.23a3,3,0,0,0,0,5.9h0.23A3,3,0,0,0,157.07,315Z" transform="translate(0 0)"/><path class="c" d="M147.76,315a3,3,0,0,0-3-3h-0.23a3,3,0,1,0,0,5.9h0.23A3,3,0,0,0,147.76,315Z" transform="translate(0 0)"/><path class="c" d="M138.45,315a3,3,0,0,0-3-3h-0.23a3,3,0,0,0,0,5.9h0.23A3,3,0,0,0,138.45,315Z" transform="translate(0 0)"/><path class="c" d="M129.14,315a3,3,0,0,0-3-3H126a3,3,0,0,0,0,5.9h0.23A3,3,0,0,0,129.14,315Z" transform="translate(0 0)"/><path class="c" d="M119.83,315a3,3,0,0,0-3-3h-0.23a3,3,0,1,0,0,5.9h0.23A3,3,0,0,0,119.83,315Z" transform="translate(0 0)"/><path class="c" d="M110.52,315a3,3,0,0,0-3-3h-0.23a3,3,0,0,0,0,5.9h0.23A3,3,0,0,0,110.52,315Z" transform="translate(0 0)"/><path class="c" d="M101.21,315a3,3,0,0,0-3-3H98a3,3,0,0,0,0,5.9h0.23A3,3,0,0,0,101.21,315Z" transform="translate(0 0)"/><path class="c" d="M91.91,315a3,3,0,0,0-3-3H88.73a3,3,0,0,0,0,5.9H89A3,3,0,0,0,91.91,315Z" transform="translate(0 0)"/><path class="c" d="M82.6,315a3,3,0,0,0-3-3H79.42a3,3,0,1,0,0,5.9h0.23A3,3,0,0,0,82.6,315Z" transform="translate(0 0)"/><path class="c" d="M194.3,324a3,3,0,0,0-3-3h-0.23a3,3,0,0,0,0,5.9h0.23A3,3,0,0,0,194.3,324Z" transform="translate(0 0)"/><path class="c" d="M185,324a3,3,0,0,0-3-3h-0.23a3,3,0,1,0,0,5.9H182A3,3,0,0,0,185,324Z" transform="translate(0 0)"/><path class="c" d="M175.68,324a3,3,0,0,0-3-3H172.5a3,3,0,1,0,0,5.9h0.23A3,3,0,0,0,175.68,324Z" transform="translate(0 0)"/><path class="c" d="M166.37,324a3,3,0,0,0-3-3h-0.23a3,3,0,1,0,0,5.9h0.23A3,3,0,0,0,166.37,324Z" transform="translate(0 0)"/><path class="c" d="M157.07,324a3,3,0,0,0-3-3h-0.23a3,3,0,0,0,0,5.9h0.23A3,3,0,0,0,157.07,324Z" transform="translate(0 0)"/><path class="c" d="M147.76,324a3,3,0,0,0-3-3h-0.23a3,3,0,1,0,0,5.9h0.23A3,3,0,0,0,147.76,324Z" transform="translate(0 0)"/><path class="c" d="M138.45,324a3,3,0,0,0-3-3h-0.23a3,3,0,1,0,0,5.9h0.23A3,3,0,0,0,138.45,324Z" transform="translate(0 0)"/><path class="c" d="M129.14,324a3,3,0,0,0-3-3H126a3,3,0,0,0,0,5.9h0.23A3,3,0,0,0,129.14,324Z" transform="translate(0 0)"/><path class="c" d="M119.83,324a3,3,0,0,0-3-3h-0.23a3,3,0,1,0,0,5.9h0.23A3,3,0,0,0,119.83,324Z" transform="translate(0 0)"/><path class="c" d="M110.52,324a3,3,0,0,0-3-3h-0.23a3,3,0,1,0,0,5.9h0.23A3,3,0,0,0,110.52,324Z" transform="translate(0 0)"/><path class="c" d="M101.21,324a3,3,0,0,0-3-3H98a3,3,0,1,0,0,5.9h0.23A3,3,0,0,0,101.21,324Z" transform="translate(0 0)"/><path class="c" d="M91.91,324a3,3,0,0,0-3-3H88.73a3,3,0,1,0,0,5.9H89A3,3,0,0,0,91.91,324Z" transform="translate(0 0)"/><path class="c" d="M82.6,324a3,3,0,0,0-3-3H79.42a3,3,0,1,0,0,5.9h0.23A3,3,0,0,0,82.6,324Z" transform="translate(0 0)"/><path class="c" d="M194.3,332.92a3,3,0,0,0-3-3h-0.23a3,3,0,0,0,0,5.91h0.23A3,3,0,0,0,194.3,332.92Z" transform="translate(0 0)"/><path class="c" d="M185,332.92a3,3,0,0,0-3-3h-0.23a3,3,0,0,0,0,5.91H182A3,3,0,0,0,185,332.92Z" transform="translate(0 0)"/><path class="c" d="M175.68,332.92a3,3,0,0,0-3-3H172.5a3,3,0,0,0,0,5.91h0.23A3,3,0,0,0,175.68,332.92Z" transform="translate(0 0)"/><path class="c" d="M166.37,332.92a3,3,0,0,0-3-3h-0.23a3,3,0,0,0,0,5.91h0.23A3,3,0,0,0,166.37,332.92Z" transform="translate(0 0)"/><path class="c" d="M157.07,332.92a3,3,0,0,0-3-3h-0.23a3,3,0,0,0,0,5.91h0.23A3,3,0,0,0,157.07,332.92Z" transform="translate(0 0)"/><path class="c" d="M147.76,332.92a3,3,0,0,0-3-3h-0.23a3,3,0,0,0,0,5.91h0.23A3,3,0,0,0,147.76,332.92Z" transform="translate(0 0)"/><path class="c" d="M138.45,332.92a3,3,0,0,0-3-3h-0.23a3,3,0,0,0,0,5.91h0.23A3,3,0,0,0,138.45,332.92Z" transform="translate(0 0)"/><path class="c" d="M129.14,332.92a3,3,0,0,0-3-3H126a3,3,0,0,0,0,5.91h0.23A3,3,0,0,0,129.14,332.92Z" transform="translate(0 0)"/><path class="c" d="M119.83,332.92a3,3,0,0,0-3-3h-0.23a3,3,0,0,0,0,5.91h0.23A3,3,0,0,0,119.83,332.92Z" transform="translate(0 0)"/><path class="c" d="M110.52,332.92a3,3,0,0,0-3-3h-0.23a3,3,0,0,0,0,5.91h0.23A3,3,0,0,0,110.52,332.92Z" transform="translate(0 0)"/><path class="c" d="M101.21,332.92a3,3,0,0,0-3-3H98a3,3,0,0,0,0,5.91h0.23A3,3,0,0,0,101.21,332.92Z" transform="translate(0 0)"/><path class="c" d="M91.91,332.92a3,3,0,0,0-3-3H88.73a3,3,0,0,0,0,5.91H89A3,3,0,0,0,91.91,332.92Z" transform="translate(0 0)"/><path class="c" d="M82.6,332.92a3,3,0,0,0-3-3H79.42a3,3,0,0,0,0,5.91h0.23A3,3,0,0,0,82.6,332.92Z" transform="translate(0 0)"/><path class="c" d="M194.3,341.89a3,3,0,0,0-3-3h-0.23a3,3,0,0,0,0,5.9h0.23A3,3,0,0,0,194.3,341.89Z" transform="translate(0 0)"/><path class="c" d="M185,341.89a3,3,0,0,0-3-3h-0.23a3,3,0,0,0,0,5.9H182A3,3,0,0,0,185,341.89Z" transform="translate(0 0)"/><path class="c" d="M175.68,341.89a3,3,0,0,0-3-3h-0.23a3,3,0,1,0,0,5.9h0.23A3,3,0,0,0,175.68,341.89Z" transform="translate(0 0)"/><path class="c" d="M166.38,341.89a3,3,0,0,0-3-3H163.2a3,3,0,1,0,0,5.9h0.23A3,3,0,0,0,166.38,341.89Z" transform="translate(0 0)"/><path class="c" d="M157.07,341.89a3,3,0,0,0-3-3h-0.23a3,3,0,0,0,0,5.9h0.23A3,3,0,0,0,157.07,341.89Z" transform="translate(0 0)"/><path class="c" d="M147.76,341.89a3,3,0,0,0-3-3h-0.23a3,3,0,1,0,0,5.9h0.23A3,3,0,0,0,147.76,341.89Z" transform="translate(0 0)"/><path class="c" d="M138.45,341.89a3,3,0,0,0-3-3h-0.23a3,3,0,1,0,0,5.9h0.23A3,3,0,0,0,138.45,341.89Z" transform="translate(0 0)"/><path class="c" d="M129.14,341.89a3,3,0,0,0-3-3H126a3,3,0,1,0,0,5.9h0.23A3,3,0,0,0,129.14,341.89Z" transform="translate(0 0)"/><path class="c" d="M119.83,341.89a3,3,0,0,0-3-3h-0.23a3,3,0,1,0,0,5.9h0.23A3,3,0,0,0,119.83,341.89Z" transform="translate(0 0)"/><path class="c" d="M110.53,341.89a3,3,0,0,0-3-3h-0.23a3,3,0,1,0,0,5.9h0.23A3,3,0,0,0,110.53,341.89Z" transform="translate(0 0)"/><path class="c" d="M101.22,341.89a3,3,0,0,0-3-3H98a3,3,0,1,0,0,5.9h0.23A3,3,0,0,0,101.22,341.89Z" transform="translate(0 0)"/><path class="c" d="M91.91,341.89a3,3,0,0,0-3-3H88.73a3,3,0,1,0,0,5.9H89A3,3,0,0,0,91.91,341.89Z" transform="translate(0 0)"/><path class="c" d="M82.6,341.89a3,3,0,0,0-3-3H79.42a3,3,0,1,0,0,5.9h0.23A3,3,0,0,0,82.6,341.89Z" transform="translate(0 0)"/><path class="c" d="M194.3,350.87a3,3,0,0,0-3-3h-0.22a3,3,0,0,0,0,5.91h0.22A3,3,0,0,0,194.3,350.87Z" transform="translate(0 0)"/><path class="c" d="M185,350.87a3,3,0,0,0-3-3h-0.23a3,3,0,0,0,0,5.91H182A3,3,0,0,0,185,350.87Z" transform="translate(0 0)"/><path class="c" d="M175.68,350.87a3,3,0,0,0-3-3H172.5a3,3,0,0,0,0,5.91h0.23A3,3,0,0,0,175.68,350.87Z" transform="translate(0 0)"/><path class="c" d="M166.37,350.87a3,3,0,0,0-3-3h-0.23a3,3,0,0,0,0,5.91h0.23A3,3,0,0,0,166.37,350.87Z" transform="translate(0 0)"/><path class="c" d="M157.07,350.87a3,3,0,0,0-3-3h-0.23a3,3,0,0,0,0,5.91h0.23A3,3,0,0,0,157.07,350.87Z" transform="translate(0 0)"/><path class="c" d="M147.76,350.87a3,3,0,0,0-2.95-3h-0.23a3,3,0,0,0,0,5.91h0.23A3,3,0,0,0,147.76,350.87Z" transform="translate(0 0)"/><path class="c" d="M138.45,350.87a3,3,0,0,0-3-3h-0.23a3,3,0,0,0,0,5.91h0.23A3,3,0,0,0,138.45,350.87Z" transform="translate(0 0)"/><path class="c" d="M129.14,350.87a3,3,0,0,0-2.95-3H126a3,3,0,0,0,0,5.91h0.23A3,3,0,0,0,129.14,350.87Z" transform="translate(0 0)"/><path class="c" d="M119.83,350.87a3,3,0,0,0-3-3h-0.23a3,3,0,0,0,0,5.91h0.23A3,3,0,0,0,119.83,350.87Z" transform="translate(0 0)"/><path class="c" d="M110.52,350.87a3,3,0,0,0-3-3h-0.22a3,3,0,0,0,0,5.91h0.22A3,3,0,0,0,110.52,350.87Z" transform="translate(0 0)"/><path class="c" d="M101.21,350.87a3,3,0,0,0-3-3H98a3,3,0,0,0,0,5.91h0.23A3,3,0,0,0,101.21,350.87Z" transform="translate(0 0)"/><path class="c" d="M91.91,350.87a3,3,0,0,0-3-3H88.73a3,3,0,0,0,0,5.91H89A3,3,0,0,0,91.91,350.87Z" transform="translate(0 0)"/><path class="c" d="M82.6,350.87a3,3,0,0,0-3-3H79.42a3,3,0,0,0,0,5.91h0.23A3,3,0,0,0,82.6,350.87Z" transform="translate(0 0)"/><path class="c" d="M194.3,359.83a3,3,0,0,0-3-2.95h-0.23a3,3,0,0,0,0,5.91h0.23A3,3,0,0,0,194.3,359.83Z" transform="translate(0 0)"/><path class="c" d="M185,359.83a3,3,0,0,0-3-2.95h-0.23a3,3,0,0,0,0,5.91H182A3,3,0,0,0,185,359.83Z" transform="translate(0 0)"/><path class="c" d="M175.68,359.83a3,3,0,0,0-3-2.95h-0.23a3,3,0,1,0,0,5.91h0.23A3,3,0,0,0,175.68,359.83Z" transform="translate(0 0)"/><path class="c" d="M166.38,359.83a3,3,0,0,0-3-2.95H163.2a3,3,0,0,0,0,5.91h0.23A3,3,0,0,0,166.38,359.83Z" transform="translate(0 0)"/><path class="c" d="M157.07,359.83a3,3,0,0,0-3-2.95h-0.23a3,3,0,0,0,0,5.91h0.23A3,3,0,0,0,157.07,359.83Z" transform="translate(0 0)"/><path class="c" d="M147.76,359.83a3,3,0,0,0-3-2.95h-0.23a3,3,0,0,0,0,5.91h0.23A3,3,0,0,0,147.76,359.83Z" transform="translate(0 0)"/><path class="c" d="M138.45,359.83a3,3,0,0,0-3-2.95h-0.23a3,3,0,0,0,0,5.91h0.23A3,3,0,0,0,138.45,359.83Z" transform="translate(0 0)"/><path class="c" d="M129.14,359.83a3,3,0,0,0-3-2.95H126a3,3,0,0,0,0,5.91h0.23A3,3,0,0,0,129.14,359.83Z" transform="translate(0 0)"/><path class="c" d="M119.83,359.83a3,3,0,0,0-3-2.95h-0.23a3,3,0,0,0,0,5.91h0.23A3,3,0,0,0,119.83,359.83Z" transform="translate(0 0)"/><path class="c" d="M110.53,359.83a3,3,0,0,0-3-2.95h-0.23a3,3,0,0,0,0,5.91h0.23A3,3,0,0,0,110.53,359.83Z" transform="translate(0 0)"/><path class="c" d="M101.22,359.83a3,3,0,0,0-3-2.95H98a3,3,0,0,0,0,5.91h0.23A3,3,0,0,0,101.22,359.83Z" transform="translate(0 0)"/><path class="c" d="M91.91,359.83a3,3,0,0,0-3-2.95H88.73a3,3,0,0,0,0,5.91H89A3,3,0,0,0,91.91,359.83Z" transform="translate(0 0)"/><path class="c" d="M82.6,359.83a3,3,0,0,0-3-2.95H79.42a3,3,0,0,0,0,5.91h0.23A3,3,0,0,0,82.6,359.83Z" transform="translate(0 0)"/><path class="c" d="M194.3,368.81a3,3,0,0,0-3-3h-0.23a3,3,0,0,0,0,5.9h0.23A3,3,0,0,0,194.3,368.81Z" transform="translate(0 0)"/><path class="c" d="M185,368.81a3,3,0,0,0-3-3h-0.23a3,3,0,0,0,0,5.9H182A3,3,0,0,0,185,368.81Z" transform="translate(0 0)"/><path class="c" d="M175.68,368.81a3,3,0,0,0-3-3H172.5a3,3,0,0,0,0,5.9h0.23A3,3,0,0,0,175.68,368.81Z" transform="translate(0 0)"/><path class="c" d="M166.37,368.81a3,3,0,0,0-3-3h-0.23a3,3,0,0,0,0,5.9h0.23A3,3,0,0,0,166.37,368.81Z" transform="translate(0 0)"/><path class="c" d="M157.07,368.81a3,3,0,0,0-3-3h-0.23a3,3,0,0,0,0,5.9h0.23A3,3,0,0,0,157.07,368.81Z" transform="translate(0 0)"/><path class="c" d="M147.76,368.81a3,3,0,0,0-2.95-3h-0.23a3,3,0,1,0,0,5.9h0.23A3,3,0,0,0,147.76,368.81Z" transform="translate(0 0)"/><path class="c" d="M138.45,368.81a3,3,0,0,0-3-3h-0.23a3,3,0,1,0,0,5.9h0.23A3,3,0,0,0,138.45,368.81Z" transform="translate(0 0)"/><path class="c" d="M129.14,368.81a3,3,0,0,0-2.95-3H126a3,3,0,0,0,0,5.9h0.23A3,3,0,0,0,129.14,368.81Z" transform="translate(0 0)"/><path class="c" d="M119.83,368.81a3,3,0,0,0-3-3h-0.23a3,3,0,1,0,0,5.9h0.23A3,3,0,0,0,119.83,368.81Z" transform="translate(0 0)"/><path class="c" d="M110.52,368.81a3,3,0,0,0-3-3h-0.22a3,3,0,1,0,0,5.9h0.22A3,3,0,0,0,110.52,368.81Z" transform="translate(0 0)"/><path class="c" d="M101.21,368.81a3,3,0,0,0-3-3H98a3,3,0,1,0,0,5.9h0.23A3,3,0,0,0,101.21,368.81Z" transform="translate(0 0)"/><path class="c" d="M91.91,368.81a3,3,0,0,0-3-3H88.73a3,3,0,0,0,0,5.9H89A3,3,0,0,0,91.91,368.81Z" transform="translate(0 0)"/><path class="c" d="M82.6,368.81a3,3,0,0,0-3-3H79.42a3,3,0,0,0,0,5.9h0.23A3,3,0,0,0,82.6,368.81Z" transform="translate(0 0)"/><path class="c" d="M194.3,377.78a3,3,0,0,0-3-3h-0.23a3,3,0,0,0,0,5.9h0.23A3,3,0,0,0,194.3,377.78Z" transform="translate(0 0)"/><path class="c" d="M185,377.78a3,3,0,0,0-3-3h-0.23a3,3,0,1,0,0,5.9H182A3,3,0,0,0,185,377.78Z" transform="translate(0 0)"/><path class="c" d="M175.68,377.78a3,3,0,0,0-3-3H172.5a3,3,0,1,0,0,5.9h0.23A3,3,0,0,0,175.68,377.78Z" transform="translate(0 0)"/><path class="c" d="M166.37,377.78a3,3,0,0,0-3-3h-0.23a3,3,0,0,0,0,5.9h0.23A3,3,0,0,0,166.37,377.78Z" transform="translate(0 0)"/><path class="c" d="M157.07,377.78a3,3,0,0,0-3-3h-0.23a3,3,0,0,0,0,5.9h0.23A3,3,0,0,0,157.07,377.78Z" transform="translate(0 0)"/><path class="c" d="M147.76,377.78a3,3,0,0,0-3-3h-0.23a3,3,0,1,0,0,5.9h0.23A3,3,0,0,0,147.76,377.78Z" transform="translate(0 0)"/><path class="c" d="M138.45,377.78a3,3,0,0,0-3-3h-0.23a3,3,0,0,0,0,5.9h0.23A3,3,0,0,0,138.45,377.78Z" transform="translate(0 0)"/><path class="c" d="M129.14,377.78a3,3,0,0,0-3-3H126a3,3,0,0,0,0,5.9h0.23A3,3,0,0,0,129.14,377.78Z" transform="translate(0 0)"/><path class="c" d="M119.83,377.78a3,3,0,0,0-3-3h-0.23a3,3,0,1,0,0,5.9h0.23A3,3,0,0,0,119.83,377.78Z" transform="translate(0 0)"/><path class="c" d="M110.52,377.78a3,3,0,0,0-3-3h-0.23a3,3,0,1,0,0,5.9h0.23A3,3,0,0,0,110.52,377.78Z" transform="translate(0 0)"/><path class="c" d="M101.21,377.78a3,3,0,0,0-3-3H98a3,3,0,0,0,0,5.9h0.23A3,3,0,0,0,101.21,377.78Z" transform="translate(0 0)"/><path class="c" d="M91.91,377.78a3,3,0,0,0-3-3H88.73a3,3,0,1,0,0,5.9H89A3,3,0,0,0,91.91,377.78Z" transform="translate(0 0)"/><path class="c" d="M82.6,377.78a3,3,0,0,0-3-3H79.42a3,3,0,1,0,0,5.9h0.23A3,3,0,0,0,82.6,377.78Z" transform="translate(0 0)"/><path class="c" d="M194.3,386.74a3,3,0,0,0-3-3h-0.23a2.95,2.95,0,1,0,0,5.9h0.23A3,3,0,0,0,194.3,386.74Z" transform="translate(0 0)"/><path class="c" d="M185,386.74a3,3,0,0,0-3-3h-0.23a2.95,2.95,0,1,0,0,5.9H182A3,3,0,0,0,185,386.74Z" transform="translate(0 0)"/><path class="c" d="M175.68,386.74a3,3,0,0,0-3-3h-0.23a2.95,2.95,0,1,0,0,5.9h0.23A3,3,0,0,0,175.68,386.74Z" transform="translate(0 0)"/><path class="c" d="M166.38,386.74a3,3,0,0,0-3-3H163.2a2.95,2.95,0,1,0,0,5.9h0.23A3,3,0,0,0,166.38,386.74Z" transform="translate(0 0)"/><path class="c" d="M157.07,386.74a3,3,0,0,0-3-3h-0.23a2.95,2.95,0,1,0,0,5.9h0.23A3,3,0,0,0,157.07,386.74Z" transform="translate(0 0)"/><path class="c" d="M147.76,386.74a3,3,0,0,0-3-3h-0.23a2.95,2.95,0,1,0,0,5.9h0.23A3,3,0,0,0,147.76,386.74Z" transform="translate(0 0)"/><path class="c" d="M129.14,386.74a3,3,0,0,0-3-3H126a2.95,2.95,0,1,0,0,5.9h0.23A3,3,0,0,0,129.14,386.74Z" transform="translate(0 0)"/><path class="c" d="M119.83,386.74a3,3,0,0,0-3-3h-0.23a2.95,2.95,0,1,0,0,5.9h0.23A3,3,0,0,0,119.83,386.74Z" transform="translate(0 0)"/><path class="c" d="M110.53,386.74a3,3,0,0,0-3-3h-0.23a2.95,2.95,0,1,0,0,5.9h0.23A3,3,0,0,0,110.53,386.74Z" transform="translate(0 0)"/><path class="c" d="M101.22,386.74a3,3,0,0,0-3-3H98a2.95,2.95,0,1,0,0,5.9h0.23A3,3,0,0,0,101.22,386.74Z" transform="translate(0 0)"/><path class="c" d="M91.91,386.74a3,3,0,0,0-3-3H88.73a2.95,2.95,0,1,0,0,5.9H89A3,3,0,0,0,91.91,386.74Z" transform="translate(0 0)"/><path class="c" d="M82.6,386.74a3,3,0,0,0-3-3H79.42a2.95,2.95,0,1,0,0,5.9h0.23A3,3,0,0,0,82.6,386.74Z" transform="translate(0 0)"/><path class="c" d="M194.3,395.72a3,3,0,0,0-3-3h-0.23a3,3,0,0,0,0,5.9h0.23A3,3,0,0,0,194.3,395.72Z" transform="translate(0 0)"/><path class="c" d="M185,395.72a3,3,0,0,0-3-3h-0.23a3,3,0,0,0,0,5.9H182A3,3,0,0,0,185,395.72Z" transform="translate(0 0)"/><path class="c" d="M166.37,395.72a3,3,0,0,0-3-3h-0.23a3,3,0,0,0,0,5.9h0.23A3,3,0,0,0,166.37,395.72Z" transform="translate(0 0)"/><path class="c" d="M157.07,395.72a3,3,0,0,0-3-3h-0.23a3,3,0,0,0,0,5.9h0.23A3,3,0,0,0,157.07,395.72Z" transform="translate(0 0)"/><path class="c" d="M147.76,395.72a3,3,0,0,0-2.95-3h-0.23a3,3,0,1,0,0,5.9h0.23A3,3,0,0,0,147.76,395.72Z" transform="translate(0 0)"/><path class="c" d="M129.14,395.72a3,3,0,0,0-2.95-3H126a3,3,0,0,0,0,5.9h0.23A3,3,0,0,0,129.14,395.72Z" transform="translate(0 0)"/><path class="c" d="M119.83,395.72a3,3,0,0,0-3-3h-0.23a3,3,0,0,0,0,5.9h0.23A3,3,0,0,0,119.83,395.72Z" transform="translate(0 0)"/><path class="c" d="M110.52,395.72a3,3,0,0,0-3-3h-0.22a3,3,0,1,0,0,5.9h0.22A3,3,0,0,0,110.52,395.72Z" transform="translate(0 0)"/><path class="c" d="M91.91,395.72a3,3,0,0,0-3-3H88.73a3,3,0,0,0,0,5.9H89A3,3,0,0,0,91.91,395.72Z" transform="translate(0 0)"/><path class="c" d="M82.6,395.72a3,3,0,0,0-3-3H79.42a3,3,0,0,0,0,5.9h0.23A3,3,0,0,0,82.6,395.72Z" transform="translate(0 0)"/><path class="c" d="M166.37,404.69a3,3,0,0,0-3-3h-0.23a3,3,0,0,0,0,5.91h0.23A3,3,0,0,0,166.37,404.69Z" transform="translate(0 0)"/><path class="c" d="M157.07,404.69a3,3,0,0,0-3-3h-0.23a3,3,0,0,0,0,5.91h0.23A3,3,0,0,0,157.07,404.69Z" transform="translate(0 0)"/><path class="c" d="M147.76,404.69a3,3,0,0,0-3-3h-0.23a3,3,0,0,0,0,5.91h0.23A3,3,0,0,0,147.76,404.69Z" transform="translate(0 0)"/><path class="c" d="M129.14,404.69a3,3,0,0,0-3-3H126a3,3,0,0,0,0,5.91h0.23A3,3,0,0,0,129.14,404.69Z" transform="translate(0 0)"/><path class="c" d="M119.83,404.69a3,3,0,0,0-3-3h-0.23a3,3,0,0,0,0,5.91h0.23A3,3,0,0,0,119.83,404.69Z" transform="translate(0 0)"/><path class="c" d="M110.52,404.69a3,3,0,0,0-3-3h-0.23a3,3,0,0,0,0,5.91h0.23A3,3,0,0,0,110.52,404.69Z" transform="translate(0 0)"/><path class="c" d="M166.38,413.66a3,3,0,0,0-3-3H163.2a2.95,2.95,0,1,0,0,5.9h0.23A3,3,0,0,0,166.38,413.66Z" transform="translate(0 0)"/><path class="c" d="M157.07,413.66a3,3,0,0,0-3-3h-0.23a2.95,2.95,0,1,0,0,5.9h0.23A3,3,0,0,0,157.07,413.66Z" transform="translate(0 0)"/><path class="c" d="M147.76,413.66a3,3,0,0,0-3-3h-0.23a2.95,2.95,0,1,0,0,5.9h0.23A3,3,0,0,0,147.76,413.66Z" transform="translate(0 0)"/><path class="c" d="M129.14,413.66a3,3,0,0,0-3-3H126a2.95,2.95,0,1,0,0,5.9h0.23A3,3,0,0,0,129.14,413.66Z" transform="translate(0 0)"/><path class="c" d="M119.83,413.66a3,3,0,0,0-3-3h-0.23a2.95,2.95,0,1,0,0,5.9h0.23A3,3,0,0,0,119.83,413.66Z" transform="translate(0 0)"/><path class="c" d="M110.53,413.66a3,3,0,0,0-3-3h-0.23a2.95,2.95,0,1,0,0,5.9h0.23A3,3,0,0,0,110.53,413.66Z" transform="translate(0 0)"/><path class="c" d="M166.37,422.63a3,3,0,0,0-3-3h-0.23a3,3,0,1,0,0,5.9h0.23A3,3,0,0,0,166.37,422.63Z" transform="translate(0 0)"/><path class="c" d="M157.07,422.63a3,3,0,0,0-3-3h-0.23a3,3,0,0,0,0,5.9h0.23A3,3,0,0,0,157.07,422.63Z" transform="translate(0 0)"/><path class="c" d="M147.76,422.63a3,3,0,0,0-2.95-3h-0.23a3,3,0,1,0,0,5.9h0.23A3,3,0,0,0,147.76,422.63Z" transform="translate(0 0)"/><path class="c" d="M129.14,422.63a3,3,0,0,0-2.95-3H126a3,3,0,0,0,0,5.9h0.23A3,3,0,0,0,129.14,422.63Z" transform="translate(0 0)"/><path class="c" d="M119.83,422.63a3,3,0,0,0-3-3h-0.23a3,3,0,1,0,0,5.9h0.23A3,3,0,0,0,119.83,422.63Z" transform="translate(0 0)"/><path class="c" d="M110.52,422.63a3,3,0,0,0-3-3h-0.22a3,3,0,1,0,0,5.9h0.22A3,3,0,0,0,110.52,422.63Z" transform="translate(0 0)"/><path class="c" d="M166.37,431.59a3,3,0,0,0-3-2.95h-0.23a3,3,0,0,0,0,5.91h0.23A3,3,0,0,0,166.37,431.59Z" transform="translate(0 0)"/><path class="c" d="M157.07,431.59a3,3,0,0,0-3-2.95h-0.23a3,3,0,0,0,0,5.91h0.23A3,3,0,0,0,157.07,431.59Z" transform="translate(0 0)"/><path class="c" d="M147.76,431.59a3,3,0,0,0-3-2.95h-0.23a3,3,0,0,0,0,5.91h0.23A3,3,0,0,0,147.76,431.59Z" transform="translate(0 0)"/><path class="c" d="M129.14,431.59a3,3,0,0,0-3-2.95H126a3,3,0,0,0,0,5.91h0.23A3,3,0,0,0,129.14,431.59Z" transform="translate(0 0)"/><path class="c" d="M119.83,431.59a3,3,0,0,0-3-2.95h-0.23a3,3,0,0,0,0,5.91h0.23A3,3,0,0,0,119.83,431.59Z" transform="translate(0 0)"/><path class="c" d="M110.52,431.59a3,3,0,0,0-3-2.95h-0.23a3,3,0,0,0,0,5.91h0.23A3,3,0,0,0,110.52,431.59Z" transform="translate(0 0)"/><path class="c" d="M166.38,440.57a3,3,0,0,0-3-2.95H163.2a3,3,0,1,0,0,5.9h0.23A3,3,0,0,0,166.38,440.57Z" transform="translate(0 0)"/><path class="c" d="M157.07,440.57a3,3,0,0,0-3-2.95h-0.23a3,3,0,0,0,0,5.9h0.23A3,3,0,0,0,157.07,440.57Z" transform="translate(0 0)"/><path class="c" d="M147.76,440.57a3,3,0,0,0-3-2.95h-0.23a3,3,0,1,0,0,5.9h0.23A3,3,0,0,0,147.76,440.57Z" transform="translate(0 0)"/><path class="c" d="M129.14,440.57a3,3,0,0,0-3-2.95H126a3,3,0,1,0,0,5.9h0.23A3,3,0,0,0,129.14,440.57Z" transform="translate(0 0)"/><path class="c" d="M119.83,440.57a3,3,0,0,0-3-2.95h-0.23a3,3,0,1,0,0,5.9h0.23A3,3,0,0,0,119.83,440.57Z" transform="translate(0 0)"/><path class="c" d="M110.53,440.57a3,3,0,0,0-3-2.95h-0.23a3,3,0,1,0,0,5.9h0.23A3,3,0,0,0,110.53,440.57Z" transform="translate(0 0)"/><path class="c" d="M166.37,449.54a3,3,0,0,0-3-3h-0.23a3,3,0,1,0,0,5.9h0.23A3,3,0,0,0,166.37,449.54Z" transform="translate(0 0)"/><path class="c" d="M157.07,449.54a3,3,0,0,0-3-3h-0.23a3,3,0,0,0,0,5.9h0.23A3,3,0,0,0,157.07,449.54Z" transform="translate(0 0)"/><path class="c" d="M147.76,449.54a3,3,0,0,0-3-3h-0.23a3,3,0,1,0,0,5.9h0.23A3,3,0,0,0,147.76,449.54Z" transform="translate(0 0)"/><path class="c" d="M129.14,449.54a3,3,0,0,0-3-3H126a3,3,0,0,0,0,5.9h0.23A3,3,0,0,0,129.14,449.54Z" transform="translate(0 0)"/><path class="c" d="M119.83,449.54a3,3,0,0,0-3-3h-0.23a3,3,0,1,0,0,5.9h0.23A3,3,0,0,0,119.83,449.54Z" transform="translate(0 0)"/><path class="c" d="M110.52,449.54a3,3,0,0,0-3-3h-0.23a3,3,0,1,0,0,5.9h0.23A3,3,0,0,0,110.52,449.54Z" transform="translate(0 0)"/><path class="c" d="M166.37,458.5a3,3,0,0,0-3-2.95h-0.23a3,3,0,0,0,0,5.91h0.23A3,3,0,0,0,166.37,458.5Z" transform="translate(0 0)"/><path class="c" d="M157.07,458.5a3,3,0,0,0-3-2.95h-0.23a3,3,0,0,0,0,5.91h0.23A3,3,0,0,0,157.07,458.5Z" transform="translate(0 0)"/><path class="c" d="M147.76,458.5a3,3,0,0,0-3-2.95h-0.23a3,3,0,0,0,0,5.91h0.23A3,3,0,0,0,147.76,458.5Z" transform="translate(0 0)"/><path class="c" d="M129.14,458.5a3,3,0,0,0-3-2.95H126a3,3,0,0,0,0,5.91h0.23A3,3,0,0,0,129.14,458.5Z" transform="translate(0 0)"/><path class="c" d="M119.83,458.5a3,3,0,0,0-3-2.95h-0.23a3,3,0,0,0,0,5.91h0.23A3,3,0,0,0,119.83,458.5Z" transform="translate(0 0)"/><path class="c" d="M110.52,458.5a3,3,0,0,0-3-2.95h-0.23a3,3,0,0,0,0,5.91h0.23A3,3,0,0,0,110.52,458.5Z" transform="translate(0 0)"/><path class="c" d="M166.37,467.48a3,3,0,0,0-3-3h-0.23a3,3,0,0,0,0,5.9h0.23A3,3,0,0,0,166.37,467.48Z" transform="translate(0 0)"/><path class="c" d="M157.07,467.48a3,3,0,0,0-3-3h-0.23a3,3,0,0,0,0,5.9h0.23A3,3,0,0,0,157.07,467.48Z" transform="translate(0 0)"/><path class="c" d="M147.76,467.48a3,3,0,0,0-3-3h-0.23a3,3,0,1,0,0,5.9h0.23A3,3,0,0,0,147.76,467.48Z" transform="translate(0 0)"/><path class="c" d="M129.14,467.48a3,3,0,0,0-3-3H126a3,3,0,0,0,0,5.9h0.23A3,3,0,0,0,129.14,467.48Z" transform="translate(0 0)"/><path class="c" d="M119.83,467.48a3,3,0,0,0-3-3h-0.23a3,3,0,1,0,0,5.9h0.23A3,3,0,0,0,119.83,467.48Z" transform="translate(0 0)"/><path class="c" d="M110.52,467.48a3,3,0,0,0-3-3h-0.23a3,3,0,0,0,0,5.9h0.23A3,3,0,0,0,110.52,467.48Z" transform="translate(0 0)"/><path class="c" d="M166.37,476.45a3,3,0,0,0-3-3h-0.23a3,3,0,1,0,0,5.9h0.23A3,3,0,0,0,166.37,476.45Z" transform="translate(0 0)"/><path class="c" d="M157.07,476.45a3,3,0,0,0-3-3h-0.23a3,3,0,0,0,0,5.9h0.23A3,3,0,0,0,157.07,476.45Z" transform="translate(0 0)"/><path class="c" d="M147.76,476.45a3,3,0,0,0-3-3h-0.23a3,3,0,1,0,0,5.9h0.23A3,3,0,0,0,147.76,476.45Z" transform="translate(0 0)"/><path class="c" d="M129.14,476.45a3,3,0,0,0-3-3H126a3,3,0,1,0,0,5.9h0.23A3,3,0,0,0,129.14,476.45Z" transform="translate(0 0)"/><path class="c" d="M119.83,476.45a3,3,0,0,0-3-3h-0.23a3,3,0,1,0,0,5.9h0.23A3,3,0,0,0,119.83,476.45Z" transform="translate(0 0)"/><path class="c" d="M110.52,476.45a3,3,0,0,0-3-3h-0.23a3,3,0,1,0,0,5.9h0.23A3,3,0,0,0,110.52,476.45Z" transform="translate(0 0)"/><path class="c" d="M166.37,485.42a3,3,0,0,0-3-3h-0.23a3,3,0,0,0,0,5.91h0.23A3,3,0,0,0,166.37,485.42Z" transform="translate(0 0)"/><path class="c" d="M157.07,485.42a3,3,0,0,0-3-3h-0.23a3,3,0,0,0,0,5.91h0.23A3,3,0,0,0,157.07,485.42Z" transform="translate(0 0)"/><path class="c" d="M147.76,485.42a3,3,0,0,0-3-3h-0.23a3,3,0,0,0,0,5.91h0.23A3,3,0,0,0,147.76,485.42Z" transform="translate(0 0)"/><path class="c" d="M129.14,485.42a3,3,0,0,0-3-3H126a3,3,0,0,0,0,5.91h0.23A3,3,0,0,0,129.14,485.42Z" transform="translate(0 0)"/><path class="c" d="M119.83,485.42a3,3,0,0,0-3-3h-0.23a3,3,0,1,0,0,5.91h0.23A3,3,0,0,0,119.83,485.42Z" transform="translate(0 0)"/><path class="c" d="M110.52,485.42a3,3,0,0,0-3-3h-0.23a3,3,0,0,0,0,5.91h0.23A3,3,0,0,0,110.52,485.42Z" transform="translate(0 0)"/><path class="c" d="M166.37,494.39a3,3,0,0,0-3-2.95h-0.23a3,3,0,1,0,0,5.9h0.23A3,3,0,0,0,166.37,494.39Z" transform="translate(0 0)"/><path class="c" d="M157.07,494.39a3,3,0,0,0-3-2.95h-0.23a3,3,0,0,0,0,5.9h0.23A3,3,0,0,0,157.07,494.39Z" transform="translate(0 0)"/><path class="c" d="M147.76,494.39a3,3,0,0,0-3-2.95h-0.23a3,3,0,1,0,0,5.9h0.23A3,3,0,0,0,147.76,494.39Z" transform="translate(0 0)"/><path class="c" d="M129.14,494.39a3,3,0,0,0-3-2.95H126a3,3,0,0,0,0,5.9h0.23A3,3,0,0,0,129.14,494.39Z" transform="translate(0 0)"/><path class="c" d="M119.83,494.39a3,3,0,0,0-3-2.95h-0.23a3,3,0,1,0,0,5.9h0.23A3,3,0,0,0,119.83,494.39Z" transform="translate(0 0)"/><path class="c" d="M110.52,494.39a3,3,0,0,0-3-2.95h-0.23a3,3,0,1,0,0,5.9h0.23A3,3,0,0,0,110.52,494.39Z" transform="translate(0 0)"/><path class="c" d="M166.37,503.36a3,3,0,0,0-3-3h-0.23a3,3,0,1,0,0,5.9h0.23A3,3,0,0,0,166.37,503.36Z" transform="translate(0 0)"/><path class="c" d="M157.07,503.36a3,3,0,0,0-3-3h-0.23a3,3,0,0,0,0,5.9h0.23A3,3,0,0,0,157.07,503.36Z" transform="translate(0 0)"/><path class="c" d="M147.76,503.36a3,3,0,0,0-3-3h-0.23a3,3,0,1,0,0,5.9h0.23A3,3,0,0,0,147.76,503.36Z" transform="translate(0 0)"/><path class="c" d="M129.14,503.36a3,3,0,0,0-3-3H126a3,3,0,0,0,0,5.9h0.23A3,3,0,0,0,129.14,503.36Z" transform="translate(0 0)"/><path class="c" d="M119.83,503.36a3,3,0,0,0-3-3h-0.23a3,3,0,1,0,0,5.9h0.23A3,3,0,0,0,119.83,503.36Z" transform="translate(0 0)"/><path class="c" d="M110.52,503.36a3,3,0,0,0-3-3h-0.23a3,3,0,1,0,0,5.9h0.23A3,3,0,0,0,110.52,503.36Z" transform="translate(0 0)"/><path class="c" d="M166.37,512.33a3,3,0,0,0-3-3h-0.23a3,3,0,1,0,0,5.9h0.23A3,3,0,0,0,166.37,512.33Z" transform="translate(0 0)"/><path class="c" d="M157.07,512.33a3,3,0,0,0-3-3h-0.23a3,3,0,0,0,0,5.9h0.23A3,3,0,0,0,157.07,512.33Z" transform="translate(0 0)"/><path class="c" d="M147.76,512.33a3,3,0,0,0-3-3h-0.23a3,3,0,1,0,0,5.9h0.23A3,3,0,0,0,147.76,512.33Z" transform="translate(0 0)"/><path class="c" d="M129.14,512.33a3,3,0,0,0-3-3H126a3,3,0,0,0,0,5.9h0.23A3,3,0,0,0,129.14,512.33Z" transform="translate(0 0)"/><path class="c" d="M119.83,512.33a3,3,0,0,0-3-3h-0.23a3,3,0,1,0,0,5.9h0.23A3,3,0,0,0,119.83,512.33Z" transform="translate(0 0)"/><path class="c" d="M110.52,512.33a3,3,0,0,0-3-3h-0.23a3,3,0,1,0,0,5.9h0.23A3,3,0,0,0,110.52,512.33Z" transform="translate(0 0)"/><path class="c" d="M166.37,521.3a3,3,0,0,0-3-2.95h-0.23a3,3,0,1,0,0,5.9h0.23A3,3,0,0,0,166.37,521.3Z" transform="translate(0 0)"/><path class="c" d="M157.07,521.3a3,3,0,0,0-3-2.95h-0.23a3,3,0,0,0,0,5.9h0.23A3,3,0,0,0,157.07,521.3Z" transform="translate(0 0)"/><path class="c" d="M147.76,521.3a3,3,0,0,0-3-2.95h-0.23a3,3,0,1,0,0,5.9h0.23A3,3,0,0,0,147.76,521.3Z" transform="translate(0 0)"/><path class="c" d="M129.14,521.3a3,3,0,0,0-3-2.95H126a3,3,0,0,0,0,5.9h0.23A3,3,0,0,0,129.14,521.3Z" transform="translate(0 0)"/><path class="c" d="M119.83,521.3a3,3,0,0,0-3-2.95h-0.23a3,3,0,1,0,0,5.9h0.23A3,3,0,0,0,119.83,521.3Z" transform="translate(0 0)"/><path class="c" d="M110.52,521.3a3,3,0,0,0-3-2.95h-0.23a3,3,0,1,0,0,5.9h0.23A3,3,0,0,0,110.52,521.3Z" transform="translate(0 0)"/></g><line class="g" x1="101.73" y1="271.77" x2="101.73" y2="356.01"/><line class="g" x1="169.06" y1="271.77" x2="169.06" y2="356.01"/><polygon class="h" points="425.2 23.57 401.63 0 212.6 189.03 23.57 0 0 23.57 189.03 212.6 0 401.63 23.57 425.2 212.6 236.18 401.63 425.2 425.2 401.63 236.18 212.6 425.2 23.57"/></svg>