<svg xmlns="http://www.w3.org/2000/svg" xmlns:xlink="http://www.w3.org/1999/xlink" width="150mm" height="184.95mm" viewBox="0 0 425.2 524.27"><defs><style>.a,.d{fill:none;}.b{fill:#fff;}.c{fill:#0286a8;}.d{stroke:#00577e;stroke-width:8px;}.d,.g{stroke-linecap:round;stroke-miterlimit:10;}.e{fill:#00577e;}.f{clip-path:url(#a);}.g{fill:#258981;stroke:#fff;stroke-width:6px;}.h{fill:#e41f18;opacity:0.75;}</style><clipPath id="a" transform="translate(0 0)"><path class="a" d="M75.14,354.32V258.24A15.86,15.86,0,0,1,91,242.38h11.1v0h66.6v0h11.1a15.86,15.86,0,0,1,15.86,15.86v96.08H171.86V274.1h0s0,0,0,0a1.58,1.58,0,1,0-3.17,0s0,0,0,0h0v80.22h-66.6V274.1h0s0,0,0,0a1.59,1.59,0,1,0-3.17,0,0.23,0.23,0,0,0,0,0h0v80.22H75.14ZM135.4,239.17a31.72,31.72,0,1,0-31.73-31.72A31.72,31.72,0,0,0,135.4,239.17Z"/></clipPath></defs><title>geen_wezenpensioen_op_risicobasis</title><rect class="b" x="49.61" y="49.61" width="325.98" height="325.98" rx="35.43" ry="35.43"/><path class="c" d="M340.16,56.69A28.38,28.38,0,0,1,368.5,85V340.16a28.38,28.38,0,0,1-28.35,28.35H85a28.38,28.38,0,0,1-28.35-28.35V85A28.38,28.38,0,0,1,85,56.69H340.16m0-14.17H85A42.64,42.64,0,0,0,42.52,85V340.16A42.64,42.64,0,0,0,85,382.68H340.16a42.64,42.64,0,0,0,42.52-42.52V85a42.64,42.64,0,0,0-42.52-42.52h0Z" transform="translate(0 0)"/><path class="d" d="M213.58,80.53V188s-0.59,12.67,10.9,13.23c13.67,0.67,12.25-14.56,12.25-14.56" transform="translate(0 0)"/><path class="e" d="M210.6,143a41.44,41.44,0,0,0-22,8.23c-6.55-9-16.3-14.64-27.19-14.64a31.09,31.09,0,0,0-10.17,1.72A62.53,62.53,0,0,1,210.6,80.46V80.39a3,3,0,1,1,5.95,0v0.07a62.54,62.54,0,0,1,59.39,57.87,31.16,31.16,0,0,0-10.17-1.72c-10.89,0-20.63,5.68-27.18,14.64a41.48,41.48,0,0,0-22-8.23" transform="translate(0 0)"/><path class="c" d="M307.29,279.95a24.84,24.84,0,1,0-24.85-24.85A24.84,24.84,0,0,0,307.29,279.95Z" transform="translate(0 0)"/><path class="c" d="M342.05,282.45h-8.69v0H281.2v0h-8.69a12.42,12.42,0,0,0-12.42,12.42v59.28h17.52V306a2.35,2.35,0,1,1,4.7,0v48.13h49.81V306a2.35,2.35,0,0,1,4.7,0v48.13h17.66V294.88A12.42,12.42,0,0,0,342.05,282.45Z" transform="translate(0 0)"/><g class="f"><path class="c" d="M157.06,180.44a3,3,0,0,0-3-3h-0.23a3,3,0,0,0,0,5.9h0.23A3,3,0,0,0,157.06,180.44Z" transform="translate(0 0)"/><path class="c" d="M147.76,180.44a3,3,0,0,0-2.95-3h-0.23a3,3,0,1,0,0,5.9h0.23A3,3,0,0,0,147.76,180.44Z" transform="translate(0 0)"/><path class="c" d="M138.45,180.44a3,3,0,0,0-3-3h-0.23a3,3,0,1,0,0,5.9h0.23A3,3,0,0,0,138.45,180.44Z" transform="translate(0 0)"/><path class="c" d="M129.14,180.44a3,3,0,0,0-2.95-3H126a3,3,0,0,0,0,5.9h0.23A3,3,0,0,0,129.14,180.44Z" transform="translate(0 0)"/><path class="c" d="M119.83,180.44a3,3,0,0,0-3-3h-0.23a3,3,0,1,0,0,5.9h0.23A3,3,0,0,0,119.83,180.44Z" transform="translate(0 0)"/><path class="c" d="M166.37,189.41a3,3,0,0,0-3-3h-0.23a3,3,0,0,0,0,5.9h0.23A3,3,0,0,0,166.37,189.41Z" transform="translate(0 0)"/><path class="c" d="M157.06,189.41a3,3,0,0,0-3-3h-0.23a3,3,0,0,0,0,5.9h0.23A3,3,0,0,0,157.06,189.41Z" transform="translate(0 0)"/><path class="c" d="M147.76,189.41a3,3,0,0,0-3-3h-0.23a3,3,0,1,0,0,5.9h0.23A3,3,0,0,0,147.76,189.41Z" transform="translate(0 0)"/><path class="c" d="M138.45,189.41a3,3,0,0,0-3-3h-0.23a3,3,0,0,0,0,5.9h0.23A3,3,0,0,0,138.45,189.41Z" transform="translate(0 0)"/><path class="c" d="M129.14,189.41a3,3,0,0,0-3-3H126a3,3,0,0,0,0,5.9h0.23A3,3,0,0,0,129.14,189.41Z" transform="translate(0 0)"/><path class="c" d="M119.83,189.41a3,3,0,0,0-3-3h-0.23a3,3,0,1,0,0,5.9h0.23A3,3,0,0,0,119.83,189.41Z" transform="translate(0 0)"/><path class="c" d="M110.52,189.41a3,3,0,0,0-3-3h-0.23a3,3,0,1,0,0,5.9h0.23A3,3,0,0,0,110.52,189.41Z" transform="translate(0 0)"/><path class="c" d="M166.37,198.39a3,3,0,0,0-3-3h-0.23a3,3,0,0,0,0,5.9h0.23A3,3,0,0,0,166.37,198.39Z" transform="translate(0 0)"/><path class="c" d="M157.06,198.39a3,3,0,0,0-3-3h-0.23a3,3,0,0,0,0,5.9h0.23A3,3,0,0,0,157.06,198.39Z" transform="translate(0 0)"/><path class="c" d="M147.76,198.39a3,3,0,0,0-3-3h-0.23a3,3,0,1,0,0,5.9h0.23A3,3,0,0,0,147.76,198.39Z" transform="translate(0 0)"/><path class="c" d="M138.45,198.39a3,3,0,0,0-3-3h-0.23a3,3,0,0,0,0,5.9h0.23A3,3,0,0,0,138.45,198.39Z" transform="translate(0 0)"/><path class="c" d="M129.14,198.39a3,3,0,0,0-3-3H126a3,3,0,0,0,0,5.9h0.23A3,3,0,0,0,129.14,198.39Z" transform="translate(0 0)"/><path class="c" d="M119.83,198.39a3,3,0,0,0-3-3h-0.23a3,3,0,1,0,0,5.9h0.23A3,3,0,0,0,119.83,198.39Z" transform="translate(0 0)"/><path class="c" d="M110.52,198.39a3,3,0,0,0-3-3h-0.23a3,3,0,0,0,0,5.9h0.23A3,3,0,0,0,110.52,198.39Z" transform="translate(0 0)"/><path class="c" d="M166.37,207.35a3,3,0,0,0-3-3h-0.23a3,3,0,0,0,0,5.9h0.23A3,3,0,0,0,166.37,207.35Z" transform="translate(0 0)"/><path class="c" d="M157.06,207.35a3,3,0,0,0-3-3h-0.23a3,3,0,0,0,0,5.9h0.23A3,3,0,0,0,157.06,207.35Z" transform="translate(0 0)"/><path class="c" d="M147.76,207.35a3,3,0,0,0-2.95-3h-0.23a3,3,0,1,0,0,5.9h0.23A3,3,0,0,0,147.76,207.35Z" transform="translate(0 0)"/><path class="c" d="M138.45,207.35a3,3,0,0,0-3-3h-0.23a3,3,0,1,0,0,5.9h0.23A3,3,0,0,0,138.45,207.35Z" transform="translate(0 0)"/><path class="c" d="M129.14,207.35a3,3,0,0,0-2.95-3H126a3,3,0,0,0,0,5.9h0.23A3,3,0,0,0,129.14,207.35Z" transform="translate(0 0)"/><path class="c" d="M119.83,207.35a3,3,0,0,0-3-3h-0.23a3,3,0,1,0,0,5.9h0.23A3,3,0,0,0,119.83,207.35Z" transform="translate(0 0)"/><path class="c" d="M110.52,207.35a3,3,0,0,0-3-3h-0.22a3,3,0,1,0,0,5.9h0.22A3,3,0,0,0,110.52,207.35Z" transform="translate(0 0)"/><path class="c" d="M166.37,216.33a3,3,0,0,0-3-3h-0.23a3,3,0,0,0,0,5.9h0.23A3,3,0,0,0,166.37,216.33Z" transform="translate(0 0)"/><path class="c" d="M157.06,216.33a3,3,0,0,0-3-3h-0.23a3,3,0,0,0,0,5.9h0.23A3,3,0,0,0,157.06,216.33Z" transform="translate(0 0)"/><path class="c" d="M147.76,216.33a3,3,0,0,0-3-3h-0.23a3,3,0,1,0,0,5.9h0.23A3,3,0,0,0,147.76,216.33Z" transform="translate(0 0)"/><path class="c" d="M138.45,216.33a3,3,0,0,0-3-3h-0.23a3,3,0,0,0,0,5.9h0.23A3,3,0,0,0,138.45,216.33Z" transform="translate(0 0)"/><path class="c" d="M129.14,216.33a3,3,0,0,0-3-3H126a3,3,0,0,0,0,5.9h0.23A3,3,0,0,0,129.14,216.33Z" transform="translate(0 0)"/><path class="c" d="M119.83,216.33a3,3,0,0,0-3-3h-0.23a3,3,0,1,0,0,5.9h0.23A3,3,0,0,0,119.83,216.33Z" transform="translate(0 0)"/><path class="c" d="M110.52,216.33a3,3,0,0,0-3-3h-0.23a3,3,0,0,0,0,5.9h0.23A3,3,0,0,0,110.52,216.33Z" transform="translate(0 0)"/><path class="c" d="M166.37,225.29a3,3,0,0,0-3-3h-0.23a3,3,0,1,0,0,5.9h0.23A3,3,0,0,0,166.37,225.29Z" transform="translate(0 0)"/><path class="c" d="M157.06,225.29a3,3,0,0,0-3-3h-0.23a3,3,0,0,0,0,5.9h0.23A3,3,0,0,0,157.06,225.29Z" transform="translate(0 0)"/><path class="c" d="M147.76,225.29a3,3,0,0,0-3-3h-0.23a3,3,0,1,0,0,5.9h0.23A3,3,0,0,0,147.76,225.29Z" transform="translate(0 0)"/><path class="c" d="M138.45,225.29a3,3,0,0,0-3-3h-0.23a3,3,0,0,0,0,5.9h0.23A3,3,0,0,0,138.45,225.29Z" transform="translate(0 0)"/><path class="c" d="M129.14,225.29a3,3,0,0,0-3-3H126a3,3,0,0,0,0,5.9h0.23A3,3,0,0,0,129.14,225.29Z" transform="translate(0 0)"/><path class="c" d="M119.83,225.29a3,3,0,0,0-3-3h-0.23a3,3,0,1,0,0,5.9h0.23A3,3,0,0,0,119.83,225.29Z" transform="translate(0 0)"/><path class="c" d="M110.52,225.29a3,3,0,0,0-3-3h-0.23a3,3,0,1,0,0,5.9h0.23A3,3,0,0,0,110.52,225.29Z" transform="translate(0 0)"/><path class="c" d="M157.06,234.26a3,3,0,0,0-3-3h-0.23a3,3,0,0,0,0,5.9h0.23A3,3,0,0,0,157.06,234.26Z" transform="translate(0 0)"/><path class="c" d="M147.76,234.26a3,3,0,0,0-2.95-3h-0.23a3,3,0,1,0,0,5.9h0.23A3,3,0,0,0,147.76,234.26Z" transform="translate(0 0)"/><path class="c" d="M138.45,234.26a3,3,0,0,0-3-3h-0.23a3,3,0,1,0,0,5.9h0.23A3,3,0,0,0,138.45,234.26Z" transform="translate(0 0)"/><path class="c" d="M129.14,234.26a3,3,0,0,0-2.95-3H126a3,3,0,0,0,0,5.9h0.23A3,3,0,0,0,129.14,234.26Z" transform="translate(0 0)"/><path class="c" d="M119.83,234.26a3,3,0,0,0-3-3h-0.23a3,3,0,0,0,0,5.9h0.23A3,3,0,0,0,119.83,234.26Z" transform="translate(0 0)"/><path class="c" d="M185,243.24a3,3,0,0,0-3-3h-0.23a3,3,0,1,0,0,5.9H182A3,3,0,0,0,185,243.24Z" transform="translate(0 0)"/><path class="c" d="M175.68,243.24a3,3,0,0,0-3-3H172.5a3,3,0,1,0,0,5.9h0.23A3,3,0,0,0,175.68,243.24Z" transform="translate(0 0)"/><path class="c" d="M166.37,243.24a3,3,0,0,0-3-3h-0.23a3,3,0,1,0,0,5.9h0.23A3,3,0,0,0,166.37,243.24Z" transform="translate(0 0)"/><path class="c" d="M157.06,243.24a3,3,0,0,0-3-3h-0.23a3,3,0,0,0,0,5.9h0.23A3,3,0,0,0,157.06,243.24Z" transform="translate(0 0)"/><path class="c" d="M147.76,243.24a3,3,0,0,0-3-3h-0.23a3,3,0,1,0,0,5.9h0.23A3,3,0,0,0,147.76,243.24Z" transform="translate(0 0)"/><path class="c" d="M138.45,243.24a3,3,0,0,0-3-3h-0.23a3,3,0,1,0,0,5.9h0.23A3,3,0,0,0,138.45,243.24Z" transform="translate(0 0)"/><path class="c" d="M129.14,243.24a3,3,0,0,0-3-3H126a3,3,0,1,0,0,5.9h0.23A3,3,0,0,0,129.14,243.24Z" transform="translate(0 0)"/><path class="c" d="M119.83,243.24a3,3,0,0,0-3-3h-0.23a3,3,0,1,0,0,5.9h0.23A3,3,0,0,0,119.83,243.24Z" transform="translate(0 0)"/><path class="c" d="M110.52,243.24a3,3,0,0,0-3-3h-0.23a3,3,0,1,0,0,5.9h0.23A3,3,0,0,0,110.52,243.24Z" transform="translate(0 0)"/><path class="c" d="M101.21,243.24a3,3,0,0,0-3-3H98a3,3,0,1,0,0,5.9h0.23A3,3,0,0,0,101.21,243.24Z" transform="translate(0 0)"/><path class="c" d="M91.91,243.24a3,3,0,0,0-3-3H88.73a3,3,0,1,0,0,5.9H89A3,3,0,0,0,91.91,243.24Z" transform="translate(0 0)"/><path class="c" d="M194.3,252.2a3,3,0,0,0-3-2.95h-0.23a3,3,0,0,0,0,5.9h0.23A3,3,0,0,0,194.3,252.2Z" transform="translate(0 0)"/><path class="c" d="M185,252.2a3,3,0,0,0-3-2.95h-0.23a3,3,0,1,0,0,5.9H182A3,3,0,0,0,185,252.2Z" transform="translate(0 0)"/><path class="c" d="M175.68,252.2a3,3,0,0,0-3-2.95H172.5a3,3,0,1,0,0,5.9h0.23A3,3,0,0,0,175.68,252.2Z" transform="translate(0 0)"/><path class="c" d="M166.37,252.2a3,3,0,0,0-3-2.95h-0.23a3,3,0,1,0,0,5.9h0.23A3,3,0,0,0,166.37,252.2Z" transform="translate(0 0)"/><path class="c" d="M157.06,252.2a3,3,0,0,0-3-2.95h-0.23a3,3,0,0,0,0,5.9h0.23A3,3,0,0,0,157.06,252.2Z" transform="translate(0 0)"/><path class="c" d="M147.76,252.2a3,3,0,0,0-3-2.95h-0.23a3,3,0,1,0,0,5.9h0.23A3,3,0,0,0,147.76,252.2Z" transform="translate(0 0)"/><path class="c" d="M138.45,252.2a3,3,0,0,0-3-2.95h-0.23a3,3,0,1,0,0,5.9h0.23A3,3,0,0,0,138.45,252.2Z" transform="translate(0 0)"/><path class="c" d="M129.14,252.2a3,3,0,0,0-3-2.95H126a3,3,0,1,0,0,5.9h0.23A3,3,0,0,0,129.14,252.2Z" transform="translate(0 0)"/><path class="c" d="M119.83,252.2a3,3,0,0,0-3-2.95h-0.23a3,3,0,1,0,0,5.9h0.23A3,3,0,0,0,119.83,252.2Z" transform="translate(0 0)"/><path class="c" d="M110.52,252.2a3,3,0,0,0-3-2.95h-0.23a3,3,0,1,0,0,5.9h0.23A3,3,0,0,0,110.52,252.2Z" transform="translate(0 0)"/><path class="c" d="M101.21,252.2a3,3,0,0,0-3-2.95H98a3,3,0,1,0,0,5.9h0.23A3,3,0,0,0,101.21,252.2Z" transform="translate(0 0)"/><path class="c" d="M91.91,252.2a3,3,0,0,0-3-2.95H88.73a3,3,0,1,0,0,5.9H89A3,3,0,0,0,91.91,252.2Z" transform="translate(0 0)"/><path class="c" d="M82.6,252.2a3,3,0,0,0-3-2.95H79.42a3,3,0,1,0,0,5.9h0.23A3,3,0,0,0,82.6,252.2Z" transform="translate(0 0)"/><path class="c" d="M194.3,261.18a3,3,0,0,0-3-3h-0.23a3,3,0,0,0,0,5.9h0.23A3,3,0,0,0,194.3,261.18Z" transform="translate(0 0)"/><path class="c" d="M185,261.18a3,3,0,0,0-3-3h-0.23a3,3,0,0,0,0,5.9H182A3,3,0,0,0,185,261.18Z" transform="translate(0 0)"/><path class="c" d="M175.68,261.18a3,3,0,0,0-3-3H172.5a3,3,0,1,0,0,5.9h0.23A3,3,0,0,0,175.68,261.18Z" transform="translate(0 0)"/><path class="c" d="M166.38,261.18a3,3,0,0,0-3-3H163.2a3,3,0,1,0,0,5.9h0.23A3,3,0,0,0,166.38,261.18Z" transform="translate(0 0)"/><path class="c" d="M157.06,261.18a3,3,0,0,0-3-3h-0.23a3,3,0,0,0,0,5.9h0.23A3,3,0,0,0,157.06,261.18Z" transform="translate(0 0)"/><path class="c" d="M147.76,261.18a3,3,0,0,0-3-3h-0.23a3,3,0,0,0,0,5.9h0.23A3,3,0,0,0,147.76,261.18Z" transform="translate(0 0)"/><path class="c" d="M138.45,261.18a3,3,0,0,0-3-3h-0.23a3,3,0,1,0,0,5.9h0.23A3,3,0,0,0,138.45,261.18Z" transform="translate(0 0)"/><path class="c" d="M129.14,261.18a3,3,0,0,0-3-3H126a3,3,0,0,0,0,5.9h0.23A3,3,0,0,0,129.14,261.18Z" transform="translate(0 0)"/><path class="c" d="M119.83,261.18a3,3,0,0,0-3-3h-0.23a3,3,0,0,0,0,5.9h0.23A3,3,0,0,0,119.83,261.18Z" transform="translate(0 0)"/><path class="c" d="M110.52,261.18a3,3,0,0,0-3-3h-0.23a3,3,0,0,0,0,5.9h0.23A3,3,0,0,0,110.52,261.18Z" transform="translate(0 0)"/><path class="c" d="M101.21,261.18a3,3,0,0,0-3-3H98a3,3,0,1,0,0,5.9h0.23A3,3,0,0,0,101.21,261.18Z" transform="translate(0 0)"/><path class="c" d="M91.91,261.18a3,3,0,0,0-3-3H88.73a3,3,0,0,0,0,5.9H89A3,3,0,0,0,91.91,261.18Z" transform="translate(0 0)"/><path class="c" d="M82.6,261.18a3,3,0,0,0-3-3H79.42a3,3,0,0,0,0,5.9h0.23A3,3,0,0,0,82.6,261.18Z" transform="translate(0 0)"/><path class="c" d="M194.3,270.15a3,3,0,0,0-3-3h-0.23a3,3,0,1,0,0,5.9h0.23A3,3,0,0,0,194.3,270.15Z" transform="translate(0 0)"/><path class="c" d="M185,270.15a3,3,0,0,0-3-3h-0.23a3,3,0,1,0,0,5.9H182A3,3,0,0,0,185,270.15Z" transform="translate(0 0)"/><path class="c" d="M175.68,270.15a3,3,0,0,0-3-3H172.5a3,3,0,1,0,0,5.9h0.23A3,3,0,0,0,175.68,270.15Z" transform="translate(0 0)"/><path class="c" d="M166.37,270.15a3,3,0,0,0-3-3h-0.23a3,3,0,1,0,0,5.9h0.23A3,3,0,0,0,166.37,270.15Z" transform="translate(0 0)"/><path class="c" d="M157.06,270.15a3,3,0,0,0-3-3h-0.23a3,3,0,0,0,0,5.9h0.23A3,3,0,0,0,157.06,270.15Z" transform="translate(0 0)"/><path class="c" d="M147.76,270.15a3,3,0,0,0-3-3h-0.23a3,3,0,1,0,0,5.9h0.23A3,3,0,0,0,147.76,270.15Z" transform="translate(0 0)"/><path class="c" d="M138.45,270.15a3,3,0,0,0-3-3h-0.23a3,3,0,1,0,0,5.9h0.23A3,3,0,0,0,138.45,270.15Z" transform="translate(0 0)"/><path class="c" d="M129.14,270.15a3,3,0,0,0-3-3H126a3,3,0,1,0,0,5.9h0.23A3,3,0,0,0,129.14,270.15Z" transform="translate(0 0)"/><path class="c" d="M119.83,270.15a3,3,0,0,0-3-3h-0.23a3,3,0,1,0,0,5.9h0.23A3,3,0,0,0,119.83,270.15Z" transform="translate(0 0)"/><path class="c" d="M110.52,270.15a3,3,0,0,0-3-3h-0.23a3,3,0,1,0,0,5.9h0.23A3,3,0,0,0,110.52,270.15Z" transform="translate(0 0)"/><path class="c" d="M101.21,270.15a3,3,0,0,0-3-3H98a3,3,0,1,0,0,5.9h0.23A3,3,0,0,0,101.21,270.15Z" transform="translate(0 0)"/><path class="c" d="M91.91,270.15a3,3,0,0,0-3-3H88.73a3,3,0,1,0,0,5.9H89A3,3,0,0,0,91.91,270.15Z" transform="translate(0 0)"/><path class="c" d="M82.6,270.15a3,3,0,0,0-3-3H79.42a3,3,0,1,0,0,5.9h0.23A3,3,0,0,0,82.6,270.15Z" transform="translate(0 0)"/><path class="c" d="M194.3,279.12a3,3,0,0,0-3-2.95h-0.22a3,3,0,1,0,0,5.9h0.22A3,3,0,0,0,194.3,279.12Z" transform="translate(0 0)"/><path class="c" d="M185,279.12a3,3,0,0,0-3-2.95h-0.23a3,3,0,0,0,0,5.9H182A3,3,0,0,0,185,279.12Z" transform="translate(0 0)"/><path class="c" d="M175.68,279.12a3,3,0,0,0-3-2.95H172.5a3,3,0,1,0,0,5.9h0.23A3,3,0,0,0,175.68,279.12Z" transform="translate(0 0)"/><path class="c" d="M166.37,279.12a3,3,0,0,0-3-2.95h-0.23a3,3,0,1,0,0,5.9h0.23A3,3,0,0,0,166.37,279.12Z" transform="translate(0 0)"/><path class="c" d="M157.06,279.12a3,3,0,0,0-3-2.95h-0.23a3,3,0,1,0,0,5.9h0.23A3,3,0,0,0,157.06,279.12Z" transform="translate(0 0)"/><path class="c" d="M147.76,279.12a3,3,0,0,0-2.95-2.95h-0.23a3,3,0,1,0,0,5.9h0.23A3,3,0,0,0,147.76,279.12Z" transform="translate(0 0)"/><path class="c" d="M138.45,279.12a3,3,0,0,0-3-2.95h-0.23a3,3,0,1,0,0,5.9h0.23A3,3,0,0,0,138.45,279.12Z" transform="translate(0 0)"/><path class="c" d="M129.14,279.12a3,3,0,0,0-2.95-2.95H126a3,3,0,1,0,0,5.9h0.23A3,3,0,0,0,129.14,279.12Z" transform="translate(0 0)"/><path class="c" d="M119.83,279.12a3,3,0,0,0-3-2.95h-0.23a3,3,0,1,0,0,5.9h0.23A3,3,0,0,0,119.83,279.12Z" transform="translate(0 0)"/><path class="c" d="M110.52,279.12a3,3,0,0,0-3-2.95h-0.22a3,3,0,1,0,0,5.9h0.22A3,3,0,0,0,110.52,279.12Z" transform="translate(0 0)"/><path class="c" d="M101.21,279.12a3,3,0,0,0-3-2.95H98a3,3,0,1,0,0,5.9h0.23A3,3,0,0,0,101.21,279.12Z" transform="translate(0 0)"/><path class="c" d="M91.9,279.12a3,3,0,0,0-3-2.95H88.73a3,3,0,1,0,0,5.9H89A3,3,0,0,0,91.9,279.12Z" transform="translate(0 0)"/><path class="c" d="M82.6,279.12a3,3,0,0,0-3-2.95H79.42a3,3,0,1,0,0,5.9h0.23A3,3,0,0,0,82.6,279.12Z" transform="translate(0 0)"/><path class="c" d="M194.3,288.09a3,3,0,0,0-3-3h-0.23a3,3,0,0,0,0,5.9h0.23A3,3,0,0,0,194.3,288.09Z" transform="translate(0 0)"/><path class="c" d="M185,288.09a3,3,0,0,0-3-3h-0.23a3,3,0,0,0,0,5.9H182A3,3,0,0,0,185,288.09Z" transform="translate(0 0)"/><path class="c" d="M175.68,288.09a3,3,0,0,0-3-3H172.5a3,3,0,1,0,0,5.9h0.23A3,3,0,0,0,175.68,288.09Z" transform="translate(0 0)"/><path class="c" d="M166.38,288.09a3,3,0,0,0-3-3H163.2a3,3,0,1,0,0,5.9h0.23A3,3,0,0,0,166.38,288.09Z" transform="translate(0 0)"/><path class="c" d="M157.06,288.09a3,3,0,0,0-3-3h-0.23a3,3,0,0,0,0,5.9h0.23A3,3,0,0,0,157.06,288.09Z" transform="translate(0 0)"/><path class="c" d="M147.76,288.09a3,3,0,0,0-3-3h-0.23a3,3,0,1,0,0,5.9h0.23A3,3,0,0,0,147.76,288.09Z" transform="translate(0 0)"/><path class="c" d="M138.45,288.09a3,3,0,0,0-3-3h-0.23a3,3,0,1,0,0,5.9h0.23A3,3,0,0,0,138.45,288.09Z" transform="translate(0 0)"/><path class="c" d="M129.14,288.09a3,3,0,0,0-3-3H126a3,3,0,0,0,0,5.9h0.23A3,3,0,0,0,129.14,288.09Z" transform="translate(0 0)"/><path class="c" d="M119.83,288.09a3,3,0,0,0-3-3h-0.23a3,3,0,0,0,0,5.9h0.23A3,3,0,0,0,119.83,288.09Z" transform="translate(0 0)"/><path class="c" d="M110.52,288.09a3,3,0,0,0-3-3h-0.23a3,3,0,1,0,0,5.9h0.23A3,3,0,0,0,110.52,288.09Z" transform="translate(0 0)"/><path class="c" d="M101.21,288.09a3,3,0,0,0-3-3H98a3,3,0,1,0,0,5.9h0.23A3,3,0,0,0,101.21,288.09Z" transform="translate(0 0)"/><path class="c" d="M91.91,288.09a3,3,0,0,0-3-3H88.73a3,3,0,0,0,0,5.9H89A3,3,0,0,0,91.91,288.09Z" transform="translate(0 0)"/><path class="c" d="M82.6,288.09a3,3,0,0,0-3-3H79.42a3,3,0,1,0,0,5.9h0.23A3,3,0,0,0,82.6,288.09Z" transform="translate(0 0)"/><path class="c" d="M194.3,297.06a3,3,0,0,0-3-3h-0.23a3,3,0,0,0,0,5.91h0.23A3,3,0,0,0,194.3,297.06Z" transform="translate(0 0)"/><path class="c" d="M185,297.06a3,3,0,0,0-3-3h-0.23a3,3,0,0,0,0,5.91H182A3,3,0,0,0,185,297.06Z" transform="translate(0 0)"/><path class="c" d="M175.68,297.06a3,3,0,0,0-3-3H172.5a3,3,0,1,0,0,5.91h0.23A3,3,0,0,0,175.68,297.06Z" transform="translate(0 0)"/><path class="c" d="M166.38,297.06a3,3,0,0,0-3-3H163.2a3,3,0,0,0,0,5.91h0.23A3,3,0,0,0,166.38,297.06Z" transform="translate(0 0)"/><path class="c" d="M157.06,297.06a3,3,0,0,0-3-3h-0.23a3,3,0,0,0,0,5.91h0.23A3,3,0,0,0,157.06,297.06Z" transform="translate(0 0)"/><path class="c" d="M147.76,297.06a3,3,0,0,0-3-3h-0.23a3,3,0,0,0,0,5.91h0.23A3,3,0,0,0,147.76,297.06Z" transform="translate(0 0)"/><path class="c" d="M138.45,297.06a3,3,0,0,0-3-3h-0.23a3,3,0,1,0,0,5.91h0.23A3,3,0,0,0,138.45,297.06Z" transform="translate(0 0)"/><path class="c" d="M129.14,297.06a3,3,0,0,0-3-3H126a3,3,0,0,0,0,5.91h0.23A3,3,0,0,0,129.14,297.06Z" transform="translate(0 0)"/><path class="c" d="M119.83,297.06a3,3,0,0,0-3-3h-0.23a3,3,0,0,0,0,5.91h0.23A3,3,0,0,0,119.83,297.06Z" transform="translate(0 0)"/><path class="c" d="M110.52,297.06a3,3,0,0,0-3-3h-0.23a3,3,0,0,0,0,5.91h0.23A3,3,0,0,0,110.52,297.06Z" transform="translate(0 0)"/><path class="c" d="M101.21,297.06a3,3,0,0,0-3-3H98A3,3,0,0,0,98,300h0.23A3,3,0,0,0,101.21,297.06Z" transform="translate(0 0)"/><path class="c" d="M91.91,297.06a3,3,0,0,0-3-3H88.73a3,3,0,0,0,0,5.91H89A3,3,0,0,0,91.91,297.06Z" transform="translate(0 0)"/><path class="c" d="M82.6,297.06a3,3,0,0,0-3-3H79.42a3,3,0,0,0,0,5.91h0.23A3,3,0,0,0,82.6,297.06Z" transform="translate(0 0)"/><path class="c" d="M194.3,306a3,3,0,0,0-3-3h-0.23a3,3,0,0,0,0,5.91h0.23A3,3,0,0,0,194.3,306Z" transform="translate(0 0)"/><path class="c" d="M185,306a3,3,0,0,0-3-3h-0.23a3,3,0,0,0,0,5.91H182A3,3,0,0,0,185,306Z" transform="translate(0 0)"/><path class="c" d="M175.68,306a3,3,0,0,0-3-3H172.5a3,3,0,0,0,0,5.91h0.23A3,3,0,0,0,175.68,306Z" transform="translate(0 0)"/><path class="c" d="M166.37,306a3,3,0,0,0-3-3h-0.23a3,3,0,0,0,0,5.91h0.23A3,3,0,0,0,166.37,306Z" transform="translate(0 0)"/><path class="c" d="M157.06,306a3,3,0,0,0-3-3h-0.23a3,3,0,0,0,0,5.91h0.23A3,3,0,0,0,157.06,306Z" transform="translate(0 0)"/><path class="c" d="M147.76,306a3,3,0,0,0-3-3h-0.23a3,3,0,0,0,0,5.91h0.23A3,3,0,0,0,147.76,306Z" transform="translate(0 0)"/><path class="c" d="M138.45,306a3,3,0,0,0-3-3h-0.23a3,3,0,0,0,0,5.91h0.23A3,3,0,0,0,138.45,306Z" transform="translate(0 0)"/><path class="c" d="M129.14,306a3,3,0,0,0-3-3H126a3,3,0,0,0,0,5.91h0.23A3,3,0,0,0,129.14,306Z" transform="translate(0 0)"/><path class="c" d="M119.83,306a3,3,0,0,0-3-3h-0.23a3,3,0,0,0,0,5.91h0.23A3,3,0,0,0,119.83,306Z" transform="translate(0 0)"/><path class="c" d="M110.52,306a3,3,0,0,0-3-3h-0.23a3,3,0,0,0,0,5.91h0.23A3,3,0,0,0,110.52,306Z" transform="translate(0 0)"/><path class="c" d="M101.21,306a3,3,0,0,0-3-3H98A3,3,0,0,0,98,309h0.23A3,3,0,0,0,101.21,306Z" transform="translate(0 0)"/><path class="c" d="M91.91,306a3,3,0,0,0-3-3H88.73a3,3,0,0,0,0,5.91H89A3,3,0,0,0,91.91,306Z" transform="translate(0 0)"/><path class="c" d="M82.6,306a3,3,0,0,0-3-3H79.42a3,3,0,0,0,0,5.91h0.23A3,3,0,0,0,82.6,306Z" transform="translate(0 0)"/><path class="c" d="M194.3,315a3,3,0,0,0-3-3h-0.23a3,3,0,0,0,0,5.9h0.23A3,3,0,0,0,194.3,315Z" transform="translate(0 0)"/><path class="c" d="M185,315a3,3,0,0,0-3-3h-0.23a3,3,0,1,0,0,5.9H182A3,3,0,0,0,185,315Z" transform="translate(0 0)"/><path class="c" d="M175.68,315a3,3,0,0,0-3-3H172.5a3,3,0,0,0,0,5.9h0.23A3,3,0,0,0,175.68,315Z" transform="translate(0 0)"/><path class="c" d="M166.37,315a3,3,0,0,0-3-3h-0.23a3,3,0,0,0,0,5.9h0.23A3,3,0,0,0,166.37,315Z" transform="translate(0 0)"/><path class="c" d="M157.06,315a3,3,0,0,0-3-3h-0.23a3,3,0,0,0,0,5.9h0.23A3,3,0,0,0,157.06,315Z" transform="translate(0 0)"/><path class="c" d="M147.76,315a3,3,0,0,0-3-3h-0.23a3,3,0,1,0,0,5.9h0.23A3,3,0,0,0,147.76,315Z" transform="translate(0 0)"/><path class="c" d="M138.45,315a3,3,0,0,0-3-3h-0.23a3,3,0,0,0,0,5.9h0.23A3,3,0,0,0,138.45,315Z" transform="translate(0 0)"/><path class="c" d="M129.14,315a3,3,0,0,0-3-3H126a3,3,0,0,0,0,5.9h0.23A3,3,0,0,0,129.14,315Z" transform="translate(0 0)"/><path class="c" d="M119.83,315a3,3,0,0,0-3-3h-0.23a3,3,0,1,0,0,5.9h0.23A3,3,0,0,0,119.83,315Z" transform="translate(0 0)"/><path class="c" d="M110.52,315a3,3,0,0,0-3-3h-0.23a3,3,0,0,0,0,5.9h0.23A3,3,0,0,0,110.52,315Z" transform="translate(0 0)"/><path class="c" d="M101.21,315a3,3,0,0,0-3-3H98a3,3,0,0,0,0,5.9h0.23A3,3,0,0,0,101.21,315Z" transform="translate(0 0)"/><path class="c" d="M91.91,315a3,3,0,0,0-3-3H88.73a3,3,0,0,0,0,5.9H89A3,3,0,0,0,91.91,315Z" transform="translate(0 0)"/><path class="c" d="M82.6,315a3,3,0,0,0-3-3H79.42a3,3,0,1,0,0,5.9h0.23A3,3,0,0,0,82.6,315Z" transform="translate(0 0)"/><path class="c" d="M194.3,324a3,3,0,0,0-3-3h-0.23a3,3,0,0,0,0,5.9h0.23A3,3,0,0,0,194.3,324Z" transform="translate(0 0)"/><path class="c" d="M185,324a3,3,0,0,0-3-3h-0.23a3,3,0,1,0,0,5.9H182A3,3,0,0,0,185,324Z" transform="translate(0 0)"/><path class="c" d="M175.68,324a3,3,0,0,0-3-3H172.5a3,3,0,1,0,0,5.9h0.23A3,3,0,0,0,175.68,324Z" transform="translate(0 0)"/><path class="c" d="M166.37,324a3,3,0,0,0-3-3h-0.23a3,3,0,1,0,0,5.9h0.23A3,3,0,0,0,166.37,324Z" transform="translate(0 0)"/><path class="c" d="M157.06,324a3,3,0,0,0-3-3h-0.23a3,3,0,0,0,0,5.9h0.23A3,3,0,0,0,157.06,324Z" transform="translate(0 0)"/><path class="c" d="M147.76,324a3,3,0,0,0-3-3h-0.23a3,3,0,1,0,0,5.9h0.23A3,3,0,0,0,147.76,324Z" transform="translate(0 0)"/><path class="c" d="M138.45,324a3,3,0,0,0-3-3h-0.23a3,3,0,1,0,0,5.9h0.23A3,3,0,0,0,138.45,324Z" transform="translate(0 0)"/><path class="c" d="M129.14,324a3,3,0,0,0-3-3H126a3,3,0,0,0,0,5.9h0.23A3,3,0,0,0,129.14,324Z" transform="translate(0 0)"/><path class="c" d="M119.83,324a3,3,0,0,0-3-3h-0.23a3,3,0,1,0,0,5.9h0.23A3,3,0,0,0,119.83,324Z" transform="translate(0 0)"/><path class="c" d="M110.52,324a3,3,0,0,0-3-3h-0.23a3,3,0,1,0,0,5.9h0.23A3,3,0,0,0,110.52,324Z" transform="translate(0 0)"/><path class="c" d="M101.21,324a3,3,0,0,0-3-3H98a3,3,0,1,0,0,5.9h0.23A3,3,0,0,0,101.21,324Z" transform="translate(0 0)"/><path class="c" d="M91.91,324a3,3,0,0,0-3-3H88.73a3,3,0,1,0,0,5.9H89A3,3,0,0,0,91.91,324Z" transform="translate(0 0)"/><path class="c" d="M82.6,324a3,3,0,0,0-3-3H79.42a3,3,0,1,0,0,5.9h0.23A3,3,0,0,0,82.6,324Z" transform="translate(0 0)"/><path class="c" d="M194.3,332.94a3,3,0,0,0-3-3h-0.23a3,3,0,0,0,0,5.91h0.23A3,3,0,0,0,194.3,332.94Z" transform="translate(0 0)"/><path class="c" d="M185,332.94a3,3,0,0,0-3-3h-0.23a3,3,0,0,0,0,5.91H182A3,3,0,0,0,185,332.94Z" transform="translate(0 0)"/><path class="c" d="M175.68,332.94a3,3,0,0,0-3-3H172.5a3,3,0,0,0,0,5.91h0.23A3,3,0,0,0,175.68,332.94Z" transform="translate(0 0)"/><path class="c" d="M166.37,332.94a3,3,0,0,0-3-3h-0.23a3,3,0,0,0,0,5.91h0.23A3,3,0,0,0,166.37,332.94Z" transform="translate(0 0)"/><path class="c" d="M157.06,332.94a3,3,0,0,0-3-3h-0.23a3,3,0,0,0,0,5.91h0.23A3,3,0,0,0,157.06,332.94Z" transform="translate(0 0)"/><path class="c" d="M147.76,332.94a3,3,0,0,0-3-3h-0.23a3,3,0,0,0,0,5.91h0.23A3,3,0,0,0,147.76,332.94Z" transform="translate(0 0)"/><path class="c" d="M138.45,332.94a3,3,0,0,0-3-3h-0.23a3,3,0,0,0,0,5.91h0.23A3,3,0,0,0,138.45,332.94Z" transform="translate(0 0)"/><path class="c" d="M129.14,332.94a3,3,0,0,0-3-3H126a3,3,0,0,0,0,5.91h0.23A3,3,0,0,0,129.14,332.94Z" transform="translate(0 0)"/><path class="c" d="M119.83,332.94a3,3,0,0,0-3-3h-0.23a3,3,0,0,0,0,5.91h0.23A3,3,0,0,0,119.83,332.94Z" transform="translate(0 0)"/><path class="c" d="M110.52,332.94a3,3,0,0,0-3-3h-0.23a3,3,0,0,0,0,5.91h0.23A3,3,0,0,0,110.52,332.94Z" transform="translate(0 0)"/><path class="c" d="M101.21,332.94a3,3,0,0,0-3-3H98a3,3,0,0,0,0,5.91h0.23A3,3,0,0,0,101.21,332.94Z" transform="translate(0 0)"/><path class="c" d="M91.91,332.94a3,3,0,0,0-3-3H88.73a3,3,0,0,0,0,5.91H89A3,3,0,0,0,91.91,332.94Z" transform="translate(0 0)"/><path class="c" d="M82.6,332.94a3,3,0,0,0-3-3H79.42a3,3,0,0,0,0,5.91h0.23A3,3,0,0,0,82.6,332.94Z" transform="translate(0 0)"/><path class="c" d="M194.3,341.91a3,3,0,0,0-3-3h-0.23a3,3,0,0,0,0,5.9h0.23A3,3,0,0,0,194.3,341.91Z" transform="translate(0 0)"/><path class="c" d="M185,341.91a3,3,0,0,0-3-3h-0.23a3,3,0,0,0,0,5.9H182A3,3,0,0,0,185,341.91Z" transform="translate(0 0)"/><path class="c" d="M175.68,341.91a3,3,0,0,0-3-3H172.5a3,3,0,1,0,0,5.9h0.23A3,3,0,0,0,175.68,341.91Z" transform="translate(0 0)"/><path class="c" d="M166.38,341.91a3,3,0,0,0-3-3H163.2a3,3,0,1,0,0,5.9h0.23A3,3,0,0,0,166.38,341.91Z" transform="translate(0 0)"/><path class="c" d="M157.06,341.91a3,3,0,0,0-3-3h-0.23a3,3,0,0,0,0,5.9h0.23A3,3,0,0,0,157.06,341.91Z" transform="translate(0 0)"/><path class="c" d="M147.76,341.91a3,3,0,0,0-3-3h-0.23a3,3,0,1,0,0,5.9h0.23A3,3,0,0,0,147.76,341.91Z" transform="translate(0 0)"/><path class="c" d="M138.45,341.91a3,3,0,0,0-3-3h-0.23a3,3,0,1,0,0,5.9h0.23A3,3,0,0,0,138.45,341.91Z" transform="translate(0 0)"/><path class="c" d="M129.14,341.91a3,3,0,0,0-3-3H126a3,3,0,1,0,0,5.9h0.23A3,3,0,0,0,129.14,341.91Z" transform="translate(0 0)"/><path class="c" d="M119.83,341.91a3,3,0,0,0-3-3h-0.23a3,3,0,1,0,0,5.9h0.23A3,3,0,0,0,119.83,341.91Z" transform="translate(0 0)"/><path class="c" d="M110.52,341.91a3,3,0,0,0-3-3h-0.23a3,3,0,1,0,0,5.9h0.23A3,3,0,0,0,110.52,341.91Z" transform="translate(0 0)"/><path class="c" d="M101.21,341.91a3,3,0,0,0-3-3H98a3,3,0,1,0,0,5.9h0.23A3,3,0,0,0,101.21,341.91Z" transform="translate(0 0)"/><path class="c" d="M91.91,341.91a3,3,0,0,0-3-3H88.73a3,3,0,1,0,0,5.9H89A3,3,0,0,0,91.91,341.91Z" transform="translate(0 0)"/><path class="c" d="M82.6,341.91a3,3,0,0,0-3-3H79.42a3,3,0,1,0,0,5.9h0.23A3,3,0,0,0,82.6,341.91Z" transform="translate(0 0)"/><path class="c" d="M194.3,350.88a3,3,0,0,0-3-3h-0.22a3,3,0,0,0,0,5.91h0.22A3,3,0,0,0,194.3,350.88Z" transform="translate(0 0)"/><path class="c" d="M185,350.88a3,3,0,0,0-3-3h-0.23a3,3,0,0,0,0,5.91H182A3,3,0,0,0,185,350.88Z" transform="translate(0 0)"/><path class="c" d="M175.68,350.88a3,3,0,0,0-3-3H172.5a3,3,0,0,0,0,5.91h0.23A3,3,0,0,0,175.68,350.88Z" transform="translate(0 0)"/><path class="c" d="M166.37,350.88a3,3,0,0,0-3-3h-0.23a3,3,0,0,0,0,5.91h0.23A3,3,0,0,0,166.37,350.88Z" transform="translate(0 0)"/><path class="c" d="M157.06,350.88a3,3,0,0,0-3-3h-0.23a3,3,0,0,0,0,5.91h0.23A3,3,0,0,0,157.06,350.88Z" transform="translate(0 0)"/><path class="c" d="M147.76,350.88a3,3,0,0,0-2.95-3h-0.23a3,3,0,0,0,0,5.91h0.23A3,3,0,0,0,147.76,350.88Z" transform="translate(0 0)"/><path class="c" d="M138.45,350.88a3,3,0,0,0-3-3h-0.23a3,3,0,0,0,0,5.91h0.23A3,3,0,0,0,138.45,350.88Z" transform="translate(0 0)"/><path class="c" d="M129.14,350.88a3,3,0,0,0-2.95-3H126a3,3,0,0,0,0,5.91h0.23A3,3,0,0,0,129.14,350.88Z" transform="translate(0 0)"/><path class="c" d="M119.83,350.88a3,3,0,0,0-3-3h-0.23a3,3,0,0,0,0,5.91h0.23A3,3,0,0,0,119.83,350.88Z" transform="translate(0 0)"/><path class="c" d="M110.52,350.88a3,3,0,0,0-3-3h-0.22a3,3,0,0,0,0,5.91h0.22A3,3,0,0,0,110.52,350.88Z" transform="translate(0 0)"/><path class="c" d="M101.21,350.88a3,3,0,0,0-3-3H98a3,3,0,0,0,0,5.91h0.23A3,3,0,0,0,101.21,350.88Z" transform="translate(0 0)"/><path class="c" d="M91.9,350.88a3,3,0,0,0-3-3H88.73a3,3,0,0,0,0,5.91H89A3,3,0,0,0,91.9,350.88Z" transform="translate(0 0)"/><path class="c" d="M82.6,350.88a3,3,0,0,0-3-3H79.42a3,3,0,0,0,0,5.91h0.23A3,3,0,0,0,82.6,350.88Z" transform="translate(0 0)"/><path class="c" d="M194.3,359.85a3,3,0,0,0-3-2.95h-0.23a3,3,0,0,0,0,5.91h0.23A3,3,0,0,0,194.3,359.85Z" transform="translate(0 0)"/><path class="c" d="M185,359.85a3,3,0,0,0-3-2.95h-0.23a3,3,0,0,0,0,5.91H182A3,3,0,0,0,185,359.85Z" transform="translate(0 0)"/><path class="c" d="M175.68,359.85a3,3,0,0,0-3-2.95H172.5a3,3,0,1,0,0,5.91h0.23A3,3,0,0,0,175.68,359.85Z" transform="translate(0 0)"/><path class="c" d="M166.38,359.85a3,3,0,0,0-3-2.95H163.2a3,3,0,0,0,0,5.91h0.23A3,3,0,0,0,166.38,359.85Z" transform="translate(0 0)"/><path class="c" d="M157.06,359.85a3,3,0,0,0-3-2.95h-0.23a3,3,0,0,0,0,5.91h0.23A3,3,0,0,0,157.06,359.85Z" transform="translate(0 0)"/><path class="c" d="M147.76,359.85a3,3,0,0,0-3-2.95h-0.23a3,3,0,0,0,0,5.91h0.23A3,3,0,0,0,147.76,359.85Z" transform="translate(0 0)"/><path class="c" d="M138.45,359.85a3,3,0,0,0-3-2.95h-0.23a3,3,0,0,0,0,5.91h0.23A3,3,0,0,0,138.45,359.85Z" transform="translate(0 0)"/><path class="c" d="M129.14,359.85a3,3,0,0,0-3-2.95H126a3,3,0,0,0,0,5.91h0.23A3,3,0,0,0,129.14,359.85Z" transform="translate(0 0)"/><path class="c" d="M119.83,359.85a3,3,0,0,0-3-2.95h-0.23a3,3,0,0,0,0,5.91h0.23A3,3,0,0,0,119.83,359.85Z" transform="translate(0 0)"/><path class="c" d="M110.52,359.85a3,3,0,0,0-3-2.95h-0.23a3,3,0,0,0,0,5.91h0.23A3,3,0,0,0,110.52,359.85Z" transform="translate(0 0)"/><path class="c" d="M101.21,359.85a3,3,0,0,0-3-2.95H98a3,3,0,0,0,0,5.91h0.23A3,3,0,0,0,101.21,359.85Z" transform="translate(0 0)"/><path class="c" d="M91.91,359.85a3,3,0,0,0-3-2.95H88.73a3,3,0,0,0,0,5.91H89A3,3,0,0,0,91.91,359.85Z" transform="translate(0 0)"/><path class="c" d="M82.6,359.85a3,3,0,0,0-3-2.95H79.42a3,3,0,0,0,0,5.91h0.23A3,3,0,0,0,82.6,359.85Z" transform="translate(0 0)"/><path class="c" d="M194.3,368.82a3,3,0,0,0-3-3h-0.23a3,3,0,0,0,0,5.9h0.23A3,3,0,0,0,194.3,368.82Z" transform="translate(0 0)"/><path class="c" d="M185,368.82a3,3,0,0,0-3-3h-0.23a3,3,0,0,0,0,5.9H182A3,3,0,0,0,185,368.82Z" transform="translate(0 0)"/><path class="c" d="M175.68,368.82a3,3,0,0,0-3-3H172.5a3,3,0,0,0,0,5.9h0.23A3,3,0,0,0,175.68,368.82Z" transform="translate(0 0)"/><path class="c" d="M166.37,368.82a3,3,0,0,0-3-3h-0.23a3,3,0,0,0,0,5.9h0.23A3,3,0,0,0,166.37,368.82Z" transform="translate(0 0)"/><path class="c" d="M157.06,368.82a3,3,0,0,0-3-3h-0.23a3,3,0,0,0,0,5.9h0.23A3,3,0,0,0,157.06,368.82Z" transform="translate(0 0)"/><path class="c" d="M147.76,368.82a3,3,0,0,0-2.95-3h-0.23a3,3,0,1,0,0,5.9h0.23A3,3,0,0,0,147.76,368.82Z" transform="translate(0 0)"/><path class="c" d="M138.45,368.82a3,3,0,0,0-3-3h-0.23a3,3,0,1,0,0,5.9h0.23A3,3,0,0,0,138.45,368.82Z" transform="translate(0 0)"/><path class="c" d="M129.14,368.82a3,3,0,0,0-2.95-3H126a3,3,0,0,0,0,5.9h0.23A3,3,0,0,0,129.14,368.82Z" transform="translate(0 0)"/><path class="c" d="M119.83,368.82a3,3,0,0,0-3-3h-0.23a3,3,0,1,0,0,5.9h0.23A3,3,0,0,0,119.83,368.82Z" transform="translate(0 0)"/><path class="c" d="M110.52,368.82a3,3,0,0,0-3-3h-0.22a3,3,0,1,0,0,5.9h0.22A3,3,0,0,0,110.52,368.82Z" transform="translate(0 0)"/><path class="c" d="M101.21,368.82a3,3,0,0,0-3-3H98a3,3,0,1,0,0,5.9h0.23A3,3,0,0,0,101.21,368.82Z" transform="translate(0 0)"/><path class="c" d="M91.9,368.82a3,3,0,0,0-3-3H88.73a3,3,0,0,0,0,5.9H89A3,3,0,0,0,91.9,368.82Z" transform="translate(0 0)"/><path class="c" d="M82.6,368.82a3,3,0,0,0-3-3H79.42a3,3,0,0,0,0,5.9h0.23A3,3,0,0,0,82.6,368.82Z" transform="translate(0 0)"/><path class="c" d="M194.3,377.79a3,3,0,0,0-3-3h-0.23a3,3,0,0,0,0,5.9h0.23A3,3,0,0,0,194.3,377.79Z" transform="translate(0 0)"/><path class="c" d="M185,377.79a3,3,0,0,0-3-3h-0.23a3,3,0,1,0,0,5.9H182A3,3,0,0,0,185,377.79Z" transform="translate(0 0)"/><path class="c" d="M175.68,377.79a3,3,0,0,0-3-3H172.5a3,3,0,1,0,0,5.9h0.23A3,3,0,0,0,175.68,377.79Z" transform="translate(0 0)"/><path class="c" d="M166.37,377.79a3,3,0,0,0-3-3h-0.23a3,3,0,0,0,0,5.9h0.23A3,3,0,0,0,166.37,377.79Z" transform="translate(0 0)"/><path class="c" d="M157.06,377.79a3,3,0,0,0-3-3h-0.23a3,3,0,0,0,0,5.9h0.23A3,3,0,0,0,157.06,377.79Z" transform="translate(0 0)"/><path class="c" d="M147.76,377.79a3,3,0,0,0-3-3h-0.23a3,3,0,1,0,0,5.9h0.23A3,3,0,0,0,147.76,377.79Z" transform="translate(0 0)"/><path class="c" d="M138.45,377.79a3,3,0,0,0-3-3h-0.23a3,3,0,0,0,0,5.9h0.23A3,3,0,0,0,138.45,377.79Z" transform="translate(0 0)"/><path class="c" d="M129.14,377.79a3,3,0,0,0-3-3H126a3,3,0,0,0,0,5.9h0.23A3,3,0,0,0,129.14,377.79Z" transform="translate(0 0)"/><path class="c" d="M119.83,377.79a3,3,0,0,0-3-3h-0.23a3,3,0,1,0,0,5.9h0.23A3,3,0,0,0,119.83,377.79Z" transform="translate(0 0)"/><path class="c" d="M110.52,377.79a3,3,0,0,0-3-3h-0.23a3,3,0,1,0,0,5.9h0.23A3,3,0,0,0,110.52,377.79Z" transform="translate(0 0)"/><path class="c" d="M101.21,377.79a3,3,0,0,0-3-3H98a3,3,0,0,0,0,5.9h0.23A3,3,0,0,0,101.21,377.79Z" transform="translate(0 0)"/><path class="c" d="M91.91,377.79a3,3,0,0,0-3-3H88.73a3,3,0,1,0,0,5.9H89A3,3,0,0,0,91.91,377.79Z" transform="translate(0 0)"/><path class="c" d="M82.6,377.79a3,3,0,0,0-3-3H79.42a3,3,0,1,0,0,5.9h0.23A3,3,0,0,0,82.6,377.79Z" transform="translate(0 0)"/><path class="c" d="M194.3,386.76a3,3,0,0,0-3-3h-0.23a2.95,2.95,0,1,0,0,5.9h0.23A3,3,0,0,0,194.3,386.76Z" transform="translate(0 0)"/><path class="c" d="M185,386.76a3,3,0,0,0-3-3h-0.23a2.95,2.95,0,1,0,0,5.9H182A3,3,0,0,0,185,386.76Z" transform="translate(0 0)"/><path class="c" d="M175.68,386.76a3,3,0,0,0-3-3H172.5a2.95,2.95,0,1,0,0,5.9h0.23A3,3,0,0,0,175.68,386.76Z" transform="translate(0 0)"/><path class="c" d="M166.38,386.76a3,3,0,0,0-3-3H163.2a2.95,2.95,0,1,0,0,5.9h0.23A3,3,0,0,0,166.38,386.76Z" transform="translate(0 0)"/><path class="c" d="M157.06,386.76a3,3,0,0,0-3-3h-0.23a2.95,2.95,0,1,0,0,5.9h0.23A3,3,0,0,0,157.06,386.76Z" transform="translate(0 0)"/><path class="c" d="M147.76,386.76a3,3,0,0,0-3-3h-0.23a2.95,2.95,0,1,0,0,5.9h0.23A3,3,0,0,0,147.76,386.76Z" transform="translate(0 0)"/><path class="c" d="M129.14,386.76a3,3,0,0,0-3-3H126a2.95,2.95,0,1,0,0,5.9h0.23A3,3,0,0,0,129.14,386.76Z" transform="translate(0 0)"/><path class="c" d="M119.83,386.76a3,3,0,0,0-3-3h-0.23a2.95,2.95,0,1,0,0,5.9h0.23A3,3,0,0,0,119.83,386.76Z" transform="translate(0 0)"/><path class="c" d="M110.52,386.76a3,3,0,0,0-3-3h-0.23a2.95,2.95,0,1,0,0,5.9h0.23A3,3,0,0,0,110.52,386.76Z" transform="translate(0 0)"/><path class="c" d="M101.21,386.76a3,3,0,0,0-3-3H98a2.95,2.95,0,1,0,0,5.9h0.23A3,3,0,0,0,101.21,386.76Z" transform="translate(0 0)"/><path class="c" d="M91.91,386.76a3,3,0,0,0-3-3H88.73a2.95,2.95,0,1,0,0,5.9H89A3,3,0,0,0,91.91,386.76Z" transform="translate(0 0)"/><path class="c" d="M82.6,386.76a3,3,0,0,0-3-3H79.42a2.95,2.95,0,1,0,0,5.9h0.23A3,3,0,0,0,82.6,386.76Z" transform="translate(0 0)"/><path class="c" d="M194.3,395.73a3,3,0,0,0-3-3h-0.23a3,3,0,0,0,0,5.9h0.23A3,3,0,0,0,194.3,395.73Z" transform="translate(0 0)"/><path class="c" d="M185,395.73a3,3,0,0,0-3-3h-0.23a3,3,0,0,0,0,5.9H182A3,3,0,0,0,185,395.73Z" transform="translate(0 0)"/><path class="c" d="M166.37,395.73a3,3,0,0,0-3-3h-0.23a3,3,0,0,0,0,5.9h0.23A3,3,0,0,0,166.37,395.73Z" transform="translate(0 0)"/><path class="c" d="M157.06,395.73a3,3,0,0,0-3-3h-0.23a3,3,0,0,0,0,5.9h0.23A3,3,0,0,0,157.06,395.73Z" transform="translate(0 0)"/><path class="c" d="M147.76,395.73a3,3,0,0,0-2.95-3h-0.23a3,3,0,1,0,0,5.9h0.23A3,3,0,0,0,147.76,395.73Z" transform="translate(0 0)"/><path class="c" d="M129.14,395.73a3,3,0,0,0-2.95-3H126a3,3,0,0,0,0,5.9h0.23A3,3,0,0,0,129.14,395.73Z" transform="translate(0 0)"/><path class="c" d="M119.83,395.73a3,3,0,0,0-3-3h-0.23a3,3,0,0,0,0,5.9h0.23A3,3,0,0,0,119.83,395.73Z" transform="translate(0 0)"/><path class="c" d="M110.52,395.73a3,3,0,0,0-3-3h-0.22a3,3,0,1,0,0,5.9h0.22A3,3,0,0,0,110.52,395.73Z" transform="translate(0 0)"/><path class="c" d="M91.9,395.73a3,3,0,0,0-3-3H88.73a3,3,0,0,0,0,5.9H89A3,3,0,0,0,91.9,395.73Z" transform="translate(0 0)"/><path class="c" d="M82.6,395.73a3,3,0,0,0-3-3H79.42a3,3,0,0,0,0,5.9h0.23A3,3,0,0,0,82.6,395.73Z" transform="translate(0 0)"/><path class="c" d="M166.37,404.71a3,3,0,0,0-3-3h-0.23a3,3,0,0,0,0,5.91h0.23A3,3,0,0,0,166.37,404.71Z" transform="translate(0 0)"/><path class="c" d="M157.06,404.71a3,3,0,0,0-3-3h-0.23a3,3,0,0,0,0,5.91h0.23A3,3,0,0,0,157.06,404.71Z" transform="translate(0 0)"/><path class="c" d="M147.76,404.71a3,3,0,0,0-3-3h-0.23a3,3,0,0,0,0,5.91h0.23A3,3,0,0,0,147.76,404.71Z" transform="translate(0 0)"/><path class="c" d="M129.14,404.71a3,3,0,0,0-3-3H126a3,3,0,0,0,0,5.91h0.23A3,3,0,0,0,129.14,404.71Z" transform="translate(0 0)"/><path class="c" d="M119.83,404.71a3,3,0,0,0-3-3h-0.23a3,3,0,0,0,0,5.91h0.23A3,3,0,0,0,119.83,404.71Z" transform="translate(0 0)"/><path class="c" d="M110.52,404.71a3,3,0,0,0-3-3h-0.23a3,3,0,0,0,0,5.91h0.23A3,3,0,0,0,110.52,404.71Z" transform="translate(0 0)"/><path class="c" d="M166.38,413.67a3,3,0,0,0-3-3H163.2a2.95,2.95,0,1,0,0,5.9h0.23A3,3,0,0,0,166.38,413.67Z" transform="translate(0 0)"/><path class="c" d="M157.06,413.67a3,3,0,0,0-3-3h-0.23a2.95,2.95,0,1,0,0,5.9h0.23A3,3,0,0,0,157.06,413.67Z" transform="translate(0 0)"/><path class="c" d="M147.76,413.67a3,3,0,0,0-3-3h-0.23a2.95,2.95,0,1,0,0,5.9h0.23A3,3,0,0,0,147.76,413.67Z" transform="translate(0 0)"/><path class="c" d="M129.14,413.67a3,3,0,0,0-3-3H126a2.95,2.95,0,1,0,0,5.9h0.23A3,3,0,0,0,129.14,413.67Z" transform="translate(0 0)"/><path class="c" d="M119.83,413.67a3,3,0,0,0-3-3h-0.23a2.95,2.95,0,1,0,0,5.9h0.23A3,3,0,0,0,119.83,413.67Z" transform="translate(0 0)"/><path class="c" d="M110.52,413.67a3,3,0,0,0-3-3h-0.23a2.95,2.95,0,1,0,0,5.9h0.23A3,3,0,0,0,110.52,413.67Z" transform="translate(0 0)"/><path class="c" d="M166.37,422.65a3,3,0,0,0-3-3h-0.23a3,3,0,1,0,0,5.9h0.23A3,3,0,0,0,166.37,422.65Z" transform="translate(0 0)"/><path class="c" d="M157.06,422.65a3,3,0,0,0-3-3h-0.23a3,3,0,0,0,0,5.9h0.23A3,3,0,0,0,157.06,422.65Z" transform="translate(0 0)"/><path class="c" d="M147.76,422.65a3,3,0,0,0-2.95-3h-0.23a3,3,0,1,0,0,5.9h0.23A3,3,0,0,0,147.76,422.65Z" transform="translate(0 0)"/><path class="c" d="M129.14,422.65a3,3,0,0,0-2.95-3H126a3,3,0,0,0,0,5.9h0.23A3,3,0,0,0,129.14,422.65Z" transform="translate(0 0)"/><path class="c" d="M119.83,422.65a3,3,0,0,0-3-3h-0.23a3,3,0,1,0,0,5.9h0.23A3,3,0,0,0,119.83,422.65Z" transform="translate(0 0)"/><path class="c" d="M110.52,422.65a3,3,0,0,0-3-3h-0.22a3,3,0,1,0,0,5.9h0.22A3,3,0,0,0,110.52,422.65Z" transform="translate(0 0)"/><path class="c" d="M166.37,431.61a3,3,0,0,0-3-2.95h-0.23a3,3,0,0,0,0,5.91h0.23A3,3,0,0,0,166.37,431.61Z" transform="translate(0 0)"/><path class="c" d="M157.06,431.61a3,3,0,0,0-3-2.95h-0.23a3,3,0,0,0,0,5.91h0.23A3,3,0,0,0,157.06,431.61Z" transform="translate(0 0)"/><path class="c" d="M147.76,431.61a3,3,0,0,0-3-2.95h-0.23a3,3,0,0,0,0,5.91h0.23A3,3,0,0,0,147.76,431.61Z" transform="translate(0 0)"/><path class="c" d="M129.14,431.61a3,3,0,0,0-3-2.95H126a3,3,0,0,0,0,5.91h0.23A3,3,0,0,0,129.14,431.61Z" transform="translate(0 0)"/><path class="c" d="M119.83,431.61a3,3,0,0,0-3-2.95h-0.23a3,3,0,0,0,0,5.91h0.23A3,3,0,0,0,119.83,431.61Z" transform="translate(0 0)"/><path class="c" d="M110.52,431.61a3,3,0,0,0-3-2.95h-0.23a3,3,0,0,0,0,5.91h0.23A3,3,0,0,0,110.52,431.61Z" transform="translate(0 0)"/><path class="c" d="M166.38,440.58a3,3,0,0,0-3-2.95H163.2a3,3,0,1,0,0,5.9h0.23A3,3,0,0,0,166.38,440.58Z" transform="translate(0 0)"/><path class="c" d="M157.06,440.58a3,3,0,0,0-3-2.95h-0.23a3,3,0,0,0,0,5.9h0.23A3,3,0,0,0,157.06,440.58Z" transform="translate(0 0)"/><path class="c" d="M147.76,440.58a3,3,0,0,0-3-2.95h-0.23a3,3,0,1,0,0,5.9h0.23A3,3,0,0,0,147.76,440.58Z" transform="translate(0 0)"/><path class="c" d="M129.14,440.58a3,3,0,0,0-3-2.95H126a3,3,0,1,0,0,5.9h0.23A3,3,0,0,0,129.14,440.58Z" transform="translate(0 0)"/><path class="c" d="M119.83,440.58a3,3,0,0,0-3-2.95h-0.23a3,3,0,1,0,0,5.9h0.23A3,3,0,0,0,119.83,440.58Z" transform="translate(0 0)"/><path class="c" d="M110.52,440.58a3,3,0,0,0-3-2.95h-0.23a3,3,0,1,0,0,5.9h0.23A3,3,0,0,0,110.52,440.58Z" transform="translate(0 0)"/><path class="c" d="M166.37,449.56a3,3,0,0,0-3-3h-0.23a3,3,0,1,0,0,5.9h0.23A3,3,0,0,0,166.37,449.56Z" transform="translate(0 0)"/><path class="c" d="M157.06,449.56a3,3,0,0,0-3-3h-0.23a3,3,0,0,0,0,5.9h0.23A3,3,0,0,0,157.06,449.56Z" transform="translate(0 0)"/><path class="c" d="M147.76,449.56a3,3,0,0,0-3-3h-0.23a3,3,0,1,0,0,5.9h0.23A3,3,0,0,0,147.76,449.56Z" transform="translate(0 0)"/><path class="c" d="M129.14,449.56a3,3,0,0,0-3-3H126a3,3,0,0,0,0,5.9h0.23A3,3,0,0,0,129.14,449.56Z" transform="translate(0 0)"/><path class="c" d="M119.83,449.56a3,3,0,0,0-3-3h-0.23a3,3,0,1,0,0,5.9h0.23A3,3,0,0,0,119.83,449.56Z" transform="translate(0 0)"/><path class="c" d="M110.52,449.56a3,3,0,0,0-3-3h-0.23a3,3,0,1,0,0,5.9h0.23A3,3,0,0,0,110.52,449.56Z" transform="translate(0 0)"/><path class="c" d="M166.37,458.52a3,3,0,0,0-3-2.95h-0.23a3,3,0,0,0,0,5.91h0.23A3,3,0,0,0,166.37,458.52Z" transform="translate(0 0)"/><path class="c" d="M157.06,458.52a3,3,0,0,0-3-2.95h-0.23a3,3,0,0,0,0,5.91h0.23A3,3,0,0,0,157.06,458.52Z" transform="translate(0 0)"/><path class="c" d="M147.76,458.52a3,3,0,0,0-3-2.95h-0.23a3,3,0,0,0,0,5.91h0.23A3,3,0,0,0,147.76,458.52Z" transform="translate(0 0)"/><path class="c" d="M129.14,458.52a3,3,0,0,0-3-2.95H126a3,3,0,0,0,0,5.91h0.23A3,3,0,0,0,129.14,458.52Z" transform="translate(0 0)"/><path class="c" d="M119.83,458.52a3,3,0,0,0-3-2.95h-0.23a3,3,0,0,0,0,5.91h0.23A3,3,0,0,0,119.83,458.52Z" transform="translate(0 0)"/><path class="c" d="M110.52,458.52a3,3,0,0,0-3-2.95h-0.23a3,3,0,0,0,0,5.91h0.23A3,3,0,0,0,110.52,458.52Z" transform="translate(0 0)"/><path class="c" d="M166.37,467.49a3,3,0,0,0-3-3h-0.23a3,3,0,0,0,0,5.9h0.23A3,3,0,0,0,166.37,467.49Z" transform="translate(0 0)"/><path class="c" d="M157.06,467.49a3,3,0,0,0-3-3h-0.23a3,3,0,0,0,0,5.9h0.23A3,3,0,0,0,157.06,467.49Z" transform="translate(0 0)"/><path class="c" d="M147.76,467.49a3,3,0,0,0-3-3h-0.23a3,3,0,1,0,0,5.9h0.23A3,3,0,0,0,147.76,467.49Z" transform="translate(0 0)"/><path class="c" d="M129.14,467.49a3,3,0,0,0-3-3H126a3,3,0,0,0,0,5.9h0.23A3,3,0,0,0,129.14,467.49Z" transform="translate(0 0)"/><path class="c" d="M119.83,467.49a3,3,0,0,0-3-3h-0.23a3,3,0,1,0,0,5.9h0.23A3,3,0,0,0,119.83,467.49Z" transform="translate(0 0)"/><path class="c" d="M110.52,467.49a3,3,0,0,0-3-3h-0.23a3,3,0,1,0,0,5.9h0.23A3,3,0,0,0,110.52,467.49Z" transform="translate(0 0)"/><path class="c" d="M166.37,476.47a3,3,0,0,0-3-3h-0.23a3,3,0,1,0,0,5.9h0.23A3,3,0,0,0,166.37,476.47Z" transform="translate(0 0)"/><path class="c" d="M157.06,476.47a3,3,0,0,0-3-3h-0.23a3,3,0,0,0,0,5.9h0.23A3,3,0,0,0,157.06,476.47Z" transform="translate(0 0)"/><path class="c" d="M147.76,476.47a3,3,0,0,0-3-3h-0.23a3,3,0,1,0,0,5.9h0.23A3,3,0,0,0,147.76,476.47Z" transform="translate(0 0)"/><path class="c" d="M129.14,476.47a3,3,0,0,0-3-3H126a3,3,0,1,0,0,5.9h0.23A3,3,0,0,0,129.14,476.47Z" transform="translate(0 0)"/><path class="c" d="M119.83,476.47a3,3,0,0,0-3-3h-0.23a3,3,0,1,0,0,5.9h0.23A3,3,0,0,0,119.83,476.47Z" transform="translate(0 0)"/><path class="c" d="M110.52,476.47a3,3,0,0,0-3-3h-0.23a3,3,0,1,0,0,5.9h0.23A3,3,0,0,0,110.52,476.47Z" transform="translate(0 0)"/><path class="c" d="M166.37,485.43a3,3,0,0,0-3-3h-0.23a3,3,0,0,0,0,5.91h0.23A3,3,0,0,0,166.37,485.43Z" transform="translate(0 0)"/><path class="c" d="M157.06,485.43a3,3,0,0,0-3-3h-0.23a3,3,0,0,0,0,5.91h0.23A3,3,0,0,0,157.06,485.43Z" transform="translate(0 0)"/><path class="c" d="M147.76,485.43a3,3,0,0,0-3-3h-0.23a3,3,0,0,0,0,5.91h0.23A3,3,0,0,0,147.76,485.43Z" transform="translate(0 0)"/><path class="c" d="M129.14,485.43a3,3,0,0,0-3-3H126a3,3,0,0,0,0,5.91h0.23A3,3,0,0,0,129.14,485.43Z" transform="translate(0 0)"/><path class="c" d="M119.83,485.43a3,3,0,0,0-3-3h-0.23a3,3,0,1,0,0,5.91h0.23A3,3,0,0,0,119.83,485.43Z" transform="translate(0 0)"/><path class="c" d="M110.52,485.43a3,3,0,0,0-3-3h-0.23a3,3,0,0,0,0,5.91h0.23A3,3,0,0,0,110.52,485.43Z" transform="translate(0 0)"/><path class="c" d="M166.37,494.41a3,3,0,0,0-3-2.95h-0.23a3,3,0,1,0,0,5.9h0.23A3,3,0,0,0,166.37,494.41Z" transform="translate(0 0)"/><path class="c" d="M157.06,494.41a3,3,0,0,0-3-2.95h-0.23a3,3,0,0,0,0,5.9h0.23A3,3,0,0,0,157.06,494.41Z" transform="translate(0 0)"/><path class="c" d="M147.76,494.41a3,3,0,0,0-3-2.95h-0.23a3,3,0,1,0,0,5.9h0.23A3,3,0,0,0,147.76,494.41Z" transform="translate(0 0)"/><path class="c" d="M129.14,494.41a3,3,0,0,0-3-2.95H126a3,3,0,0,0,0,5.9h0.23A3,3,0,0,0,129.14,494.41Z" transform="translate(0 0)"/><path class="c" d="M119.83,494.41a3,3,0,0,0-3-2.95h-0.23a3,3,0,1,0,0,5.9h0.23A3,3,0,0,0,119.83,494.41Z" transform="translate(0 0)"/><path class="c" d="M110.52,494.41a3,3,0,0,0-3-2.95h-0.23a3,3,0,1,0,0,5.9h0.23A3,3,0,0,0,110.52,494.41Z" transform="translate(0 0)"/><path class="c" d="M166.37,503.38a3,3,0,0,0-3-3h-0.23a3,3,0,1,0,0,5.9h0.23A3,3,0,0,0,166.37,503.38Z" transform="translate(0 0)"/><path class="c" d="M157.06,503.38a3,3,0,0,0-3-3h-0.23a3,3,0,0,0,0,5.9h0.23A3,3,0,0,0,157.06,503.38Z" transform="translate(0 0)"/><path class="c" d="M147.76,503.38a3,3,0,0,0-3-3h-0.23a3,3,0,1,0,0,5.9h0.23A3,3,0,0,0,147.76,503.38Z" transform="translate(0 0)"/><path class="c" d="M129.14,503.38a3,3,0,0,0-3-3H126a3,3,0,0,0,0,5.9h0.23A3,3,0,0,0,129.14,503.38Z" transform="translate(0 0)"/><path class="c" d="M119.83,503.38a3,3,0,0,0-3-3h-0.23a3,3,0,1,0,0,5.9h0.23A3,3,0,0,0,119.83,503.38Z" transform="translate(0 0)"/><path class="c" d="M110.52,503.38a3,3,0,0,0-3-3h-0.23a3,3,0,1,0,0,5.9h0.23A3,3,0,0,0,110.52,503.38Z" transform="translate(0 0)"/><path class="c" d="M166.37,512.34a3,3,0,0,0-3-3h-0.23a3,3,0,1,0,0,5.9h0.23A3,3,0,0,0,166.37,512.34Z" transform="translate(0 0)"/><path class="c" d="M157.06,512.34a3,3,0,0,0-3-3h-0.23a3,3,0,0,0,0,5.9h0.23A3,3,0,0,0,157.06,512.34Z" transform="translate(0 0)"/><path class="c" d="M147.76,512.34a3,3,0,0,0-3-3h-0.23a3,3,0,1,0,0,5.9h0.23A3,3,0,0,0,147.76,512.34Z" transform="translate(0 0)"/><path class="c" d="M129.14,512.34a3,3,0,0,0-3-3H126a3,3,0,0,0,0,5.9h0.23A3,3,0,0,0,129.14,512.34Z" transform="translate(0 0)"/><path class="c" d="M119.83,512.34a3,3,0,0,0-3-3h-0.23a3,3,0,1,0,0,5.9h0.23A3,3,0,0,0,119.83,512.34Z" transform="translate(0 0)"/><path class="c" d="M110.52,512.34a3,3,0,0,0-3-3h-0.23a3,3,0,1,0,0,5.9h0.23A3,3,0,0,0,110.52,512.34Z" transform="translate(0 0)"/><path class="c" d="M166.37,521.32a3,3,0,0,0-3-2.95h-0.23a3,3,0,1,0,0,5.9h0.23A3,3,0,0,0,166.37,521.32Z" transform="translate(0 0)"/><path class="c" d="M157.06,521.32a3,3,0,0,0-3-2.95h-0.23a3,3,0,0,0,0,5.9h0.23A3,3,0,0,0,157.06,521.32Z" transform="translate(0 0)"/><path class="c" d="M147.76,521.32a3,3,0,0,0-3-2.95h-0.23a3,3,0,1,0,0,5.9h0.23A3,3,0,0,0,147.76,521.32Z" transform="translate(0 0)"/><path class="c" d="M129.14,521.32a3,3,0,0,0-3-2.95H126a3,3,0,0,0,0,5.9h0.23A3,3,0,0,0,129.14,521.32Z" transform="translate(0 0)"/><path class="c" d="M119.83,521.32a3,3,0,0,0-3-2.95h-0.23a3,3,0,1,0,0,5.9h0.23A3,3,0,0,0,119.83,521.32Z" transform="translate(0 0)"/><path class="c" d="M110.52,521.32a3,3,0,0,0-3-2.95h-0.23a3,3,0,1,0,0,5.9h0.23A3,3,0,0,0,110.52,521.32Z" transform="translate(0 0)"/></g><line class="g" x1="101.73" y1="271.79" x2="101.73" y2="356.02"/><line class="g" x1="169.06" y1="271.79" x2="169.06" y2="356.02"/><polygon class="h" points="425.2 23.57 401.63 0 212.6 189.03 23.57 0 0 23.57 189.03 212.6 0 401.63 23.57 425.2 212.6 236.18 401.63 425.2 425.2 401.63 236.18 212.6 425.2 23.57"/></svg>