<svg xmlns="http://www.w3.org/2000/svg" xmlns:xlink="http://www.w3.org/1999/xlink" width="150mm" height="169.67mm" viewBox="0 0 425.2 480.95"><defs><style>.a{fill:none;}.b{fill:#fff;}.c{fill:#0086a8;}.d{clip-path:url(#a);}.e{fill:#258981;stroke:#fff;stroke-linecap:round;stroke-miterlimit:10;stroke-width:4.45px;}.f{fill:#00577e;}.g{fill:#e41f18;opacity:0.75;}</style><clipPath id="a" transform="translate(0 0)"><path class="a" d="M75.4,355V283.84a11.75,11.75,0,0,1,11.75-11.75h8.22v0h49.35v0h8.22a11.75,11.75,0,0,1,11.75,11.75V355H147.07V295.59h0v0a1.17,1.17,0,1,0-2.35,0s0,0,0,0h0V355H95.37V295.59h0s0,0,0,0a1.18,1.18,0,1,0-2.35,0v0h0V355H75.4Zm44.65-85.31a23.5,23.5,0,1,0-23.51-23.5A23.5,23.5,0,0,0,120.05,269.72Z"/></clipPath></defs><title>geen_partner_en_wezenpensioen_op_risicobasis</title><rect class="b" x="49.61" y="49.61" width="325.98" height="325.98" rx="35.43" ry="35.43"/><path class="c" d="M340.16,56.69A28.38,28.38,0,0,1,368.5,85V340.16a28.38,28.38,0,0,1-28.35,28.35H85a28.38,28.38,0,0,1-28.35-28.35V85A28.38,28.38,0,0,1,85,56.69H340.16m0-14.17H85A42.64,42.64,0,0,0,42.52,85V340.16A42.64,42.64,0,0,0,85,382.68H340.16a42.64,42.64,0,0,0,42.52-42.52V85a42.64,42.64,0,0,0-42.52-42.52h0Z" transform="translate(0 0)"/><path class="c" d="M313.13,299.51a18.4,18.4,0,1,0-18.41-18.41A18.41,18.41,0,0,0,313.13,299.51Z" transform="translate(0 0)"/><path class="c" d="M338.89,301.37h-6.44v0H293.81v0h-6.44a9.21,9.21,0,0,0-9.2,9.21v43.92h13V318.83a1.74,1.74,0,0,1,3.48,0v35.66h36.9V318.83a1.74,1.74,0,0,1,3.48,0v35.66h13.08V310.57A9.2,9.2,0,0,0,338.89,301.37Z" transform="translate(0 0)"/><path class="c" d="M220.95,269.21a23.5,23.5,0,1,0-23.51-23.5A23.5,23.5,0,0,0,220.95,269.21Z" transform="translate(0 0)"/><path class="c" d="M253.84,271.58h-8.22v0H196.27v0h-8.22a11.75,11.75,0,0,0-11.75,11.75v71.19h16.57V293.88a2.22,2.22,0,1,1,4.45,0v60.64h47.12V293.88a2.22,2.22,0,1,1,4.45,0v60.64h16.71V283.34A11.75,11.75,0,0,0,253.84,271.58Z" transform="translate(0 0)"/><g class="d"><path class="c" d="M136.1,226.2a2.19,2.19,0,0,0-2.19-2.19h-0.17a2.19,2.19,0,0,0,0,4.37h0.17A2.19,2.19,0,0,0,136.1,226.2Z" transform="translate(0 0)"/><path class="c" d="M129.2,226.2A2.19,2.19,0,0,0,127,224h-0.17a2.19,2.19,0,1,0,0,4.37H127A2.19,2.19,0,0,0,129.2,226.2Z" transform="translate(0 0)"/><path class="c" d="M122.31,226.2a2.19,2.19,0,0,0-2.19-2.19H120a2.19,2.19,0,1,0,0,4.37h0.17A2.19,2.19,0,0,0,122.31,226.2Z" transform="translate(0 0)"/><path class="c" d="M115.41,226.2a2.19,2.19,0,0,0-2.19-2.19h-0.17a2.19,2.19,0,0,0,0,4.37h0.17A2.19,2.19,0,0,0,115.41,226.2Z" transform="translate(0 0)"/><path class="c" d="M108.51,226.2a2.19,2.19,0,0,0-2.19-2.19h-0.17a2.19,2.19,0,1,0,0,4.37h0.17A2.19,2.19,0,0,0,108.51,226.2Z" transform="translate(0 0)"/><path class="c" d="M143,232.85a2.19,2.19,0,0,0-2.19-2.19h-0.17a2.19,2.19,0,0,0,0,4.37h0.17A2.19,2.19,0,0,0,143,232.85Z" transform="translate(0 0)"/><path class="c" d="M136.1,232.85a2.19,2.19,0,0,0-2.19-2.19h-0.17a2.19,2.19,0,0,0,0,4.37h0.17A2.19,2.19,0,0,0,136.1,232.85Z" transform="translate(0 0)"/><path class="c" d="M129.21,232.85a2.19,2.19,0,0,0-2.19-2.19h-0.17a2.19,2.19,0,1,0,0,4.37H127A2.19,2.19,0,0,0,129.21,232.85Z" transform="translate(0 0)"/><path class="c" d="M122.31,232.85a2.19,2.19,0,0,0-2.19-2.19H120a2.19,2.19,0,0,0,0,4.37h0.17A2.19,2.19,0,0,0,122.31,232.85Z" transform="translate(0 0)"/><path class="c" d="M115.41,232.85a2.19,2.19,0,0,0-2.19-2.19h-0.17a2.19,2.19,0,0,0,0,4.37h0.17A2.19,2.19,0,0,0,115.41,232.85Z" transform="translate(0 0)"/><path class="c" d="M108.52,232.85a2.19,2.19,0,0,0-2.19-2.19h-0.17a2.19,2.19,0,1,0,0,4.37h0.17A2.19,2.19,0,0,0,108.52,232.85Z" transform="translate(0 0)"/><path class="c" d="M101.62,232.85a2.19,2.19,0,0,0-2.19-2.19H99.26a2.19,2.19,0,1,0,0,4.37h0.17A2.19,2.19,0,0,0,101.62,232.85Z" transform="translate(0 0)"/><path class="c" d="M143,239.5a2.19,2.19,0,0,0-2.19-2.19h-0.17a2.19,2.19,0,0,0,0,4.37h0.17A2.19,2.19,0,0,0,143,239.5Z" transform="translate(0 0)"/><path class="c" d="M136.1,239.5a2.19,2.19,0,0,0-2.19-2.19h-0.17a2.19,2.19,0,0,0,0,4.37h0.17A2.19,2.19,0,0,0,136.1,239.5Z" transform="translate(0 0)"/><path class="c" d="M129.21,239.5a2.19,2.19,0,0,0-2.19-2.19h-0.17a2.19,2.19,0,1,0,0,4.37H127A2.19,2.19,0,0,0,129.21,239.5Z" transform="translate(0 0)"/><path class="c" d="M122.31,239.5a2.19,2.19,0,0,0-2.19-2.19H120a2.19,2.19,0,0,0,0,4.37h0.17A2.19,2.19,0,0,0,122.31,239.5Z" transform="translate(0 0)"/><path class="c" d="M115.41,239.5a2.19,2.19,0,0,0-2.19-2.19h-0.17a2.19,2.19,0,0,0,0,4.37h0.17A2.19,2.19,0,0,0,115.41,239.5Z" transform="translate(0 0)"/><path class="c" d="M108.52,239.5a2.19,2.19,0,0,0-2.19-2.19h-0.17a2.19,2.19,0,1,0,0,4.37h0.17A2.19,2.19,0,0,0,108.52,239.5Z" transform="translate(0 0)"/><path class="c" d="M101.62,239.5a2.19,2.19,0,0,0-2.19-2.19H99.26a2.19,2.19,0,0,0,0,4.37h0.17A2.19,2.19,0,0,0,101.62,239.5Z" transform="translate(0 0)"/><path class="c" d="M143,246.14a2.19,2.19,0,0,0-2.19-2.19h-0.17a2.19,2.19,0,0,0,0,4.37h0.17A2.19,2.19,0,0,0,143,246.14Z" transform="translate(0 0)"/><path class="c" d="M136.1,246.14a2.19,2.19,0,0,0-2.19-2.19h-0.17a2.19,2.19,0,0,0,0,4.37h0.17A2.19,2.19,0,0,0,136.1,246.14Z" transform="translate(0 0)"/><path class="c" d="M129.2,246.14A2.19,2.19,0,0,0,127,244h-0.17a2.19,2.19,0,1,0,0,4.37H127A2.19,2.19,0,0,0,129.2,246.14Z" transform="translate(0 0)"/><path class="c" d="M122.31,246.14a2.19,2.19,0,0,0-2.19-2.19H120a2.19,2.19,0,1,0,0,4.37h0.17A2.19,2.19,0,0,0,122.31,246.14Z" transform="translate(0 0)"/><path class="c" d="M115.41,246.14a2.19,2.19,0,0,0-2.19-2.19h-0.17a2.19,2.19,0,0,0,0,4.37h0.17A2.19,2.19,0,0,0,115.41,246.14Z" transform="translate(0 0)"/><path class="c" d="M108.51,246.14a2.19,2.19,0,0,0-2.19-2.19h-0.17a2.19,2.19,0,1,0,0,4.37h0.17A2.19,2.19,0,0,0,108.51,246.14Z" transform="translate(0 0)"/><path class="c" d="M101.62,246.14A2.19,2.19,0,0,0,99.43,244H99.26a2.19,2.19,0,1,0,0,4.37h0.17A2.19,2.19,0,0,0,101.62,246.14Z" transform="translate(0 0)"/><path class="c" d="M143,252.79a2.19,2.19,0,0,0-2.19-2.19h-0.17a2.19,2.19,0,0,0,0,4.37h0.17A2.19,2.19,0,0,0,143,252.79Z" transform="translate(0 0)"/><path class="c" d="M136.1,252.79a2.19,2.19,0,0,0-2.19-2.19h-0.17a2.19,2.19,0,0,0,0,4.37h0.17A2.19,2.19,0,0,0,136.1,252.79Z" transform="translate(0 0)"/><path class="c" d="M129.21,252.79A2.19,2.19,0,0,0,127,250.6h-0.17a2.19,2.19,0,1,0,0,4.37H127A2.19,2.19,0,0,0,129.21,252.79Z" transform="translate(0 0)"/><path class="c" d="M122.31,252.79a2.19,2.19,0,0,0-2.19-2.19H120a2.19,2.19,0,0,0,0,4.37h0.17A2.19,2.19,0,0,0,122.31,252.79Z" transform="translate(0 0)"/><path class="c" d="M115.41,252.79a2.19,2.19,0,0,0-2.19-2.19h-0.17a2.19,2.19,0,0,0,0,4.37h0.17A2.19,2.19,0,0,0,115.41,252.79Z" transform="translate(0 0)"/><path class="c" d="M108.52,252.79a2.19,2.19,0,0,0-2.19-2.19h-0.17a2.19,2.19,0,1,0,0,4.37h0.17A2.19,2.19,0,0,0,108.52,252.79Z" transform="translate(0 0)"/><path class="c" d="M101.62,252.79a2.19,2.19,0,0,0-2.19-2.19H99.26a2.19,2.19,0,0,0,0,4.37h0.17A2.19,2.19,0,0,0,101.62,252.79Z" transform="translate(0 0)"/><path class="c" d="M143,259.43a2.19,2.19,0,0,0-2.19-2.19h-0.17a2.19,2.19,0,1,0,0,4.37h0.17A2.19,2.19,0,0,0,143,259.43Z" transform="translate(0 0)"/><path class="c" d="M136.1,259.43a2.19,2.19,0,0,0-2.19-2.19h-0.17a2.19,2.19,0,0,0,0,4.37h0.17A2.19,2.19,0,0,0,136.1,259.43Z" transform="translate(0 0)"/><path class="c" d="M129.21,259.43a2.19,2.19,0,0,0-2.19-2.19h-0.17a2.19,2.19,0,1,0,0,4.37H127A2.19,2.19,0,0,0,129.21,259.43Z" transform="translate(0 0)"/><path class="c" d="M122.31,259.43a2.19,2.19,0,0,0-2.19-2.19H120a2.19,2.19,0,1,0,0,4.37h0.17A2.19,2.19,0,0,0,122.31,259.43Z" transform="translate(0 0)"/><path class="c" d="M115.41,259.43a2.19,2.19,0,0,0-2.19-2.19h-0.17a2.19,2.19,0,0,0,0,4.37h0.17A2.19,2.19,0,0,0,115.41,259.43Z" transform="translate(0 0)"/><path class="c" d="M108.52,259.43a2.19,2.19,0,0,0-2.19-2.19h-0.17a2.19,2.19,0,1,0,0,4.37h0.17A2.19,2.19,0,0,0,108.52,259.43Z" transform="translate(0 0)"/><path class="c" d="M101.62,259.43a2.19,2.19,0,0,0-2.19-2.19H99.26a2.19,2.19,0,1,0,0,4.37h0.17A2.19,2.19,0,0,0,101.62,259.43Z" transform="translate(0 0)"/><path class="c" d="M136.1,266.08a2.19,2.19,0,0,0-2.19-2.19h-0.17a2.19,2.19,0,0,0,0,4.37h0.17A2.19,2.19,0,0,0,136.1,266.08Z" transform="translate(0 0)"/><path class="c" d="M129.2,266.08a2.19,2.19,0,0,0-2.19-2.19h-0.17a2.19,2.19,0,1,0,0,4.37H127A2.19,2.19,0,0,0,129.2,266.08Z" transform="translate(0 0)"/><path class="c" d="M122.31,266.08a2.19,2.19,0,0,0-2.19-2.19H120a2.19,2.19,0,1,0,0,4.37h0.17A2.19,2.19,0,0,0,122.31,266.08Z" transform="translate(0 0)"/><path class="c" d="M115.41,266.08a2.19,2.19,0,0,0-2.19-2.19h-0.17a2.19,2.19,0,0,0,0,4.37h0.17A2.19,2.19,0,0,0,115.41,266.08Z" transform="translate(0 0)"/><path class="c" d="M108.51,266.08a2.19,2.19,0,0,0-2.19-2.19h-0.17a2.19,2.19,0,0,0,0,4.37h0.17A2.19,2.19,0,0,0,108.51,266.08Z" transform="translate(0 0)"/><path class="c" d="M156.79,272.73a2.19,2.19,0,0,0-2.19-2.19h-0.17a2.19,2.19,0,1,0,0,4.37h0.17A2.19,2.19,0,0,0,156.79,272.73Z" transform="translate(0 0)"/><path class="c" d="M149.89,272.73a2.18,2.18,0,0,0-2.19-2.19h-0.17a2.19,2.19,0,1,0,0,4.37h0.17A2.19,2.19,0,0,0,149.89,272.73Z" transform="translate(0 0)"/><path class="c" d="M143,272.73a2.19,2.19,0,0,0-2.19-2.19h-0.17a2.19,2.19,0,1,0,0,4.37h0.17A2.19,2.19,0,0,0,143,272.73Z" transform="translate(0 0)"/><path class="c" d="M136.1,272.73a2.19,2.19,0,0,0-2.19-2.19h-0.17a2.19,2.19,0,0,0,0,4.37h0.17A2.19,2.19,0,0,0,136.1,272.73Z" transform="translate(0 0)"/><path class="c" d="M129.21,272.73a2.19,2.19,0,0,0-2.19-2.19h-0.17a2.19,2.19,0,1,0,0,4.37H127A2.19,2.19,0,0,0,129.21,272.73Z" transform="translate(0 0)"/><path class="c" d="M122.31,272.73a2.19,2.19,0,0,0-2.19-2.19H120a2.19,2.19,0,1,0,0,4.37h0.17A2.19,2.19,0,0,0,122.31,272.73Z" transform="translate(0 0)"/><path class="c" d="M115.41,272.73a2.19,2.19,0,0,0-2.19-2.19h-0.17a2.19,2.19,0,1,0,0,4.37h0.17A2.19,2.19,0,0,0,115.41,272.73Z" transform="translate(0 0)"/><path class="c" d="M108.52,272.73a2.19,2.19,0,0,0-2.19-2.19h-0.17a2.19,2.19,0,1,0,0,4.37h0.17A2.19,2.19,0,0,0,108.52,272.73Z" transform="translate(0 0)"/><path class="c" d="M101.62,272.73a2.19,2.19,0,0,0-2.19-2.19H99.26a2.19,2.19,0,1,0,0,4.37h0.17A2.19,2.19,0,0,0,101.62,272.73Z" transform="translate(0 0)"/><path class="c" d="M94.72,272.73a2.19,2.19,0,0,0-2.19-2.19H92.37a2.19,2.19,0,1,0,0,4.37h0.17A2.19,2.19,0,0,0,94.72,272.73Z" transform="translate(0 0)"/><path class="c" d="M87.83,272.73a2.19,2.19,0,0,0-2.19-2.19H85.47a2.19,2.19,0,1,0,0,4.37h0.17A2.19,2.19,0,0,0,87.83,272.73Z" transform="translate(0 0)"/><path class="c" d="M163.69,279.37a2.19,2.19,0,0,0-2.19-2.19h-0.17a2.19,2.19,0,0,0,0,4.37h0.17A2.19,2.19,0,0,0,163.69,279.37Z" transform="translate(0 0)"/><path class="c" d="M156.79,279.37a2.19,2.19,0,0,0-2.19-2.19h-0.17a2.19,2.19,0,1,0,0,4.37h0.17A2.19,2.19,0,0,0,156.79,279.37Z" transform="translate(0 0)"/><path class="c" d="M149.89,279.37a2.18,2.18,0,0,0-2.19-2.19h-0.17a2.19,2.19,0,1,0,0,4.37h0.17A2.18,2.18,0,0,0,149.89,279.37Z" transform="translate(0 0)"/><path class="c" d="M143,279.37a2.19,2.19,0,0,0-2.19-2.19h-0.17a2.19,2.19,0,1,0,0,4.37h0.17A2.19,2.19,0,0,0,143,279.37Z" transform="translate(0 0)"/><path class="c" d="M136.1,279.37a2.19,2.19,0,0,0-2.19-2.19h-0.17a2.19,2.19,0,0,0,0,4.37h0.17A2.19,2.19,0,0,0,136.1,279.37Z" transform="translate(0 0)"/><path class="c" d="M129.21,279.37a2.19,2.19,0,0,0-2.19-2.19h-0.17a2.19,2.19,0,1,0,0,4.37H127A2.19,2.19,0,0,0,129.21,279.37Z" transform="translate(0 0)"/><path class="c" d="M122.31,279.37a2.19,2.19,0,0,0-2.19-2.19H120a2.19,2.19,0,1,0,0,4.37h0.17A2.19,2.19,0,0,0,122.31,279.37Z" transform="translate(0 0)"/><path class="c" d="M115.41,279.37a2.19,2.19,0,0,0-2.19-2.19h-0.17a2.19,2.19,0,1,0,0,4.37h0.17A2.19,2.19,0,0,0,115.41,279.37Z" transform="translate(0 0)"/><path class="c" d="M108.52,279.37a2.19,2.19,0,0,0-2.19-2.19h-0.17a2.19,2.19,0,1,0,0,4.37h0.17A2.19,2.19,0,0,0,108.52,279.37Z" transform="translate(0 0)"/><path class="c" d="M101.62,279.37a2.19,2.19,0,0,0-2.19-2.19H99.26a2.19,2.19,0,1,0,0,4.37h0.17A2.19,2.19,0,0,0,101.62,279.37Z" transform="translate(0 0)"/><path class="c" d="M94.72,279.37a2.19,2.19,0,0,0-2.19-2.19H92.37a2.19,2.19,0,1,0,0,4.37h0.17A2.19,2.19,0,0,0,94.72,279.37Z" transform="translate(0 0)"/><path class="c" d="M87.83,279.37a2.19,2.19,0,0,0-2.19-2.19H85.47a2.19,2.19,0,1,0,0,4.37h0.17A2.19,2.19,0,0,0,87.83,279.37Z" transform="translate(0 0)"/><path class="c" d="M80.93,279.37a2.19,2.19,0,0,0-2.19-2.19H78.57a2.19,2.19,0,1,0,0,4.37h0.17A2.19,2.19,0,0,0,80.93,279.37Z" transform="translate(0 0)"/><path class="c" d="M163.69,286a2.19,2.19,0,0,0-2.19-2.19h-0.17a2.19,2.19,0,0,0,0,4.37h0.17A2.19,2.19,0,0,0,163.69,286Z" transform="translate(0 0)"/><path class="c" d="M156.79,286a2.19,2.19,0,0,0-2.19-2.19h-0.17a2.19,2.19,0,0,0,0,4.37h0.17A2.19,2.19,0,0,0,156.79,286Z" transform="translate(0 0)"/><path class="c" d="M149.9,286a2.19,2.19,0,0,0-2.19-2.19h-0.17a2.19,2.19,0,1,0,0,4.37h0.17A2.19,2.19,0,0,0,149.9,286Z" transform="translate(0 0)"/><path class="c" d="M143,286a2.19,2.19,0,0,0-2.19-2.19h-0.17a2.19,2.19,0,1,0,0,4.37h0.17A2.19,2.19,0,0,0,143,286Z" transform="translate(0 0)"/><path class="c" d="M136.1,286a2.19,2.19,0,0,0-2.19-2.19h-0.17a2.19,2.19,0,0,0,0,4.37h0.17A2.19,2.19,0,0,0,136.1,286Z" transform="translate(0 0)"/><path class="c" d="M129.21,286a2.19,2.19,0,0,0-2.19-2.19h-0.17a2.19,2.19,0,1,0,0,4.37H127A2.19,2.19,0,0,0,129.21,286Z" transform="translate(0 0)"/><path class="c" d="M122.31,286a2.19,2.19,0,0,0-2.19-2.19H120a2.19,2.19,0,1,0,0,4.37h0.17A2.19,2.19,0,0,0,122.31,286Z" transform="translate(0 0)"/><path class="c" d="M115.41,286a2.19,2.19,0,0,0-2.19-2.19h-0.17a2.19,2.19,0,0,0,0,4.37h0.17A2.19,2.19,0,0,0,115.41,286Z" transform="translate(0 0)"/><path class="c" d="M108.52,286a2.19,2.19,0,0,0-2.19-2.19h-0.17a2.19,2.19,0,0,0,0,4.37h0.17A2.19,2.19,0,0,0,108.52,286Z" transform="translate(0 0)"/><path class="c" d="M101.62,286a2.19,2.19,0,0,0-2.19-2.19H99.26a2.19,2.19,0,0,0,0,4.37h0.17A2.19,2.19,0,0,0,101.62,286Z" transform="translate(0 0)"/><path class="c" d="M94.72,286a2.19,2.19,0,0,0-2.19-2.19H92.37a2.19,2.19,0,1,0,0,4.37h0.17A2.19,2.19,0,0,0,94.72,286Z" transform="translate(0 0)"/><path class="c" d="M87.83,286a2.19,2.19,0,0,0-2.19-2.19H85.47a2.19,2.19,0,0,0,0,4.37h0.17A2.19,2.19,0,0,0,87.83,286Z" transform="translate(0 0)"/><path class="c" d="M80.93,286a2.19,2.19,0,0,0-2.19-2.19H78.57a2.19,2.19,0,0,0,0,4.37h0.17A2.19,2.19,0,0,0,80.93,286Z" transform="translate(0 0)"/><path class="c" d="M163.69,292.66a2.19,2.19,0,0,0-2.19-2.19h-0.17a2.19,2.19,0,1,0,0,4.37h0.17A2.19,2.19,0,0,0,163.69,292.66Z" transform="translate(0 0)"/><path class="c" d="M156.79,292.66a2.19,2.19,0,0,0-2.19-2.19h-0.17a2.19,2.19,0,1,0,0,4.37h0.17A2.19,2.19,0,0,0,156.79,292.66Z" transform="translate(0 0)"/><path class="c" d="M149.89,292.66a2.18,2.18,0,0,0-2.19-2.19h-0.17a2.19,2.19,0,1,0,0,4.37h0.17A2.18,2.18,0,0,0,149.89,292.66Z" transform="translate(0 0)"/><path class="c" d="M143,292.66a2.19,2.19,0,0,0-2.19-2.19h-0.17a2.19,2.19,0,1,0,0,4.37h0.17A2.19,2.19,0,0,0,143,292.66Z" transform="translate(0 0)"/><path class="c" d="M136.1,292.66a2.19,2.19,0,0,0-2.19-2.19h-0.17a2.19,2.19,0,0,0,0,4.37h0.17A2.19,2.19,0,0,0,136.1,292.66Z" transform="translate(0 0)"/><path class="c" d="M129.21,292.66a2.19,2.19,0,0,0-2.19-2.19h-0.17a2.19,2.19,0,1,0,0,4.37H127A2.19,2.19,0,0,0,129.21,292.66Z" transform="translate(0 0)"/><path class="c" d="M122.31,292.66a2.19,2.19,0,0,0-2.19-2.19H120a2.19,2.19,0,1,0,0,4.37h0.17A2.19,2.19,0,0,0,122.31,292.66Z" transform="translate(0 0)"/><path class="c" d="M115.41,292.66a2.19,2.19,0,0,0-2.19-2.19h-0.17a2.19,2.19,0,1,0,0,4.37h0.17A2.19,2.19,0,0,0,115.41,292.66Z" transform="translate(0 0)"/><path class="c" d="M108.52,292.66a2.19,2.19,0,0,0-2.19-2.19h-0.17a2.19,2.19,0,1,0,0,4.37h0.17A2.18,2.18,0,0,0,108.52,292.66Z" transform="translate(0 0)"/><path class="c" d="M101.62,292.66a2.19,2.19,0,0,0-2.19-2.19H99.26a2.19,2.19,0,1,0,0,4.37h0.17A2.19,2.19,0,0,0,101.62,292.66Z" transform="translate(0 0)"/><path class="c" d="M94.72,292.66a2.19,2.19,0,0,0-2.19-2.19H92.37a2.19,2.19,0,1,0,0,4.37h0.17A2.18,2.18,0,0,0,94.72,292.66Z" transform="translate(0 0)"/><path class="c" d="M87.83,292.66a2.19,2.19,0,0,0-2.19-2.19H85.47a2.19,2.19,0,1,0,0,4.37h0.17A2.19,2.19,0,0,0,87.83,292.66Z" transform="translate(0 0)"/><path class="c" d="M80.93,292.66a2.19,2.19,0,0,0-2.19-2.19H78.57a2.19,2.19,0,1,0,0,4.37h0.17A2.19,2.19,0,0,0,80.93,292.66Z" transform="translate(0 0)"/><path class="c" d="M163.69,299.31a2.19,2.19,0,0,0-2.19-2.19h-0.17a2.19,2.19,0,1,0,0,4.37h0.17A2.19,2.19,0,0,0,163.69,299.31Z" transform="translate(0 0)"/><path class="c" d="M156.79,299.31a2.18,2.18,0,0,0-2.19-2.19h-0.17a2.19,2.19,0,0,0,0,4.37h0.17A2.19,2.19,0,0,0,156.79,299.31Z" transform="translate(0 0)"/><path class="c" d="M149.89,299.31a2.18,2.18,0,0,0-2.19-2.19h-0.17a2.19,2.19,0,1,0,0,4.37h0.17A2.19,2.19,0,0,0,149.89,299.31Z" transform="translate(0 0)"/><path class="c" d="M143,299.31a2.19,2.19,0,0,0-2.19-2.19h-0.17a2.19,2.19,0,1,0,0,4.37h0.17A2.19,2.19,0,0,0,143,299.31Z" transform="translate(0 0)"/><path class="c" d="M136.1,299.31a2.18,2.18,0,0,0-2.19-2.19h-0.17a2.19,2.19,0,1,0,0,4.37h0.17A2.19,2.19,0,0,0,136.1,299.31Z" transform="translate(0 0)"/><path class="c" d="M129.2,299.31a2.18,2.18,0,0,0-2.19-2.19h-0.17a2.19,2.19,0,1,0,0,4.37H127A2.19,2.19,0,0,0,129.2,299.31Z" transform="translate(0 0)"/><path class="c" d="M122.31,299.31a2.19,2.19,0,0,0-2.19-2.19H120a2.19,2.19,0,1,0,0,4.37h0.17A2.19,2.19,0,0,0,122.31,299.31Z" transform="translate(0 0)"/><path class="c" d="M115.41,299.31a2.18,2.18,0,0,0-2.19-2.19h-0.17a2.19,2.19,0,1,0,0,4.37h0.17A2.19,2.19,0,0,0,115.41,299.31Z" transform="translate(0 0)"/><path class="c" d="M108.51,299.31a2.18,2.18,0,0,0-2.19-2.19h-0.17a2.19,2.19,0,1,0,0,4.37h0.17A2.19,2.19,0,0,0,108.51,299.31Z" transform="translate(0 0)"/><path class="c" d="M101.62,299.31a2.19,2.19,0,0,0-2.19-2.19H99.26a2.19,2.19,0,1,0,0,4.37h0.17A2.19,2.19,0,0,0,101.62,299.31Z" transform="translate(0 0)"/><path class="c" d="M94.72,299.31a2.18,2.18,0,0,0-2.19-2.19H92.37a2.19,2.19,0,1,0,0,4.37h0.17A2.19,2.19,0,0,0,94.72,299.31Z" transform="translate(0 0)"/><path class="c" d="M87.82,299.31a2.18,2.18,0,0,0-2.19-2.19H85.47a2.19,2.19,0,1,0,0,4.37h0.17A2.19,2.19,0,0,0,87.82,299.31Z" transform="translate(0 0)"/><path class="c" d="M80.93,299.31a2.18,2.18,0,0,0-2.19-2.19H78.57a2.19,2.19,0,1,0,0,4.37h0.17A2.19,2.19,0,0,0,80.93,299.31Z" transform="translate(0 0)"/><path class="c" d="M163.69,306a2.19,2.19,0,0,0-2.19-2.19h-0.17a2.19,2.19,0,0,0,0,4.37h0.17A2.19,2.19,0,0,0,163.69,306Z" transform="translate(0 0)"/><path class="c" d="M156.79,306a2.19,2.19,0,0,0-2.19-2.19h-0.17a2.19,2.19,0,0,0,0,4.37h0.17A2.19,2.19,0,0,0,156.79,306Z" transform="translate(0 0)"/><path class="c" d="M149.9,306a2.19,2.19,0,0,0-2.19-2.19h-0.17a2.19,2.19,0,1,0,0,4.37h0.17A2.19,2.19,0,0,0,149.9,306Z" transform="translate(0 0)"/><path class="c" d="M143,306a2.19,2.19,0,0,0-2.19-2.19h-0.17a2.19,2.19,0,1,0,0,4.37h0.17A2.19,2.19,0,0,0,143,306Z" transform="translate(0 0)"/><path class="c" d="M136.1,306a2.19,2.19,0,0,0-2.19-2.19h-0.17a2.19,2.19,0,0,0,0,4.37h0.17A2.19,2.19,0,0,0,136.1,306Z" transform="translate(0 0)"/><path class="c" d="M129.21,306a2.19,2.19,0,0,0-2.19-2.19h-0.17a2.19,2.19,0,1,0,0,4.37H127A2.19,2.19,0,0,0,129.21,306Z" transform="translate(0 0)"/><path class="c" d="M122.31,306a2.19,2.19,0,0,0-2.19-2.19H120a2.19,2.19,0,1,0,0,4.37h0.17A2.19,2.19,0,0,0,122.31,306Z" transform="translate(0 0)"/><path class="c" d="M115.41,306a2.19,2.19,0,0,0-2.19-2.19h-0.17a2.19,2.19,0,0,0,0,4.37h0.17A2.19,2.19,0,0,0,115.41,306Z" transform="translate(0 0)"/><path class="c" d="M108.52,306a2.19,2.19,0,0,0-2.19-2.19h-0.17a2.19,2.19,0,0,0,0,4.37h0.17A2.19,2.19,0,0,0,108.52,306Z" transform="translate(0 0)"/><path class="c" d="M101.62,306a2.19,2.19,0,0,0-2.19-2.19H99.26a2.19,2.19,0,1,0,0,4.37h0.17A2.19,2.19,0,0,0,101.62,306Z" transform="translate(0 0)"/><path class="c" d="M94.72,306a2.19,2.19,0,0,0-2.19-2.19H92.37a2.19,2.19,0,1,0,0,4.37h0.17A2.19,2.19,0,0,0,94.72,306Z" transform="translate(0 0)"/><path class="c" d="M87.83,306a2.19,2.19,0,0,0-2.19-2.19H85.47a2.19,2.19,0,0,0,0,4.37h0.17A2.19,2.19,0,0,0,87.83,306Z" transform="translate(0 0)"/><path class="c" d="M80.93,306a2.19,2.19,0,0,0-2.19-2.19H78.57a2.19,2.19,0,1,0,0,4.37h0.17A2.19,2.19,0,0,0,80.93,306Z" transform="translate(0 0)"/><path class="c" d="M163.69,312.6a2.19,2.19,0,0,0-2.19-2.19h-0.17a2.19,2.19,0,0,0,0,4.38h0.17A2.19,2.19,0,0,0,163.69,312.6Z" transform="translate(0 0)"/><path class="c" d="M156.79,312.6a2.19,2.19,0,0,0-2.19-2.19h-0.17a2.19,2.19,0,0,0,0,4.38h0.17A2.19,2.19,0,0,0,156.79,312.6Z" transform="translate(0 0)"/><path class="c" d="M149.9,312.6a2.19,2.19,0,0,0-2.19-2.19h-0.17a2.19,2.19,0,1,0,0,4.38h0.17A2.19,2.19,0,0,0,149.9,312.6Z" transform="translate(0 0)"/><path class="c" d="M143,312.6a2.19,2.19,0,0,0-2.19-2.19h-0.17a2.19,2.19,0,0,0,0,4.38h0.17A2.19,2.19,0,0,0,143,312.6Z" transform="translate(0 0)"/><path class="c" d="M136.1,312.6a2.19,2.19,0,0,0-2.19-2.19h-0.17a2.19,2.19,0,0,0,0,4.38h0.17A2.19,2.19,0,0,0,136.1,312.6Z" transform="translate(0 0)"/><path class="c" d="M129.21,312.6a2.19,2.19,0,0,0-2.19-2.19h-0.17a2.19,2.19,0,0,0,0,4.38H127A2.19,2.19,0,0,0,129.21,312.6Z" transform="translate(0 0)"/><path class="c" d="M122.31,312.6a2.19,2.19,0,0,0-2.19-2.19H120a2.19,2.19,0,0,0,0,4.38h0.17A2.19,2.19,0,0,0,122.31,312.6Z" transform="translate(0 0)"/><path class="c" d="M115.41,312.6a2.19,2.19,0,0,0-2.19-2.19h-0.17a2.19,2.19,0,0,0,0,4.38h0.17A2.19,2.19,0,0,0,115.41,312.6Z" transform="translate(0 0)"/><path class="c" d="M108.52,312.6a2.19,2.19,0,0,0-2.19-2.19h-0.17a2.19,2.19,0,0,0,0,4.38h0.17A2.19,2.19,0,0,0,108.52,312.6Z" transform="translate(0 0)"/><path class="c" d="M101.62,312.6a2.19,2.19,0,0,0-2.19-2.19H99.26a2.19,2.19,0,0,0,0,4.38h0.17A2.19,2.19,0,0,0,101.62,312.6Z" transform="translate(0 0)"/><path class="c" d="M94.72,312.6a2.19,2.19,0,0,0-2.19-2.19H92.37a2.19,2.19,0,0,0,0,4.38h0.17A2.19,2.19,0,0,0,94.72,312.6Z" transform="translate(0 0)"/><path class="c" d="M87.83,312.6a2.19,2.19,0,0,0-2.19-2.19H85.47a2.19,2.19,0,0,0,0,4.38h0.17A2.19,2.19,0,0,0,87.83,312.6Z" transform="translate(0 0)"/><path class="c" d="M80.93,312.6a2.19,2.19,0,0,0-2.19-2.19H78.57a2.19,2.19,0,0,0,0,4.38h0.17A2.19,2.19,0,0,0,80.93,312.6Z" transform="translate(0 0)"/><path class="c" d="M163.69,319.25a2.19,2.19,0,0,0-2.19-2.19h-0.17a2.19,2.19,0,0,0,0,4.38h0.17A2.19,2.19,0,0,0,163.69,319.25Z" transform="translate(0 0)"/><path class="c" d="M156.79,319.25a2.19,2.19,0,0,0-2.19-2.19h-0.17a2.19,2.19,0,0,0,0,4.38h0.17A2.19,2.19,0,0,0,156.79,319.25Z" transform="translate(0 0)"/><path class="c" d="M149.89,319.25a2.19,2.19,0,0,0-2.19-2.19h-0.17a2.19,2.19,0,0,0,0,4.38h0.17A2.19,2.19,0,0,0,149.89,319.25Z" transform="translate(0 0)"/><path class="c" d="M143,319.25a2.19,2.19,0,0,0-2.19-2.19h-0.17a2.19,2.19,0,0,0,0,4.38h0.17A2.19,2.19,0,0,0,143,319.25Z" transform="translate(0 0)"/><path class="c" d="M136.1,319.25a2.19,2.19,0,0,0-2.19-2.19h-0.17a2.19,2.19,0,0,0,0,4.38h0.17A2.19,2.19,0,0,0,136.1,319.25Z" transform="translate(0 0)"/><path class="c" d="M129.21,319.25a2.19,2.19,0,0,0-2.19-2.19h-0.17a2.19,2.19,0,0,0,0,4.38H127A2.19,2.19,0,0,0,129.21,319.25Z" transform="translate(0 0)"/><path class="c" d="M122.31,319.25a2.19,2.19,0,0,0-2.19-2.19H120a2.19,2.19,0,0,0,0,4.38h0.17A2.19,2.19,0,0,0,122.31,319.25Z" transform="translate(0 0)"/><path class="c" d="M115.41,319.25a2.19,2.19,0,0,0-2.19-2.19h-0.17a2.19,2.19,0,0,0,0,4.38h0.17A2.19,2.19,0,0,0,115.41,319.25Z" transform="translate(0 0)"/><path class="c" d="M108.52,319.25a2.19,2.19,0,0,0-2.19-2.19h-0.17a2.19,2.19,0,0,0,0,4.38h0.17A2.19,2.19,0,0,0,108.52,319.25Z" transform="translate(0 0)"/><path class="c" d="M101.62,319.25a2.19,2.19,0,0,0-2.19-2.19H99.26a2.19,2.19,0,0,0,0,4.38h0.17A2.19,2.19,0,0,0,101.62,319.25Z" transform="translate(0 0)"/><path class="c" d="M94.72,319.25a2.19,2.19,0,0,0-2.19-2.19H92.37a2.19,2.19,0,0,0,0,4.38h0.17A2.19,2.19,0,0,0,94.72,319.25Z" transform="translate(0 0)"/><path class="c" d="M87.83,319.25a2.19,2.19,0,0,0-2.19-2.19H85.47a2.19,2.19,0,0,0,0,4.38h0.17A2.19,2.19,0,0,0,87.83,319.25Z" transform="translate(0 0)"/><path class="c" d="M80.93,319.25a2.19,2.19,0,0,0-2.19-2.19H78.57a2.19,2.19,0,0,0,0,4.38h0.17A2.19,2.19,0,0,0,80.93,319.25Z" transform="translate(0 0)"/><path class="c" d="M163.69,325.9a2.19,2.19,0,0,0-2.19-2.19h-0.17a2.19,2.19,0,0,0,0,4.37h0.17A2.19,2.19,0,0,0,163.69,325.9Z" transform="translate(0 0)"/><path class="c" d="M156.79,325.9a2.19,2.19,0,0,0-2.19-2.19h-0.17a2.19,2.19,0,1,0,0,4.37h0.17A2.19,2.19,0,0,0,156.79,325.9Z" transform="translate(0 0)"/><path class="c" d="M149.89,325.9a2.19,2.19,0,0,0-2.19-2.19h-0.17a2.19,2.19,0,0,0,0,4.37h0.17A2.19,2.19,0,0,0,149.89,325.9Z" transform="translate(0 0)"/><path class="c" d="M143,325.9a2.19,2.19,0,0,0-2.19-2.19h-0.17a2.19,2.19,0,0,0,0,4.37h0.17A2.19,2.19,0,0,0,143,325.9Z" transform="translate(0 0)"/><path class="c" d="M136.1,325.9a2.19,2.19,0,0,0-2.19-2.19h-0.17a2.19,2.19,0,0,0,0,4.37h0.17A2.19,2.19,0,0,0,136.1,325.9Z" transform="translate(0 0)"/><path class="c" d="M129.21,325.9a2.19,2.19,0,0,0-2.19-2.19h-0.17a2.19,2.19,0,1,0,0,4.37H127A2.19,2.19,0,0,0,129.21,325.9Z" transform="translate(0 0)"/><path class="c" d="M122.31,325.9a2.19,2.19,0,0,0-2.19-2.19H120a2.19,2.19,0,0,0,0,4.37h0.17A2.19,2.19,0,0,0,122.31,325.9Z" transform="translate(0 0)"/><path class="c" d="M115.41,325.9a2.19,2.19,0,0,0-2.19-2.19h-0.17a2.19,2.19,0,0,0,0,4.37h0.17A2.19,2.19,0,0,0,115.41,325.9Z" transform="translate(0 0)"/><path class="c" d="M108.52,325.9a2.19,2.19,0,0,0-2.19-2.19h-0.17a2.19,2.19,0,1,0,0,4.37h0.17A2.19,2.19,0,0,0,108.52,325.9Z" transform="translate(0 0)"/><path class="c" d="M101.62,325.9a2.19,2.19,0,0,0-2.19-2.19H99.26a2.19,2.19,0,1,0,0,4.37h0.17A2.19,2.19,0,0,0,101.62,325.9Z" transform="translate(0 0)"/><path class="c" d="M94.72,325.9a2.19,2.19,0,0,0-2.19-2.19H92.37a2.19,2.19,0,0,0,0,4.37h0.17A2.19,2.19,0,0,0,94.72,325.9Z" transform="translate(0 0)"/><path class="c" d="M87.83,325.9a2.19,2.19,0,0,0-2.19-2.19H85.47a2.19,2.19,0,0,0,0,4.37h0.17A2.19,2.19,0,0,0,87.83,325.9Z" transform="translate(0 0)"/><path class="c" d="M80.93,325.9a2.19,2.19,0,0,0-2.19-2.19H78.57a2.19,2.19,0,1,0,0,4.37h0.17A2.19,2.19,0,0,0,80.93,325.9Z" transform="translate(0 0)"/><path class="c" d="M163.69,332.55a2.19,2.19,0,0,0-2.19-2.19h-0.17a2.19,2.19,0,0,0,0,4.37h0.17A2.19,2.19,0,0,0,163.69,332.55Z" transform="translate(0 0)"/><path class="c" d="M156.79,332.55a2.19,2.19,0,0,0-2.19-2.19h-0.17a2.19,2.19,0,1,0,0,4.37h0.17A2.19,2.19,0,0,0,156.79,332.55Z" transform="translate(0 0)"/><path class="c" d="M149.89,332.55a2.19,2.19,0,0,0-2.19-2.19h-0.17a2.19,2.19,0,1,0,0,4.37h0.17A2.19,2.19,0,0,0,149.89,332.55Z" transform="translate(0 0)"/><path class="c" d="M143,332.55a2.19,2.19,0,0,0-2.19-2.19h-0.17a2.19,2.19,0,1,0,0,4.37h0.17A2.19,2.19,0,0,0,143,332.55Z" transform="translate(0 0)"/><path class="c" d="M136.1,332.55a2.19,2.19,0,0,0-2.19-2.19h-0.17a2.19,2.19,0,0,0,0,4.37h0.17A2.19,2.19,0,0,0,136.1,332.55Z" transform="translate(0 0)"/><path class="c" d="M129.21,332.55a2.19,2.19,0,0,0-2.19-2.19h-0.17a2.19,2.19,0,1,0,0,4.37H127A2.19,2.19,0,0,0,129.21,332.55Z" transform="translate(0 0)"/><path class="c" d="M122.31,332.55a2.19,2.19,0,0,0-2.19-2.19H120a2.19,2.19,0,1,0,0,4.37h0.17A2.19,2.19,0,0,0,122.31,332.55Z" transform="translate(0 0)"/><path class="c" d="M115.41,332.55a2.19,2.19,0,0,0-2.19-2.19h-0.17a2.19,2.19,0,1,0,0,4.37h0.17A2.19,2.19,0,0,0,115.41,332.55Z" transform="translate(0 0)"/><path class="c" d="M108.52,332.55a2.19,2.19,0,0,0-2.19-2.19h-0.17a2.19,2.19,0,1,0,0,4.37h0.17A2.19,2.19,0,0,0,108.52,332.55Z" transform="translate(0 0)"/><path class="c" d="M101.62,332.55a2.19,2.19,0,0,0-2.19-2.19H99.26a2.19,2.19,0,1,0,0,4.37h0.17A2.19,2.19,0,0,0,101.62,332.55Z" transform="translate(0 0)"/><path class="c" d="M94.72,332.55a2.19,2.19,0,0,0-2.19-2.19H92.37a2.19,2.19,0,1,0,0,4.37h0.17A2.19,2.19,0,0,0,94.72,332.55Z" transform="translate(0 0)"/><path class="c" d="M87.83,332.55a2.19,2.19,0,0,0-2.19-2.19H85.47a2.19,2.19,0,1,0,0,4.37h0.17A2.19,2.19,0,0,0,87.83,332.55Z" transform="translate(0 0)"/><path class="c" d="M80.93,332.55a2.19,2.19,0,0,0-2.19-2.19H78.57a2.19,2.19,0,1,0,0,4.37h0.17A2.19,2.19,0,0,0,80.93,332.55Z" transform="translate(0 0)"/><path class="c" d="M163.69,339.19A2.19,2.19,0,0,0,161.5,337h-0.17a2.19,2.19,0,0,0,0,4.38h0.17A2.19,2.19,0,0,0,163.69,339.19Z" transform="translate(0 0)"/><path class="c" d="M156.79,339.19a2.19,2.19,0,0,0-2.19-2.19h-0.17a2.19,2.19,0,0,0,0,4.38h0.17A2.19,2.19,0,0,0,156.79,339.19Z" transform="translate(0 0)"/><path class="c" d="M149.89,339.19a2.19,2.19,0,0,0-2.19-2.19h-0.17a2.19,2.19,0,0,0,0,4.38h0.17A2.19,2.19,0,0,0,149.89,339.19Z" transform="translate(0 0)"/><path class="c" d="M143,339.19a2.19,2.19,0,0,0-2.19-2.19h-0.17a2.19,2.19,0,0,0,0,4.38h0.17A2.19,2.19,0,0,0,143,339.19Z" transform="translate(0 0)"/><path class="c" d="M136.1,339.19a2.19,2.19,0,0,0-2.19-2.19h-0.17a2.19,2.19,0,0,0,0,4.38h0.17A2.19,2.19,0,0,0,136.1,339.19Z" transform="translate(0 0)"/><path class="c" d="M129.21,339.19A2.19,2.19,0,0,0,127,337h-0.17a2.19,2.19,0,0,0,0,4.38H127A2.19,2.19,0,0,0,129.21,339.19Z" transform="translate(0 0)"/><path class="c" d="M122.31,339.19a2.19,2.19,0,0,0-2.19-2.19H120a2.19,2.19,0,0,0,0,4.38h0.17A2.19,2.19,0,0,0,122.31,339.19Z" transform="translate(0 0)"/><path class="c" d="M115.41,339.19a2.19,2.19,0,0,0-2.19-2.19h-0.17a2.19,2.19,0,0,0,0,4.38h0.17A2.19,2.19,0,0,0,115.41,339.19Z" transform="translate(0 0)"/><path class="c" d="M108.52,339.19a2.19,2.19,0,0,0-2.19-2.19h-0.17a2.19,2.19,0,0,0,0,4.38h0.17A2.19,2.19,0,0,0,108.52,339.19Z" transform="translate(0 0)"/><path class="c" d="M101.62,339.19A2.19,2.19,0,0,0,99.43,337H99.26a2.19,2.19,0,0,0,0,4.38h0.17A2.19,2.19,0,0,0,101.62,339.19Z" transform="translate(0 0)"/><path class="c" d="M94.72,339.19A2.19,2.19,0,0,0,92.53,337H92.37a2.19,2.19,0,0,0,0,4.38h0.17A2.19,2.19,0,0,0,94.72,339.19Z" transform="translate(0 0)"/><path class="c" d="M87.83,339.19A2.19,2.19,0,0,0,85.64,337H85.47a2.19,2.19,0,0,0,0,4.38h0.17A2.19,2.19,0,0,0,87.83,339.19Z" transform="translate(0 0)"/><path class="c" d="M80.93,339.19A2.19,2.19,0,0,0,78.74,337H78.57a2.19,2.19,0,0,0,0,4.38h0.17A2.19,2.19,0,0,0,80.93,339.19Z" transform="translate(0 0)"/><path class="c" d="M163.69,345.84a2.19,2.19,0,0,0-2.19-2.19h-0.17a2.19,2.19,0,0,0,0,4.37h0.17A2.19,2.19,0,0,0,163.69,345.84Z" transform="translate(0 0)"/><path class="c" d="M156.79,345.84a2.19,2.19,0,0,0-2.19-2.19h-0.17a2.19,2.19,0,1,0,0,4.37h0.17A2.19,2.19,0,0,0,156.79,345.84Z" transform="translate(0 0)"/><path class="c" d="M149.9,345.84a2.19,2.19,0,0,0-2.19-2.19h-0.17a2.19,2.19,0,1,0,0,4.37h0.17A2.19,2.19,0,0,0,149.9,345.84Z" transform="translate(0 0)"/><path class="c" d="M143,345.84a2.19,2.19,0,0,0-2.19-2.19h-0.17a2.19,2.19,0,1,0,0,4.37h0.17A2.19,2.19,0,0,0,143,345.84Z" transform="translate(0 0)"/><path class="c" d="M136.1,345.84a2.19,2.19,0,0,0-2.19-2.19h-0.17a2.19,2.19,0,0,0,0,4.37h0.17A2.19,2.19,0,0,0,136.1,345.84Z" transform="translate(0 0)"/><path class="c" d="M129.21,345.84a2.19,2.19,0,0,0-2.19-2.19h-0.17a2.19,2.19,0,1,0,0,4.37H127A2.19,2.19,0,0,0,129.21,345.84Z" transform="translate(0 0)"/><path class="c" d="M122.31,345.84a2.19,2.19,0,0,0-2.19-2.19H120a2.19,2.19,0,1,0,0,4.37h0.17A2.19,2.19,0,0,0,122.31,345.84Z" transform="translate(0 0)"/><path class="c" d="M115.41,345.84a2.19,2.19,0,0,0-2.19-2.19h-0.17a2.19,2.19,0,1,0,0,4.37h0.17A2.19,2.19,0,0,0,115.41,345.84Z" transform="translate(0 0)"/><path class="c" d="M108.52,345.84a2.19,2.19,0,0,0-2.19-2.19h-0.17a2.19,2.19,0,1,0,0,4.37h0.17A2.19,2.19,0,0,0,108.52,345.84Z" transform="translate(0 0)"/><path class="c" d="M101.62,345.84a2.19,2.19,0,0,0-2.19-2.19H99.26a2.19,2.19,0,1,0,0,4.37h0.17A2.19,2.19,0,0,0,101.62,345.84Z" transform="translate(0 0)"/><path class="c" d="M94.72,345.84a2.19,2.19,0,0,0-2.19-2.19H92.37a2.19,2.19,0,1,0,0,4.37h0.17A2.19,2.19,0,0,0,94.72,345.84Z" transform="translate(0 0)"/><path class="c" d="M87.83,345.84a2.19,2.19,0,0,0-2.19-2.19H85.47a2.19,2.19,0,1,0,0,4.37h0.17A2.19,2.19,0,0,0,87.83,345.84Z" transform="translate(0 0)"/><path class="c" d="M80.93,345.84a2.19,2.19,0,0,0-2.19-2.19H78.57a2.19,2.19,0,1,0,0,4.37h0.17A2.19,2.19,0,0,0,80.93,345.84Z" transform="translate(0 0)"/><path class="c" d="M163.69,352.48a2.19,2.19,0,0,0-2.19-2.19h-0.17a2.19,2.19,0,0,0,0,4.38h0.17A2.19,2.19,0,0,0,163.69,352.48Z" transform="translate(0 0)"/><path class="c" d="M156.79,352.48a2.19,2.19,0,0,0-2.19-2.19h-0.17a2.19,2.19,0,0,0,0,4.38h0.17A2.19,2.19,0,0,0,156.79,352.48Z" transform="translate(0 0)"/><path class="c" d="M149.89,352.48a2.19,2.19,0,0,0-2.19-2.19h-0.17a2.19,2.19,0,0,0,0,4.38h0.17A2.19,2.19,0,0,0,149.89,352.48Z" transform="translate(0 0)"/><path class="c" d="M143,352.48a2.19,2.19,0,0,0-2.19-2.19h-0.17a2.19,2.19,0,0,0,0,4.38h0.17A2.19,2.19,0,0,0,143,352.48Z" transform="translate(0 0)"/><path class="c" d="M136.1,352.48a2.19,2.19,0,0,0-2.19-2.19h-0.17a2.19,2.19,0,0,0,0,4.38h0.17A2.19,2.19,0,0,0,136.1,352.48Z" transform="translate(0 0)"/><path class="c" d="M129.2,352.48a2.19,2.19,0,0,0-2.19-2.19h-0.17a2.19,2.19,0,0,0,0,4.38H127A2.19,2.19,0,0,0,129.2,352.48Z" transform="translate(0 0)"/><path class="c" d="M122.31,352.48a2.19,2.19,0,0,0-2.19-2.19H120a2.19,2.19,0,0,0,0,4.38h0.17A2.19,2.19,0,0,0,122.31,352.48Z" transform="translate(0 0)"/><path class="c" d="M115.41,352.48a2.19,2.19,0,0,0-2.19-2.19h-0.17a2.19,2.19,0,0,0,0,4.38h0.17A2.19,2.19,0,0,0,115.41,352.48Z" transform="translate(0 0)"/><path class="c" d="M108.51,352.48a2.19,2.19,0,0,0-2.19-2.19h-0.17a2.19,2.19,0,0,0,0,4.38h0.17A2.19,2.19,0,0,0,108.51,352.48Z" transform="translate(0 0)"/><path class="c" d="M101.62,352.48a2.19,2.19,0,0,0-2.19-2.19H99.26a2.19,2.19,0,1,0,0,4.38h0.17A2.19,2.19,0,0,0,101.62,352.48Z" transform="translate(0 0)"/><path class="c" d="M94.72,352.48a2.19,2.19,0,0,0-2.19-2.19H92.37a2.19,2.19,0,0,0,0,4.38h0.17A2.19,2.19,0,0,0,94.72,352.48Z" transform="translate(0 0)"/><path class="c" d="M87.82,352.48a2.19,2.19,0,0,0-2.19-2.19H85.47a2.19,2.19,0,0,0,0,4.38h0.17A2.19,2.19,0,0,0,87.82,352.48Z" transform="translate(0 0)"/><path class="c" d="M80.93,352.48a2.19,2.19,0,0,0-2.19-2.19H78.57a2.19,2.19,0,0,0,0,4.38h0.17A2.19,2.19,0,0,0,80.93,352.48Z" transform="translate(0 0)"/><path class="c" d="M163.69,359.13a2.18,2.18,0,0,0-2.19-2.18h-0.17a2.19,2.19,0,0,0,0,4.38h0.17A2.19,2.19,0,0,0,163.69,359.13Z" transform="translate(0 0)"/><path class="c" d="M156.79,359.13a2.18,2.18,0,0,0-2.19-2.18h-0.17a2.19,2.19,0,0,0,0,4.38h0.17A2.19,2.19,0,0,0,156.79,359.13Z" transform="translate(0 0)"/><path class="c" d="M149.9,359.13a2.19,2.19,0,0,0-2.19-2.18h-0.17a2.19,2.19,0,1,0,0,4.38h0.17A2.19,2.19,0,0,0,149.9,359.13Z" transform="translate(0 0)"/><path class="c" d="M143,359.13a2.19,2.19,0,0,0-2.19-2.18h-0.17a2.19,2.19,0,0,0,0,4.38h0.17A2.19,2.19,0,0,0,143,359.13Z" transform="translate(0 0)"/><path class="c" d="M136.1,359.13a2.18,2.18,0,0,0-2.19-2.18h-0.17a2.19,2.19,0,0,0,0,4.38h0.17A2.19,2.19,0,0,0,136.1,359.13Z" transform="translate(0 0)"/><path class="c" d="M129.21,359.13a2.19,2.19,0,0,0-2.19-2.18h-0.17a2.19,2.19,0,0,0,0,4.38H127A2.19,2.19,0,0,0,129.21,359.13Z" transform="translate(0 0)"/><path class="c" d="M122.31,359.13a2.19,2.19,0,0,0-2.19-2.18H120a2.19,2.19,0,0,0,0,4.38h0.17A2.19,2.19,0,0,0,122.31,359.13Z" transform="translate(0 0)"/><path class="c" d="M115.41,359.13a2.19,2.19,0,0,0-2.19-2.18h-0.17a2.19,2.19,0,0,0,0,4.38h0.17A2.19,2.19,0,0,0,115.41,359.13Z" transform="translate(0 0)"/><path class="c" d="M108.52,359.13a2.19,2.19,0,0,0-2.19-2.18h-0.17a2.19,2.19,0,0,0,0,4.38h0.17A2.19,2.19,0,0,0,108.52,359.13Z" transform="translate(0 0)"/><path class="c" d="M101.62,359.13a2.19,2.19,0,0,0-2.19-2.18H99.26a2.19,2.19,0,0,0,0,4.38h0.17A2.19,2.19,0,0,0,101.62,359.13Z" transform="translate(0 0)"/><path class="c" d="M94.72,359.13a2.19,2.19,0,0,0-2.19-2.18H92.37a2.19,2.19,0,0,0,0,4.38h0.17A2.19,2.19,0,0,0,94.72,359.13Z" transform="translate(0 0)"/><path class="c" d="M87.83,359.13a2.19,2.19,0,0,0-2.19-2.18H85.47a2.19,2.19,0,0,0,0,4.38h0.17A2.19,2.19,0,0,0,87.83,359.13Z" transform="translate(0 0)"/><path class="c" d="M80.93,359.13a2.19,2.19,0,0,0-2.19-2.18H78.57a2.19,2.19,0,0,0,0,4.38h0.17A2.19,2.19,0,0,0,80.93,359.13Z" transform="translate(0 0)"/><path class="c" d="M163.69,365.78a2.19,2.19,0,0,0-2.19-2.19h-0.17a2.19,2.19,0,0,0,0,4.37h0.17A2.19,2.19,0,0,0,163.69,365.78Z" transform="translate(0 0)"/><path class="c" d="M156.79,365.78a2.19,2.19,0,0,0-2.19-2.19h-0.17a2.19,2.19,0,0,0,0,4.37h0.17A2.19,2.19,0,0,0,156.79,365.78Z" transform="translate(0 0)"/><path class="c" d="M149.89,365.78a2.19,2.19,0,0,0-2.19-2.19h-0.17a2.19,2.19,0,0,0,0,4.37h0.17A2.19,2.19,0,0,0,149.89,365.78Z" transform="translate(0 0)"/><path class="c" d="M143,365.78a2.19,2.19,0,0,0-2.19-2.19h-0.17a2.19,2.19,0,0,0,0,4.37h0.17A2.19,2.19,0,0,0,143,365.78Z" transform="translate(0 0)"/><path class="c" d="M136.1,365.78a2.19,2.19,0,0,0-2.19-2.19h-0.17a2.19,2.19,0,0,0,0,4.37h0.17A2.19,2.19,0,0,0,136.1,365.78Z" transform="translate(0 0)"/><path class="c" d="M129.2,365.78a2.19,2.19,0,0,0-2.19-2.19h-0.17a2.19,2.19,0,1,0,0,4.37H127A2.19,2.19,0,0,0,129.2,365.78Z" transform="translate(0 0)"/><path class="c" d="M122.31,365.78a2.19,2.19,0,0,0-2.19-2.19H120a2.19,2.19,0,1,0,0,4.37h0.17A2.19,2.19,0,0,0,122.31,365.78Z" transform="translate(0 0)"/><path class="c" d="M115.41,365.78a2.19,2.19,0,0,0-2.19-2.19h-0.17a2.19,2.19,0,0,0,0,4.37h0.17A2.19,2.19,0,0,0,115.41,365.78Z" transform="translate(0 0)"/><path class="c" d="M108.51,365.78a2.19,2.19,0,0,0-2.19-2.19h-0.17a2.19,2.19,0,1,0,0,4.37h0.17A2.19,2.19,0,0,0,108.51,365.78Z" transform="translate(0 0)"/><path class="c" d="M101.62,365.78a2.19,2.19,0,0,0-2.19-2.19H99.26a2.19,2.19,0,1,0,0,4.37h0.17A2.19,2.19,0,0,0,101.62,365.78Z" transform="translate(0 0)"/><path class="c" d="M94.72,365.78a2.19,2.19,0,0,0-2.19-2.19H92.37a2.19,2.19,0,1,0,0,4.37h0.17A2.19,2.19,0,0,0,94.72,365.78Z" transform="translate(0 0)"/><path class="c" d="M87.82,365.78a2.19,2.19,0,0,0-2.19-2.19H85.47a2.19,2.19,0,0,0,0,4.37h0.17A2.19,2.19,0,0,0,87.82,365.78Z" transform="translate(0 0)"/><path class="c" d="M80.93,365.78a2.19,2.19,0,0,0-2.19-2.19H78.57a2.19,2.19,0,0,0,0,4.37h0.17A2.19,2.19,0,0,0,80.93,365.78Z" transform="translate(0 0)"/><path class="c" d="M163.69,372.42a2.19,2.19,0,0,0-2.19-2.19h-0.17a2.19,2.19,0,0,0,0,4.37h0.17A2.19,2.19,0,0,0,163.69,372.42Z" transform="translate(0 0)"/><path class="c" d="M156.79,372.42a2.19,2.19,0,0,0-2.19-2.19h-0.17a2.19,2.19,0,1,0,0,4.37h0.17A2.19,2.19,0,0,0,156.79,372.42Z" transform="translate(0 0)"/><path class="c" d="M149.89,372.42a2.19,2.19,0,0,0-2.19-2.19h-0.17a2.19,2.19,0,0,0,0,4.37h0.17A2.19,2.19,0,0,0,149.89,372.42Z" transform="translate(0 0)"/><path class="c" d="M143,372.42a2.19,2.19,0,0,0-2.19-2.19h-0.17a2.19,2.19,0,0,0,0,4.37h0.17A2.19,2.19,0,0,0,143,372.42Z" transform="translate(0 0)"/><path class="c" d="M136.1,372.42a2.19,2.19,0,0,0-2.19-2.19h-0.17a2.19,2.19,0,0,0,0,4.37h0.17A2.19,2.19,0,0,0,136.1,372.42Z" transform="translate(0 0)"/><path class="c" d="M129.21,372.42a2.19,2.19,0,0,0-2.19-2.19h-0.17a2.19,2.19,0,1,0,0,4.37H127A2.19,2.19,0,0,0,129.21,372.42Z" transform="translate(0 0)"/><path class="c" d="M122.31,372.42a2.19,2.19,0,0,0-2.19-2.19H120a2.19,2.19,0,0,0,0,4.37h0.17A2.19,2.19,0,0,0,122.31,372.42Z" transform="translate(0 0)"/><path class="c" d="M115.41,372.42a2.19,2.19,0,0,0-2.19-2.19h-0.17a2.19,2.19,0,0,0,0,4.37h0.17A2.19,2.19,0,0,0,115.41,372.42Z" transform="translate(0 0)"/><path class="c" d="M108.52,372.42a2.19,2.19,0,0,0-2.19-2.19h-0.17a2.19,2.19,0,1,0,0,4.37h0.17A2.19,2.19,0,0,0,108.52,372.42Z" transform="translate(0 0)"/><path class="c" d="M101.62,372.42a2.19,2.19,0,0,0-2.19-2.19H99.26a2.19,2.19,0,1,0,0,4.37h0.17A2.19,2.19,0,0,0,101.62,372.42Z" transform="translate(0 0)"/><path class="c" d="M94.72,372.42a2.19,2.19,0,0,0-2.19-2.19H92.37a2.19,2.19,0,0,0,0,4.37h0.17A2.19,2.19,0,0,0,94.72,372.42Z" transform="translate(0 0)"/><path class="c" d="M87.83,372.42a2.19,2.19,0,0,0-2.19-2.19H85.47a2.19,2.19,0,0,0,0,4.37h0.17A2.19,2.19,0,0,0,87.83,372.42Z" transform="translate(0 0)"/><path class="c" d="M80.93,372.42a2.19,2.19,0,0,0-2.19-2.19H78.57a2.19,2.19,0,1,0,0,4.37h0.17A2.19,2.19,0,0,0,80.93,372.42Z" transform="translate(0 0)"/><path class="c" d="M163.69,379.07a2.19,2.19,0,0,0-2.19-2.19h-0.17a2.19,2.19,0,1,0,0,4.37h0.17A2.19,2.19,0,0,0,163.69,379.07Z" transform="translate(0 0)"/><path class="c" d="M156.79,379.07a2.19,2.19,0,0,0-2.19-2.19h-0.17a2.19,2.19,0,1,0,0,4.37h0.17A2.19,2.19,0,0,0,156.79,379.07Z" transform="translate(0 0)"/><path class="c" d="M149.9,379.07a2.19,2.19,0,0,0-2.19-2.19h-0.17a2.19,2.19,0,1,0,0,4.37h0.17A2.19,2.19,0,0,0,149.9,379.07Z" transform="translate(0 0)"/><path class="c" d="M143,379.07a2.19,2.19,0,0,0-2.19-2.19h-0.17a2.19,2.19,0,1,0,0,4.37h0.17A2.19,2.19,0,0,0,143,379.07Z" transform="translate(0 0)"/><path class="c" d="M136.1,379.07a2.18,2.18,0,0,0-2.19-2.19h-0.17a2.19,2.19,0,1,0,0,4.37h0.17A2.18,2.18,0,0,0,136.1,379.07Z" transform="translate(0 0)"/><path class="c" d="M129.21,379.07a2.19,2.19,0,0,0-2.19-2.19h-0.17a2.19,2.19,0,1,0,0,4.37H127A2.19,2.19,0,0,0,129.21,379.07Z" transform="translate(0 0)"/><path class="c" d="M115.41,379.07a2.19,2.19,0,0,0-2.19-2.19h-0.17a2.19,2.19,0,1,0,0,4.37h0.17A2.19,2.19,0,0,0,115.41,379.07Z" transform="translate(0 0)"/><path class="c" d="M108.52,379.07a2.19,2.19,0,0,0-2.19-2.19h-0.17a2.19,2.19,0,1,0,0,4.37h0.17A2.19,2.19,0,0,0,108.52,379.07Z" transform="translate(0 0)"/><path class="c" d="M101.62,379.07a2.19,2.19,0,0,0-2.19-2.19H99.26a2.19,2.19,0,1,0,0,4.37h0.17A2.19,2.19,0,0,0,101.62,379.07Z" transform="translate(0 0)"/><path class="c" d="M94.72,379.07a2.19,2.19,0,0,0-2.19-2.19H92.37a2.19,2.19,0,1,0,0,4.37h0.17A2.19,2.19,0,0,0,94.72,379.07Z" transform="translate(0 0)"/><path class="c" d="M87.83,379.07a2.19,2.19,0,0,0-2.19-2.19H85.47a2.19,2.19,0,1,0,0,4.37h0.17A2.19,2.19,0,0,0,87.83,379.07Z" transform="translate(0 0)"/><path class="c" d="M80.93,379.07a2.19,2.19,0,0,0-2.19-2.19H78.57a2.19,2.19,0,1,0,0,4.37h0.17A2.19,2.19,0,0,0,80.93,379.07Z" transform="translate(0 0)"/><path class="c" d="M163.69,385.71a2.19,2.19,0,0,0-2.19-2.19h-0.17a2.19,2.19,0,0,0,0,4.37h0.17A2.19,2.19,0,0,0,163.69,385.71Z" transform="translate(0 0)"/><path class="c" d="M156.79,385.71a2.19,2.19,0,0,0-2.19-2.19h-0.17a2.19,2.19,0,0,0,0,4.37h0.17A2.19,2.19,0,0,0,156.79,385.71Z" transform="translate(0 0)"/><path class="c" d="M143,385.71a2.19,2.19,0,0,0-2.19-2.19h-0.17a2.19,2.19,0,0,0,0,4.37h0.17A2.19,2.19,0,0,0,143,385.71Z" transform="translate(0 0)"/><path class="c" d="M136.1,385.71a2.19,2.19,0,0,0-2.19-2.19h-0.17a2.19,2.19,0,0,0,0,4.37h0.17A2.19,2.19,0,0,0,136.1,385.71Z" transform="translate(0 0)"/><path class="c" d="M129.2,385.71a2.19,2.19,0,0,0-2.19-2.19h-0.17a2.19,2.19,0,1,0,0,4.37H127A2.19,2.19,0,0,0,129.2,385.71Z" transform="translate(0 0)"/><path class="c" d="M115.41,385.71a2.19,2.19,0,0,0-2.19-2.19h-0.17a2.19,2.19,0,0,0,0,4.37h0.17A2.19,2.19,0,0,0,115.41,385.71Z" transform="translate(0 0)"/><path class="c" d="M108.51,385.71a2.19,2.19,0,0,0-2.19-2.19h-0.17a2.19,2.19,0,0,0,0,4.37h0.17A2.19,2.19,0,0,0,108.51,385.71Z" transform="translate(0 0)"/><path class="c" d="M101.62,385.71a2.19,2.19,0,0,0-2.19-2.19H99.26a2.19,2.19,0,1,0,0,4.37h0.17A2.19,2.19,0,0,0,101.62,385.71Z" transform="translate(0 0)"/><path class="c" d="M87.82,385.71a2.19,2.19,0,0,0-2.19-2.19H85.47a2.19,2.19,0,0,0,0,4.37h0.17A2.19,2.19,0,0,0,87.82,385.71Z" transform="translate(0 0)"/><path class="c" d="M80.93,385.71a2.19,2.19,0,0,0-2.19-2.19H78.57a2.19,2.19,0,0,0,0,4.37h0.17A2.19,2.19,0,0,0,80.93,385.71Z" transform="translate(0 0)"/><path class="c" d="M143,392.36a2.19,2.19,0,0,0-2.19-2.19h-0.17a2.19,2.19,0,0,0,0,4.38h0.17A2.19,2.19,0,0,0,143,392.36Z" transform="translate(0 0)"/><path class="c" d="M136.1,392.36a2.19,2.19,0,0,0-2.19-2.19h-0.17a2.19,2.19,0,0,0,0,4.38h0.17A2.19,2.19,0,0,0,136.1,392.36Z" transform="translate(0 0)"/><path class="c" d="M129.21,392.36a2.19,2.19,0,0,0-2.19-2.19h-0.17a2.19,2.19,0,0,0,0,4.38H127A2.19,2.19,0,0,0,129.21,392.36Z" transform="translate(0 0)"/><path class="c" d="M115.41,392.36a2.19,2.19,0,0,0-2.19-2.19h-0.17a2.19,2.19,0,0,0,0,4.38h0.17A2.19,2.19,0,0,0,115.41,392.36Z" transform="translate(0 0)"/><path class="c" d="M108.52,392.36a2.19,2.19,0,0,0-2.19-2.19h-0.17a2.19,2.19,0,0,0,0,4.38h0.17A2.19,2.19,0,0,0,108.52,392.36Z" transform="translate(0 0)"/><path class="c" d="M101.62,392.36a2.19,2.19,0,0,0-2.19-2.19H99.26a2.19,2.19,0,0,0,0,4.38h0.17A2.19,2.19,0,0,0,101.62,392.36Z" transform="translate(0 0)"/><path class="c" d="M143,399a2.19,2.19,0,0,0-2.19-2.19h-0.17a2.19,2.19,0,1,0,0,4.37h0.17A2.19,2.19,0,0,0,143,399Z" transform="translate(0 0)"/><path class="c" d="M136.1,399a2.18,2.18,0,0,0-2.19-2.19h-0.17a2.19,2.19,0,1,0,0,4.37h0.17A2.18,2.18,0,0,0,136.1,399Z" transform="translate(0 0)"/><path class="c" d="M129.21,399a2.19,2.19,0,0,0-2.19-2.19h-0.17a2.19,2.19,0,1,0,0,4.37H127A2.19,2.19,0,0,0,129.21,399Z" transform="translate(0 0)"/><path class="c" d="M115.41,399a2.19,2.19,0,0,0-2.19-2.19h-0.17a2.19,2.19,0,1,0,0,4.37h0.17A2.19,2.19,0,0,0,115.41,399Z" transform="translate(0 0)"/><path class="c" d="M108.52,399a2.19,2.19,0,0,0-2.19-2.19h-0.17a2.19,2.19,0,1,0,0,4.37h0.17A2.19,2.19,0,0,0,108.52,399Z" transform="translate(0 0)"/><path class="c" d="M101.62,399a2.19,2.19,0,0,0-2.19-2.19H99.26a2.19,2.19,0,1,0,0,4.37h0.17A2.19,2.19,0,0,0,101.62,399Z" transform="translate(0 0)"/><path class="c" d="M143,405.65a2.19,2.19,0,0,0-2.19-2.19h-0.17a2.19,2.19,0,1,0,0,4.37h0.17A2.19,2.19,0,0,0,143,405.65Z" transform="translate(0 0)"/><path class="c" d="M136.1,405.65a2.19,2.19,0,0,0-2.19-2.19h-0.17a2.19,2.19,0,0,0,0,4.37h0.17A2.19,2.19,0,0,0,136.1,405.65Z" transform="translate(0 0)"/><path class="c" d="M129.2,405.65a2.19,2.19,0,0,0-2.19-2.19h-0.17a2.19,2.19,0,1,0,0,4.37H127A2.19,2.19,0,0,0,129.2,405.65Z" transform="translate(0 0)"/><path class="c" d="M115.41,405.65a2.19,2.19,0,0,0-2.19-2.19h-0.17a2.19,2.19,0,0,0,0,4.37h0.17A2.19,2.19,0,0,0,115.41,405.65Z" transform="translate(0 0)"/><path class="c" d="M108.51,405.65a2.19,2.19,0,0,0-2.19-2.19h-0.17a2.19,2.19,0,1,0,0,4.37h0.17A2.19,2.19,0,0,0,108.51,405.65Z" transform="translate(0 0)"/><path class="c" d="M101.62,405.65a2.19,2.19,0,0,0-2.19-2.19H99.26a2.19,2.19,0,1,0,0,4.37h0.17A2.19,2.19,0,0,0,101.62,405.65Z" transform="translate(0 0)"/><path class="c" d="M143,412.29a2.19,2.19,0,0,0-2.19-2.19h-0.17a2.19,2.19,0,0,0,0,4.38h0.17A2.19,2.19,0,0,0,143,412.29Z" transform="translate(0 0)"/><path class="c" d="M136.1,412.29a2.19,2.19,0,0,0-2.19-2.19h-0.17a2.19,2.19,0,0,0,0,4.38h0.17A2.19,2.19,0,0,0,136.1,412.29Z" transform="translate(0 0)"/><path class="c" d="M129.21,412.29a2.19,2.19,0,0,0-2.19-2.19h-0.17a2.19,2.19,0,0,0,0,4.38H127A2.19,2.19,0,0,0,129.21,412.29Z" transform="translate(0 0)"/><path class="c" d="M115.41,412.29a2.19,2.19,0,0,0-2.19-2.19h-0.17a2.19,2.19,0,0,0,0,4.38h0.17A2.19,2.19,0,0,0,115.41,412.29Z" transform="translate(0 0)"/><path class="c" d="M108.52,412.29a2.19,2.19,0,0,0-2.19-2.19h-0.17a2.19,2.19,0,0,0,0,4.38h0.17A2.19,2.19,0,0,0,108.52,412.29Z" transform="translate(0 0)"/><path class="c" d="M101.62,412.29a2.19,2.19,0,0,0-2.19-2.19H99.26a2.19,2.19,0,0,0,0,4.38h0.17A2.19,2.19,0,0,0,101.62,412.29Z" transform="translate(0 0)"/><path class="c" d="M143,418.94a2.19,2.19,0,0,0-2.19-2.19h-0.17a2.19,2.19,0,1,0,0,4.37h0.17A2.19,2.19,0,0,0,143,418.94Z" transform="translate(0 0)"/><path class="c" d="M136.1,418.94a2.19,2.19,0,0,0-2.19-2.19h-0.17a2.19,2.19,0,0,0,0,4.37h0.17A2.19,2.19,0,0,0,136.1,418.94Z" transform="translate(0 0)"/><path class="c" d="M129.21,418.94a2.19,2.19,0,0,0-2.19-2.19h-0.17a2.19,2.19,0,1,0,0,4.37H127A2.19,2.19,0,0,0,129.21,418.94Z" transform="translate(0 0)"/><path class="c" d="M115.41,418.94a2.19,2.19,0,0,0-2.19-2.19h-0.17a2.19,2.19,0,1,0,0,4.37h0.17A2.19,2.19,0,0,0,115.41,418.94Z" transform="translate(0 0)"/><path class="c" d="M108.52,418.94a2.19,2.19,0,0,0-2.19-2.19h-0.17a2.19,2.19,0,1,0,0,4.37h0.17A2.19,2.19,0,0,0,108.52,418.94Z" transform="translate(0 0)"/><path class="c" d="M101.62,418.94a2.19,2.19,0,0,0-2.19-2.19H99.26a2.19,2.19,0,1,0,0,4.37h0.17A2.19,2.19,0,0,0,101.62,418.94Z" transform="translate(0 0)"/><path class="c" d="M143,425.59a2.19,2.19,0,0,0-2.19-2.19h-0.17a2.19,2.19,0,1,0,0,4.37h0.17A2.19,2.19,0,0,0,143,425.59Z" transform="translate(0 0)"/><path class="c" d="M136.1,425.59a2.19,2.19,0,0,0-2.19-2.19h-0.17a2.19,2.19,0,0,0,0,4.37h0.17A2.19,2.19,0,0,0,136.1,425.59Z" transform="translate(0 0)"/><path class="c" d="M129.21,425.59A2.19,2.19,0,0,0,127,423.4h-0.17a2.19,2.19,0,1,0,0,4.37H127A2.19,2.19,0,0,0,129.21,425.59Z" transform="translate(0 0)"/><path class="c" d="M115.41,425.59a2.19,2.19,0,0,0-2.19-2.19h-0.17a2.19,2.19,0,0,0,0,4.37h0.17A2.19,2.19,0,0,0,115.41,425.59Z" transform="translate(0 0)"/><path class="c" d="M108.52,425.59a2.19,2.19,0,0,0-2.19-2.19h-0.17a2.19,2.19,0,1,0,0,4.37h0.17A2.19,2.19,0,0,0,108.52,425.59Z" transform="translate(0 0)"/><path class="c" d="M101.62,425.59a2.19,2.19,0,0,0-2.19-2.19H99.26a2.19,2.19,0,1,0,0,4.37h0.17A2.19,2.19,0,0,0,101.62,425.59Z" transform="translate(0 0)"/><path class="c" d="M143,432.23a2.19,2.19,0,0,0-2.19-2.19h-0.17a2.19,2.19,0,0,0,0,4.38h0.17A2.19,2.19,0,0,0,143,432.23Z" transform="translate(0 0)"/><path class="c" d="M136.1,432.23a2.19,2.19,0,0,0-2.19-2.19h-0.17a2.19,2.19,0,0,0,0,4.38h0.17A2.19,2.19,0,0,0,136.1,432.23Z" transform="translate(0 0)"/><path class="c" d="M129.21,432.23A2.19,2.19,0,0,0,127,430h-0.17a2.19,2.19,0,0,0,0,4.38H127A2.19,2.19,0,0,0,129.21,432.23Z" transform="translate(0 0)"/><path class="c" d="M115.41,432.23a2.19,2.19,0,0,0-2.19-2.19h-0.17a2.19,2.19,0,0,0,0,4.38h0.17A2.19,2.19,0,0,0,115.41,432.23Z" transform="translate(0 0)"/><path class="c" d="M108.52,432.23a2.19,2.19,0,0,0-2.19-2.19h-0.17a2.19,2.19,0,0,0,0,4.38h0.17A2.19,2.19,0,0,0,108.52,432.23Z" transform="translate(0 0)"/><path class="c" d="M101.62,432.23A2.19,2.19,0,0,0,99.43,430H99.26a2.19,2.19,0,0,0,0,4.38h0.17A2.19,2.19,0,0,0,101.62,432.23Z" transform="translate(0 0)"/><path class="c" d="M143,438.88a2.19,2.19,0,0,0-2.19-2.19h-0.17a2.19,2.19,0,0,0,0,4.37h0.17A2.19,2.19,0,0,0,143,438.88Z" transform="translate(0 0)"/><path class="c" d="M136.1,438.88a2.19,2.19,0,0,0-2.19-2.19h-0.17a2.19,2.19,0,0,0,0,4.37h0.17A2.19,2.19,0,0,0,136.1,438.88Z" transform="translate(0 0)"/><path class="c" d="M129.21,438.88A2.19,2.19,0,0,0,127,436.7h-0.17a2.19,2.19,0,1,0,0,4.37H127A2.19,2.19,0,0,0,129.21,438.88Z" transform="translate(0 0)"/><path class="c" d="M115.41,438.88a2.19,2.19,0,0,0-2.19-2.19h-0.17a2.19,2.19,0,0,0,0,4.37h0.17A2.19,2.19,0,0,0,115.41,438.88Z" transform="translate(0 0)"/><path class="c" d="M108.52,438.88a2.19,2.19,0,0,0-2.19-2.19h-0.17a2.19,2.19,0,1,0,0,4.37h0.17A2.19,2.19,0,0,0,108.52,438.88Z" transform="translate(0 0)"/><path class="c" d="M101.62,438.88a2.19,2.19,0,0,0-2.19-2.19H99.26a2.19,2.19,0,1,0,0,4.37h0.17A2.19,2.19,0,0,0,101.62,438.88Z" transform="translate(0 0)"/><path class="c" d="M143,445.53a2.19,2.19,0,0,0-2.19-2.19h-0.17a2.19,2.19,0,1,0,0,4.37h0.17A2.19,2.19,0,0,0,143,445.53Z" transform="translate(0 0)"/><path class="c" d="M136.1,445.53a2.19,2.19,0,0,0-2.19-2.19h-0.17a2.19,2.19,0,0,0,0,4.37h0.17A2.19,2.19,0,0,0,136.1,445.53Z" transform="translate(0 0)"/><path class="c" d="M129.21,445.53a2.19,2.19,0,0,0-2.19-2.19h-0.17a2.19,2.19,0,1,0,0,4.37H127A2.19,2.19,0,0,0,129.21,445.53Z" transform="translate(0 0)"/><path class="c" d="M115.41,445.53a2.19,2.19,0,0,0-2.19-2.19h-0.17a2.19,2.19,0,1,0,0,4.37h0.17A2.19,2.19,0,0,0,115.41,445.53Z" transform="translate(0 0)"/><path class="c" d="M108.52,445.53a2.19,2.19,0,0,0-2.19-2.19h-0.17a2.19,2.19,0,1,0,0,4.37h0.17A2.19,2.19,0,0,0,108.52,445.53Z" transform="translate(0 0)"/><path class="c" d="M101.62,445.53a2.19,2.19,0,0,0-2.19-2.19H99.26a2.19,2.19,0,1,0,0,4.37h0.17A2.19,2.19,0,0,0,101.62,445.53Z" transform="translate(0 0)"/><path class="c" d="M143,452.17a2.19,2.19,0,0,0-2.19-2.19h-0.17a2.19,2.19,0,0,0,0,4.38h0.17A2.19,2.19,0,0,0,143,452.17Z" transform="translate(0 0)"/><path class="c" d="M136.1,452.17a2.19,2.19,0,0,0-2.19-2.19h-0.17a2.19,2.19,0,0,0,0,4.38h0.17A2.19,2.19,0,0,0,136.1,452.17Z" transform="translate(0 0)"/><path class="c" d="M129.21,452.17A2.19,2.19,0,0,0,127,450h-0.17a2.19,2.19,0,0,0,0,4.38H127A2.19,2.19,0,0,0,129.21,452.17Z" transform="translate(0 0)"/><path class="c" d="M115.41,452.17a2.19,2.19,0,0,0-2.19-2.19h-0.17a2.19,2.19,0,0,0,0,4.38h0.17A2.19,2.19,0,0,0,115.41,452.17Z" transform="translate(0 0)"/><path class="c" d="M108.52,452.17a2.19,2.19,0,0,0-2.19-2.19h-0.17a2.19,2.19,0,1,0,0,4.38h0.17A2.19,2.19,0,0,0,108.52,452.17Z" transform="translate(0 0)"/><path class="c" d="M101.62,452.17A2.19,2.19,0,0,0,99.43,450H99.26a2.19,2.19,0,0,0,0,4.38h0.17A2.19,2.19,0,0,0,101.62,452.17Z" transform="translate(0 0)"/><path class="c" d="M143,458.82a2.19,2.19,0,0,0-2.19-2.19h-0.17a2.19,2.19,0,1,0,0,4.37h0.17A2.19,2.19,0,0,0,143,458.82Z" transform="translate(0 0)"/><path class="c" d="M136.1,458.82a2.19,2.19,0,0,0-2.19-2.19h-0.17a2.19,2.19,0,0,0,0,4.37h0.17A2.19,2.19,0,0,0,136.1,458.82Z" transform="translate(0 0)"/><path class="c" d="M129.21,458.82a2.19,2.19,0,0,0-2.19-2.19h-0.17a2.19,2.19,0,1,0,0,4.37H127A2.19,2.19,0,0,0,129.21,458.82Z" transform="translate(0 0)"/><path class="c" d="M115.41,458.82a2.19,2.19,0,0,0-2.19-2.19h-0.17a2.19,2.19,0,1,0,0,4.37h0.17A2.19,2.19,0,0,0,115.41,458.82Z" transform="translate(0 0)"/><path class="c" d="M108.52,458.82a2.19,2.19,0,0,0-2.19-2.19h-0.17a2.19,2.19,0,1,0,0,4.37h0.17A2.19,2.19,0,0,0,108.52,458.82Z" transform="translate(0 0)"/><path class="c" d="M101.62,458.82a2.19,2.19,0,0,0-2.19-2.19H99.26a2.19,2.19,0,1,0,0,4.37h0.17A2.19,2.19,0,0,0,101.62,458.82Z" transform="translate(0 0)"/><path class="c" d="M143,465.47a2.19,2.19,0,0,0-2.19-2.19h-0.17a2.19,2.19,0,0,0,0,4.37h0.17A2.19,2.19,0,0,0,143,465.47Z" transform="translate(0 0)"/><path class="c" d="M136.1,465.47a2.19,2.19,0,0,0-2.19-2.19h-0.17a2.19,2.19,0,0,0,0,4.37h0.17A2.19,2.19,0,0,0,136.1,465.47Z" transform="translate(0 0)"/><path class="c" d="M129.21,465.47a2.19,2.19,0,0,0-2.19-2.19h-0.17a2.19,2.19,0,1,0,0,4.37H127A2.19,2.19,0,0,0,129.21,465.47Z" transform="translate(0 0)"/><path class="c" d="M115.41,465.47a2.19,2.19,0,0,0-2.19-2.19h-0.17a2.19,2.19,0,0,0,0,4.37h0.17A2.19,2.19,0,0,0,115.41,465.47Z" transform="translate(0 0)"/><path class="c" d="M108.52,465.47a2.19,2.19,0,0,0-2.19-2.19h-0.17a2.19,2.19,0,1,0,0,4.37h0.17A2.19,2.19,0,0,0,108.52,465.47Z" transform="translate(0 0)"/><path class="c" d="M101.62,465.47a2.19,2.19,0,0,0-2.19-2.19H99.26a2.19,2.19,0,1,0,0,4.37h0.17A2.19,2.19,0,0,0,101.62,465.47Z" transform="translate(0 0)"/><path class="c" d="M143,472.11a2.19,2.19,0,0,0-2.19-2.19h-0.17a2.19,2.19,0,1,0,0,4.37h0.17A2.19,2.19,0,0,0,143,472.11Z" transform="translate(0 0)"/><path class="c" d="M136.1,472.11a2.19,2.19,0,0,0-2.19-2.19h-0.17a2.19,2.19,0,0,0,0,4.37h0.17A2.19,2.19,0,0,0,136.1,472.11Z" transform="translate(0 0)"/><path class="c" d="M129.21,472.11a2.19,2.19,0,0,0-2.19-2.19h-0.17a2.19,2.19,0,1,0,0,4.37H127A2.19,2.19,0,0,0,129.21,472.11Z" transform="translate(0 0)"/><path class="c" d="M115.41,472.11a2.19,2.19,0,0,0-2.19-2.19h-0.17a2.19,2.19,0,0,0,0,4.37h0.17A2.19,2.19,0,0,0,115.41,472.11Z" transform="translate(0 0)"/><path class="c" d="M108.52,472.11a2.19,2.19,0,0,0-2.19-2.19h-0.17a2.19,2.19,0,1,0,0,4.37h0.17A2.19,2.19,0,0,0,108.52,472.11Z" transform="translate(0 0)"/><path class="c" d="M101.62,472.11a2.19,2.19,0,0,0-2.19-2.19H99.26a2.19,2.19,0,1,0,0,4.37h0.17A2.19,2.19,0,0,0,101.62,472.11Z" transform="translate(0 0)"/><path class="c" d="M143,478.76a2.19,2.19,0,0,0-2.19-2.19h-0.17a2.19,2.19,0,1,0,0,4.37h0.17A2.19,2.19,0,0,0,143,478.76Z" transform="translate(0 0)"/><path class="c" d="M136.1,478.76a2.19,2.19,0,0,0-2.19-2.19h-0.17a2.19,2.19,0,0,0,0,4.37h0.17A2.19,2.19,0,0,0,136.1,478.76Z" transform="translate(0 0)"/><path class="c" d="M129.21,478.76a2.19,2.19,0,0,0-2.19-2.19h-0.17a2.19,2.19,0,1,0,0,4.37H127A2.19,2.19,0,0,0,129.21,478.76Z" transform="translate(0 0)"/><path class="c" d="M115.41,478.76a2.19,2.19,0,0,0-2.19-2.19h-0.17a2.19,2.19,0,1,0,0,4.37h0.17A2.19,2.19,0,0,0,115.41,478.76Z" transform="translate(0 0)"/><path class="c" d="M108.52,478.76a2.19,2.19,0,0,0-2.19-2.19h-0.17a2.19,2.19,0,1,0,0,4.37h0.17A2.19,2.19,0,0,0,108.52,478.76Z" transform="translate(0 0)"/><path class="c" d="M101.62,478.76a2.19,2.19,0,0,0-2.19-2.19H99.26a2.19,2.19,0,1,0,0,4.37h0.17A2.19,2.19,0,0,0,101.62,478.76Z" transform="translate(0 0)"/></g><line class="e" x1="95.1" y1="293.88" x2="95.1" y2="356.29"/><line class="e" x1="144.99" y1="293.88" x2="144.99" y2="356.29"/><path class="f" d="M225.32,205.26l-1,0c-11.29-.55-15-10.62-14.7-17.32V80.53a4,4,0,1,1,8,0V188.19c0,1.43.06,8.71,7.1,9.05,2.59,0.12,4.46-.45,5.73-1.77,2.3-2.38,2.47-6.9,2.34-8.44a4,4,0,0,1,8-.72c0.09,0.93.7,9.25-4.51,14.68A14.47,14.47,0,0,1,225.32,205.26Z" transform="translate(0 0)"/><path class="f" d="M210.61,143a41.44,41.44,0,0,0-22,8.23c-6.55-9-16.3-14.64-27.19-14.64a31.09,31.09,0,0,0-10.17,1.72,62.53,62.53,0,0,1,59.39-57.87V80.39a3,3,0,1,1,5.95,0v0.07a62.54,62.54,0,0,1,59.39,57.87,31.16,31.16,0,0,0-10.17-1.72c-10.89,0-20.63,5.68-27.18,14.64a41.48,41.48,0,0,0-22-8.23" transform="translate(0 0)"/><polygon class="g" points="425.2 23.57 401.63 0 212.6 189.03 23.57 0 0 23.57 189.03 212.6 0 401.63 23.57 425.2 212.6 236.18 401.63 425.2 425.2 401.63 236.18 212.6 425.2 23.57"/></svg>