<svg xmlns="http://www.w3.org/2000/svg" xmlns:xlink="http://www.w3.org/1999/xlink" width="150mm" height="184.98mm" viewBox="0 0 425.2 524.36"><defs><style>.a,.d{fill:none;}.b{fill:#fff;}.c{fill:#0286a8;}.d{stroke:#00577e;stroke-width:8px;}.d,.g{stroke-linecap:round;stroke-miterlimit:10;}.e{fill:#00577e;}.f{clip-path:url(#a);}.g{fill:#258981;stroke:#fff;stroke-width:6px;}.h{fill:#e41f18;opacity:0.75;}</style><clipPath id="a" transform="translate(0 0)"><path class="a" d="M75.14,354.42V258.33A15.86,15.86,0,0,1,91,242.47h11.1v0h66.6v0h11.1a15.86,15.86,0,0,1,15.86,15.86v96.08H171.86V274.19h0s0,0,0,0a1.58,1.58,0,1,0-3.17,0s0,0,0,0h0v80.22h-66.6V274.19h0s0,0,0,0a1.59,1.59,0,1,0-3.17,0,0.23,0.23,0,0,0,0,0h0v80.22H75.14ZM135.4,239.27a31.72,31.72,0,1,0-31.73-31.72A31.72,31.72,0,0,0,135.4,239.27Z"/></clipPath></defs><title>geen_partnerpensioen_op_risicobasis</title><rect class="b" x="49.61" y="49.61" width="325.98" height="325.98" rx="35.43" ry="35.43"/><path class="c" d="M340.16,56.69A28.38,28.38,0,0,1,368.5,85V340.16a28.38,28.38,0,0,1-28.35,28.35H85a28.38,28.38,0,0,1-28.35-28.35V85A28.38,28.38,0,0,1,85,56.69H340.16m0-14.17H85A42.64,42.64,0,0,0,42.52,85V340.16A42.64,42.64,0,0,0,85,382.68H340.16a42.64,42.64,0,0,0,42.52-42.52V85a42.64,42.64,0,0,0-42.52-42.52h0Z" transform="translate(0 0)"/><path class="d" d="M213.31,80.53V188s-0.59,12.67,10.9,13.23c13.67,0.67,12.25-14.56,12.25-14.56" transform="translate(0 0)"/><path class="e" d="M210.34,143a41.44,41.44,0,0,0-22,8.23c-6.55-9-16.3-14.64-27.19-14.64a31.09,31.09,0,0,0-10.17,1.72,62.53,62.53,0,0,1,59.39-57.87V80.39a3,3,0,1,1,5.95,0v0.07a62.54,62.54,0,0,1,59.39,57.87,31.16,31.16,0,0,0-10.17-1.72c-10.89,0-20.63,5.68-27.18,14.64a41.48,41.48,0,0,0-22-8.23" transform="translate(0 0)"/><path class="c" d="M288.3,239.27a31.72,31.72,0,1,0-31.73-31.72A31.72,31.72,0,0,0,288.3,239.27Z" transform="translate(0 0)"/><path class="c" d="M332.69,242.47h-11.1v0H255v0h-11.1A15.86,15.86,0,0,0,228,258.33v96.08H250.4V272.56a3,3,0,1,1,6,0v81.85H320V272.56a3,3,0,1,1,6,0v81.85h22.55V258.33A15.86,15.86,0,0,0,332.69,242.47Z" transform="translate(0 0)"/><g class="f"><path class="c" d="M157.06,180.53a3,3,0,0,0-3-3h-0.23a3,3,0,0,0,0,5.9h0.23A3,3,0,0,0,157.06,180.53Z" transform="translate(0 0)"/><path class="c" d="M147.76,180.53a3,3,0,0,0-2.95-3h-0.23a3,3,0,1,0,0,5.9h0.23A3,3,0,0,0,147.76,180.53Z" transform="translate(0 0)"/><path class="c" d="M138.45,180.53a3,3,0,0,0-3-3h-0.23a3,3,0,1,0,0,5.9h0.23A3,3,0,0,0,138.45,180.53Z" transform="translate(0 0)"/><path class="c" d="M129.14,180.53a3,3,0,0,0-2.95-3H126a3,3,0,0,0,0,5.9h0.23A3,3,0,0,0,129.14,180.53Z" transform="translate(0 0)"/><path class="c" d="M119.83,180.53a3,3,0,0,0-3-3h-0.23a3,3,0,1,0,0,5.9h0.23A3,3,0,0,0,119.83,180.53Z" transform="translate(0 0)"/><path class="c" d="M166.37,189.51a3,3,0,0,0-3-3h-0.23a3,3,0,0,0,0,5.9h0.23A3,3,0,0,0,166.37,189.51Z" transform="translate(0 0)"/><path class="c" d="M157.06,189.51a3,3,0,0,0-3-3h-0.23a3,3,0,0,0,0,5.9h0.23A3,3,0,0,0,157.06,189.51Z" transform="translate(0 0)"/><path class="c" d="M147.76,189.51a3,3,0,0,0-3-3h-0.23a3,3,0,1,0,0,5.9h0.23A3,3,0,0,0,147.76,189.51Z" transform="translate(0 0)"/><path class="c" d="M138.45,189.51a3,3,0,0,0-3-3h-0.23a3,3,0,0,0,0,5.9h0.23A3,3,0,0,0,138.45,189.51Z" transform="translate(0 0)"/><path class="c" d="M129.14,189.51a3,3,0,0,0-3-3H126a3,3,0,0,0,0,5.9h0.23A3,3,0,0,0,129.14,189.51Z" transform="translate(0 0)"/><path class="c" d="M119.83,189.51a3,3,0,0,0-3-3h-0.23a3,3,0,1,0,0,5.9h0.23A3,3,0,0,0,119.83,189.51Z" transform="translate(0 0)"/><path class="c" d="M110.52,189.51a3,3,0,0,0-3-3h-0.23a3,3,0,1,0,0,5.9h0.23A3,3,0,0,0,110.52,189.51Z" transform="translate(0 0)"/><path class="c" d="M166.37,198.48a3,3,0,0,0-3-3h-0.23a3,3,0,0,0,0,5.9h0.23A3,3,0,0,0,166.37,198.48Z" transform="translate(0 0)"/><path class="c" d="M157.06,198.48a3,3,0,0,0-3-3h-0.23a3,3,0,0,0,0,5.9h0.23A3,3,0,0,0,157.06,198.48Z" transform="translate(0 0)"/><path class="c" d="M147.76,198.48a3,3,0,0,0-3-3h-0.23a3,3,0,1,0,0,5.9h0.23A3,3,0,0,0,147.76,198.48Z" transform="translate(0 0)"/><path class="c" d="M138.45,198.48a3,3,0,0,0-3-3h-0.23a3,3,0,0,0,0,5.9h0.23A3,3,0,0,0,138.45,198.48Z" transform="translate(0 0)"/><path class="c" d="M129.14,198.48a3,3,0,0,0-3-3H126a3,3,0,0,0,0,5.9h0.23A3,3,0,0,0,129.14,198.48Z" transform="translate(0 0)"/><path class="c" d="M119.83,198.48a3,3,0,0,0-3-3h-0.23a3,3,0,1,0,0,5.9h0.23A3,3,0,0,0,119.83,198.48Z" transform="translate(0 0)"/><path class="c" d="M110.52,198.48a3,3,0,0,0-3-3h-0.23a3,3,0,0,0,0,5.9h0.23A3,3,0,0,0,110.52,198.48Z" transform="translate(0 0)"/><path class="c" d="M166.37,207.44a3,3,0,0,0-3-3h-0.23a3,3,0,0,0,0,5.9h0.23A3,3,0,0,0,166.37,207.44Z" transform="translate(0 0)"/><path class="c" d="M157.06,207.44a3,3,0,0,0-3-3h-0.23a3,3,0,0,0,0,5.9h0.23A3,3,0,0,0,157.06,207.44Z" transform="translate(0 0)"/><path class="c" d="M147.76,207.44a3,3,0,0,0-2.95-3h-0.23a3,3,0,1,0,0,5.9h0.23A3,3,0,0,0,147.76,207.44Z" transform="translate(0 0)"/><path class="c" d="M138.45,207.44a3,3,0,0,0-3-3h-0.23a3,3,0,1,0,0,5.9h0.23A3,3,0,0,0,138.45,207.44Z" transform="translate(0 0)"/><path class="c" d="M129.14,207.44a3,3,0,0,0-2.95-3H126a3,3,0,0,0,0,5.9h0.23A3,3,0,0,0,129.14,207.44Z" transform="translate(0 0)"/><path class="c" d="M119.83,207.44a3,3,0,0,0-3-3h-0.23a3,3,0,1,0,0,5.9h0.23A3,3,0,0,0,119.83,207.44Z" transform="translate(0 0)"/><path class="c" d="M110.52,207.44a3,3,0,0,0-3-3h-0.22a3,3,0,1,0,0,5.9h0.22A3,3,0,0,0,110.52,207.44Z" transform="translate(0 0)"/><path class="c" d="M166.37,216.42a3,3,0,0,0-3-3h-0.23a3,3,0,0,0,0,5.9h0.23A3,3,0,0,0,166.37,216.42Z" transform="translate(0 0)"/><path class="c" d="M157.06,216.42a3,3,0,0,0-3-3h-0.23a3,3,0,0,0,0,5.9h0.23A3,3,0,0,0,157.06,216.42Z" transform="translate(0 0)"/><path class="c" d="M147.76,216.42a3,3,0,0,0-3-3h-0.23a3,3,0,1,0,0,5.9h0.23A3,3,0,0,0,147.76,216.42Z" transform="translate(0 0)"/><path class="c" d="M138.45,216.42a3,3,0,0,0-3-3h-0.23a3,3,0,0,0,0,5.9h0.23A3,3,0,0,0,138.45,216.42Z" transform="translate(0 0)"/><path class="c" d="M129.14,216.42a3,3,0,0,0-3-3H126a3,3,0,0,0,0,5.9h0.23A3,3,0,0,0,129.14,216.42Z" transform="translate(0 0)"/><path class="c" d="M119.83,216.42a3,3,0,0,0-3-3h-0.23a3,3,0,1,0,0,5.9h0.23A3,3,0,0,0,119.83,216.42Z" transform="translate(0 0)"/><path class="c" d="M110.52,216.42a3,3,0,0,0-3-3h-0.23a3,3,0,0,0,0,5.9h0.23A3,3,0,0,0,110.52,216.42Z" transform="translate(0 0)"/><path class="c" d="M166.37,225.39a3,3,0,0,0-3-3h-0.23a3,3,0,1,0,0,5.9h0.23A3,3,0,0,0,166.37,225.39Z" transform="translate(0 0)"/><path class="c" d="M157.06,225.39a3,3,0,0,0-3-3h-0.23a3,3,0,0,0,0,5.9h0.23A3,3,0,0,0,157.06,225.39Z" transform="translate(0 0)"/><path class="c" d="M147.76,225.39a3,3,0,0,0-3-3h-0.23a3,3,0,1,0,0,5.9h0.23A3,3,0,0,0,147.76,225.39Z" transform="translate(0 0)"/><path class="c" d="M138.45,225.39a3,3,0,0,0-3-3h-0.23a3,3,0,0,0,0,5.9h0.23A3,3,0,0,0,138.45,225.39Z" transform="translate(0 0)"/><path class="c" d="M129.14,225.39a3,3,0,0,0-3-3H126a3,3,0,0,0,0,5.9h0.23A3,3,0,0,0,129.14,225.39Z" transform="translate(0 0)"/><path class="c" d="M119.83,225.39a3,3,0,0,0-3-3h-0.23a3,3,0,1,0,0,5.9h0.23A3,3,0,0,0,119.83,225.39Z" transform="translate(0 0)"/><path class="c" d="M110.52,225.39a3,3,0,0,0-3-3h-0.23a3,3,0,1,0,0,5.9h0.23A3,3,0,0,0,110.52,225.39Z" transform="translate(0 0)"/><path class="c" d="M157.06,234.36a3,3,0,0,0-3-3h-0.23a3,3,0,0,0,0,5.9h0.23A3,3,0,0,0,157.06,234.36Z" transform="translate(0 0)"/><path class="c" d="M147.76,234.36a3,3,0,0,0-2.95-3h-0.23a3,3,0,1,0,0,5.9h0.23A3,3,0,0,0,147.76,234.36Z" transform="translate(0 0)"/><path class="c" d="M138.45,234.36a3,3,0,0,0-3-3h-0.23a3,3,0,1,0,0,5.9h0.23A3,3,0,0,0,138.45,234.36Z" transform="translate(0 0)"/><path class="c" d="M129.14,234.36a3,3,0,0,0-2.95-3H126a3,3,0,0,0,0,5.9h0.23A3,3,0,0,0,129.14,234.36Z" transform="translate(0 0)"/><path class="c" d="M119.83,234.36a3,3,0,0,0-3-3h-0.23a3,3,0,0,0,0,5.9h0.23A3,3,0,0,0,119.83,234.36Z" transform="translate(0 0)"/><path class="c" d="M185,243.33a3,3,0,0,0-3-3h-0.23a3,3,0,1,0,0,5.9H182A3,3,0,0,0,185,243.33Z" transform="translate(0 0)"/><path class="c" d="M175.68,243.33a3,3,0,0,0-3-3H172.5a3,3,0,1,0,0,5.9h0.23A3,3,0,0,0,175.68,243.33Z" transform="translate(0 0)"/><path class="c" d="M166.37,243.33a3,3,0,0,0-3-3h-0.23a3,3,0,1,0,0,5.9h0.23A3,3,0,0,0,166.37,243.33Z" transform="translate(0 0)"/><path class="c" d="M157.06,243.33a3,3,0,0,0-3-3h-0.23a3,3,0,0,0,0,5.9h0.23A3,3,0,0,0,157.06,243.33Z" transform="translate(0 0)"/><path class="c" d="M147.76,243.33a3,3,0,0,0-3-3h-0.23a3,3,0,1,0,0,5.9h0.23A3,3,0,0,0,147.76,243.33Z" transform="translate(0 0)"/><path class="c" d="M138.45,243.33a3,3,0,0,0-3-3h-0.23a3,3,0,1,0,0,5.9h0.23A3,3,0,0,0,138.45,243.33Z" transform="translate(0 0)"/><path class="c" d="M129.14,243.33a3,3,0,0,0-3-3H126a3,3,0,1,0,0,5.9h0.23A3,3,0,0,0,129.14,243.33Z" transform="translate(0 0)"/><path class="c" d="M119.83,243.33a3,3,0,0,0-3-3h-0.23a3,3,0,1,0,0,5.9h0.23A3,3,0,0,0,119.83,243.33Z" transform="translate(0 0)"/><path class="c" d="M110.52,243.33a3,3,0,0,0-3-3h-0.23a3,3,0,1,0,0,5.9h0.23A3,3,0,0,0,110.52,243.33Z" transform="translate(0 0)"/><path class="c" d="M101.21,243.33a3,3,0,0,0-3-3H98a3,3,0,1,0,0,5.9h0.23A3,3,0,0,0,101.21,243.33Z" transform="translate(0 0)"/><path class="c" d="M91.91,243.33a3,3,0,0,0-3-3H88.73a3,3,0,1,0,0,5.9H89A3,3,0,0,0,91.91,243.33Z" transform="translate(0 0)"/><path class="c" d="M194.3,252.29a3,3,0,0,0-3-2.95h-0.23a3,3,0,0,0,0,5.9h0.23A3,3,0,0,0,194.3,252.29Z" transform="translate(0 0)"/><path class="c" d="M185,252.29a3,3,0,0,0-3-2.95h-0.23a3,3,0,1,0,0,5.9H182A3,3,0,0,0,185,252.29Z" transform="translate(0 0)"/><path class="c" d="M175.68,252.29a3,3,0,0,0-3-2.95H172.5a3,3,0,1,0,0,5.9h0.23A3,3,0,0,0,175.68,252.29Z" transform="translate(0 0)"/><path class="c" d="M166.37,252.29a3,3,0,0,0-3-2.95h-0.23a3,3,0,1,0,0,5.9h0.23A3,3,0,0,0,166.37,252.29Z" transform="translate(0 0)"/><path class="c" d="M157.06,252.29a3,3,0,0,0-3-2.95h-0.23a3,3,0,0,0,0,5.9h0.23A3,3,0,0,0,157.06,252.29Z" transform="translate(0 0)"/><path class="c" d="M147.76,252.29a3,3,0,0,0-3-2.95h-0.23a3,3,0,1,0,0,5.9h0.23A3,3,0,0,0,147.76,252.29Z" transform="translate(0 0)"/><path class="c" d="M138.45,252.29a3,3,0,0,0-3-2.95h-0.23a3,3,0,1,0,0,5.9h0.23A3,3,0,0,0,138.45,252.29Z" transform="translate(0 0)"/><path class="c" d="M129.14,252.29a3,3,0,0,0-3-2.95H126a3,3,0,1,0,0,5.9h0.23A3,3,0,0,0,129.14,252.29Z" transform="translate(0 0)"/><path class="c" d="M119.83,252.29a3,3,0,0,0-3-2.95h-0.23a3,3,0,1,0,0,5.9h0.23A3,3,0,0,0,119.83,252.29Z" transform="translate(0 0)"/><path class="c" d="M110.52,252.29a3,3,0,0,0-3-2.95h-0.23a3,3,0,1,0,0,5.9h0.23A3,3,0,0,0,110.52,252.29Z" transform="translate(0 0)"/><path class="c" d="M101.21,252.29a3,3,0,0,0-3-2.95H98a3,3,0,1,0,0,5.9h0.23A3,3,0,0,0,101.21,252.29Z" transform="translate(0 0)"/><path class="c" d="M91.91,252.29a3,3,0,0,0-3-2.95H88.73a3,3,0,1,0,0,5.9H89A3,3,0,0,0,91.91,252.29Z" transform="translate(0 0)"/><path class="c" d="M82.6,252.29a3,3,0,0,0-3-2.95H79.42a3,3,0,1,0,0,5.9h0.23A3,3,0,0,0,82.6,252.29Z" transform="translate(0 0)"/><path class="c" d="M194.3,261.27a3,3,0,0,0-3-3h-0.23a3,3,0,0,0,0,5.9h0.23A3,3,0,0,0,194.3,261.27Z" transform="translate(0 0)"/><path class="c" d="M185,261.27a3,3,0,0,0-3-3h-0.23a3,3,0,0,0,0,5.9H182A3,3,0,0,0,185,261.27Z" transform="translate(0 0)"/><path class="c" d="M175.68,261.27a3,3,0,0,0-3-3H172.5a3,3,0,1,0,0,5.9h0.23A3,3,0,0,0,175.68,261.27Z" transform="translate(0 0)"/><path class="c" d="M166.38,261.27a3,3,0,0,0-3-3H163.2a3,3,0,1,0,0,5.9h0.23A3,3,0,0,0,166.38,261.27Z" transform="translate(0 0)"/><path class="c" d="M157.06,261.27a3,3,0,0,0-3-3h-0.23a3,3,0,0,0,0,5.9h0.23A3,3,0,0,0,157.06,261.27Z" transform="translate(0 0)"/><path class="c" d="M147.76,261.27a3,3,0,0,0-3-3h-0.23a3,3,0,0,0,0,5.9h0.23A3,3,0,0,0,147.76,261.27Z" transform="translate(0 0)"/><path class="c" d="M138.45,261.27a3,3,0,0,0-3-3h-0.23a3,3,0,1,0,0,5.9h0.23A3,3,0,0,0,138.45,261.27Z" transform="translate(0 0)"/><path class="c" d="M129.14,261.27a3,3,0,0,0-3-3H126a3,3,0,0,0,0,5.9h0.23A3,3,0,0,0,129.14,261.27Z" transform="translate(0 0)"/><path class="c" d="M119.83,261.27a3,3,0,0,0-3-3h-0.23a3,3,0,0,0,0,5.9h0.23A3,3,0,0,0,119.83,261.27Z" transform="translate(0 0)"/><path class="c" d="M110.52,261.27a3,3,0,0,0-3-3h-0.23a3,3,0,0,0,0,5.9h0.23A3,3,0,0,0,110.52,261.27Z" transform="translate(0 0)"/><path class="c" d="M101.21,261.27a3,3,0,0,0-3-3H98a3,3,0,1,0,0,5.9h0.23A3,3,0,0,0,101.21,261.27Z" transform="translate(0 0)"/><path class="c" d="M91.91,261.27a3,3,0,0,0-3-3H88.73a3,3,0,0,0,0,5.9H89A3,3,0,0,0,91.91,261.27Z" transform="translate(0 0)"/><path class="c" d="M82.6,261.27a3,3,0,0,0-3-3H79.42a3,3,0,0,0,0,5.9h0.23A3,3,0,0,0,82.6,261.27Z" transform="translate(0 0)"/><path class="c" d="M194.3,270.24a3,3,0,0,0-3-3h-0.23a3,3,0,1,0,0,5.9h0.23A3,3,0,0,0,194.3,270.24Z" transform="translate(0 0)"/><path class="c" d="M185,270.24a3,3,0,0,0-3-3h-0.23a3,3,0,1,0,0,5.9H182A3,3,0,0,0,185,270.24Z" transform="translate(0 0)"/><path class="c" d="M175.68,270.24a3,3,0,0,0-3-3H172.5a3,3,0,1,0,0,5.9h0.23A3,3,0,0,0,175.68,270.24Z" transform="translate(0 0)"/><path class="c" d="M166.37,270.24a3,3,0,0,0-3-3h-0.23a3,3,0,1,0,0,5.9h0.23A3,3,0,0,0,166.37,270.24Z" transform="translate(0 0)"/><path class="c" d="M157.06,270.24a3,3,0,0,0-3-3h-0.23a3,3,0,0,0,0,5.9h0.23A3,3,0,0,0,157.06,270.24Z" transform="translate(0 0)"/><path class="c" d="M147.76,270.24a3,3,0,0,0-3-3h-0.23a3,3,0,1,0,0,5.9h0.23A3,3,0,0,0,147.76,270.24Z" transform="translate(0 0)"/><path class="c" d="M138.45,270.24a3,3,0,0,0-3-3h-0.23a3,3,0,1,0,0,5.9h0.23A3,3,0,0,0,138.45,270.24Z" transform="translate(0 0)"/><path class="c" d="M129.14,270.24a3,3,0,0,0-3-3H126a3,3,0,1,0,0,5.9h0.23A3,3,0,0,0,129.14,270.24Z" transform="translate(0 0)"/><path class="c" d="M119.83,270.24a3,3,0,0,0-3-3h-0.23a3,3,0,1,0,0,5.9h0.23A3,3,0,0,0,119.83,270.24Z" transform="translate(0 0)"/><path class="c" d="M110.52,270.24a3,3,0,0,0-3-3h-0.23a3,3,0,1,0,0,5.9h0.23A3,3,0,0,0,110.52,270.24Z" transform="translate(0 0)"/><path class="c" d="M101.21,270.24a3,3,0,0,0-3-3H98a3,3,0,1,0,0,5.9h0.23A3,3,0,0,0,101.21,270.24Z" transform="translate(0 0)"/><path class="c" d="M91.91,270.24a3,3,0,0,0-3-3H88.73a3,3,0,1,0,0,5.9H89A3,3,0,0,0,91.91,270.24Z" transform="translate(0 0)"/><path class="c" d="M82.6,270.24a3,3,0,0,0-3-3H79.42a3,3,0,1,0,0,5.9h0.23A3,3,0,0,0,82.6,270.24Z" transform="translate(0 0)"/><path class="c" d="M194.3,279.21a3,3,0,0,0-3-2.95h-0.22a3,3,0,1,0,0,5.9h0.22A3,3,0,0,0,194.3,279.21Z" transform="translate(0 0)"/><path class="c" d="M185,279.21a3,3,0,0,0-3-2.95h-0.23a3,3,0,0,0,0,5.9H182A3,3,0,0,0,185,279.21Z" transform="translate(0 0)"/><path class="c" d="M175.68,279.21a3,3,0,0,0-3-2.95H172.5a3,3,0,1,0,0,5.9h0.23A3,3,0,0,0,175.68,279.21Z" transform="translate(0 0)"/><path class="c" d="M166.37,279.21a3,3,0,0,0-3-2.95h-0.23a3,3,0,1,0,0,5.9h0.23A3,3,0,0,0,166.37,279.21Z" transform="translate(0 0)"/><path class="c" d="M157.06,279.21a3,3,0,0,0-3-2.95h-0.23a3,3,0,1,0,0,5.9h0.23A3,3,0,0,0,157.06,279.21Z" transform="translate(0 0)"/><path class="c" d="M147.76,279.21a3,3,0,0,0-2.95-2.95h-0.23a3,3,0,1,0,0,5.9h0.23A3,3,0,0,0,147.76,279.21Z" transform="translate(0 0)"/><path class="c" d="M138.45,279.21a3,3,0,0,0-3-2.95h-0.23a3,3,0,1,0,0,5.9h0.23A3,3,0,0,0,138.45,279.21Z" transform="translate(0 0)"/><path class="c" d="M129.14,279.21a3,3,0,0,0-2.95-2.95H126a3,3,0,1,0,0,5.9h0.23A3,3,0,0,0,129.14,279.21Z" transform="translate(0 0)"/><path class="c" d="M119.83,279.21a3,3,0,0,0-3-2.95h-0.23a3,3,0,1,0,0,5.9h0.23A3,3,0,0,0,119.83,279.21Z" transform="translate(0 0)"/><path class="c" d="M110.52,279.21a3,3,0,0,0-3-2.95h-0.22a3,3,0,1,0,0,5.9h0.22A3,3,0,0,0,110.52,279.21Z" transform="translate(0 0)"/><path class="c" d="M101.21,279.21a3,3,0,0,0-3-2.95H98a3,3,0,1,0,0,5.9h0.23A3,3,0,0,0,101.21,279.21Z" transform="translate(0 0)"/><path class="c" d="M91.9,279.21a3,3,0,0,0-3-2.95H88.73a3,3,0,1,0,0,5.9H89A3,3,0,0,0,91.9,279.21Z" transform="translate(0 0)"/><path class="c" d="M82.6,279.21a3,3,0,0,0-3-2.95H79.42a3,3,0,1,0,0,5.9h0.23A3,3,0,0,0,82.6,279.21Z" transform="translate(0 0)"/><path class="c" d="M194.3,288.18a3,3,0,0,0-3-3h-0.23a3,3,0,0,0,0,5.9h0.23A3,3,0,0,0,194.3,288.18Z" transform="translate(0 0)"/><path class="c" d="M185,288.18a3,3,0,0,0-3-3h-0.23a3,3,0,0,0,0,5.9H182A3,3,0,0,0,185,288.18Z" transform="translate(0 0)"/><path class="c" d="M175.68,288.18a3,3,0,0,0-3-3H172.5a3,3,0,1,0,0,5.9h0.23A3,3,0,0,0,175.68,288.18Z" transform="translate(0 0)"/><path class="c" d="M166.38,288.18a3,3,0,0,0-3-3H163.2a3,3,0,1,0,0,5.9h0.23A3,3,0,0,0,166.38,288.18Z" transform="translate(0 0)"/><path class="c" d="M157.06,288.18a3,3,0,0,0-3-3h-0.23a3,3,0,0,0,0,5.9h0.23A3,3,0,0,0,157.06,288.18Z" transform="translate(0 0)"/><path class="c" d="M147.76,288.18a3,3,0,0,0-3-3h-0.23a3,3,0,1,0,0,5.9h0.23A3,3,0,0,0,147.76,288.18Z" transform="translate(0 0)"/><path class="c" d="M138.45,288.18a3,3,0,0,0-3-3h-0.23a3,3,0,1,0,0,5.9h0.23A3,3,0,0,0,138.45,288.18Z" transform="translate(0 0)"/><path class="c" d="M129.14,288.18a3,3,0,0,0-3-3H126a3,3,0,0,0,0,5.9h0.23A3,3,0,0,0,129.14,288.18Z" transform="translate(0 0)"/><path class="c" d="M119.83,288.18a3,3,0,0,0-3-3h-0.23a3,3,0,0,0,0,5.9h0.23A3,3,0,0,0,119.83,288.18Z" transform="translate(0 0)"/><path class="c" d="M110.52,288.18a3,3,0,0,0-3-3h-0.23a3,3,0,1,0,0,5.9h0.23A3,3,0,0,0,110.52,288.18Z" transform="translate(0 0)"/><path class="c" d="M101.21,288.18a3,3,0,0,0-3-3H98a3,3,0,1,0,0,5.9h0.23A3,3,0,0,0,101.21,288.18Z" transform="translate(0 0)"/><path class="c" d="M91.91,288.18a3,3,0,0,0-3-3H88.73a3,3,0,0,0,0,5.9H89A3,3,0,0,0,91.91,288.18Z" transform="translate(0 0)"/><path class="c" d="M82.6,288.18a3,3,0,0,0-3-3H79.42a3,3,0,1,0,0,5.9h0.23A3,3,0,0,0,82.6,288.18Z" transform="translate(0 0)"/><path class="c" d="M194.3,297.15a3,3,0,0,0-3-3h-0.23a3,3,0,0,0,0,5.91h0.23A3,3,0,0,0,194.3,297.15Z" transform="translate(0 0)"/><path class="c" d="M185,297.15a3,3,0,0,0-3-3h-0.23a3,3,0,0,0,0,5.91H182A3,3,0,0,0,185,297.15Z" transform="translate(0 0)"/><path class="c" d="M175.68,297.15a3,3,0,0,0-3-3H172.5a3,3,0,1,0,0,5.91h0.23A3,3,0,0,0,175.68,297.15Z" transform="translate(0 0)"/><path class="c" d="M166.38,297.15a3,3,0,0,0-3-3H163.2a3,3,0,0,0,0,5.91h0.23A3,3,0,0,0,166.38,297.15Z" transform="translate(0 0)"/><path class="c" d="M157.06,297.15a3,3,0,0,0-3-3h-0.23a3,3,0,0,0,0,5.91h0.23A3,3,0,0,0,157.06,297.15Z" transform="translate(0 0)"/><path class="c" d="M147.76,297.15a3,3,0,0,0-3-3h-0.23a3,3,0,0,0,0,5.91h0.23A3,3,0,0,0,147.76,297.15Z" transform="translate(0 0)"/><path class="c" d="M138.45,297.15a3,3,0,0,0-3-3h-0.23a3,3,0,1,0,0,5.91h0.23A3,3,0,0,0,138.45,297.15Z" transform="translate(0 0)"/><path class="c" d="M129.14,297.15a3,3,0,0,0-3-3H126a3,3,0,0,0,0,5.91h0.23A3,3,0,0,0,129.14,297.15Z" transform="translate(0 0)"/><path class="c" d="M119.83,297.15a3,3,0,0,0-3-3h-0.23a3,3,0,0,0,0,5.91h0.23A3,3,0,0,0,119.83,297.15Z" transform="translate(0 0)"/><path class="c" d="M110.52,297.15a3,3,0,0,0-3-3h-0.23a3,3,0,0,0,0,5.91h0.23A3,3,0,0,0,110.52,297.15Z" transform="translate(0 0)"/><path class="c" d="M101.21,297.15a3,3,0,0,0-3-3H98a3,3,0,0,0,0,5.91h0.23A3,3,0,0,0,101.21,297.15Z" transform="translate(0 0)"/><path class="c" d="M91.91,297.15a3,3,0,0,0-3-3H88.73a3,3,0,0,0,0,5.91H89A3,3,0,0,0,91.91,297.15Z" transform="translate(0 0)"/><path class="c" d="M82.6,297.15a3,3,0,0,0-3-3H79.42a3,3,0,0,0,0,5.91h0.23A3,3,0,0,0,82.6,297.15Z" transform="translate(0 0)"/><path class="c" d="M194.3,306.12a3,3,0,0,0-3-3h-0.23a3,3,0,0,0,0,5.91h0.23A3,3,0,0,0,194.3,306.12Z" transform="translate(0 0)"/><path class="c" d="M185,306.12a3,3,0,0,0-3-3h-0.23a3,3,0,0,0,0,5.91H182A3,3,0,0,0,185,306.12Z" transform="translate(0 0)"/><path class="c" d="M175.68,306.12a3,3,0,0,0-3-3H172.5a3,3,0,0,0,0,5.91h0.23A3,3,0,0,0,175.68,306.12Z" transform="translate(0 0)"/><path class="c" d="M166.37,306.12a3,3,0,0,0-3-3h-0.23a3,3,0,0,0,0,5.91h0.23A3,3,0,0,0,166.37,306.12Z" transform="translate(0 0)"/><path class="c" d="M157.06,306.12a3,3,0,0,0-3-3h-0.23a3,3,0,0,0,0,5.91h0.23A3,3,0,0,0,157.06,306.12Z" transform="translate(0 0)"/><path class="c" d="M147.76,306.12a3,3,0,0,0-3-3h-0.23a3,3,0,0,0,0,5.91h0.23A3,3,0,0,0,147.76,306.12Z" transform="translate(0 0)"/><path class="c" d="M138.45,306.12a3,3,0,0,0-3-3h-0.23a3,3,0,0,0,0,5.91h0.23A3,3,0,0,0,138.45,306.12Z" transform="translate(0 0)"/><path class="c" d="M129.14,306.12a3,3,0,0,0-3-3H126a3,3,0,0,0,0,5.91h0.23A3,3,0,0,0,129.14,306.12Z" transform="translate(0 0)"/><path class="c" d="M119.83,306.12a3,3,0,0,0-3-3h-0.23a3,3,0,0,0,0,5.91h0.23A3,3,0,0,0,119.83,306.12Z" transform="translate(0 0)"/><path class="c" d="M110.52,306.12a3,3,0,0,0-3-3h-0.23a3,3,0,0,0,0,5.91h0.23A3,3,0,0,0,110.52,306.12Z" transform="translate(0 0)"/><path class="c" d="M101.21,306.12a3,3,0,0,0-3-3H98a3,3,0,0,0,0,5.91h0.23A3,3,0,0,0,101.21,306.12Z" transform="translate(0 0)"/><path class="c" d="M91.91,306.12a3,3,0,0,0-3-3H88.73a3,3,0,0,0,0,5.91H89A3,3,0,0,0,91.91,306.12Z" transform="translate(0 0)"/><path class="c" d="M82.6,306.12a3,3,0,0,0-3-3H79.42a3,3,0,0,0,0,5.91h0.23A3,3,0,0,0,82.6,306.12Z" transform="translate(0 0)"/><path class="c" d="M194.3,315.09a3,3,0,0,0-3-3h-0.23a3,3,0,0,0,0,5.9h0.23A3,3,0,0,0,194.3,315.09Z" transform="translate(0 0)"/><path class="c" d="M185,315.09a3,3,0,0,0-3-3h-0.23a3,3,0,1,0,0,5.9H182A3,3,0,0,0,185,315.09Z" transform="translate(0 0)"/><path class="c" d="M175.68,315.09a3,3,0,0,0-3-3H172.5a3,3,0,0,0,0,5.9h0.23A3,3,0,0,0,175.68,315.09Z" transform="translate(0 0)"/><path class="c" d="M166.37,315.09a3,3,0,0,0-3-3h-0.23a3,3,0,0,0,0,5.9h0.23A3,3,0,0,0,166.37,315.09Z" transform="translate(0 0)"/><path class="c" d="M157.06,315.09a3,3,0,0,0-3-3h-0.23a3,3,0,0,0,0,5.9h0.23A3,3,0,0,0,157.06,315.09Z" transform="translate(0 0)"/><path class="c" d="M147.76,315.09a3,3,0,0,0-3-3h-0.23a3,3,0,1,0,0,5.9h0.23A3,3,0,0,0,147.76,315.09Z" transform="translate(0 0)"/><path class="c" d="M138.45,315.09a3,3,0,0,0-3-3h-0.23a3,3,0,0,0,0,5.9h0.23A3,3,0,0,0,138.45,315.09Z" transform="translate(0 0)"/><path class="c" d="M129.14,315.09a3,3,0,0,0-3-3H126a3,3,0,0,0,0,5.9h0.23A3,3,0,0,0,129.14,315.09Z" transform="translate(0 0)"/><path class="c" d="M119.83,315.09a3,3,0,0,0-3-3h-0.23a3,3,0,1,0,0,5.9h0.23A3,3,0,0,0,119.83,315.09Z" transform="translate(0 0)"/><path class="c" d="M110.52,315.09a3,3,0,0,0-3-3h-0.23a3,3,0,0,0,0,5.9h0.23A3,3,0,0,0,110.52,315.09Z" transform="translate(0 0)"/><path class="c" d="M101.21,315.09a3,3,0,0,0-3-3H98a3,3,0,0,0,0,5.9h0.23A3,3,0,0,0,101.21,315.09Z" transform="translate(0 0)"/><path class="c" d="M91.91,315.09a3,3,0,0,0-3-3H88.73a3,3,0,0,0,0,5.9H89A3,3,0,0,0,91.91,315.09Z" transform="translate(0 0)"/><path class="c" d="M82.6,315.09a3,3,0,0,0-3-3H79.42a3,3,0,1,0,0,5.9h0.23A3,3,0,0,0,82.6,315.09Z" transform="translate(0 0)"/><path class="c" d="M194.3,324.07a3,3,0,0,0-3-3h-0.23a3,3,0,0,0,0,5.9h0.23A3,3,0,0,0,194.3,324.07Z" transform="translate(0 0)"/><path class="c" d="M185,324.07a3,3,0,0,0-3-3h-0.23a3,3,0,1,0,0,5.9H182A3,3,0,0,0,185,324.07Z" transform="translate(0 0)"/><path class="c" d="M175.68,324.07a3,3,0,0,0-3-3H172.5a3,3,0,1,0,0,5.9h0.23A3,3,0,0,0,175.68,324.07Z" transform="translate(0 0)"/><path class="c" d="M166.37,324.07a3,3,0,0,0-3-3h-0.23a3,3,0,1,0,0,5.9h0.23A3,3,0,0,0,166.37,324.07Z" transform="translate(0 0)"/><path class="c" d="M157.06,324.07a3,3,0,0,0-3-3h-0.23a3,3,0,0,0,0,5.9h0.23A3,3,0,0,0,157.06,324.07Z" transform="translate(0 0)"/><path class="c" d="M147.76,324.07a3,3,0,0,0-3-3h-0.23a3,3,0,1,0,0,5.9h0.23A3,3,0,0,0,147.76,324.07Z" transform="translate(0 0)"/><path class="c" d="M138.45,324.07a3,3,0,0,0-3-3h-0.23a3,3,0,1,0,0,5.9h0.23A3,3,0,0,0,138.45,324.07Z" transform="translate(0 0)"/><path class="c" d="M129.14,324.07a3,3,0,0,0-3-3H126a3,3,0,0,0,0,5.9h0.23A3,3,0,0,0,129.14,324.07Z" transform="translate(0 0)"/><path class="c" d="M119.83,324.07a3,3,0,0,0-3-3h-0.23a3,3,0,1,0,0,5.9h0.23A3,3,0,0,0,119.83,324.07Z" transform="translate(0 0)"/><path class="c" d="M110.52,324.07a3,3,0,0,0-3-3h-0.23a3,3,0,1,0,0,5.9h0.23A3,3,0,0,0,110.52,324.07Z" transform="translate(0 0)"/><path class="c" d="M101.21,324.07a3,3,0,0,0-3-3H98a3,3,0,1,0,0,5.9h0.23A3,3,0,0,0,101.21,324.07Z" transform="translate(0 0)"/><path class="c" d="M91.91,324.07a3,3,0,0,0-3-3H88.73a3,3,0,1,0,0,5.9H89A3,3,0,0,0,91.91,324.07Z" transform="translate(0 0)"/><path class="c" d="M82.6,324.07a3,3,0,0,0-3-3H79.42a3,3,0,1,0,0,5.9h0.23A3,3,0,0,0,82.6,324.07Z" transform="translate(0 0)"/><path class="c" d="M194.3,333a3,3,0,0,0-3-3h-0.23a3,3,0,0,0,0,5.91h0.23A3,3,0,0,0,194.3,333Z" transform="translate(0 0)"/><path class="c" d="M185,333a3,3,0,0,0-3-3h-0.23a3,3,0,0,0,0,5.91H182A3,3,0,0,0,185,333Z" transform="translate(0 0)"/><path class="c" d="M175.68,333a3,3,0,0,0-3-3H172.5a3,3,0,0,0,0,5.91h0.23A3,3,0,0,0,175.68,333Z" transform="translate(0 0)"/><path class="c" d="M166.37,333a3,3,0,0,0-3-3h-0.23a3,3,0,0,0,0,5.91h0.23A3,3,0,0,0,166.37,333Z" transform="translate(0 0)"/><path class="c" d="M157.06,333a3,3,0,0,0-3-3h-0.23a3,3,0,0,0,0,5.91h0.23A3,3,0,0,0,157.06,333Z" transform="translate(0 0)"/><path class="c" d="M147.76,333a3,3,0,0,0-3-3h-0.23a3,3,0,0,0,0,5.91h0.23A3,3,0,0,0,147.76,333Z" transform="translate(0 0)"/><path class="c" d="M138.45,333a3,3,0,0,0-3-3h-0.23a3,3,0,0,0,0,5.91h0.23A3,3,0,0,0,138.45,333Z" transform="translate(0 0)"/><path class="c" d="M129.14,333a3,3,0,0,0-3-3H126a3,3,0,0,0,0,5.91h0.23A3,3,0,0,0,129.14,333Z" transform="translate(0 0)"/><path class="c" d="M119.83,333a3,3,0,0,0-3-3h-0.23a3,3,0,0,0,0,5.91h0.23A3,3,0,0,0,119.83,333Z" transform="translate(0 0)"/><path class="c" d="M110.52,333a3,3,0,0,0-3-3h-0.23a3,3,0,0,0,0,5.91h0.23A3,3,0,0,0,110.52,333Z" transform="translate(0 0)"/><path class="c" d="M101.21,333a3,3,0,0,0-3-3H98A3,3,0,0,0,98,336h0.23A3,3,0,0,0,101.21,333Z" transform="translate(0 0)"/><path class="c" d="M91.91,333a3,3,0,0,0-3-3H88.73a3,3,0,0,0,0,5.91H89A3,3,0,0,0,91.91,333Z" transform="translate(0 0)"/><path class="c" d="M82.6,333a3,3,0,0,0-3-3H79.42a3,3,0,0,0,0,5.91h0.23A3,3,0,0,0,82.6,333Z" transform="translate(0 0)"/><path class="c" d="M194.3,342a3,3,0,0,0-3-3h-0.23a3,3,0,0,0,0,5.9h0.23A3,3,0,0,0,194.3,342Z" transform="translate(0 0)"/><path class="c" d="M185,342a3,3,0,0,0-3-3h-0.23a3,3,0,0,0,0,5.9H182A3,3,0,0,0,185,342Z" transform="translate(0 0)"/><path class="c" d="M175.68,342a3,3,0,0,0-3-3H172.5a3,3,0,1,0,0,5.9h0.23A3,3,0,0,0,175.68,342Z" transform="translate(0 0)"/><path class="c" d="M166.38,342a3,3,0,0,0-3-3H163.2a3,3,0,1,0,0,5.9h0.23A3,3,0,0,0,166.38,342Z" transform="translate(0 0)"/><path class="c" d="M157.06,342a3,3,0,0,0-3-3h-0.23a3,3,0,0,0,0,5.9h0.23A3,3,0,0,0,157.06,342Z" transform="translate(0 0)"/><path class="c" d="M147.76,342a3,3,0,0,0-3-3h-0.23a3,3,0,1,0,0,5.9h0.23A3,3,0,0,0,147.76,342Z" transform="translate(0 0)"/><path class="c" d="M138.45,342a3,3,0,0,0-3-3h-0.23a3,3,0,1,0,0,5.9h0.23A3,3,0,0,0,138.45,342Z" transform="translate(0 0)"/><path class="c" d="M129.14,342a3,3,0,0,0-3-3H126a3,3,0,1,0,0,5.9h0.23A3,3,0,0,0,129.14,342Z" transform="translate(0 0)"/><path class="c" d="M119.83,342a3,3,0,0,0-3-3h-0.23a3,3,0,1,0,0,5.9h0.23A3,3,0,0,0,119.83,342Z" transform="translate(0 0)"/><path class="c" d="M110.52,342a3,3,0,0,0-3-3h-0.23a3,3,0,1,0,0,5.9h0.23A3,3,0,0,0,110.52,342Z" transform="translate(0 0)"/><path class="c" d="M101.21,342a3,3,0,0,0-3-3H98a3,3,0,1,0,0,5.9h0.23A3,3,0,0,0,101.21,342Z" transform="translate(0 0)"/><path class="c" d="M91.91,342a3,3,0,0,0-3-3H88.73a3,3,0,1,0,0,5.9H89A3,3,0,0,0,91.91,342Z" transform="translate(0 0)"/><path class="c" d="M82.6,342a3,3,0,0,0-3-3H79.42a3,3,0,1,0,0,5.9h0.23A3,3,0,0,0,82.6,342Z" transform="translate(0 0)"/><path class="c" d="M194.3,351a3,3,0,0,0-3-3h-0.22a3,3,0,0,0,0,5.91h0.22A3,3,0,0,0,194.3,351Z" transform="translate(0 0)"/><path class="c" d="M185,351a3,3,0,0,0-3-3h-0.23a3,3,0,0,0,0,5.91H182A3,3,0,0,0,185,351Z" transform="translate(0 0)"/><path class="c" d="M175.68,351a3,3,0,0,0-3-3H172.5a3,3,0,0,0,0,5.91h0.23A3,3,0,0,0,175.68,351Z" transform="translate(0 0)"/><path class="c" d="M166.37,351a3,3,0,0,0-3-3h-0.23a3,3,0,0,0,0,5.91h0.23A3,3,0,0,0,166.37,351Z" transform="translate(0 0)"/><path class="c" d="M157.06,351a3,3,0,0,0-3-3h-0.23a3,3,0,0,0,0,5.91h0.23A3,3,0,0,0,157.06,351Z" transform="translate(0 0)"/><path class="c" d="M147.76,351a3,3,0,0,0-2.95-3h-0.23a3,3,0,0,0,0,5.91h0.23A3,3,0,0,0,147.76,351Z" transform="translate(0 0)"/><path class="c" d="M138.45,351a3,3,0,0,0-3-3h-0.23a3,3,0,0,0,0,5.91h0.23A3,3,0,0,0,138.45,351Z" transform="translate(0 0)"/><path class="c" d="M129.14,351a3,3,0,0,0-2.95-3H126a3,3,0,0,0,0,5.91h0.23A3,3,0,0,0,129.14,351Z" transform="translate(0 0)"/><path class="c" d="M119.83,351a3,3,0,0,0-3-3h-0.23a3,3,0,0,0,0,5.91h0.23A3,3,0,0,0,119.83,351Z" transform="translate(0 0)"/><path class="c" d="M110.52,351a3,3,0,0,0-3-3h-0.22a3,3,0,0,0,0,5.91h0.22A3,3,0,0,0,110.52,351Z" transform="translate(0 0)"/><path class="c" d="M101.21,351a3,3,0,0,0-3-3H98a3,3,0,0,0,0,5.91h0.23A3,3,0,0,0,101.21,351Z" transform="translate(0 0)"/><path class="c" d="M91.9,351a3,3,0,0,0-3-3H88.73a3,3,0,0,0,0,5.91H89A3,3,0,0,0,91.9,351Z" transform="translate(0 0)"/><path class="c" d="M82.6,351a3,3,0,0,0-3-3H79.42a3,3,0,0,0,0,5.91h0.23A3,3,0,0,0,82.6,351Z" transform="translate(0 0)"/><path class="c" d="M194.3,359.94a3,3,0,0,0-3-2.95h-0.23a3,3,0,0,0,0,5.91h0.23A3,3,0,0,0,194.3,359.94Z" transform="translate(0 0)"/><path class="c" d="M185,359.94a3,3,0,0,0-3-2.95h-0.23a3,3,0,0,0,0,5.91H182A3,3,0,0,0,185,359.94Z" transform="translate(0 0)"/><path class="c" d="M175.68,359.94a3,3,0,0,0-3-2.95H172.5a3,3,0,1,0,0,5.91h0.23A3,3,0,0,0,175.68,359.94Z" transform="translate(0 0)"/><path class="c" d="M166.38,359.94a3,3,0,0,0-3-2.95H163.2a3,3,0,0,0,0,5.91h0.23A3,3,0,0,0,166.38,359.94Z" transform="translate(0 0)"/><path class="c" d="M157.06,359.94a3,3,0,0,0-3-2.95h-0.23a3,3,0,0,0,0,5.91h0.23A3,3,0,0,0,157.06,359.94Z" transform="translate(0 0)"/><path class="c" d="M147.76,359.94a3,3,0,0,0-3-2.95h-0.23a3,3,0,0,0,0,5.91h0.23A3,3,0,0,0,147.76,359.94Z" transform="translate(0 0)"/><path class="c" d="M138.45,359.94a3,3,0,0,0-3-2.95h-0.23a3,3,0,0,0,0,5.91h0.23A3,3,0,0,0,138.45,359.94Z" transform="translate(0 0)"/><path class="c" d="M129.14,359.94a3,3,0,0,0-3-2.95H126a3,3,0,0,0,0,5.91h0.23A3,3,0,0,0,129.14,359.94Z" transform="translate(0 0)"/><path class="c" d="M119.83,359.94a3,3,0,0,0-3-2.95h-0.23a3,3,0,0,0,0,5.91h0.23A3,3,0,0,0,119.83,359.94Z" transform="translate(0 0)"/><path class="c" d="M110.52,359.94a3,3,0,0,0-3-2.95h-0.23a3,3,0,0,0,0,5.91h0.23A3,3,0,0,0,110.52,359.94Z" transform="translate(0 0)"/><path class="c" d="M101.21,359.94a3,3,0,0,0-3-2.95H98a3,3,0,0,0,0,5.91h0.23A3,3,0,0,0,101.21,359.94Z" transform="translate(0 0)"/><path class="c" d="M91.91,359.94A3,3,0,0,0,89,357H88.73a3,3,0,0,0,0,5.91H89A3,3,0,0,0,91.91,359.94Z" transform="translate(0 0)"/><path class="c" d="M82.6,359.94a3,3,0,0,0-3-2.95H79.42a3,3,0,0,0,0,5.91h0.23A3,3,0,0,0,82.6,359.94Z" transform="translate(0 0)"/><path class="c" d="M194.3,368.91a3,3,0,0,0-3-3h-0.23a3,3,0,0,0,0,5.9h0.23A3,3,0,0,0,194.3,368.91Z" transform="translate(0 0)"/><path class="c" d="M185,368.91a3,3,0,0,0-3-3h-0.23a3,3,0,0,0,0,5.9H182A3,3,0,0,0,185,368.91Z" transform="translate(0 0)"/><path class="c" d="M175.68,368.91a3,3,0,0,0-3-3H172.5a3,3,0,0,0,0,5.9h0.23A3,3,0,0,0,175.68,368.91Z" transform="translate(0 0)"/><path class="c" d="M166.37,368.91a3,3,0,0,0-3-3h-0.23a3,3,0,0,0,0,5.9h0.23A3,3,0,0,0,166.37,368.91Z" transform="translate(0 0)"/><path class="c" d="M157.06,368.91a3,3,0,0,0-3-3h-0.23a3,3,0,0,0,0,5.9h0.23A3,3,0,0,0,157.06,368.91Z" transform="translate(0 0)"/><path class="c" d="M147.76,368.91a3,3,0,0,0-2.95-3h-0.23a3,3,0,1,0,0,5.9h0.23A3,3,0,0,0,147.76,368.91Z" transform="translate(0 0)"/><path class="c" d="M138.45,368.91a3,3,0,0,0-3-3h-0.23a3,3,0,1,0,0,5.9h0.23A3,3,0,0,0,138.45,368.91Z" transform="translate(0 0)"/><path class="c" d="M129.14,368.91a3,3,0,0,0-2.95-3H126a3,3,0,0,0,0,5.9h0.23A3,3,0,0,0,129.14,368.91Z" transform="translate(0 0)"/><path class="c" d="M119.83,368.91a3,3,0,0,0-3-3h-0.23a3,3,0,1,0,0,5.9h0.23A3,3,0,0,0,119.83,368.91Z" transform="translate(0 0)"/><path class="c" d="M110.52,368.91a3,3,0,0,0-3-3h-0.22a3,3,0,1,0,0,5.9h0.22A3,3,0,0,0,110.52,368.91Z" transform="translate(0 0)"/><path class="c" d="M101.21,368.91a3,3,0,0,0-3-3H98a3,3,0,1,0,0,5.9h0.23A3,3,0,0,0,101.21,368.91Z" transform="translate(0 0)"/><path class="c" d="M91.9,368.91a3,3,0,0,0-3-3H88.73a3,3,0,0,0,0,5.9H89A3,3,0,0,0,91.9,368.91Z" transform="translate(0 0)"/><path class="c" d="M82.6,368.91a3,3,0,0,0-3-3H79.42a3,3,0,0,0,0,5.9h0.23A3,3,0,0,0,82.6,368.91Z" transform="translate(0 0)"/><path class="c" d="M194.3,377.89a3,3,0,0,0-3-3h-0.23a3,3,0,0,0,0,5.9h0.23A3,3,0,0,0,194.3,377.89Z" transform="translate(0 0)"/><path class="c" d="M185,377.89a3,3,0,0,0-3-3h-0.23a3,3,0,1,0,0,5.9H182A3,3,0,0,0,185,377.89Z" transform="translate(0 0)"/><path class="c" d="M175.68,377.89a3,3,0,0,0-3-3H172.5a3,3,0,1,0,0,5.9h0.23A3,3,0,0,0,175.68,377.89Z" transform="translate(0 0)"/><path class="c" d="M166.37,377.89a3,3,0,0,0-3-3h-0.23a3,3,0,0,0,0,5.9h0.23A3,3,0,0,0,166.37,377.89Z" transform="translate(0 0)"/><path class="c" d="M157.06,377.89a3,3,0,0,0-3-3h-0.23a3,3,0,0,0,0,5.9h0.23A3,3,0,0,0,157.06,377.89Z" transform="translate(0 0)"/><path class="c" d="M147.76,377.89a3,3,0,0,0-3-3h-0.23a3,3,0,1,0,0,5.9h0.23A3,3,0,0,0,147.76,377.89Z" transform="translate(0 0)"/><path class="c" d="M138.45,377.89a3,3,0,0,0-3-3h-0.23a3,3,0,0,0,0,5.9h0.23A3,3,0,0,0,138.45,377.89Z" transform="translate(0 0)"/><path class="c" d="M129.14,377.89a3,3,0,0,0-3-3H126a3,3,0,0,0,0,5.9h0.23A3,3,0,0,0,129.14,377.89Z" transform="translate(0 0)"/><path class="c" d="M119.83,377.89a3,3,0,0,0-3-3h-0.23a3,3,0,1,0,0,5.9h0.23A3,3,0,0,0,119.83,377.89Z" transform="translate(0 0)"/><path class="c" d="M110.52,377.89a3,3,0,0,0-3-3h-0.23a3,3,0,1,0,0,5.9h0.23A3,3,0,0,0,110.52,377.89Z" transform="translate(0 0)"/><path class="c" d="M101.21,377.89a3,3,0,0,0-3-3H98a3,3,0,0,0,0,5.9h0.23A3,3,0,0,0,101.21,377.89Z" transform="translate(0 0)"/><path class="c" d="M91.91,377.89a3,3,0,0,0-3-3H88.73a3,3,0,1,0,0,5.9H89A3,3,0,0,0,91.91,377.89Z" transform="translate(0 0)"/><path class="c" d="M82.6,377.89a3,3,0,0,0-3-3H79.42a3,3,0,1,0,0,5.9h0.23A3,3,0,0,0,82.6,377.89Z" transform="translate(0 0)"/><path class="c" d="M194.3,386.85a3,3,0,0,0-3-3h-0.23a2.95,2.95,0,1,0,0,5.9h0.23A3,3,0,0,0,194.3,386.85Z" transform="translate(0 0)"/><path class="c" d="M185,386.85a3,3,0,0,0-3-3h-0.23a2.95,2.95,0,1,0,0,5.9H182A3,3,0,0,0,185,386.85Z" transform="translate(0 0)"/><path class="c" d="M175.68,386.85a3,3,0,0,0-3-3H172.5a2.95,2.95,0,1,0,0,5.9h0.23A3,3,0,0,0,175.68,386.85Z" transform="translate(0 0)"/><path class="c" d="M166.38,386.85a3,3,0,0,0-3-3H163.2a2.95,2.95,0,1,0,0,5.9h0.23A3,3,0,0,0,166.38,386.85Z" transform="translate(0 0)"/><path class="c" d="M157.06,386.85a3,3,0,0,0-3-3h-0.23a2.95,2.95,0,1,0,0,5.9h0.23A3,3,0,0,0,157.06,386.85Z" transform="translate(0 0)"/><path class="c" d="M147.76,386.85a3,3,0,0,0-3-3h-0.23a2.95,2.95,0,1,0,0,5.9h0.23A3,3,0,0,0,147.76,386.85Z" transform="translate(0 0)"/><path class="c" d="M129.14,386.85a3,3,0,0,0-3-3H126a2.95,2.95,0,1,0,0,5.9h0.23A3,3,0,0,0,129.14,386.85Z" transform="translate(0 0)"/><path class="c" d="M119.83,386.85a3,3,0,0,0-3-3h-0.23a2.95,2.95,0,1,0,0,5.9h0.23A3,3,0,0,0,119.83,386.85Z" transform="translate(0 0)"/><path class="c" d="M110.52,386.85a3,3,0,0,0-3-3h-0.23a2.95,2.95,0,1,0,0,5.9h0.23A3,3,0,0,0,110.52,386.85Z" transform="translate(0 0)"/><path class="c" d="M101.21,386.85a3,3,0,0,0-3-3H98a2.95,2.95,0,1,0,0,5.9h0.23A3,3,0,0,0,101.21,386.85Z" transform="translate(0 0)"/><path class="c" d="M91.91,386.85a3,3,0,0,0-3-3H88.73a2.95,2.95,0,1,0,0,5.9H89A3,3,0,0,0,91.91,386.85Z" transform="translate(0 0)"/><path class="c" d="M82.6,386.85a3,3,0,0,0-3-3H79.42a2.95,2.95,0,1,0,0,5.9h0.23A3,3,0,0,0,82.6,386.85Z" transform="translate(0 0)"/><path class="c" d="M194.3,395.83a3,3,0,0,0-3-3h-0.23a3,3,0,0,0,0,5.9h0.23A3,3,0,0,0,194.3,395.83Z" transform="translate(0 0)"/><path class="c" d="M185,395.83a3,3,0,0,0-3-3h-0.23a3,3,0,0,0,0,5.9H182A3,3,0,0,0,185,395.83Z" transform="translate(0 0)"/><path class="c" d="M166.37,395.83a3,3,0,0,0-3-3h-0.23a3,3,0,0,0,0,5.9h0.23A3,3,0,0,0,166.37,395.83Z" transform="translate(0 0)"/><path class="c" d="M157.06,395.83a3,3,0,0,0-3-3h-0.23a3,3,0,0,0,0,5.9h0.23A3,3,0,0,0,157.06,395.83Z" transform="translate(0 0)"/><path class="c" d="M147.76,395.83a3,3,0,0,0-2.95-3h-0.23a3,3,0,1,0,0,5.9h0.23A3,3,0,0,0,147.76,395.83Z" transform="translate(0 0)"/><path class="c" d="M129.14,395.83a3,3,0,0,0-2.95-3H126a3,3,0,0,0,0,5.9h0.23A3,3,0,0,0,129.14,395.83Z" transform="translate(0 0)"/><path class="c" d="M119.83,395.83a3,3,0,0,0-3-3h-0.23a3,3,0,0,0,0,5.9h0.23A3,3,0,0,0,119.83,395.83Z" transform="translate(0 0)"/><path class="c" d="M110.52,395.83a3,3,0,0,0-3-3h-0.22a3,3,0,1,0,0,5.9h0.22A3,3,0,0,0,110.52,395.83Z" transform="translate(0 0)"/><path class="c" d="M91.9,395.83a3,3,0,0,0-3-3H88.73a3,3,0,0,0,0,5.9H89A3,3,0,0,0,91.9,395.83Z" transform="translate(0 0)"/><path class="c" d="M82.6,395.83a3,3,0,0,0-3-3H79.42a3,3,0,0,0,0,5.9h0.23A3,3,0,0,0,82.6,395.83Z" transform="translate(0 0)"/><path class="c" d="M166.37,404.8a3,3,0,0,0-3-3h-0.23a3,3,0,0,0,0,5.91h0.23A3,3,0,0,0,166.37,404.8Z" transform="translate(0 0)"/><path class="c" d="M157.06,404.8a3,3,0,0,0-3-3h-0.23a3,3,0,0,0,0,5.91h0.23A3,3,0,0,0,157.06,404.8Z" transform="translate(0 0)"/><path class="c" d="M147.76,404.8a3,3,0,0,0-3-3h-0.23a3,3,0,0,0,0,5.91h0.23A3,3,0,0,0,147.76,404.8Z" transform="translate(0 0)"/><path class="c" d="M129.14,404.8a3,3,0,0,0-3-3H126a3,3,0,0,0,0,5.91h0.23A3,3,0,0,0,129.14,404.8Z" transform="translate(0 0)"/><path class="c" d="M119.83,404.8a3,3,0,0,0-3-3h-0.23a3,3,0,0,0,0,5.91h0.23A3,3,0,0,0,119.83,404.8Z" transform="translate(0 0)"/><path class="c" d="M110.52,404.8a3,3,0,0,0-3-3h-0.23a3,3,0,0,0,0,5.91h0.23A3,3,0,0,0,110.52,404.8Z" transform="translate(0 0)"/><path class="c" d="M166.38,413.77a3,3,0,0,0-3-3H163.2a2.95,2.95,0,1,0,0,5.9h0.23A3,3,0,0,0,166.38,413.77Z" transform="translate(0 0)"/><path class="c" d="M157.06,413.77a3,3,0,0,0-3-3h-0.23a2.95,2.95,0,1,0,0,5.9h0.23A3,3,0,0,0,157.06,413.77Z" transform="translate(0 0)"/><path class="c" d="M147.76,413.77a3,3,0,0,0-3-3h-0.23a2.95,2.95,0,1,0,0,5.9h0.23A3,3,0,0,0,147.76,413.77Z" transform="translate(0 0)"/><path class="c" d="M129.14,413.77a3,3,0,0,0-3-3H126a2.95,2.95,0,1,0,0,5.9h0.23A3,3,0,0,0,129.14,413.77Z" transform="translate(0 0)"/><path class="c" d="M119.83,413.77a3,3,0,0,0-3-3h-0.23a2.95,2.95,0,1,0,0,5.9h0.23A3,3,0,0,0,119.83,413.77Z" transform="translate(0 0)"/><path class="c" d="M110.52,413.77a3,3,0,0,0-3-3h-0.23a2.95,2.95,0,1,0,0,5.9h0.23A3,3,0,0,0,110.52,413.77Z" transform="translate(0 0)"/><path class="c" d="M166.37,422.74a3,3,0,0,0-3-3h-0.23a3,3,0,1,0,0,5.9h0.23A3,3,0,0,0,166.37,422.74Z" transform="translate(0 0)"/><path class="c" d="M157.06,422.74a3,3,0,0,0-3-3h-0.23a3,3,0,0,0,0,5.9h0.23A3,3,0,0,0,157.06,422.74Z" transform="translate(0 0)"/><path class="c" d="M147.76,422.74a3,3,0,0,0-2.95-3h-0.23a3,3,0,1,0,0,5.9h0.23A3,3,0,0,0,147.76,422.74Z" transform="translate(0 0)"/><path class="c" d="M129.14,422.74a3,3,0,0,0-2.95-3H126a3,3,0,0,0,0,5.9h0.23A3,3,0,0,0,129.14,422.74Z" transform="translate(0 0)"/><path class="c" d="M119.83,422.74a3,3,0,0,0-3-3h-0.23a3,3,0,1,0,0,5.9h0.23A3,3,0,0,0,119.83,422.74Z" transform="translate(0 0)"/><path class="c" d="M110.52,422.74a3,3,0,0,0-3-3h-0.22a3,3,0,1,0,0,5.9h0.22A3,3,0,0,0,110.52,422.74Z" transform="translate(0 0)"/><path class="c" d="M166.37,431.7a3,3,0,0,0-3-2.95h-0.23a3,3,0,0,0,0,5.91h0.23A3,3,0,0,0,166.37,431.7Z" transform="translate(0 0)"/><path class="c" d="M157.06,431.7a3,3,0,0,0-3-2.95h-0.23a3,3,0,0,0,0,5.91h0.23A3,3,0,0,0,157.06,431.7Z" transform="translate(0 0)"/><path class="c" d="M147.76,431.7a3,3,0,0,0-3-2.95h-0.23a3,3,0,0,0,0,5.91h0.23A3,3,0,0,0,147.76,431.7Z" transform="translate(0 0)"/><path class="c" d="M129.14,431.7a3,3,0,0,0-3-2.95H126a3,3,0,0,0,0,5.91h0.23A3,3,0,0,0,129.14,431.7Z" transform="translate(0 0)"/><path class="c" d="M119.83,431.7a3,3,0,0,0-3-2.95h-0.23a3,3,0,0,0,0,5.91h0.23A3,3,0,0,0,119.83,431.7Z" transform="translate(0 0)"/><path class="c" d="M110.52,431.7a3,3,0,0,0-3-2.95h-0.23a3,3,0,0,0,0,5.91h0.23A3,3,0,0,0,110.52,431.7Z" transform="translate(0 0)"/><path class="c" d="M166.38,440.68a3,3,0,0,0-3-2.95H163.2a3,3,0,1,0,0,5.9h0.23A3,3,0,0,0,166.38,440.68Z" transform="translate(0 0)"/><path class="c" d="M157.06,440.68a3,3,0,0,0-3-2.95h-0.23a3,3,0,0,0,0,5.9h0.23A3,3,0,0,0,157.06,440.68Z" transform="translate(0 0)"/><path class="c" d="M147.76,440.68a3,3,0,0,0-3-2.95h-0.23a3,3,0,1,0,0,5.9h0.23A3,3,0,0,0,147.76,440.68Z" transform="translate(0 0)"/><path class="c" d="M129.14,440.68a3,3,0,0,0-3-2.95H126a3,3,0,1,0,0,5.9h0.23A3,3,0,0,0,129.14,440.68Z" transform="translate(0 0)"/><path class="c" d="M119.83,440.68a3,3,0,0,0-3-2.95h-0.23a3,3,0,1,0,0,5.9h0.23A3,3,0,0,0,119.83,440.68Z" transform="translate(0 0)"/><path class="c" d="M110.52,440.68a3,3,0,0,0-3-2.95h-0.23a3,3,0,1,0,0,5.9h0.23A3,3,0,0,0,110.52,440.68Z" transform="translate(0 0)"/><path class="c" d="M166.37,449.65a3,3,0,0,0-3-3h-0.23a3,3,0,1,0,0,5.9h0.23A3,3,0,0,0,166.37,449.65Z" transform="translate(0 0)"/><path class="c" d="M157.06,449.65a3,3,0,0,0-3-3h-0.23a3,3,0,0,0,0,5.9h0.23A3,3,0,0,0,157.06,449.65Z" transform="translate(0 0)"/><path class="c" d="M147.76,449.65a3,3,0,0,0-3-3h-0.23a3,3,0,1,0,0,5.9h0.23A3,3,0,0,0,147.76,449.65Z" transform="translate(0 0)"/><path class="c" d="M129.14,449.65a3,3,0,0,0-3-3H126a3,3,0,0,0,0,5.9h0.23A3,3,0,0,0,129.14,449.65Z" transform="translate(0 0)"/><path class="c" d="M119.83,449.65a3,3,0,0,0-3-3h-0.23a3,3,0,1,0,0,5.9h0.23A3,3,0,0,0,119.83,449.65Z" transform="translate(0 0)"/><path class="c" d="M110.52,449.65a3,3,0,0,0-3-3h-0.23a3,3,0,1,0,0,5.9h0.23A3,3,0,0,0,110.52,449.65Z" transform="translate(0 0)"/><path class="c" d="M166.37,458.61a3,3,0,0,0-3-2.95h-0.23a3,3,0,0,0,0,5.91h0.23A3,3,0,0,0,166.37,458.61Z" transform="translate(0 0)"/><path class="c" d="M157.06,458.61a3,3,0,0,0-3-2.95h-0.23a3,3,0,0,0,0,5.91h0.23A3,3,0,0,0,157.06,458.61Z" transform="translate(0 0)"/><path class="c" d="M147.76,458.61a3,3,0,0,0-3-2.95h-0.23a3,3,0,0,0,0,5.91h0.23A3,3,0,0,0,147.76,458.61Z" transform="translate(0 0)"/><path class="c" d="M129.14,458.61a3,3,0,0,0-3-2.95H126a3,3,0,0,0,0,5.91h0.23A3,3,0,0,0,129.14,458.61Z" transform="translate(0 0)"/><path class="c" d="M119.83,458.61a3,3,0,0,0-3-2.95h-0.23a3,3,0,0,0,0,5.91h0.23A3,3,0,0,0,119.83,458.61Z" transform="translate(0 0)"/><path class="c" d="M110.52,458.61a3,3,0,0,0-3-2.95h-0.23a3,3,0,0,0,0,5.91h0.23A3,3,0,0,0,110.52,458.61Z" transform="translate(0 0)"/><path class="c" d="M166.37,467.59a3,3,0,0,0-3-3h-0.23a3,3,0,0,0,0,5.9h0.23A3,3,0,0,0,166.37,467.59Z" transform="translate(0 0)"/><path class="c" d="M157.06,467.59a3,3,0,0,0-3-3h-0.23a3,3,0,0,0,0,5.9h0.23A3,3,0,0,0,157.06,467.59Z" transform="translate(0 0)"/><path class="c" d="M147.76,467.59a3,3,0,0,0-3-3h-0.23a3,3,0,1,0,0,5.9h0.23A3,3,0,0,0,147.76,467.59Z" transform="translate(0 0)"/><path class="c" d="M129.14,467.59a3,3,0,0,0-3-3H126a3,3,0,0,0,0,5.9h0.23A3,3,0,0,0,129.14,467.59Z" transform="translate(0 0)"/><path class="c" d="M119.83,467.59a3,3,0,0,0-3-3h-0.23a3,3,0,1,0,0,5.9h0.23A3,3,0,0,0,119.83,467.59Z" transform="translate(0 0)"/><path class="c" d="M110.52,467.59a3,3,0,0,0-3-3h-0.23a3,3,0,1,0,0,5.9h0.23A3,3,0,0,0,110.52,467.59Z" transform="translate(0 0)"/><path class="c" d="M166.37,476.56a3,3,0,0,0-3-3h-0.23a3,3,0,1,0,0,5.9h0.23A3,3,0,0,0,166.37,476.56Z" transform="translate(0 0)"/><path class="c" d="M157.06,476.56a3,3,0,0,0-3-3h-0.23a3,3,0,0,0,0,5.9h0.23A3,3,0,0,0,157.06,476.56Z" transform="translate(0 0)"/><path class="c" d="M147.76,476.56a3,3,0,0,0-3-3h-0.23a3,3,0,1,0,0,5.9h0.23A3,3,0,0,0,147.76,476.56Z" transform="translate(0 0)"/><path class="c" d="M129.14,476.56a3,3,0,0,0-3-3H126a3,3,0,1,0,0,5.9h0.23A3,3,0,0,0,129.14,476.56Z" transform="translate(0 0)"/><path class="c" d="M119.83,476.56a3,3,0,0,0-3-3h-0.23a3,3,0,1,0,0,5.9h0.23A3,3,0,0,0,119.83,476.56Z" transform="translate(0 0)"/><path class="c" d="M110.52,476.56a3,3,0,0,0-3-3h-0.23a3,3,0,1,0,0,5.9h0.23A3,3,0,0,0,110.52,476.56Z" transform="translate(0 0)"/><path class="c" d="M166.37,485.53a3,3,0,0,0-3-3h-0.23a3,3,0,0,0,0,5.91h0.23A3,3,0,0,0,166.37,485.53Z" transform="translate(0 0)"/><path class="c" d="M157.06,485.53a3,3,0,0,0-3-3h-0.23a3,3,0,0,0,0,5.91h0.23A3,3,0,0,0,157.06,485.53Z" transform="translate(0 0)"/><path class="c" d="M147.76,485.53a3,3,0,0,0-3-3h-0.23a3,3,0,0,0,0,5.91h0.23A3,3,0,0,0,147.76,485.53Z" transform="translate(0 0)"/><path class="c" d="M129.14,485.53a3,3,0,0,0-3-3H126a3,3,0,0,0,0,5.91h0.23A3,3,0,0,0,129.14,485.53Z" transform="translate(0 0)"/><path class="c" d="M119.83,485.53a3,3,0,0,0-3-3h-0.23a3,3,0,1,0,0,5.91h0.23A3,3,0,0,0,119.83,485.53Z" transform="translate(0 0)"/><path class="c" d="M110.52,485.53a3,3,0,0,0-3-3h-0.23a3,3,0,0,0,0,5.91h0.23A3,3,0,0,0,110.52,485.53Z" transform="translate(0 0)"/><path class="c" d="M166.37,494.5a3,3,0,0,0-3-2.95h-0.23a3,3,0,1,0,0,5.9h0.23A3,3,0,0,0,166.37,494.5Z" transform="translate(0 0)"/><path class="c" d="M157.06,494.5a3,3,0,0,0-3-2.95h-0.23a3,3,0,0,0,0,5.9h0.23A3,3,0,0,0,157.06,494.5Z" transform="translate(0 0)"/><path class="c" d="M147.76,494.5a3,3,0,0,0-3-2.95h-0.23a3,3,0,1,0,0,5.9h0.23A3,3,0,0,0,147.76,494.5Z" transform="translate(0 0)"/><path class="c" d="M129.14,494.5a3,3,0,0,0-3-2.95H126a3,3,0,0,0,0,5.9h0.23A3,3,0,0,0,129.14,494.5Z" transform="translate(0 0)"/><path class="c" d="M119.83,494.5a3,3,0,0,0-3-2.95h-0.23a3,3,0,1,0,0,5.9h0.23A3,3,0,0,0,119.83,494.5Z" transform="translate(0 0)"/><path class="c" d="M110.52,494.5a3,3,0,0,0-3-2.95h-0.23a3,3,0,1,0,0,5.9h0.23A3,3,0,0,0,110.52,494.5Z" transform="translate(0 0)"/><path class="c" d="M166.37,503.47a3,3,0,0,0-3-3h-0.23a3,3,0,1,0,0,5.9h0.23A3,3,0,0,0,166.37,503.47Z" transform="translate(0 0)"/><path class="c" d="M157.06,503.47a3,3,0,0,0-3-3h-0.23a3,3,0,0,0,0,5.9h0.23A3,3,0,0,0,157.06,503.47Z" transform="translate(0 0)"/><path class="c" d="M147.76,503.47a3,3,0,0,0-3-3h-0.23a3,3,0,1,0,0,5.9h0.23A3,3,0,0,0,147.76,503.47Z" transform="translate(0 0)"/><path class="c" d="M129.14,503.47a3,3,0,0,0-3-3H126a3,3,0,0,0,0,5.9h0.23A3,3,0,0,0,129.14,503.47Z" transform="translate(0 0)"/><path class="c" d="M119.83,503.47a3,3,0,0,0-3-3h-0.23a3,3,0,1,0,0,5.9h0.23A3,3,0,0,0,119.83,503.47Z" transform="translate(0 0)"/><path class="c" d="M110.52,503.47a3,3,0,0,0-3-3h-0.23a3,3,0,1,0,0,5.9h0.23A3,3,0,0,0,110.52,503.47Z" transform="translate(0 0)"/><path class="c" d="M166.37,512.44a3,3,0,0,0-3-3h-0.23a3,3,0,1,0,0,5.9h0.23A3,3,0,0,0,166.37,512.44Z" transform="translate(0 0)"/><path class="c" d="M157.06,512.44a3,3,0,0,0-3-3h-0.23a3,3,0,0,0,0,5.9h0.23A3,3,0,0,0,157.06,512.44Z" transform="translate(0 0)"/><path class="c" d="M147.76,512.44a3,3,0,0,0-3-3h-0.23a3,3,0,1,0,0,5.9h0.23A3,3,0,0,0,147.76,512.44Z" transform="translate(0 0)"/><path class="c" d="M129.14,512.44a3,3,0,0,0-3-3H126a3,3,0,0,0,0,5.9h0.23A3,3,0,0,0,129.14,512.44Z" transform="translate(0 0)"/><path class="c" d="M119.83,512.44a3,3,0,0,0-3-3h-0.23a3,3,0,1,0,0,5.9h0.23A3,3,0,0,0,119.83,512.44Z" transform="translate(0 0)"/><path class="c" d="M110.52,512.44a3,3,0,0,0-3-3h-0.23a3,3,0,1,0,0,5.9h0.23A3,3,0,0,0,110.52,512.44Z" transform="translate(0 0)"/><path class="c" d="M166.37,521.41a3,3,0,0,0-3-2.95h-0.23a3,3,0,1,0,0,5.9h0.23A3,3,0,0,0,166.37,521.41Z" transform="translate(0 0)"/><path class="c" d="M157.06,521.41a3,3,0,0,0-3-2.95h-0.23a3,3,0,0,0,0,5.9h0.23A3,3,0,0,0,157.06,521.41Z" transform="translate(0 0)"/><path class="c" d="M147.76,521.41a3,3,0,0,0-3-2.95h-0.23a3,3,0,1,0,0,5.9h0.23A3,3,0,0,0,147.76,521.41Z" transform="translate(0 0)"/><path class="c" d="M129.14,521.41a3,3,0,0,0-3-2.95H126a3,3,0,0,0,0,5.9h0.23A3,3,0,0,0,129.14,521.41Z" transform="translate(0 0)"/><path class="c" d="M119.83,521.41a3,3,0,0,0-3-2.95h-0.23a3,3,0,1,0,0,5.9h0.23A3,3,0,0,0,119.83,521.41Z" transform="translate(0 0)"/><path class="c" d="M110.52,521.41a3,3,0,0,0-3-2.95h-0.23a3,3,0,1,0,0,5.9h0.23A3,3,0,0,0,110.52,521.41Z" transform="translate(0 0)"/></g><line class="g" x1="101.73" y1="271.88" x2="101.73" y2="356.12"/><line class="g" x1="169.06" y1="271.88" x2="169.06" y2="356.12"/><polygon class="h" points="425.2 23.57 401.63 0 212.6 189.03 23.57 0 0 23.57 189.03 212.6 0 401.63 23.57 425.2 212.6 236.18 401.63 425.2 425.2 401.63 236.18 212.6 425.2 23.57"/></svg>