<svg xmlns="http://www.w3.org/2000/svg" xmlns:xlink="http://www.w3.org/1999/xlink" width="150mm" height="184.95mm" viewBox="0 0 425.2 524.27"><defs><style>.a{fill:none;}.b{fill:#fff;}.c{fill:#0086a8;}.d{fill:#80c2d3;}.e{fill:#00577e;}.f{clip-path:url(#a);}.g{fill:#e41f18;opacity:0.75;}</style><clipPath id="a" transform="translate(0 0)"><path class="a" d="M75.1,354.33V258.24A15.86,15.86,0,0,1,91,242.38h11.1v0h66.6v0h11.1a15.86,15.86,0,0,1,15.86,15.86v96.08H171.83V274.1h0s0,0,0,0a1.58,1.58,0,1,0-3.17,0s0,0,0,0h0v80.22h-66.6V274.1h0s0,0,0,0a1.59,1.59,0,1,0-3.17,0,0.23,0.23,0,0,0,0,0h0v80.22H75.1Zm60.26-115.15a31.72,31.72,0,1,0-31.73-31.72A31.72,31.72,0,0,0,135.37,239.18Z"/></clipPath></defs><title>geen_partnerpensioen_op_opbouwbasis</title><rect class="b" x="49.61" y="49.61" width="325.98" height="325.98" rx="35.43" ry="35.43"/><path class="c" d="M340.16,56.69A28.38,28.38,0,0,1,368.5,85V340.16a28.38,28.38,0,0,1-28.35,28.35H85a28.38,28.38,0,0,1-28.35-28.35V85A28.38,28.38,0,0,1,85,56.69H340.16m0-14.17H85A42.64,42.64,0,0,0,42.52,85V340.16A42.64,42.64,0,0,0,85,382.68H340.16a42.64,42.64,0,0,0,42.52-42.52V85a42.64,42.64,0,0,0-42.52-42.52h0Z" transform="translate(0 0)"/><path class="d" d="M260.37,115.62c0,14.11-21.67,25.55-48.41,25.55s-48.41-11.44-48.41-25.55S185.23,90.07,212,90.07,260.37,101.51,260.37,115.62ZM205.27,76.44A6.72,6.72,0,1,0,212,83.16,6.72,6.72,0,0,0,205.27,76.44Zm13.45,0a6.72,6.72,0,1,0,6.72,6.72A6.72,6.72,0,0,0,218.72,76.44Z" transform="translate(0 0)"/><path class="e" d="M249.24,125.73c0-2.53,3.1-4.36,3.1-8.81,0-11.14-18.06-20.17-40.34-20.17s-40.34,9-40.34,20.17c0,4.84,2.15,6.41,2.15,8.81,0,5.58-15.59,12.52-15.59,24.81,0,18.57,24.08,33.61,53.79,33.61s53.79-15,53.79-33.61C265.78,138,249.24,130.93,249.24,125.73Z" transform="translate(0 0)"/><path class="c" d="M228,354.33V258.24a15.86,15.86,0,0,1,15.86-15.86H255v0h66.6v0h11.1a15.86,15.86,0,0,1,15.86,15.86v96.08H324.72V274.1h0s0,0,0,0a1.58,1.58,0,1,0-3.17,0s0,0,0,0h0v80.22H255V274.1h0s0,0,0,0a1.59,1.59,0,1,0-3.17,0,0.24,0.24,0,0,0,0,0h0v80.22H228Zm60.26-115.15a31.72,31.72,0,1,0-31.73-31.72A31.72,31.72,0,0,0,288.26,239.18Z" transform="translate(0 0)"/><line class="c" x1="253.36" y1="272.48" x2="253.36" y2="356.71"/><line class="c" x1="322.96" y1="272.48" x2="322.96" y2="356.71"/><g class="f"><path class="c" d="M157,180.44a3,3,0,0,0-3-3h-0.23a3,3,0,0,0,0,5.9h0.23A3,3,0,0,0,157,180.44Z" transform="translate(0 0)"/><path class="c" d="M147.72,180.44a3,3,0,0,0-2.95-3h-0.23a3,3,0,1,0,0,5.9h0.23A3,3,0,0,0,147.72,180.44Z" transform="translate(0 0)"/><path class="c" d="M138.41,180.44a3,3,0,0,0-3-3h-0.23a3,3,0,1,0,0,5.9h0.23A3,3,0,0,0,138.41,180.44Z" transform="translate(0 0)"/><path class="c" d="M129.1,180.44a3,3,0,0,0-2.95-3h-0.23a3,3,0,0,0,0,5.9h0.23A3,3,0,0,0,129.1,180.44Z" transform="translate(0 0)"/><path class="c" d="M119.79,180.44a3,3,0,0,0-3-3h-0.23a3,3,0,1,0,0,5.9h0.23A3,3,0,0,0,119.79,180.44Z" transform="translate(0 0)"/><path class="c" d="M166.34,189.42a3,3,0,0,0-3-3h-0.23a3,3,0,0,0,0,5.9h0.23A3,3,0,0,0,166.34,189.42Z" transform="translate(0 0)"/><path class="c" d="M157,189.42a3,3,0,0,0-3-3h-0.23a3,3,0,0,0,0,5.9h0.23A3,3,0,0,0,157,189.42Z" transform="translate(0 0)"/><path class="c" d="M147.72,189.42a3,3,0,0,0-3-3h-0.23a3,3,0,1,0,0,5.9h0.23A3,3,0,0,0,147.72,189.42Z" transform="translate(0 0)"/><path class="c" d="M138.41,189.42a3,3,0,0,0-3-3h-0.23a3,3,0,0,0,0,5.9h0.23A3,3,0,0,0,138.41,189.42Z" transform="translate(0 0)"/><path class="c" d="M129.11,189.42a3,3,0,0,0-3-3h-0.23a3,3,0,0,0,0,5.9h0.23A3,3,0,0,0,129.11,189.42Z" transform="translate(0 0)"/><path class="c" d="M119.8,189.42a3,3,0,0,0-3-3h-0.23a3,3,0,1,0,0,5.9h0.23A3,3,0,0,0,119.8,189.42Z" transform="translate(0 0)"/><path class="c" d="M110.49,189.42a3,3,0,0,0-3-3h-0.23a3,3,0,1,0,0,5.9h0.23A3,3,0,0,0,110.49,189.42Z" transform="translate(0 0)"/><path class="c" d="M166.34,198.39a3,3,0,0,0-3-3h-0.23a3,3,0,0,0,0,5.9h0.23A3,3,0,0,0,166.34,198.39Z" transform="translate(0 0)"/><path class="c" d="M157,198.39a3,3,0,0,0-3-3h-0.23a3,3,0,0,0,0,5.9h0.23A3,3,0,0,0,157,198.39Z" transform="translate(0 0)"/><path class="c" d="M147.72,198.39a3,3,0,0,0-3-3h-0.23a3,3,0,1,0,0,5.9h0.23A3,3,0,0,0,147.72,198.39Z" transform="translate(0 0)"/><path class="c" d="M138.41,198.39a3,3,0,0,0-3-3h-0.23a3,3,0,0,0,0,5.9h0.23A3,3,0,0,0,138.41,198.39Z" transform="translate(0 0)"/><path class="c" d="M129.11,198.39a3,3,0,0,0-3-3h-0.23a3,3,0,0,0,0,5.9h0.23A3,3,0,0,0,129.11,198.39Z" transform="translate(0 0)"/><path class="c" d="M119.8,198.39a3,3,0,0,0-3-3h-0.23a3,3,0,1,0,0,5.9h0.23A3,3,0,0,0,119.8,198.39Z" transform="translate(0 0)"/><path class="c" d="M110.49,198.39a3,3,0,0,0-3-3h-0.23a3,3,0,0,0,0,5.9h0.23A3,3,0,0,0,110.49,198.39Z" transform="translate(0 0)"/><path class="c" d="M166.34,207.36a3,3,0,0,0-3-3h-0.23a3,3,0,0,0,0,5.9h0.23A3,3,0,0,0,166.34,207.36Z" transform="translate(0 0)"/><path class="c" d="M157,207.36a3,3,0,0,0-3-3h-0.23a3,3,0,0,0,0,5.9h0.23A3,3,0,0,0,157,207.36Z" transform="translate(0 0)"/><path class="c" d="M147.72,207.36a3,3,0,0,0-2.95-3h-0.23a3,3,0,1,0,0,5.9h0.23A3,3,0,0,0,147.72,207.36Z" transform="translate(0 0)"/><path class="c" d="M138.41,207.36a3,3,0,0,0-3-3h-0.23a3,3,0,1,0,0,5.9h0.23A3,3,0,0,0,138.41,207.36Z" transform="translate(0 0)"/><path class="c" d="M129.1,207.36a3,3,0,0,0-2.95-3h-0.23a3,3,0,0,0,0,5.9h0.23A3,3,0,0,0,129.1,207.36Z" transform="translate(0 0)"/><path class="c" d="M119.79,207.36a3,3,0,0,0-3-3h-0.23a3,3,0,1,0,0,5.9h0.23A3,3,0,0,0,119.79,207.36Z" transform="translate(0 0)"/><path class="c" d="M110.49,207.36a3,3,0,0,0-3-3h-0.22a3,3,0,1,0,0,5.9h0.22A3,3,0,0,0,110.49,207.36Z" transform="translate(0 0)"/><path class="c" d="M166.34,216.33a3,3,0,0,0-3-3h-0.23a3,3,0,0,0,0,5.9h0.23A3,3,0,0,0,166.34,216.33Z" transform="translate(0 0)"/><path class="c" d="M157,216.33a3,3,0,0,0-3-3h-0.23a3,3,0,0,0,0,5.9h0.23A3,3,0,0,0,157,216.33Z" transform="translate(0 0)"/><path class="c" d="M147.72,216.33a3,3,0,0,0-3-3h-0.23a3,3,0,1,0,0,5.9h0.23A3,3,0,0,0,147.72,216.33Z" transform="translate(0 0)"/><path class="c" d="M138.41,216.33a3,3,0,0,0-3-3h-0.23a3,3,0,0,0,0,5.9h0.23A3,3,0,0,0,138.41,216.33Z" transform="translate(0 0)"/><path class="c" d="M129.11,216.33a3,3,0,0,0-3-3h-0.23a3,3,0,0,0,0,5.9h0.23A3,3,0,0,0,129.11,216.33Z" transform="translate(0 0)"/><path class="c" d="M119.8,216.33a3,3,0,0,0-3-3h-0.23a3,3,0,1,0,0,5.9h0.23A3,3,0,0,0,119.8,216.33Z" transform="translate(0 0)"/><path class="c" d="M110.49,216.33a3,3,0,0,0-3-3h-0.23a3,3,0,0,0,0,5.9h0.23A3,3,0,0,0,110.49,216.33Z" transform="translate(0 0)"/><path class="c" d="M166.34,225.3a3,3,0,0,0-3-3h-0.23a3,3,0,1,0,0,5.9h0.23A3,3,0,0,0,166.34,225.3Z" transform="translate(0 0)"/><path class="c" d="M157,225.3a3,3,0,0,0-3-3h-0.23a3,3,0,0,0,0,5.9h0.23A3,3,0,0,0,157,225.3Z" transform="translate(0 0)"/><path class="c" d="M147.72,225.3a3,3,0,0,0-3-3h-0.23a3,3,0,1,0,0,5.9h0.23A3,3,0,0,0,147.72,225.3Z" transform="translate(0 0)"/><path class="c" d="M138.41,225.3a3,3,0,0,0-3-3h-0.23a3,3,0,0,0,0,5.9h0.23A3,3,0,0,0,138.41,225.3Z" transform="translate(0 0)"/><path class="c" d="M129.11,225.3a3,3,0,0,0-3-3h-0.23a3,3,0,0,0,0,5.9h0.23A3,3,0,0,0,129.11,225.3Z" transform="translate(0 0)"/><path class="c" d="M119.8,225.3a3,3,0,0,0-3-3h-0.23a3,3,0,1,0,0,5.9h0.23A3,3,0,0,0,119.8,225.3Z" transform="translate(0 0)"/><path class="c" d="M110.49,225.3a3,3,0,0,0-3-3h-0.23a3,3,0,1,0,0,5.9h0.23A3,3,0,0,0,110.49,225.3Z" transform="translate(0 0)"/><path class="c" d="M157,234.27a3,3,0,0,0-3-3h-0.23a3,3,0,0,0,0,5.9h0.23A3,3,0,0,0,157,234.27Z" transform="translate(0 0)"/><path class="c" d="M147.72,234.27a3,3,0,0,0-2.95-3h-0.23a3,3,0,1,0,0,5.9h0.23A3,3,0,0,0,147.72,234.27Z" transform="translate(0 0)"/><path class="c" d="M138.41,234.27a3,3,0,0,0-3-3h-0.23a3,3,0,1,0,0,5.9h0.23A3,3,0,0,0,138.41,234.27Z" transform="translate(0 0)"/><path class="c" d="M129.1,234.27a3,3,0,0,0-2.95-3h-0.23a3,3,0,0,0,0,5.9h0.23A3,3,0,0,0,129.1,234.27Z" transform="translate(0 0)"/><path class="c" d="M119.79,234.27a3,3,0,0,0-3-3h-0.23a3,3,0,0,0,0,5.9h0.23A3,3,0,0,0,119.79,234.27Z" transform="translate(0 0)"/><path class="c" d="M185,243.24a3,3,0,0,0-3-3h-0.23a3,3,0,1,0,0,5.9H182A3,3,0,0,0,185,243.24Z" transform="translate(0 0)"/><path class="c" d="M175.65,243.24a3,3,0,0,0-3-3h-0.23a3,3,0,1,0,0,5.9h0.23A3,3,0,0,0,175.65,243.24Z" transform="translate(0 0)"/><path class="c" d="M166.34,243.24a3,3,0,0,0-3-3h-0.23a3,3,0,1,0,0,5.9h0.23A3,3,0,0,0,166.34,243.24Z" transform="translate(0 0)"/><path class="c" d="M157,243.24a3,3,0,0,0-3-3h-0.23a3,3,0,0,0,0,5.9h0.23A3,3,0,0,0,157,243.24Z" transform="translate(0 0)"/><path class="c" d="M147.72,243.24a3,3,0,0,0-3-3h-0.23a3,3,0,1,0,0,5.9h0.23A3,3,0,0,0,147.72,243.24Z" transform="translate(0 0)"/><path class="c" d="M138.41,243.24a3,3,0,0,0-3-3h-0.23a3,3,0,1,0,0,5.9h0.23A3,3,0,0,0,138.41,243.24Z" transform="translate(0 0)"/><path class="c" d="M129.11,243.24a3,3,0,0,0-3-3h-0.23a3,3,0,1,0,0,5.9h0.23A3,3,0,0,0,129.11,243.24Z" transform="translate(0 0)"/><path class="c" d="M119.8,243.24a3,3,0,0,0-3-3h-0.23a3,3,0,1,0,0,5.9h0.23A3,3,0,0,0,119.8,243.24Z" transform="translate(0 0)"/><path class="c" d="M110.49,243.24a3,3,0,0,0-3-3h-0.23a3,3,0,1,0,0,5.9h0.23A3,3,0,0,0,110.49,243.24Z" transform="translate(0 0)"/><path class="c" d="M101.18,243.24a3,3,0,0,0-3-3H98a3,3,0,1,0,0,5.9h0.23A3,3,0,0,0,101.18,243.24Z" transform="translate(0 0)"/><path class="c" d="M91.87,243.24a3,3,0,0,0-3-3H88.69a3,3,0,1,0,0,5.9h0.23A3,3,0,0,0,91.87,243.24Z" transform="translate(0 0)"/><path class="c" d="M194.26,252.2a3,3,0,0,0-3-2.95h-0.23a3,3,0,0,0,0,5.9h0.23A3,3,0,0,0,194.26,252.2Z" transform="translate(0 0)"/><path class="c" d="M185,252.2a3,3,0,0,0-3-2.95h-0.23a3,3,0,1,0,0,5.9H182A3,3,0,0,0,185,252.2Z" transform="translate(0 0)"/><path class="c" d="M175.65,252.2a3,3,0,0,0-3-2.95h-0.23a3,3,0,1,0,0,5.9h0.23A3,3,0,0,0,175.65,252.2Z" transform="translate(0 0)"/><path class="c" d="M166.34,252.2a3,3,0,0,0-3-2.95h-0.23a3,3,0,1,0,0,5.9h0.23A3,3,0,0,0,166.34,252.2Z" transform="translate(0 0)"/><path class="c" d="M157,252.2a3,3,0,0,0-3-2.95h-0.23a3,3,0,0,0,0,5.9h0.23A3,3,0,0,0,157,252.2Z" transform="translate(0 0)"/><path class="c" d="M147.72,252.2a3,3,0,0,0-3-2.95h-0.23a3,3,0,1,0,0,5.9h0.23A3,3,0,0,0,147.72,252.2Z" transform="translate(0 0)"/><path class="c" d="M138.41,252.2a3,3,0,0,0-3-2.95h-0.23a3,3,0,1,0,0,5.9h0.23A3,3,0,0,0,138.41,252.2Z" transform="translate(0 0)"/><path class="c" d="M129.11,252.2a3,3,0,0,0-3-2.95h-0.23a3,3,0,1,0,0,5.9h0.23A3,3,0,0,0,129.11,252.2Z" transform="translate(0 0)"/><path class="c" d="M119.8,252.2a3,3,0,0,0-3-2.95h-0.23a3,3,0,1,0,0,5.9h0.23A3,3,0,0,0,119.8,252.2Z" transform="translate(0 0)"/><path class="c" d="M110.49,252.2a3,3,0,0,0-3-2.95h-0.23a3,3,0,1,0,0,5.9h0.23A3,3,0,0,0,110.49,252.2Z" transform="translate(0 0)"/><path class="c" d="M101.18,252.2a3,3,0,0,0-3-2.95H98a3,3,0,1,0,0,5.9h0.23A3,3,0,0,0,101.18,252.2Z" transform="translate(0 0)"/><path class="c" d="M91.87,252.2a3,3,0,0,0-3-2.95H88.69a3,3,0,1,0,0,5.9h0.23A3,3,0,0,0,91.87,252.2Z" transform="translate(0 0)"/><path class="c" d="M82.56,252.2a3,3,0,0,0-3-2.95H79.38a3,3,0,1,0,0,5.9h0.23A3,3,0,0,0,82.56,252.2Z" transform="translate(0 0)"/><path class="c" d="M194.26,261.18a3,3,0,0,0-3-3h-0.23a3,3,0,0,0,0,5.9h0.23A3,3,0,0,0,194.26,261.18Z" transform="translate(0 0)"/><path class="c" d="M185,261.18a3,3,0,0,0-3-3h-0.23a3,3,0,0,0,0,5.9H182A3,3,0,0,0,185,261.18Z" transform="translate(0 0)"/><path class="c" d="M175.65,261.18a3,3,0,0,0-3-3h-0.23a3,3,0,1,0,0,5.9h0.23A3,3,0,0,0,175.65,261.18Z" transform="translate(0 0)"/><path class="c" d="M166.34,261.18a3,3,0,0,0-3-3h-0.23a3,3,0,1,0,0,5.9h0.23A3,3,0,0,0,166.34,261.18Z" transform="translate(0 0)"/><path class="c" d="M157,261.18a3,3,0,0,0-3-3h-0.23a3,3,0,0,0,0,5.9h0.23A3,3,0,0,0,157,261.18Z" transform="translate(0 0)"/><path class="c" d="M147.72,261.18a3,3,0,0,0-3-3h-0.23a3,3,0,0,0,0,5.9h0.23A3,3,0,0,0,147.72,261.18Z" transform="translate(0 0)"/><path class="c" d="M138.41,261.18a3,3,0,0,0-3-3h-0.23a3,3,0,1,0,0,5.9h0.23A3,3,0,0,0,138.41,261.18Z" transform="translate(0 0)"/><path class="c" d="M129.11,261.18a3,3,0,0,0-3-3h-0.23a3,3,0,0,0,0,5.9h0.23A3,3,0,0,0,129.11,261.18Z" transform="translate(0 0)"/><path class="c" d="M119.8,261.18a3,3,0,0,0-3-3h-0.23a3,3,0,0,0,0,5.9h0.23A3,3,0,0,0,119.8,261.18Z" transform="translate(0 0)"/><path class="c" d="M110.49,261.18a3,3,0,0,0-3-3h-0.23a3,3,0,0,0,0,5.9h0.23A3,3,0,0,0,110.49,261.18Z" transform="translate(0 0)"/><path class="c" d="M101.18,261.18a3,3,0,0,0-3-3H98a3,3,0,1,0,0,5.9h0.23A3,3,0,0,0,101.18,261.18Z" transform="translate(0 0)"/><path class="c" d="M91.87,261.18a3,3,0,0,0-3-3H88.69a3,3,0,0,0,0,5.9h0.23A3,3,0,0,0,91.87,261.18Z" transform="translate(0 0)"/><path class="c" d="M82.56,261.18a3,3,0,0,0-3-3H79.38a3,3,0,0,0,0,5.9h0.23A3,3,0,0,0,82.56,261.18Z" transform="translate(0 0)"/><path class="c" d="M194.26,270.15a3,3,0,0,0-3-3h-0.23a3,3,0,1,0,0,5.9h0.23A3,3,0,0,0,194.26,270.15Z" transform="translate(0 0)"/><path class="c" d="M185,270.15a3,3,0,0,0-3-3h-0.23a3,3,0,1,0,0,5.9H182A3,3,0,0,0,185,270.15Z" transform="translate(0 0)"/><path class="c" d="M175.65,270.15a3,3,0,0,0-3-3h-0.23a3,3,0,1,0,0,5.9h0.23A3,3,0,0,0,175.65,270.15Z" transform="translate(0 0)"/><path class="c" d="M166.34,270.15a3,3,0,0,0-3-3h-0.23a3,3,0,1,0,0,5.9h0.23A3,3,0,0,0,166.34,270.15Z" transform="translate(0 0)"/><path class="c" d="M157,270.15a3,3,0,0,0-3-3h-0.23a3,3,0,0,0,0,5.9h0.23A3,3,0,0,0,157,270.15Z" transform="translate(0 0)"/><path class="c" d="M147.72,270.15a3,3,0,0,0-3-3h-0.23a3,3,0,1,0,0,5.9h0.23A3,3,0,0,0,147.72,270.15Z" transform="translate(0 0)"/><path class="c" d="M138.41,270.15a3,3,0,0,0-3-3h-0.23a3,3,0,1,0,0,5.9h0.23A3,3,0,0,0,138.41,270.15Z" transform="translate(0 0)"/><path class="c" d="M129.11,270.15a3,3,0,0,0-3-3h-0.23a3,3,0,1,0,0,5.9h0.23A3,3,0,0,0,129.11,270.15Z" transform="translate(0 0)"/><path class="c" d="M119.8,270.15a3,3,0,0,0-3-3h-0.23a3,3,0,1,0,0,5.9h0.23A3,3,0,0,0,119.8,270.15Z" transform="translate(0 0)"/><path class="c" d="M110.49,270.15a3,3,0,0,0-3-3h-0.23a3,3,0,1,0,0,5.9h0.23A3,3,0,0,0,110.49,270.15Z" transform="translate(0 0)"/><path class="c" d="M101.18,270.15a3,3,0,0,0-3-3H98a3,3,0,1,0,0,5.9h0.23A3,3,0,0,0,101.18,270.15Z" transform="translate(0 0)"/><path class="c" d="M91.87,270.15a3,3,0,0,0-3-3H88.69a3,3,0,1,0,0,5.9h0.23A3,3,0,0,0,91.87,270.15Z" transform="translate(0 0)"/><path class="c" d="M82.56,270.15a3,3,0,0,0-3-3H79.38a3,3,0,1,0,0,5.9h0.23A3,3,0,0,0,82.56,270.15Z" transform="translate(0 0)"/><path class="c" d="M194.26,279.12a3,3,0,0,0-3-2.95h-0.22a3,3,0,1,0,0,5.9h0.22A3,3,0,0,0,194.26,279.12Z" transform="translate(0 0)"/><path class="c" d="M185,279.12a3,3,0,0,0-3-2.95h-0.23a3,3,0,1,0,0,5.9H182A3,3,0,0,0,185,279.12Z" transform="translate(0 0)"/><path class="c" d="M175.65,279.12a3,3,0,0,0-3-2.95h-0.23a3,3,0,1,0,0,5.9h0.23A3,3,0,0,0,175.65,279.12Z" transform="translate(0 0)"/><path class="c" d="M166.34,279.12a3,3,0,0,0-3-2.95h-0.23a3,3,0,1,0,0,5.9h0.23A3,3,0,0,0,166.34,279.12Z" transform="translate(0 0)"/><path class="c" d="M157,279.12a3,3,0,0,0-3-2.95h-0.23a3,3,0,1,0,0,5.9h0.23A3,3,0,0,0,157,279.12Z" transform="translate(0 0)"/><path class="c" d="M147.72,279.12a3,3,0,0,0-2.95-2.95h-0.23a3,3,0,1,0,0,5.9h0.23A3,3,0,0,0,147.72,279.12Z" transform="translate(0 0)"/><path class="c" d="M138.41,279.12a3,3,0,0,0-3-2.95h-0.23a3,3,0,1,0,0,5.9h0.23A3,3,0,0,0,138.41,279.12Z" transform="translate(0 0)"/><path class="c" d="M129.1,279.12a3,3,0,0,0-2.95-2.95h-0.23a3,3,0,1,0,0,5.9h0.23A3,3,0,0,0,129.1,279.12Z" transform="translate(0 0)"/><path class="c" d="M119.79,279.12a3,3,0,0,0-3-2.95h-0.23a3,3,0,1,0,0,5.9h0.23A3,3,0,0,0,119.79,279.12Z" transform="translate(0 0)"/><path class="c" d="M110.49,279.12a3,3,0,0,0-3-2.95h-0.22a3,3,0,1,0,0,5.9h0.22A3,3,0,0,0,110.49,279.12Z" transform="translate(0 0)"/><path class="c" d="M101.18,279.12a3,3,0,0,0-3-2.95H98a3,3,0,1,0,0,5.9h0.23A3,3,0,0,0,101.18,279.12Z" transform="translate(0 0)"/><path class="c" d="M91.87,279.12a3,3,0,0,0-3-2.95H88.69a3,3,0,1,0,0,5.9h0.23A3,3,0,0,0,91.87,279.12Z" transform="translate(0 0)"/><path class="c" d="M82.56,279.12a3,3,0,0,0-3-2.95H79.38a3,3,0,1,0,0,5.9h0.23A3,3,0,0,0,82.56,279.12Z" transform="translate(0 0)"/><path class="c" d="M194.26,288.09a3,3,0,0,0-3-3h-0.23a3,3,0,0,0,0,5.9h0.23A3,3,0,0,0,194.26,288.09Z" transform="translate(0 0)"/><path class="c" d="M185,288.09a3,3,0,0,0-3-3h-0.23a3,3,0,0,0,0,5.9H182A3,3,0,0,0,185,288.09Z" transform="translate(0 0)"/><path class="c" d="M175.65,288.09a3,3,0,0,0-3-3h-0.23a3,3,0,1,0,0,5.9h0.23A3,3,0,0,0,175.65,288.09Z" transform="translate(0 0)"/><path class="c" d="M166.34,288.09a3,3,0,0,0-3-3h-0.23a3,3,0,1,0,0,5.9h0.23A3,3,0,0,0,166.34,288.09Z" transform="translate(0 0)"/><path class="c" d="M157,288.09a3,3,0,0,0-3-3h-0.23a3,3,0,0,0,0,5.9h0.23A3,3,0,0,0,157,288.09Z" transform="translate(0 0)"/><path class="c" d="M147.72,288.09a3,3,0,0,0-3-3h-0.23a3,3,0,1,0,0,5.9h0.23A3,3,0,0,0,147.72,288.09Z" transform="translate(0 0)"/><path class="c" d="M138.41,288.09a3,3,0,0,0-3-3h-0.23a3,3,0,1,0,0,5.9h0.23A3,3,0,0,0,138.41,288.09Z" transform="translate(0 0)"/><path class="c" d="M129.11,288.09a3,3,0,0,0-3-3h-0.23a3,3,0,0,0,0,5.9h0.23A3,3,0,0,0,129.11,288.09Z" transform="translate(0 0)"/><path class="c" d="M119.8,288.09a3,3,0,0,0-3-3h-0.23a3,3,0,0,0,0,5.9h0.23A3,3,0,0,0,119.8,288.09Z" transform="translate(0 0)"/><path class="c" d="M110.49,288.09a3,3,0,0,0-3-3h-0.23a3,3,0,1,0,0,5.9h0.23A3,3,0,0,0,110.49,288.09Z" transform="translate(0 0)"/><path class="c" d="M101.18,288.09a3,3,0,0,0-3-3H98a3,3,0,1,0,0,5.9h0.23A3,3,0,0,0,101.18,288.09Z" transform="translate(0 0)"/><path class="c" d="M91.87,288.09a3,3,0,0,0-3-3H88.69a3,3,0,0,0,0,5.9h0.23A3,3,0,0,0,91.87,288.09Z" transform="translate(0 0)"/><path class="c" d="M82.56,288.09a3,3,0,0,0-3-3H79.38a3,3,0,1,0,0,5.9h0.23A3,3,0,0,0,82.56,288.09Z" transform="translate(0 0)"/><path class="c" d="M194.26,297.06a3,3,0,0,0-3-3h-0.23a3,3,0,0,0,0,5.91h0.23A3,3,0,0,0,194.26,297.06Z" transform="translate(0 0)"/><path class="c" d="M185,297.06a3,3,0,0,0-3-3h-0.23a3,3,0,0,0,0,5.91H182A3,3,0,0,0,185,297.06Z" transform="translate(0 0)"/><path class="c" d="M175.65,297.06a3,3,0,0,0-3-3h-0.23a3,3,0,1,0,0,5.91h0.23A3,3,0,0,0,175.65,297.06Z" transform="translate(0 0)"/><path class="c" d="M166.34,297.06a3,3,0,0,0-3-3h-0.23a3,3,0,0,0,0,5.91h0.23A3,3,0,0,0,166.34,297.06Z" transform="translate(0 0)"/><path class="c" d="M157,297.06a3,3,0,0,0-3-3h-0.23a3,3,0,0,0,0,5.91h0.23A3,3,0,0,0,157,297.06Z" transform="translate(0 0)"/><path class="c" d="M147.72,297.06a3,3,0,0,0-3-3h-0.23a3,3,0,0,0,0,5.91h0.23A3,3,0,0,0,147.72,297.06Z" transform="translate(0 0)"/><path class="c" d="M138.41,297.06a3,3,0,0,0-3-3h-0.23a3,3,0,1,0,0,5.91h0.23A3,3,0,0,0,138.41,297.06Z" transform="translate(0 0)"/><path class="c" d="M129.11,297.06a3,3,0,0,0-3-3h-0.23a3,3,0,0,0,0,5.91h0.23A3,3,0,0,0,129.11,297.06Z" transform="translate(0 0)"/><path class="c" d="M119.8,297.06a3,3,0,0,0-3-3h-0.23a3,3,0,0,0,0,5.91h0.23A3,3,0,0,0,119.8,297.06Z" transform="translate(0 0)"/><path class="c" d="M110.49,297.06a3,3,0,0,0-3-3h-0.23a3,3,0,0,0,0,5.91h0.23A3,3,0,0,0,110.49,297.06Z" transform="translate(0 0)"/><path class="c" d="M101.18,297.06a3,3,0,0,0-3-3H98A3,3,0,0,0,98,300h0.23A3,3,0,0,0,101.18,297.06Z" transform="translate(0 0)"/><path class="c" d="M91.87,297.06a3,3,0,0,0-3-3H88.69a3,3,0,0,0,0,5.91h0.23A3,3,0,0,0,91.87,297.06Z" transform="translate(0 0)"/><path class="c" d="M82.56,297.06a3,3,0,0,0-3-3H79.38a3,3,0,0,0,0,5.91h0.23A3,3,0,0,0,82.56,297.06Z" transform="translate(0 0)"/><path class="c" d="M194.26,306a3,3,0,0,0-3-3h-0.23a3,3,0,0,0,0,5.91h0.23A3,3,0,0,0,194.26,306Z" transform="translate(0 0)"/><path class="c" d="M185,306a3,3,0,0,0-3-3h-0.23a3,3,0,0,0,0,5.91H182A3,3,0,0,0,185,306Z" transform="translate(0 0)"/><path class="c" d="M175.65,306a3,3,0,0,0-3-3h-0.23a3,3,0,0,0,0,5.91h0.23A3,3,0,0,0,175.65,306Z" transform="translate(0 0)"/><path class="c" d="M166.34,306a3,3,0,0,0-3-3h-0.23a3,3,0,0,0,0,5.91h0.23A3,3,0,0,0,166.34,306Z" transform="translate(0 0)"/><path class="c" d="M157,306a3,3,0,0,0-3-3h-0.23a3,3,0,0,0,0,5.91h0.23A3,3,0,0,0,157,306Z" transform="translate(0 0)"/><path class="c" d="M147.72,306a3,3,0,0,0-3-3h-0.23a3,3,0,0,0,0,5.91h0.23A3,3,0,0,0,147.72,306Z" transform="translate(0 0)"/><path class="c" d="M138.41,306a3,3,0,0,0-3-3h-0.23a3,3,0,0,0,0,5.91h0.23A3,3,0,0,0,138.41,306Z" transform="translate(0 0)"/><path class="c" d="M129.11,306a3,3,0,0,0-3-3h-0.23a3,3,0,0,0,0,5.91h0.23A3,3,0,0,0,129.11,306Z" transform="translate(0 0)"/><path class="c" d="M119.8,306a3,3,0,0,0-3-3h-0.23a3,3,0,0,0,0,5.91h0.23A3,3,0,0,0,119.8,306Z" transform="translate(0 0)"/><path class="c" d="M110.49,306a3,3,0,0,0-3-3h-0.23a3,3,0,0,0,0,5.91h0.23A3,3,0,0,0,110.49,306Z" transform="translate(0 0)"/><path class="c" d="M101.18,306a3,3,0,0,0-3-3H98A3,3,0,0,0,98,309h0.23A3,3,0,0,0,101.18,306Z" transform="translate(0 0)"/><path class="c" d="M91.87,306a3,3,0,0,0-3-3H88.69a3,3,0,0,0,0,5.91h0.23A3,3,0,0,0,91.87,306Z" transform="translate(0 0)"/><path class="c" d="M82.56,306a3,3,0,0,0-3-3H79.38a3,3,0,0,0,0,5.91h0.23A3,3,0,0,0,82.56,306Z" transform="translate(0 0)"/><path class="c" d="M194.26,315a3,3,0,0,0-3-3h-0.23a3,3,0,0,0,0,5.9h0.23A3,3,0,0,0,194.26,315Z" transform="translate(0 0)"/><path class="c" d="M185,315a3,3,0,0,0-3-3h-0.23a3,3,0,1,0,0,5.9H182A3,3,0,0,0,185,315Z" transform="translate(0 0)"/><path class="c" d="M175.65,315a3,3,0,0,0-3-3h-0.23a3,3,0,0,0,0,5.9h0.23A3,3,0,0,0,175.65,315Z" transform="translate(0 0)"/><path class="c" d="M166.34,315a3,3,0,0,0-3-3h-0.23a3,3,0,0,0,0,5.9h0.23A3,3,0,0,0,166.34,315Z" transform="translate(0 0)"/><path class="c" d="M157,315a3,3,0,0,0-3-3h-0.23a3,3,0,0,0,0,5.9h0.23A3,3,0,0,0,157,315Z" transform="translate(0 0)"/><path class="c" d="M147.72,315a3,3,0,0,0-3-3h-0.23a3,3,0,1,0,0,5.9h0.23A3,3,0,0,0,147.72,315Z" transform="translate(0 0)"/><path class="c" d="M138.41,315a3,3,0,0,0-3-3h-0.23a3,3,0,0,0,0,5.9h0.23A3,3,0,0,0,138.41,315Z" transform="translate(0 0)"/><path class="c" d="M129.11,315a3,3,0,0,0-3-3h-0.23a3,3,0,0,0,0,5.9h0.23A3,3,0,0,0,129.11,315Z" transform="translate(0 0)"/><path class="c" d="M119.8,315a3,3,0,0,0-3-3h-0.23a3,3,0,1,0,0,5.9h0.23A3,3,0,0,0,119.8,315Z" transform="translate(0 0)"/><path class="c" d="M110.49,315a3,3,0,0,0-3-3h-0.23a3,3,0,1,0,0,5.9h0.23A3,3,0,0,0,110.49,315Z" transform="translate(0 0)"/><path class="c" d="M101.18,315a3,3,0,0,0-3-3H98a3,3,0,0,0,0,5.9h0.23A3,3,0,0,0,101.18,315Z" transform="translate(0 0)"/><path class="c" d="M91.87,315a3,3,0,0,0-3-3H88.69a3,3,0,0,0,0,5.9h0.23A3,3,0,0,0,91.87,315Z" transform="translate(0 0)"/><path class="c" d="M82.56,315a3,3,0,0,0-3-3H79.38a3,3,0,1,0,0,5.9h0.23A3,3,0,0,0,82.56,315Z" transform="translate(0 0)"/><path class="c" d="M194.26,324a3,3,0,0,0-3-3h-0.23a3,3,0,0,0,0,5.9h0.23A3,3,0,0,0,194.26,324Z" transform="translate(0 0)"/><path class="c" d="M185,324a3,3,0,0,0-3-3h-0.23a3,3,0,1,0,0,5.9H182A3,3,0,0,0,185,324Z" transform="translate(0 0)"/><path class="c" d="M175.65,324a3,3,0,0,0-3-3h-0.23a3,3,0,1,0,0,5.9h0.23A3,3,0,0,0,175.65,324Z" transform="translate(0 0)"/><path class="c" d="M166.34,324a3,3,0,0,0-3-3h-0.23a3,3,0,1,0,0,5.9h0.23A3,3,0,0,0,166.34,324Z" transform="translate(0 0)"/><path class="c" d="M157,324a3,3,0,0,0-3-3h-0.23a3,3,0,0,0,0,5.9h0.23A3,3,0,0,0,157,324Z" transform="translate(0 0)"/><path class="c" d="M147.72,324a3,3,0,0,0-3-3h-0.23a3,3,0,1,0,0,5.9h0.23A3,3,0,0,0,147.72,324Z" transform="translate(0 0)"/><path class="c" d="M138.41,324a3,3,0,0,0-3-3h-0.23a3,3,0,1,0,0,5.9h0.23A3,3,0,0,0,138.41,324Z" transform="translate(0 0)"/><path class="c" d="M129.11,324a3,3,0,0,0-3-3h-0.23a3,3,0,0,0,0,5.9h0.23A3,3,0,0,0,129.11,324Z" transform="translate(0 0)"/><path class="c" d="M119.8,324a3,3,0,0,0-3-3h-0.23a3,3,0,1,0,0,5.9h0.23A3,3,0,0,0,119.8,324Z" transform="translate(0 0)"/><path class="c" d="M110.49,324a3,3,0,0,0-3-3h-0.23a3,3,0,1,0,0,5.9h0.23A3,3,0,0,0,110.49,324Z" transform="translate(0 0)"/><path class="c" d="M101.18,324a3,3,0,0,0-3-3H98a3,3,0,1,0,0,5.9h0.23A3,3,0,0,0,101.18,324Z" transform="translate(0 0)"/><path class="c" d="M91.87,324a3,3,0,0,0-3-3H88.69a3,3,0,1,0,0,5.9h0.23A3,3,0,0,0,91.87,324Z" transform="translate(0 0)"/><path class="c" d="M82.56,324a3,3,0,0,0-3-3H79.38a3,3,0,1,0,0,5.9h0.23A3,3,0,0,0,82.56,324Z" transform="translate(0 0)"/><path class="c" d="M194.26,332.94a3,3,0,0,0-3-3h-0.23a3,3,0,0,0,0,5.91h0.23A3,3,0,0,0,194.26,332.94Z" transform="translate(0 0)"/><path class="c" d="M185,332.94a3,3,0,0,0-3-3h-0.23a3,3,0,0,0,0,5.91H182A3,3,0,0,0,185,332.94Z" transform="translate(0 0)"/><path class="c" d="M175.65,332.94a3,3,0,0,0-3-3h-0.23a3,3,0,0,0,0,5.91h0.23A3,3,0,0,0,175.65,332.94Z" transform="translate(0 0)"/><path class="c" d="M166.34,332.94a3,3,0,0,0-3-3h-0.23a3,3,0,0,0,0,5.91h0.23A3,3,0,0,0,166.34,332.94Z" transform="translate(0 0)"/><path class="c" d="M157,332.94a3,3,0,0,0-3-3h-0.23a3,3,0,0,0,0,5.91h0.23A3,3,0,0,0,157,332.94Z" transform="translate(0 0)"/><path class="c" d="M147.72,332.94a3,3,0,0,0-3-3h-0.23a3,3,0,0,0,0,5.91h0.23A3,3,0,0,0,147.72,332.94Z" transform="translate(0 0)"/><path class="c" d="M138.41,332.94a3,3,0,0,0-3-3h-0.23a3,3,0,0,0,0,5.91h0.23A3,3,0,0,0,138.41,332.94Z" transform="translate(0 0)"/><path class="c" d="M129.11,332.94a3,3,0,0,0-3-3h-0.23a3,3,0,0,0,0,5.91h0.23A3,3,0,0,0,129.11,332.94Z" transform="translate(0 0)"/><path class="c" d="M119.8,332.94a3,3,0,0,0-3-3h-0.23a3,3,0,0,0,0,5.91h0.23A3,3,0,0,0,119.8,332.94Z" transform="translate(0 0)"/><path class="c" d="M110.49,332.94a3,3,0,0,0-3-3h-0.23a3,3,0,0,0,0,5.91h0.23A3,3,0,0,0,110.49,332.94Z" transform="translate(0 0)"/><path class="c" d="M101.18,332.94a3,3,0,0,0-3-3H98a3,3,0,0,0,0,5.91h0.23A3,3,0,0,0,101.18,332.94Z" transform="translate(0 0)"/><path class="c" d="M91.87,332.94a3,3,0,0,0-3-3H88.69a3,3,0,0,0,0,5.91h0.23A3,3,0,0,0,91.87,332.94Z" transform="translate(0 0)"/><path class="c" d="M82.56,332.94a3,3,0,0,0-3-3H79.38a3,3,0,0,0,0,5.91h0.23A3,3,0,0,0,82.56,332.94Z" transform="translate(0 0)"/><path class="c" d="M194.26,341.91a3,3,0,0,0-3-3h-0.23a3,3,0,0,0,0,5.9h0.23A3,3,0,0,0,194.26,341.91Z" transform="translate(0 0)"/><path class="c" d="M185,341.91a3,3,0,0,0-3-3h-0.23a3,3,0,0,0,0,5.9H182A3,3,0,0,0,185,341.91Z" transform="translate(0 0)"/><path class="c" d="M175.65,341.91a3,3,0,0,0-3-3h-0.23a3,3,0,1,0,0,5.9h0.23A3,3,0,0,0,175.65,341.91Z" transform="translate(0 0)"/><path class="c" d="M166.34,341.91a3,3,0,0,0-3-3h-0.23a3,3,0,1,0,0,5.9h0.23A3,3,0,0,0,166.34,341.91Z" transform="translate(0 0)"/><path class="c" d="M157,341.91a3,3,0,0,0-3-3h-0.23a3,3,0,0,0,0,5.9h0.23A3,3,0,0,0,157,341.91Z" transform="translate(0 0)"/><path class="c" d="M147.72,341.91a3,3,0,0,0-3-3h-0.23a3,3,0,1,0,0,5.9h0.23A3,3,0,0,0,147.72,341.91Z" transform="translate(0 0)"/><path class="c" d="M138.41,341.91a3,3,0,0,0-3-3h-0.23a3,3,0,1,0,0,5.9h0.23A3,3,0,0,0,138.41,341.91Z" transform="translate(0 0)"/><path class="c" d="M129.11,341.91a3,3,0,0,0-3-3h-0.23a3,3,0,1,0,0,5.9h0.23A3,3,0,0,0,129.11,341.91Z" transform="translate(0 0)"/><path class="c" d="M119.8,341.91a3,3,0,0,0-3-3h-0.23a3,3,0,1,0,0,5.9h0.23A3,3,0,0,0,119.8,341.91Z" transform="translate(0 0)"/><path class="c" d="M110.49,341.91a3,3,0,0,0-3-3h-0.23a3,3,0,1,0,0,5.9h0.23A3,3,0,0,0,110.49,341.91Z" transform="translate(0 0)"/><path class="c" d="M101.18,341.91a3,3,0,0,0-3-3H98a3,3,0,1,0,0,5.9h0.23A3,3,0,0,0,101.18,341.91Z" transform="translate(0 0)"/><path class="c" d="M91.87,341.91a3,3,0,0,0-3-3H88.69a3,3,0,1,0,0,5.9h0.23A3,3,0,0,0,91.87,341.91Z" transform="translate(0 0)"/><path class="c" d="M82.56,341.91a3,3,0,0,0-3-3H79.38a3,3,0,1,0,0,5.9h0.23A3,3,0,0,0,82.56,341.91Z" transform="translate(0 0)"/><path class="c" d="M194.26,350.89a3,3,0,0,0-3-3h-0.22a3,3,0,0,0,0,5.91h0.22A3,3,0,0,0,194.26,350.89Z" transform="translate(0 0)"/><path class="c" d="M185,350.89a3,3,0,0,0-3-3h-0.23a3,3,0,0,0,0,5.91H182A3,3,0,0,0,185,350.89Z" transform="translate(0 0)"/><path class="c" d="M175.65,350.89a3,3,0,0,0-3-3h-0.23a3,3,0,0,0,0,5.91h0.23A3,3,0,0,0,175.65,350.89Z" transform="translate(0 0)"/><path class="c" d="M166.34,350.89a3,3,0,0,0-3-3h-0.23a3,3,0,0,0,0,5.91h0.23A3,3,0,0,0,166.34,350.89Z" transform="translate(0 0)"/><path class="c" d="M157,350.89a3,3,0,0,0-3-3h-0.23a3,3,0,0,0,0,5.91h0.23A3,3,0,0,0,157,350.89Z" transform="translate(0 0)"/><path class="c" d="M147.72,350.89a3,3,0,0,0-2.95-3h-0.23a3,3,0,0,0,0,5.91h0.23A3,3,0,0,0,147.72,350.89Z" transform="translate(0 0)"/><path class="c" d="M138.41,350.89a3,3,0,0,0-3-3h-0.23a3,3,0,0,0,0,5.91h0.23A3,3,0,0,0,138.41,350.89Z" transform="translate(0 0)"/><path class="c" d="M129.1,350.89a3,3,0,0,0-2.95-3h-0.23a3,3,0,0,0,0,5.91h0.23A3,3,0,0,0,129.1,350.89Z" transform="translate(0 0)"/><path class="c" d="M119.79,350.89a3,3,0,0,0-3-3h-0.23a3,3,0,0,0,0,5.91h0.23A3,3,0,0,0,119.79,350.89Z" transform="translate(0 0)"/><path class="c" d="M110.49,350.89a3,3,0,0,0-3-3h-0.22a3,3,0,0,0,0,5.91h0.22A3,3,0,0,0,110.49,350.89Z" transform="translate(0 0)"/><path class="c" d="M101.18,350.89a3,3,0,0,0-3-3H98a3,3,0,0,0,0,5.91h0.23A3,3,0,0,0,101.18,350.89Z" transform="translate(0 0)"/><path class="c" d="M91.87,350.89a3,3,0,0,0-3-3H88.69a3,3,0,0,0,0,5.91h0.23A3,3,0,0,0,91.87,350.89Z" transform="translate(0 0)"/><path class="c" d="M82.56,350.89a3,3,0,0,0-3-3H79.38a3,3,0,0,0,0,5.91h0.23A3,3,0,0,0,82.56,350.89Z" transform="translate(0 0)"/><path class="c" d="M194.26,359.85a3,3,0,0,0-3-2.95h-0.23a3,3,0,0,0,0,5.91h0.23A3,3,0,0,0,194.26,359.85Z" transform="translate(0 0)"/><path class="c" d="M185,359.85a3,3,0,0,0-3-2.95h-0.23a3,3,0,0,0,0,5.91H182A3,3,0,0,0,185,359.85Z" transform="translate(0 0)"/><path class="c" d="M175.65,359.85a3,3,0,0,0-3-2.95h-0.23a3,3,0,1,0,0,5.91h0.23A3,3,0,0,0,175.65,359.85Z" transform="translate(0 0)"/><path class="c" d="M166.34,359.85a3,3,0,0,0-3-2.95h-0.23a3,3,0,0,0,0,5.91h0.23A3,3,0,0,0,166.34,359.85Z" transform="translate(0 0)"/><path class="c" d="M157,359.85a3,3,0,0,0-3-2.95h-0.23a3,3,0,0,0,0,5.91h0.23A3,3,0,0,0,157,359.85Z" transform="translate(0 0)"/><path class="c" d="M147.72,359.85a3,3,0,0,0-3-2.95h-0.23a3,3,0,0,0,0,5.91h0.23A3,3,0,0,0,147.72,359.85Z" transform="translate(0 0)"/><path class="c" d="M138.41,359.85a3,3,0,0,0-3-2.95h-0.23a3,3,0,0,0,0,5.91h0.23A3,3,0,0,0,138.41,359.85Z" transform="translate(0 0)"/><path class="c" d="M129.11,359.85a3,3,0,0,0-3-2.95h-0.23a3,3,0,0,0,0,5.91h0.23A3,3,0,0,0,129.11,359.85Z" transform="translate(0 0)"/><path class="c" d="M119.8,359.85a3,3,0,0,0-3-2.95h-0.23a3,3,0,0,0,0,5.91h0.23A3,3,0,0,0,119.8,359.85Z" transform="translate(0 0)"/><path class="c" d="M110.49,359.85a3,3,0,0,0-3-2.95h-0.23a3,3,0,0,0,0,5.91h0.23A3,3,0,0,0,110.49,359.85Z" transform="translate(0 0)"/><path class="c" d="M101.18,359.85a3,3,0,0,0-3-2.95H98a3,3,0,0,0,0,5.91h0.23A3,3,0,0,0,101.18,359.85Z" transform="translate(0 0)"/><path class="c" d="M91.87,359.85a3,3,0,0,0-3-2.95H88.69a3,3,0,0,0,0,5.91h0.23A3,3,0,0,0,91.87,359.85Z" transform="translate(0 0)"/><path class="c" d="M82.56,359.85a3,3,0,0,0-3-2.95H79.38a3,3,0,0,0,0,5.91h0.23A3,3,0,0,0,82.56,359.85Z" transform="translate(0 0)"/><path class="c" d="M194.26,368.83a3,3,0,0,0-3-3h-0.23a3,3,0,0,0,0,5.9h0.23A3,3,0,0,0,194.26,368.83Z" transform="translate(0 0)"/><path class="c" d="M185,368.83a3,3,0,0,0-3-3h-0.23a3,3,0,0,0,0,5.9H182A3,3,0,0,0,185,368.83Z" transform="translate(0 0)"/><path class="c" d="M175.65,368.83a3,3,0,0,0-3-3h-0.23a3,3,0,0,0,0,5.9h0.23A3,3,0,0,0,175.65,368.83Z" transform="translate(0 0)"/><path class="c" d="M166.34,368.83a3,3,0,0,0-3-3h-0.23a3,3,0,0,0,0,5.9h0.23A3,3,0,0,0,166.34,368.83Z" transform="translate(0 0)"/><path class="c" d="M157,368.83a3,3,0,0,0-3-3h-0.23a3,3,0,0,0,0,5.9h0.23A3,3,0,0,0,157,368.83Z" transform="translate(0 0)"/><path class="c" d="M147.72,368.83a3,3,0,0,0-2.95-3h-0.23a3,3,0,1,0,0,5.9h0.23A3,3,0,0,0,147.72,368.83Z" transform="translate(0 0)"/><path class="c" d="M138.41,368.83a3,3,0,0,0-3-3h-0.23a3,3,0,1,0,0,5.9h0.23A3,3,0,0,0,138.41,368.83Z" transform="translate(0 0)"/><path class="c" d="M129.1,368.83a3,3,0,0,0-2.95-3h-0.23a3,3,0,0,0,0,5.9h0.23A3,3,0,0,0,129.1,368.83Z" transform="translate(0 0)"/><path class="c" d="M119.79,368.83a3,3,0,0,0-3-3h-0.23a3,3,0,1,0,0,5.9h0.23A3,3,0,0,0,119.79,368.83Z" transform="translate(0 0)"/><path class="c" d="M110.49,368.83a3,3,0,0,0-3-3h-0.22a3,3,0,1,0,0,5.9h0.22A3,3,0,0,0,110.49,368.83Z" transform="translate(0 0)"/><path class="c" d="M101.18,368.83a3,3,0,0,0-3-3H98a3,3,0,1,0,0,5.9h0.23A3,3,0,0,0,101.18,368.83Z" transform="translate(0 0)"/><path class="c" d="M91.87,368.83a3,3,0,0,0-3-3H88.69a3,3,0,0,0,0,5.9h0.23A3,3,0,0,0,91.87,368.83Z" transform="translate(0 0)"/><path class="c" d="M82.56,368.83a3,3,0,0,0-3-3H79.38a3,3,0,0,0,0,5.9h0.23A3,3,0,0,0,82.56,368.83Z" transform="translate(0 0)"/><path class="c" d="M194.26,377.8a3,3,0,0,0-3-3h-0.23a3,3,0,0,0,0,5.9h0.23A3,3,0,0,0,194.26,377.8Z" transform="translate(0 0)"/><path class="c" d="M185,377.8a3,3,0,0,0-3-3h-0.23a3,3,0,1,0,0,5.9H182A3,3,0,0,0,185,377.8Z" transform="translate(0 0)"/><path class="c" d="M175.65,377.8a3,3,0,0,0-3-3h-0.23a3,3,0,1,0,0,5.9h0.23A3,3,0,0,0,175.65,377.8Z" transform="translate(0 0)"/><path class="c" d="M166.34,377.8a3,3,0,0,0-3-3h-0.23a3,3,0,0,0,0,5.9h0.23A3,3,0,0,0,166.34,377.8Z" transform="translate(0 0)"/><path class="c" d="M157,377.8a3,3,0,0,0-3-3h-0.23a3,3,0,0,0,0,5.9h0.23A3,3,0,0,0,157,377.8Z" transform="translate(0 0)"/><path class="c" d="M147.72,377.8a3,3,0,0,0-3-3h-0.23a3,3,0,1,0,0,5.9h0.23A3,3,0,0,0,147.72,377.8Z" transform="translate(0 0)"/><path class="c" d="M138.41,377.8a3,3,0,0,0-3-3h-0.23a3,3,0,0,0,0,5.9h0.23A3,3,0,0,0,138.41,377.8Z" transform="translate(0 0)"/><path class="c" d="M129.11,377.8a3,3,0,0,0-3-3h-0.23a3,3,0,0,0,0,5.9h0.23A3,3,0,0,0,129.11,377.8Z" transform="translate(0 0)"/><path class="c" d="M119.8,377.8a3,3,0,0,0-3-3h-0.23a3,3,0,1,0,0,5.9h0.23A3,3,0,0,0,119.8,377.8Z" transform="translate(0 0)"/><path class="c" d="M110.49,377.8a3,3,0,0,0-3-3h-0.23a3,3,0,1,0,0,5.9h0.23A3,3,0,0,0,110.49,377.8Z" transform="translate(0 0)"/><path class="c" d="M101.18,377.8a3,3,0,0,0-3-3H98a3,3,0,0,0,0,5.9h0.23A3,3,0,0,0,101.18,377.8Z" transform="translate(0 0)"/><path class="c" d="M91.87,377.8a3,3,0,0,0-3-3H88.69a3,3,0,0,0,0,5.9h0.23A3,3,0,0,0,91.87,377.8Z" transform="translate(0 0)"/><path class="c" d="M82.56,377.8a3,3,0,0,0-3-3H79.38a3,3,0,1,0,0,5.9h0.23A3,3,0,0,0,82.56,377.8Z" transform="translate(0 0)"/><path class="c" d="M194.26,386.76a3,3,0,0,0-3-3h-0.23a2.95,2.95,0,1,0,0,5.9h0.23A3,3,0,0,0,194.26,386.76Z" transform="translate(0 0)"/><path class="c" d="M185,386.76a3,3,0,0,0-3-3h-0.23a2.95,2.95,0,1,0,0,5.9H182A3,3,0,0,0,185,386.76Z" transform="translate(0 0)"/><path class="c" d="M175.65,386.76a3,3,0,0,0-3-3h-0.23a2.95,2.95,0,1,0,0,5.9h0.23A3,3,0,0,0,175.65,386.76Z" transform="translate(0 0)"/><path class="c" d="M166.34,386.76a3,3,0,0,0-3-3h-0.23a2.95,2.95,0,1,0,0,5.9h0.23A3,3,0,0,0,166.34,386.76Z" transform="translate(0 0)"/><path class="c" d="M157,386.76a3,3,0,0,0-3-3h-0.23a2.95,2.95,0,1,0,0,5.9h0.23A3,3,0,0,0,157,386.76Z" transform="translate(0 0)"/><path class="c" d="M147.72,386.76a3,3,0,0,0-3-3h-0.23a2.95,2.95,0,1,0,0,5.9h0.23A3,3,0,0,0,147.72,386.76Z" transform="translate(0 0)"/><path class="c" d="M129.11,386.76a3,3,0,0,0-3-3h-0.23a2.95,2.95,0,1,0,0,5.9h0.23A3,3,0,0,0,129.11,386.76Z" transform="translate(0 0)"/><path class="c" d="M119.8,386.76a3,3,0,0,0-3-3h-0.23a2.95,2.95,0,1,0,0,5.9h0.23A3,3,0,0,0,119.8,386.76Z" transform="translate(0 0)"/><path class="c" d="M110.49,386.76a3,3,0,0,0-3-3h-0.23a2.95,2.95,0,1,0,0,5.9h0.23A3,3,0,0,0,110.49,386.76Z" transform="translate(0 0)"/><path class="c" d="M101.18,386.76a3,3,0,0,0-3-3H98a2.95,2.95,0,1,0,0,5.9h0.23A3,3,0,0,0,101.18,386.76Z" transform="translate(0 0)"/><path class="c" d="M91.87,386.76a3,3,0,0,0-3-3H88.69a2.95,2.95,0,1,0,0,5.9h0.23A3,3,0,0,0,91.87,386.76Z" transform="translate(0 0)"/><path class="c" d="M82.56,386.76a3,3,0,0,0-3-3H79.38a2.95,2.95,0,1,0,0,5.9h0.23A3,3,0,0,0,82.56,386.76Z" transform="translate(0 0)"/><path class="c" d="M194.26,395.74a3,3,0,0,0-3-3h-0.23a3,3,0,0,0,0,5.9h0.23A3,3,0,0,0,194.26,395.74Z" transform="translate(0 0)"/><path class="c" d="M185,395.74a3,3,0,0,0-3-3h-0.23a3,3,0,0,0,0,5.9H182A3,3,0,0,0,185,395.74Z" transform="translate(0 0)"/><path class="c" d="M166.34,395.74a3,3,0,0,0-3-3h-0.23a3,3,0,0,0,0,5.9h0.23A3,3,0,0,0,166.34,395.74Z" transform="translate(0 0)"/><path class="c" d="M157,395.74a3,3,0,0,0-3-3h-0.23a3,3,0,0,0,0,5.9h0.23A3,3,0,0,0,157,395.74Z" transform="translate(0 0)"/><path class="c" d="M147.72,395.74a3,3,0,0,0-2.95-3h-0.23a3,3,0,1,0,0,5.9h0.23A3,3,0,0,0,147.72,395.74Z" transform="translate(0 0)"/><path class="c" d="M129.1,395.74a3,3,0,0,0-2.95-3h-0.23a3,3,0,0,0,0,5.9h0.23A3,3,0,0,0,129.1,395.74Z" transform="translate(0 0)"/><path class="c" d="M119.79,395.74a3,3,0,0,0-3-3h-0.23a3,3,0,0,0,0,5.9h0.23A3,3,0,0,0,119.79,395.74Z" transform="translate(0 0)"/><path class="c" d="M110.49,395.74a3,3,0,0,0-3-3h-0.22a3,3,0,1,0,0,5.9h0.22A3,3,0,0,0,110.49,395.74Z" transform="translate(0 0)"/><path class="c" d="M91.87,395.74a3,3,0,0,0-3-3H88.69a3,3,0,0,0,0,5.9h0.23A3,3,0,0,0,91.87,395.74Z" transform="translate(0 0)"/><path class="c" d="M82.56,395.74a3,3,0,0,0-3-3H79.38a3,3,0,0,0,0,5.9h0.23A3,3,0,0,0,82.56,395.74Z" transform="translate(0 0)"/><path class="c" d="M166.34,404.71a3,3,0,0,0-3-3h-0.23a3,3,0,0,0,0,5.91h0.23A3,3,0,0,0,166.34,404.71Z" transform="translate(0 0)"/><path class="c" d="M157,404.71a3,3,0,0,0-3-3h-0.23a3,3,0,0,0,0,5.91h0.23A3,3,0,0,0,157,404.71Z" transform="translate(0 0)"/><path class="c" d="M147.72,404.71a3,3,0,0,0-3-3h-0.23a3,3,0,0,0,0,5.91h0.23A3,3,0,0,0,147.72,404.71Z" transform="translate(0 0)"/><path class="c" d="M129.11,404.71a3,3,0,0,0-3-3h-0.23a3,3,0,0,0,0,5.91h0.23A3,3,0,0,0,129.11,404.71Z" transform="translate(0 0)"/><path class="c" d="M119.8,404.71a3,3,0,0,0-3-3h-0.23a3,3,0,0,0,0,5.91h0.23A3,3,0,0,0,119.8,404.71Z" transform="translate(0 0)"/><path class="c" d="M110.49,404.71a3,3,0,0,0-3-3h-0.23a3,3,0,0,0,0,5.91h0.23A3,3,0,0,0,110.49,404.71Z" transform="translate(0 0)"/><path class="c" d="M166.34,413.68a3,3,0,0,0-3-3h-0.23a2.95,2.95,0,1,0,0,5.9h0.23A3,3,0,0,0,166.34,413.68Z" transform="translate(0 0)"/><path class="c" d="M157,413.68a3,3,0,0,0-3-3h-0.23a2.95,2.95,0,1,0,0,5.9h0.23A3,3,0,0,0,157,413.68Z" transform="translate(0 0)"/><path class="c" d="M147.72,413.68a3,3,0,0,0-3-3h-0.23a2.95,2.95,0,1,0,0,5.9h0.23A3,3,0,0,0,147.72,413.68Z" transform="translate(0 0)"/><path class="c" d="M129.11,413.68a3,3,0,0,0-3-3h-0.23a2.95,2.95,0,1,0,0,5.9h0.23A3,3,0,0,0,129.11,413.68Z" transform="translate(0 0)"/><path class="c" d="M119.8,413.68a3,3,0,0,0-3-3h-0.23a2.95,2.95,0,1,0,0,5.9h0.23A3,3,0,0,0,119.8,413.68Z" transform="translate(0 0)"/><path class="c" d="M110.49,413.68a3,3,0,0,0-3-3h-0.23a2.95,2.95,0,1,0,0,5.9h0.23A3,3,0,0,0,110.49,413.68Z" transform="translate(0 0)"/><path class="c" d="M166.34,422.65a3,3,0,0,0-3-3h-0.23a3,3,0,1,0,0,5.9h0.23A3,3,0,0,0,166.34,422.65Z" transform="translate(0 0)"/><path class="c" d="M157,422.65a3,3,0,0,0-3-3h-0.23a3,3,0,0,0,0,5.9h0.23A3,3,0,0,0,157,422.65Z" transform="translate(0 0)"/><path class="c" d="M147.72,422.65a3,3,0,0,0-2.95-3h-0.23a3,3,0,1,0,0,5.9h0.23A3,3,0,0,0,147.72,422.65Z" transform="translate(0 0)"/><path class="c" d="M129.1,422.65a3,3,0,0,0-2.95-3h-0.23a3,3,0,0,0,0,5.9h0.23A3,3,0,0,0,129.1,422.65Z" transform="translate(0 0)"/><path class="c" d="M119.79,422.65a3,3,0,0,0-3-3h-0.23a3,3,0,1,0,0,5.9h0.23A3,3,0,0,0,119.79,422.65Z" transform="translate(0 0)"/><path class="c" d="M110.49,422.65a3,3,0,0,0-3-3h-0.22a3,3,0,1,0,0,5.9h0.22A3,3,0,0,0,110.49,422.65Z" transform="translate(0 0)"/><path class="c" d="M166.34,431.61a3,3,0,0,0-3-2.95h-0.23a3,3,0,0,0,0,5.91h0.23A3,3,0,0,0,166.34,431.61Z" transform="translate(0 0)"/><path class="c" d="M157,431.61a3,3,0,0,0-3-2.95h-0.23a3,3,0,0,0,0,5.91h0.23A3,3,0,0,0,157,431.61Z" transform="translate(0 0)"/><path class="c" d="M147.72,431.61a3,3,0,0,0-3-2.95h-0.23a3,3,0,0,0,0,5.91h0.23A3,3,0,0,0,147.72,431.61Z" transform="translate(0 0)"/><path class="c" d="M129.11,431.61a3,3,0,0,0-3-2.95h-0.23a3,3,0,0,0,0,5.91h0.23A3,3,0,0,0,129.11,431.61Z" transform="translate(0 0)"/><path class="c" d="M119.8,431.61a3,3,0,0,0-3-2.95h-0.23a3,3,0,0,0,0,5.91h0.23A3,3,0,0,0,119.8,431.61Z" transform="translate(0 0)"/><path class="c" d="M110.49,431.61a3,3,0,0,0-3-2.95h-0.23a3,3,0,0,0,0,5.91h0.23A3,3,0,0,0,110.49,431.61Z" transform="translate(0 0)"/><path class="c" d="M166.34,440.59a3,3,0,0,0-3-2.95h-0.23a3,3,0,1,0,0,5.9h0.23A3,3,0,0,0,166.34,440.59Z" transform="translate(0 0)"/><path class="c" d="M157,440.59a3,3,0,0,0-3-2.95h-0.23a3,3,0,0,0,0,5.9h0.23A3,3,0,0,0,157,440.59Z" transform="translate(0 0)"/><path class="c" d="M147.72,440.59a3,3,0,0,0-3-2.95h-0.23a3,3,0,1,0,0,5.9h0.23A3,3,0,0,0,147.72,440.59Z" transform="translate(0 0)"/><path class="c" d="M129.11,440.59a3,3,0,0,0-3-2.95h-0.23a3,3,0,1,0,0,5.9h0.23A3,3,0,0,0,129.11,440.59Z" transform="translate(0 0)"/><path class="c" d="M119.8,440.59a3,3,0,0,0-3-2.95h-0.23a3,3,0,1,0,0,5.9h0.23A3,3,0,0,0,119.8,440.59Z" transform="translate(0 0)"/><path class="c" d="M110.49,440.59a3,3,0,0,0-3-2.95h-0.23a3,3,0,1,0,0,5.9h0.23A3,3,0,0,0,110.49,440.59Z" transform="translate(0 0)"/><path class="c" d="M166.34,449.56a3,3,0,0,0-3-3h-0.23a3,3,0,1,0,0,5.9h0.23A3,3,0,0,0,166.34,449.56Z" transform="translate(0 0)"/><path class="c" d="M157,449.56a3,3,0,0,0-3-3h-0.23a3,3,0,0,0,0,5.9h0.23A3,3,0,0,0,157,449.56Z" transform="translate(0 0)"/><path class="c" d="M147.72,449.56a3,3,0,0,0-3-3h-0.23a3,3,0,1,0,0,5.9h0.23A3,3,0,0,0,147.72,449.56Z" transform="translate(0 0)"/><path class="c" d="M129.11,449.56a3,3,0,0,0-3-3h-0.23a3,3,0,0,0,0,5.9h0.23A3,3,0,0,0,129.11,449.56Z" transform="translate(0 0)"/><path class="c" d="M119.8,449.56a3,3,0,0,0-3-3h-0.23a3,3,0,1,0,0,5.9h0.23A3,3,0,0,0,119.8,449.56Z" transform="translate(0 0)"/><path class="c" d="M110.49,449.56a3,3,0,0,0-3-3h-0.23a3,3,0,1,0,0,5.9h0.23A3,3,0,0,0,110.49,449.56Z" transform="translate(0 0)"/><path class="c" d="M166.34,458.52a3,3,0,0,0-3-2.95h-0.23a3,3,0,0,0,0,5.91h0.23A3,3,0,0,0,166.34,458.52Z" transform="translate(0 0)"/><path class="c" d="M157,458.52a3,3,0,0,0-3-2.95h-0.23a3,3,0,0,0,0,5.91h0.23A3,3,0,0,0,157,458.52Z" transform="translate(0 0)"/><path class="c" d="M147.72,458.52a3,3,0,0,0-3-2.95h-0.23a3,3,0,0,0,0,5.91h0.23A3,3,0,0,0,147.72,458.52Z" transform="translate(0 0)"/><path class="c" d="M129.11,458.52a3,3,0,0,0-3-2.95h-0.23a3,3,0,0,0,0,5.91h0.23A3,3,0,0,0,129.11,458.52Z" transform="translate(0 0)"/><path class="c" d="M119.8,458.52a3,3,0,0,0-3-2.95h-0.23a3,3,0,0,0,0,5.91h0.23A3,3,0,0,0,119.8,458.52Z" transform="translate(0 0)"/><path class="c" d="M110.49,458.52a3,3,0,0,0-3-2.95h-0.23a3,3,0,0,0,0,5.91h0.23A3,3,0,0,0,110.49,458.52Z" transform="translate(0 0)"/><path class="c" d="M166.34,467.5a3,3,0,0,0-3-3h-0.23a3,3,0,0,0,0,5.9h0.23A3,3,0,0,0,166.34,467.5Z" transform="translate(0 0)"/><path class="c" d="M157,467.5a3,3,0,0,0-3-3h-0.23a3,3,0,0,0,0,5.9h0.23A3,3,0,0,0,157,467.5Z" transform="translate(0 0)"/><path class="c" d="M147.72,467.5a3,3,0,0,0-3-3h-0.23a3,3,0,1,0,0,5.9h0.23A3,3,0,0,0,147.72,467.5Z" transform="translate(0 0)"/><path class="c" d="M129.11,467.5a3,3,0,0,0-3-3h-0.23a3,3,0,0,0,0,5.9h0.23A3,3,0,0,0,129.11,467.5Z" transform="translate(0 0)"/><path class="c" d="M119.8,467.5a3,3,0,0,0-3-3h-0.23a3,3,0,1,0,0,5.9h0.23A3,3,0,0,0,119.8,467.5Z" transform="translate(0 0)"/><path class="c" d="M110.49,467.5a3,3,0,0,0-3-3h-0.23a3,3,0,1,0,0,5.9h0.23A3,3,0,0,0,110.49,467.5Z" transform="translate(0 0)"/><path class="c" d="M166.34,476.47a3,3,0,0,0-3-3h-0.23a3,3,0,1,0,0,5.9h0.23A3,3,0,0,0,166.34,476.47Z" transform="translate(0 0)"/><path class="c" d="M157,476.47a3,3,0,0,0-3-3h-0.23a3,3,0,0,0,0,5.9h0.23A3,3,0,0,0,157,476.47Z" transform="translate(0 0)"/><path class="c" d="M147.72,476.47a3,3,0,0,0-3-3h-0.23a3,3,0,1,0,0,5.9h0.23A3,3,0,0,0,147.72,476.47Z" transform="translate(0 0)"/><path class="c" d="M129.11,476.47a3,3,0,0,0-3-3h-0.23a3,3,0,1,0,0,5.9h0.23A3,3,0,0,0,129.11,476.47Z" transform="translate(0 0)"/><path class="c" d="M119.8,476.47a3,3,0,0,0-3-3h-0.23a3,3,0,1,0,0,5.9h0.23A3,3,0,0,0,119.8,476.47Z" transform="translate(0 0)"/><path class="c" d="M110.49,476.47a3,3,0,0,0-3-3h-0.23a3,3,0,1,0,0,5.9h0.23A3,3,0,0,0,110.49,476.47Z" transform="translate(0 0)"/><path class="c" d="M166.34,485.44a3,3,0,0,0-3-3h-0.23a3,3,0,0,0,0,5.91h0.23A3,3,0,0,0,166.34,485.44Z" transform="translate(0 0)"/><path class="c" d="M157,485.44a3,3,0,0,0-3-3h-0.23a3,3,0,0,0,0,5.91h0.23A3,3,0,0,0,157,485.44Z" transform="translate(0 0)"/><path class="c" d="M147.72,485.44a3,3,0,0,0-3-3h-0.23a3,3,0,0,0,0,5.91h0.23A3,3,0,0,0,147.72,485.44Z" transform="translate(0 0)"/><path class="c" d="M129.11,485.44a3,3,0,0,0-3-3h-0.23a3,3,0,0,0,0,5.91h0.23A3,3,0,0,0,129.11,485.44Z" transform="translate(0 0)"/><path class="c" d="M119.8,485.44a3,3,0,0,0-3-3h-0.23a3,3,0,1,0,0,5.91h0.23A3,3,0,0,0,119.8,485.44Z" transform="translate(0 0)"/><path class="c" d="M110.49,485.44a3,3,0,0,0-3-3h-0.23a3,3,0,0,0,0,5.91h0.23A3,3,0,0,0,110.49,485.44Z" transform="translate(0 0)"/><path class="c" d="M166.34,494.41a3,3,0,0,0-3-2.95h-0.23a3,3,0,1,0,0,5.9h0.23A3,3,0,0,0,166.34,494.41Z" transform="translate(0 0)"/><path class="c" d="M157,494.41a3,3,0,0,0-3-2.95h-0.23a3,3,0,0,0,0,5.9h0.23A3,3,0,0,0,157,494.41Z" transform="translate(0 0)"/><path class="c" d="M147.72,494.41a3,3,0,0,0-3-2.95h-0.23a3,3,0,1,0,0,5.9h0.23A3,3,0,0,0,147.72,494.41Z" transform="translate(0 0)"/><path class="c" d="M129.11,494.41a3,3,0,0,0-3-2.95h-0.23a3,3,0,0,0,0,5.9h0.23A3,3,0,0,0,129.11,494.41Z" transform="translate(0 0)"/><path class="c" d="M119.8,494.41a3,3,0,0,0-3-2.95h-0.23a3,3,0,1,0,0,5.9h0.23A3,3,0,0,0,119.8,494.41Z" transform="translate(0 0)"/><path class="c" d="M110.49,494.41a3,3,0,0,0-3-2.95h-0.23a3,3,0,1,0,0,5.9h0.23A3,3,0,0,0,110.49,494.41Z" transform="translate(0 0)"/><path class="c" d="M166.34,503.38a3,3,0,0,0-3-3h-0.23a3,3,0,1,0,0,5.9h0.23A3,3,0,0,0,166.34,503.38Z" transform="translate(0 0)"/><path class="c" d="M157,503.38a3,3,0,0,0-3-3h-0.23a3,3,0,0,0,0,5.9h0.23A3,3,0,0,0,157,503.38Z" transform="translate(0 0)"/><path class="c" d="M147.72,503.38a3,3,0,0,0-3-3h-0.23a3,3,0,1,0,0,5.9h0.23A3,3,0,0,0,147.72,503.38Z" transform="translate(0 0)"/><path class="c" d="M129.11,503.38a3,3,0,0,0-3-3h-0.23a3,3,0,0,0,0,5.9h0.23A3,3,0,0,0,129.11,503.38Z" transform="translate(0 0)"/><path class="c" d="M119.8,503.38a3,3,0,0,0-3-3h-0.23a3,3,0,1,0,0,5.9h0.23A3,3,0,0,0,119.8,503.38Z" transform="translate(0 0)"/><path class="c" d="M110.49,503.38a3,3,0,0,0-3-3h-0.23a3,3,0,1,0,0,5.9h0.23A3,3,0,0,0,110.49,503.38Z" transform="translate(0 0)"/><path class="c" d="M166.34,512.35a3,3,0,0,0-3-3h-0.23a3,3,0,1,0,0,5.9h0.23A3,3,0,0,0,166.34,512.35Z" transform="translate(0 0)"/><path class="c" d="M157,512.35a3,3,0,0,0-3-3h-0.23a3,3,0,0,0,0,5.9h0.23A3,3,0,0,0,157,512.35Z" transform="translate(0 0)"/><path class="c" d="M147.72,512.35a3,3,0,0,0-3-3h-0.23a3,3,0,1,0,0,5.9h0.23A3,3,0,0,0,147.72,512.35Z" transform="translate(0 0)"/><path class="c" d="M129.11,512.35a3,3,0,0,0-3-3h-0.23a3,3,0,0,0,0,5.9h0.23A3,3,0,0,0,129.11,512.35Z" transform="translate(0 0)"/><path class="c" d="M119.8,512.35a3,3,0,0,0-3-3h-0.23a3,3,0,1,0,0,5.9h0.23A3,3,0,0,0,119.8,512.35Z" transform="translate(0 0)"/><path class="c" d="M110.49,512.35a3,3,0,0,0-3-3h-0.23a3,3,0,1,0,0,5.9h0.23A3,3,0,0,0,110.49,512.35Z" transform="translate(0 0)"/><path class="c" d="M166.34,521.32a3,3,0,0,0-3-2.95h-0.23a3,3,0,1,0,0,5.9h0.23A3,3,0,0,0,166.34,521.32Z" transform="translate(0 0)"/><path class="c" d="M157,521.32a3,3,0,0,0-3-2.95h-0.23a3,3,0,0,0,0,5.9h0.23A3,3,0,0,0,157,521.32Z" transform="translate(0 0)"/><path class="c" d="M147.72,521.32a3,3,0,0,0-3-2.95h-0.23a3,3,0,1,0,0,5.9h0.23A3,3,0,0,0,147.72,521.32Z" transform="translate(0 0)"/><path class="c" d="M129.11,521.32a3,3,0,0,0-3-2.95h-0.23a3,3,0,0,0,0,5.9h0.23A3,3,0,0,0,129.11,521.32Z" transform="translate(0 0)"/><path class="c" d="M119.8,521.32a3,3,0,0,0-3-2.95h-0.23a3,3,0,1,0,0,5.9h0.23A3,3,0,0,0,119.8,521.32Z" transform="translate(0 0)"/><path class="c" d="M110.49,521.32a3,3,0,0,0-3-2.95h-0.23a3,3,0,1,0,0,5.9h0.23A3,3,0,0,0,110.49,521.32Z" transform="translate(0 0)"/></g><line class="c" x1="101.69" y1="271.79" x2="101.69" y2="356.03"/><line class="c" x1="169.02" y1="271.79" x2="169.02" y2="356.03"/><polygon class="g" points="425.2 23.57 401.63 0 212.6 189.03 23.57 0 0 23.57 189.03 212.6 0 401.63 23.57 425.2 212.6 236.18 401.63 425.2 425.2 401.63 236.18 212.6 425.2 23.57"/></svg>