<svg xmlns="http://www.w3.org/2000/svg" width="120mm" height="120mm" viewBox="0 0 340.16 340.16"><defs><style>.a{fill:#fff;}.b{fill:#0286a8;}.c{fill:#81c3d4;}.d{fill:#00577e;}.e,.f{fill:none;stroke:#0286a8;stroke-linecap:round;}.e{stroke-linejoin:round;stroke-width:8px;}.f{stroke-miterlimit:10;stroke-width:14px;}</style></defs><title>hoog_laag_laag_hoog</title><rect class="a" x="7.09" y="7.09" width="325.98" height="325.98" rx="35.43" ry="35.43"/><path class="b" d="M297.64,14.17A28.38,28.38,0,0,1,326,42.52V297.64A28.38,28.38,0,0,1,297.64,326H42.52a28.38,28.38,0,0,1-28.35-28.35V42.52A28.38,28.38,0,0,1,42.52,14.17H297.64m0-14.17H42.52A42.64,42.64,0,0,0,0,42.52V297.64a42.64,42.64,0,0,0,42.52,42.52H297.64a42.64,42.64,0,0,0,42.52-42.52V42.52A42.64,42.64,0,0,0,297.64,0h0Z" transform="translate(0)"/><path class="c" d="M203,150.09c0,14.11-21.67,25.55-48.41,25.55s-48.41-11.44-48.41-25.55,21.67-25.55,48.41-25.55S203,136,203,150.09ZM147.94,110.9a6.72,6.72,0,1,0,6.72,6.72A6.72,6.72,0,0,0,147.94,110.9Zm13.45,0a6.72,6.72,0,1,0,6.72,6.72A6.72,6.72,0,0,0,161.39,110.9Z" transform="translate(0)"/><path class="d" d="M191.9,160.2c0-2.53,3.1-4.36,3.1-8.81,0-11.14-18.06-20.17-40.34-20.17s-40.34,9-40.34,20.17c0,4.84,2.15,6.41,2.15,8.81,0,5.58-15.59,12.52-15.59,24.81,0,18.57,24.08,33.61,53.79,33.61s53.79-15,53.79-33.61C208.45,172.46,191.9,165.39,191.9,160.2Z" transform="translate(0)"/><polyline class="e" points="298.38 241.76 80.79 241.76 80.79 98.14"/><ellipse class="c" cx="259.51" cy="176.13" rx="30.61" ry="16.16"/><path class="d" d="M283.09,182.52c0-1.6,2-2.76,2-5.57,0-7-11.42-12.75-25.51-12.75S234,169.91,234,176.95c0,3.06,1.36,4.06,1.36,5.57,0,3.53-9.86,7.92-9.86,15.69,0,11.75,15.23,21.26,34,21.26s34-9.52,34-21.26C293.55,190.27,283.09,185.8,283.09,182.52Z" transform="translate(0)"/><circle class="c" cx="255.28" cy="155.6" r="4.25"/><circle class="c" cx="263.78" cy="155.6" r="4.25"/><path class="b" d="M61.79,131.3c-3.13,4.06-7,6.79-13,6.79-8.58,0-14.62-5.51-16.82-13.75H28.84a2.48,2.48,0,0,1-2.49-2.49,2.51,2.51,0,0,1,2.49-2.49h2.26c-0.06-.7-0.06-1.45-0.06-2.2a20.48,20.48,0,0,1,.12-2.67H28.84a2.47,2.47,0,1,1,0-4.93h3.25c2.26-7.83,8.24-13.46,16.47-13.46A15.74,15.74,0,0,1,61.44,102a3.46,3.46,0,0,1,.93,2.38,3.42,3.42,0,0,1-3.42,3.36,3.11,3.11,0,0,1-2.49-1.16c-2.2-2.67-4.47-4.12-8.06-4.12-4.18,0-7.31,2.73-8.93,7.08H49.78a2.47,2.47,0,0,1,0,4.93H38.36a18.41,18.41,0,0,0-.12,2.55c0,0.81,0,1.57.06,2.32H49.78a2.5,2.5,0,0,1,2.44,2.49,2.46,2.46,0,0,1-2.44,2.49H39.34c1.62,4.64,4.93,7.37,9.51,7.37,3.48,0,5.74-1.68,7.95-4.41a3.12,3.12,0,0,1,2.49-1.16,3.17,3.17,0,0,1,3.19,3.13A3.25,3.25,0,0,1,61.79,131.3Z" transform="translate(0)"/><polygon class="b" points="255.12 54.54 272.02 77.8 243.71 82.79 255.12 54.54"/><path class="f" d="M151.66,70.24c14.64-5.38,26.81-10.86,50.84-11h0.7c24.27,0.1,36.49,5.61,51.2,11" transform="translate(0)"/><polygon class="b" points="150.95 54.54 134.05 77.8 162.36 82.79 150.95 54.54"/><path class="b" d="M171.29,298a3.69,3.69,0,0,1-1.39-2.83,3.5,3.5,0,0,1,3.5-3.55,3.35,3.35,0,0,1,2.21.77,7.09,7.09,0,0,0,4.46,1.68c2.88,0,4.61-1.68,4.61-5.57V270.3a3.7,3.7,0,1,1,7.39,0v18.58c0,4-1.15,7-3.17,9s-5.09,3.12-8.74,3.12A14.22,14.22,0,0,1,171.29,298Z" transform="translate(0)"/><path class="b" d="M197.26,295.75L209,269.3a4.57,4.57,0,0,1,4.32-2.93h0.43A4.51,4.51,0,0,1,218,269.3l11.71,26.45a3.61,3.61,0,0,1,.38,1.49,3.5,3.5,0,0,1-3.5,3.55,3.76,3.76,0,0,1-3.55-2.54L220.78,293H206l-2.35,5.52a3.63,3.63,0,0,1-3.41,2.3,3.4,3.4,0,0,1-3.41-3.46A3.92,3.92,0,0,1,197.26,295.75ZM218,286.43l-4.66-11.09-4.66,11.09H218Z" transform="translate(0)"/><path class="b" d="M233.78,295.75L245.5,269.3a4.57,4.57,0,0,1,4.32-2.93h0.43a4.51,4.51,0,0,1,4.27,2.93l11.71,26.45a3.61,3.61,0,0,1,.38,1.49,3.5,3.5,0,0,1-3.5,3.55,3.76,3.76,0,0,1-3.55-2.54L257.31,293H242.52l-2.35,5.52a3.63,3.63,0,0,1-3.41,2.3,3.4,3.4,0,0,1-3.41-3.46A3.92,3.92,0,0,1,233.78,295.75Zm20.79-9.31-4.66-11.09-4.66,11.09h9.31Z" transform="translate(0)"/><path class="b" d="M272.42,270.59a3.67,3.67,0,0,1,3.7-3.7h11.67c4.27,0,7.58,1.2,9.79,3.41a10.55,10.55,0,0,1,2.88,7.68v0.1c0,5.28-2.64,8.54-6.72,10.23l5.14,6.24a4.31,4.31,0,0,1,1.2,2.83,3.44,3.44,0,0,1-3.5,3.41,4.42,4.42,0,0,1-3.65-1.92l-7.2-9.12h-5.9v7.34a3.7,3.7,0,0,1-7.39,0v-26.5Zm14.88,12.63c3.6,0,5.66-1.92,5.66-4.75v-0.1c0-3.17-2.21-4.8-5.81-4.8h-7.34v9.65h7.49Z" transform="translate(0)"/></svg>