<svg xmlns="http://www.w3.org/2000/svg" width="120mm" height="120mm" viewBox="0 0 340.16 340.16"><defs><style>.a{fill:#fff;}.b{fill:#0286a8;}</style></defs><title>indexatie</title><rect class="a" x="7.09" y="7.09" width="325.98" height="325.98" rx="35.43" ry="35.43"/><path class="b" d="M297.64,14.17A28.38,28.38,0,0,1,326,42.52V297.64A28.38,28.38,0,0,1,297.64,326H42.52a28.38,28.38,0,0,1-28.35-28.35V42.52A28.38,28.38,0,0,1,42.52,14.17H297.64m0-14.17H42.52A42.64,42.64,0,0,0,0,42.52V297.64a42.64,42.64,0,0,0,42.52,42.52H297.64a42.64,42.64,0,0,0,42.52-42.52V42.52A42.64,42.64,0,0,0,297.64,0h0Z" transform="translate(0 0)"/><path class="b" d="M237.18,198H122a7,7,0,0,1-6.57-4.59L83.88,107.19a7,7,0,0,1,6.57-9.41H267.7a7,7,0,0,1,6.6,9.33l-30.52,86.27A7,7,0,0,1,237.18,198ZM126.92,184H232.23l25.57-72.27H100.47Z" transform="translate(0 0)"/><path class="b" d="M111.72,250.85a23,23,0,0,1-22.93-22.93c0-11,10-22,25.18-38.61l2.77-3a7,7,0,1,1,10.37,9.41l-2.78,3.06c-11.07,12.16-21.53,23.66-21.53,29.19a8.94,8.94,0,0,0,8.93,8.93A7,7,0,0,1,111.72,250.85Z" transform="translate(0 0)"/><path class="b" d="M255.38,138.16H100.21a4,4,0,0,1,0-8H255.38A4,4,0,0,1,255.38,138.16Z" transform="translate(0 0)"/><path class="b" d="M243.07,165.22H110a4,4,0,0,1,0-8H243.07A4,4,0,0,1,243.07,165.22Z" transform="translate(0 0)"/><path class="b" d="M246.87,250.85H111.72a7,7,0,0,1,0-14H246.87A7,7,0,0,1,246.87,250.85Z" transform="translate(0 0)"/><path class="b" d="M116.49,279a14.95,14.95,0,1,1,14.94-14.95A15,15,0,0,1,116.49,279Zm0-21.89a6.95,6.95,0,1,0,6.94,6.95A7,7,0,0,0,116.49,257.12Z" transform="translate(0 0)"/><path class="b" d="M227.83,279a14.95,14.95,0,1,1,14.95-14.95A15,15,0,0,1,227.83,279Zm0-21.89a6.95,6.95,0,1,0,6.95,6.95A7,7,0,0,0,227.83,257.12Z" transform="translate(0 0)"/><path class="b" d="M83.84,107.18L79.36,94.91a6.21,6.21,0,0,0-.74-1.62,22.66,22.66,0,0,0-5.19-1.45L46.1,86A7,7,0,1,1,49,72.3l27.33,5.85c8,1.7,13,3.36,16.15,12L97,102.38Z" transform="translate(0 0)"/><path class="b" d="M228.33,189.07a4,4,0,0,1-4-4V104.78a4,4,0,1,1,8,0v80.29A4,4,0,0,1,228.33,189.07Z" transform="translate(0 0)"/><path class="b" d="M204,190.54a4,4,0,0,1-4-4V104.78a4,4,0,1,1,8,0v81.76A4,4,0,0,1,204,190.54Z" transform="translate(0 0)"/><path class="b" d="M179.58,192a4,4,0,0,1-4-4V104.78a4,4,0,1,1,8,0V188A4,4,0,0,1,179.58,192Z" transform="translate(0 0)"/><path class="b" d="M155.18,193.49a4,4,0,0,1-4-4V104.78a4,4,0,1,1,8,0v84.71A4,4,0,0,1,155.18,193.49Z" transform="translate(0 0)"/><path class="b" d="M130.84,195.24a4,4,0,0,1-4-4V105.05a4,4,0,1,1,8,0v86.19A4,4,0,0,1,130.84,195.24Z" transform="translate(0 0)"/></svg>