<svg xmlns="http://www.w3.org/2000/svg" width="120mm" height="120mm" viewBox="0 0 340.16 340.16"><defs><style>.a{fill:#fff;}.b{fill:#0086a8;}</style></defs><title>keuze</title><rect class="a" x="7.09" y="7.09" width="325.98" height="325.98" rx="35.43" ry="35.43"/><path class="b" d="M297.43,14.17a28.38,28.38,0,0,1,28.35,28.35V297.64A28.38,28.38,0,0,1,297.43,326H42.32A28.38,28.38,0,0,1,14,297.64V42.52A28.38,28.38,0,0,1,42.32,14.17H297.43m0-14.17H42.32A42.64,42.64,0,0,0-.2,42.52V297.64a42.64,42.64,0,0,0,42.52,42.52H297.43A42.64,42.64,0,0,0,340,297.64V42.52A42.64,42.64,0,0,0,297.43,0h0Z" transform="translate(0.2)"/><path class="b" d="M169.78,300a12.25,12.25,0,0,1-12.25-12.25V225.68c0-55.54,12.82-70.05,26.38-85.42,21.52-24.38,66.39-31.85,68.29-32.16a12.25,12.25,0,0,1,3.9,24.19c-10.56,1.73-40.8,9.44-53.83,24.19C190.53,169.79,182,179.41,182,225.68v62.11A12.25,12.25,0,0,1,169.78,300Z" transform="translate(0.2)"/><polygon class="b" points="247.35 90.98 301.55 110.18 260.55 150.48 247.35 90.98"/><polygon class="b" points="139.54 88.22 170.01 39.46 200.48 88.22 139.54 88.22"/><path class="b" d="M169.81,300.24A12.25,12.25,0,0,1,157.56,288V88.22a12.25,12.25,0,1,1,24.5,0V288A12.25,12.25,0,0,1,169.81,300.24Z" transform="translate(0.2)"/><path class="b" d="M169.82,300.07a12.25,12.25,0,0,1-12.25-12.25V225.71c0-15.43-1-27.63-3-37.3-3.43-16.28-9.21-22.83-17.22-31.91C124.29,141.75,94,134,83.48,132.32a12.25,12.25,0,0,1,3.91-24.19c1.9,0.31,46.76,7.78,68.29,32.16,8.89,10.06,18.07,20.47,22.83,43.08,2.39,11.34,3.55,25.2,3.55,42.34v62.11A12.25,12.25,0,0,1,169.82,300.07Z" transform="translate(0.2)"/><polygon class="b" points="92.66 91.02 38.46 110.21 79.46 150.51 92.66 91.02"/></svg>