<svg xmlns="http://www.w3.org/2000/svg" width="120mm" height="120mm" viewBox="0 0 340.16 340.16"><defs><style>.a{fill:#fff;}.b{fill:#0286a8;}.c,.d,.e{fill:none;stroke:#0286a8;stroke-miterlimit:10;}.c{stroke-linecap:round;}.c,.e{stroke-width:8px;}.d{stroke-width:14px;}</style></defs><title>kosten</title><rect class="a" x="7.09" y="7.09" width="325.98" height="325.98" rx="35.43" ry="35.43"/><path class="b" d="M297.64,14.17A28.38,28.38,0,0,1,326,42.52V297.64A28.38,28.38,0,0,1,297.64,326H42.52a28.38,28.38,0,0,1-28.35-28.35V42.52A28.38,28.38,0,0,1,42.52,14.17H297.64m0-14.17H42.52A42.64,42.64,0,0,0,0,42.52V297.64a42.64,42.64,0,0,0,42.52,42.52H297.64a42.64,42.64,0,0,0,42.52-42.52V42.52A42.64,42.64,0,0,0,297.64,0h0Z" transform="translate(0)"/><path class="b" d="M183.32,233.36c-9.14,2.93-18,3-27.24-3.33-13.24-9.12-16.69-24-11.34-39.06l-4.83-3.33a4.64,4.64,0,0,1-1.2-6.49,4.7,4.7,0,0,1,6.49-1.2l3.49,2.4c0.65-1.13,1.45-2.3,2.25-3.46a38.51,38.51,0,0,1,3-4l-3.58-2.46a4.62,4.62,0,1,1,5.23-7.6l5,3.45c11.8-9.67,27-12,39.69-3.26,9.48,6.53,12.62,14.23,13.57,22.8a6.48,6.48,0,0,1-1.09,4.65,6.4,6.4,0,0,1-8.85,1.55,5.82,5.82,0,0,1-2.61-4.44c-0.57-6.45-2.51-11.09-8.06-14.91-6.44-4.43-14.16-3.56-21.29,1.43l15.92,11a4.62,4.62,0,0,1-5.23,7.6L165,182.54a34.34,34.34,0,0,0-2.89,3.81c-0.86,1.25-1.66,2.42-2.37,3.64l17.71,12.19a4.69,4.69,0,0,1,1.11,6.43,4.61,4.61,0,0,1-6.41,1.26l-16.1-11.09c-2.42,8.88-.22,16.59,6.85,21.46,5.37,3.7,10.64,3.5,16.93,1.64a5.83,5.83,0,0,1,5.08.86,5.93,5.93,0,0,1,1.59,8.22A6.08,6.08,0,0,1,183.32,233.36Z" transform="translate(0)"/><path class="c" d="M110.11,149.81S61.58,109.59,76.29,90.33C89,73.73,115.71,84.18,127,68.13c10.06-14.24-9.28-29.71-9.28-29.71" transform="translate(0)"/><path class="d" d="M140.37,102.08a15,15,0,0,1,9.47,2.35l125.42,91.16a5.28,5.28,0,0,1,1.16,7.35l-63.81,87.79a5.28,5.28,0,0,1-7.35,1.16L79.85,200.74a16.54,16.54,0,0,1-5.47-8.22l-7.08-29.81a12.76,12.76,0,0,1,1.95-9.33l31.52-41.92a14.66,14.66,0,0,1,8.37-4.95Z" transform="translate(0)"/><path class="e" d="M121.24,158a12.69,12.69,0,0,1-17.72,2.81h0a12.69,12.69,0,0,1-2.8-17.72h0a12.69,12.69,0,0,1,17.72-2.81h0a12.69,12.69,0,0,1,2.8,17.72h0Z" transform="translate(0)"/></svg>