<svg xmlns="http://www.w3.org/2000/svg" width="120mm" height="120mm" viewBox="0 0 340.16 340.16"><defs><style>.a{fill:#fff;}.b{fill:#0286a8;}</style></defs><title>middelloon</title><rect class="a" x="7.09" y="7.09" width="325.98" height="325.98" rx="35.43" ry="35.43"/><path class="b" d="M297.64,14.17A28.38,28.38,0,0,1,326,42.52V297.64A28.38,28.38,0,0,1,297.64,326H42.52a28.38,28.38,0,0,1-28.35-28.35V42.52A28.38,28.38,0,0,1,42.52,14.17H297.64m0-14.17H42.52A42.64,42.64,0,0,0,0,42.52V297.64a42.64,42.64,0,0,0,42.52,42.52H297.64a42.64,42.64,0,0,0,42.52-42.52V42.52A42.64,42.64,0,0,0,297.64,0h0Z" transform="translate(0 0)"/><path class="b" d="M34,110.51a5.35,5.35,0,0,1,5.39-5.39h1.19a5.54,5.54,0,0,1,4.9,2.8l13,21.21,13.09-21.28a5.28,5.28,0,0,1,4.83-2.73h1.19A5.35,5.35,0,0,1,83,110.51v38.92a5.36,5.36,0,1,1-10.71,0V125l-9.45,14.56a5,5,0,0,1-9,0l-9.31-14.35v24.36a5.26,5.26,0,0,1-5.32,5.25A5.2,5.2,0,0,1,34,149.57V110.51Z" transform="translate(0 0)"/><path class="b" d="M95.22,110.37a5.39,5.39,0,1,1,10.78,0v39.06a5.39,5.39,0,1,1-10.78,0V110.37Z" transform="translate(0 0)"/><path class="b" d="M118.24,110.79a5.35,5.35,0,0,1,5.39-5.39h13.72c15.4,0,26,10.57,26,24.36v0.14c0,13.79-10.64,24.5-26,24.5H123.64a5.35,5.35,0,0,1-5.39-5.39V110.79Zm19.11,33.88c8.82,0,14.77-6,14.77-14.63V129.9c0-8.68-6-14.77-14.77-14.77H129v29.54h8.33Z" transform="translate(0 0)"/><path class="b" d="M173,110.79a5.35,5.35,0,0,1,5.39-5.39H192.1c15.4,0,26,10.57,26,24.36v0.14c0,13.79-10.64,24.5-26,24.5H178.38A5.35,5.35,0,0,1,173,149V110.79Zm19.11,33.88c8.82,0,14.77-6,14.77-14.63V129.9c0-8.68-6-14.77-14.77-14.77h-8.33v29.54h8.33Z" transform="translate(0 0)"/><path class="b" d="M227.73,149V110.79a5.35,5.35,0,0,1,5.39-5.39h27.16a4.84,4.84,0,0,1,4.83,4.83,4.78,4.78,0,0,1-4.83,4.76H238.44v9.94h18.69a4.84,4.84,0,0,1,4.83,4.83,4.78,4.78,0,0,1-4.83,4.76H238.44v10.29h22.19a4.84,4.84,0,0,1,4.83,4.83,4.78,4.78,0,0,1-4.83,4.76H233.12A5.35,5.35,0,0,1,227.73,149Z" transform="translate(0 0)"/><path class="b" d="M274.62,110.37a5.39,5.39,0,1,1,10.78,0V144.6h20a4.9,4.9,0,0,1,0,9.8H280a5.35,5.35,0,0,1-5.39-5.39V110.37Z" transform="translate(0 0)"/><path class="b" d="M68.55,190.37a5.39,5.39,0,1,1,10.78,0V224.6h20a4.9,4.9,0,0,1,0,9.8H73.94A5.35,5.35,0,0,1,68.55,229V190.37Z" transform="translate(0 0)"/><path class="b" d="M106.9,210V209.9c0-13.93,11-25.34,26.11-25.34s26,11.27,26,25.2v0.14c0,13.93-11,25.34-26.11,25.34S106.9,224,106.9,210Zm40.81,0V209.9c0-8.4-6.16-15.4-14.84-15.4s-14.7,6.86-14.7,15.26v0.14c0,8.4,6.16,15.4,14.84,15.4S147.72,218.44,147.72,210Z" transform="translate(0 0)"/><path class="b" d="M166.4,210V209.9c0-13.93,11-25.34,26.11-25.34s26,11.27,26,25.2v0.14c0,13.93-11,25.34-26.11,25.34S166.4,224,166.4,210Zm40.81,0V209.9c0-8.4-6.16-15.4-14.84-15.4s-14.7,6.86-14.7,15.26v0.14c0,8.4,6.16,15.4,14.84,15.4S207.22,218.44,207.22,210Z" transform="translate(0 0)"/><path class="b" d="M228.07,190.51a5.35,5.35,0,0,1,5.39-5.39h1.12c2.59,0,4.13,1.26,5.6,3.15L261,215.57V190.3a5.32,5.32,0,1,1,10.64,0v39a5.35,5.35,0,0,1-5.39,5.39h-0.35c-2.59,0-4.13-1.26-5.6-3.15l-21.56-28.28V229.5a5.32,5.32,0,0,1-10.64,0v-39Z" transform="translate(0 0)"/></svg>