<svg xmlns="http://www.w3.org/2000/svg" width="120mm" height="120mm" viewBox="0 0 340.16 340.16"><defs><style>.a{fill:#fff;}.b{fill:#0286a8;}.c,.e{fill:#224185;}.d,.f{fill:#c82034;}.e,.f{fill-rule:evenodd;}</style></defs><title>mijnpensioenoverzicht</title><rect class="a" x="7.09" y="7.09" width="325.98" height="325.98" rx="35.43" ry="35.43"/><path class="b" d="M297.64,14.17A28.38,28.38,0,0,1,326,42.52V297.64A28.38,28.38,0,0,1,297.64,326H42.52a28.38,28.38,0,0,1-28.35-28.35V42.52A28.38,28.38,0,0,1,42.52,14.17H297.64m0-14.17H42.52A42.64,42.64,0,0,0,0,42.52V297.64a42.64,42.64,0,0,0,42.52,42.52H297.64a42.64,42.64,0,0,0,42.52-42.52V42.52A42.64,42.64,0,0,0,297.64,0h0Z" transform="translate(0 0)"/><circle class="c" cx="264.88" cy="261.6" r="34.7"/><circle class="d" cx="118.36" cy="261.6" r="34.69"/><polygon class="e" points="245.65 210.55 285.35 210.55 301.13 48.39 228.63 48.39 245.65 210.55"/><path class="f" d="M38.23,117.24H93.32s4-23.1,21.57-19.48,26.74,17.05,9.28,39.35-33.47,34-35.63,50.19-0.63,24-.63,24h53.44a44.48,44.48,0,0,1,6-12.65c4.32-6.24,28.23-38,28.23-38s34.51-37.12,1.59-87.81S42.9,40.18,39.55,95.52Z" transform="translate(0 0)"/></svg>