<svg xmlns="http://www.w3.org/2000/svg" width="120mm" height="120mm" viewBox="0 0 340.16 340.16"><defs><style>.a{fill:#fff;}.b{fill:#0286a8;}.c{fill:#81c3d4;}.d{fill:#00577e;}</style></defs><title>nettopensioen</title><rect class="a" x="7.09" y="7.09" width="325.98" height="325.98" rx="35.43" ry="35.43"/><path class="b" d="M297.64,14.17A28.38,28.38,0,0,1,326,42.52V297.64A28.38,28.38,0,0,1,297.64,326H42.52a28.38,28.38,0,0,1-28.35-28.35V42.52A28.38,28.38,0,0,1,42.52,14.17H297.64m0-14.17H42.52A42.64,42.64,0,0,0,0,42.52V297.64a42.64,42.64,0,0,0,42.52,42.52H297.64a42.64,42.64,0,0,0,42.52-42.52V42.52A42.64,42.64,0,0,0,297.64,0h0Z" transform="translate(0)"/><ellipse class="c" cx="168.73" cy="115.31" rx="86.74" ry="45.78"/><path class="d" d="M235.53,133.43c0-4.53,5.55-7.81,5.55-15.79,0-20-32.36-36.14-72.28-36.14S96.51,97.68,96.51,117.64c0,8.68,3.85,11.49,3.85,15.79,0,10-27.94,22.44-27.94,44.45,0,33.27,43.15,60.24,96.38,60.24s96.38-27,96.38-60.24C265.17,155.39,235.53,142.74,235.53,133.43Z" transform="translate(0)"/><circle class="c" cx="156.75" cy="57.15" r="12.05"/><circle class="c" cx="180.84" cy="57.15" r="12.05"/><path class="b" d="M69.54,295.2A14.32,14.32,0,0,1,57.73,301c-8.11,0-13.62-4.87-15.74-12.13H39.55a2.67,2.67,0,0,1-2.7-2.65,2.71,2.71,0,0,1,2.7-2.7h1.59a16.39,16.39,0,0,1-.05-1.64c0-.64,0-1.33.05-2H39.55a2.67,2.67,0,0,1-2.7-2.65,2.71,2.71,0,0,1,2.7-2.7h2.6c2.17-7,7.58-11.92,15.42-11.92a14.56,14.56,0,0,1,11.55,4.88,4,4,0,0,1,1.11,2.75,3.89,3.89,0,0,1-3.92,3.82,3.69,3.69,0,0,1-2.81-1.22,7.66,7.66,0,0,0-6.09-3c-3.13,0-5.41,1.75-6.73,4.66H58a2.71,2.71,0,0,1,2.7,2.7,2.67,2.67,0,0,1-2.7,2.65H49.41c-0.05.58-.05,1.22-0.05,1.85s0,1.22.05,1.75H58a2.71,2.71,0,0,1,2.7,2.7,2.67,2.67,0,0,1-2.7,2.65H50.57a7.37,7.37,0,0,0,7.15,4.88c2.65,0,4.35-1.11,6.2-3.23a3.51,3.51,0,0,1,2.76-1.27,3.66,3.66,0,0,1,3.66,3.66A4.06,4.06,0,0,1,69.54,295.2Z" transform="translate(0)"/><path class="b" d="M83.22,271l-2.86.74a6.7,6.7,0,0,1-1.43.21,3.57,3.57,0,0,1-3.55-3.5,3.61,3.61,0,0,1,2.7-3.5l5.25-1.54a14.59,14.59,0,0,1,3.82-.69h0.11a4,4,0,0,1,4,4v29.89a4,4,0,0,1-8.05,0V271Z" transform="translate(0)"/><path class="b" d="M98.59,281.9v-0.11c0-10.76,5.68-19.18,14.05-19.18s14,8.32,14,19.08v0.11c0,10.76-5.63,19.18-14.05,19.18S98.59,292.66,98.59,281.9Zm20.9,0v-0.11c0-6.73-2.79-11.82-6.94-11.82s-6.85,4.93-6.85,11.71v0.11c0,6.78,2.75,11.82,6.94,11.82S119.49,288.63,119.49,281.9Z" transform="translate(0)"/><path class="b" d="M131.47,281.9v-0.11c0-10.76,5.68-19.18,14.05-19.18s14,8.32,14,19.08v0.11c0,10.76-5.63,19.18-14.05,19.18S131.47,292.66,131.47,281.9Zm20.9,0v-0.11c0-6.73-2.79-11.82-6.94-11.82s-6.85,4.93-6.85,11.71v0.11c0,6.78,2.75,11.82,6.94,11.82S152.37,288.63,152.37,281.9Z" transform="translate(0)"/><path class="b" d="M167.47,291.54c2.25,0,3.92,2,3.92,4.5v0.11c0,2.54-1.67,4.5-3.92,4.5s-3.92-2-3.92-4.5V296C163.55,293.5,165.21,291.54,167.47,291.54Z" transform="translate(0)"/><path class="b" d="M175.44,281.9v-0.11c0-10.76,5.67-19.18,14.05-19.18s14,8.32,14,19.08v0.11c0,10.76-5.63,19.18-14.05,19.18S175.44,292.66,175.44,281.9Zm20.9,0v-0.11c0-6.73-2.79-11.82-6.94-11.82s-6.85,4.93-6.85,11.71v0.11c0,6.78,2.75,11.82,6.94,11.82S196.34,288.63,196.34,281.9Z" transform="translate(0)"/><path class="b" d="M208.33,281.9v-0.11c0-10.76,5.68-19.18,14.05-19.18s14,8.32,14,19.08v0.11c0,10.76-5.63,19.18-14.05,19.18S208.33,292.66,208.33,281.9Zm20.9,0v-0.11c0-6.73-2.79-11.82-6.94-11.82s-6.85,4.93-6.85,11.71v0.11c0,6.78,2.75,11.82,6.94,11.82S229.23,288.63,229.23,281.9Z" transform="translate(0)"/><path class="b" d="M241.21,281.9v-0.11c0-10.76,5.67-19.18,14.05-19.18s14,8.32,14,19.08v0.11c0,10.76-5.63,19.18-14.05,19.18S241.21,292.66,241.21,281.9Zm20.9,0v-0.11c0-6.73-2.79-11.82-6.94-11.82s-6.85,4.93-6.85,11.71v0.11c0,6.78,2.75,11.82,6.94,11.82S262.12,288.63,262.12,281.9Z" transform="translate(0)"/><path class="b" d="M284.86,285.34h-6.25a3.66,3.66,0,0,1,0-7.31h6.25v-6.09a3.76,3.76,0,1,1,7.53,0V278h6.25a3.66,3.66,0,0,1,0,7.31h-6.25v6.09a3.76,3.76,0,0,1-7.53,0v-6.09Z" transform="translate(0)"/></svg>