<svg xmlns="http://www.w3.org/2000/svg" width="120mm" height="120mm" viewBox="0 0 340.16 340.16"><defs><style>.a{fill:#fff;}.b{fill:#0086a8;}.c{fill:#80c2d3;}.d{fill:#00577e;}</style></defs><title>ouderdomspensioen</title><rect class="a" x="7.09" y="7.09" width="325.98" height="325.98" rx="35.43" ry="35.43"/><path class="b" d="M297.64,14.17A28.38,28.38,0,0,1,326,42.52V297.64A28.38,28.38,0,0,1,297.64,326H42.52a28.38,28.38,0,0,1-28.35-28.35V42.52A28.38,28.38,0,0,1,42.52,14.17H297.64m0-14.17H42.52A42.64,42.64,0,0,0,0,42.52V297.64a42.64,42.64,0,0,0,42.52,42.52H297.64a42.64,42.64,0,0,0,42.52-42.52V42.52A42.64,42.64,0,0,0,297.64,0h0Z" transform="translate(0)"/><ellipse class="c" cx="169.84" cy="136" rx="112.23" ry="59.23"/><circle class="c" cx="154.34" cy="60.75" r="15.59"/><circle class="c" cx="185.51" cy="60.75" r="15.59"/><path class="d" d="M256.27,159.45c0-5.86,7.18-10.11,7.18-20.43,0-25.83-41.87-46.77-93.52-46.77S76.4,113.2,76.4,139c0,11.23,5,14.87,5,20.43,0,12.95-36.15,29-36.15,57.51,0,43,55.83,77.94,124.7,77.94S294.63,260,294.63,217C294.63,187.87,256.27,171.49,256.27,159.45Z" transform="translate(0)"/></svg>