<svg xmlns="http://www.w3.org/2000/svg" xmlns:xlink="http://www.w3.org/1999/xlink" width="120mm" height="169.96mm" viewBox="0 0 340.16 481.77"><defs><style>.a,.d{fill:none;}.b{fill:#fff;}.c{fill:#0286a8;}.d{stroke:#00587e;stroke-width:8px;}.d,.g{stroke-linecap:round;stroke-miterlimit:10;}.e{fill:#00587e;}.f{clip-path:url(#a);}.g{fill:#258981;stroke:#fff;stroke-width:6px;}</style><clipPath id="a" transform="translate(0)"><path class="a" d="M32.51,311.82V215.74a15.86,15.86,0,0,1,15.86-15.86h11.1v0h66.6v0h11.1A15.86,15.86,0,0,1,153,215.74v96.08H129.23V231.6h0s0,0,0,0a1.58,1.58,0,1,0-3.17,0s0,0,0,0h0v80.22H59.46V231.6h0s0,0,0,0a1.59,1.59,0,1,0-3.17,0,0.23,0.23,0,0,0,0,0h0v80.22H32.51ZM92.77,196.67A31.72,31.72,0,1,0,61,164.95,31.72,31.72,0,0,0,92.77,196.67Z"/></clipPath></defs><title>partnerpensioen_op_risicobasis</title><rect class="b" x="7.09" y="7.09" width="325.98" height="325.98" rx="35.43" ry="35.43"/><path class="c" d="M297.64,14.17A28.38,28.38,0,0,1,326,42.52V297.64A28.38,28.38,0,0,1,297.64,326H42.52a28.38,28.38,0,0,1-28.35-28.35V42.52A28.38,28.38,0,0,1,42.52,14.17H297.64m0-14.17H42.52A42.64,42.64,0,0,0,0,42.52V297.64a42.64,42.64,0,0,0,42.52,42.52H297.64a42.64,42.64,0,0,0,42.52-42.52V42.52A42.64,42.64,0,0,0,297.64,0h0Z" transform="translate(0)"/><path class="d" d="M170.68,37.93V145.41s-0.59,12.67,10.9,13.23c13.67,0.67,12.25-14.56,12.25-14.56" transform="translate(0)"/><path class="e" d="M167.71,100.43a41.44,41.44,0,0,0-22,8.23c-6.55-9-16.3-14.64-27.19-14.64a31.09,31.09,0,0,0-10.17,1.72,62.53,62.53,0,0,1,59.39-57.87V37.79a3,3,0,1,1,5.95,0v0.07A62.54,62.54,0,0,1,233,95.73,31.16,31.16,0,0,0,222.87,94c-10.89,0-20.63,5.68-27.18,14.64a41.48,41.48,0,0,0-22-8.23" transform="translate(0)"/><path class="c" d="M245.67,196.67a31.72,31.72,0,1,0-31.73-31.72A31.72,31.72,0,0,0,245.67,196.67Z" transform="translate(0)"/><path class="c" d="M290.06,199.87H279v0h-66.6v0h-11.1a15.86,15.86,0,0,0-15.86,15.86v96.08h22.37V230a3,3,0,0,1,6,0v81.85h63.59V230a3,3,0,1,1,6,0v81.85h22.55V215.74A15.86,15.86,0,0,0,290.06,199.87Z" transform="translate(0)"/><g class="f"><path class="c" d="M114.43,137.94a3,3,0,0,0-3-3h-0.23a3,3,0,0,0,0,5.9h0.23A3,3,0,0,0,114.43,137.94Z" transform="translate(0)"/><path class="c" d="M105.13,137.94a3,3,0,0,0-3-3h-0.23a3,3,0,1,0,0,5.9h0.23A3,3,0,0,0,105.13,137.94Z" transform="translate(0)"/><path class="c" d="M95.82,137.94a3,3,0,0,0-3-3H92.64a3,3,0,1,0,0,5.9h0.23A3,3,0,0,0,95.82,137.94Z" transform="translate(0)"/><path class="c" d="M86.51,137.94a3,3,0,0,0-2.95-3H83.33a3,3,0,0,0,0,5.9h0.23A3,3,0,0,0,86.51,137.94Z" transform="translate(0)"/><path class="c" d="M77.2,137.94a3,3,0,0,0-3-3H74a3,3,0,1,0,0,5.9h0.23A3,3,0,0,0,77.2,137.94Z" transform="translate(0)"/><path class="c" d="M123.74,146.91a3,3,0,0,0-3-3h-0.23a3,3,0,0,0,0,5.9h0.23A3,3,0,0,0,123.74,146.91Z" transform="translate(0)"/><path class="c" d="M114.43,146.91a3,3,0,0,0-3-3h-0.23a3,3,0,0,0,0,5.9h0.23A3,3,0,0,0,114.43,146.91Z" transform="translate(0)"/><path class="c" d="M105.13,146.91a3,3,0,0,0-3-3h-0.23a3,3,0,1,0,0,5.9h0.23A3,3,0,0,0,105.13,146.91Z" transform="translate(0)"/><path class="c" d="M95.82,146.91a3,3,0,0,0-3-3H92.64a3,3,0,0,0,0,5.9h0.23A3,3,0,0,0,95.82,146.91Z" transform="translate(0)"/><path class="c" d="M86.51,146.91a3,3,0,0,0-3-3H83.33a3,3,0,0,0,0,5.9h0.23A3,3,0,0,0,86.51,146.91Z" transform="translate(0)"/><path class="c" d="M77.2,146.91a3,3,0,0,0-3-3H74a3,3,0,1,0,0,5.9h0.23A3,3,0,0,0,77.2,146.91Z" transform="translate(0)"/><path class="c" d="M67.89,146.91a3,3,0,0,0-3-3H64.71a3,3,0,1,0,0,5.9h0.23A3,3,0,0,0,67.89,146.91Z" transform="translate(0)"/><path class="c" d="M123.74,155.88a3,3,0,0,0-3-3h-0.23a3,3,0,0,0,0,5.9h0.23A3,3,0,0,0,123.74,155.88Z" transform="translate(0)"/><path class="c" d="M114.43,155.88a3,3,0,0,0-3-3h-0.23a3,3,0,0,0,0,5.9h0.23A3,3,0,0,0,114.43,155.88Z" transform="translate(0)"/><path class="c" d="M105.13,155.88a3,3,0,0,0-3-3h-0.23a3,3,0,1,0,0,5.9h0.23A3,3,0,0,0,105.13,155.88Z" transform="translate(0)"/><path class="c" d="M95.82,155.88a3,3,0,0,0-3-3H92.64a3,3,0,0,0,0,5.9h0.23A3,3,0,0,0,95.82,155.88Z" transform="translate(0)"/><path class="c" d="M86.51,155.88a3,3,0,0,0-3-3H83.33a3,3,0,0,0,0,5.9h0.23A3,3,0,0,0,86.51,155.88Z" transform="translate(0)"/><path class="c" d="M77.2,155.88a3,3,0,0,0-3-3H74a3,3,0,1,0,0,5.9h0.23A3,3,0,0,0,77.2,155.88Z" transform="translate(0)"/><path class="c" d="M67.89,155.88a3,3,0,0,0-3-3H64.71a3,3,0,0,0,0,5.9h0.23A3,3,0,0,0,67.89,155.88Z" transform="translate(0)"/><path class="c" d="M123.74,164.85a3,3,0,0,0-3-3h-0.23a3,3,0,0,0,0,5.9h0.23A3,3,0,0,0,123.74,164.85Z" transform="translate(0)"/><path class="c" d="M114.43,164.85a3,3,0,0,0-3-3h-0.23a3,3,0,0,0,0,5.9h0.23A3,3,0,0,0,114.43,164.85Z" transform="translate(0)"/><path class="c" d="M105.13,164.85a3,3,0,0,0-3-3h-0.23a3,3,0,1,0,0,5.9h0.23A3,3,0,0,0,105.13,164.85Z" transform="translate(0)"/><path class="c" d="M95.82,164.85a3,3,0,0,0-3-3H92.64a3,3,0,1,0,0,5.9h0.23A3,3,0,0,0,95.82,164.85Z" transform="translate(0)"/><path class="c" d="M86.51,164.85a3,3,0,0,0-2.95-3H83.33a3,3,0,0,0,0,5.9h0.23A3,3,0,0,0,86.51,164.85Z" transform="translate(0)"/><path class="c" d="M77.2,164.85a3,3,0,0,0-3-3H74a3,3,0,1,0,0,5.9h0.23A3,3,0,0,0,77.2,164.85Z" transform="translate(0)"/><path class="c" d="M67.89,164.85a3,3,0,0,0-3-3H64.71a3,3,0,1,0,0,5.9h0.22A3,3,0,0,0,67.89,164.85Z" transform="translate(0)"/><path class="c" d="M123.74,173.82a3,3,0,0,0-3-3h-0.23a3,3,0,0,0,0,5.9h0.23A3,3,0,0,0,123.74,173.82Z" transform="translate(0)"/><path class="c" d="M114.43,173.82a3,3,0,0,0-3-3h-0.23a3,3,0,0,0,0,5.9h0.23A3,3,0,0,0,114.43,173.82Z" transform="translate(0)"/><path class="c" d="M105.13,173.82a3,3,0,0,0-3-3h-0.23a3,3,0,1,0,0,5.9h0.23A3,3,0,0,0,105.13,173.82Z" transform="translate(0)"/><path class="c" d="M95.82,173.82a3,3,0,0,0-3-3H92.64a3,3,0,0,0,0,5.9h0.23A3,3,0,0,0,95.82,173.82Z" transform="translate(0)"/><path class="c" d="M86.51,173.82a3,3,0,0,0-3-3H83.33a3,3,0,0,0,0,5.9h0.23A3,3,0,0,0,86.51,173.82Z" transform="translate(0)"/><path class="c" d="M77.2,173.82a3,3,0,0,0-3-3H74a3,3,0,1,0,0,5.9h0.23A3,3,0,0,0,77.2,173.82Z" transform="translate(0)"/><path class="c" d="M67.89,173.82a3,3,0,0,0-3-3H64.71a3,3,0,0,0,0,5.9h0.23A3,3,0,0,0,67.89,173.82Z" transform="translate(0)"/><path class="c" d="M123.74,182.79a3,3,0,0,0-3-3h-0.23a3,3,0,1,0,0,5.9h0.23A3,3,0,0,0,123.74,182.79Z" transform="translate(0)"/><path class="c" d="M114.43,182.79a3,3,0,0,0-3-3h-0.23a3,3,0,0,0,0,5.9h0.23A3,3,0,0,0,114.43,182.79Z" transform="translate(0)"/><path class="c" d="M105.13,182.79a3,3,0,0,0-3-3h-0.23a3,3,0,1,0,0,5.9h0.23A3,3,0,0,0,105.13,182.79Z" transform="translate(0)"/><path class="c" d="M95.82,182.79a3,3,0,0,0-3-3H92.64a3,3,0,0,0,0,5.9h0.23A3,3,0,0,0,95.82,182.79Z" transform="translate(0)"/><path class="c" d="M86.51,182.79a3,3,0,0,0-3-3H83.33a3,3,0,0,0,0,5.9h0.23A3,3,0,0,0,86.51,182.79Z" transform="translate(0)"/><path class="c" d="M77.2,182.79a3,3,0,0,0-3-3H74a3,3,0,1,0,0,5.9h0.23A3,3,0,0,0,77.2,182.79Z" transform="translate(0)"/><path class="c" d="M67.89,182.79a3,3,0,0,0-3-3H64.71a3,3,0,1,0,0,5.9h0.23A3,3,0,0,0,67.89,182.79Z" transform="translate(0)"/><path class="c" d="M114.43,191.76a3,3,0,0,0-3-3h-0.23a3,3,0,0,0,0,5.9h0.23A3,3,0,0,0,114.43,191.76Z" transform="translate(0)"/><path class="c" d="M105.13,191.76a3,3,0,0,0-3-3h-0.23a3,3,0,1,0,0,5.9h0.23A3,3,0,0,0,105.13,191.76Z" transform="translate(0)"/><path class="c" d="M95.82,191.76a3,3,0,0,0-3-3H92.64a3,3,0,1,0,0,5.9h0.23A3,3,0,0,0,95.82,191.76Z" transform="translate(0)"/><path class="c" d="M86.51,191.76a3,3,0,0,0-2.95-3H83.33a3,3,0,0,0,0,5.9h0.23A3,3,0,0,0,86.51,191.76Z" transform="translate(0)"/><path class="c" d="M77.2,191.76a3,3,0,0,0-3-3H74a3,3,0,0,0,0,5.9h0.23A3,3,0,0,0,77.2,191.76Z" transform="translate(0)"/><path class="c" d="M142.36,200.73a3,3,0,0,0-3-3h-0.23a3,3,0,1,0,0,5.9h0.23A3,3,0,0,0,142.36,200.73Z" transform="translate(0)"/><path class="c" d="M133,200.73a3,3,0,0,0-3-3h-0.23a3,3,0,1,0,0,5.9h0.23A3,3,0,0,0,133,200.73Z" transform="translate(0)"/><path class="c" d="M123.74,200.73a3,3,0,0,0-3-3h-0.23a3,3,0,1,0,0,5.9h0.23A3,3,0,0,0,123.74,200.73Z" transform="translate(0)"/><path class="c" d="M114.43,200.73a3,3,0,0,0-3-3h-0.23a3,3,0,0,0,0,5.9h0.23A3,3,0,0,0,114.43,200.73Z" transform="translate(0)"/><path class="c" d="M105.13,200.73a3,3,0,0,0-3-3h-0.23a3,3,0,1,0,0,5.9h0.23A3,3,0,0,0,105.13,200.73Z" transform="translate(0)"/><path class="c" d="M95.82,200.73a3,3,0,0,0-3-3H92.64a3,3,0,1,0,0,5.9h0.23A3,3,0,0,0,95.82,200.73Z" transform="translate(0)"/><path class="c" d="M86.51,200.73a3,3,0,0,0-3-3H83.33a3,3,0,1,0,0,5.9h0.23A3,3,0,0,0,86.51,200.73Z" transform="translate(0)"/><path class="c" d="M77.2,200.73a3,3,0,0,0-3-3H74a3,3,0,1,0,0,5.9h0.23A3,3,0,0,0,77.2,200.73Z" transform="translate(0)"/><path class="c" d="M67.89,200.73a3,3,0,0,0-3-3H64.71a3,3,0,1,0,0,5.9h0.23A3,3,0,0,0,67.89,200.73Z" transform="translate(0)"/><path class="c" d="M58.58,200.73a3,3,0,0,0-3-3H55.4a3,3,0,1,0,0,5.9h0.23A3,3,0,0,0,58.58,200.73Z" transform="translate(0)"/><path class="c" d="M49.28,200.73a3,3,0,0,0-3-3H46.1a3,3,0,1,0,0,5.9h0.23A3,3,0,0,0,49.28,200.73Z" transform="translate(0)"/><path class="c" d="M151.67,209.7a3,3,0,0,0-3-2.95h-0.23a3,3,0,0,0,0,5.9h0.23A3,3,0,0,0,151.67,209.7Z" transform="translate(0)"/><path class="c" d="M142.36,209.7a3,3,0,0,0-3-2.95h-0.23a3,3,0,1,0,0,5.9h0.23A3,3,0,0,0,142.36,209.7Z" transform="translate(0)"/><path class="c" d="M133,209.7a3,3,0,0,0-3-2.95h-0.23a3,3,0,1,0,0,5.9h0.23A3,3,0,0,0,133,209.7Z" transform="translate(0)"/><path class="c" d="M123.74,209.7a3,3,0,0,0-3-2.95h-0.23a3,3,0,1,0,0,5.9h0.23A3,3,0,0,0,123.74,209.7Z" transform="translate(0)"/><path class="c" d="M114.43,209.7a3,3,0,0,0-3-2.95h-0.23a3,3,0,0,0,0,5.9h0.23A3,3,0,0,0,114.43,209.7Z" transform="translate(0)"/><path class="c" d="M105.13,209.7a3,3,0,0,0-3-2.95h-0.23a3,3,0,1,0,0,5.9h0.23A3,3,0,0,0,105.13,209.7Z" transform="translate(0)"/><path class="c" d="M95.82,209.7a3,3,0,0,0-3-2.95H92.64a3,3,0,1,0,0,5.9h0.23A3,3,0,0,0,95.82,209.7Z" transform="translate(0)"/><path class="c" d="M86.51,209.7a3,3,0,0,0-3-2.95H83.33a3,3,0,1,0,0,5.9h0.23A3,3,0,0,0,86.51,209.7Z" transform="translate(0)"/><path class="c" d="M77.2,209.7a3,3,0,0,0-3-2.95H74a3,3,0,1,0,0,5.9h0.23A3,3,0,0,0,77.2,209.7Z" transform="translate(0)"/><path class="c" d="M67.89,209.7a3,3,0,0,0-3-2.95H64.71a3,3,0,1,0,0,5.9h0.23A3,3,0,0,0,67.89,209.7Z" transform="translate(0)"/><path class="c" d="M58.58,209.7a3,3,0,0,0-3-2.95H55.4a3,3,0,1,0,0,5.9h0.23A3,3,0,0,0,58.58,209.7Z" transform="translate(0)"/><path class="c" d="M49.28,209.7a3,3,0,0,0-3-2.95H46.1a3,3,0,1,0,0,5.9h0.23A3,3,0,0,0,49.28,209.7Z" transform="translate(0)"/><path class="c" d="M40,209.7a3,3,0,0,0-3-2.95H36.79a3,3,0,1,0,0,5.9H37A3,3,0,0,0,40,209.7Z" transform="translate(0)"/><path class="c" d="M151.67,218.67a3,3,0,0,0-3-3h-0.23a3,3,0,0,0,0,5.9h0.23A3,3,0,0,0,151.67,218.67Z" transform="translate(0)"/><path class="c" d="M142.36,218.67a3,3,0,0,0-3-3h-0.23a3,3,0,0,0,0,5.9h0.23A3,3,0,0,0,142.36,218.67Z" transform="translate(0)"/><path class="c" d="M133.05,218.67a3,3,0,0,0-3-3h-0.23a3,3,0,1,0,0,5.9h0.23A3,3,0,0,0,133.05,218.67Z" transform="translate(0)"/><path class="c" d="M123.75,218.67a3,3,0,0,0-3-3h-0.23a3,3,0,1,0,0,5.9h0.23A3,3,0,0,0,123.75,218.67Z" transform="translate(0)"/><path class="c" d="M114.43,218.67a3,3,0,0,0-3-3h-0.23a3,3,0,0,0,0,5.9h0.23A3,3,0,0,0,114.43,218.67Z" transform="translate(0)"/><path class="c" d="M105.13,218.67a3,3,0,0,0-3-3h-0.23a3,3,0,1,0,0,5.9h0.23A3,3,0,0,0,105.13,218.67Z" transform="translate(0)"/><path class="c" d="M95.82,218.67a3,3,0,0,0-3-3H92.64a3,3,0,1,0,0,5.9h0.23A3,3,0,0,0,95.82,218.67Z" transform="translate(0)"/><path class="c" d="M86.51,218.67a3,3,0,0,0-3-3H83.33a3,3,0,0,0,0,5.9h0.23A3,3,0,0,0,86.51,218.67Z" transform="translate(0)"/><path class="c" d="M77.2,218.67a3,3,0,0,0-3-3H74a3,3,0,0,0,0,5.9h0.23A3,3,0,0,0,77.2,218.67Z" transform="translate(0)"/><path class="c" d="M67.89,218.67a3,3,0,0,0-3-3H64.71a3,3,0,1,0,0,5.9h0.23A3,3,0,0,0,67.89,218.67Z" transform="translate(0)"/><path class="c" d="M58.58,218.67a3,3,0,0,0-3-3H55.41a3,3,0,1,0,0,5.9h0.23A3,3,0,0,0,58.58,218.67Z" transform="translate(0)"/><path class="c" d="M49.28,218.67a3,3,0,0,0-3-3H46.1a3,3,0,0,0,0,5.9h0.23A3,3,0,0,0,49.28,218.67Z" transform="translate(0)"/><path class="c" d="M40,218.67a3,3,0,0,0-3-3H36.79a3,3,0,0,0,0,5.9H37A3,3,0,0,0,40,218.67Z" transform="translate(0)"/><path class="c" d="M151.67,227.64a3,3,0,0,0-3-3h-0.23a3,3,0,1,0,0,5.9h0.23A3,3,0,0,0,151.67,227.64Z" transform="translate(0)"/><path class="c" d="M142.36,227.64a3,3,0,0,0-3-3h-0.23a3,3,0,1,0,0,5.9h0.23A3,3,0,0,0,142.36,227.64Z" transform="translate(0)"/><path class="c" d="M133,227.64a3,3,0,0,0-3-3h-0.23a3,3,0,1,0,0,5.9h0.23A3,3,0,0,0,133,227.64Z" transform="translate(0)"/><path class="c" d="M123.74,227.64a3,3,0,0,0-3-3h-0.23a3,3,0,1,0,0,5.9h0.23A3,3,0,0,0,123.74,227.64Z" transform="translate(0)"/><path class="c" d="M114.43,227.64a3,3,0,0,0-3-3h-0.23a3,3,0,0,0,0,5.9h0.23A3,3,0,0,0,114.43,227.64Z" transform="translate(0)"/><path class="c" d="M105.13,227.64a3,3,0,0,0-3-3h-0.23a3,3,0,1,0,0,5.9h0.23A3,3,0,0,0,105.13,227.64Z" transform="translate(0)"/><path class="c" d="M95.82,227.64a3,3,0,0,0-3-3H92.64a3,3,0,1,0,0,5.9h0.23A3,3,0,0,0,95.82,227.64Z" transform="translate(0)"/><path class="c" d="M86.51,227.64a3,3,0,0,0-3-3H83.33a3,3,0,1,0,0,5.9h0.23A3,3,0,0,0,86.51,227.64Z" transform="translate(0)"/><path class="c" d="M77.2,227.64a3,3,0,0,0-3-3H74a3,3,0,1,0,0,5.9h0.23A3,3,0,0,0,77.2,227.64Z" transform="translate(0)"/><path class="c" d="M67.89,227.64a3,3,0,0,0-3-3H64.71a3,3,0,1,0,0,5.9h0.23A3,3,0,0,0,67.89,227.64Z" transform="translate(0)"/><path class="c" d="M58.58,227.64a3,3,0,0,0-3-3H55.4a3,3,0,1,0,0,5.9h0.23A3,3,0,0,0,58.58,227.64Z" transform="translate(0)"/><path class="c" d="M49.28,227.64a3,3,0,0,0-3-3H46.1a3,3,0,1,0,0,5.9h0.23A3,3,0,0,0,49.28,227.64Z" transform="translate(0)"/><path class="c" d="M40,227.64a3,3,0,0,0-3-3H36.79a3,3,0,1,0,0,5.9H37A3,3,0,0,0,40,227.64Z" transform="translate(0)"/><path class="c" d="M151.67,236.61a3,3,0,0,0-3-2.95h-0.22a3,3,0,1,0,0,5.9h0.22A3,3,0,0,0,151.67,236.61Z" transform="translate(0)"/><path class="c" d="M142.36,236.61a3,3,0,0,0-3-2.95h-0.23a3,3,0,1,0,0,5.9h0.23A3,3,0,0,0,142.36,236.61Z" transform="translate(0)"/><path class="c" d="M133,236.61a3,3,0,0,0-3-2.95h-0.23a3,3,0,1,0,0,5.9h0.23A3,3,0,0,0,133,236.61Z" transform="translate(0)"/><path class="c" d="M123.74,236.61a3,3,0,0,0-3-2.95h-0.23a3,3,0,1,0,0,5.9h0.23A3,3,0,0,0,123.74,236.61Z" transform="translate(0)"/><path class="c" d="M114.43,236.61a3,3,0,0,0-3-2.95h-0.23a3,3,0,1,0,0,5.9h0.23A3,3,0,0,0,114.43,236.61Z" transform="translate(0)"/><path class="c" d="M105.13,236.61a3,3,0,0,0-3-2.95h-0.23a3,3,0,1,0,0,5.9h0.23A3,3,0,0,0,105.13,236.61Z" transform="translate(0)"/><path class="c" d="M95.82,236.61a3,3,0,0,0-3-2.95H92.64a3,3,0,1,0,0,5.9h0.23A3,3,0,0,0,95.82,236.61Z" transform="translate(0)"/><path class="c" d="M86.51,236.61a3,3,0,0,0-2.95-2.95H83.33a3,3,0,1,0,0,5.9h0.23A3,3,0,0,0,86.51,236.61Z" transform="translate(0)"/><path class="c" d="M77.2,236.61a3,3,0,0,0-3-2.95H74a3,3,0,1,0,0,5.9h0.23A3,3,0,0,0,77.2,236.61Z" transform="translate(0)"/><path class="c" d="M67.89,236.61a3,3,0,0,0-3-2.95H64.71a3,3,0,1,0,0,5.9h0.22A3,3,0,0,0,67.89,236.61Z" transform="translate(0)"/><path class="c" d="M58.58,236.61a3,3,0,0,0-3-2.95H55.4a3,3,0,1,0,0,5.9h0.23A3,3,0,0,0,58.58,236.61Z" transform="translate(0)"/><path class="c" d="M49.27,236.61a3,3,0,0,0-3-2.95H46.1a3,3,0,1,0,0,5.9h0.23A3,3,0,0,0,49.27,236.61Z" transform="translate(0)"/><path class="c" d="M40,236.61a3,3,0,0,0-3-2.95H36.79a3,3,0,1,0,0,5.9H37A3,3,0,0,0,40,236.61Z" transform="translate(0)"/><path class="c" d="M151.67,245.58a3,3,0,0,0-3-3h-0.23a3,3,0,0,0,0,5.9h0.23A3,3,0,0,0,151.67,245.58Z" transform="translate(0)"/><path class="c" d="M142.36,245.58a3,3,0,0,0-3-3h-0.23a3,3,0,0,0,0,5.9h0.23A3,3,0,0,0,142.36,245.58Z" transform="translate(0)"/><path class="c" d="M133.05,245.58a3,3,0,0,0-3-3h-0.23a3,3,0,1,0,0,5.9h0.23A3,3,0,0,0,133.05,245.58Z" transform="translate(0)"/><path class="c" d="M123.75,245.58a3,3,0,0,0-3-3h-0.23a3,3,0,1,0,0,5.9h0.23A3,3,0,0,0,123.75,245.58Z" transform="translate(0)"/><path class="c" d="M114.43,245.58a3,3,0,0,0-3-3h-0.23a3,3,0,0,0,0,5.9h0.23A3,3,0,0,0,114.43,245.58Z" transform="translate(0)"/><path class="c" d="M105.13,245.58a3,3,0,0,0-3-3h-0.23a3,3,0,1,0,0,5.9h0.23A3,3,0,0,0,105.13,245.58Z" transform="translate(0)"/><path class="c" d="M95.82,245.58a3,3,0,0,0-3-3H92.64a3,3,0,1,0,0,5.9h0.23A3,3,0,0,0,95.82,245.58Z" transform="translate(0)"/><path class="c" d="M86.51,245.58a3,3,0,0,0-3-3H83.33a3,3,0,0,0,0,5.9h0.23A3,3,0,0,0,86.51,245.58Z" transform="translate(0)"/><path class="c" d="M77.2,245.58a3,3,0,0,0-3-3H74a3,3,0,0,0,0,5.9h0.23A3,3,0,0,0,77.2,245.58Z" transform="translate(0)"/><path class="c" d="M67.89,245.58a3,3,0,0,0-3-3H64.71a3,3,0,1,0,0,5.9h0.23A3,3,0,0,0,67.89,245.58Z" transform="translate(0)"/><path class="c" d="M58.58,245.58a3,3,0,0,0-3-3H55.41a3,3,0,1,0,0,5.9h0.23A3,3,0,0,0,58.58,245.58Z" transform="translate(0)"/><path class="c" d="M49.28,245.58a3,3,0,0,0-3-3H46.1a3,3,0,0,0,0,5.9h0.23A3,3,0,0,0,49.28,245.58Z" transform="translate(0)"/><path class="c" d="M40,245.58a3,3,0,0,0-3-3H36.79a3,3,0,1,0,0,5.9H37A3,3,0,0,0,40,245.58Z" transform="translate(0)"/><path class="c" d="M151.67,254.55a3,3,0,0,0-3-3h-0.23a3,3,0,0,0,0,5.91h0.23A3,3,0,0,0,151.67,254.55Z" transform="translate(0)"/><path class="c" d="M142.36,254.55a3,3,0,0,0-3-3h-0.23a3,3,0,0,0,0,5.91h0.23A3,3,0,0,0,142.36,254.55Z" transform="translate(0)"/><path class="c" d="M133.05,254.55a3,3,0,0,0-3-3h-0.23a3,3,0,1,0,0,5.91h0.23A3,3,0,0,0,133.05,254.55Z" transform="translate(0)"/><path class="c" d="M123.75,254.55a3,3,0,0,0-3-3h-0.23a3,3,0,0,0,0,5.91h0.23A3,3,0,0,0,123.75,254.55Z" transform="translate(0)"/><path class="c" d="M114.43,254.55a3,3,0,0,0-3-3h-0.23a3,3,0,0,0,0,5.91h0.23A3,3,0,0,0,114.43,254.55Z" transform="translate(0)"/><path class="c" d="M105.13,254.55a3,3,0,0,0-3-3h-0.23a3,3,0,0,0,0,5.91h0.23A3,3,0,0,0,105.13,254.55Z" transform="translate(0)"/><path class="c" d="M95.82,254.55a3,3,0,0,0-3-3H92.64a3,3,0,1,0,0,5.91h0.23A3,3,0,0,0,95.82,254.55Z" transform="translate(0)"/><path class="c" d="M86.51,254.55a3,3,0,0,0-3-3H83.33a3,3,0,0,0,0,5.91h0.23A3,3,0,0,0,86.51,254.55Z" transform="translate(0)"/><path class="c" d="M77.2,254.55a3,3,0,0,0-3-3H74a3,3,0,0,0,0,5.91h0.23A3,3,0,0,0,77.2,254.55Z" transform="translate(0)"/><path class="c" d="M67.89,254.55a3,3,0,0,0-3-3H64.71a3,3,0,0,0,0,5.91h0.23A3,3,0,0,0,67.89,254.55Z" transform="translate(0)"/><path class="c" d="M58.58,254.55a3,3,0,0,0-3-3H55.41a3,3,0,0,0,0,5.91h0.23A3,3,0,0,0,58.58,254.55Z" transform="translate(0)"/><path class="c" d="M49.28,254.55a3,3,0,0,0-3-3H46.1a3,3,0,0,0,0,5.91h0.23A3,3,0,0,0,49.28,254.55Z" transform="translate(0)"/><path class="c" d="M40,254.55a3,3,0,0,0-3-3H36.79a3,3,0,0,0,0,5.91H37A3,3,0,0,0,40,254.55Z" transform="translate(0)"/><path class="c" d="M151.67,263.52a3,3,0,0,0-3-3h-0.23a3,3,0,0,0,0,5.91h0.23A3,3,0,0,0,151.67,263.52Z" transform="translate(0)"/><path class="c" d="M142.36,263.52a3,3,0,0,0-3-3h-0.23a3,3,0,0,0,0,5.91h0.23A3,3,0,0,0,142.36,263.52Z" transform="translate(0)"/><path class="c" d="M133,263.52a3,3,0,0,0-3-3h-0.23a3,3,0,0,0,0,5.91h0.23A3,3,0,0,0,133,263.52Z" transform="translate(0)"/><path class="c" d="M123.74,263.52a3,3,0,0,0-3-3h-0.23a3,3,0,0,0,0,5.91h0.23A3,3,0,0,0,123.74,263.52Z" transform="translate(0)"/><path class="c" d="M114.43,263.52a3,3,0,0,0-3-3h-0.23a3,3,0,0,0,0,5.91h0.23A3,3,0,0,0,114.43,263.52Z" transform="translate(0)"/><path class="c" d="M105.13,263.52a3,3,0,0,0-3-3h-0.23a3,3,0,0,0,0,5.91h0.23A3,3,0,0,0,105.13,263.52Z" transform="translate(0)"/><path class="c" d="M95.82,263.52a3,3,0,0,0-3-3H92.64a3,3,0,0,0,0,5.91h0.23A3,3,0,0,0,95.82,263.52Z" transform="translate(0)"/><path class="c" d="M86.51,263.52a3,3,0,0,0-3-3H83.33a3,3,0,0,0,0,5.91h0.23A3,3,0,0,0,86.51,263.52Z" transform="translate(0)"/><path class="c" d="M77.2,263.52a3,3,0,0,0-3-3H74a3,3,0,0,0,0,5.91h0.23A3,3,0,0,0,77.2,263.52Z" transform="translate(0)"/><path class="c" d="M67.89,263.52a3,3,0,0,0-3-3H64.71a3,3,0,0,0,0,5.91h0.23A3,3,0,0,0,67.89,263.52Z" transform="translate(0)"/><path class="c" d="M58.58,263.52a3,3,0,0,0-3-3H55.4a3,3,0,0,0,0,5.91h0.23A3,3,0,0,0,58.58,263.52Z" transform="translate(0)"/><path class="c" d="M49.28,263.52a3,3,0,0,0-3-3H46.1a3,3,0,0,0,0,5.91h0.23A3,3,0,0,0,49.28,263.52Z" transform="translate(0)"/><path class="c" d="M40,263.52a3,3,0,0,0-3-3H36.79a3,3,0,0,0,0,5.91H37A3,3,0,0,0,40,263.52Z" transform="translate(0)"/><path class="c" d="M151.67,272.5a3,3,0,0,0-3-3h-0.23a3,3,0,0,0,0,5.9h0.23A3,3,0,0,0,151.67,272.5Z" transform="translate(0)"/><path class="c" d="M142.36,272.5a3,3,0,0,0-3-3h-0.23a3,3,0,1,0,0,5.9h0.23A3,3,0,0,0,142.36,272.5Z" transform="translate(0)"/><path class="c" d="M133,272.5a3,3,0,0,0-3-3h-0.23a3,3,0,0,0,0,5.9h0.23A3,3,0,0,0,133,272.5Z" transform="translate(0)"/><path class="c" d="M123.74,272.5a3,3,0,0,0-3-3h-0.23a3,3,0,0,0,0,5.9h0.23A3,3,0,0,0,123.74,272.5Z" transform="translate(0)"/><path class="c" d="M114.43,272.5a3,3,0,0,0-3-3h-0.23a3,3,0,0,0,0,5.9h0.23A3,3,0,0,0,114.43,272.5Z" transform="translate(0)"/><path class="c" d="M105.13,272.5a3,3,0,0,0-3-3h-0.23a3,3,0,1,0,0,5.9h0.23A3,3,0,0,0,105.13,272.5Z" transform="translate(0)"/><path class="c" d="M95.82,272.5a3,3,0,0,0-3-3H92.64a3,3,0,0,0,0,5.9h0.23A3,3,0,0,0,95.82,272.5Z" transform="translate(0)"/><path class="c" d="M86.51,272.5a3,3,0,0,0-3-3H83.33a3,3,0,0,0,0,5.9h0.23A3,3,0,0,0,86.51,272.5Z" transform="translate(0)"/><path class="c" d="M77.2,272.5a3,3,0,0,0-3-3H74a3,3,0,1,0,0,5.9h0.23A3,3,0,0,0,77.2,272.5Z" transform="translate(0)"/><path class="c" d="M67.89,272.5a3,3,0,0,0-3-3H64.71a3,3,0,1,0,0,5.9h0.23A3,3,0,0,0,67.89,272.5Z" transform="translate(0)"/><path class="c" d="M58.58,272.5a3,3,0,0,0-3-3H55.4a3,3,0,0,0,0,5.9h0.23A3,3,0,0,0,58.58,272.5Z" transform="translate(0)"/><path class="c" d="M49.28,272.5a3,3,0,0,0-3-3H46.1a3,3,0,0,0,0,5.9h0.23A3,3,0,0,0,49.28,272.5Z" transform="translate(0)"/><path class="c" d="M40,272.5a3,3,0,0,0-3-3H36.79a3,3,0,1,0,0,5.9H37A3,3,0,0,0,40,272.5Z" transform="translate(0)"/><path class="c" d="M151.67,281.47a3,3,0,0,0-3-3h-0.23a3,3,0,0,0,0,5.9h0.23A3,3,0,0,0,151.67,281.47Z" transform="translate(0)"/><path class="c" d="M142.36,281.47a3,3,0,0,0-3-3h-0.23a3,3,0,1,0,0,5.9h0.23A3,3,0,0,0,142.36,281.47Z" transform="translate(0)"/><path class="c" d="M133,281.47a3,3,0,0,0-3-3h-0.23a3,3,0,1,0,0,5.9h0.23A3,3,0,0,0,133,281.47Z" transform="translate(0)"/><path class="c" d="M123.74,281.47a3,3,0,0,0-3-3h-0.23a3,3,0,1,0,0,5.9h0.23A3,3,0,0,0,123.74,281.47Z" transform="translate(0)"/><path class="c" d="M114.43,281.47a3,3,0,0,0-3-3h-0.23a3,3,0,0,0,0,5.9h0.23A3,3,0,0,0,114.43,281.47Z" transform="translate(0)"/><path class="c" d="M105.13,281.47a3,3,0,0,0-3-3h-0.23a3,3,0,1,0,0,5.9h0.23A3,3,0,0,0,105.13,281.47Z" transform="translate(0)"/><path class="c" d="M95.82,281.47a3,3,0,0,0-3-3H92.64a3,3,0,1,0,0,5.9h0.23A3,3,0,0,0,95.82,281.47Z" transform="translate(0)"/><path class="c" d="M86.51,281.47a3,3,0,0,0-3-3H83.33a3,3,0,0,0,0,5.9h0.23A3,3,0,0,0,86.51,281.47Z" transform="translate(0)"/><path class="c" d="M77.2,281.47a3,3,0,0,0-3-3H74a3,3,0,1,0,0,5.9h0.23A3,3,0,0,0,77.2,281.47Z" transform="translate(0)"/><path class="c" d="M67.89,281.47a3,3,0,0,0-3-3H64.71a3,3,0,1,0,0,5.9h0.23A3,3,0,0,0,67.89,281.47Z" transform="translate(0)"/><path class="c" d="M58.58,281.47a3,3,0,0,0-3-3H55.4a3,3,0,1,0,0,5.9h0.23A3,3,0,0,0,58.58,281.47Z" transform="translate(0)"/><path class="c" d="M49.28,281.47a3,3,0,0,0-3-3H46.1a3,3,0,1,0,0,5.9h0.23A3,3,0,0,0,49.28,281.47Z" transform="translate(0)"/><path class="c" d="M40,281.47a3,3,0,0,0-3-3H36.79a3,3,0,1,0,0,5.9H37A3,3,0,0,0,40,281.47Z" transform="translate(0)"/><path class="c" d="M151.67,290.43a3,3,0,0,0-3-3h-0.23a3,3,0,0,0,0,5.91h0.23A3,3,0,0,0,151.67,290.43Z" transform="translate(0)"/><path class="c" d="M142.36,290.43a3,3,0,0,0-3-3h-0.23a3,3,0,0,0,0,5.91h0.23A3,3,0,0,0,142.36,290.43Z" transform="translate(0)"/><path class="c" d="M133,290.43a3,3,0,0,0-3-3h-0.23a3,3,0,0,0,0,5.91h0.23A3,3,0,0,0,133,290.43Z" transform="translate(0)"/><path class="c" d="M123.74,290.43a3,3,0,0,0-3-3h-0.23a3,3,0,0,0,0,5.91h0.23A3,3,0,0,0,123.74,290.43Z" transform="translate(0)"/><path class="c" d="M114.43,290.43a3,3,0,0,0-3-3h-0.23a3,3,0,0,0,0,5.91h0.23A3,3,0,0,0,114.43,290.43Z" transform="translate(0)"/><path class="c" d="M105.13,290.43a3,3,0,0,0-3-3h-0.23a3,3,0,0,0,0,5.91h0.23A3,3,0,0,0,105.13,290.43Z" transform="translate(0)"/><path class="c" d="M95.82,290.43a3,3,0,0,0-3-3H92.64a3,3,0,0,0,0,5.91h0.23A3,3,0,0,0,95.82,290.43Z" transform="translate(0)"/><path class="c" d="M86.51,290.43a3,3,0,0,0-3-3H83.33a3,3,0,0,0,0,5.91h0.23A3,3,0,0,0,86.51,290.43Z" transform="translate(0)"/><path class="c" d="M77.2,290.43a3,3,0,0,0-3-3H74a3,3,0,0,0,0,5.91h0.23A3,3,0,0,0,77.2,290.43Z" transform="translate(0)"/><path class="c" d="M67.89,290.43a3,3,0,0,0-3-3H64.71a3,3,0,0,0,0,5.91h0.23A3,3,0,0,0,67.89,290.43Z" transform="translate(0)"/><path class="c" d="M58.58,290.43a3,3,0,0,0-3-3H55.4a3,3,0,0,0,0,5.91h0.23A3,3,0,0,0,58.58,290.43Z" transform="translate(0)"/><path class="c" d="M49.28,290.43a3,3,0,0,0-3-3H46.1a3,3,0,0,0,0,5.91h0.23A3,3,0,0,0,49.28,290.43Z" transform="translate(0)"/><path class="c" d="M40,290.43a3,3,0,0,0-3-3H36.79a3,3,0,0,0,0,5.91H37A3,3,0,0,0,40,290.43Z" transform="translate(0)"/><path class="c" d="M151.67,299.41a3,3,0,0,0-3-3h-0.23a3,3,0,0,0,0,5.9h0.23A3,3,0,0,0,151.67,299.41Z" transform="translate(0)"/><path class="c" d="M142.36,299.41a3,3,0,0,0-3-3h-0.23a3,3,0,0,0,0,5.9h0.23A3,3,0,0,0,142.36,299.41Z" transform="translate(0)"/><path class="c" d="M133.05,299.41a3,3,0,0,0-3-3h-0.23a3,3,0,1,0,0,5.9h0.23A3,3,0,0,0,133.05,299.41Z" transform="translate(0)"/><path class="c" d="M123.75,299.41a3,3,0,0,0-3-3h-0.23a3,3,0,1,0,0,5.9h0.23A3,3,0,0,0,123.75,299.41Z" transform="translate(0)"/><path class="c" d="M114.43,299.41a3,3,0,0,0-3-3h-0.23a3,3,0,0,0,0,5.9h0.23A3,3,0,0,0,114.43,299.41Z" transform="translate(0)"/><path class="c" d="M105.13,299.41a3,3,0,0,0-3-3h-0.23a3,3,0,1,0,0,5.9h0.23A3,3,0,0,0,105.13,299.41Z" transform="translate(0)"/><path class="c" d="M95.82,299.41a3,3,0,0,0-3-3H92.64a3,3,0,1,0,0,5.9h0.23A3,3,0,0,0,95.82,299.41Z" transform="translate(0)"/><path class="c" d="M86.51,299.41a3,3,0,0,0-3-3H83.33a3,3,0,1,0,0,5.9h0.23A3,3,0,0,0,86.51,299.41Z" transform="translate(0)"/><path class="c" d="M77.2,299.41a3,3,0,0,0-3-3H74a3,3,0,1,0,0,5.9h0.23A3,3,0,0,0,77.2,299.41Z" transform="translate(0)"/><path class="c" d="M67.89,299.41a3,3,0,0,0-3-3H64.71a3,3,0,1,0,0,5.9h0.23A3,3,0,0,0,67.89,299.41Z" transform="translate(0)"/><path class="c" d="M58.58,299.41a3,3,0,0,0-3-3H55.41a3,3,0,1,0,0,5.9h0.23A3,3,0,0,0,58.58,299.41Z" transform="translate(0)"/><path class="c" d="M49.28,299.41a3,3,0,0,0-3-3H46.1a3,3,0,1,0,0,5.9h0.23A3,3,0,0,0,49.28,299.41Z" transform="translate(0)"/><path class="c" d="M40,299.41a3,3,0,0,0-3-3H36.79a3,3,0,1,0,0,5.9H37A3,3,0,0,0,40,299.41Z" transform="translate(0)"/><path class="c" d="M151.67,308.38a3,3,0,0,0-3-3h-0.22a3,3,0,0,0,0,5.91h0.22A3,3,0,0,0,151.67,308.38Z" transform="translate(0)"/><path class="c" d="M142.36,308.38a3,3,0,0,0-3-3h-0.23a3,3,0,0,0,0,5.91h0.23A3,3,0,0,0,142.36,308.38Z" transform="translate(0)"/><path class="c" d="M133,308.38a3,3,0,0,0-3-3h-0.23a3,3,0,0,0,0,5.91h0.23A3,3,0,0,0,133,308.38Z" transform="translate(0)"/><path class="c" d="M123.74,308.38a3,3,0,0,0-3-3h-0.23a3,3,0,0,0,0,5.91h0.23A3,3,0,0,0,123.74,308.38Z" transform="translate(0)"/><path class="c" d="M114.43,308.38a3,3,0,0,0-3-3h-0.23a3,3,0,0,0,0,5.91h0.23A3,3,0,0,0,114.43,308.38Z" transform="translate(0)"/><path class="c" d="M105.13,308.38a3,3,0,0,0-3-3h-0.23a3,3,0,0,0,0,5.91h0.23A3,3,0,0,0,105.13,308.38Z" transform="translate(0)"/><path class="c" d="M95.82,308.38a3,3,0,0,0-3-3H92.64a3,3,0,0,0,0,5.91h0.23A3,3,0,0,0,95.82,308.38Z" transform="translate(0)"/><path class="c" d="M86.51,308.38a3,3,0,0,0-2.95-3H83.33a3,3,0,0,0,0,5.91h0.23A3,3,0,0,0,86.51,308.38Z" transform="translate(0)"/><path class="c" d="M77.2,308.38a3,3,0,0,0-3-3H74a3,3,0,0,0,0,5.91h0.23A3,3,0,0,0,77.2,308.38Z" transform="translate(0)"/><path class="c" d="M67.89,308.38a3,3,0,0,0-3-3H64.71a3,3,0,0,0,0,5.91h0.22A3,3,0,0,0,67.89,308.38Z" transform="translate(0)"/><path class="c" d="M58.58,308.38a3,3,0,0,0-3-3H55.4a3,3,0,0,0,0,5.91h0.23A3,3,0,0,0,58.58,308.38Z" transform="translate(0)"/><path class="c" d="M49.27,308.38a3,3,0,0,0-3-3H46.1a3,3,0,0,0,0,5.91h0.23A3,3,0,0,0,49.27,308.38Z" transform="translate(0)"/><path class="c" d="M40,308.38a3,3,0,0,0-3-3H36.79a3,3,0,0,0,0,5.91H37A3,3,0,0,0,40,308.38Z" transform="translate(0)"/><path class="c" d="M151.67,317.35a3,3,0,0,0-3-2.95h-0.23a3,3,0,0,0,0,5.91h0.23A3,3,0,0,0,151.67,317.35Z" transform="translate(0)"/><path class="c" d="M142.36,317.35a3,3,0,0,0-3-2.95h-0.23a3,3,0,0,0,0,5.91h0.23A3,3,0,0,0,142.36,317.35Z" transform="translate(0)"/><path class="c" d="M133.05,317.35a3,3,0,0,0-3-2.95h-0.23a3,3,0,1,0,0,5.91h0.23A3,3,0,0,0,133.05,317.35Z" transform="translate(0)"/><path class="c" d="M123.75,317.35a3,3,0,0,0-3-2.95h-0.23a3,3,0,0,0,0,5.91h0.23A3,3,0,0,0,123.75,317.35Z" transform="translate(0)"/><path class="c" d="M114.43,317.35a3,3,0,0,0-3-2.95h-0.23a3,3,0,0,0,0,5.91h0.23A3,3,0,0,0,114.43,317.35Z" transform="translate(0)"/><path class="c" d="M105.13,317.35a3,3,0,0,0-3-2.95h-0.23a3,3,0,0,0,0,5.91h0.23A3,3,0,0,0,105.13,317.35Z" transform="translate(0)"/><path class="c" d="M95.82,317.35a3,3,0,0,0-3-2.95H92.64a3,3,0,0,0,0,5.91h0.23A3,3,0,0,0,95.82,317.35Z" transform="translate(0)"/><path class="c" d="M86.51,317.35a3,3,0,0,0-3-2.95H83.33a3,3,0,0,0,0,5.91h0.23A3,3,0,0,0,86.51,317.35Z" transform="translate(0)"/><path class="c" d="M77.2,317.35a3,3,0,0,0-3-2.95H74a3,3,0,0,0,0,5.91h0.23A3,3,0,0,0,77.2,317.35Z" transform="translate(0)"/><path class="c" d="M67.89,317.35a3,3,0,0,0-3-2.95H64.71a3,3,0,0,0,0,5.91h0.23A3,3,0,0,0,67.89,317.35Z" transform="translate(0)"/><path class="c" d="M58.58,317.35a3,3,0,0,0-3-2.95H55.41a3,3,0,0,0,0,5.91h0.23A3,3,0,0,0,58.58,317.35Z" transform="translate(0)"/><path class="c" d="M49.28,317.35a3,3,0,0,0-3-2.95H46.1a3,3,0,0,0,0,5.91h0.23A3,3,0,0,0,49.28,317.35Z" transform="translate(0)"/><path class="c" d="M40,317.35a3,3,0,0,0-3-2.95H36.79a3,3,0,0,0,0,5.91H37A3,3,0,0,0,40,317.35Z" transform="translate(0)"/><path class="c" d="M151.67,326.32a3,3,0,0,0-3-3h-0.23a3,3,0,0,0,0,5.9h0.23A3,3,0,0,0,151.67,326.32Z" transform="translate(0)"/><path class="c" d="M142.36,326.32a3,3,0,0,0-3-3h-0.23a3,3,0,0,0,0,5.9h0.23A3,3,0,0,0,142.36,326.32Z" transform="translate(0)"/><path class="c" d="M133,326.32a3,3,0,0,0-3-3h-0.23a3,3,0,0,0,0,5.9h0.23A3,3,0,0,0,133,326.32Z" transform="translate(0)"/><path class="c" d="M123.74,326.32a3,3,0,0,0-3-3h-0.23a3,3,0,0,0,0,5.9h0.23A3,3,0,0,0,123.74,326.32Z" transform="translate(0)"/><path class="c" d="M114.43,326.32a3,3,0,0,0-3-3h-0.23a3,3,0,0,0,0,5.9h0.23A3,3,0,0,0,114.43,326.32Z" transform="translate(0)"/><path class="c" d="M105.13,326.32a3,3,0,0,0-3-3h-0.23a3,3,0,1,0,0,5.9h0.23A3,3,0,0,0,105.13,326.32Z" transform="translate(0)"/><path class="c" d="M95.82,326.32a3,3,0,0,0-3-3H92.64a3,3,0,1,0,0,5.9h0.23A3,3,0,0,0,95.82,326.32Z" transform="translate(0)"/><path class="c" d="M86.51,326.32a3,3,0,0,0-2.95-3H83.33a3,3,0,0,0,0,5.9h0.23A3,3,0,0,0,86.51,326.32Z" transform="translate(0)"/><path class="c" d="M77.2,326.32a3,3,0,0,0-3-3H74a3,3,0,1,0,0,5.9h0.23A3,3,0,0,0,77.2,326.32Z" transform="translate(0)"/><path class="c" d="M67.89,326.32a3,3,0,0,0-3-3H64.71a3,3,0,1,0,0,5.9h0.22A3,3,0,0,0,67.89,326.32Z" transform="translate(0)"/><path class="c" d="M58.58,326.32a3,3,0,0,0-3-3H55.4a3,3,0,1,0,0,5.9h0.23A3,3,0,0,0,58.58,326.32Z" transform="translate(0)"/><path class="c" d="M49.27,326.32a3,3,0,0,0-3-3H46.1a3,3,0,0,0,0,5.9h0.23A3,3,0,0,0,49.27,326.32Z" transform="translate(0)"/><path class="c" d="M40,326.32a3,3,0,0,0-3-3H36.79a3,3,0,0,0,0,5.9H37A3,3,0,0,0,40,326.32Z" transform="translate(0)"/><path class="c" d="M151.67,335.29a3,3,0,0,0-3-3h-0.23a3,3,0,0,0,0,5.9h0.23A3,3,0,0,0,151.67,335.29Z" transform="translate(0)"/><path class="c" d="M142.36,335.29a3,3,0,0,0-3-3h-0.23a3,3,0,1,0,0,5.9h0.23A3,3,0,0,0,142.36,335.29Z" transform="translate(0)"/><path class="c" d="M133,335.29a3,3,0,0,0-3-3h-0.23a3,3,0,1,0,0,5.9h0.23A3,3,0,0,0,133,335.29Z" transform="translate(0)"/><path class="c" d="M123.74,335.29a3,3,0,0,0-3-3h-0.23a3,3,0,0,0,0,5.9h0.23A3,3,0,0,0,123.74,335.29Z" transform="translate(0)"/><path class="c" d="M114.43,335.29a3,3,0,0,0-3-3h-0.23a3,3,0,0,0,0,5.9h0.23A3,3,0,0,0,114.43,335.29Z" transform="translate(0)"/><path class="c" d="M105.13,335.29a3,3,0,0,0-3-3h-0.23a3,3,0,1,0,0,5.9h0.23A3,3,0,0,0,105.13,335.29Z" transform="translate(0)"/><path class="c" d="M95.82,335.29a3,3,0,0,0-3-3H92.64a3,3,0,0,0,0,5.9h0.23A3,3,0,0,0,95.82,335.29Z" transform="translate(0)"/><path class="c" d="M86.51,335.29a3,3,0,0,0-3-3H83.33a3,3,0,0,0,0,5.9h0.23A3,3,0,0,0,86.51,335.29Z" transform="translate(0)"/><path class="c" d="M77.2,335.29a3,3,0,0,0-3-3H74a3,3,0,1,0,0,5.9h0.23A3,3,0,0,0,77.2,335.29Z" transform="translate(0)"/><path class="c" d="M67.89,335.29a3,3,0,0,0-3-3H64.71a3,3,0,1,0,0,5.9h0.23A3,3,0,0,0,67.89,335.29Z" transform="translate(0)"/><path class="c" d="M58.58,335.29a3,3,0,0,0-3-3H55.4a3,3,0,0,0,0,5.9h0.23A3,3,0,0,0,58.58,335.29Z" transform="translate(0)"/><path class="c" d="M49.28,335.29a3,3,0,0,0-3-3H46.1a3,3,0,1,0,0,5.9h0.23A3,3,0,0,0,49.28,335.29Z" transform="translate(0)"/><path class="c" d="M40,335.29a3,3,0,0,0-3-3H36.79a3,3,0,1,0,0,5.9H37A3,3,0,0,0,40,335.29Z" transform="translate(0)"/><path class="c" d="M151.67,344.26a3,3,0,0,0-3-3h-0.23a2.95,2.95,0,1,0,0,5.9h0.23A3,3,0,0,0,151.67,344.26Z" transform="translate(0)"/><path class="c" d="M142.36,344.26a3,3,0,0,0-3-3h-0.23a2.95,2.95,0,1,0,0,5.9h0.23A3,3,0,0,0,142.36,344.26Z" transform="translate(0)"/><path class="c" d="M133.05,344.26a3,3,0,0,0-3-3h-0.23a2.95,2.95,0,1,0,0,5.9h0.23A3,3,0,0,0,133.05,344.26Z" transform="translate(0)"/><path class="c" d="M123.75,344.26a3,3,0,0,0-3-3h-0.23a2.95,2.95,0,1,0,0,5.9h0.23A3,3,0,0,0,123.75,344.26Z" transform="translate(0)"/><path class="c" d="M114.43,344.26a3,3,0,0,0-3-3h-0.23a2.95,2.95,0,1,0,0,5.9h0.23A3,3,0,0,0,114.43,344.26Z" transform="translate(0)"/><path class="c" d="M105.13,344.26a3,3,0,0,0-3-3h-0.23a2.95,2.95,0,1,0,0,5.9h0.23A3,3,0,0,0,105.13,344.26Z" transform="translate(0)"/><path class="c" d="M86.51,344.26a3,3,0,0,0-3-3H83.33a2.95,2.95,0,1,0,0,5.9h0.23A3,3,0,0,0,86.51,344.26Z" transform="translate(0)"/><path class="c" d="M77.2,344.26a3,3,0,0,0-3-3H74a2.95,2.95,0,1,0,0,5.9h0.23A3,3,0,0,0,77.2,344.26Z" transform="translate(0)"/><path class="c" d="M67.89,344.26a3,3,0,0,0-3-3H64.71a2.95,2.95,0,1,0,0,5.9h0.23A3,3,0,0,0,67.89,344.26Z" transform="translate(0)"/><path class="c" d="M58.58,344.26a3,3,0,0,0-3-3H55.41a2.95,2.95,0,1,0,0,5.9h0.23A3,3,0,0,0,58.58,344.26Z" transform="translate(0)"/><path class="c" d="M49.28,344.26a3,3,0,0,0-3-3H46.1a2.95,2.95,0,1,0,0,5.9h0.23A3,3,0,0,0,49.28,344.26Z" transform="translate(0)"/><path class="c" d="M40,344.26a3,3,0,0,0-3-3H36.79a2.95,2.95,0,1,0,0,5.9H37A3,3,0,0,0,40,344.26Z" transform="translate(0)"/><path class="c" d="M151.67,353.23a3,3,0,0,0-3-3h-0.23a3,3,0,0,0,0,5.9h0.23A3,3,0,0,0,151.67,353.23Z" transform="translate(0)"/><path class="c" d="M142.36,353.23a3,3,0,0,0-3-3h-0.23a3,3,0,0,0,0,5.9h0.23A3,3,0,0,0,142.36,353.23Z" transform="translate(0)"/><path class="c" d="M123.74,353.23a3,3,0,0,0-3-3h-0.23a3,3,0,0,0,0,5.9h0.23A3,3,0,0,0,123.74,353.23Z" transform="translate(0)"/><path class="c" d="M114.43,353.23a3,3,0,0,0-3-3h-0.23a3,3,0,0,0,0,5.9h0.23A3,3,0,0,0,114.43,353.23Z" transform="translate(0)"/><path class="c" d="M105.13,353.23a3,3,0,0,0-3-3h-0.23a3,3,0,1,0,0,5.9h0.23A3,3,0,0,0,105.13,353.23Z" transform="translate(0)"/><path class="c" d="M86.51,353.23a3,3,0,0,0-2.95-3H83.33a3,3,0,0,0,0,5.9h0.23A3,3,0,0,0,86.51,353.23Z" transform="translate(0)"/><path class="c" d="M77.2,353.23a3,3,0,0,0-3-3H74a3,3,0,0,0,0,5.9h0.23A3,3,0,0,0,77.2,353.23Z" transform="translate(0)"/><path class="c" d="M67.89,353.23a3,3,0,0,0-3-3H64.71a3,3,0,1,0,0,5.9h0.22A3,3,0,0,0,67.89,353.23Z" transform="translate(0)"/><path class="c" d="M49.27,353.23a3,3,0,0,0-3-3H46.1a3,3,0,0,0,0,5.9h0.23A3,3,0,0,0,49.27,353.23Z" transform="translate(0)"/><path class="c" d="M40,353.23a3,3,0,0,0-3-3H36.79a3,3,0,0,0,0,5.9H37A3,3,0,0,0,40,353.23Z" transform="translate(0)"/><path class="c" d="M123.74,362.2a3,3,0,0,0-3-3h-0.23a3,3,0,0,0,0,5.91h0.23A3,3,0,0,0,123.74,362.2Z" transform="translate(0)"/><path class="c" d="M114.43,362.2a3,3,0,0,0-3-3h-0.23a3,3,0,0,0,0,5.91h0.23A3,3,0,0,0,114.43,362.2Z" transform="translate(0)"/><path class="c" d="M105.13,362.2a3,3,0,0,0-3-3h-0.23a3,3,0,0,0,0,5.91h0.23A3,3,0,0,0,105.13,362.2Z" transform="translate(0)"/><path class="c" d="M86.51,362.2a3,3,0,0,0-3-3H83.33a3,3,0,0,0,0,5.91h0.23A3,3,0,0,0,86.51,362.2Z" transform="translate(0)"/><path class="c" d="M77.2,362.2a3,3,0,0,0-3-3H74a3,3,0,0,0,0,5.91h0.23A3,3,0,0,0,77.2,362.2Z" transform="translate(0)"/><path class="c" d="M67.89,362.2a3,3,0,0,0-3-3H64.71a3,3,0,0,0,0,5.91h0.23A3,3,0,0,0,67.89,362.2Z" transform="translate(0)"/><path class="c" d="M123.75,371.17a3,3,0,0,0-3-3h-0.23a2.95,2.95,0,1,0,0,5.9h0.23A3,3,0,0,0,123.75,371.17Z" transform="translate(0)"/><path class="c" d="M114.43,371.17a3,3,0,0,0-3-3h-0.23a2.95,2.95,0,1,0,0,5.9h0.23A3,3,0,0,0,114.43,371.17Z" transform="translate(0)"/><path class="c" d="M105.13,371.17a3,3,0,0,0-3-3h-0.23a2.95,2.95,0,1,0,0,5.9h0.23A3,3,0,0,0,105.13,371.17Z" transform="translate(0)"/><path class="c" d="M86.51,371.17a3,3,0,0,0-3-3H83.33a2.95,2.95,0,1,0,0,5.9h0.23A3,3,0,0,0,86.51,371.17Z" transform="translate(0)"/><path class="c" d="M77.2,371.17a3,3,0,0,0-3-3H74a2.95,2.95,0,1,0,0,5.9h0.23A3,3,0,0,0,77.2,371.17Z" transform="translate(0)"/><path class="c" d="M67.89,371.17a3,3,0,0,0-3-3H64.71a2.95,2.95,0,1,0,0,5.9h0.23A3,3,0,0,0,67.89,371.17Z" transform="translate(0)"/><path class="c" d="M123.74,380.14a3,3,0,0,0-3-3h-0.23a3,3,0,1,0,0,5.9h0.23A3,3,0,0,0,123.74,380.14Z" transform="translate(0)"/><path class="c" d="M114.43,380.14a3,3,0,0,0-3-3h-0.23a3,3,0,0,0,0,5.9h0.23A3,3,0,0,0,114.43,380.14Z" transform="translate(0)"/><path class="c" d="M105.13,380.14a3,3,0,0,0-3-3h-0.23a3,3,0,1,0,0,5.9h0.23A3,3,0,0,0,105.13,380.14Z" transform="translate(0)"/><path class="c" d="M86.51,380.14a3,3,0,0,0-2.95-3H83.33a3,3,0,0,0,0,5.9h0.23A3,3,0,0,0,86.51,380.14Z" transform="translate(0)"/><path class="c" d="M77.2,380.14a3,3,0,0,0-3-3H74a3,3,0,1,0,0,5.9h0.23A3,3,0,0,0,77.2,380.14Z" transform="translate(0)"/><path class="c" d="M67.89,380.14a3,3,0,0,0-3-3H64.71a3,3,0,1,0,0,5.9h0.22A3,3,0,0,0,67.89,380.14Z" transform="translate(0)"/><path class="c" d="M123.74,389.11a3,3,0,0,0-3-2.95h-0.23a3,3,0,0,0,0,5.91h0.23A3,3,0,0,0,123.74,389.11Z" transform="translate(0)"/><path class="c" d="M114.43,389.11a3,3,0,0,0-3-2.95h-0.23a3,3,0,0,0,0,5.91h0.23A3,3,0,0,0,114.43,389.11Z" transform="translate(0)"/><path class="c" d="M105.13,389.11a3,3,0,0,0-3-2.95h-0.23a3,3,0,0,0,0,5.91h0.23A3,3,0,0,0,105.13,389.11Z" transform="translate(0)"/><path class="c" d="M86.51,389.11a3,3,0,0,0-3-2.95H83.33a3,3,0,0,0,0,5.91h0.23A3,3,0,0,0,86.51,389.11Z" transform="translate(0)"/><path class="c" d="M77.2,389.11a3,3,0,0,0-3-2.95H74a3,3,0,0,0,0,5.91h0.23A3,3,0,0,0,77.2,389.11Z" transform="translate(0)"/><path class="c" d="M67.89,389.11a3,3,0,0,0-3-2.95H64.71a3,3,0,0,0,0,5.91h0.23A3,3,0,0,0,67.89,389.11Z" transform="translate(0)"/><path class="c" d="M123.75,398.08a3,3,0,0,0-3-2.95h-0.23a3,3,0,1,0,0,5.9h0.23A3,3,0,0,0,123.75,398.08Z" transform="translate(0)"/><path class="c" d="M114.43,398.08a3,3,0,0,0-3-2.95h-0.23a3,3,0,0,0,0,5.9h0.23A3,3,0,0,0,114.43,398.08Z" transform="translate(0)"/><path class="c" d="M105.13,398.08a3,3,0,0,0-3-2.95h-0.23a3,3,0,1,0,0,5.9h0.23A3,3,0,0,0,105.13,398.08Z" transform="translate(0)"/><path class="c" d="M86.51,398.08a3,3,0,0,0-3-2.95H83.33a3,3,0,1,0,0,5.9h0.23A3,3,0,0,0,86.51,398.08Z" transform="translate(0)"/><path class="c" d="M77.2,398.08a3,3,0,0,0-3-2.95H74a3,3,0,1,0,0,5.9h0.23A3,3,0,0,0,77.2,398.08Z" transform="translate(0)"/><path class="c" d="M67.89,398.08a3,3,0,0,0-3-2.95H64.71a3,3,0,1,0,0,5.9h0.23A3,3,0,0,0,67.89,398.08Z" transform="translate(0)"/><path class="c" d="M123.74,407.05a3,3,0,0,0-3-3h-0.23a3,3,0,1,0,0,5.9h0.23A3,3,0,0,0,123.74,407.05Z" transform="translate(0)"/><path class="c" d="M114.43,407.05a3,3,0,0,0-3-3h-0.23a3,3,0,0,0,0,5.9h0.23A3,3,0,0,0,114.43,407.05Z" transform="translate(0)"/><path class="c" d="M105.13,407.05a3,3,0,0,0-3-3h-0.23a3,3,0,1,0,0,5.9h0.23A3,3,0,0,0,105.13,407.05Z" transform="translate(0)"/><path class="c" d="M86.51,407.05a3,3,0,0,0-3-3H83.33a3,3,0,0,0,0,5.9h0.23A3,3,0,0,0,86.51,407.05Z" transform="translate(0)"/><path class="c" d="M77.2,407.05a3,3,0,0,0-3-3H74a3,3,0,1,0,0,5.9h0.23A3,3,0,0,0,77.2,407.05Z" transform="translate(0)"/><path class="c" d="M67.89,407.05a3,3,0,0,0-3-3H64.71a3,3,0,1,0,0,5.9h0.23A3,3,0,0,0,67.89,407.05Z" transform="translate(0)"/><path class="c" d="M123.74,416a3,3,0,0,0-3-2.95h-0.23a3,3,0,0,0,0,5.91h0.23A3,3,0,0,0,123.74,416Z" transform="translate(0)"/><path class="c" d="M114.43,416a3,3,0,0,0-3-2.95h-0.23a3,3,0,0,0,0,5.91h0.23A3,3,0,0,0,114.43,416Z" transform="translate(0)"/><path class="c" d="M105.13,416a3,3,0,0,0-3-2.95h-0.23a3,3,0,0,0,0,5.91h0.23A3,3,0,0,0,105.13,416Z" transform="translate(0)"/><path class="c" d="M86.51,416a3,3,0,0,0-3-2.95H83.33a3,3,0,0,0,0,5.91h0.23A3,3,0,0,0,86.51,416Z" transform="translate(0)"/><path class="c" d="M77.2,416a3,3,0,0,0-3-2.95H74A3,3,0,0,0,74,419h0.23A3,3,0,0,0,77.2,416Z" transform="translate(0)"/><path class="c" d="M67.89,416a3,3,0,0,0-3-2.95H64.71a3,3,0,0,0,0,5.91h0.23A3,3,0,0,0,67.89,416Z" transform="translate(0)"/><path class="c" d="M123.74,425a3,3,0,0,0-3-3h-0.23a3,3,0,0,0,0,5.9h0.23A3,3,0,0,0,123.74,425Z" transform="translate(0)"/><path class="c" d="M114.43,425a3,3,0,0,0-3-3h-0.23a3,3,0,0,0,0,5.9h0.23A3,3,0,0,0,114.43,425Z" transform="translate(0)"/><path class="c" d="M105.13,425a3,3,0,0,0-3-3h-0.23a3,3,0,1,0,0,5.9h0.23A3,3,0,0,0,105.13,425Z" transform="translate(0)"/><path class="c" d="M86.51,425a3,3,0,0,0-3-3H83.33a3,3,0,0,0,0,5.9h0.23A3,3,0,0,0,86.51,425Z" transform="translate(0)"/><path class="c" d="M77.2,425a3,3,0,0,0-3-3H74a3,3,0,1,0,0,5.9h0.23A3,3,0,0,0,77.2,425Z" transform="translate(0)"/><path class="c" d="M67.89,425a3,3,0,0,0-3-3H64.71a3,3,0,1,0,0,5.9h0.23A3,3,0,0,0,67.89,425Z" transform="translate(0)"/><path class="c" d="M123.74,434a3,3,0,0,0-3-3h-0.23a3,3,0,1,0,0,5.9h0.23A3,3,0,0,0,123.74,434Z" transform="translate(0)"/><path class="c" d="M114.43,434a3,3,0,0,0-3-3h-0.23a3,3,0,0,0,0,5.9h0.23A3,3,0,0,0,114.43,434Z" transform="translate(0)"/><path class="c" d="M105.13,434a3,3,0,0,0-3-3h-0.23a3,3,0,1,0,0,5.9h0.23A3,3,0,0,0,105.13,434Z" transform="translate(0)"/><path class="c" d="M86.51,434a3,3,0,0,0-3-3H83.33a3,3,0,1,0,0,5.9h0.23A3,3,0,0,0,86.51,434Z" transform="translate(0)"/><path class="c" d="M77.2,434a3,3,0,0,0-3-3H74a3,3,0,1,0,0,5.9h0.23A3,3,0,0,0,77.2,434Z" transform="translate(0)"/><path class="c" d="M67.89,434a3,3,0,0,0-3-3H64.71a3,3,0,1,0,0,5.9h0.23A3,3,0,0,0,67.89,434Z" transform="translate(0)"/><path class="c" d="M123.74,442.93a3,3,0,0,0-3-3h-0.23a3,3,0,0,0,0,5.91h0.23A3,3,0,0,0,123.74,442.93Z" transform="translate(0)"/><path class="c" d="M114.43,442.93a3,3,0,0,0-3-3h-0.23a3,3,0,0,0,0,5.91h0.23A3,3,0,0,0,114.43,442.93Z" transform="translate(0)"/><path class="c" d="M105.13,442.93a3,3,0,0,0-3-3h-0.23a3,3,0,0,0,0,5.91h0.23A3,3,0,0,0,105.13,442.93Z" transform="translate(0)"/><path class="c" d="M86.51,442.93a3,3,0,0,0-3-3H83.33a3,3,0,0,0,0,5.91h0.23A3,3,0,0,0,86.51,442.93Z" transform="translate(0)"/><path class="c" d="M77.2,442.93a3,3,0,0,0-3-3H74a3,3,0,1,0,0,5.91h0.23A3,3,0,0,0,77.2,442.93Z" transform="translate(0)"/><path class="c" d="M67.89,442.93a3,3,0,0,0-3-3H64.71a3,3,0,0,0,0,5.91h0.23A3,3,0,0,0,67.89,442.93Z" transform="translate(0)"/><path class="c" d="M123.74,451.9a3,3,0,0,0-3-2.95h-0.23a3,3,0,1,0,0,5.9h0.23A3,3,0,0,0,123.74,451.9Z" transform="translate(0)"/><path class="c" d="M114.43,451.9a3,3,0,0,0-3-2.95h-0.23a3,3,0,0,0,0,5.9h0.23A3,3,0,0,0,114.43,451.9Z" transform="translate(0)"/><path class="c" d="M105.13,451.9a3,3,0,0,0-3-2.95h-0.23a3,3,0,1,0,0,5.9h0.23A3,3,0,0,0,105.13,451.9Z" transform="translate(0)"/><path class="c" d="M86.51,451.9a3,3,0,0,0-3-2.95H83.33a3,3,0,0,0,0,5.9h0.23A3,3,0,0,0,86.51,451.9Z" transform="translate(0)"/><path class="c" d="M77.2,451.9a3,3,0,0,0-3-2.95H74a3,3,0,1,0,0,5.9h0.23A3,3,0,0,0,77.2,451.9Z" transform="translate(0)"/><path class="c" d="M67.89,451.9a3,3,0,0,0-3-2.95H64.71a3,3,0,1,0,0,5.9h0.23A3,3,0,0,0,67.89,451.9Z" transform="translate(0)"/><path class="c" d="M123.74,460.88a3,3,0,0,0-3-3h-0.23a3,3,0,1,0,0,5.9h0.23A3,3,0,0,0,123.74,460.88Z" transform="translate(0)"/><path class="c" d="M114.43,460.88a3,3,0,0,0-3-3h-0.23a3,3,0,0,0,0,5.9h0.23A3,3,0,0,0,114.43,460.88Z" transform="translate(0)"/><path class="c" d="M105.13,460.88a3,3,0,0,0-3-3h-0.23a3,3,0,1,0,0,5.9h0.23A3,3,0,0,0,105.13,460.88Z" transform="translate(0)"/><path class="c" d="M86.51,460.88a3,3,0,0,0-3-3H83.33a3,3,0,0,0,0,5.9h0.23A3,3,0,0,0,86.51,460.88Z" transform="translate(0)"/><path class="c" d="M77.2,460.88a3,3,0,0,0-3-3H74a3,3,0,1,0,0,5.9h0.23A3,3,0,0,0,77.2,460.88Z" transform="translate(0)"/><path class="c" d="M67.89,460.88a3,3,0,0,0-3-3H64.71a3,3,0,1,0,0,5.9h0.23A3,3,0,0,0,67.89,460.88Z" transform="translate(0)"/><path class="c" d="M123.74,469.84a3,3,0,0,0-3-3h-0.23a3,3,0,1,0,0,5.9h0.23A3,3,0,0,0,123.74,469.84Z" transform="translate(0)"/><path class="c" d="M114.43,469.84a3,3,0,0,0-3-3h-0.23a3,3,0,0,0,0,5.9h0.23A3,3,0,0,0,114.43,469.84Z" transform="translate(0)"/><path class="c" d="M105.13,469.84a3,3,0,0,0-3-3h-0.23a3,3,0,1,0,0,5.9h0.23A3,3,0,0,0,105.13,469.84Z" transform="translate(0)"/><path class="c" d="M86.51,469.84a3,3,0,0,0-3-3H83.33a3,3,0,1,0,0,5.9h0.23A3,3,0,0,0,86.51,469.84Z" transform="translate(0)"/><path class="c" d="M77.2,469.84a3,3,0,0,0-3-3H74a3,3,0,1,0,0,5.9h0.23A3,3,0,0,0,77.2,469.84Z" transform="translate(0)"/><path class="c" d="M67.89,469.84a3,3,0,0,0-3-3H64.71a3,3,0,1,0,0,5.9h0.23A3,3,0,0,0,67.89,469.84Z" transform="translate(0)"/><path class="c" d="M123.74,478.81a3,3,0,0,0-3-2.95h-0.23a3,3,0,1,0,0,5.9h0.23A3,3,0,0,0,123.74,478.81Z" transform="translate(0)"/><path class="c" d="M114.43,478.81a3,3,0,0,0-3-2.95h-0.23a3,3,0,0,0,0,5.9h0.23A3,3,0,0,0,114.43,478.81Z" transform="translate(0)"/><path class="c" d="M105.13,478.81a3,3,0,0,0-3-2.95h-0.23a3,3,0,1,0,0,5.9h0.23A3,3,0,0,0,105.13,478.81Z" transform="translate(0)"/><path class="c" d="M86.51,478.81a3,3,0,0,0-3-2.95H83.33a3,3,0,0,0,0,5.9h0.23A3,3,0,0,0,86.51,478.81Z" transform="translate(0)"/><path class="c" d="M77.2,478.81a3,3,0,0,0-3-2.95H74a3,3,0,1,0,0,5.9h0.23A3,3,0,0,0,77.2,478.81Z" transform="translate(0)"/><path class="c" d="M67.89,478.81a3,3,0,0,0-3-2.95H64.71a3,3,0,1,0,0,5.9h0.23A3,3,0,0,0,67.89,478.81Z" transform="translate(0)"/></g><line class="g" x1="59.1" y1="229.29" x2="59.1" y2="313.52"/><line class="g" x1="126.43" y1="229.29" x2="126.43" y2="313.52"/></svg>