<svg xmlns="http://www.w3.org/2000/svg" xmlns:xlink="http://www.w3.org/1999/xlink" width="120mm" height="169.95mm" viewBox="0 0 340.16 481.75"><defs><style>.a{fill:none;}.b{fill:#fff;}.c,.g{fill:#0286a8;}.d{fill:#81c3d4;}.e{fill:#00577e;}.f{clip-path:url(#a);}.g{stroke:#fff;stroke-linecap:round;stroke-miterlimit:10;stroke-width:6px;}</style><clipPath id="a" transform="translate(0)"><path class="a" d="M32.58,311.81V215.72a15.86,15.86,0,0,1,15.86-15.86h11.1v0h66.6v0h11.1a15.86,15.86,0,0,1,15.86,15.86v96.08H129.31V231.58h0s0,0,0,0a1.58,1.58,0,1,0-3.17,0s0,0,0,0h0v80.22H59.54V231.58h0s0,0,0,0a1.59,1.59,0,1,0-3.17,0,0.23,0.23,0,0,0,0,0h0v80.22H32.58ZM92.84,196.66a31.72,31.72,0,1,0-31.73-31.72A31.72,31.72,0,0,0,92.84,196.66Z"/></clipPath></defs><title>partnerpensioen_op_opbouwbasis</title><rect class="b" x="7.09" y="7.09" width="325.98" height="325.98" rx="35.43" ry="35.43"/><path class="c" d="M297.64,14.17A28.38,28.38,0,0,1,326,42.52V297.64A28.38,28.38,0,0,1,297.64,326H42.52a28.38,28.38,0,0,1-28.35-28.35V42.52A28.38,28.38,0,0,1,42.52,14.17H297.64m0-14.17H42.52A42.64,42.64,0,0,0,0,42.52V297.64a42.64,42.64,0,0,0,42.52,42.52H297.64a42.64,42.64,0,0,0,42.52-42.52V42.52A42.64,42.64,0,0,0,297.64,0h0Z" transform="translate(0)"/><path class="d" d="M217.85,73.1c0,14.11-21.67,25.55-48.41,25.55S121,87.21,121,73.1s21.67-25.55,48.41-25.55S217.85,59,217.85,73.1ZM162.75,33.92a6.72,6.72,0,1,0,6.72,6.72A6.72,6.72,0,0,0,162.75,33.92Zm13.45,0a6.72,6.72,0,1,0,6.72,6.72A6.72,6.72,0,0,0,176.2,33.92Z" transform="translate(0)"/><path class="e" d="M206.72,83.21c0-2.53,3.1-4.36,3.1-8.81,0-11.14-18.06-20.17-40.34-20.17s-40.34,9-40.34,20.17c0,4.84,2.15,6.41,2.15,8.81,0,5.58-15.59,12.52-15.59,24.81,0,18.57,24.08,33.61,53.79,33.61s53.79-15,53.79-33.61C223.26,95.47,206.72,88.41,206.72,83.21Z" transform="translate(0)"/><path class="c" d="M245.74,196.66A31.72,31.72,0,1,0,214,164.93,31.72,31.72,0,0,0,245.74,196.66Z" transform="translate(0)"/><path class="c" d="M290.13,199.86H279v0h-66.6v0h-11.1a15.86,15.86,0,0,0-15.86,15.86v96.08h22.37V230a3,3,0,1,1,6,0v81.85h63.59V230a3,3,0,1,1,6,0v81.85H306V215.72A15.86,15.86,0,0,0,290.13,199.86Z" transform="translate(0)"/><g class="f"><path class="c" d="M114.51,137.92a3,3,0,0,0-3-3h-0.23a3,3,0,0,0,0,5.9h0.23A3,3,0,0,0,114.51,137.92Z" transform="translate(0)"/><path class="c" d="M105.2,137.92a3,3,0,0,0-2.95-3H102a3,3,0,1,0,0,5.9h0.23A3,3,0,0,0,105.2,137.92Z" transform="translate(0)"/><path class="c" d="M95.89,137.92a3,3,0,0,0-3-3H92.71a3,3,0,1,0,0,5.9h0.23A3,3,0,0,0,95.89,137.92Z" transform="translate(0)"/><path class="c" d="M86.58,137.92a3,3,0,0,0-2.95-3H83.4a3,3,0,0,0,0,5.9h0.23A3,3,0,0,0,86.58,137.92Z" transform="translate(0)"/><path class="c" d="M77.27,137.92a3,3,0,0,0-3-3H74.1a3,3,0,1,0,0,5.9h0.23A3,3,0,0,0,77.27,137.92Z" transform="translate(0)"/><path class="c" d="M123.82,146.9a3,3,0,0,0-3-3h-0.23a3,3,0,0,0,0,5.9h0.23A3,3,0,0,0,123.82,146.9Z" transform="translate(0)"/><path class="c" d="M114.51,146.9a3,3,0,0,0-3-3h-0.23a3,3,0,0,0,0,5.9h0.23A3,3,0,0,0,114.51,146.9Z" transform="translate(0)"/><path class="c" d="M105.2,146.9a3,3,0,0,0-3-3H102a3,3,0,1,0,0,5.9h0.23A3,3,0,0,0,105.2,146.9Z" transform="translate(0)"/><path class="c" d="M95.89,146.9a3,3,0,0,0-3-3H92.71a3,3,0,0,0,0,5.9h0.23A3,3,0,0,0,95.89,146.9Z" transform="translate(0)"/><path class="c" d="M86.58,146.9a3,3,0,0,0-3-3H83.4a3,3,0,0,0,0,5.9h0.23A3,3,0,0,0,86.58,146.9Z" transform="translate(0)"/><path class="c" d="M77.28,146.9a3,3,0,0,0-3-3H74.1a3,3,0,1,0,0,5.9h0.23A3,3,0,0,0,77.28,146.9Z" transform="translate(0)"/><path class="c" d="M68,146.9a3,3,0,0,0-3-3H64.79a3,3,0,1,0,0,5.9H65A3,3,0,0,0,68,146.9Z" transform="translate(0)"/><path class="c" d="M123.82,155.87a3,3,0,0,0-3-3h-0.23a3,3,0,0,0,0,5.9h0.23A3,3,0,0,0,123.82,155.87Z" transform="translate(0)"/><path class="c" d="M114.51,155.87a3,3,0,0,0-3-3h-0.23a3,3,0,0,0,0,5.9h0.23A3,3,0,0,0,114.51,155.87Z" transform="translate(0)"/><path class="c" d="M105.2,155.87a3,3,0,0,0-3-3H102a3,3,0,1,0,0,5.9h0.23A3,3,0,0,0,105.2,155.87Z" transform="translate(0)"/><path class="c" d="M95.89,155.87a3,3,0,0,0-3-3H92.71a3,3,0,0,0,0,5.9h0.23A3,3,0,0,0,95.89,155.87Z" transform="translate(0)"/><path class="c" d="M86.58,155.87a3,3,0,0,0-3-3H83.4a3,3,0,0,0,0,5.9h0.23A3,3,0,0,0,86.58,155.87Z" transform="translate(0)"/><path class="c" d="M77.28,155.87a3,3,0,0,0-3-3H74.1a3,3,0,1,0,0,5.9h0.23A3,3,0,0,0,77.28,155.87Z" transform="translate(0)"/><path class="c" d="M68,155.87a3,3,0,0,0-3-3H64.79a3,3,0,0,0,0,5.9H65A3,3,0,0,0,68,155.87Z" transform="translate(0)"/><path class="c" d="M123.82,164.84a3,3,0,0,0-3-3h-0.23a3,3,0,0,0,0,5.9h0.23A3,3,0,0,0,123.82,164.84Z" transform="translate(0)"/><path class="c" d="M114.51,164.84a3,3,0,0,0-3-3h-0.23a3,3,0,0,0,0,5.9h0.23A3,3,0,0,0,114.51,164.84Z" transform="translate(0)"/><path class="c" d="M105.2,164.84a3,3,0,0,0-2.95-3H102a3,3,0,1,0,0,5.9h0.23A3,3,0,0,0,105.2,164.84Z" transform="translate(0)"/><path class="c" d="M95.89,164.84a3,3,0,0,0-3-3H92.71a3,3,0,1,0,0,5.9h0.23A3,3,0,0,0,95.89,164.84Z" transform="translate(0)"/><path class="c" d="M86.58,164.84a3,3,0,0,0-2.95-3H83.4a3,3,0,0,0,0,5.9h0.23A3,3,0,0,0,86.58,164.84Z" transform="translate(0)"/><path class="c" d="M77.27,164.84a3,3,0,0,0-3-3H74.1a3,3,0,1,0,0,5.9h0.23A3,3,0,0,0,77.27,164.84Z" transform="translate(0)"/><path class="c" d="M68,164.84a3,3,0,0,0-3-3H64.79a3,3,0,1,0,0,5.9H65A3,3,0,0,0,68,164.84Z" transform="translate(0)"/><path class="c" d="M123.82,173.81a3,3,0,0,0-3-3h-0.23a3,3,0,0,0,0,5.9h0.23A3,3,0,0,0,123.82,173.81Z" transform="translate(0)"/><path class="c" d="M114.51,173.81a3,3,0,0,0-3-3h-0.23a3,3,0,0,0,0,5.9h0.23A3,3,0,0,0,114.51,173.81Z" transform="translate(0)"/><path class="c" d="M105.2,173.81a3,3,0,0,0-3-3H102a3,3,0,1,0,0,5.9h0.23A3,3,0,0,0,105.2,173.81Z" transform="translate(0)"/><path class="c" d="M95.89,173.81a3,3,0,0,0-3-3H92.71a3,3,0,0,0,0,5.9h0.23A3,3,0,0,0,95.89,173.81Z" transform="translate(0)"/><path class="c" d="M86.58,173.81a3,3,0,0,0-3-3H83.4a3,3,0,0,0,0,5.9h0.23A3,3,0,0,0,86.58,173.81Z" transform="translate(0)"/><path class="c" d="M77.28,173.81a3,3,0,0,0-3-3H74.1a3,3,0,1,0,0,5.9h0.23A3,3,0,0,0,77.28,173.81Z" transform="translate(0)"/><path class="c" d="M68,173.81a3,3,0,0,0-3-3H64.79a3,3,0,0,0,0,5.9H65A3,3,0,0,0,68,173.81Z" transform="translate(0)"/><path class="c" d="M123.82,182.78a3,3,0,0,0-3-3h-0.23a3,3,0,1,0,0,5.9h0.23A3,3,0,0,0,123.82,182.78Z" transform="translate(0)"/><path class="c" d="M114.51,182.78a3,3,0,0,0-3-3h-0.23a3,3,0,0,0,0,5.9h0.23A3,3,0,0,0,114.51,182.78Z" transform="translate(0)"/><path class="c" d="M105.2,182.78a3,3,0,0,0-3-3H102a3,3,0,1,0,0,5.9h0.23A3,3,0,0,0,105.2,182.78Z" transform="translate(0)"/><path class="c" d="M95.89,182.78a3,3,0,0,0-3-3H92.71a3,3,0,0,0,0,5.9h0.23A3,3,0,0,0,95.89,182.78Z" transform="translate(0)"/><path class="c" d="M86.58,182.78a3,3,0,0,0-3-3H83.4a3,3,0,0,0,0,5.9h0.23A3,3,0,0,0,86.58,182.78Z" transform="translate(0)"/><path class="c" d="M77.28,182.78a3,3,0,0,0-3-3H74.1a3,3,0,1,0,0,5.9h0.23A3,3,0,0,0,77.28,182.78Z" transform="translate(0)"/><path class="c" d="M68,182.78a3,3,0,0,0-3-3H64.79a3,3,0,1,0,0,5.9H65A3,3,0,0,0,68,182.78Z" transform="translate(0)"/><path class="c" d="M114.51,191.75a3,3,0,0,0-3-3h-0.23a3,3,0,0,0,0,5.9h0.23A3,3,0,0,0,114.51,191.75Z" transform="translate(0)"/><path class="c" d="M105.2,191.75a3,3,0,0,0-2.95-3H102a3,3,0,1,0,0,5.9h0.23A3,3,0,0,0,105.2,191.75Z" transform="translate(0)"/><path class="c" d="M95.89,191.75a3,3,0,0,0-3-3H92.71a3,3,0,1,0,0,5.9h0.23A3,3,0,0,0,95.89,191.75Z" transform="translate(0)"/><path class="c" d="M86.58,191.75a3,3,0,0,0-2.95-3H83.4a3,3,0,0,0,0,5.9h0.23A3,3,0,0,0,86.58,191.75Z" transform="translate(0)"/><path class="c" d="M77.27,191.75a3,3,0,0,0-3-3H74.1a3,3,0,0,0,0,5.9h0.23A3,3,0,0,0,77.27,191.75Z" transform="translate(0)"/><path class="c" d="M142.44,200.72a3,3,0,0,0-3-3h-0.23a3,3,0,1,0,0,5.9h0.23A3,3,0,0,0,142.44,200.72Z" transform="translate(0)"/><path class="c" d="M133.12,200.72a3,3,0,0,0-3-3h-0.23a3,3,0,1,0,0,5.9h0.23A3,3,0,0,0,133.12,200.72Z" transform="translate(0)"/><path class="c" d="M123.82,200.72a3,3,0,0,0-3-3h-0.23a3,3,0,1,0,0,5.9h0.23A3,3,0,0,0,123.82,200.72Z" transform="translate(0)"/><path class="c" d="M114.51,200.72a3,3,0,0,0-3-3h-0.23a3,3,0,0,0,0,5.9h0.23A3,3,0,0,0,114.51,200.72Z" transform="translate(0)"/><path class="c" d="M105.2,200.72a3,3,0,0,0-3-3H102a3,3,0,1,0,0,5.9h0.23A3,3,0,0,0,105.2,200.72Z" transform="translate(0)"/><path class="c" d="M95.89,200.72a3,3,0,0,0-3-3H92.71a3,3,0,1,0,0,5.9h0.23A3,3,0,0,0,95.89,200.72Z" transform="translate(0)"/><path class="c" d="M86.58,200.72a3,3,0,0,0-3-3H83.4a3,3,0,1,0,0,5.9h0.23A3,3,0,0,0,86.58,200.72Z" transform="translate(0)"/><path class="c" d="M77.28,200.72a3,3,0,0,0-3-3H74.1a3,3,0,1,0,0,5.9h0.23A3,3,0,0,0,77.28,200.72Z" transform="translate(0)"/><path class="c" d="M68,200.72a3,3,0,0,0-3-3H64.79a3,3,0,1,0,0,5.9H65A3,3,0,0,0,68,200.72Z" transform="translate(0)"/><path class="c" d="M58.66,200.72a3,3,0,0,0-3-3H55.48a3,3,0,1,0,0,5.9h0.23A3,3,0,0,0,58.66,200.72Z" transform="translate(0)"/><path class="c" d="M49.35,200.72a3,3,0,0,0-3-3H46.17a3,3,0,1,0,0,5.9H46.4A3,3,0,0,0,49.35,200.72Z" transform="translate(0)"/><path class="c" d="M151.74,209.68a3,3,0,0,0-3-2.95h-0.23a3,3,0,0,0,0,5.9h0.23A3,3,0,0,0,151.74,209.68Z" transform="translate(0)"/><path class="c" d="M142.44,209.68a3,3,0,0,0-3-2.95h-0.23a3,3,0,1,0,0,5.9h0.23A3,3,0,0,0,142.44,209.68Z" transform="translate(0)"/><path class="c" d="M133.12,209.68a3,3,0,0,0-3-2.95h-0.23a3,3,0,1,0,0,5.9h0.23A3,3,0,0,0,133.12,209.68Z" transform="translate(0)"/><path class="c" d="M123.82,209.68a3,3,0,0,0-3-2.95h-0.23a3,3,0,1,0,0,5.9h0.23A3,3,0,0,0,123.82,209.68Z" transform="translate(0)"/><path class="c" d="M114.51,209.68a3,3,0,0,0-3-2.95h-0.23a3,3,0,0,0,0,5.9h0.23A3,3,0,0,0,114.51,209.68Z" transform="translate(0)"/><path class="c" d="M105.2,209.68a3,3,0,0,0-3-2.95H102a3,3,0,1,0,0,5.9h0.23A3,3,0,0,0,105.2,209.68Z" transform="translate(0)"/><path class="c" d="M95.89,209.68a3,3,0,0,0-3-2.95H92.71a3,3,0,1,0,0,5.9h0.23A3,3,0,0,0,95.89,209.68Z" transform="translate(0)"/><path class="c" d="M86.58,209.68a3,3,0,0,0-3-2.95H83.4a3,3,0,1,0,0,5.9h0.23A3,3,0,0,0,86.58,209.68Z" transform="translate(0)"/><path class="c" d="M77.28,209.68a3,3,0,0,0-3-2.95H74.1a3,3,0,1,0,0,5.9h0.23A3,3,0,0,0,77.28,209.68Z" transform="translate(0)"/><path class="c" d="M68,209.68a3,3,0,0,0-3-2.95H64.79a3,3,0,1,0,0,5.9H65A3,3,0,0,0,68,209.68Z" transform="translate(0)"/><path class="c" d="M58.66,209.68a3,3,0,0,0-3-2.95H55.48a3,3,0,1,0,0,5.9h0.23A3,3,0,0,0,58.66,209.68Z" transform="translate(0)"/><path class="c" d="M49.35,209.68a3,3,0,0,0-3-2.95H46.17a3,3,0,1,0,0,5.9H46.4A3,3,0,0,0,49.35,209.68Z" transform="translate(0)"/><path class="c" d="M40,209.68a3,3,0,0,0-3-2.95H36.86a3,3,0,1,0,0,5.9h0.23A3,3,0,0,0,40,209.68Z" transform="translate(0)"/><path class="c" d="M151.74,218.66a3,3,0,0,0-3-3h-0.23a3,3,0,0,0,0,5.9h0.23A3,3,0,0,0,151.74,218.66Z" transform="translate(0)"/><path class="c" d="M142.44,218.66a3,3,0,0,0-3-3h-0.23a3,3,0,0,0,0,5.9h0.23A3,3,0,0,0,142.44,218.66Z" transform="translate(0)"/><path class="c" d="M133.13,218.66a3,3,0,0,0-3-3h-0.23a3,3,0,1,0,0,5.9h0.23A3,3,0,0,0,133.13,218.66Z" transform="translate(0)"/><path class="c" d="M123.82,218.66a3,3,0,0,0-3-3h-0.23a3,3,0,1,0,0,5.9h0.23A3,3,0,0,0,123.82,218.66Z" transform="translate(0)"/><path class="c" d="M114.51,218.66a3,3,0,0,0-3-3h-0.23a3,3,0,0,0,0,5.9h0.23A3,3,0,0,0,114.51,218.66Z" transform="translate(0)"/><path class="c" d="M105.2,218.66a3,3,0,0,0-3-3H102a3,3,0,0,0,0,5.9h0.23A3,3,0,0,0,105.2,218.66Z" transform="translate(0)"/><path class="c" d="M95.89,218.66a3,3,0,0,0-3-3H92.71a3,3,0,1,0,0,5.9h0.23A3,3,0,0,0,95.89,218.66Z" transform="translate(0)"/><path class="c" d="M86.58,218.66a3,3,0,0,0-3-3H83.41a3,3,0,0,0,0,5.9h0.23A3,3,0,0,0,86.58,218.66Z" transform="translate(0)"/><path class="c" d="M77.28,218.66a3,3,0,0,0-3-3H74.1a3,3,0,0,0,0,5.9h0.23A3,3,0,0,0,77.28,218.66Z" transform="translate(0)"/><path class="c" d="M68,218.66a3,3,0,0,0-3-3H64.79a3,3,0,0,0,0,5.9H65A3,3,0,0,0,68,218.66Z" transform="translate(0)"/><path class="c" d="M58.66,218.66a3,3,0,0,0-3-3H55.48a3,3,0,1,0,0,5.9h0.23A3,3,0,0,0,58.66,218.66Z" transform="translate(0)"/><path class="c" d="M49.35,218.66a3,3,0,0,0-3-3H46.17a3,3,0,0,0,0,5.9H46.4A3,3,0,0,0,49.35,218.66Z" transform="translate(0)"/><path class="c" d="M40,218.66a3,3,0,0,0-3-3H36.86a3,3,0,0,0,0,5.9h0.23A3,3,0,0,0,40,218.66Z" transform="translate(0)"/><path class="c" d="M151.74,227.63a3,3,0,0,0-3-3h-0.23a3,3,0,1,0,0,5.9h0.23A3,3,0,0,0,151.74,227.63Z" transform="translate(0)"/><path class="c" d="M142.44,227.63a3,3,0,0,0-3-3h-0.23a3,3,0,1,0,0,5.9h0.23A3,3,0,0,0,142.44,227.63Z" transform="translate(0)"/><path class="c" d="M133.12,227.63a3,3,0,0,0-3-3h-0.23a3,3,0,1,0,0,5.9h0.23A3,3,0,0,0,133.12,227.63Z" transform="translate(0)"/><path class="c" d="M123.82,227.63a3,3,0,0,0-3-3h-0.23a3,3,0,1,0,0,5.9h0.23A3,3,0,0,0,123.82,227.63Z" transform="translate(0)"/><path class="c" d="M114.51,227.63a3,3,0,0,0-3-3h-0.23a3,3,0,0,0,0,5.9h0.23A3,3,0,0,0,114.51,227.63Z" transform="translate(0)"/><path class="c" d="M105.2,227.63a3,3,0,0,0-3-3H102a3,3,0,1,0,0,5.9h0.23A3,3,0,0,0,105.2,227.63Z" transform="translate(0)"/><path class="c" d="M95.89,227.63a3,3,0,0,0-3-3H92.71a3,3,0,1,0,0,5.9h0.23A3,3,0,0,0,95.89,227.63Z" transform="translate(0)"/><path class="c" d="M86.58,227.63a3,3,0,0,0-3-3H83.4a3,3,0,1,0,0,5.9h0.23A3,3,0,0,0,86.58,227.63Z" transform="translate(0)"/><path class="c" d="M77.28,227.63a3,3,0,0,0-3-3H74.1a3,3,0,1,0,0,5.9h0.23A3,3,0,0,0,77.28,227.63Z" transform="translate(0)"/><path class="c" d="M68,227.63a3,3,0,0,0-3-3H64.79a3,3,0,1,0,0,5.9H65A3,3,0,0,0,68,227.63Z" transform="translate(0)"/><path class="c" d="M58.66,227.63a3,3,0,0,0-3-3H55.48a3,3,0,1,0,0,5.9h0.23A3,3,0,0,0,58.66,227.63Z" transform="translate(0)"/><path class="c" d="M49.35,227.63a3,3,0,0,0-3-3H46.17a3,3,0,1,0,0,5.9H46.4A3,3,0,0,0,49.35,227.63Z" transform="translate(0)"/><path class="c" d="M40,227.63a3,3,0,0,0-3-3H36.86a3,3,0,1,0,0,5.9h0.23A3,3,0,0,0,40,227.63Z" transform="translate(0)"/><path class="c" d="M151.74,236.6a3,3,0,0,0-3-2.95h-0.22a3,3,0,1,0,0,5.9h0.22A3,3,0,0,0,151.74,236.6Z" transform="translate(0)"/><path class="c" d="M142.43,236.6a3,3,0,0,0-3-2.95h-0.23a3,3,0,1,0,0,5.9h0.23A3,3,0,0,0,142.43,236.6Z" transform="translate(0)"/><path class="c" d="M133.12,236.6a3,3,0,0,0-3-2.95h-0.23a3,3,0,1,0,0,5.9h0.23A3,3,0,0,0,133.12,236.6Z" transform="translate(0)"/><path class="c" d="M123.82,236.6a3,3,0,0,0-3-2.95h-0.23a3,3,0,1,0,0,5.9h0.23A3,3,0,0,0,123.82,236.6Z" transform="translate(0)"/><path class="c" d="M114.51,236.6a3,3,0,0,0-3-2.95h-0.23a3,3,0,1,0,0,5.9h0.23A3,3,0,0,0,114.51,236.6Z" transform="translate(0)"/><path class="c" d="M105.2,236.6a3,3,0,0,0-2.95-2.95H102a3,3,0,1,0,0,5.9h0.23A3,3,0,0,0,105.2,236.6Z" transform="translate(0)"/><path class="c" d="M95.89,236.6a3,3,0,0,0-3-2.95H92.71a3,3,0,1,0,0,5.9h0.23A3,3,0,0,0,95.89,236.6Z" transform="translate(0)"/><path class="c" d="M86.58,236.6a3,3,0,0,0-2.95-2.95H83.4a3,3,0,1,0,0,5.9h0.23A3,3,0,0,0,86.58,236.6Z" transform="translate(0)"/><path class="c" d="M77.27,236.6a3,3,0,0,0-3-2.95H74.1a3,3,0,1,0,0,5.9h0.23A3,3,0,0,0,77.27,236.6Z" transform="translate(0)"/><path class="c" d="M68,236.6a3,3,0,0,0-3-2.95H64.79a3,3,0,1,0,0,5.9H65A3,3,0,0,0,68,236.6Z" transform="translate(0)"/><path class="c" d="M58.66,236.6a3,3,0,0,0-3-2.95H55.48a3,3,0,1,0,0,5.9h0.23A3,3,0,0,0,58.66,236.6Z" transform="translate(0)"/><path class="c" d="M49.35,236.6a3,3,0,0,0-3-2.95H46.17a3,3,0,1,0,0,5.9H46.4A3,3,0,0,0,49.35,236.6Z" transform="translate(0)"/><path class="c" d="M40,236.6a3,3,0,0,0-3-2.95H36.86a3,3,0,1,0,0,5.9h0.23A3,3,0,0,0,40,236.6Z" transform="translate(0)"/><path class="c" d="M151.74,245.57a3,3,0,0,0-3-3h-0.23a3,3,0,0,0,0,5.9h0.23A3,3,0,0,0,151.74,245.57Z" transform="translate(0)"/><path class="c" d="M142.44,245.57a3,3,0,0,0-3-3h-0.23a3,3,0,0,0,0,5.9h0.23A3,3,0,0,0,142.44,245.57Z" transform="translate(0)"/><path class="c" d="M133.13,245.57a3,3,0,0,0-3-3h-0.23a3,3,0,1,0,0,5.9h0.23A3,3,0,0,0,133.13,245.57Z" transform="translate(0)"/><path class="c" d="M123.82,245.57a3,3,0,0,0-3-3h-0.23a3,3,0,1,0,0,5.9h0.23A3,3,0,0,0,123.82,245.57Z" transform="translate(0)"/><path class="c" d="M114.51,245.57a3,3,0,0,0-3-3h-0.23a3,3,0,0,0,0,5.9h0.23A3,3,0,0,0,114.51,245.57Z" transform="translate(0)"/><path class="c" d="M105.2,245.57a3,3,0,0,0-3-3H102a3,3,0,1,0,0,5.9h0.23A3,3,0,0,0,105.2,245.57Z" transform="translate(0)"/><path class="c" d="M95.89,245.57a3,3,0,0,0-3-3H92.71a3,3,0,1,0,0,5.9h0.23A3,3,0,0,0,95.89,245.57Z" transform="translate(0)"/><path class="c" d="M86.58,245.57a3,3,0,0,0-3-3H83.41a3,3,0,0,0,0,5.9h0.23A3,3,0,0,0,86.58,245.57Z" transform="translate(0)"/><path class="c" d="M77.28,245.57a3,3,0,0,0-3-3H74.1a3,3,0,0,0,0,5.9h0.23A3,3,0,0,0,77.28,245.57Z" transform="translate(0)"/><path class="c" d="M68,245.57a3,3,0,0,0-3-3H64.79a3,3,0,1,0,0,5.9H65A3,3,0,0,0,68,245.57Z" transform="translate(0)"/><path class="c" d="M58.66,245.57a3,3,0,0,0-3-3H55.48a3,3,0,1,0,0,5.9h0.23A3,3,0,0,0,58.66,245.57Z" transform="translate(0)"/><path class="c" d="M49.35,245.57a3,3,0,0,0-3-3H46.17a3,3,0,0,0,0,5.9H46.4A3,3,0,0,0,49.35,245.57Z" transform="translate(0)"/><path class="c" d="M40,245.57a3,3,0,0,0-3-3H36.86a3,3,0,1,0,0,5.9h0.23A3,3,0,0,0,40,245.57Z" transform="translate(0)"/><path class="c" d="M151.74,254.54a3,3,0,0,0-3-3h-0.23a3,3,0,0,0,0,5.91h0.23A3,3,0,0,0,151.74,254.54Z" transform="translate(0)"/><path class="c" d="M142.44,254.54a3,3,0,0,0-3-3h-0.23a3,3,0,0,0,0,5.91h0.23A3,3,0,0,0,142.44,254.54Z" transform="translate(0)"/><path class="c" d="M133.13,254.54a3,3,0,0,0-3-3h-0.23a3,3,0,1,0,0,5.91h0.23A3,3,0,0,0,133.13,254.54Z" transform="translate(0)"/><path class="c" d="M123.82,254.54a3,3,0,0,0-3-3h-0.23a3,3,0,0,0,0,5.91h0.23A3,3,0,0,0,123.82,254.54Z" transform="translate(0)"/><path class="c" d="M114.51,254.54a3,3,0,0,0-3-3h-0.23a3,3,0,0,0,0,5.91h0.23A3,3,0,0,0,114.51,254.54Z" transform="translate(0)"/><path class="c" d="M105.2,254.54a3,3,0,0,0-3-3H102a3,3,0,0,0,0,5.91h0.23A3,3,0,0,0,105.2,254.54Z" transform="translate(0)"/><path class="c" d="M95.89,254.54a3,3,0,0,0-3-3H92.71a3,3,0,1,0,0,5.91h0.23A3,3,0,0,0,95.89,254.54Z" transform="translate(0)"/><path class="c" d="M86.58,254.54a3,3,0,0,0-3-3H83.41a3,3,0,0,0,0,5.91h0.23A3,3,0,0,0,86.58,254.54Z" transform="translate(0)"/><path class="c" d="M77.28,254.54a3,3,0,0,0-3-3H74.1a3,3,0,0,0,0,5.91h0.23A3,3,0,0,0,77.28,254.54Z" transform="translate(0)"/><path class="c" d="M68,254.54a3,3,0,0,0-3-3H64.79a3,3,0,0,0,0,5.91H65A3,3,0,0,0,68,254.54Z" transform="translate(0)"/><path class="c" d="M58.66,254.54a3,3,0,0,0-3-3H55.48a3,3,0,0,0,0,5.91h0.23A3,3,0,0,0,58.66,254.54Z" transform="translate(0)"/><path class="c" d="M49.35,254.54a3,3,0,0,0-3-3H46.17a3,3,0,0,0,0,5.91H46.4A3,3,0,0,0,49.35,254.54Z" transform="translate(0)"/><path class="c" d="M40,254.54a3,3,0,0,0-3-3H36.86a3,3,0,0,0,0,5.91h0.23A3,3,0,0,0,40,254.54Z" transform="translate(0)"/><path class="c" d="M151.74,263.51a3,3,0,0,0-3-3h-0.23a3,3,0,0,0,0,5.91h0.23A3,3,0,0,0,151.74,263.51Z" transform="translate(0)"/><path class="c" d="M142.44,263.51a3,3,0,0,0-3-3h-0.23a3,3,0,0,0,0,5.91h0.23A3,3,0,0,0,142.44,263.51Z" transform="translate(0)"/><path class="c" d="M133.12,263.51a3,3,0,0,0-3-3h-0.23a3,3,0,0,0,0,5.91h0.23A3,3,0,0,0,133.12,263.51Z" transform="translate(0)"/><path class="c" d="M123.82,263.51a3,3,0,0,0-3-3h-0.23a3,3,0,0,0,0,5.91h0.23A3,3,0,0,0,123.82,263.51Z" transform="translate(0)"/><path class="c" d="M114.51,263.51a3,3,0,0,0-3-3h-0.23a3,3,0,0,0,0,5.91h0.23A3,3,0,0,0,114.51,263.51Z" transform="translate(0)"/><path class="c" d="M105.2,263.51a3,3,0,0,0-3-3H102a3,3,0,0,0,0,5.91h0.23A3,3,0,0,0,105.2,263.51Z" transform="translate(0)"/><path class="c" d="M95.89,263.51a3,3,0,0,0-3-3H92.71a3,3,0,0,0,0,5.91h0.23A3,3,0,0,0,95.89,263.51Z" transform="translate(0)"/><path class="c" d="M86.58,263.51a3,3,0,0,0-3-3H83.4a3,3,0,0,0,0,5.91h0.23A3,3,0,0,0,86.58,263.51Z" transform="translate(0)"/><path class="c" d="M77.28,263.51a3,3,0,0,0-3-3H74.1a3,3,0,0,0,0,5.91h0.23A3,3,0,0,0,77.28,263.51Z" transform="translate(0)"/><path class="c" d="M68,263.51a3,3,0,0,0-3-3H64.79a3,3,0,0,0,0,5.91H65A3,3,0,0,0,68,263.51Z" transform="translate(0)"/><path class="c" d="M58.66,263.51a3,3,0,0,0-3-3H55.48a3,3,0,0,0,0,5.91h0.23A3,3,0,0,0,58.66,263.51Z" transform="translate(0)"/><path class="c" d="M49.35,263.51a3,3,0,0,0-3-3H46.17a3,3,0,0,0,0,5.91H46.4A3,3,0,0,0,49.35,263.51Z" transform="translate(0)"/><path class="c" d="M40,263.51a3,3,0,0,0-3-3H36.86a3,3,0,0,0,0,5.91h0.23A3,3,0,0,0,40,263.51Z" transform="translate(0)"/><path class="c" d="M151.74,272.48a3,3,0,0,0-3-3h-0.23a3,3,0,0,0,0,5.9h0.23A3,3,0,0,0,151.74,272.48Z" transform="translate(0)"/><path class="c" d="M142.44,272.48a3,3,0,0,0-3-3h-0.23a3,3,0,1,0,0,5.9h0.23A3,3,0,0,0,142.44,272.48Z" transform="translate(0)"/><path class="c" d="M133.12,272.48a3,3,0,0,0-3-3h-0.23a3,3,0,0,0,0,5.9h0.23A3,3,0,0,0,133.12,272.48Z" transform="translate(0)"/><path class="c" d="M123.82,272.48a3,3,0,0,0-3-3h-0.23a3,3,0,0,0,0,5.9h0.23A3,3,0,0,0,123.82,272.48Z" transform="translate(0)"/><path class="c" d="M114.51,272.48a3,3,0,0,0-3-3h-0.23a3,3,0,0,0,0,5.9h0.23A3,3,0,0,0,114.51,272.48Z" transform="translate(0)"/><path class="c" d="M105.2,272.48a3,3,0,0,0-3-3H102a3,3,0,1,0,0,5.9h0.23A3,3,0,0,0,105.2,272.48Z" transform="translate(0)"/><path class="c" d="M95.89,272.48a3,3,0,0,0-3-3H92.71a3,3,0,0,0,0,5.9h0.23A3,3,0,0,0,95.89,272.48Z" transform="translate(0)"/><path class="c" d="M86.58,272.48a3,3,0,0,0-3-3H83.4a3,3,0,0,0,0,5.9h0.23A3,3,0,0,0,86.58,272.48Z" transform="translate(0)"/><path class="c" d="M77.28,272.48a3,3,0,0,0-3-3H74.1a3,3,0,1,0,0,5.9h0.23A3,3,0,0,0,77.28,272.48Z" transform="translate(0)"/><path class="c" d="M68,272.48a3,3,0,0,0-3-3H64.79a3,3,0,1,0,0,5.9H65A3,3,0,0,0,68,272.48Z" transform="translate(0)"/><path class="c" d="M58.66,272.48a3,3,0,0,0-3-3H55.48a3,3,0,0,0,0,5.9h0.23A3,3,0,0,0,58.66,272.48Z" transform="translate(0)"/><path class="c" d="M49.35,272.48a3,3,0,0,0-3-3H46.17a3,3,0,0,0,0,5.9H46.4A3,3,0,0,0,49.35,272.48Z" transform="translate(0)"/><path class="c" d="M40,272.48a3,3,0,0,0-3-3H36.86a3,3,0,1,0,0,5.9h0.23A3,3,0,0,0,40,272.48Z" transform="translate(0)"/><path class="c" d="M151.74,281.46a3,3,0,0,0-3-3h-0.23a3,3,0,0,0,0,5.9h0.23A3,3,0,0,0,151.74,281.46Z" transform="translate(0)"/><path class="c" d="M142.44,281.46a3,3,0,0,0-3-3h-0.23a3,3,0,1,0,0,5.9h0.23A3,3,0,0,0,142.44,281.46Z" transform="translate(0)"/><path class="c" d="M133.12,281.46a3,3,0,0,0-3-3h-0.23a3,3,0,1,0,0,5.9h0.23A3,3,0,0,0,133.12,281.46Z" transform="translate(0)"/><path class="c" d="M123.82,281.46a3,3,0,0,0-3-3h-0.23a3,3,0,1,0,0,5.9h0.23A3,3,0,0,0,123.82,281.46Z" transform="translate(0)"/><path class="c" d="M114.51,281.46a3,3,0,0,0-3-3h-0.23a3,3,0,0,0,0,5.9h0.23A3,3,0,0,0,114.51,281.46Z" transform="translate(0)"/><path class="c" d="M105.2,281.46a3,3,0,0,0-3-3H102a3,3,0,1,0,0,5.9h0.23A3,3,0,0,0,105.2,281.46Z" transform="translate(0)"/><path class="c" d="M95.89,281.46a3,3,0,0,0-3-3H92.71a3,3,0,1,0,0,5.9h0.23A3,3,0,0,0,95.89,281.46Z" transform="translate(0)"/><path class="c" d="M86.58,281.46a3,3,0,0,0-3-3H83.4a3,3,0,0,0,0,5.9h0.23A3,3,0,0,0,86.58,281.46Z" transform="translate(0)"/><path class="c" d="M77.28,281.46a3,3,0,0,0-3-3H74.1a3,3,0,1,0,0,5.9h0.23A3,3,0,0,0,77.28,281.46Z" transform="translate(0)"/><path class="c" d="M68,281.46a3,3,0,0,0-3-3H64.79a3,3,0,1,0,0,5.9H65A3,3,0,0,0,68,281.46Z" transform="translate(0)"/><path class="c" d="M58.66,281.46a3,3,0,0,0-3-3H55.48a3,3,0,1,0,0,5.9h0.23A3,3,0,0,0,58.66,281.46Z" transform="translate(0)"/><path class="c" d="M49.35,281.46a3,3,0,0,0-3-3H46.17a3,3,0,1,0,0,5.9H46.4A3,3,0,0,0,49.35,281.46Z" transform="translate(0)"/><path class="c" d="M40,281.46a3,3,0,0,0-3-3H36.86a3,3,0,1,0,0,5.9h0.23A3,3,0,0,0,40,281.46Z" transform="translate(0)"/><path class="c" d="M151.74,290.42a3,3,0,0,0-3-3h-0.23a3,3,0,0,0,0,5.91h0.23A3,3,0,0,0,151.74,290.42Z" transform="translate(0)"/><path class="c" d="M142.44,290.42a3,3,0,0,0-3-3h-0.23a3,3,0,0,0,0,5.91h0.23A3,3,0,0,0,142.44,290.42Z" transform="translate(0)"/><path class="c" d="M133.12,290.42a3,3,0,0,0-3-3h-0.23a3,3,0,0,0,0,5.91h0.23A3,3,0,0,0,133.12,290.42Z" transform="translate(0)"/><path class="c" d="M123.82,290.42a3,3,0,0,0-3-3h-0.23a3,3,0,0,0,0,5.91h0.23A3,3,0,0,0,123.82,290.42Z" transform="translate(0)"/><path class="c" d="M114.51,290.42a3,3,0,0,0-3-3h-0.23a3,3,0,0,0,0,5.91h0.23A3,3,0,0,0,114.51,290.42Z" transform="translate(0)"/><path class="c" d="M105.2,290.42a3,3,0,0,0-3-3H102a3,3,0,0,0,0,5.91h0.23A3,3,0,0,0,105.2,290.42Z" transform="translate(0)"/><path class="c" d="M95.89,290.42a3,3,0,0,0-3-3H92.71a3,3,0,0,0,0,5.91h0.23A3,3,0,0,0,95.89,290.42Z" transform="translate(0)"/><path class="c" d="M86.58,290.42a3,3,0,0,0-3-3H83.4a3,3,0,0,0,0,5.91h0.23A3,3,0,0,0,86.58,290.42Z" transform="translate(0)"/><path class="c" d="M77.28,290.42a3,3,0,0,0-3-3H74.1a3,3,0,0,0,0,5.91h0.23A3,3,0,0,0,77.28,290.42Z" transform="translate(0)"/><path class="c" d="M68,290.42a3,3,0,0,0-3-3H64.79a3,3,0,0,0,0,5.91H65A3,3,0,0,0,68,290.42Z" transform="translate(0)"/><path class="c" d="M58.66,290.42a3,3,0,0,0-3-3H55.48a3,3,0,0,0,0,5.91h0.23A3,3,0,0,0,58.66,290.42Z" transform="translate(0)"/><path class="c" d="M49.35,290.42a3,3,0,0,0-3-3H46.17a3,3,0,0,0,0,5.91H46.4A3,3,0,0,0,49.35,290.42Z" transform="translate(0)"/><path class="c" d="M40,290.42a3,3,0,0,0-3-3H36.86a3,3,0,0,0,0,5.91h0.23A3,3,0,0,0,40,290.42Z" transform="translate(0)"/><path class="c" d="M151.74,299.39a3,3,0,0,0-3-3h-0.23a3,3,0,0,0,0,5.9h0.23A3,3,0,0,0,151.74,299.39Z" transform="translate(0)"/><path class="c" d="M142.44,299.39a3,3,0,0,0-3-3h-0.23a3,3,0,0,0,0,5.9h0.23A3,3,0,0,0,142.44,299.39Z" transform="translate(0)"/><path class="c" d="M133.13,299.39a3,3,0,0,0-3-3h-0.23a3,3,0,1,0,0,5.9h0.23A3,3,0,0,0,133.13,299.39Z" transform="translate(0)"/><path class="c" d="M123.82,299.39a3,3,0,0,0-3-3h-0.23a3,3,0,1,0,0,5.9h0.23A3,3,0,0,0,123.82,299.39Z" transform="translate(0)"/><path class="c" d="M114.51,299.39a3,3,0,0,0-3-3h-0.23a3,3,0,0,0,0,5.9h0.23A3,3,0,0,0,114.51,299.39Z" transform="translate(0)"/><path class="c" d="M105.2,299.39a3,3,0,0,0-3-3H102a3,3,0,1,0,0,5.9h0.23A3,3,0,0,0,105.2,299.39Z" transform="translate(0)"/><path class="c" d="M95.89,299.39a3,3,0,0,0-3-3H92.71a3,3,0,1,0,0,5.9h0.23A3,3,0,0,0,95.89,299.39Z" transform="translate(0)"/><path class="c" d="M86.58,299.39a3,3,0,0,0-3-3H83.41a3,3,0,1,0,0,5.9h0.23A3,3,0,0,0,86.58,299.39Z" transform="translate(0)"/><path class="c" d="M77.28,299.39a3,3,0,0,0-3-3H74.1a3,3,0,1,0,0,5.9h0.23A3,3,0,0,0,77.28,299.39Z" transform="translate(0)"/><path class="c" d="M68,299.39a3,3,0,0,0-3-3H64.79a3,3,0,1,0,0,5.9H65A3,3,0,0,0,68,299.39Z" transform="translate(0)"/><path class="c" d="M58.66,299.39a3,3,0,0,0-3-3H55.48a3,3,0,1,0,0,5.9h0.23A3,3,0,0,0,58.66,299.39Z" transform="translate(0)"/><path class="c" d="M49.35,299.39a3,3,0,0,0-3-3H46.17a3,3,0,1,0,0,5.9H46.4A3,3,0,0,0,49.35,299.39Z" transform="translate(0)"/><path class="c" d="M40,299.39a3,3,0,0,0-3-3H36.86a3,3,0,1,0,0,5.9h0.23A3,3,0,0,0,40,299.39Z" transform="translate(0)"/><path class="c" d="M151.74,308.37a3,3,0,0,0-3-3h-0.22a3,3,0,0,0,0,5.91h0.22A3,3,0,0,0,151.74,308.37Z" transform="translate(0)"/><path class="c" d="M142.43,308.37a3,3,0,0,0-3-3h-0.23a3,3,0,0,0,0,5.91h0.23A3,3,0,0,0,142.43,308.37Z" transform="translate(0)"/><path class="c" d="M133.12,308.37a3,3,0,0,0-3-3h-0.23a3,3,0,0,0,0,5.91h0.23A3,3,0,0,0,133.12,308.37Z" transform="translate(0)"/><path class="c" d="M123.82,308.37a3,3,0,0,0-3-3h-0.23a3,3,0,0,0,0,5.91h0.23A3,3,0,0,0,123.82,308.37Z" transform="translate(0)"/><path class="c" d="M114.51,308.37a3,3,0,0,0-3-3h-0.23a3,3,0,0,0,0,5.91h0.23A3,3,0,0,0,114.51,308.37Z" transform="translate(0)"/><path class="c" d="M105.2,308.37a3,3,0,0,0-2.95-3H102a3,3,0,0,0,0,5.91h0.23A3,3,0,0,0,105.2,308.37Z" transform="translate(0)"/><path class="c" d="M95.89,308.37a3,3,0,0,0-3-3H92.71a3,3,0,0,0,0,5.91h0.23A3,3,0,0,0,95.89,308.37Z" transform="translate(0)"/><path class="c" d="M86.58,308.37a3,3,0,0,0-2.95-3H83.4a3,3,0,0,0,0,5.91h0.23A3,3,0,0,0,86.58,308.37Z" transform="translate(0)"/><path class="c" d="M77.27,308.37a3,3,0,0,0-3-3H74.1a3,3,0,0,0,0,5.91h0.23A3,3,0,0,0,77.27,308.37Z" transform="translate(0)"/><path class="c" d="M68,308.37a3,3,0,0,0-3-3H64.79a3,3,0,0,0,0,5.91H65A3,3,0,0,0,68,308.37Z" transform="translate(0)"/><path class="c" d="M58.66,308.37a3,3,0,0,0-3-3H55.48a3,3,0,0,0,0,5.91h0.23A3,3,0,0,0,58.66,308.37Z" transform="translate(0)"/><path class="c" d="M49.35,308.37a3,3,0,0,0-3-3H46.17a3,3,0,0,0,0,5.91H46.4A3,3,0,0,0,49.35,308.37Z" transform="translate(0)"/><path class="c" d="M40,308.37a3,3,0,0,0-3-3H36.86a3,3,0,0,0,0,5.91h0.23A3,3,0,0,0,40,308.37Z" transform="translate(0)"/><path class="c" d="M151.74,317.33a3,3,0,0,0-3-2.95h-0.23a3,3,0,0,0,0,5.91h0.23A3,3,0,0,0,151.74,317.33Z" transform="translate(0)"/><path class="c" d="M142.44,317.33a3,3,0,0,0-3-2.95h-0.23a3,3,0,0,0,0,5.91h0.23A3,3,0,0,0,142.44,317.33Z" transform="translate(0)"/><path class="c" d="M133.13,317.33a3,3,0,0,0-3-2.95h-0.23a3,3,0,1,0,0,5.91h0.23A3,3,0,0,0,133.13,317.33Z" transform="translate(0)"/><path class="c" d="M123.82,317.33a3,3,0,0,0-3-2.95h-0.23a3,3,0,0,0,0,5.91h0.23A3,3,0,0,0,123.82,317.33Z" transform="translate(0)"/><path class="c" d="M114.51,317.33a3,3,0,0,0-3-2.95h-0.23a3,3,0,0,0,0,5.91h0.23A3,3,0,0,0,114.51,317.33Z" transform="translate(0)"/><path class="c" d="M105.2,317.33a3,3,0,0,0-3-2.95H102a3,3,0,0,0,0,5.91h0.23A3,3,0,0,0,105.2,317.33Z" transform="translate(0)"/><path class="c" d="M95.89,317.33a3,3,0,0,0-3-2.95H92.71a3,3,0,0,0,0,5.91h0.23A3,3,0,0,0,95.89,317.33Z" transform="translate(0)"/><path class="c" d="M86.58,317.33a3,3,0,0,0-3-2.95H83.41a3,3,0,0,0,0,5.91h0.23A3,3,0,0,0,86.58,317.33Z" transform="translate(0)"/><path class="c" d="M77.28,317.33a3,3,0,0,0-3-2.95H74.1a3,3,0,0,0,0,5.91h0.23A3,3,0,0,0,77.28,317.33Z" transform="translate(0)"/><path class="c" d="M68,317.33a3,3,0,0,0-3-2.95H64.79a3,3,0,0,0,0,5.91H65A3,3,0,0,0,68,317.33Z" transform="translate(0)"/><path class="c" d="M58.66,317.33a3,3,0,0,0-3-2.95H55.48a3,3,0,0,0,0,5.91h0.23A3,3,0,0,0,58.66,317.33Z" transform="translate(0)"/><path class="c" d="M49.35,317.33a3,3,0,0,0-3-2.95H46.17a3,3,0,0,0,0,5.91H46.4A3,3,0,0,0,49.35,317.33Z" transform="translate(0)"/><path class="c" d="M40,317.33a3,3,0,0,0-3-2.95H36.86a3,3,0,0,0,0,5.91h0.23A3,3,0,0,0,40,317.33Z" transform="translate(0)"/><path class="c" d="M151.74,326.31a3,3,0,0,0-3-3h-0.23a3,3,0,0,0,0,5.9h0.23A3,3,0,0,0,151.74,326.31Z" transform="translate(0)"/><path class="c" d="M142.43,326.31a3,3,0,0,0-3-3h-0.23a3,3,0,0,0,0,5.9h0.23A3,3,0,0,0,142.43,326.31Z" transform="translate(0)"/><path class="c" d="M133.12,326.31a3,3,0,0,0-3-3h-0.23a3,3,0,0,0,0,5.9h0.23A3,3,0,0,0,133.12,326.31Z" transform="translate(0)"/><path class="c" d="M123.82,326.31a3,3,0,0,0-3-3h-0.23a3,3,0,0,0,0,5.9h0.23A3,3,0,0,0,123.82,326.31Z" transform="translate(0)"/><path class="c" d="M114.51,326.31a3,3,0,0,0-3-3h-0.23a3,3,0,0,0,0,5.9h0.23A3,3,0,0,0,114.51,326.31Z" transform="translate(0)"/><path class="c" d="M105.2,326.31a3,3,0,0,0-2.95-3H102a3,3,0,1,0,0,5.9h0.23A3,3,0,0,0,105.2,326.31Z" transform="translate(0)"/><path class="c" d="M95.89,326.31a3,3,0,0,0-3-3H92.71a3,3,0,1,0,0,5.9h0.23A3,3,0,0,0,95.89,326.31Z" transform="translate(0)"/><path class="c" d="M86.58,326.31a3,3,0,0,0-2.95-3H83.4a3,3,0,0,0,0,5.9h0.23A3,3,0,0,0,86.58,326.31Z" transform="translate(0)"/><path class="c" d="M77.27,326.31a3,3,0,0,0-3-3H74.1a3,3,0,1,0,0,5.9h0.23A3,3,0,0,0,77.27,326.31Z" transform="translate(0)"/><path class="c" d="M68,326.31a3,3,0,0,0-3-3H64.79a3,3,0,1,0,0,5.9H65A3,3,0,0,0,68,326.31Z" transform="translate(0)"/><path class="c" d="M58.66,326.31a3,3,0,0,0-3-3H55.48a3,3,0,1,0,0,5.9h0.23A3,3,0,0,0,58.66,326.31Z" transform="translate(0)"/><path class="c" d="M49.35,326.31a3,3,0,0,0-3-3H46.17a3,3,0,0,0,0,5.9H46.4A3,3,0,0,0,49.35,326.31Z" transform="translate(0)"/><path class="c" d="M40,326.31a3,3,0,0,0-3-3H36.86a3,3,0,0,0,0,5.9h0.23A3,3,0,0,0,40,326.31Z" transform="translate(0)"/><path class="c" d="M151.74,335.28a3,3,0,0,0-3-3h-0.23a3,3,0,0,0,0,5.9h0.23A3,3,0,0,0,151.74,335.28Z" transform="translate(0)"/><path class="c" d="M142.44,335.28a3,3,0,0,0-3-3h-0.23a3,3,0,1,0,0,5.9h0.23A3,3,0,0,0,142.44,335.28Z" transform="translate(0)"/><path class="c" d="M133.12,335.28a3,3,0,0,0-3-3h-0.23a3,3,0,1,0,0,5.9h0.23A3,3,0,0,0,133.12,335.28Z" transform="translate(0)"/><path class="c" d="M123.82,335.28a3,3,0,0,0-3-3h-0.23a3,3,0,0,0,0,5.9h0.23A3,3,0,0,0,123.82,335.28Z" transform="translate(0)"/><path class="c" d="M114.51,335.28a3,3,0,0,0-3-3h-0.23a3,3,0,0,0,0,5.9h0.23A3,3,0,0,0,114.51,335.28Z" transform="translate(0)"/><path class="c" d="M105.2,335.28a3,3,0,0,0-3-3H102a3,3,0,1,0,0,5.9h0.23A3,3,0,0,0,105.2,335.28Z" transform="translate(0)"/><path class="c" d="M95.89,335.28a3,3,0,0,0-3-3H92.71a3,3,0,0,0,0,5.9h0.23A3,3,0,0,0,95.89,335.28Z" transform="translate(0)"/><path class="c" d="M86.58,335.28a3,3,0,0,0-3-3H83.4a3,3,0,0,0,0,5.9h0.23A3,3,0,0,0,86.58,335.28Z" transform="translate(0)"/><path class="c" d="M77.28,335.28a3,3,0,0,0-3-3H74.1a3,3,0,1,0,0,5.9h0.23A3,3,0,0,0,77.28,335.28Z" transform="translate(0)"/><path class="c" d="M68,335.28a3,3,0,0,0-3-3H64.79a3,3,0,1,0,0,5.9H65A3,3,0,0,0,68,335.28Z" transform="translate(0)"/><path class="c" d="M58.66,335.28a3,3,0,0,0-3-3H55.48a3,3,0,0,0,0,5.9h0.23A3,3,0,0,0,58.66,335.28Z" transform="translate(0)"/><path class="c" d="M49.35,335.28a3,3,0,0,0-3-3H46.17a3,3,0,0,0,0,5.9H46.4A3,3,0,0,0,49.35,335.28Z" transform="translate(0)"/><path class="c" d="M40,335.28a3,3,0,0,0-3-3H36.86a3,3,0,1,0,0,5.9h0.23A3,3,0,0,0,40,335.28Z" transform="translate(0)"/><path class="c" d="M151.74,344.24a3,3,0,0,0-3-3h-0.23a2.95,2.95,0,1,0,0,5.9h0.23A3,3,0,0,0,151.74,344.24Z" transform="translate(0)"/><path class="c" d="M142.44,344.24a3,3,0,0,0-3-3h-0.23a2.95,2.95,0,1,0,0,5.9h0.23A3,3,0,0,0,142.44,344.24Z" transform="translate(0)"/><path class="c" d="M133.13,344.24a3,3,0,0,0-3-3h-0.23a2.95,2.95,0,1,0,0,5.9h0.23A3,3,0,0,0,133.13,344.24Z" transform="translate(0)"/><path class="c" d="M123.82,344.24a3,3,0,0,0-3-3h-0.23a2.95,2.95,0,1,0,0,5.9h0.23A3,3,0,0,0,123.82,344.24Z" transform="translate(0)"/><path class="c" d="M114.51,344.24a3,3,0,0,0-3-3h-0.23a2.95,2.95,0,1,0,0,5.9h0.23A3,3,0,0,0,114.51,344.24Z" transform="translate(0)"/><path class="c" d="M105.2,344.24a3,3,0,0,0-3-3H102a2.95,2.95,0,1,0,0,5.9h0.23A3,3,0,0,0,105.2,344.24Z" transform="translate(0)"/><path class="c" d="M86.58,344.24a3,3,0,0,0-3-3H83.41a2.95,2.95,0,1,0,0,5.9h0.23A3,3,0,0,0,86.58,344.24Z" transform="translate(0)"/><path class="c" d="M77.28,344.24a3,3,0,0,0-3-3H74.1a2.95,2.95,0,1,0,0,5.9h0.23A3,3,0,0,0,77.28,344.24Z" transform="translate(0)"/><path class="c" d="M68,344.24a3,3,0,0,0-3-3H64.79a2.95,2.95,0,1,0,0,5.9H65A3,3,0,0,0,68,344.24Z" transform="translate(0)"/><path class="c" d="M58.66,344.24a3,3,0,0,0-3-3H55.48a2.95,2.95,0,1,0,0,5.9h0.23A3,3,0,0,0,58.66,344.24Z" transform="translate(0)"/><path class="c" d="M49.35,344.24a3,3,0,0,0-3-3H46.17a2.95,2.95,0,1,0,0,5.9H46.4A3,3,0,0,0,49.35,344.24Z" transform="translate(0)"/><path class="c" d="M40,344.24a3,3,0,0,0-3-3H36.86a2.95,2.95,0,1,0,0,5.9h0.23A3,3,0,0,0,40,344.24Z" transform="translate(0)"/><path class="c" d="M151.74,353.22a3,3,0,0,0-3-3h-0.23a3,3,0,0,0,0,5.9h0.23A3,3,0,0,0,151.74,353.22Z" transform="translate(0)"/><path class="c" d="M142.43,353.22a3,3,0,0,0-3-3h-0.23a3,3,0,0,0,0,5.9h0.23A3,3,0,0,0,142.43,353.22Z" transform="translate(0)"/><path class="c" d="M123.82,353.22a3,3,0,0,0-3-3h-0.23a3,3,0,0,0,0,5.9h0.23A3,3,0,0,0,123.82,353.22Z" transform="translate(0)"/><path class="c" d="M114.51,353.22a3,3,0,0,0-3-3h-0.23a3,3,0,0,0,0,5.9h0.23A3,3,0,0,0,114.51,353.22Z" transform="translate(0)"/><path class="c" d="M105.2,353.22a3,3,0,0,0-2.95-3H102a3,3,0,1,0,0,5.9h0.23A3,3,0,0,0,105.2,353.22Z" transform="translate(0)"/><path class="c" d="M86.58,353.22a3,3,0,0,0-2.95-3H83.4a3,3,0,0,0,0,5.9h0.23A3,3,0,0,0,86.58,353.22Z" transform="translate(0)"/><path class="c" d="M77.27,353.22a3,3,0,0,0-3-3H74.1a3,3,0,0,0,0,5.9h0.23A3,3,0,0,0,77.27,353.22Z" transform="translate(0)"/><path class="c" d="M68,353.22a3,3,0,0,0-3-3H64.79a3,3,0,1,0,0,5.9H65A3,3,0,0,0,68,353.22Z" transform="translate(0)"/><path class="c" d="M49.35,353.22a3,3,0,0,0-3-3H46.17a3,3,0,0,0,0,5.9H46.4A3,3,0,0,0,49.35,353.22Z" transform="translate(0)"/><path class="c" d="M40,353.22a3,3,0,0,0-3-3H36.86a3,3,0,0,0,0,5.9h0.23A3,3,0,0,0,40,353.22Z" transform="translate(0)"/><path class="c" d="M123.82,362.19a3,3,0,0,0-3-3h-0.23a3,3,0,0,0,0,5.91h0.23A3,3,0,0,0,123.82,362.19Z" transform="translate(0)"/><path class="c" d="M114.51,362.19a3,3,0,0,0-3-3h-0.23a3,3,0,0,0,0,5.91h0.23A3,3,0,0,0,114.51,362.19Z" transform="translate(0)"/><path class="c" d="M105.2,362.19a3,3,0,0,0-3-3H102a3,3,0,0,0,0,5.91h0.23A3,3,0,0,0,105.2,362.19Z" transform="translate(0)"/><path class="c" d="M86.58,362.19a3,3,0,0,0-3-3H83.4a3,3,0,0,0,0,5.91h0.23A3,3,0,0,0,86.58,362.19Z" transform="translate(0)"/><path class="c" d="M77.28,362.19a3,3,0,0,0-3-3H74.1a3,3,0,0,0,0,5.91h0.23A3,3,0,0,0,77.28,362.19Z" transform="translate(0)"/><path class="c" d="M68,362.19a3,3,0,0,0-3-3H64.79a3,3,0,0,0,0,5.91H65A3,3,0,0,0,68,362.19Z" transform="translate(0)"/><path class="c" d="M123.82,371.16a3,3,0,0,0-3-3h-0.23a2.95,2.95,0,1,0,0,5.9h0.23A3,3,0,0,0,123.82,371.16Z" transform="translate(0)"/><path class="c" d="M114.51,371.16a3,3,0,0,0-3-3h-0.23a2.95,2.95,0,1,0,0,5.9h0.23A3,3,0,0,0,114.51,371.16Z" transform="translate(0)"/><path class="c" d="M105.2,371.16a3,3,0,0,0-3-3H102a2.95,2.95,0,1,0,0,5.9h0.23A3,3,0,0,0,105.2,371.16Z" transform="translate(0)"/><path class="c" d="M86.58,371.16a3,3,0,0,0-3-3H83.41a2.95,2.95,0,1,0,0,5.9h0.23A3,3,0,0,0,86.58,371.16Z" transform="translate(0)"/><path class="c" d="M77.28,371.16a3,3,0,0,0-3-3H74.1a2.95,2.95,0,1,0,0,5.9h0.23A3,3,0,0,0,77.28,371.16Z" transform="translate(0)"/><path class="c" d="M68,371.16a3,3,0,0,0-3-3H64.79a2.95,2.95,0,1,0,0,5.9H65A3,3,0,0,0,68,371.16Z" transform="translate(0)"/><path class="c" d="M123.82,380.13a3,3,0,0,0-3-3h-0.23a3,3,0,1,0,0,5.9h0.23A3,3,0,0,0,123.82,380.13Z" transform="translate(0)"/><path class="c" d="M114.51,380.13a3,3,0,0,0-3-3h-0.23a3,3,0,0,0,0,5.9h0.23A3,3,0,0,0,114.51,380.13Z" transform="translate(0)"/><path class="c" d="M105.2,380.13a3,3,0,0,0-2.95-3H102a3,3,0,1,0,0,5.9h0.23A3,3,0,0,0,105.2,380.13Z" transform="translate(0)"/><path class="c" d="M86.58,380.13a3,3,0,0,0-2.95-3H83.4a3,3,0,0,0,0,5.9h0.23A3,3,0,0,0,86.58,380.13Z" transform="translate(0)"/><path class="c" d="M77.27,380.13a3,3,0,0,0-3-3H74.1a3,3,0,1,0,0,5.9h0.23A3,3,0,0,0,77.27,380.13Z" transform="translate(0)"/><path class="c" d="M68,380.13a3,3,0,0,0-3-3H64.79a3,3,0,1,0,0,5.9H65A3,3,0,0,0,68,380.13Z" transform="translate(0)"/><path class="c" d="M123.82,389.09a3,3,0,0,0-3-2.95h-0.23a3,3,0,0,0,0,5.91h0.23A3,3,0,0,0,123.82,389.09Z" transform="translate(0)"/><path class="c" d="M114.51,389.09a3,3,0,0,0-3-2.95h-0.23a3,3,0,0,0,0,5.91h0.23A3,3,0,0,0,114.51,389.09Z" transform="translate(0)"/><path class="c" d="M105.2,389.09a3,3,0,0,0-3-2.95H102a3,3,0,0,0,0,5.91h0.23A3,3,0,0,0,105.2,389.09Z" transform="translate(0)"/><path class="c" d="M86.58,389.09a3,3,0,0,0-3-2.95H83.4a3,3,0,0,0,0,5.91h0.23A3,3,0,0,0,86.58,389.09Z" transform="translate(0)"/><path class="c" d="M77.28,389.09a3,3,0,0,0-3-2.95H74.1a3,3,0,0,0,0,5.91h0.23A3,3,0,0,0,77.28,389.09Z" transform="translate(0)"/><path class="c" d="M68,389.09a3,3,0,0,0-3-2.95H64.79a3,3,0,0,0,0,5.91H65A3,3,0,0,0,68,389.09Z" transform="translate(0)"/><path class="c" d="M123.82,398.07a3,3,0,0,0-3-2.95h-0.23a3,3,0,1,0,0,5.9h0.23A3,3,0,0,0,123.82,398.07Z" transform="translate(0)"/><path class="c" d="M114.51,398.07a3,3,0,0,0-3-2.95h-0.23a3,3,0,0,0,0,5.9h0.23A3,3,0,0,0,114.51,398.07Z" transform="translate(0)"/><path class="c" d="M105.2,398.07a3,3,0,0,0-3-2.95H102a3,3,0,1,0,0,5.9h0.23A3,3,0,0,0,105.2,398.07Z" transform="translate(0)"/><path class="c" d="M86.58,398.07a3,3,0,0,0-3-2.95H83.41a3,3,0,1,0,0,5.9h0.23A3,3,0,0,0,86.58,398.07Z" transform="translate(0)"/><path class="c" d="M77.28,398.07a3,3,0,0,0-3-2.95H74.1a3,3,0,1,0,0,5.9h0.23A3,3,0,0,0,77.28,398.07Z" transform="translate(0)"/><path class="c" d="M68,398.07a3,3,0,0,0-3-2.95H64.79a3,3,0,1,0,0,5.9H65A3,3,0,0,0,68,398.07Z" transform="translate(0)"/><path class="c" d="M123.82,407a3,3,0,0,0-3-3h-0.23a3,3,0,1,0,0,5.9h0.23A3,3,0,0,0,123.82,407Z" transform="translate(0)"/><path class="c" d="M114.51,407a3,3,0,0,0-3-3h-0.23a3,3,0,0,0,0,5.9h0.23A3,3,0,0,0,114.51,407Z" transform="translate(0)"/><path class="c" d="M105.2,407a3,3,0,0,0-3-3H102a3,3,0,1,0,0,5.9h0.23A3,3,0,0,0,105.2,407Z" transform="translate(0)"/><path class="c" d="M86.58,407a3,3,0,0,0-3-3H83.4a3,3,0,0,0,0,5.9h0.23A3,3,0,0,0,86.58,407Z" transform="translate(0)"/><path class="c" d="M77.28,407a3,3,0,0,0-3-3H74.1a3,3,0,1,0,0,5.9h0.23A3,3,0,0,0,77.28,407Z" transform="translate(0)"/><path class="c" d="M68,407a3,3,0,0,0-3-3H64.79a3,3,0,1,0,0,5.9H65A3,3,0,0,0,68,407Z" transform="translate(0)"/><path class="c" d="M123.82,416a3,3,0,0,0-3-2.95h-0.23a3,3,0,0,0,0,5.91h0.23A3,3,0,0,0,123.82,416Z" transform="translate(0)"/><path class="c" d="M114.51,416a3,3,0,0,0-3-2.95h-0.23a3,3,0,0,0,0,5.91h0.23A3,3,0,0,0,114.51,416Z" transform="translate(0)"/><path class="c" d="M105.2,416a3,3,0,0,0-3-2.95H102a3,3,0,0,0,0,5.91h0.23A3,3,0,0,0,105.2,416Z" transform="translate(0)"/><path class="c" d="M86.58,416a3,3,0,0,0-3-2.95H83.4a3,3,0,0,0,0,5.91h0.23A3,3,0,0,0,86.58,416Z" transform="translate(0)"/><path class="c" d="M77.28,416a3,3,0,0,0-3-2.95H74.1a3,3,0,0,0,0,5.91h0.23A3,3,0,0,0,77.28,416Z" transform="translate(0)"/><path class="c" d="M68,416a3,3,0,0,0-3-2.95H64.79a3,3,0,0,0,0,5.91H65A3,3,0,0,0,68,416Z" transform="translate(0)"/><path class="c" d="M123.82,425a3,3,0,0,0-3-3h-0.23a3,3,0,0,0,0,5.9h0.23A3,3,0,0,0,123.82,425Z" transform="translate(0)"/><path class="c" d="M114.51,425a3,3,0,0,0-3-3h-0.23a3,3,0,0,0,0,5.9h0.23A3,3,0,0,0,114.51,425Z" transform="translate(0)"/><path class="c" d="M105.2,425a3,3,0,0,0-3-3H102a3,3,0,1,0,0,5.9h0.23A3,3,0,0,0,105.2,425Z" transform="translate(0)"/><path class="c" d="M86.58,425a3,3,0,0,0-3-3H83.4a3,3,0,0,0,0,5.9h0.23A3,3,0,0,0,86.58,425Z" transform="translate(0)"/><path class="c" d="M77.28,425a3,3,0,0,0-3-3H74.1a3,3,0,1,0,0,5.9h0.23A3,3,0,0,0,77.28,425Z" transform="translate(0)"/><path class="c" d="M68,425a3,3,0,0,0-3-3H64.79a3,3,0,1,0,0,5.9H65A3,3,0,0,0,68,425Z" transform="translate(0)"/><path class="c" d="M123.82,434a3,3,0,0,0-3-3h-0.23a3,3,0,1,0,0,5.9h0.23A3,3,0,0,0,123.82,434Z" transform="translate(0)"/><path class="c" d="M114.51,434a3,3,0,0,0-3-3h-0.23a3,3,0,0,0,0,5.9h0.23A3,3,0,0,0,114.51,434Z" transform="translate(0)"/><path class="c" d="M105.2,434a3,3,0,0,0-3-3H102a3,3,0,1,0,0,5.9h0.23A3,3,0,0,0,105.2,434Z" transform="translate(0)"/><path class="c" d="M86.58,434a3,3,0,0,0-3-3H83.4a3,3,0,1,0,0,5.9h0.23A3,3,0,0,0,86.58,434Z" transform="translate(0)"/><path class="c" d="M77.28,434a3,3,0,0,0-3-3H74.1a3,3,0,1,0,0,5.9h0.23A3,3,0,0,0,77.28,434Z" transform="translate(0)"/><path class="c" d="M68,434a3,3,0,0,0-3-3H64.79a3,3,0,1,0,0,5.9H65A3,3,0,0,0,68,434Z" transform="translate(0)"/><path class="c" d="M123.82,442.92a3,3,0,0,0-3-3h-0.23a3,3,0,0,0,0,5.91h0.23A3,3,0,0,0,123.82,442.92Z" transform="translate(0)"/><path class="c" d="M114.51,442.92a3,3,0,0,0-3-3h-0.23a3,3,0,0,0,0,5.91h0.23A3,3,0,0,0,114.51,442.92Z" transform="translate(0)"/><path class="c" d="M105.2,442.92a3,3,0,0,0-3-3H102a3,3,0,0,0,0,5.91h0.23A3,3,0,0,0,105.2,442.92Z" transform="translate(0)"/><path class="c" d="M86.58,442.92a3,3,0,0,0-3-3H83.4a3,3,0,0,0,0,5.91h0.23A3,3,0,0,0,86.58,442.92Z" transform="translate(0)"/><path class="c" d="M77.28,442.92a3,3,0,0,0-3-3H74.1a3,3,0,1,0,0,5.91h0.23A3,3,0,0,0,77.28,442.92Z" transform="translate(0)"/><path class="c" d="M68,442.92a3,3,0,0,0-3-3H64.79a3,3,0,0,0,0,5.91H65A3,3,0,0,0,68,442.92Z" transform="translate(0)"/><path class="c" d="M123.82,451.89a3,3,0,0,0-3-2.95h-0.23a3,3,0,1,0,0,5.9h0.23A3,3,0,0,0,123.82,451.89Z" transform="translate(0)"/><path class="c" d="M114.51,451.89a3,3,0,0,0-3-2.95h-0.23a3,3,0,0,0,0,5.9h0.23A3,3,0,0,0,114.51,451.89Z" transform="translate(0)"/><path class="c" d="M105.2,451.89a3,3,0,0,0-3-2.95H102a3,3,0,1,0,0,5.9h0.23A3,3,0,0,0,105.2,451.89Z" transform="translate(0)"/><path class="c" d="M86.58,451.89a3,3,0,0,0-3-2.95H83.4a3,3,0,0,0,0,5.9h0.23A3,3,0,0,0,86.58,451.89Z" transform="translate(0)"/><path class="c" d="M77.28,451.89a3,3,0,0,0-3-2.95H74.1a3,3,0,1,0,0,5.9h0.23A3,3,0,0,0,77.28,451.89Z" transform="translate(0)"/><path class="c" d="M68,451.89a3,3,0,0,0-3-2.95H64.79a3,3,0,1,0,0,5.9H65A3,3,0,0,0,68,451.89Z" transform="translate(0)"/><path class="c" d="M123.82,460.86a3,3,0,0,0-3-3h-0.23a3,3,0,1,0,0,5.9h0.23A3,3,0,0,0,123.82,460.86Z" transform="translate(0)"/><path class="c" d="M114.51,460.86a3,3,0,0,0-3-3h-0.23a3,3,0,0,0,0,5.9h0.23A3,3,0,0,0,114.51,460.86Z" transform="translate(0)"/><path class="c" d="M105.2,460.86a3,3,0,0,0-3-3H102a3,3,0,1,0,0,5.9h0.23A3,3,0,0,0,105.2,460.86Z" transform="translate(0)"/><path class="c" d="M86.58,460.86a3,3,0,0,0-3-3H83.4a3,3,0,0,0,0,5.9h0.23A3,3,0,0,0,86.58,460.86Z" transform="translate(0)"/><path class="c" d="M77.28,460.86a3,3,0,0,0-3-3H74.1a3,3,0,1,0,0,5.9h0.23A3,3,0,0,0,77.28,460.86Z" transform="translate(0)"/><path class="c" d="M68,460.86a3,3,0,0,0-3-3H64.79a3,3,0,1,0,0,5.9H65A3,3,0,0,0,68,460.86Z" transform="translate(0)"/><path class="c" d="M123.82,469.83a3,3,0,0,0-3-3h-0.23a3,3,0,1,0,0,5.9h0.23A3,3,0,0,0,123.82,469.83Z" transform="translate(0)"/><path class="c" d="M114.51,469.83a3,3,0,0,0-3-3h-0.23a3,3,0,0,0,0,5.9h0.23A3,3,0,0,0,114.51,469.83Z" transform="translate(0)"/><path class="c" d="M105.2,469.83a3,3,0,0,0-3-3H102a3,3,0,1,0,0,5.9h0.23A3,3,0,0,0,105.2,469.83Z" transform="translate(0)"/><path class="c" d="M86.58,469.83a3,3,0,0,0-3-3H83.4a3,3,0,0,0,0,5.9h0.23A3,3,0,0,0,86.58,469.83Z" transform="translate(0)"/><path class="c" d="M77.28,469.83a3,3,0,0,0-3-3H74.1a3,3,0,1,0,0,5.9h0.23A3,3,0,0,0,77.28,469.83Z" transform="translate(0)"/><path class="c" d="M68,469.83a3,3,0,0,0-3-3H64.79a3,3,0,1,0,0,5.9H65A3,3,0,0,0,68,469.83Z" transform="translate(0)"/><path class="c" d="M123.82,478.8a3,3,0,0,0-3-2.95h-0.23a3,3,0,1,0,0,5.9h0.23A3,3,0,0,0,123.82,478.8Z" transform="translate(0)"/><path class="c" d="M114.51,478.8a3,3,0,0,0-3-2.95h-0.23a3,3,0,0,0,0,5.9h0.23A3,3,0,0,0,114.51,478.8Z" transform="translate(0)"/><path class="c" d="M105.2,478.8a3,3,0,0,0-3-2.95H102a3,3,0,1,0,0,5.9h0.23A3,3,0,0,0,105.2,478.8Z" transform="translate(0)"/><path class="c" d="M86.58,478.8a3,3,0,0,0-3-2.95H83.4a3,3,0,0,0,0,5.9h0.23A3,3,0,0,0,86.58,478.8Z" transform="translate(0)"/><path class="c" d="M77.28,478.8a3,3,0,0,0-3-2.95H74.1a3,3,0,1,0,0,5.9h0.23A3,3,0,0,0,77.28,478.8Z" transform="translate(0)"/><path class="c" d="M68,478.8a3,3,0,0,0-3-2.95H64.79a3,3,0,1,0,0,5.9H65A3,3,0,0,0,68,478.8Z" transform="translate(0)"/></g><line class="g" x1="59.17" y1="229.27" x2="59.17" y2="313.51"/><line class="g" x1="126.5" y1="229.27" x2="126.5" y2="313.51"/></svg>