<svg xmlns="http://www.w3.org/2000/svg" xmlns:xlink="http://www.w3.org/1999/xlink" width="120mm" height="154.67mm" viewBox="0 0 340.16 438.43"><defs><style>.a{fill:none;}.b{fill:#fff;}.c{fill:#0286a8;}.d{fill:#81c3d4;}.e{fill:#00577e;}.f{clip-path:url(#a);}.g{fill:#258981;stroke:#fff;stroke-linecap:round;stroke-miterlimit:10;stroke-width:4.45px;}</style><clipPath id="a" transform="translate(0)"><path class="a" d="M32.88,312.51V241.32a11.75,11.75,0,0,1,11.75-11.75h8.22v0H102.2v0h8.22a11.75,11.75,0,0,1,11.75,11.75v71.19H104.55V253.07h0v0a1.17,1.17,0,1,0-2.35,0s0,0,0,0h0v59.44H52.85V253.07h0s0,0,0,0a1.18,1.18,0,1,0-2.35,0v0h0v59.44H32.88ZM77.53,227.2A23.5,23.5,0,1,0,54,203.69,23.5,23.5,0,0,0,77.53,227.2Z"/></clipPath></defs><title>partner_en_wezenpensioen_op_opbouwbasis</title><rect class="b" x="7.09" y="7.09" width="325.98" height="325.98" rx="35.43" ry="35.43"/><path class="c" d="M297.64,14.17A28.38,28.38,0,0,1,326,42.52V297.64A28.38,28.38,0,0,1,297.64,326H42.52a28.38,28.38,0,0,1-28.35-28.35V42.52A28.38,28.38,0,0,1,42.52,14.17H297.64m0-14.17H42.52A42.64,42.64,0,0,0,0,42.52V297.64a42.64,42.64,0,0,0,42.52,42.52H297.64a42.64,42.64,0,0,0,42.52-42.52V42.52A42.64,42.64,0,0,0,297.64,0h0Z" transform="translate(0)"/><path class="d" d="M217.85,73.1c0,14.11-21.67,25.55-48.41,25.55S121,87.21,121,73.1s21.67-25.55,48.41-25.55S217.85,59,217.85,73.1ZM162.75,33.91a6.72,6.72,0,1,0,6.72,6.72A6.72,6.72,0,0,0,162.75,33.91Zm13.45,0a6.72,6.72,0,1,0,6.72,6.72A6.72,6.72,0,0,0,176.2,33.91Z" transform="translate(0)"/><path class="e" d="M206.72,83.21c0-2.53,3.1-4.36,3.1-8.81,0-11.14-18.06-20.17-40.34-20.17s-40.34,9-40.34,20.17c0,4.84,2.15,6.41,2.15,8.81,0,5.59-15.59,12.52-15.59,24.81,0,18.57,24.08,33.61,53.79,33.61s53.79-15,53.79-33.61C223.26,95.47,206.72,88.4,206.72,83.21Z" transform="translate(0)"/><path class="c" d="M270.61,257a18.4,18.4,0,1,0-18.41-18.41A18.41,18.41,0,0,0,270.61,257Z" transform="translate(0)"/><path class="c" d="M296.37,258.85h-6.44v0H251.29v0h-6.44a9.21,9.21,0,0,0-9.2,9.21V312h13V276.31a1.74,1.74,0,1,1,3.48,0V312H289V276.31a1.74,1.74,0,1,1,3.48,0V312h13.08V268.06A9.2,9.2,0,0,0,296.37,258.85Z" transform="translate(0)"/><path class="c" d="M178.43,226.69a23.5,23.5,0,1,0-23.51-23.5A23.5,23.5,0,0,0,178.43,226.69Z" transform="translate(0)"/><path class="c" d="M211.32,229.06H203.1v0H153.75v0h-8.22a11.75,11.75,0,0,0-11.75,11.75V312h16.57V251.36a2.22,2.22,0,1,1,4.45,0V312h47.12V251.36a2.22,2.22,0,1,1,4.45,0V312h16.71V240.82A11.75,11.75,0,0,0,211.32,229.06Z" transform="translate(0)"/><g class="f"><path class="c" d="M93.58,183.68a2.19,2.19,0,0,0-2.19-2.19H91.23a2.19,2.19,0,0,0,0,4.37h0.17A2.19,2.19,0,0,0,93.58,183.68Z" transform="translate(0)"/><path class="c" d="M86.69,183.68a2.19,2.19,0,0,0-2.19-2.19H84.33a2.19,2.19,0,1,0,0,4.37H84.5A2.19,2.19,0,0,0,86.69,183.68Z" transform="translate(0)"/><path class="c" d="M79.79,183.68a2.19,2.19,0,0,0-2.19-2.19H77.43a2.19,2.19,0,1,0,0,4.37H77.6A2.19,2.19,0,0,0,79.79,183.68Z" transform="translate(0)"/><path class="c" d="M72.89,183.68a2.19,2.19,0,0,0-2.19-2.19H70.54a2.19,2.19,0,0,0,0,4.37h0.17A2.19,2.19,0,0,0,72.89,183.68Z" transform="translate(0)"/><path class="c" d="M66,183.68a2.19,2.19,0,0,0-2.19-2.19H63.64a2.19,2.19,0,1,0,0,4.37h0.17A2.19,2.19,0,0,0,66,183.68Z" transform="translate(0)"/><path class="c" d="M100.48,190.33a2.19,2.19,0,0,0-2.19-2.19H98.12a2.19,2.19,0,0,0,0,4.37h0.17A2.19,2.19,0,0,0,100.48,190.33Z" transform="translate(0)"/><path class="c" d="M93.58,190.33a2.19,2.19,0,0,0-2.19-2.19H91.23a2.19,2.19,0,0,0,0,4.37H91.4A2.19,2.19,0,0,0,93.58,190.33Z" transform="translate(0)"/><path class="c" d="M86.69,190.33a2.19,2.19,0,0,0-2.19-2.19H84.33a2.19,2.19,0,1,0,0,4.37H84.5A2.19,2.19,0,0,0,86.69,190.33Z" transform="translate(0)"/><path class="c" d="M79.79,190.33a2.19,2.19,0,0,0-2.19-2.19H77.43a2.19,2.19,0,0,0,0,4.37H77.6A2.19,2.19,0,0,0,79.79,190.33Z" transform="translate(0)"/><path class="c" d="M72.89,190.33a2.19,2.19,0,0,0-2.19-2.19H70.54a2.19,2.19,0,0,0,0,4.37h0.17A2.19,2.19,0,0,0,72.89,190.33Z" transform="translate(0)"/><path class="c" d="M66,190.33a2.19,2.19,0,0,0-2.19-2.19H63.64a2.19,2.19,0,1,0,0,4.37h0.17A2.19,2.19,0,0,0,66,190.33Z" transform="translate(0)"/><path class="c" d="M59.1,190.33a2.19,2.19,0,0,0-2.19-2.19H56.74a2.19,2.19,0,1,0,0,4.37h0.17A2.19,2.19,0,0,0,59.1,190.33Z" transform="translate(0)"/><path class="c" d="M100.48,197a2.19,2.19,0,0,0-2.19-2.19H98.12a2.19,2.19,0,0,0,0,4.37h0.17A2.19,2.19,0,0,0,100.48,197Z" transform="translate(0)"/><path class="c" d="M93.58,197a2.19,2.19,0,0,0-2.19-2.19H91.23a2.19,2.19,0,0,0,0,4.37H91.4A2.19,2.19,0,0,0,93.58,197Z" transform="translate(0)"/><path class="c" d="M86.69,197a2.19,2.19,0,0,0-2.19-2.19H84.33a2.19,2.19,0,1,0,0,4.37H84.5A2.19,2.19,0,0,0,86.69,197Z" transform="translate(0)"/><path class="c" d="M79.79,197a2.19,2.19,0,0,0-2.19-2.19H77.43a2.19,2.19,0,0,0,0,4.37H77.6A2.19,2.19,0,0,0,79.79,197Z" transform="translate(0)"/><path class="c" d="M72.89,197a2.19,2.19,0,0,0-2.19-2.19H70.54a2.19,2.19,0,0,0,0,4.37h0.17A2.19,2.19,0,0,0,72.89,197Z" transform="translate(0)"/><path class="c" d="M66,197a2.19,2.19,0,0,0-2.19-2.19H63.64a2.19,2.19,0,1,0,0,4.37h0.17A2.19,2.19,0,0,0,66,197Z" transform="translate(0)"/><path class="c" d="M59.1,197a2.19,2.19,0,0,0-2.19-2.19H56.74a2.19,2.19,0,0,0,0,4.37h0.17A2.19,2.19,0,0,0,59.1,197Z" transform="translate(0)"/><path class="c" d="M100.48,203.62a2.19,2.19,0,0,0-2.19-2.19H98.12a2.19,2.19,0,0,0,0,4.37h0.17A2.19,2.19,0,0,0,100.48,203.62Z" transform="translate(0)"/><path class="c" d="M93.58,203.62a2.19,2.19,0,0,0-2.19-2.19H91.23a2.19,2.19,0,0,0,0,4.37h0.17A2.19,2.19,0,0,0,93.58,203.62Z" transform="translate(0)"/><path class="c" d="M86.69,203.62a2.19,2.19,0,0,0-2.19-2.19H84.33a2.19,2.19,0,1,0,0,4.37H84.5A2.19,2.19,0,0,0,86.69,203.62Z" transform="translate(0)"/><path class="c" d="M79.79,203.62a2.19,2.19,0,0,0-2.19-2.19H77.43a2.19,2.19,0,1,0,0,4.37H77.6A2.19,2.19,0,0,0,79.79,203.62Z" transform="translate(0)"/><path class="c" d="M72.89,203.62a2.19,2.19,0,0,0-2.19-2.19H70.54a2.19,2.19,0,0,0,0,4.37h0.17A2.19,2.19,0,0,0,72.89,203.62Z" transform="translate(0)"/><path class="c" d="M66,203.62a2.19,2.19,0,0,0-2.19-2.19H63.64a2.19,2.19,0,1,0,0,4.37h0.17A2.19,2.19,0,0,0,66,203.62Z" transform="translate(0)"/><path class="c" d="M59.1,203.62a2.19,2.19,0,0,0-2.19-2.19H56.74a2.19,2.19,0,1,0,0,4.37h0.17A2.19,2.19,0,0,0,59.1,203.62Z" transform="translate(0)"/><path class="c" d="M100.48,210.27a2.19,2.19,0,0,0-2.19-2.19H98.12a2.19,2.19,0,0,0,0,4.37h0.17A2.19,2.19,0,0,0,100.48,210.27Z" transform="translate(0)"/><path class="c" d="M93.58,210.27a2.19,2.19,0,0,0-2.19-2.19H91.23a2.19,2.19,0,0,0,0,4.37H91.4A2.19,2.19,0,0,0,93.58,210.27Z" transform="translate(0)"/><path class="c" d="M86.69,210.27a2.19,2.19,0,0,0-2.19-2.19H84.33a2.19,2.19,0,1,0,0,4.37H84.5A2.19,2.19,0,0,0,86.69,210.27Z" transform="translate(0)"/><path class="c" d="M79.79,210.27a2.19,2.19,0,0,0-2.19-2.19H77.43a2.19,2.19,0,0,0,0,4.37H77.6A2.19,2.19,0,0,0,79.79,210.27Z" transform="translate(0)"/><path class="c" d="M72.89,210.27a2.19,2.19,0,0,0-2.19-2.19H70.54a2.19,2.19,0,0,0,0,4.37h0.17A2.19,2.19,0,0,0,72.89,210.27Z" transform="translate(0)"/><path class="c" d="M66,210.27a2.19,2.19,0,0,0-2.19-2.19H63.64a2.19,2.19,0,1,0,0,4.37h0.17A2.19,2.19,0,0,0,66,210.27Z" transform="translate(0)"/><path class="c" d="M59.1,210.27a2.19,2.19,0,0,0-2.19-2.19H56.74a2.19,2.19,0,0,0,0,4.37h0.17A2.19,2.19,0,0,0,59.1,210.27Z" transform="translate(0)"/><path class="c" d="M100.48,216.92a2.19,2.19,0,0,0-2.19-2.19H98.12a2.19,2.19,0,1,0,0,4.37h0.17A2.19,2.19,0,0,0,100.48,216.92Z" transform="translate(0)"/><path class="c" d="M93.58,216.92a2.19,2.19,0,0,0-2.19-2.19H91.23a2.19,2.19,0,0,0,0,4.37H91.4A2.19,2.19,0,0,0,93.58,216.92Z" transform="translate(0)"/><path class="c" d="M86.69,216.92a2.19,2.19,0,0,0-2.19-2.19H84.33a2.19,2.19,0,1,0,0,4.37H84.5A2.19,2.19,0,0,0,86.69,216.92Z" transform="translate(0)"/><path class="c" d="M79.79,216.92a2.19,2.19,0,0,0-2.19-2.19H77.43a2.19,2.19,0,0,0,0,4.37H77.6A2.19,2.19,0,0,0,79.79,216.92Z" transform="translate(0)"/><path class="c" d="M72.89,216.92a2.19,2.19,0,0,0-2.19-2.19H70.54a2.19,2.19,0,0,0,0,4.37h0.17A2.19,2.19,0,0,0,72.89,216.92Z" transform="translate(0)"/><path class="c" d="M66,216.92a2.19,2.19,0,0,0-2.19-2.19H63.64a2.19,2.19,0,1,0,0,4.37h0.17A2.19,2.19,0,0,0,66,216.92Z" transform="translate(0)"/><path class="c" d="M59.1,216.92a2.19,2.19,0,0,0-2.19-2.19H56.74a2.19,2.19,0,1,0,0,4.37h0.17A2.19,2.19,0,0,0,59.1,216.92Z" transform="translate(0)"/><path class="c" d="M93.58,223.56a2.19,2.19,0,0,0-2.19-2.19H91.23a2.19,2.19,0,0,0,0,4.37h0.17A2.19,2.19,0,0,0,93.58,223.56Z" transform="translate(0)"/><path class="c" d="M86.69,223.56a2.19,2.19,0,0,0-2.19-2.19H84.33a2.19,2.19,0,1,0,0,4.37H84.5A2.19,2.19,0,0,0,86.69,223.56Z" transform="translate(0)"/><path class="c" d="M79.79,223.56a2.19,2.19,0,0,0-2.19-2.19H77.43a2.19,2.19,0,1,0,0,4.37H77.6A2.19,2.19,0,0,0,79.79,223.56Z" transform="translate(0)"/><path class="c" d="M72.89,223.56a2.19,2.19,0,0,0-2.19-2.19H70.54a2.19,2.19,0,0,0,0,4.37h0.17A2.19,2.19,0,0,0,72.89,223.56Z" transform="translate(0)"/><path class="c" d="M66,223.56a2.19,2.19,0,0,0-2.19-2.19H63.64a2.19,2.19,0,0,0,0,4.37h0.17A2.19,2.19,0,0,0,66,223.56Z" transform="translate(0)"/><path class="c" d="M114.27,230.21a2.19,2.19,0,0,0-2.19-2.19h-0.17a2.19,2.19,0,1,0,0,4.37h0.17A2.19,2.19,0,0,0,114.27,230.21Z" transform="translate(0)"/><path class="c" d="M107.37,230.21a2.18,2.18,0,0,0-2.19-2.19H105a2.19,2.19,0,1,0,0,4.37h0.17A2.19,2.19,0,0,0,107.37,230.21Z" transform="translate(0)"/><path class="c" d="M100.48,230.21A2.19,2.19,0,0,0,98.29,228H98.12a2.19,2.19,0,1,0,0,4.37h0.17A2.19,2.19,0,0,0,100.48,230.21Z" transform="translate(0)"/><path class="c" d="M93.58,230.21A2.19,2.19,0,0,0,91.4,228H91.23a2.19,2.19,0,0,0,0,4.37H91.4A2.19,2.19,0,0,0,93.58,230.21Z" transform="translate(0)"/><path class="c" d="M86.69,230.21A2.19,2.19,0,0,0,84.5,228H84.33a2.19,2.19,0,1,0,0,4.37H84.5A2.19,2.19,0,0,0,86.69,230.21Z" transform="translate(0)"/><path class="c" d="M79.79,230.21A2.19,2.19,0,0,0,77.6,228H77.43a2.19,2.19,0,1,0,0,4.37H77.6A2.19,2.19,0,0,0,79.79,230.21Z" transform="translate(0)"/><path class="c" d="M72.89,230.21A2.19,2.19,0,0,0,70.71,228H70.54a2.19,2.19,0,1,0,0,4.37h0.17A2.19,2.19,0,0,0,72.89,230.21Z" transform="translate(0)"/><path class="c" d="M66,230.21A2.19,2.19,0,0,0,63.81,228H63.64a2.19,2.19,0,1,0,0,4.37h0.17A2.19,2.19,0,0,0,66,230.21Z" transform="translate(0)"/><path class="c" d="M59.1,230.21A2.19,2.19,0,0,0,56.91,228H56.74a2.19,2.19,0,1,0,0,4.37h0.17A2.19,2.19,0,0,0,59.1,230.21Z" transform="translate(0)"/><path class="c" d="M52.2,230.21A2.19,2.19,0,0,0,50,228H49.85a2.19,2.19,0,1,0,0,4.37H50A2.19,2.19,0,0,0,52.2,230.21Z" transform="translate(0)"/><path class="c" d="M45.31,230.21A2.19,2.19,0,0,0,43.12,228H43a2.19,2.19,0,1,0,0,4.37h0.17A2.19,2.19,0,0,0,45.31,230.21Z" transform="translate(0)"/><path class="c" d="M121.17,236.85a2.19,2.19,0,0,0-2.19-2.19h-0.17a2.19,2.19,0,0,0,0,4.37H119A2.19,2.19,0,0,0,121.17,236.85Z" transform="translate(0)"/><path class="c" d="M114.27,236.85a2.19,2.19,0,0,0-2.19-2.19h-0.17a2.19,2.19,0,1,0,0,4.37h0.17A2.19,2.19,0,0,0,114.27,236.85Z" transform="translate(0)"/><path class="c" d="M107.37,236.85a2.18,2.18,0,0,0-2.19-2.19H105a2.19,2.19,0,1,0,0,4.37h0.17A2.18,2.18,0,0,0,107.37,236.85Z" transform="translate(0)"/><path class="c" d="M100.48,236.85a2.19,2.19,0,0,0-2.19-2.19H98.12a2.19,2.19,0,1,0,0,4.37h0.17A2.19,2.19,0,0,0,100.48,236.85Z" transform="translate(0)"/><path class="c" d="M93.58,236.85a2.19,2.19,0,0,0-2.19-2.19H91.23a2.19,2.19,0,0,0,0,4.37H91.4A2.19,2.19,0,0,0,93.58,236.85Z" transform="translate(0)"/><path class="c" d="M86.69,236.85a2.19,2.19,0,0,0-2.19-2.19H84.33a2.19,2.19,0,1,0,0,4.37H84.5A2.19,2.19,0,0,0,86.69,236.85Z" transform="translate(0)"/><path class="c" d="M79.79,236.85a2.19,2.19,0,0,0-2.19-2.19H77.43a2.19,2.19,0,1,0,0,4.37H77.6A2.19,2.19,0,0,0,79.79,236.85Z" transform="translate(0)"/><path class="c" d="M72.89,236.85a2.19,2.19,0,0,0-2.19-2.19H70.54a2.19,2.19,0,1,0,0,4.37h0.17A2.19,2.19,0,0,0,72.89,236.85Z" transform="translate(0)"/><path class="c" d="M66,236.85a2.19,2.19,0,0,0-2.19-2.19H63.64a2.19,2.19,0,1,0,0,4.37h0.17A2.19,2.19,0,0,0,66,236.85Z" transform="translate(0)"/><path class="c" d="M59.1,236.85a2.19,2.19,0,0,0-2.19-2.19H56.74a2.19,2.19,0,1,0,0,4.37h0.17A2.19,2.19,0,0,0,59.1,236.85Z" transform="translate(0)"/><path class="c" d="M52.2,236.85A2.19,2.19,0,0,0,50,234.67H49.85a2.19,2.19,0,1,0,0,4.37H50A2.19,2.19,0,0,0,52.2,236.85Z" transform="translate(0)"/><path class="c" d="M45.31,236.85a2.19,2.19,0,0,0-2.19-2.19H43A2.19,2.19,0,1,0,43,239h0.17A2.19,2.19,0,0,0,45.31,236.85Z" transform="translate(0)"/><path class="c" d="M38.41,236.85a2.19,2.19,0,0,0-2.19-2.19H36.05a2.19,2.19,0,1,0,0,4.37h0.17A2.19,2.19,0,0,0,38.41,236.85Z" transform="translate(0)"/><path class="c" d="M121.17,243.5a2.19,2.19,0,0,0-2.19-2.19h-0.17a2.19,2.19,0,0,0,0,4.37H119A2.19,2.19,0,0,0,121.17,243.5Z" transform="translate(0)"/><path class="c" d="M114.27,243.5a2.19,2.19,0,0,0-2.19-2.19h-0.17a2.19,2.19,0,0,0,0,4.37h0.17A2.19,2.19,0,0,0,114.27,243.5Z" transform="translate(0)"/><path class="c" d="M107.38,243.5a2.19,2.19,0,0,0-2.19-2.19H105a2.19,2.19,0,1,0,0,4.37h0.17A2.19,2.19,0,0,0,107.38,243.5Z" transform="translate(0)"/><path class="c" d="M100.48,243.5a2.19,2.19,0,0,0-2.19-2.19H98.12a2.19,2.19,0,1,0,0,4.37h0.17A2.19,2.19,0,0,0,100.48,243.5Z" transform="translate(0)"/><path class="c" d="M93.58,243.5a2.19,2.19,0,0,0-2.19-2.19H91.23a2.19,2.19,0,0,0,0,4.37H91.4A2.19,2.19,0,0,0,93.58,243.5Z" transform="translate(0)"/><path class="c" d="M86.69,243.5a2.19,2.19,0,0,0-2.19-2.19H84.33a2.19,2.19,0,0,0,0,4.37H84.5A2.19,2.19,0,0,0,86.69,243.5Z" transform="translate(0)"/><path class="c" d="M79.79,243.5a2.19,2.19,0,0,0-2.19-2.19H77.44a2.19,2.19,0,1,0,0,4.37H77.6A2.19,2.19,0,0,0,79.79,243.5Z" transform="translate(0)"/><path class="c" d="M72.89,243.5a2.19,2.19,0,0,0-2.19-2.19H70.54a2.19,2.19,0,0,0,0,4.37h0.17A2.19,2.19,0,0,0,72.89,243.5Z" transform="translate(0)"/><path class="c" d="M66,243.5a2.19,2.19,0,0,0-2.19-2.19H63.64a2.19,2.19,0,0,0,0,4.37h0.17A2.19,2.19,0,0,0,66,243.5Z" transform="translate(0)"/><path class="c" d="M59.1,243.5a2.19,2.19,0,0,0-2.19-2.19H56.74a2.19,2.19,0,0,0,0,4.37h0.17A2.19,2.19,0,0,0,59.1,243.5Z" transform="translate(0)"/><path class="c" d="M52.2,243.5A2.19,2.19,0,0,0,50,241.31H49.85a2.19,2.19,0,1,0,0,4.37H50A2.19,2.19,0,0,0,52.2,243.5Z" transform="translate(0)"/><path class="c" d="M45.31,243.5a2.19,2.19,0,0,0-2.19-2.19H43a2.19,2.19,0,0,0,0,4.37h0.17A2.19,2.19,0,0,0,45.31,243.5Z" transform="translate(0)"/><path class="c" d="M38.41,243.5a2.19,2.19,0,0,0-2.19-2.19H36.05a2.19,2.19,0,0,0,0,4.37h0.17A2.19,2.19,0,0,0,38.41,243.5Z" transform="translate(0)"/><path class="c" d="M121.17,250.15A2.19,2.19,0,0,0,119,248h-0.17a2.19,2.19,0,1,0,0,4.37H119A2.19,2.19,0,0,0,121.17,250.15Z" transform="translate(0)"/><path class="c" d="M114.27,250.15a2.19,2.19,0,0,0-2.19-2.19h-0.17a2.19,2.19,0,1,0,0,4.37h0.17A2.19,2.19,0,0,0,114.27,250.15Z" transform="translate(0)"/><path class="c" d="M107.37,250.15a2.18,2.18,0,0,0-2.19-2.19H105a2.19,2.19,0,1,0,0,4.37h0.17A2.18,2.18,0,0,0,107.37,250.15Z" transform="translate(0)"/><path class="c" d="M100.48,250.15A2.19,2.19,0,0,0,98.29,248H98.12a2.19,2.19,0,1,0,0,4.37h0.17A2.19,2.19,0,0,0,100.48,250.15Z" transform="translate(0)"/><path class="c" d="M93.58,250.15A2.19,2.19,0,0,0,91.4,248H91.23a2.19,2.19,0,0,0,0,4.37H91.4A2.19,2.19,0,0,0,93.58,250.15Z" transform="translate(0)"/><path class="c" d="M86.69,250.15A2.19,2.19,0,0,0,84.5,248H84.33a2.19,2.19,0,1,0,0,4.37H84.5A2.19,2.19,0,0,0,86.69,250.15Z" transform="translate(0)"/><path class="c" d="M79.79,250.15A2.19,2.19,0,0,0,77.6,248H77.43a2.19,2.19,0,1,0,0,4.37H77.6A2.19,2.19,0,0,0,79.79,250.15Z" transform="translate(0)"/><path class="c" d="M72.89,250.15A2.19,2.19,0,0,0,70.71,248H70.54a2.19,2.19,0,1,0,0,4.37h0.17A2.19,2.19,0,0,0,72.89,250.15Z" transform="translate(0)"/><path class="c" d="M66,250.15A2.19,2.19,0,0,0,63.81,248H63.64a2.19,2.19,0,1,0,0,4.37h0.17A2.18,2.18,0,0,0,66,250.15Z" transform="translate(0)"/><path class="c" d="M59.1,250.15A2.19,2.19,0,0,0,56.91,248H56.74a2.19,2.19,0,1,0,0,4.37h0.17A2.19,2.19,0,0,0,59.1,250.15Z" transform="translate(0)"/><path class="c" d="M52.2,250.15A2.19,2.19,0,0,0,50,248H49.85a2.19,2.19,0,1,0,0,4.37H50A2.18,2.18,0,0,0,52.2,250.15Z" transform="translate(0)"/><path class="c" d="M45.31,250.15A2.19,2.19,0,0,0,43.12,248H43a2.19,2.19,0,1,0,0,4.37h0.17A2.19,2.19,0,0,0,45.31,250.15Z" transform="translate(0)"/><path class="c" d="M38.41,250.15A2.19,2.19,0,0,0,36.22,248H36.05a2.19,2.19,0,1,0,0,4.37h0.17A2.19,2.19,0,0,0,38.41,250.15Z" transform="translate(0)"/><path class="c" d="M121.17,256.79a2.19,2.19,0,0,0-2.19-2.19h-0.17a2.19,2.19,0,1,0,0,4.37H119A2.19,2.19,0,0,0,121.17,256.79Z" transform="translate(0)"/><path class="c" d="M114.27,256.79a2.18,2.18,0,0,0-2.19-2.19h-0.17a2.19,2.19,0,0,0,0,4.37h0.17A2.19,2.19,0,0,0,114.27,256.79Z" transform="translate(0)"/><path class="c" d="M107.37,256.79a2.18,2.18,0,0,0-2.19-2.19H105a2.19,2.19,0,1,0,0,4.37h0.17A2.19,2.19,0,0,0,107.37,256.79Z" transform="translate(0)"/><path class="c" d="M100.48,256.79a2.19,2.19,0,0,0-2.19-2.19H98.12a2.19,2.19,0,1,0,0,4.37h0.17A2.19,2.19,0,0,0,100.48,256.79Z" transform="translate(0)"/><path class="c" d="M93.58,256.79a2.18,2.18,0,0,0-2.19-2.19H91.23a2.19,2.19,0,1,0,0,4.37h0.17A2.19,2.19,0,0,0,93.58,256.79Z" transform="translate(0)"/><path class="c" d="M86.69,256.79a2.18,2.18,0,0,0-2.19-2.19H84.33a2.19,2.19,0,1,0,0,4.37H84.5A2.19,2.19,0,0,0,86.69,256.79Z" transform="translate(0)"/><path class="c" d="M79.79,256.79a2.19,2.19,0,0,0-2.19-2.19H77.43a2.19,2.19,0,1,0,0,4.37H77.6A2.19,2.19,0,0,0,79.79,256.79Z" transform="translate(0)"/><path class="c" d="M72.89,256.79a2.18,2.18,0,0,0-2.19-2.19H70.54a2.19,2.19,0,1,0,0,4.37h0.17A2.19,2.19,0,0,0,72.89,256.79Z" transform="translate(0)"/><path class="c" d="M66,256.79a2.18,2.18,0,0,0-2.19-2.19H63.64a2.19,2.19,0,1,0,0,4.37h0.17A2.19,2.19,0,0,0,66,256.79Z" transform="translate(0)"/><path class="c" d="M59.1,256.79a2.19,2.19,0,0,0-2.19-2.19H56.74a2.19,2.19,0,1,0,0,4.37h0.17A2.19,2.19,0,0,0,59.1,256.79Z" transform="translate(0)"/><path class="c" d="M52.2,256.79A2.18,2.18,0,0,0,50,254.61H49.85a2.19,2.19,0,1,0,0,4.37H50A2.19,2.19,0,0,0,52.2,256.79Z" transform="translate(0)"/><path class="c" d="M45.3,256.79a2.18,2.18,0,0,0-2.19-2.19H43A2.19,2.19,0,1,0,43,259h0.17A2.19,2.19,0,0,0,45.3,256.79Z" transform="translate(0)"/><path class="c" d="M38.41,256.79a2.18,2.18,0,0,0-2.19-2.19H36.05a2.19,2.19,0,1,0,0,4.37h0.17A2.19,2.19,0,0,0,38.41,256.79Z" transform="translate(0)"/><path class="c" d="M121.17,263.44a2.19,2.19,0,0,0-2.19-2.19h-0.17a2.19,2.19,0,0,0,0,4.37H119A2.19,2.19,0,0,0,121.17,263.44Z" transform="translate(0)"/><path class="c" d="M114.27,263.44a2.19,2.19,0,0,0-2.19-2.19h-0.17a2.19,2.19,0,0,0,0,4.37h0.17A2.19,2.19,0,0,0,114.27,263.44Z" transform="translate(0)"/><path class="c" d="M107.38,263.44a2.19,2.19,0,0,0-2.19-2.19H105a2.19,2.19,0,1,0,0,4.37h0.17A2.19,2.19,0,0,0,107.38,263.44Z" transform="translate(0)"/><path class="c" d="M100.48,263.44a2.19,2.19,0,0,0-2.19-2.19H98.12a2.19,2.19,0,1,0,0,4.37h0.17A2.19,2.19,0,0,0,100.48,263.44Z" transform="translate(0)"/><path class="c" d="M93.58,263.44a2.19,2.19,0,0,0-2.19-2.19H91.23a2.19,2.19,0,0,0,0,4.37H91.4A2.19,2.19,0,0,0,93.58,263.44Z" transform="translate(0)"/><path class="c" d="M86.69,263.44a2.19,2.19,0,0,0-2.19-2.19H84.33a2.19,2.19,0,1,0,0,4.37H84.5A2.19,2.19,0,0,0,86.69,263.44Z" transform="translate(0)"/><path class="c" d="M79.79,263.44a2.19,2.19,0,0,0-2.19-2.19H77.44a2.19,2.19,0,1,0,0,4.37H77.6A2.19,2.19,0,0,0,79.79,263.44Z" transform="translate(0)"/><path class="c" d="M72.89,263.44a2.19,2.19,0,0,0-2.19-2.19H70.54a2.19,2.19,0,0,0,0,4.37h0.17A2.19,2.19,0,0,0,72.89,263.44Z" transform="translate(0)"/><path class="c" d="M66,263.44a2.19,2.19,0,0,0-2.19-2.19H63.64a2.19,2.19,0,0,0,0,4.37h0.17A2.19,2.19,0,0,0,66,263.44Z" transform="translate(0)"/><path class="c" d="M59.1,263.44a2.19,2.19,0,0,0-2.19-2.19H56.74a2.19,2.19,0,1,0,0,4.37h0.17A2.19,2.19,0,0,0,59.1,263.44Z" transform="translate(0)"/><path class="c" d="M52.2,263.44A2.19,2.19,0,0,0,50,261.25H49.85a2.19,2.19,0,1,0,0,4.37H50A2.19,2.19,0,0,0,52.2,263.44Z" transform="translate(0)"/><path class="c" d="M45.31,263.44a2.19,2.19,0,0,0-2.19-2.19H43a2.19,2.19,0,0,0,0,4.37h0.17A2.19,2.19,0,0,0,45.31,263.44Z" transform="translate(0)"/><path class="c" d="M38.41,263.44a2.19,2.19,0,0,0-2.19-2.19H36.05a2.19,2.19,0,1,0,0,4.37h0.17A2.19,2.19,0,0,0,38.41,263.44Z" transform="translate(0)"/><path class="c" d="M121.17,270.08A2.19,2.19,0,0,0,119,267.9h-0.17a2.19,2.19,0,0,0,0,4.38H119A2.19,2.19,0,0,0,121.17,270.08Z" transform="translate(0)"/><path class="c" d="M114.27,270.08a2.19,2.19,0,0,0-2.19-2.19h-0.17a2.19,2.19,0,0,0,0,4.38h0.17A2.19,2.19,0,0,0,114.27,270.08Z" transform="translate(0)"/><path class="c" d="M107.38,270.08a2.19,2.19,0,0,0-2.19-2.19H105a2.19,2.19,0,1,0,0,4.38h0.17A2.19,2.19,0,0,0,107.38,270.08Z" transform="translate(0)"/><path class="c" d="M100.48,270.08a2.19,2.19,0,0,0-2.19-2.19H98.12a2.19,2.19,0,0,0,0,4.38h0.17A2.19,2.19,0,0,0,100.48,270.08Z" transform="translate(0)"/><path class="c" d="M93.58,270.08a2.19,2.19,0,0,0-2.19-2.19H91.23a2.19,2.19,0,0,0,0,4.38H91.4A2.19,2.19,0,0,0,93.58,270.08Z" transform="translate(0)"/><path class="c" d="M86.69,270.08a2.19,2.19,0,0,0-2.19-2.19H84.33a2.19,2.19,0,0,0,0,4.38H84.5A2.19,2.19,0,0,0,86.69,270.08Z" transform="translate(0)"/><path class="c" d="M79.79,270.08a2.19,2.19,0,0,0-2.19-2.19H77.44a2.19,2.19,0,0,0,0,4.38H77.6A2.19,2.19,0,0,0,79.79,270.08Z" transform="translate(0)"/><path class="c" d="M72.89,270.08a2.19,2.19,0,0,0-2.19-2.19H70.54a2.19,2.19,0,0,0,0,4.38h0.17A2.19,2.19,0,0,0,72.89,270.08Z" transform="translate(0)"/><path class="c" d="M66,270.08a2.19,2.19,0,0,0-2.19-2.19H63.64a2.19,2.19,0,0,0,0,4.38h0.17A2.19,2.19,0,0,0,66,270.08Z" transform="translate(0)"/><path class="c" d="M59.1,270.08a2.19,2.19,0,0,0-2.19-2.19H56.74a2.19,2.19,0,0,0,0,4.38h0.17A2.19,2.19,0,0,0,59.1,270.08Z" transform="translate(0)"/><path class="c" d="M52.2,270.08A2.19,2.19,0,0,0,50,267.9H49.85a2.19,2.19,0,0,0,0,4.38H50A2.19,2.19,0,0,0,52.2,270.08Z" transform="translate(0)"/><path class="c" d="M45.31,270.08a2.19,2.19,0,0,0-2.19-2.19H43a2.19,2.19,0,0,0,0,4.38h0.17A2.19,2.19,0,0,0,45.31,270.08Z" transform="translate(0)"/><path class="c" d="M38.41,270.08a2.19,2.19,0,0,0-2.19-2.19H36.05a2.19,2.19,0,0,0,0,4.38h0.17A2.19,2.19,0,0,0,38.41,270.08Z" transform="translate(0)"/><path class="c" d="M121.17,276.73a2.19,2.19,0,0,0-2.19-2.19h-0.17a2.19,2.19,0,0,0,0,4.38H119A2.19,2.19,0,0,0,121.17,276.73Z" transform="translate(0)"/><path class="c" d="M114.27,276.73a2.19,2.19,0,0,0-2.19-2.19h-0.17a2.19,2.19,0,0,0,0,4.38h0.17A2.19,2.19,0,0,0,114.27,276.73Z" transform="translate(0)"/><path class="c" d="M107.37,276.73a2.19,2.19,0,0,0-2.19-2.19H105a2.19,2.19,0,0,0,0,4.38h0.17A2.19,2.19,0,0,0,107.37,276.73Z" transform="translate(0)"/><path class="c" d="M100.48,276.73a2.19,2.19,0,0,0-2.19-2.19H98.12a2.19,2.19,0,0,0,0,4.38h0.17A2.19,2.19,0,0,0,100.48,276.73Z" transform="translate(0)"/><path class="c" d="M93.58,276.73a2.19,2.19,0,0,0-2.19-2.19H91.23a2.19,2.19,0,0,0,0,4.38H91.4A2.19,2.19,0,0,0,93.58,276.73Z" transform="translate(0)"/><path class="c" d="M86.69,276.73a2.19,2.19,0,0,0-2.19-2.19H84.33a2.19,2.19,0,0,0,0,4.38H84.5A2.19,2.19,0,0,0,86.69,276.73Z" transform="translate(0)"/><path class="c" d="M79.79,276.73a2.19,2.19,0,0,0-2.19-2.19H77.43a2.19,2.19,0,0,0,0,4.38H77.6A2.19,2.19,0,0,0,79.79,276.73Z" transform="translate(0)"/><path class="c" d="M72.89,276.73a2.19,2.19,0,0,0-2.19-2.19H70.54a2.19,2.19,0,0,0,0,4.38h0.17A2.19,2.19,0,0,0,72.89,276.73Z" transform="translate(0)"/><path class="c" d="M66,276.73a2.19,2.19,0,0,0-2.19-2.19H63.64a2.19,2.19,0,0,0,0,4.38h0.17A2.19,2.19,0,0,0,66,276.73Z" transform="translate(0)"/><path class="c" d="M59.1,276.73a2.19,2.19,0,0,0-2.19-2.19H56.74a2.19,2.19,0,0,0,0,4.38h0.17A2.19,2.19,0,0,0,59.1,276.73Z" transform="translate(0)"/><path class="c" d="M52.2,276.73A2.19,2.19,0,0,0,50,274.54H49.85a2.19,2.19,0,0,0,0,4.38H50A2.19,2.19,0,0,0,52.2,276.73Z" transform="translate(0)"/><path class="c" d="M45.31,276.73a2.19,2.19,0,0,0-2.19-2.19H43a2.19,2.19,0,0,0,0,4.38h0.17A2.19,2.19,0,0,0,45.31,276.73Z" transform="translate(0)"/><path class="c" d="M38.41,276.73a2.19,2.19,0,0,0-2.19-2.19H36.05a2.19,2.19,0,0,0,0,4.38h0.17A2.19,2.19,0,0,0,38.41,276.73Z" transform="translate(0)"/><path class="c" d="M121.17,283.38a2.19,2.19,0,0,0-2.19-2.19h-0.17a2.19,2.19,0,0,0,0,4.37H119A2.19,2.19,0,0,0,121.17,283.38Z" transform="translate(0)"/><path class="c" d="M114.27,283.38a2.19,2.19,0,0,0-2.19-2.19h-0.17a2.19,2.19,0,1,0,0,4.37h0.17A2.19,2.19,0,0,0,114.27,283.38Z" transform="translate(0)"/><path class="c" d="M107.37,283.38a2.19,2.19,0,0,0-2.19-2.19H105a2.19,2.19,0,0,0,0,4.37h0.17A2.19,2.19,0,0,0,107.37,283.38Z" transform="translate(0)"/><path class="c" d="M100.48,283.38a2.19,2.19,0,0,0-2.19-2.19H98.12a2.19,2.19,0,0,0,0,4.37h0.17A2.19,2.19,0,0,0,100.48,283.38Z" transform="translate(0)"/><path class="c" d="M93.58,283.38a2.19,2.19,0,0,0-2.19-2.19H91.23a2.19,2.19,0,0,0,0,4.37H91.4A2.19,2.19,0,0,0,93.58,283.38Z" transform="translate(0)"/><path class="c" d="M86.69,283.38a2.19,2.19,0,0,0-2.19-2.19H84.33a2.19,2.19,0,1,0,0,4.37H84.5A2.19,2.19,0,0,0,86.69,283.38Z" transform="translate(0)"/><path class="c" d="M79.79,283.38a2.19,2.19,0,0,0-2.19-2.19H77.43a2.19,2.19,0,0,0,0,4.37H77.6A2.19,2.19,0,0,0,79.79,283.38Z" transform="translate(0)"/><path class="c" d="M72.89,283.38a2.19,2.19,0,0,0-2.19-2.19H70.54a2.19,2.19,0,0,0,0,4.37h0.17A2.19,2.19,0,0,0,72.89,283.38Z" transform="translate(0)"/><path class="c" d="M66,283.38a2.19,2.19,0,0,0-2.19-2.19H63.64a2.19,2.19,0,1,0,0,4.37h0.17A2.19,2.19,0,0,0,66,283.38Z" transform="translate(0)"/><path class="c" d="M59.1,283.38a2.19,2.19,0,0,0-2.19-2.19H56.74a2.19,2.19,0,1,0,0,4.37h0.17A2.19,2.19,0,0,0,59.1,283.38Z" transform="translate(0)"/><path class="c" d="M52.2,283.38A2.19,2.19,0,0,0,50,281.19H49.85a2.19,2.19,0,0,0,0,4.37H50A2.19,2.19,0,0,0,52.2,283.38Z" transform="translate(0)"/><path class="c" d="M45.31,283.38a2.19,2.19,0,0,0-2.19-2.19H43a2.19,2.19,0,0,0,0,4.37h0.17A2.19,2.19,0,0,0,45.31,283.38Z" transform="translate(0)"/><path class="c" d="M38.41,283.38a2.19,2.19,0,0,0-2.19-2.19H36.05a2.19,2.19,0,1,0,0,4.37h0.17A2.19,2.19,0,0,0,38.41,283.38Z" transform="translate(0)"/><path class="c" d="M121.17,290a2.19,2.19,0,0,0-2.19-2.19h-0.17a2.19,2.19,0,0,0,0,4.37H119A2.19,2.19,0,0,0,121.17,290Z" transform="translate(0)"/><path class="c" d="M114.27,290a2.19,2.19,0,0,0-2.19-2.19h-0.17a2.19,2.19,0,1,0,0,4.37h0.17A2.19,2.19,0,0,0,114.27,290Z" transform="translate(0)"/><path class="c" d="M107.37,290a2.19,2.19,0,0,0-2.19-2.19H105a2.19,2.19,0,1,0,0,4.37h0.17A2.19,2.19,0,0,0,107.37,290Z" transform="translate(0)"/><path class="c" d="M100.48,290a2.19,2.19,0,0,0-2.19-2.19H98.12a2.19,2.19,0,1,0,0,4.37h0.17A2.19,2.19,0,0,0,100.48,290Z" transform="translate(0)"/><path class="c" d="M93.58,290a2.19,2.19,0,0,0-2.19-2.19H91.23a2.19,2.19,0,0,0,0,4.37H91.4A2.19,2.19,0,0,0,93.58,290Z" transform="translate(0)"/><path class="c" d="M86.69,290a2.19,2.19,0,0,0-2.19-2.19H84.33a2.19,2.19,0,1,0,0,4.37H84.5A2.19,2.19,0,0,0,86.69,290Z" transform="translate(0)"/><path class="c" d="M79.79,290a2.19,2.19,0,0,0-2.19-2.19H77.43a2.19,2.19,0,1,0,0,4.37H77.6A2.19,2.19,0,0,0,79.79,290Z" transform="translate(0)"/><path class="c" d="M72.89,290a2.19,2.19,0,0,0-2.19-2.19H70.54a2.19,2.19,0,1,0,0,4.37h0.17A2.19,2.19,0,0,0,72.89,290Z" transform="translate(0)"/><path class="c" d="M66,290a2.19,2.19,0,0,0-2.19-2.19H63.64a2.19,2.19,0,1,0,0,4.37h0.17A2.19,2.19,0,0,0,66,290Z" transform="translate(0)"/><path class="c" d="M59.1,290a2.19,2.19,0,0,0-2.19-2.19H56.74a2.19,2.19,0,1,0,0,4.37h0.17A2.19,2.19,0,0,0,59.1,290Z" transform="translate(0)"/><path class="c" d="M52.2,290A2.19,2.19,0,0,0,50,287.84H49.85a2.19,2.19,0,1,0,0,4.37H50A2.19,2.19,0,0,0,52.2,290Z" transform="translate(0)"/><path class="c" d="M45.31,290a2.19,2.19,0,0,0-2.19-2.19H43a2.19,2.19,0,1,0,0,4.37h0.17A2.19,2.19,0,0,0,45.31,290Z" transform="translate(0)"/><path class="c" d="M38.41,290a2.19,2.19,0,0,0-2.19-2.19H36.05a2.19,2.19,0,1,0,0,4.37h0.17A2.19,2.19,0,0,0,38.41,290Z" transform="translate(0)"/><path class="c" d="M121.17,296.67a2.19,2.19,0,0,0-2.19-2.19h-0.17a2.19,2.19,0,0,0,0,4.38H119A2.19,2.19,0,0,0,121.17,296.67Z" transform="translate(0)"/><path class="c" d="M114.27,296.67a2.19,2.19,0,0,0-2.19-2.19h-0.17a2.19,2.19,0,0,0,0,4.38h0.17A2.19,2.19,0,0,0,114.27,296.67Z" transform="translate(0)"/><path class="c" d="M107.37,296.67a2.19,2.19,0,0,0-2.19-2.19H105a2.19,2.19,0,0,0,0,4.38h0.17A2.19,2.19,0,0,0,107.37,296.67Z" transform="translate(0)"/><path class="c" d="M100.48,296.67a2.19,2.19,0,0,0-2.19-2.19H98.12a2.19,2.19,0,0,0,0,4.38h0.17A2.19,2.19,0,0,0,100.48,296.67Z" transform="translate(0)"/><path class="c" d="M93.58,296.67a2.19,2.19,0,0,0-2.19-2.19H91.23a2.19,2.19,0,0,0,0,4.38H91.4A2.19,2.19,0,0,0,93.58,296.67Z" transform="translate(0)"/><path class="c" d="M86.69,296.67a2.19,2.19,0,0,0-2.19-2.19H84.33a2.19,2.19,0,0,0,0,4.38H84.5A2.19,2.19,0,0,0,86.69,296.67Z" transform="translate(0)"/><path class="c" d="M79.79,296.67a2.19,2.19,0,0,0-2.19-2.19H77.43a2.19,2.19,0,0,0,0,4.38H77.6A2.19,2.19,0,0,0,79.79,296.67Z" transform="translate(0)"/><path class="c" d="M72.89,296.67a2.19,2.19,0,0,0-2.19-2.19H70.54a2.19,2.19,0,0,0,0,4.38h0.17A2.19,2.19,0,0,0,72.89,296.67Z" transform="translate(0)"/><path class="c" d="M66,296.67a2.19,2.19,0,0,0-2.19-2.19H63.64a2.19,2.19,0,0,0,0,4.38h0.17A2.19,2.19,0,0,0,66,296.67Z" transform="translate(0)"/><path class="c" d="M59.1,296.67a2.19,2.19,0,0,0-2.19-2.19H56.74a2.19,2.19,0,0,0,0,4.38h0.17A2.19,2.19,0,0,0,59.1,296.67Z" transform="translate(0)"/><path class="c" d="M52.2,296.67A2.19,2.19,0,0,0,50,294.48H49.85a2.19,2.19,0,0,0,0,4.38H50A2.19,2.19,0,0,0,52.2,296.67Z" transform="translate(0)"/><path class="c" d="M45.31,296.67a2.19,2.19,0,0,0-2.19-2.19H43a2.19,2.19,0,0,0,0,4.38h0.17A2.19,2.19,0,0,0,45.31,296.67Z" transform="translate(0)"/><path class="c" d="M38.41,296.67a2.19,2.19,0,0,0-2.19-2.19H36.05a2.19,2.19,0,0,0,0,4.38h0.17A2.19,2.19,0,0,0,38.41,296.67Z" transform="translate(0)"/><path class="c" d="M121.17,303.32a2.19,2.19,0,0,0-2.19-2.19h-0.17a2.19,2.19,0,0,0,0,4.37H119A2.19,2.19,0,0,0,121.17,303.32Z" transform="translate(0)"/><path class="c" d="M114.27,303.32a2.19,2.19,0,0,0-2.19-2.19h-0.17a2.19,2.19,0,1,0,0,4.37h0.17A2.19,2.19,0,0,0,114.27,303.32Z" transform="translate(0)"/><path class="c" d="M107.38,303.32a2.19,2.19,0,0,0-2.19-2.19H105a2.19,2.19,0,1,0,0,4.37h0.17A2.19,2.19,0,0,0,107.38,303.32Z" transform="translate(0)"/><path class="c" d="M100.48,303.32a2.19,2.19,0,0,0-2.19-2.19H98.12a2.19,2.19,0,1,0,0,4.37h0.17A2.19,2.19,0,0,0,100.48,303.32Z" transform="translate(0)"/><path class="c" d="M93.58,303.32a2.19,2.19,0,0,0-2.19-2.19H91.23a2.19,2.19,0,0,0,0,4.37H91.4A2.19,2.19,0,0,0,93.58,303.32Z" transform="translate(0)"/><path class="c" d="M86.69,303.32a2.19,2.19,0,0,0-2.19-2.19H84.33a2.19,2.19,0,1,0,0,4.37H84.5A2.19,2.19,0,0,0,86.69,303.32Z" transform="translate(0)"/><path class="c" d="M79.79,303.32a2.19,2.19,0,0,0-2.19-2.19H77.44a2.19,2.19,0,1,0,0,4.37H77.6A2.19,2.19,0,0,0,79.79,303.32Z" transform="translate(0)"/><path class="c" d="M72.89,303.32a2.19,2.19,0,0,0-2.19-2.19H70.54a2.19,2.19,0,1,0,0,4.37h0.17A2.19,2.19,0,0,0,72.89,303.32Z" transform="translate(0)"/><path class="c" d="M66,303.32a2.19,2.19,0,0,0-2.19-2.19H63.64a2.19,2.19,0,1,0,0,4.37h0.17A2.19,2.19,0,0,0,66,303.32Z" transform="translate(0)"/><path class="c" d="M59.1,303.32a2.19,2.19,0,0,0-2.19-2.19H56.74a2.19,2.19,0,1,0,0,4.37h0.17A2.19,2.19,0,0,0,59.1,303.32Z" transform="translate(0)"/><path class="c" d="M52.2,303.32A2.19,2.19,0,0,0,50,301.13H49.85a2.19,2.19,0,1,0,0,4.37H50A2.19,2.19,0,0,0,52.2,303.32Z" transform="translate(0)"/><path class="c" d="M45.31,303.32a2.19,2.19,0,0,0-2.19-2.19H43a2.19,2.19,0,1,0,0,4.37h0.17A2.19,2.19,0,0,0,45.31,303.32Z" transform="translate(0)"/><path class="c" d="M38.41,303.32a2.19,2.19,0,0,0-2.19-2.19H36.05a2.19,2.19,0,1,0,0,4.37h0.17A2.19,2.19,0,0,0,38.41,303.32Z" transform="translate(0)"/><path class="c" d="M121.17,310a2.19,2.19,0,0,0-2.19-2.19h-0.17a2.19,2.19,0,0,0,0,4.38H119A2.19,2.19,0,0,0,121.17,310Z" transform="translate(0)"/><path class="c" d="M114.27,310a2.19,2.19,0,0,0-2.19-2.19h-0.17a2.19,2.19,0,0,0,0,4.38h0.17A2.19,2.19,0,0,0,114.27,310Z" transform="translate(0)"/><path class="c" d="M107.37,310a2.19,2.19,0,0,0-2.19-2.19H105a2.19,2.19,0,0,0,0,4.38h0.17A2.19,2.19,0,0,0,107.37,310Z" transform="translate(0)"/><path class="c" d="M100.48,310a2.19,2.19,0,0,0-2.19-2.19H98.12a2.19,2.19,0,0,0,0,4.38h0.17A2.19,2.19,0,0,0,100.48,310Z" transform="translate(0)"/><path class="c" d="M93.58,310a2.19,2.19,0,0,0-2.19-2.19H91.23a2.19,2.19,0,0,0,0,4.38h0.17A2.19,2.19,0,0,0,93.58,310Z" transform="translate(0)"/><path class="c" d="M86.69,310a2.19,2.19,0,0,0-2.19-2.19H84.33a2.19,2.19,0,0,0,0,4.38H84.5A2.19,2.19,0,0,0,86.69,310Z" transform="translate(0)"/><path class="c" d="M79.79,310a2.19,2.19,0,0,0-2.19-2.19H77.43a2.19,2.19,0,0,0,0,4.38H77.6A2.19,2.19,0,0,0,79.79,310Z" transform="translate(0)"/><path class="c" d="M72.89,310a2.19,2.19,0,0,0-2.19-2.19H70.54a2.19,2.19,0,0,0,0,4.38h0.17A2.19,2.19,0,0,0,72.89,310Z" transform="translate(0)"/><path class="c" d="M66,310a2.19,2.19,0,0,0-2.19-2.19H63.64a2.19,2.19,0,0,0,0,4.38h0.17A2.19,2.19,0,0,0,66,310Z" transform="translate(0)"/><path class="c" d="M59.1,310a2.19,2.19,0,0,0-2.19-2.19H56.74a2.19,2.19,0,1,0,0,4.38h0.17A2.19,2.19,0,0,0,59.1,310Z" transform="translate(0)"/><path class="c" d="M52.2,310A2.19,2.19,0,0,0,50,307.77H49.85a2.19,2.19,0,0,0,0,4.38H50A2.19,2.19,0,0,0,52.2,310Z" transform="translate(0)"/><path class="c" d="M45.3,310a2.19,2.19,0,0,0-2.19-2.19H43a2.19,2.19,0,0,0,0,4.38h0.17A2.19,2.19,0,0,0,45.3,310Z" transform="translate(0)"/><path class="c" d="M38.41,310a2.19,2.19,0,0,0-2.19-2.19H36.05a2.19,2.19,0,0,0,0,4.38h0.17A2.19,2.19,0,0,0,38.41,310Z" transform="translate(0)"/><path class="c" d="M121.17,316.61a2.18,2.18,0,0,0-2.19-2.18h-0.17a2.19,2.19,0,0,0,0,4.38H119A2.19,2.19,0,0,0,121.17,316.61Z" transform="translate(0)"/><path class="c" d="M114.27,316.61a2.18,2.18,0,0,0-2.19-2.18h-0.17a2.19,2.19,0,0,0,0,4.38h0.17A2.19,2.19,0,0,0,114.27,316.61Z" transform="translate(0)"/><path class="c" d="M107.38,316.61a2.19,2.19,0,0,0-2.19-2.18H105a2.19,2.19,0,1,0,0,4.38h0.17A2.19,2.19,0,0,0,107.38,316.61Z" transform="translate(0)"/><path class="c" d="M100.48,316.61a2.19,2.19,0,0,0-2.19-2.18H98.12a2.19,2.19,0,0,0,0,4.38h0.17A2.19,2.19,0,0,0,100.48,316.61Z" transform="translate(0)"/><path class="c" d="M93.58,316.61a2.18,2.18,0,0,0-2.19-2.18H91.23a2.19,2.19,0,0,0,0,4.38H91.4A2.19,2.19,0,0,0,93.58,316.61Z" transform="translate(0)"/><path class="c" d="M86.69,316.61a2.19,2.19,0,0,0-2.19-2.18H84.33a2.19,2.19,0,0,0,0,4.38H84.5A2.19,2.19,0,0,0,86.69,316.61Z" transform="translate(0)"/><path class="c" d="M79.79,316.61a2.19,2.19,0,0,0-2.19-2.18H77.44a2.19,2.19,0,0,0,0,4.38H77.6A2.19,2.19,0,0,0,79.79,316.61Z" transform="translate(0)"/><path class="c" d="M72.89,316.61a2.19,2.19,0,0,0-2.19-2.18H70.54a2.19,2.19,0,0,0,0,4.38h0.17A2.19,2.19,0,0,0,72.89,316.61Z" transform="translate(0)"/><path class="c" d="M66,316.61a2.19,2.19,0,0,0-2.19-2.18H63.64a2.19,2.19,0,0,0,0,4.38h0.17A2.19,2.19,0,0,0,66,316.61Z" transform="translate(0)"/><path class="c" d="M59.1,316.61a2.19,2.19,0,0,0-2.19-2.18H56.74a2.19,2.19,0,0,0,0,4.38h0.17A2.19,2.19,0,0,0,59.1,316.61Z" transform="translate(0)"/><path class="c" d="M52.2,316.61A2.19,2.19,0,0,0,50,314.42H49.85a2.19,2.19,0,0,0,0,4.38H50A2.19,2.19,0,0,0,52.2,316.61Z" transform="translate(0)"/><path class="c" d="M45.31,316.61a2.19,2.19,0,0,0-2.19-2.18H43a2.19,2.19,0,0,0,0,4.38h0.17A2.19,2.19,0,0,0,45.31,316.61Z" transform="translate(0)"/><path class="c" d="M38.41,316.61a2.19,2.19,0,0,0-2.19-2.18H36.05a2.19,2.19,0,0,0,0,4.38h0.17A2.19,2.19,0,0,0,38.41,316.61Z" transform="translate(0)"/><path class="c" d="M121.17,323.26a2.19,2.19,0,0,0-2.19-2.19h-0.17a2.19,2.19,0,0,0,0,4.37H119A2.19,2.19,0,0,0,121.17,323.26Z" transform="translate(0)"/><path class="c" d="M114.27,323.26a2.19,2.19,0,0,0-2.19-2.19h-0.17a2.19,2.19,0,0,0,0,4.37h0.17A2.19,2.19,0,0,0,114.27,323.26Z" transform="translate(0)"/><path class="c" d="M107.37,323.26a2.19,2.19,0,0,0-2.19-2.19H105a2.19,2.19,0,0,0,0,4.37h0.17A2.19,2.19,0,0,0,107.37,323.26Z" transform="translate(0)"/><path class="c" d="M100.48,323.26a2.19,2.19,0,0,0-2.19-2.19H98.12a2.19,2.19,0,0,0,0,4.37h0.17A2.19,2.19,0,0,0,100.48,323.26Z" transform="translate(0)"/><path class="c" d="M93.58,323.26a2.19,2.19,0,0,0-2.19-2.19H91.23a2.19,2.19,0,0,0,0,4.37h0.17A2.19,2.19,0,0,0,93.58,323.26Z" transform="translate(0)"/><path class="c" d="M86.69,323.26a2.19,2.19,0,0,0-2.19-2.19H84.33a2.19,2.19,0,1,0,0,4.37H84.5A2.19,2.19,0,0,0,86.69,323.26Z" transform="translate(0)"/><path class="c" d="M79.79,323.26a2.19,2.19,0,0,0-2.19-2.19H77.43a2.19,2.19,0,1,0,0,4.37H77.6A2.19,2.19,0,0,0,79.79,323.26Z" transform="translate(0)"/><path class="c" d="M72.89,323.26a2.19,2.19,0,0,0-2.19-2.19H70.54a2.19,2.19,0,0,0,0,4.37h0.17A2.19,2.19,0,0,0,72.89,323.26Z" transform="translate(0)"/><path class="c" d="M66,323.26a2.19,2.19,0,0,0-2.19-2.19H63.64a2.19,2.19,0,1,0,0,4.37h0.17A2.19,2.19,0,0,0,66,323.26Z" transform="translate(0)"/><path class="c" d="M59.1,323.26a2.19,2.19,0,0,0-2.19-2.19H56.74a2.19,2.19,0,1,0,0,4.37h0.17A2.19,2.19,0,0,0,59.1,323.26Z" transform="translate(0)"/><path class="c" d="M52.2,323.26A2.19,2.19,0,0,0,50,321.07H49.85a2.19,2.19,0,1,0,0,4.37H50A2.19,2.19,0,0,0,52.2,323.26Z" transform="translate(0)"/><path class="c" d="M45.3,323.26a2.19,2.19,0,0,0-2.19-2.19H43a2.19,2.19,0,0,0,0,4.37h0.17A2.19,2.19,0,0,0,45.3,323.26Z" transform="translate(0)"/><path class="c" d="M38.41,323.26a2.19,2.19,0,0,0-2.19-2.19H36.05a2.19,2.19,0,0,0,0,4.37h0.17A2.19,2.19,0,0,0,38.41,323.26Z" transform="translate(0)"/><path class="c" d="M121.17,329.9a2.19,2.19,0,0,0-2.19-2.19h-0.17a2.19,2.19,0,0,0,0,4.37H119A2.19,2.19,0,0,0,121.17,329.9Z" transform="translate(0)"/><path class="c" d="M114.27,329.9a2.19,2.19,0,0,0-2.19-2.19h-0.17a2.19,2.19,0,1,0,0,4.37h0.17A2.19,2.19,0,0,0,114.27,329.9Z" transform="translate(0)"/><path class="c" d="M107.37,329.9a2.19,2.19,0,0,0-2.19-2.19H105a2.19,2.19,0,0,0,0,4.37h0.17A2.19,2.19,0,0,0,107.37,329.9Z" transform="translate(0)"/><path class="c" d="M100.48,329.9a2.19,2.19,0,0,0-2.19-2.19H98.12a2.19,2.19,0,0,0,0,4.37h0.17A2.19,2.19,0,0,0,100.48,329.9Z" transform="translate(0)"/><path class="c" d="M93.58,329.9a2.19,2.19,0,0,0-2.19-2.19H91.23a2.19,2.19,0,0,0,0,4.37H91.4A2.19,2.19,0,0,0,93.58,329.9Z" transform="translate(0)"/><path class="c" d="M86.69,329.9a2.19,2.19,0,0,0-2.19-2.19H84.33a2.19,2.19,0,1,0,0,4.37H84.5A2.19,2.19,0,0,0,86.69,329.9Z" transform="translate(0)"/><path class="c" d="M79.79,329.9a2.19,2.19,0,0,0-2.19-2.19H77.43a2.19,2.19,0,0,0,0,4.37H77.6A2.19,2.19,0,0,0,79.79,329.9Z" transform="translate(0)"/><path class="c" d="M72.89,329.9a2.19,2.19,0,0,0-2.19-2.19H70.54a2.19,2.19,0,0,0,0,4.37h0.17A2.19,2.19,0,0,0,72.89,329.9Z" transform="translate(0)"/><path class="c" d="M66,329.9a2.19,2.19,0,0,0-2.19-2.19H63.64a2.19,2.19,0,1,0,0,4.37h0.17A2.19,2.19,0,0,0,66,329.9Z" transform="translate(0)"/><path class="c" d="M59.1,329.9a2.19,2.19,0,0,0-2.19-2.19H56.74a2.19,2.19,0,1,0,0,4.37h0.17A2.19,2.19,0,0,0,59.1,329.9Z" transform="translate(0)"/><path class="c" d="M52.2,329.9A2.19,2.19,0,0,0,50,327.72H49.85a2.19,2.19,0,0,0,0,4.37H50A2.19,2.19,0,0,0,52.2,329.9Z" transform="translate(0)"/><path class="c" d="M45.31,329.9a2.19,2.19,0,0,0-2.19-2.19H43a2.19,2.19,0,0,0,0,4.37h0.17A2.19,2.19,0,0,0,45.31,329.9Z" transform="translate(0)"/><path class="c" d="M38.41,329.9a2.19,2.19,0,0,0-2.19-2.19H36.05a2.19,2.19,0,1,0,0,4.37h0.17A2.19,2.19,0,0,0,38.41,329.9Z" transform="translate(0)"/><path class="c" d="M121.17,336.55a2.19,2.19,0,0,0-2.19-2.19h-0.17a2.19,2.19,0,1,0,0,4.37H119A2.19,2.19,0,0,0,121.17,336.55Z" transform="translate(0)"/><path class="c" d="M114.27,336.55a2.19,2.19,0,0,0-2.19-2.19h-0.17a2.19,2.19,0,1,0,0,4.37h0.17A2.19,2.19,0,0,0,114.27,336.55Z" transform="translate(0)"/><path class="c" d="M107.38,336.55a2.19,2.19,0,0,0-2.19-2.19H105a2.19,2.19,0,1,0,0,4.37h0.17A2.19,2.19,0,0,0,107.38,336.55Z" transform="translate(0)"/><path class="c" d="M100.48,336.55a2.19,2.19,0,0,0-2.19-2.19H98.12a2.19,2.19,0,1,0,0,4.37h0.17A2.19,2.19,0,0,0,100.48,336.55Z" transform="translate(0)"/><path class="c" d="M93.58,336.55a2.18,2.18,0,0,0-2.19-2.19H91.23a2.19,2.19,0,1,0,0,4.37H91.4A2.18,2.18,0,0,0,93.58,336.55Z" transform="translate(0)"/><path class="c" d="M86.69,336.55a2.19,2.19,0,0,0-2.19-2.19H84.33a2.19,2.19,0,1,0,0,4.37H84.5A2.19,2.19,0,0,0,86.69,336.55Z" transform="translate(0)"/><path class="c" d="M72.89,336.55a2.19,2.19,0,0,0-2.19-2.19H70.54a2.19,2.19,0,1,0,0,4.37h0.17A2.19,2.19,0,0,0,72.89,336.55Z" transform="translate(0)"/><path class="c" d="M66,336.55a2.19,2.19,0,0,0-2.19-2.19H63.64a2.19,2.19,0,1,0,0,4.37h0.17A2.19,2.19,0,0,0,66,336.55Z" transform="translate(0)"/><path class="c" d="M59.1,336.55a2.19,2.19,0,0,0-2.19-2.19H56.74a2.19,2.19,0,1,0,0,4.37h0.17A2.19,2.19,0,0,0,59.1,336.55Z" transform="translate(0)"/><path class="c" d="M52.2,336.55A2.19,2.19,0,0,0,50,334.36H49.85a2.19,2.19,0,1,0,0,4.37H50A2.19,2.19,0,0,0,52.2,336.55Z" transform="translate(0)"/><path class="c" d="M45.31,336.55a2.19,2.19,0,0,0-2.19-2.19H43a2.19,2.19,0,1,0,0,4.37h0.17A2.19,2.19,0,0,0,45.31,336.55Z" transform="translate(0)"/><path class="c" d="M38.41,336.55a2.19,2.19,0,0,0-2.19-2.19H36.05a2.19,2.19,0,1,0,0,4.37h0.17A2.19,2.19,0,0,0,38.41,336.55Z" transform="translate(0)"/><path class="c" d="M121.17,343.19A2.19,2.19,0,0,0,119,341h-0.17a2.19,2.19,0,0,0,0,4.37H119A2.19,2.19,0,0,0,121.17,343.19Z" transform="translate(0)"/><path class="c" d="M114.27,343.19a2.19,2.19,0,0,0-2.19-2.19h-0.17a2.19,2.19,0,0,0,0,4.37h0.17A2.19,2.19,0,0,0,114.27,343.19Z" transform="translate(0)"/><path class="c" d="M100.48,343.19A2.19,2.19,0,0,0,98.29,341H98.12a2.19,2.19,0,0,0,0,4.37h0.17A2.19,2.19,0,0,0,100.48,343.19Z" transform="translate(0)"/><path class="c" d="M93.58,343.19A2.19,2.19,0,0,0,91.39,341H91.23a2.19,2.19,0,0,0,0,4.37h0.17A2.19,2.19,0,0,0,93.58,343.19Z" transform="translate(0)"/><path class="c" d="M86.69,343.19A2.19,2.19,0,0,0,84.5,341H84.33a2.19,2.19,0,1,0,0,4.37H84.5A2.19,2.19,0,0,0,86.69,343.19Z" transform="translate(0)"/><path class="c" d="M72.89,343.19A2.19,2.19,0,0,0,70.71,341H70.54a2.19,2.19,0,0,0,0,4.37h0.17A2.19,2.19,0,0,0,72.89,343.19Z" transform="translate(0)"/><path class="c" d="M66,343.19A2.19,2.19,0,0,0,63.81,341H63.64a2.19,2.19,0,0,0,0,4.37h0.17A2.19,2.19,0,0,0,66,343.19Z" transform="translate(0)"/><path class="c" d="M59.1,343.19A2.19,2.19,0,0,0,56.91,341H56.74a2.19,2.19,0,1,0,0,4.37h0.17A2.19,2.19,0,0,0,59.1,343.19Z" transform="translate(0)"/><path class="c" d="M45.3,343.19A2.19,2.19,0,0,0,43.12,341H43a2.19,2.19,0,0,0,0,4.37h0.17A2.19,2.19,0,0,0,45.3,343.19Z" transform="translate(0)"/><path class="c" d="M38.41,343.19A2.19,2.19,0,0,0,36.22,341H36.05a2.19,2.19,0,0,0,0,4.37h0.17A2.19,2.19,0,0,0,38.41,343.19Z" transform="translate(0)"/><path class="c" d="M100.48,349.84a2.19,2.19,0,0,0-2.19-2.19H98.12a2.19,2.19,0,0,0,0,4.38h0.17A2.19,2.19,0,0,0,100.48,349.84Z" transform="translate(0)"/><path class="c" d="M93.58,349.84a2.19,2.19,0,0,0-2.19-2.19H91.23a2.19,2.19,0,0,0,0,4.38H91.4A2.19,2.19,0,0,0,93.58,349.84Z" transform="translate(0)"/><path class="c" d="M86.69,349.84a2.19,2.19,0,0,0-2.19-2.19H84.33a2.19,2.19,0,0,0,0,4.38H84.5A2.19,2.19,0,0,0,86.69,349.84Z" transform="translate(0)"/><path class="c" d="M72.89,349.84a2.19,2.19,0,0,0-2.19-2.19H70.54a2.19,2.19,0,0,0,0,4.38h0.17A2.19,2.19,0,0,0,72.89,349.84Z" transform="translate(0)"/><path class="c" d="M66,349.84a2.19,2.19,0,0,0-2.19-2.19H63.64a2.19,2.19,0,0,0,0,4.38h0.17A2.19,2.19,0,0,0,66,349.84Z" transform="translate(0)"/><path class="c" d="M59.1,349.84a2.19,2.19,0,0,0-2.19-2.19H56.74a2.19,2.19,0,0,0,0,4.38h0.17A2.19,2.19,0,0,0,59.1,349.84Z" transform="translate(0)"/><path class="c" d="M100.48,356.49a2.19,2.19,0,0,0-2.19-2.19H98.12a2.19,2.19,0,1,0,0,4.37h0.17A2.19,2.19,0,0,0,100.48,356.49Z" transform="translate(0)"/><path class="c" d="M93.58,356.49a2.18,2.18,0,0,0-2.19-2.19H91.23a2.19,2.19,0,1,0,0,4.37H91.4A2.18,2.18,0,0,0,93.58,356.49Z" transform="translate(0)"/><path class="c" d="M86.69,356.49a2.19,2.19,0,0,0-2.19-2.19H84.33a2.19,2.19,0,1,0,0,4.37H84.5A2.19,2.19,0,0,0,86.69,356.49Z" transform="translate(0)"/><path class="c" d="M72.89,356.49a2.19,2.19,0,0,0-2.19-2.19H70.54a2.19,2.19,0,1,0,0,4.37h0.17A2.19,2.19,0,0,0,72.89,356.49Z" transform="translate(0)"/><path class="c" d="M66,356.49a2.19,2.19,0,0,0-2.19-2.19H63.64a2.19,2.19,0,1,0,0,4.37h0.17A2.19,2.19,0,0,0,66,356.49Z" transform="translate(0)"/><path class="c" d="M59.1,356.49a2.19,2.19,0,0,0-2.19-2.19H56.74a2.19,2.19,0,1,0,0,4.37h0.17A2.19,2.19,0,0,0,59.1,356.49Z" transform="translate(0)"/><path class="c" d="M100.48,363.13a2.19,2.19,0,0,0-2.19-2.19H98.12a2.19,2.19,0,1,0,0,4.37h0.17A2.19,2.19,0,0,0,100.48,363.13Z" transform="translate(0)"/><path class="c" d="M93.58,363.13a2.19,2.19,0,0,0-2.19-2.19H91.23a2.19,2.19,0,0,0,0,4.37h0.17A2.19,2.19,0,0,0,93.58,363.13Z" transform="translate(0)"/><path class="c" d="M86.69,363.13a2.19,2.19,0,0,0-2.19-2.19H84.33a2.19,2.19,0,1,0,0,4.37H84.5A2.19,2.19,0,0,0,86.69,363.13Z" transform="translate(0)"/><path class="c" d="M72.89,363.13a2.19,2.19,0,0,0-2.19-2.19H70.54a2.19,2.19,0,0,0,0,4.37h0.17A2.19,2.19,0,0,0,72.89,363.13Z" transform="translate(0)"/><path class="c" d="M66,363.13a2.19,2.19,0,0,0-2.19-2.19H63.64a2.19,2.19,0,1,0,0,4.37h0.17A2.19,2.19,0,0,0,66,363.13Z" transform="translate(0)"/><path class="c" d="M59.1,363.13a2.19,2.19,0,0,0-2.19-2.19H56.74a2.19,2.19,0,1,0,0,4.37h0.17A2.19,2.19,0,0,0,59.1,363.13Z" transform="translate(0)"/><path class="c" d="M100.48,369.78a2.19,2.19,0,0,0-2.19-2.19H98.12a2.19,2.19,0,0,0,0,4.38h0.17A2.19,2.19,0,0,0,100.48,369.78Z" transform="translate(0)"/><path class="c" d="M93.58,369.78a2.19,2.19,0,0,0-2.19-2.19H91.23a2.19,2.19,0,0,0,0,4.38H91.4A2.19,2.19,0,0,0,93.58,369.78Z" transform="translate(0)"/><path class="c" d="M86.69,369.78a2.19,2.19,0,0,0-2.19-2.19H84.33a2.19,2.19,0,0,0,0,4.38H84.5A2.19,2.19,0,0,0,86.69,369.78Z" transform="translate(0)"/><path class="c" d="M72.89,369.78a2.19,2.19,0,0,0-2.19-2.19H70.54a2.19,2.19,0,0,0,0,4.38h0.17A2.19,2.19,0,0,0,72.89,369.78Z" transform="translate(0)"/><path class="c" d="M66,369.78a2.19,2.19,0,0,0-2.19-2.19H63.64a2.19,2.19,0,0,0,0,4.38h0.17A2.19,2.19,0,0,0,66,369.78Z" transform="translate(0)"/><path class="c" d="M59.1,369.78a2.19,2.19,0,0,0-2.19-2.19H56.74a2.19,2.19,0,0,0,0,4.38h0.17A2.19,2.19,0,0,0,59.1,369.78Z" transform="translate(0)"/><path class="c" d="M100.48,376.42a2.19,2.19,0,0,0-2.19-2.19H98.12a2.19,2.19,0,1,0,0,4.37h0.17A2.19,2.19,0,0,0,100.48,376.42Z" transform="translate(0)"/><path class="c" d="M93.58,376.42a2.19,2.19,0,0,0-2.19-2.19H91.23a2.19,2.19,0,0,0,0,4.37H91.4A2.19,2.19,0,0,0,93.58,376.42Z" transform="translate(0)"/><path class="c" d="M86.69,376.42a2.19,2.19,0,0,0-2.19-2.19H84.33a2.19,2.19,0,1,0,0,4.37H84.5A2.19,2.19,0,0,0,86.69,376.42Z" transform="translate(0)"/><path class="c" d="M72.89,376.42a2.19,2.19,0,0,0-2.19-2.19H70.54a2.19,2.19,0,1,0,0,4.37h0.17A2.19,2.19,0,0,0,72.89,376.42Z" transform="translate(0)"/><path class="c" d="M66,376.42a2.19,2.19,0,0,0-2.19-2.19H63.64a2.19,2.19,0,1,0,0,4.37h0.17A2.19,2.19,0,0,0,66,376.42Z" transform="translate(0)"/><path class="c" d="M59.1,376.42a2.19,2.19,0,0,0-2.19-2.19H56.74a2.19,2.19,0,1,0,0,4.37h0.17A2.19,2.19,0,0,0,59.1,376.42Z" transform="translate(0)"/><path class="c" d="M100.48,383.07a2.19,2.19,0,0,0-2.19-2.19H98.12a2.19,2.19,0,1,0,0,4.37h0.17A2.19,2.19,0,0,0,100.48,383.07Z" transform="translate(0)"/><path class="c" d="M93.58,383.07a2.19,2.19,0,0,0-2.19-2.19H91.23a2.19,2.19,0,0,0,0,4.37H91.4A2.19,2.19,0,0,0,93.58,383.07Z" transform="translate(0)"/><path class="c" d="M86.69,383.07a2.19,2.19,0,0,0-2.19-2.19H84.33a2.19,2.19,0,1,0,0,4.37H84.5A2.19,2.19,0,0,0,86.69,383.07Z" transform="translate(0)"/><path class="c" d="M72.89,383.07a2.19,2.19,0,0,0-2.19-2.19H70.54a2.19,2.19,0,0,0,0,4.37h0.17A2.19,2.19,0,0,0,72.89,383.07Z" transform="translate(0)"/><path class="c" d="M66,383.07a2.19,2.19,0,0,0-2.19-2.19H63.64a2.19,2.19,0,1,0,0,4.37h0.17A2.19,2.19,0,0,0,66,383.07Z" transform="translate(0)"/><path class="c" d="M59.1,383.07a2.19,2.19,0,0,0-2.19-2.19H56.74a2.19,2.19,0,1,0,0,4.37h0.17A2.19,2.19,0,0,0,59.1,383.07Z" transform="translate(0)"/><path class="c" d="M100.48,389.71a2.19,2.19,0,0,0-2.19-2.19H98.12a2.19,2.19,0,0,0,0,4.38h0.17A2.19,2.19,0,0,0,100.48,389.71Z" transform="translate(0)"/><path class="c" d="M93.58,389.71a2.19,2.19,0,0,0-2.19-2.19H91.23a2.19,2.19,0,0,0,0,4.38H91.4A2.19,2.19,0,0,0,93.58,389.71Z" transform="translate(0)"/><path class="c" d="M86.69,389.71a2.19,2.19,0,0,0-2.19-2.19H84.33a2.19,2.19,0,0,0,0,4.38H84.5A2.19,2.19,0,0,0,86.69,389.71Z" transform="translate(0)"/><path class="c" d="M72.89,389.71a2.19,2.19,0,0,0-2.19-2.19H70.54a2.19,2.19,0,0,0,0,4.38h0.17A2.19,2.19,0,0,0,72.89,389.71Z" transform="translate(0)"/><path class="c" d="M66,389.71a2.19,2.19,0,0,0-2.19-2.19H63.64a2.19,2.19,0,0,0,0,4.38h0.17A2.19,2.19,0,0,0,66,389.71Z" transform="translate(0)"/><path class="c" d="M59.1,389.71a2.19,2.19,0,0,0-2.19-2.19H56.74a2.19,2.19,0,0,0,0,4.38h0.17A2.19,2.19,0,0,0,59.1,389.71Z" transform="translate(0)"/><path class="c" d="M100.48,396.36a2.19,2.19,0,0,0-2.19-2.19H98.12a2.19,2.19,0,0,0,0,4.37h0.17A2.19,2.19,0,0,0,100.48,396.36Z" transform="translate(0)"/><path class="c" d="M93.58,396.36a2.19,2.19,0,0,0-2.19-2.19H91.23a2.19,2.19,0,0,0,0,4.37H91.4A2.19,2.19,0,0,0,93.58,396.36Z" transform="translate(0)"/><path class="c" d="M86.69,396.36a2.19,2.19,0,0,0-2.19-2.19H84.33a2.19,2.19,0,1,0,0,4.37H84.5A2.19,2.19,0,0,0,86.69,396.36Z" transform="translate(0)"/><path class="c" d="M72.89,396.36a2.19,2.19,0,0,0-2.19-2.19H70.54a2.19,2.19,0,0,0,0,4.37h0.17A2.19,2.19,0,0,0,72.89,396.36Z" transform="translate(0)"/><path class="c" d="M66,396.36a2.19,2.19,0,0,0-2.19-2.19H63.64a2.19,2.19,0,1,0,0,4.37h0.17A2.19,2.19,0,0,0,66,396.36Z" transform="translate(0)"/><path class="c" d="M59.1,396.36a2.19,2.19,0,0,0-2.19-2.19H56.74a2.19,2.19,0,1,0,0,4.37h0.17A2.19,2.19,0,0,0,59.1,396.36Z" transform="translate(0)"/><path class="c" d="M100.48,403a2.19,2.19,0,0,0-2.19-2.19H98.12a2.19,2.19,0,1,0,0,4.37h0.17A2.19,2.19,0,0,0,100.48,403Z" transform="translate(0)"/><path class="c" d="M93.58,403a2.19,2.19,0,0,0-2.19-2.19H91.23a2.19,2.19,0,0,0,0,4.37H91.4A2.19,2.19,0,0,0,93.58,403Z" transform="translate(0)"/><path class="c" d="M86.69,403a2.19,2.19,0,0,0-2.19-2.19H84.33a2.19,2.19,0,1,0,0,4.37H84.5A2.19,2.19,0,0,0,86.69,403Z" transform="translate(0)"/><path class="c" d="M72.89,403a2.19,2.19,0,0,0-2.19-2.19H70.54a2.19,2.19,0,1,0,0,4.37h0.17A2.19,2.19,0,0,0,72.89,403Z" transform="translate(0)"/><path class="c" d="M66,403a2.19,2.19,0,0,0-2.19-2.19H63.64a2.19,2.19,0,1,0,0,4.37h0.17A2.19,2.19,0,0,0,66,403Z" transform="translate(0)"/><path class="c" d="M59.1,403a2.19,2.19,0,0,0-2.19-2.19H56.74a2.19,2.19,0,1,0,0,4.37h0.17A2.19,2.19,0,0,0,59.1,403Z" transform="translate(0)"/><path class="c" d="M100.48,409.65a2.19,2.19,0,0,0-2.19-2.19H98.12a2.19,2.19,0,0,0,0,4.38h0.17A2.19,2.19,0,0,0,100.48,409.65Z" transform="translate(0)"/><path class="c" d="M93.58,409.65a2.19,2.19,0,0,0-2.19-2.19H91.23a2.19,2.19,0,0,0,0,4.38H91.4A2.19,2.19,0,0,0,93.58,409.65Z" transform="translate(0)"/><path class="c" d="M86.69,409.65a2.19,2.19,0,0,0-2.19-2.19H84.33a2.19,2.19,0,0,0,0,4.38H84.5A2.19,2.19,0,0,0,86.69,409.65Z" transform="translate(0)"/><path class="c" d="M72.89,409.65a2.19,2.19,0,0,0-2.19-2.19H70.54a2.19,2.19,0,0,0,0,4.38h0.17A2.19,2.19,0,0,0,72.89,409.65Z" transform="translate(0)"/><path class="c" d="M66,409.65a2.19,2.19,0,0,0-2.19-2.19H63.64a2.19,2.19,0,1,0,0,4.38h0.17A2.19,2.19,0,0,0,66,409.65Z" transform="translate(0)"/><path class="c" d="M59.1,409.65a2.19,2.19,0,0,0-2.19-2.19H56.74a2.19,2.19,0,0,0,0,4.38h0.17A2.19,2.19,0,0,0,59.1,409.65Z" transform="translate(0)"/><path class="c" d="M100.48,416.3a2.19,2.19,0,0,0-2.19-2.19H98.12a2.19,2.19,0,1,0,0,4.37h0.17A2.19,2.19,0,0,0,100.48,416.3Z" transform="translate(0)"/><path class="c" d="M93.58,416.3a2.19,2.19,0,0,0-2.19-2.19H91.23a2.19,2.19,0,0,0,0,4.37H91.4A2.19,2.19,0,0,0,93.58,416.3Z" transform="translate(0)"/><path class="c" d="M86.69,416.3a2.19,2.19,0,0,0-2.19-2.19H84.33a2.19,2.19,0,1,0,0,4.37H84.5A2.19,2.19,0,0,0,86.69,416.3Z" transform="translate(0)"/><path class="c" d="M72.89,416.3a2.19,2.19,0,0,0-2.19-2.19H70.54a2.19,2.19,0,1,0,0,4.37h0.17A2.19,2.19,0,0,0,72.89,416.3Z" transform="translate(0)"/><path class="c" d="M66,416.3a2.19,2.19,0,0,0-2.19-2.19H63.64a2.19,2.19,0,1,0,0,4.37h0.17A2.19,2.19,0,0,0,66,416.3Z" transform="translate(0)"/><path class="c" d="M59.1,416.3a2.19,2.19,0,0,0-2.19-2.19H56.74a2.19,2.19,0,1,0,0,4.37h0.17A2.19,2.19,0,0,0,59.1,416.3Z" transform="translate(0)"/><path class="c" d="M100.48,422.95a2.19,2.19,0,0,0-2.19-2.19H98.12a2.19,2.19,0,0,0,0,4.37h0.17A2.19,2.19,0,0,0,100.48,422.95Z" transform="translate(0)"/><path class="c" d="M93.58,422.95a2.19,2.19,0,0,0-2.19-2.19H91.23a2.19,2.19,0,0,0,0,4.37H91.4A2.19,2.19,0,0,0,93.58,422.95Z" transform="translate(0)"/><path class="c" d="M86.69,422.95a2.19,2.19,0,0,0-2.19-2.19H84.33a2.19,2.19,0,1,0,0,4.37H84.5A2.19,2.19,0,0,0,86.69,422.95Z" transform="translate(0)"/><path class="c" d="M72.89,422.95a2.19,2.19,0,0,0-2.19-2.19H70.54a2.19,2.19,0,0,0,0,4.37h0.17A2.19,2.19,0,0,0,72.89,422.95Z" transform="translate(0)"/><path class="c" d="M66,422.95a2.19,2.19,0,0,0-2.19-2.19H63.64a2.19,2.19,0,1,0,0,4.37h0.17A2.19,2.19,0,0,0,66,422.95Z" transform="translate(0)"/><path class="c" d="M59.1,422.95a2.19,2.19,0,0,0-2.19-2.19H56.74a2.19,2.19,0,1,0,0,4.37h0.17A2.19,2.19,0,0,0,59.1,422.95Z" transform="translate(0)"/><path class="c" d="M100.48,429.59a2.19,2.19,0,0,0-2.19-2.19H98.12a2.19,2.19,0,1,0,0,4.37h0.17A2.19,2.19,0,0,0,100.48,429.59Z" transform="translate(0)"/><path class="c" d="M93.58,429.59a2.19,2.19,0,0,0-2.19-2.19H91.23a2.19,2.19,0,0,0,0,4.37H91.4A2.19,2.19,0,0,0,93.58,429.59Z" transform="translate(0)"/><path class="c" d="M86.69,429.59a2.19,2.19,0,0,0-2.19-2.19H84.33a2.19,2.19,0,1,0,0,4.37H84.5A2.19,2.19,0,0,0,86.69,429.59Z" transform="translate(0)"/><path class="c" d="M72.89,429.59a2.19,2.19,0,0,0-2.19-2.19H70.54a2.19,2.19,0,0,0,0,4.37h0.17A2.19,2.19,0,0,0,72.89,429.59Z" transform="translate(0)"/><path class="c" d="M66,429.59a2.19,2.19,0,0,0-2.19-2.19H63.64a2.19,2.19,0,1,0,0,4.37h0.17A2.19,2.19,0,0,0,66,429.59Z" transform="translate(0)"/><path class="c" d="M59.1,429.59a2.19,2.19,0,0,0-2.19-2.19H56.74a2.19,2.19,0,1,0,0,4.37h0.17A2.19,2.19,0,0,0,59.1,429.59Z" transform="translate(0)"/><path class="c" d="M100.48,436.24a2.19,2.19,0,0,0-2.19-2.19H98.12a2.19,2.19,0,1,0,0,4.37h0.17A2.19,2.19,0,0,0,100.48,436.24Z" transform="translate(0)"/><path class="c" d="M93.58,436.24a2.19,2.19,0,0,0-2.19-2.19H91.23a2.19,2.19,0,0,0,0,4.37H91.4A2.19,2.19,0,0,0,93.58,436.24Z" transform="translate(0)"/><path class="c" d="M86.69,436.24a2.19,2.19,0,0,0-2.19-2.19H84.33a2.19,2.19,0,1,0,0,4.37H84.5A2.19,2.19,0,0,0,86.69,436.24Z" transform="translate(0)"/><path class="c" d="M72.89,436.24a2.19,2.19,0,0,0-2.19-2.19H70.54a2.19,2.19,0,1,0,0,4.37h0.17A2.19,2.19,0,0,0,72.89,436.24Z" transform="translate(0)"/><path class="c" d="M66,436.24a2.19,2.19,0,0,0-2.19-2.19H63.64a2.19,2.19,0,1,0,0,4.37h0.17A2.19,2.19,0,0,0,66,436.24Z" transform="translate(0)"/><path class="c" d="M59.1,436.24a2.19,2.19,0,0,0-2.19-2.19H56.74a2.19,2.19,0,1,0,0,4.37h0.17A2.19,2.19,0,0,0,59.1,436.24Z" transform="translate(0)"/></g><line class="g" x1="52.58" y1="251.36" x2="52.58" y2="313.77"/><line class="g" x1="102.47" y1="251.36" x2="102.47" y2="313.77"/></svg>