<svg xmlns="http://www.w3.org/2000/svg" width="120mm" height="120mm" viewBox="0 0 340.16 340.16"><defs><style>.a{isolation:isolate;}.b{fill:#fff;}.c,.f{fill:#0286a8;}.d{fill:none;}.e{fill:#81c3d4;}.f,.h{mix-blend-mode:multiply;}.g,.h{opacity:0.9;}.h,.i{fill:#004c71;}</style></defs><title>pensioen123</title><g class="a"><rect class="b" x="7.09" y="7.09" width="325.98" height="325.98" rx="35.43" ry="35.43"/><path class="c" d="M297.64,14.17A28.38,28.38,0,0,1,326,42.52V297.64A28.38,28.38,0,0,1,297.64,326H42.52a28.38,28.38,0,0,1-28.35-28.35V42.52A28.38,28.38,0,0,1,42.52,14.17H297.64m0-14.17H42.52A42.64,42.64,0,0,0,0,42.52V297.64a42.64,42.64,0,0,0,42.52,42.52H297.64a42.64,42.64,0,0,0,42.52-42.52V42.52A42.64,42.64,0,0,0,297.64,0h0Z" transform="translate(0)"/><line class="d" x1="1.12" y1="134.69" x2="1.12" y2="236.69"/><path class="e" d="M288.57,97.49L180,106.09c-3.84.31-6.94,4.18-6.94,8.62v68.56c0,4.44,3.1,8.31,6.94,8.62l108.53,8.59a9.28,9.28,0,0,0,10.3-9.15V106.64A9.28,9.28,0,0,0,288.57,97.49Zm-22.68,75.07a20.75,20.75,0,0,1-5.43,7.17,22.29,22.29,0,0,1-7.79,4.27,26.64,26.64,0,0,1-22.7-3.59,26.07,26.07,0,0,1-6.13-6.68,16.6,16.6,0,0,1-2.74-8,7.1,7.1,0,0,1,1.94-4.93,5.86,5.86,0,0,1,4.54-2.11,6,6,0,0,1,5.52,3.33l1.61,3a10.78,10.78,0,0,0,3.39,3.86,8.61,8.61,0,0,0,10.85-.64,8.47,8.47,0,0,0,2.51-6.41c0-4.75-2.8-7.38-8.33-7.9q-3.92-.51-5.3-1.69a6.55,6.55,0,0,1-2.34-5.31,6.32,6.32,0,0,1,.91-3.66,5.48,5.48,0,0,1,2.21-1.91,34,34,0,0,1,4.1-1.45c4.25-1.23,6.39-3.7,6.39-7.39a5.07,5.07,0,0,0-1.95-3.87,6.32,6.32,0,0,0-4.24-1.32c-2.6.1-5.13,1.69-7.61,4.74q-3.37,4.05-6.38,4.11a5.35,5.35,0,0,1-4.23-1.89,6.49,6.49,0,0,1-1.77-4.53,12,12,0,0,1,1.91-6.55,19,19,0,0,1,5-5.23,27.81,27.81,0,0,1,6.73-3.55,24.67,24.67,0,0,1,6.85-1.53,20.57,20.57,0,0,1,14.09,4,16.73,16.73,0,0,1,4.67,5.83,16.48,16.48,0,0,1,1.73,7.36,18.52,18.52,0,0,1-1.82,8.65,19.94,19.94,0,0,1-5.93,6.52,23,23,0,0,1,8.49,7.19,18.39,18.39,0,0,1,3.21,10.65A22.13,22.13,0,0,1,265.89,172.57Z" transform="translate(0)"/><path class="f" d="M228.93,136.2c-3.36,0-6.57-.59-7.74-1.89a6.49,6.49,0,0,1-1.77-4.53,12,12,0,0,1,1.91-6.55,19.06,19.06,0,0,1,5-5.23,27.86,27.86,0,0,1,6.74-3.55c2.45-.89,8.25-1.4,10.37-1.53a24.67,24.67,0,0,0-6.85,1.53,27.81,27.81,0,0,0-6.73,3.55,19,19,0,0,0-5,5.23,12,12,0,0,0-1.91,6.55,6.49,6.49,0,0,0,1.77,4.53A5.35,5.35,0,0,0,228.93,136.2Z" transform="translate(0)"/><path class="f" d="M238.1,168.88c2.17,1.5,4.73,1.39,7.34-.64a8.47,8.47,0,0,0,2.51-6.41c0-4.75-2.8-7.38-8.33-7.9q-3.92-.51-5.3-1.69a6.55,6.55,0,0,1-2.34-5.31,6.31,6.31,0,0,1,.91-3.66,5.47,5.47,0,0,1,2.21-1.91,34,34,0,0,1,4.1-1.45c4.25-1.23,6.39-3.7,6.39-7.39a5.07,5.07,0,0,0-1.95-3.87c-1.19-.94-5.1-0.68-8.34,3.42,2.48-3.06,5-4.65,7.61-4.74a6.32,6.32,0,0,1,4.24,1.32,5.07,5.07,0,0,1,1.95,3.87c0,3.69-2.14,6.16-6.39,7.39a34,34,0,0,0-4.1,1.45,5.48,5.48,0,0,0-2.21,1.91,6.32,6.32,0,0,0-.91,3.66,6.55,6.55,0,0,0,2.34,5.31q1.38,1.18,5.3,1.69c5.53,0.52,8.33,3.15,8.33,7.9a8.47,8.47,0,0,1-2.51,6.41A8.61,8.61,0,0,1,238.1,168.88Z" transform="translate(0)"/><path class="f" d="M243.62,185.07c-5.36-.32-13.41-1.88-17.17-4.65a26.07,26.07,0,0,1-6.13-6.68,16.62,16.62,0,0,1-2.74-8,7.11,7.11,0,0,1,1.95-4.93c1.31-1.43,4-2.11,8.06-2.11a5.86,5.86,0,0,0-4.54,2.11,7.1,7.1,0,0,0-1.94,4.93,16.6,16.6,0,0,0,2.74,8,26.07,26.07,0,0,0,6.13,6.68A24.89,24.89,0,0,0,243.62,185.07Z" transform="translate(0)"/><path class="f" d="M288.57,200.48c5.15-.95,6.79-3.67,6.79-9.15V106.64c0-5.48-1.63-8.19-6.79-9.14a9.28,9.28,0,0,1,10.3,9.14v84.69A9.28,9.28,0,0,1,288.57,200.48Z" transform="translate(0)"/><g class="g"><path class="e" d="M223.54,118.58L115,127.18c-3.84.3-6.94,4.18-6.94,8.62v68.56c0,4.43,3.1,8.31,6.94,8.62l108.53,8.6a9.27,9.27,0,0,0,10.29-9.14V127.73A9.27,9.27,0,0,0,223.54,118.58Zm-25.08,85.94a8,8,0,0,1-5.61,1.58L163,204.37c-2.87-.16-4.94-1-6.23-2.45a7.15,7.15,0,0,1-1.57-4.95,6.76,6.76,0,0,1,1-3.25,25.38,25.38,0,0,1,2.65-3.35c0.18-.21,1.21-1.41,3.08-3.64s3.63-4.31,5.21-6.19l3.93-4.68c1-1.22,1.82-2.16,2.33-2.79a108.12,108.12,0,0,0,6.95-9.09,13.9,13.9,0,0,0,2.66-7.7,8.06,8.06,0,0,0-.78-3.54,6.47,6.47,0,0,0-2.21-2.6,5.24,5.24,0,0,0-3.18-.9c-3.72.13-6.14,2.48-7.3,7a49,49,0,0,1-1.36,4.71,6.88,6.88,0,0,1-1.91,2.78,5.38,5.38,0,0,1-3.67,1.2,5.82,5.82,0,0,1-4.77-2.07,8,8,0,0,1-1.74-5.31,21,21,0,0,1,1.69-8.28,24,24,0,0,1,11.53-12.23,21,21,0,0,1,8.14-2.17,21.51,21.51,0,0,1,8.08,1,20.68,20.68,0,0,1,7,3.95,19.2,19.2,0,0,1,4.9,6.51,19.77,19.77,0,0,1,1.81,8.47,25.59,25.59,0,0,1-2.36,11,54.58,54.58,0,0,1-6.73,10.54,187.59,187.59,0,0,1-13.4,14.86l16.08,0.57a8.62,8.62,0,0,1,5.63,2.12,6.94,6.94,0,0,1,2.26,5.43A6.11,6.11,0,0,1,198.46,204.53Z" transform="translate(0)"/></g><path class="h" d="M162.62,165c-4,0-6.84-.51-8.28-2.07a8,8,0,0,1-1.74-5.31,21.09,21.09,0,0,1,1.69-8.28,24,24,0,0,1,11.53-12.23c2.61-1.28,7.6-2,11.65-2.17a21,21,0,0,0-8.14,2.17,24,24,0,0,0-11.53,12.23,21,21,0,0,0-1.69,8.28,8,8,0,0,0,1.74,5.31A5.82,5.82,0,0,0,162.62,165Z" transform="translate(0)"/><path class="h" d="M163,204.37c-2.87-.16-8.45-1-9.74-2.45a7.16,7.16,0,0,1-1.57-4.95,6.77,6.77,0,0,1,1-3.25,25.28,25.28,0,0,1,2.65-3.35l3.08-3.64q2.84-3.36,5.21-6.19l3.93-4.68c1-1.22,1.82-2.16,2.34-2.79a107.63,107.63,0,0,0,6.95-9.09c1.77-2.64,3.43-6,3.43-8.76s-1.43-6-3.44-6a5.24,5.24,0,0,1,3.18.9,6.47,6.47,0,0,1,2.21,2.6,8.06,8.06,0,0,1,.78,3.54,13.9,13.9,0,0,1-2.66,7.7,108.12,108.12,0,0,1-6.95,9.09c-0.52.63-1.3,1.56-2.33,2.79l-3.93,4.68q-2.37,2.82-5.21,6.19c-1.88,2.22-2.9,3.43-3.08,3.64a25.38,25.38,0,0,0-2.65,3.35,6.76,6.76,0,0,0-1,3.25,7.15,7.15,0,0,0,1.57,4.95C158.05,203.39,160.12,204.21,163,204.37Z" transform="translate(0)"/><path class="h" d="M223.54,221.57c5.15-1,6.79-3.67,6.79-9.15V127.73c0-5.48-1.63-8.19-6.79-9.15a9.28,9.28,0,0,1,10.3,9.15v84.69A9.28,9.28,0,0,1,223.54,221.57Z" transform="translate(0)"/><g class="g"><path class="b" d="M198.46,204.53a8,8,0,0,1-5.61,1.58L163,204.37c-2.87-.16-4.94-1-6.23-2.45a7.15,7.15,0,0,1-1.57-4.95,6.76,6.76,0,0,1,1-3.25,25.38,25.38,0,0,1,2.65-3.35c0.18-.21,1.21-1.41,3.08-3.64s3.63-4.31,5.21-6.19l3.93-4.68c1-1.22,1.82-2.16,2.33-2.79a108.12,108.12,0,0,0,6.95-9.09,13.9,13.9,0,0,0,2.66-7.7,8.06,8.06,0,0,0-.78-3.54,6.47,6.47,0,0,0-2.21-2.6,5.24,5.24,0,0,0-3.18-.9c-3.72.13-6.14,2.48-7.3,7a49,49,0,0,1-1.36,4.71,6.88,6.88,0,0,1-1.91,2.78,5.38,5.38,0,0,1-3.67,1.2,5.82,5.82,0,0,1-4.77-2.07,8,8,0,0,1-1.74-5.31,21,21,0,0,1,1.69-8.28,24,24,0,0,1,11.53-12.23,21,21,0,0,1,8.14-2.17,21.51,21.51,0,0,1,8.08,1,20.68,20.68,0,0,1,7,3.95,19.2,19.2,0,0,1,4.9,6.51,19.77,19.77,0,0,1,1.81,8.47,25.59,25.59,0,0,1-2.36,11,54.58,54.58,0,0,1-6.73,10.54,187.59,187.59,0,0,1-13.4,14.86l16.08,0.57a8.62,8.62,0,0,1,5.63,2.12,6.94,6.94,0,0,1,2.26,5.43A6.11,6.11,0,0,1,198.46,204.53Z" transform="translate(0)"/></g><g class="g"><path class="i" d="M156.75,139.67l-108.53,8.6c-3.84.31-6.94,4.18-6.94,8.62v68.56c0,4.43,3.1,8.32,6.94,8.62l108.53,8.6a9.27,9.27,0,0,0,10.3-9.15V148.82A9.28,9.28,0,0,0,156.75,139.67Zm-24.66,78.61a9.27,9.27,0,0,1-2.11,6.25,6.72,6.72,0,0,1-5.85,2.24,7.39,7.39,0,0,1-5.66-2.87,9.84,9.84,0,0,1-2.09-6.29V170l-4.59.16a7.52,7.52,0,0,1-5.26-1.65,6.05,6.05,0,0,1-2.1-4.93,6.77,6.77,0,0,1,2.09-5.17,8.11,8.11,0,0,1,5.28-2.16l11.82-.68a7.9,7.9,0,0,1,6.23,1.92q2.25,2.17,2.24,6.33v54.43Z" transform="translate(0)"/></g><path class="h" d="M156.75,242.66c5.15-.95,6.78-3.67,6.78-9.15V148.82c0-5.48-1.64-8.19-6.78-9.15a9.28,9.28,0,0,1,10.3,9.15v84.69A9.27,9.27,0,0,1,156.75,242.66Z" transform="translate(0)"/><path class="h" d="M124.13,226.77c-2.37-.14-7.78-1.09-9.17-2.87a9.84,9.84,0,0,1-2.08-6.29V170l-4.59.16a7.52,7.52,0,0,1-5.27-1.65,6.06,6.06,0,0,1-2.1-4.93,6.77,6.77,0,0,1,2.09-5.17c1.4-1.32,6.67-2,8.79-2.16a8.11,8.11,0,0,0-5.28,2.16,6.77,6.77,0,0,0-2.09,5.17,6.05,6.05,0,0,0,2.1,4.93,7.52,7.52,0,0,0,5.26,1.65l4.59-.16V217.6a9.84,9.84,0,0,0,2.09,6.29A7.39,7.39,0,0,0,124.13,226.77Z" transform="translate(0)"/><g class="g"><path class="b" d="M132.09,218.28a9.27,9.27,0,0,1-2.11,6.25,6.72,6.72,0,0,1-5.85,2.24,7.39,7.39,0,0,1-5.66-2.87,9.84,9.84,0,0,1-2.09-6.29V170l-4.59.16a7.52,7.52,0,0,1-5.26-1.65,6.05,6.05,0,0,1-2.1-4.93,6.77,6.77,0,0,1,2.09-5.17,8.11,8.11,0,0,1,5.28-2.16l11.82-.68a7.9,7.9,0,0,1,6.23,1.92q2.25,2.17,2.24,6.33v54.43Z" transform="translate(0)"/></g></g></svg>