<svg xmlns="http://www.w3.org/2000/svg" width="120mm" height="120mm" viewBox="0 0 340.16 340.16"><defs><style>.a{fill:#fff;}.b{fill:#0286a8;}.c{fill:#81c3d4;}.d{fill:#00577e;}</style></defs><title>premieverdeling_beide</title><rect class="a" x="7.09" y="7.09" width="325.98" height="325.98" rx="35.43" ry="35.43"/><path class="b" d="M297.64,14.17A28.38,28.38,0,0,1,326,42.52V297.64A28.38,28.38,0,0,1,297.64,326H42.52a28.38,28.38,0,0,1-28.35-28.35V42.52A28.38,28.38,0,0,1,42.52,14.17H297.64m0-14.17H42.52A42.64,42.64,0,0,0,0,42.52V297.64a42.64,42.64,0,0,0,42.52,42.52H297.64a42.64,42.64,0,0,0,42.52-42.52V42.52A42.64,42.64,0,0,0,297.64,0h0Z" transform="translate(0)"/><circle class="b" cx="80.88" cy="80.58" r="41.09"/><path class="a" d="M97.3,97.61c-3.78,4.9-8.47,8.19-15.68,8.19-10.36,0-17.64-6.65-20.3-16.59H57.54a3,3,0,0,1-3-3,3,3,0,0,1,3-3h2.73c-0.07-.84-0.07-1.75-0.07-2.66a24.75,24.75,0,0,1,.14-3.22h-2.8a3,3,0,1,1,0-6h3.92c2.73-9.45,9.94-16.24,19.88-16.24a19,19,0,0,1,15.54,7.14A4.17,4.17,0,0,1,98,65.13a4.12,4.12,0,0,1-4.13,4.06,3.75,3.75,0,0,1-3-1.4c-2.66-3.22-5.39-5-9.73-5-5,0-8.82,3.29-10.78,8.54H82.81a3,3,0,0,1,0,6H69a22.16,22.16,0,0,0-.14,3.08c0,1,0,1.89.07,2.8H82.81a3,3,0,0,1,2.94,3,3,3,0,0,1-2.94,3H70.21c2,5.6,6,8.89,11.48,8.89,4.2,0,6.93-2,9.59-5.32a3.76,3.76,0,0,1,3-1.4,3.83,3.83,0,0,1,3.85,3.78A3.93,3.93,0,0,1,97.3,97.61Z" transform="translate(0)"/><circle class="b" cx="259.6" cy="80.66" r="41.09"/><path class="a" d="M276,97.69c-3.78,4.9-8.47,8.19-15.68,8.19-10.36,0-17.64-6.65-20.3-16.59h-3.78a3,3,0,0,1-3-3,3,3,0,0,1,3-3H239c-0.07-.84-0.07-1.75-0.07-2.66a24.85,24.85,0,0,1,.14-3.22h-2.8a3,3,0,1,1,0-6h3.92c2.73-9.45,9.94-16.24,19.88-16.24a19,19,0,0,1,15.54,7.14,4.18,4.18,0,0,1,1.12,2.87,4.12,4.12,0,0,1-4.13,4.06,3.75,3.75,0,0,1-3-1.4c-2.66-3.22-5.39-5-9.73-5-5,0-8.82,3.29-10.78,8.54h12.46a3,3,0,0,1,0,6H247.74a22.24,22.24,0,0,0-.14,3.08c0,1,0,1.89.07,2.8h13.86a3,3,0,0,1,2.94,3,3,3,0,0,1-2.94,3h-12.6c2,5.6,6,8.89,11.48,8.89,4.2,0,6.93-2,9.59-5.32a3.76,3.76,0,0,1,3-1.4,3.83,3.83,0,0,1,3.85,3.78A3.93,3.93,0,0,1,276,97.69Z" transform="translate(0)"/><polygon class="b" points="155.62 130.5 125.82 149.17 155.62 163.92 155.62 130.5"/><path class="b" d="M142.71,149.67a7,7,0,0,1-6.08-3.51,57.85,57.85,0,0,0-17.78-18.64,7,7,0,1,1,7.72-11.68,71.3,71.3,0,0,1,22.2,23.35A7,7,0,0,1,142.71,149.67Z" transform="translate(0)"/><polygon class="b" points="184.94 130.5 214.74 149.17 184.94 163.92 184.94 130.5"/><path class="b" d="M197.85,149.67a7,7,0,0,1-6.06-10.49A71.3,71.3,0,0,1,214,115.83a7,7,0,0,1,7.72,11.68,57.84,57.84,0,0,0-17.78,18.64A7,7,0,0,1,197.85,149.67Z" transform="translate(0)"/><ellipse class="c" cx="170.04" cy="220.34" rx="58.68" ry="30.97"/><path class="d" d="M215.22,232.59c0-3.06,3.75-5.28,3.75-10.68,0-13.5-21.89-24.45-48.9-24.45s-48.9,10.95-48.9,24.45c0,5.87,2.6,7.78,2.6,10.68,0,6.77-18.9,15.18-18.9,30.07,0,22.51,29.19,40.75,65.2,40.75s65.2-18.24,65.2-40.75C235.28,247.45,215.22,238.89,215.22,232.59Z" transform="translate(0)"/><circle class="c" cx="161.93" cy="180.99" r="8.15"/><circle class="c" cx="178.23" cy="180.99" r="8.15"/></svg>