<svg xmlns="http://www.w3.org/2000/svg" width="120mm" height="120mm" viewBox="0 0 340.16 340.16"><defs><style>.a{fill:#fff;}.b{fill:#0286a8;}</style></defs><title>premie</title><rect class="a" x="7.09" y="7.09" width="325.98" height="325.98" rx="35.43" ry="35.43"/><path class="b" d="M297.64,14.17A28.38,28.38,0,0,1,326,42.52V297.64A28.38,28.38,0,0,1,297.64,326H42.52a28.38,28.38,0,0,1-28.35-28.35V42.52A28.38,28.38,0,0,1,42.52,14.17H297.64m0-14.17H42.52A42.64,42.64,0,0,0,0,42.52V297.64a42.64,42.64,0,0,0,42.52,42.52H297.64a42.64,42.64,0,0,0,42.52-42.52V42.52A42.64,42.64,0,0,0,297.64,0h0Z" transform="translate(0)"/><path class="b" d="M38.23,145.82a5.35,5.35,0,0,1,5.39-5.39H58.26c11.69,0,18.76,6.93,18.76,16.94v0.14c0,11.34-8.82,17.22-19.81,17.22H49v9.73a5.39,5.39,0,1,1-10.78,0V145.82Zm19.32,19.32c5.39,0,8.54-3.22,8.54-7.42v-0.14c0-4.83-3.36-7.42-8.75-7.42H49v15h8.54Z" transform="translate(0)"/><path class="b" d="M85,145.82a5.35,5.35,0,0,1,5.39-5.39h17c6.23,0,11.06,1.75,14.28,5a15.38,15.38,0,0,1,4.2,11.2v0.14c0,7.7-3.85,12.46-9.8,14.91l7.49,9.1a6.28,6.28,0,0,1,1.75,4.13,5,5,0,0,1-5.11,5,6.45,6.45,0,0,1-5.32-2.8l-10.5-13.3H95.78v10.71a5.39,5.39,0,1,1-10.78,0V145.82Zm21.7,18.41c5.25,0,8.26-2.8,8.26-6.93v-0.14c0-4.62-3.22-7-8.47-7H95.78v14.07H106.7Z" transform="translate(0)"/><path class="b" d="M135.6,184V145.82a5.35,5.35,0,0,1,5.39-5.39h27.16a4.84,4.84,0,0,1,4.83,4.83,4.78,4.78,0,0,1-4.83,4.76H146.31V160H165a4.84,4.84,0,0,1,4.83,4.83,4.78,4.78,0,0,1-4.83,4.76H146.31v10.29h22.19a4.84,4.84,0,0,1,4.83,4.83,4.78,4.78,0,0,1-4.83,4.76H141A5.35,5.35,0,0,1,135.6,184Z" transform="translate(0)"/><path class="b" d="M182.5,145.54a5.35,5.35,0,0,1,5.39-5.39h1.19a5.53,5.53,0,0,1,4.9,2.8l13,21.21,13.09-21.28a5.28,5.28,0,0,1,4.83-2.73h1.19a5.35,5.35,0,0,1,5.39,5.39v38.92a5.36,5.36,0,1,1-10.71,0V160l-9.45,14.56a5,5,0,0,1-9,0l-9.31-14.35V184.6a5.26,5.26,0,0,1-5.32,5.25,5.2,5.2,0,0,1-5.25-5.25V145.54Z" transform="translate(0)"/><path class="b" d="M243.75,145.4a5.39,5.39,0,1,1,10.78,0v39.06a5.39,5.39,0,1,1-10.78,0V145.4Z" transform="translate(0)"/><path class="b" d="M266.78,184V145.82a5.35,5.35,0,0,1,5.39-5.39h27.16a4.84,4.84,0,0,1,4.83,4.83,4.78,4.78,0,0,1-4.83,4.76H277.49V160h18.69a4.84,4.84,0,0,1,4.83,4.83,4.78,4.78,0,0,1-4.83,4.76H277.49v10.29h22.19a4.84,4.84,0,0,1,4.83,4.83,4.78,4.78,0,0,1-4.83,4.76H272.17A5.35,5.35,0,0,1,266.78,184Z" transform="translate(0)"/></svg>