<svg xmlns="http://www.w3.org/2000/svg" width="120mm" height="120mm" viewBox="0 0 340.16 340.16"><defs><style>.a,.c{fill:#fff;}.b{fill:#0286a8;}.c{stroke:#0286a8;stroke-linecap:round;stroke-linejoin:round;stroke-width:8px;}</style></defs><title>reglement</title><rect class="a" x="7.09" y="7.09" width="325.98" height="325.98" rx="35.43" ry="35.43"/><path class="b" d="M297.64,14.17A28.38,28.38,0,0,1,326,42.52V297.64A28.38,28.38,0,0,1,297.64,326H42.52a28.38,28.38,0,0,1-28.35-28.35V42.52A28.38,28.38,0,0,1,42.52,14.17H297.64m0-14.17H42.52A42.64,42.64,0,0,0,0,42.52V297.64a42.64,42.64,0,0,0,42.52,42.52H297.64a42.64,42.64,0,0,0,42.52-42.52V42.52A42.64,42.64,0,0,0,297.64,0h0Z" transform="translate(0)"/><path class="b" d="M170.08,258.94H59.61a5.69,5.69,0,0,1-5.67-5.67V91.11a5.69,5.69,0,0,1,5.67-5.67H70" transform="translate(0)"/><path class="b" d="M170.26,258.94H280.73a5.69,5.69,0,0,0,5.67-5.67V91.11a5.69,5.69,0,0,0-5.67-5.67H270.31" transform="translate(0)"/><polygon class="c" points="170.08 92.96 70.02 66.44 70.02 227.31 170.08 254.4 170.08 254.4 270.14 227.31 270.14 66.44 170.08 92.96 170.08 92.96"/><line class="b" x1="170.08" y1="93.63" x2="170.08" y2="258.94"/><rect class="b" x="166.08" y="93.63" width="8" height="165.31"/><path class="b" d="M150.47,137.25a4,4,0,0,1-1.11-.16L88.68,119.63a4,4,0,0,1,2.21-7.69l60.68,17.46A4,4,0,0,1,150.47,137.25Z" transform="translate(0)"/><path class="b" d="M150.47,159.92a4,4,0,0,1-1.11-.16L88.68,142.31a4,4,0,0,1,2.21-7.69l60.68,17.46A4,4,0,0,1,150.47,159.92Z" transform="translate(0)"/><path class="b" d="M150.47,182.88a4,4,0,0,1-1.11-.16L88.68,165.27a4,4,0,0,1,2.21-7.69L151.58,175A4,4,0,0,1,150.47,182.88Z" transform="translate(0)"/><path class="b" d="M150.47,205.84a4,4,0,0,1-1.11-.16L88.68,188.23a4,4,0,1,1,2.21-7.69L151.58,198A4,4,0,0,1,150.47,205.84Z" transform="translate(0)"/><path class="b" d="M189.62,137.33a4,4,0,0,1-1.1-7.85L249.21,112a4,4,0,0,1,2.21,7.69l-60.68,17.46A4,4,0,0,1,189.62,137.33Z" transform="translate(0)"/><path class="b" d="M189.62,160a4,4,0,0,1-1.1-7.85l60.68-17.46a4,4,0,0,1,2.21,7.69l-60.68,17.46A4,4,0,0,1,189.62,160Z" transform="translate(0)"/><path class="b" d="M189.62,183a4,4,0,0,1-1.1-7.84l60.68-17.46a4,4,0,0,1,2.21,7.69l-60.68,17.46A4,4,0,0,1,189.62,183Z" transform="translate(0)"/><path class="b" d="M189.62,205.93a4,4,0,0,1-1.1-7.84l60.68-17.46a4,4,0,1,1,2.21,7.69l-60.68,17.46A4,4,0,0,1,189.62,205.93Z" transform="translate(0)"/><rect class="a" x="53.68" y="258.94" width="238.61" height="7.06"/></svg>