<svg xmlns="http://www.w3.org/2000/svg" xmlns:xlink="http://www.w3.org/1999/xlink" width="120mm" height="120mm" viewBox="0 0 340.16 340.16"><defs><style>.a{fill:none;}.b{fill:#fff;}.c{fill:#0286a8;}.d{fill:#81c3d4;}.e{clip-path:url(#a);}.f{fill:#00577e;}</style><clipPath id="a" transform="translate(0)"><path class="a" d="M288.8,218.66c0-3.06,3.75-5.28,3.75-10.68,0-13.5-21.89-24.45-48.9-24.45s-48.9,10.95-48.9,24.45c0,5.87,2.6,7.77,2.6,10.68,0,6.77-18.9,15.18-18.9,30.07,0,22.5,29.19,40.75,65.2,40.75s65.2-18.24,65.2-40.75C308.86,233.52,288.8,225,288.8,218.66Z"/></clipPath></defs><title>ruilen_ouderdoms_partner</title><rect class="b" x="7.09" y="7.09" width="325.98" height="325.98" rx="35.43" ry="35.43"/><path class="c" d="M297.64,14.17A28.38,28.38,0,0,1,326,42.52V297.64A28.38,28.38,0,0,1,297.64,326H42.52a28.38,28.38,0,0,1-28.35-28.35V42.52A28.38,28.38,0,0,1,42.52,14.17H297.64m0-14.17H42.52A42.64,42.64,0,0,0,0,42.52V297.64a42.64,42.64,0,0,0,42.52,42.52H297.64a42.64,42.64,0,0,0,42.52-42.52V42.52A42.64,42.64,0,0,0,297.64,0h0Z" transform="translate(0)"/><ellipse class="d" cx="96.38" cy="206.31" rx="58.68" ry="30.97"/><circle class="d" cx="88.28" cy="166.97" r="8.15"/><circle class="d" cx="104.58" cy="166.97" r="8.15"/><path class="c" d="M70.66,116.48a12.24,12.24,0,0,1-7.88-21.62c1.37-1.15,34.28-28.18,88-31.17,46.66-2.6,86.45,20.87,88.12,21.87a12.25,12.25,0,0,1-12.58,21C226,106.38,191.1,86,152.11,88.15c-45.21,2.51-73.38,25.3-73.66,25.53A12.24,12.24,0,0,1,70.66,116.48Z" transform="translate(0)"/><polygon class="c" points="243.74 68.57 261.09 123.39 204.21 114.96 243.74 68.57"/><circle class="d" cx="235.56" cy="167.05" r="8.15"/><circle class="d" cx="251.85" cy="167.05" r="8.15"/><path class="d" d="M194.81,208c0-13.5,21.89-24.45,48.9-24.45s48.9,10.95,48.9,24.45c0,5.4-3.75,7.62-3.75,10.68,0,1.59,1.28,3.32,3.19,5.27,6.5-5,10.31-11,10.31-17.53,0-17.1-26.27-31-58.68-31S185,189.3,185,206.4c0,6.37,3.65,12.3,9.9,17.22,1.52-1.78,2.52-3.41,2.52-5C197.41,215.75,194.81,213.85,194.81,208Z" transform="translate(0)"/><path class="d" d="M194.89,223.62" transform="translate(0)"/><g class="e"><path class="c" d="M297.52,300.24a3,3,0,0,0,2.95-3v-0.23a3,3,0,0,0-5.9,0v0.23A3,3,0,0,0,297.52,300.24Z" transform="translate(0)"/><path class="c" d="M297.52,290.93a3,3,0,0,0,2.95-3v-0.23a3,3,0,1,0-5.9,0V288A3,3,0,0,0,297.52,290.93Z" transform="translate(0)"/><path class="c" d="M297.52,281.62a3,3,0,0,0,2.95-3v-0.23a3,3,0,1,0-5.9,0v0.23A3,3,0,0,0,297.52,281.62Z" transform="translate(0)"/><path class="c" d="M297.52,272.31a3,3,0,0,0,2.95-3v-0.23a3,3,0,1,0-5.9,0v0.23A3,3,0,0,0,297.52,272.31Z" transform="translate(0)"/><path class="c" d="M297.52,263a3,3,0,0,0,2.95-3v-0.23a3,3,0,0,0-5.9,0v0.23A3,3,0,0,0,297.52,263Z" transform="translate(0)"/><path class="c" d="M297.52,253.69a3,3,0,0,0,2.95-3v-0.23a3,3,0,1,0-5.9,0v0.23A3,3,0,0,0,297.52,253.69Z" transform="translate(0)"/><path class="c" d="M297.52,244.38a3,3,0,0,0,2.95-3v-0.23a3,3,0,0,0-5.9,0v0.23A3,3,0,0,0,297.52,244.38Z" transform="translate(0)"/><path class="c" d="M297.52,235.08a3,3,0,0,0,2.95-3V231.9a3,3,0,0,0-5.9,0v0.23A3,3,0,0,0,297.52,235.08Z" transform="translate(0)"/><path class="c" d="M297.52,225.77a3,3,0,0,0,2.95-3v-0.23a3,3,0,1,0-5.9,0v0.23A3,3,0,0,0,297.52,225.77Z" transform="translate(0)"/><path class="c" d="M297.52,216.46a3,3,0,0,0,2.95-3v-0.23a3,3,0,1,0-5.9,0v0.23A3,3,0,0,0,297.52,216.46Z" transform="translate(0)"/><path class="c" d="M297.52,207.15a3,3,0,0,0,2.95-3V204a3,3,0,1,0-5.9,0v0.23A3,3,0,0,0,297.52,207.15Z" transform="translate(0)"/><path class="c" d="M297.52,197.84a3,3,0,0,0,2.95-3v-0.23a3,3,0,1,0-5.9,0v0.23A3,3,0,0,0,297.52,197.84Z" transform="translate(0)"/><path class="c" d="M297.52,188.53a3,3,0,0,0,2.95-3v-0.23a3,3,0,1,0-5.9,0v0.23A3,3,0,0,0,297.52,188.53Z" transform="translate(0)"/><path class="c" d="M288.54,300.24a3,3,0,0,0,3-3v-0.23a3,3,0,0,0-5.9,0v0.23A3,3,0,0,0,288.54,300.24Z" transform="translate(0)"/><path class="c" d="M288.54,290.93a3,3,0,0,0,3-3v-0.23a3,3,0,0,0-5.9,0V288A3,3,0,0,0,288.54,290.93Z" transform="translate(0)"/><path class="c" d="M288.54,281.62a3,3,0,0,0,3-3v-0.23a3,3,0,1,0-5.9,0v0.23A3,3,0,0,0,288.54,281.62Z" transform="translate(0)"/><path class="c" d="M288.54,272.31a3,3,0,0,0,3-3v-0.23a3,3,0,1,0-5.9,0v0.23A3,3,0,0,0,288.54,272.31Z" transform="translate(0)"/><path class="c" d="M288.54,263a3,3,0,0,0,3-3v-0.23a3,3,0,0,0-5.9,0v0.23A3,3,0,0,0,288.54,263Z" transform="translate(0)"/><path class="c" d="M288.54,253.69a3,3,0,0,0,3-3v-0.23a3,3,0,1,0-5.9,0v0.23A3,3,0,0,0,288.54,253.69Z" transform="translate(0)"/><path class="c" d="M288.54,244.38a3,3,0,0,0,3-3v-0.23a3,3,0,1,0-5.9,0v0.23A3,3,0,0,0,288.54,244.38Z" transform="translate(0)"/><path class="c" d="M288.54,235.08a3,3,0,0,0,3-3V231.9a3,3,0,0,0-5.9,0v0.23A3,3,0,0,0,288.54,235.08Z" transform="translate(0)"/><path class="c" d="M288.54,225.77a3,3,0,0,0,3-3v-0.23a3,3,0,1,0-5.9,0v0.23A3,3,0,0,0,288.54,225.77Z" transform="translate(0)"/><path class="c" d="M288.54,216.46a3,3,0,0,0,3-3v-0.23a3,3,0,0,0-5.9,0v0.23A3,3,0,0,0,288.54,216.46Z" transform="translate(0)"/><path class="c" d="M288.54,207.15a3,3,0,0,0,3-3V204a3,3,0,1,0-5.9,0v0.23A3,3,0,0,0,288.54,207.15Z" transform="translate(0)"/><path class="c" d="M288.54,197.84a3,3,0,0,0,3-3v-0.23a3,3,0,0,0-5.9,0v0.23A3,3,0,0,0,288.54,197.84Z" transform="translate(0)"/><path class="c" d="M288.54,188.53a3,3,0,0,0,3-3v-0.23a3,3,0,1,0-5.9,0v0.23A3,3,0,0,0,288.54,188.53Z" transform="translate(0)"/><path class="c" d="M279.57,300.24a3,3,0,0,0,3-3v-0.23a3,3,0,0,0-5.9,0v0.23A3,3,0,0,0,279.57,300.24Z" transform="translate(0)"/><path class="c" d="M279.57,290.93a3,3,0,0,0,3-3v-0.23a3,3,0,1,0-5.9,0V288A3,3,0,0,0,279.57,290.93Z" transform="translate(0)"/><path class="c" d="M279.57,281.62a3,3,0,0,0,3-3v-0.23a3,3,0,1,0-5.9,0v0.23A3,3,0,0,0,279.57,281.62Z" transform="translate(0)"/><path class="c" d="M279.57,272.31a3,3,0,0,0,3-3v-0.23a3,3,0,1,0-5.9,0v0.23A3,3,0,0,0,279.57,272.31Z" transform="translate(0)"/><path class="c" d="M279.57,263a3,3,0,0,0,3-3v-0.23a3,3,0,0,0-5.9,0v0.23A3,3,0,0,0,279.57,263Z" transform="translate(0)"/><path class="c" d="M279.57,253.69a3,3,0,0,0,3-3v-0.23a3,3,0,1,0-5.9,0v0.23A3,3,0,0,0,279.57,253.69Z" transform="translate(0)"/><path class="c" d="M279.57,244.38a3,3,0,0,0,3-3v-0.23a3,3,0,1,0-5.9,0v0.23A3,3,0,0,0,279.57,244.38Z" transform="translate(0)"/><path class="c" d="M279.57,235.08a3,3,0,0,0,3-3V231.9a3,3,0,1,0-5.9,0v0.23A3,3,0,0,0,279.57,235.08Z" transform="translate(0)"/><path class="c" d="M279.57,225.77a3,3,0,0,0,3-3v-0.23a3,3,0,1,0-5.9,0v0.23A3,3,0,0,0,279.57,225.77Z" transform="translate(0)"/><path class="c" d="M279.57,216.46a3,3,0,0,0,3-3v-0.23a3,3,0,1,0-5.9,0v0.23A3,3,0,0,0,279.57,216.46Z" transform="translate(0)"/><path class="c" d="M279.57,207.15a3,3,0,0,0,3-3V204a3,3,0,1,0-5.9,0v0.23A3,3,0,0,0,279.57,207.15Z" transform="translate(0)"/><path class="c" d="M279.57,197.84a3,3,0,0,0,3-3v-0.23a3,3,0,1,0-5.9,0v0.23A3,3,0,0,0,279.57,197.84Z" transform="translate(0)"/><path class="c" d="M279.57,188.53a3,3,0,0,0,3-3v-0.23a3,3,0,1,0-5.9,0v0.23A3,3,0,0,0,279.57,188.53Z" transform="translate(0)"/><path class="c" d="M270.6,300.24a3,3,0,0,0,2.95-3v-0.22a3,3,0,1,0-5.9,0v0.22A3,3,0,0,0,270.6,300.24Z" transform="translate(0)"/><path class="c" d="M270.6,290.93a3,3,0,0,0,2.95-3v-0.23a3,3,0,1,0-5.9,0V288A3,3,0,0,0,270.6,290.93Z" transform="translate(0)"/><path class="c" d="M270.6,281.62a3,3,0,0,0,2.95-3v-0.23a3,3,0,1,0-5.9,0v0.23A3,3,0,0,0,270.6,281.62Z" transform="translate(0)"/><path class="c" d="M270.6,272.31a3,3,0,0,0,2.95-3v-0.23a3,3,0,1,0-5.9,0v0.23A3,3,0,0,0,270.6,272.31Z" transform="translate(0)"/><path class="c" d="M270.6,263a3,3,0,0,0,2.95-3v-0.23a3,3,0,1,0-5.9,0V260A3,3,0,0,0,270.6,263Z" transform="translate(0)"/><path class="c" d="M270.6,253.69a3,3,0,0,0,2.95-2.95v-0.23a3,3,0,1,0-5.9,0v0.23A3,3,0,0,0,270.6,253.69Z" transform="translate(0)"/><path class="c" d="M270.6,244.38a3,3,0,0,0,2.95-3v-0.23a3,3,0,1,0-5.9,0v0.23A3,3,0,0,0,270.6,244.38Z" transform="translate(0)"/><path class="c" d="M270.6,235.07a3,3,0,0,0,2.95-2.95V231.9a3,3,0,1,0-5.9,0v0.23A3,3,0,0,0,270.6,235.07Z" transform="translate(0)"/><path class="c" d="M270.6,225.77a3,3,0,0,0,2.95-3v-0.23a3,3,0,1,0-5.9,0v0.23A3,3,0,0,0,270.6,225.77Z" transform="translate(0)"/><path class="c" d="M270.6,216.46a3,3,0,0,0,2.95-3v-0.22a3,3,0,1,0-5.9,0v0.22A3,3,0,0,0,270.6,216.46Z" transform="translate(0)"/><path class="c" d="M270.6,207.15a3,3,0,0,0,2.95-3V204a3,3,0,1,0-5.9,0v0.23A3,3,0,0,0,270.6,207.15Z" transform="translate(0)"/><path class="c" d="M270.6,197.84a3,3,0,0,0,2.95-3v-0.23a3,3,0,1,0-5.9,0v0.23A3,3,0,0,0,270.6,197.84Z" transform="translate(0)"/><path class="c" d="M270.6,188.53a3,3,0,0,0,2.95-3v-0.23a3,3,0,1,0-5.9,0v0.23A3,3,0,0,0,270.6,188.53Z" transform="translate(0)"/><path class="c" d="M261.63,300.24a3,3,0,0,0,3-3v-0.23a3,3,0,0,0-5.9,0v0.23A3,3,0,0,0,261.63,300.24Z" transform="translate(0)"/><path class="c" d="M261.63,290.93a3,3,0,0,0,3-3v-0.23a3,3,0,0,0-5.9,0V288A3,3,0,0,0,261.63,290.93Z" transform="translate(0)"/><path class="c" d="M261.63,281.62a3,3,0,0,0,3-3v-0.23a3,3,0,1,0-5.9,0v0.23A3,3,0,0,0,261.63,281.62Z" transform="translate(0)"/><path class="c" d="M261.63,272.31a3,3,0,0,0,3-3v-0.23a3,3,0,1,0-5.9,0v0.23A3,3,0,0,0,261.63,272.31Z" transform="translate(0)"/><path class="c" d="M261.63,263a3,3,0,0,0,3-3v-0.23a3,3,0,0,0-5.9,0v0.23A3,3,0,0,0,261.63,263Z" transform="translate(0)"/><path class="c" d="M261.63,253.69a3,3,0,0,0,3-3v-0.23a3,3,0,1,0-5.9,0v0.23A3,3,0,0,0,261.63,253.69Z" transform="translate(0)"/><path class="c" d="M261.63,244.38a3,3,0,0,0,3-3v-0.23a3,3,0,1,0-5.9,0v0.23A3,3,0,0,0,261.63,244.38Z" transform="translate(0)"/><path class="c" d="M261.63,235.08a3,3,0,0,0,3-3V231.9a3,3,0,0,0-5.9,0v0.23A3,3,0,0,0,261.63,235.08Z" transform="translate(0)"/><path class="c" d="M261.63,225.77a3,3,0,0,0,3-3v-0.23a3,3,0,1,0-5.9,0v0.23A3,3,0,0,0,261.63,225.77Z" transform="translate(0)"/><path class="c" d="M261.63,216.46a3,3,0,0,0,3-3v-0.23a3,3,0,0,0-5.9,0v0.23A3,3,0,0,0,261.63,216.46Z" transform="translate(0)"/><path class="c" d="M261.63,207.15a3,3,0,0,0,3-3V204a3,3,0,1,0-5.9,0v0.23A3,3,0,0,0,261.63,207.15Z" transform="translate(0)"/><path class="c" d="M261.63,197.84a3,3,0,0,0,3-3v-0.23a3,3,0,0,0-5.9,0v0.23A3,3,0,0,0,261.63,197.84Z" transform="translate(0)"/><path class="c" d="M261.63,188.53a3,3,0,0,0,3-3v-0.23a3,3,0,1,0-5.9,0v0.23A3,3,0,0,0,261.63,188.53Z" transform="translate(0)"/><path class="c" d="M252.66,300.24a3,3,0,0,0,3-3v-0.23a3,3,0,0,0-5.91,0v0.23A3,3,0,0,0,252.66,300.24Z" transform="translate(0)"/><path class="c" d="M252.66,290.93a3,3,0,0,0,3-3v-0.23a3,3,0,0,0-5.91,0V288A3,3,0,0,0,252.66,290.93Z" transform="translate(0)"/><path class="c" d="M252.66,281.62a3,3,0,0,0,3-3v-0.23a3,3,0,1,0-5.91,0v0.23A3,3,0,0,0,252.66,281.62Z" transform="translate(0)"/><path class="c" d="M252.66,272.31a3,3,0,0,0,3-3v-0.23a3,3,0,0,0-5.91,0v0.23A3,3,0,0,0,252.66,272.31Z" transform="translate(0)"/><path class="c" d="M252.66,263a3,3,0,0,0,3-3v-0.23a3,3,0,0,0-5.91,0v0.23A3,3,0,0,0,252.66,263Z" transform="translate(0)"/><path class="c" d="M252.66,253.69a3,3,0,0,0,3-3v-0.23a3,3,0,0,0-5.91,0v0.23A3,3,0,0,0,252.66,253.69Z" transform="translate(0)"/><path class="c" d="M252.66,244.38a3,3,0,0,0,3-3v-0.23a3,3,0,1,0-5.91,0v0.23A3,3,0,0,0,252.66,244.38Z" transform="translate(0)"/><path class="c" d="M252.66,235.08a3,3,0,0,0,3-3V231.9a3,3,0,0,0-5.91,0v0.23A3,3,0,0,0,252.66,235.08Z" transform="translate(0)"/><path class="c" d="M252.66,225.77a3,3,0,0,0,3-3v-0.23a3,3,0,0,0-5.91,0v0.23A3,3,0,0,0,252.66,225.77Z" transform="translate(0)"/><path class="c" d="M252.66,216.46a3,3,0,0,0,3-3v-0.23a3,3,0,0,0-5.91,0v0.23A3,3,0,0,0,252.66,216.46Z" transform="translate(0)"/><path class="c" d="M252.66,207.15a3,3,0,0,0,3-3V204a3,3,0,0,0-5.91,0v0.23A3,3,0,0,0,252.66,207.15Z" transform="translate(0)"/><path class="c" d="M252.66,197.84a3,3,0,0,0,3-3v-0.23a3,3,0,0,0-5.91,0v0.23A3,3,0,0,0,252.66,197.84Z" transform="translate(0)"/><path class="c" d="M252.66,188.53a3,3,0,0,0,3-3v-0.23a3,3,0,0,0-5.91,0v0.23A3,3,0,0,0,252.66,188.53Z" transform="translate(0)"/><path class="c" d="M243.69,300.24a3,3,0,0,0,3-3v-0.23a3,3,0,0,0-5.91,0v0.23A3,3,0,0,0,243.69,300.24Z" transform="translate(0)"/><path class="c" d="M243.69,290.93a3,3,0,0,0,3-3v-0.23a3,3,0,0,0-5.91,0V288A3,3,0,0,0,243.69,290.93Z" transform="translate(0)"/><path class="c" d="M243.69,281.62a3,3,0,0,0,3-3v-0.23a3,3,0,0,0-5.91,0v0.23A3,3,0,0,0,243.69,281.62Z" transform="translate(0)"/><path class="c" d="M243.69,272.31a3,3,0,0,0,3-3v-0.23a3,3,0,0,0-5.91,0v0.23A3,3,0,0,0,243.69,272.31Z" transform="translate(0)"/><path class="c" d="M243.69,263a3,3,0,0,0,3-3v-0.23a3,3,0,0,0-5.91,0v0.23A3,3,0,0,0,243.69,263Z" transform="translate(0)"/><path class="c" d="M243.69,253.69a3,3,0,0,0,3-3v-0.23a3,3,0,0,0-5.91,0v0.23A3,3,0,0,0,243.69,253.69Z" transform="translate(0)"/><path class="c" d="M243.69,244.38a3,3,0,0,0,3-3v-0.23a3,3,0,0,0-5.91,0v0.23A3,3,0,0,0,243.69,244.38Z" transform="translate(0)"/><path class="c" d="M243.69,235.08a3,3,0,0,0,3-3V231.9a3,3,0,0,0-5.91,0v0.23A3,3,0,0,0,243.69,235.08Z" transform="translate(0)"/><path class="c" d="M243.69,225.77a3,3,0,0,0,3-3v-0.23a3,3,0,0,0-5.91,0v0.23A3,3,0,0,0,243.69,225.77Z" transform="translate(0)"/><path class="c" d="M243.69,216.46a3,3,0,0,0,3-3v-0.23a3,3,0,0,0-5.91,0v0.23A3,3,0,0,0,243.69,216.46Z" transform="translate(0)"/><path class="c" d="M243.69,207.15a3,3,0,0,0,3-3V204a3,3,0,0,0-5.91,0v0.23A3,3,0,0,0,243.69,207.15Z" transform="translate(0)"/><path class="c" d="M243.69,197.84a3,3,0,0,0,3-3v-0.23a3,3,0,0,0-5.91,0v0.23A3,3,0,0,0,243.69,197.84Z" transform="translate(0)"/><path class="c" d="M243.69,188.53a3,3,0,0,0,3-3v-0.23a3,3,0,0,0-5.91,0v0.23A3,3,0,0,0,243.69,188.53Z" transform="translate(0)"/><path class="c" d="M234.72,300.24a3,3,0,0,0,3-3v-0.23a3,3,0,0,0-5.9,0v0.23A3,3,0,0,0,234.72,300.24Z" transform="translate(0)"/><path class="c" d="M234.72,290.93a3,3,0,0,0,3-3v-0.23a3,3,0,1,0-5.9,0V288A3,3,0,0,0,234.72,290.93Z" transform="translate(0)"/><path class="c" d="M234.72,281.62a3,3,0,0,0,3-3v-0.23a3,3,0,0,0-5.9,0v0.23A3,3,0,0,0,234.72,281.62Z" transform="translate(0)"/><path class="c" d="M234.72,272.31a3,3,0,0,0,3-3v-0.23a3,3,0,0,0-5.9,0v0.23A3,3,0,0,0,234.72,272.31Z" transform="translate(0)"/><path class="c" d="M234.72,263a3,3,0,0,0,3-3v-0.23a3,3,0,0,0-5.9,0v0.23A3,3,0,0,0,234.72,263Z" transform="translate(0)"/><path class="c" d="M234.72,253.69a3,3,0,0,0,3-3v-0.23a3,3,0,1,0-5.9,0v0.23A3,3,0,0,0,234.72,253.69Z" transform="translate(0)"/><path class="c" d="M234.72,244.38a3,3,0,0,0,3-3v-0.23a3,3,0,0,0-5.9,0v0.23A3,3,0,0,0,234.72,244.38Z" transform="translate(0)"/><path class="c" d="M234.72,235.08a3,3,0,0,0,3-3V231.9a3,3,0,0,0-5.9,0v0.23A3,3,0,0,0,234.72,235.08Z" transform="translate(0)"/><path class="c" d="M234.72,225.77a3,3,0,0,0,3-3v-0.23a3,3,0,1,0-5.9,0v0.23A3,3,0,0,0,234.72,225.77Z" transform="translate(0)"/><path class="c" d="M234.72,216.46a3,3,0,0,0,3-3v-0.23a3,3,0,0,0-5.9,0v0.23A3,3,0,0,0,234.72,216.46Z" transform="translate(0)"/><path class="c" d="M234.72,207.15a3,3,0,0,0,3-3V204a3,3,0,0,0-5.9,0v0.23A3,3,0,0,0,234.72,207.15Z" transform="translate(0)"/><path class="c" d="M234.72,197.84a3,3,0,0,0,3-3v-0.23a3,3,0,0,0-5.9,0v0.23A3,3,0,0,0,234.72,197.84Z" transform="translate(0)"/><path class="c" d="M234.72,188.53a3,3,0,0,0,3-3v-0.23a3,3,0,1,0-5.9,0v0.23A3,3,0,0,0,234.72,188.53Z" transform="translate(0)"/><path class="c" d="M225.74,300.24a3,3,0,0,0,3-3v-0.23a3,3,0,0,0-5.9,0v0.23A3,3,0,0,0,225.74,300.24Z" transform="translate(0)"/><path class="c" d="M225.74,290.93a3,3,0,0,0,3-3v-0.23a3,3,0,1,0-5.9,0V288A3,3,0,0,0,225.74,290.93Z" transform="translate(0)"/><path class="c" d="M225.74,281.62a3,3,0,0,0,3-3v-0.23a3,3,0,1,0-5.9,0v0.23A3,3,0,0,0,225.74,281.62Z" transform="translate(0)"/><path class="c" d="M225.74,272.31a3,3,0,0,0,3-3v-0.23a3,3,0,1,0-5.9,0v0.23A3,3,0,0,0,225.74,272.31Z" transform="translate(0)"/><path class="c" d="M225.74,263a3,3,0,0,0,3-3v-0.23a3,3,0,0,0-5.9,0v0.23A3,3,0,0,0,225.74,263Z" transform="translate(0)"/><path class="c" d="M225.74,253.69a3,3,0,0,0,3-3v-0.23a3,3,0,1,0-5.9,0v0.23A3,3,0,0,0,225.74,253.69Z" transform="translate(0)"/><path class="c" d="M225.74,244.38a3,3,0,0,0,3-3v-0.23a3,3,0,0,0-5.9,0v0.23A3,3,0,0,0,225.74,244.38Z" transform="translate(0)"/><path class="c" d="M225.74,235.08a3,3,0,0,0,3-3V231.9a3,3,0,0,0-5.9,0v0.23A3,3,0,0,0,225.74,235.08Z" transform="translate(0)"/><path class="c" d="M225.74,225.77a3,3,0,0,0,3-3v-0.23a3,3,0,1,0-5.9,0v0.23A3,3,0,0,0,225.74,225.77Z" transform="translate(0)"/><path class="c" d="M225.74,216.46a3,3,0,0,0,3-3v-0.23a3,3,0,1,0-5.9,0v0.23A3,3,0,0,0,225.74,216.46Z" transform="translate(0)"/><path class="c" d="M225.74,207.15a3,3,0,0,0,3-3V204a3,3,0,1,0-5.9,0v0.23A3,3,0,0,0,225.74,207.15Z" transform="translate(0)"/><path class="c" d="M225.74,197.84a3,3,0,0,0,3-3v-0.23a3,3,0,1,0-5.9,0v0.23A3,3,0,0,0,225.74,197.84Z" transform="translate(0)"/><path class="c" d="M225.74,188.53a3,3,0,0,0,3-3v-0.23a3,3,0,1,0-5.9,0v0.23A3,3,0,0,0,225.74,188.53Z" transform="translate(0)"/><path class="c" d="M216.78,300.24a3,3,0,0,0,3-3v-0.23a3,3,0,0,0-5.91,0v0.23A3,3,0,0,0,216.78,300.24Z" transform="translate(0)"/><path class="c" d="M216.78,290.93a3,3,0,0,0,3-3v-0.23a3,3,0,0,0-5.91,0V288A3,3,0,0,0,216.78,290.93Z" transform="translate(0)"/><path class="c" d="M216.78,281.62a3,3,0,0,0,3-3v-0.23a3,3,0,0,0-5.91,0v0.23A3,3,0,0,0,216.78,281.62Z" transform="translate(0)"/><path class="c" d="M216.78,272.31a3,3,0,0,0,3-3v-0.23a3,3,0,0,0-5.91,0v0.23A3,3,0,0,0,216.78,272.31Z" transform="translate(0)"/><path class="c" d="M216.78,263a3,3,0,0,0,3-3v-0.23a3,3,0,0,0-5.91,0v0.23A3,3,0,0,0,216.78,263Z" transform="translate(0)"/><path class="c" d="M216.78,253.69a3,3,0,0,0,3-3v-0.23a3,3,0,0,0-5.91,0v0.23A3,3,0,0,0,216.78,253.69Z" transform="translate(0)"/><path class="c" d="M216.78,244.38a3,3,0,0,0,3-3v-0.23a3,3,0,0,0-5.91,0v0.23A3,3,0,0,0,216.78,244.38Z" transform="translate(0)"/><path class="c" d="M216.78,235.08a3,3,0,0,0,3-3V231.9a3,3,0,0,0-5.91,0v0.23A3,3,0,0,0,216.78,235.08Z" transform="translate(0)"/><path class="c" d="M216.78,225.77a3,3,0,0,0,3-3v-0.23a3,3,0,0,0-5.91,0v0.23A3,3,0,0,0,216.78,225.77Z" transform="translate(0)"/><path class="c" d="M216.78,216.46a3,3,0,0,0,3-3v-0.23a3,3,0,0,0-5.91,0v0.23A3,3,0,0,0,216.78,216.46Z" transform="translate(0)"/><path class="c" d="M216.78,207.15a3,3,0,0,0,3-3V204a3,3,0,0,0-5.91,0v0.23A3,3,0,0,0,216.78,207.15Z" transform="translate(0)"/><path class="c" d="M216.78,197.84a3,3,0,0,0,3-3v-0.23a3,3,0,0,0-5.91,0v0.23A3,3,0,0,0,216.78,197.84Z" transform="translate(0)"/><path class="c" d="M216.78,188.53a3,3,0,0,0,3-3v-0.23a3,3,0,0,0-5.91,0v0.23A3,3,0,0,0,216.78,188.53Z" transform="translate(0)"/><path class="c" d="M207.81,300.24a3,3,0,0,0,3-3v-0.23a3,3,0,0,0-5.9,0v0.23A3,3,0,0,0,207.81,300.24Z" transform="translate(0)"/><path class="c" d="M207.81,290.93a3,3,0,0,0,3-3v-0.23a3,3,0,1,0-5.9,0V288A3,3,0,0,0,207.81,290.93Z" transform="translate(0)"/><path class="c" d="M207.81,281.62a3,3,0,0,0,3-3v-0.23a3,3,0,1,0-5.9,0v0.23A3,3,0,0,0,207.81,281.62Z" transform="translate(0)"/><path class="c" d="M207.81,272.31a3,3,0,0,0,3-3v-0.23a3,3,0,1,0-5.9,0v0.23A3,3,0,0,0,207.81,272.31Z" transform="translate(0)"/><path class="c" d="M207.81,263a3,3,0,0,0,3-3v-0.23a3,3,0,0,0-5.9,0v0.23A3,3,0,0,0,207.81,263Z" transform="translate(0)"/><path class="c" d="M207.81,253.69a3,3,0,0,0,3-3v-0.23a3,3,0,1,0-5.9,0v0.23A3,3,0,0,0,207.81,253.69Z" transform="translate(0)"/><path class="c" d="M207.81,244.38a3,3,0,0,0,3-3v-0.23a3,3,0,1,0-5.9,0v0.23A3,3,0,0,0,207.81,244.38Z" transform="translate(0)"/><path class="c" d="M207.81,235.08a3,3,0,0,0,3-3V231.9a3,3,0,1,0-5.9,0v0.23A3,3,0,0,0,207.81,235.08Z" transform="translate(0)"/><path class="c" d="M207.81,225.77a3,3,0,0,0,3-3v-0.23a3,3,0,1,0-5.9,0v0.23A3,3,0,0,0,207.81,225.77Z" transform="translate(0)"/><path class="c" d="M207.81,216.46a3,3,0,0,0,3-3v-0.23a3,3,0,1,0-5.9,0v0.23A3,3,0,0,0,207.81,216.46Z" transform="translate(0)"/><path class="c" d="M207.81,207.15a3,3,0,0,0,3-3V204a3,3,0,1,0-5.9,0v0.23A3,3,0,0,0,207.81,207.15Z" transform="translate(0)"/><path class="c" d="M207.81,197.84a3,3,0,0,0,3-3v-0.23a3,3,0,0,0-5.9,0v0.23A3,3,0,0,0,207.81,197.84Z" transform="translate(0)"/><path class="c" d="M207.81,188.53a3,3,0,0,0,3-3v-0.23a3,3,0,1,0-5.9,0v0.23A3,3,0,0,0,207.81,188.53Z" transform="translate(0)"/><path class="c" d="M198.83,300.24a3,3,0,0,0,3-3v-0.22a3,3,0,0,0-5.91,0v0.22A3,3,0,0,0,198.83,300.24Z" transform="translate(0)"/><path class="c" d="M198.83,290.93a3,3,0,0,0,3-3v-0.23a3,3,0,0,0-5.91,0V288A3,3,0,0,0,198.83,290.93Z" transform="translate(0)"/><path class="c" d="M198.83,281.62a3,3,0,0,0,3-3v-0.23a3,3,0,0,0-5.91,0v0.23A3,3,0,0,0,198.83,281.62Z" transform="translate(0)"/><path class="c" d="M198.83,272.31a3,3,0,0,0,3-3v-0.23a3,3,0,0,0-5.91,0v0.23A3,3,0,0,0,198.83,272.31Z" transform="translate(0)"/><path class="c" d="M198.83,263a3,3,0,0,0,3-3v-0.23a3,3,0,0,0-5.91,0V260A3,3,0,0,0,198.83,263Z" transform="translate(0)"/><path class="c" d="M198.83,253.69a3,3,0,0,0,3-2.95v-0.23a3,3,0,0,0-5.91,0v0.23A3,3,0,0,0,198.83,253.69Z" transform="translate(0)"/><path class="c" d="M198.83,244.38a3,3,0,0,0,3-3v-0.23a3,3,0,0,0-5.91,0v0.23A3,3,0,0,0,198.83,244.38Z" transform="translate(0)"/><path class="c" d="M198.83,235.07a3,3,0,0,0,3-2.95V231.9a3,3,0,0,0-5.91,0v0.23A3,3,0,0,0,198.83,235.07Z" transform="translate(0)"/><path class="c" d="M198.83,225.77a3,3,0,0,0,3-3v-0.23a3,3,0,0,0-5.91,0v0.23A3,3,0,0,0,198.83,225.77Z" transform="translate(0)"/><path class="c" d="M198.83,216.46a3,3,0,0,0,3-3v-0.22a3,3,0,0,0-5.91,0v0.22A3,3,0,0,0,198.83,216.46Z" transform="translate(0)"/><path class="c" d="M198.83,207.15a3,3,0,0,0,3-3V204a3,3,0,0,0-5.91,0v0.23A3,3,0,0,0,198.83,207.15Z" transform="translate(0)"/><path class="c" d="M198.83,197.84a3,3,0,0,0,3-3v-0.23a3,3,0,0,0-5.91,0v0.23A3,3,0,0,0,198.83,197.84Z" transform="translate(0)"/><path class="c" d="M198.83,188.53a3,3,0,0,0,3-3v-0.23a3,3,0,0,0-5.91,0v0.23A3,3,0,0,0,198.83,188.53Z" transform="translate(0)"/><path class="c" d="M189.87,300.24a3,3,0,0,0,2.95-3v-0.23a3,3,0,0,0-5.91,0v0.23A3,3,0,0,0,189.87,300.24Z" transform="translate(0)"/><path class="c" d="M189.87,290.93a3,3,0,0,0,2.95-3v-0.23a3,3,0,0,0-5.91,0V288A3,3,0,0,0,189.87,290.93Z" transform="translate(0)"/><path class="c" d="M189.87,281.62a3,3,0,0,0,2.95-3v-0.23a3,3,0,1,0-5.91,0v0.23A3,3,0,0,0,189.87,281.62Z" transform="translate(0)"/><path class="c" d="M189.87,272.31a3,3,0,0,0,2.95-3v-0.23a3,3,0,0,0-5.91,0v0.23A3,3,0,0,0,189.87,272.31Z" transform="translate(0)"/><path class="c" d="M189.87,263a3,3,0,0,0,2.95-3v-0.23a3,3,0,0,0-5.91,0v0.23A3,3,0,0,0,189.87,263Z" transform="translate(0)"/><path class="c" d="M189.87,253.69a3,3,0,0,0,2.95-3v-0.23a3,3,0,0,0-5.91,0v0.23A3,3,0,0,0,189.87,253.69Z" transform="translate(0)"/><path class="c" d="M189.87,244.38a3,3,0,0,0,2.95-3v-0.23a3,3,0,0,0-5.91,0v0.23A3,3,0,0,0,189.87,244.38Z" transform="translate(0)"/><path class="c" d="M189.87,235.08a3,3,0,0,0,2.95-3V231.9a3,3,0,0,0-5.91,0v0.23A3,3,0,0,0,189.87,235.08Z" transform="translate(0)"/><path class="c" d="M189.87,225.77a3,3,0,0,0,2.95-3v-0.23a3,3,0,0,0-5.91,0v0.23A3,3,0,0,0,189.87,225.77Z" transform="translate(0)"/><path class="c" d="M189.87,216.46a3,3,0,0,0,2.95-3v-0.23a3,3,0,0,0-5.91,0v0.23A3,3,0,0,0,189.87,216.46Z" transform="translate(0)"/><path class="c" d="M189.87,207.15a3,3,0,0,0,2.95-3V204a3,3,0,0,0-5.91,0v0.23A3,3,0,0,0,189.87,207.15Z" transform="translate(0)"/><path class="c" d="M189.87,197.84a3,3,0,0,0,2.95-3v-0.23a3,3,0,0,0-5.91,0v0.23A3,3,0,0,0,189.87,197.84Z" transform="translate(0)"/><path class="c" d="M189.87,188.53a3,3,0,0,0,2.95-3v-0.23a3,3,0,0,0-5.91,0v0.23A3,3,0,0,0,189.87,188.53Z" transform="translate(0)"/><path class="c" d="M180.89,300.24a3,3,0,0,0,3-3v-0.23a3,3,0,0,0-5.9,0v0.23A3,3,0,0,0,180.89,300.24Z" transform="translate(0)"/><path class="c" d="M180.89,290.93a3,3,0,0,0,3-3v-0.23a3,3,0,0,0-5.9,0V288A3,3,0,0,0,180.89,290.93Z" transform="translate(0)"/><path class="c" d="M180.89,281.62a3,3,0,0,0,3-3v-0.23a3,3,0,0,0-5.9,0v0.23A3,3,0,0,0,180.89,281.62Z" transform="translate(0)"/><path class="c" d="M180.89,272.31a3,3,0,0,0,3-3v-0.23a3,3,0,0,0-5.9,0v0.23A3,3,0,0,0,180.89,272.31Z" transform="translate(0)"/><path class="c" d="M180.89,263a3,3,0,0,0,3-3v-0.23a3,3,0,0,0-5.9,0V260A3,3,0,0,0,180.89,263Z" transform="translate(0)"/><path class="c" d="M180.89,253.69a3,3,0,0,0,3-2.95v-0.23a3,3,0,1,0-5.9,0v0.23A3,3,0,0,0,180.89,253.69Z" transform="translate(0)"/><path class="c" d="M180.89,244.38a3,3,0,0,0,3-3v-0.23a3,3,0,1,0-5.9,0v0.23A3,3,0,0,0,180.89,244.38Z" transform="translate(0)"/><path class="c" d="M180.89,235.07a3,3,0,0,0,3-2.95V231.9a3,3,0,0,0-5.9,0v0.23A3,3,0,0,0,180.89,235.07Z" transform="translate(0)"/><path class="c" d="M180.89,225.77a3,3,0,0,0,3-3v-0.23a3,3,0,0,0-5.9,0v0.23A3,3,0,0,0,180.89,225.77Z" transform="translate(0)"/><path class="c" d="M180.89,216.46a3,3,0,0,0,3-3v-0.22a3,3,0,1,0-5.9,0v0.22A3,3,0,0,0,180.89,216.46Z" transform="translate(0)"/><path class="c" d="M180.89,207.15a3,3,0,0,0,3-3V204a3,3,0,1,0-5.9,0v0.23A3,3,0,0,0,180.89,207.15Z" transform="translate(0)"/><path class="c" d="M180.89,197.84a3,3,0,0,0,3-3v-0.23a3,3,0,0,0-5.9,0v0.23A3,3,0,0,0,180.89,197.84Z" transform="translate(0)"/><path class="c" d="M180.89,188.53a3,3,0,0,0,3-3v-0.23a3,3,0,0,0-5.9,0v0.23A3,3,0,0,0,180.89,188.53Z" transform="translate(0)"/><path class="c" d="M306.52,300.24a3,3,0,0,0,2.95-3v-0.23a3,3,0,0,0-5.9,0v0.23A3,3,0,0,0,306.52,300.24Z" transform="translate(0)"/><path class="c" d="M306.52,290.93a3,3,0,0,0,2.95-3v-0.23a3,3,0,1,0-5.9,0V288A3,3,0,0,0,306.52,290.93Z" transform="translate(0)"/><path class="c" d="M306.52,281.62a3,3,0,0,0,2.95-3v-0.23a3,3,0,1,0-5.9,0v0.23A3,3,0,0,0,306.52,281.62Z" transform="translate(0)"/><path class="c" d="M306.52,272.31a3,3,0,0,0,2.95-3v-0.23a3,3,0,1,0-5.9,0v0.23A3,3,0,0,0,306.52,272.31Z" transform="translate(0)"/><path class="c" d="M306.52,263a3,3,0,0,0,2.95-3v-0.23a3,3,0,0,0-5.9,0v0.23A3,3,0,0,0,306.52,263Z" transform="translate(0)"/><path class="c" d="M306.52,253.69a3,3,0,0,0,2.95-3v-0.23a3,3,0,1,0-5.9,0v0.23A3,3,0,0,0,306.52,253.69Z" transform="translate(0)"/><path class="c" d="M306.52,244.38a3,3,0,0,0,2.95-3v-0.23a3,3,0,0,0-5.9,0v0.23A3,3,0,0,0,306.52,244.38Z" transform="translate(0)"/><path class="c" d="M306.52,235.08a3,3,0,0,0,2.95-3V231.9a3,3,0,0,0-5.9,0v0.23A3,3,0,0,0,306.52,235.08Z" transform="translate(0)"/><path class="c" d="M306.52,225.77a3,3,0,0,0,2.95-3v-0.23a3,3,0,1,0-5.9,0v0.23A3,3,0,0,0,306.52,225.77Z" transform="translate(0)"/><path class="c" d="M306.52,216.46a3,3,0,0,0,2.95-3v-0.23a3,3,0,1,0-5.9,0v0.23A3,3,0,0,0,306.52,216.46Z" transform="translate(0)"/><path class="c" d="M306.52,207.15a3,3,0,0,0,2.95-3V204a3,3,0,1,0-5.9,0v0.23A3,3,0,0,0,306.52,207.15Z" transform="translate(0)"/><path class="c" d="M306.52,197.84a3,3,0,0,0,2.95-3v-0.23a3,3,0,1,0-5.9,0v0.23A3,3,0,0,0,306.52,197.84Z" transform="translate(0)"/><path class="c" d="M306.52,188.53a3,3,0,0,0,2.95-3v-0.23a3,3,0,1,0-5.9,0v0.23A3,3,0,0,0,306.52,188.53Z" transform="translate(0)"/></g><path class="f" d="M141.57,218.57c0-3.06,3.75-5.28,3.75-10.68,0-13.5-21.89-24.45-48.9-24.45s-48.9,10.95-48.9,24.45c0,5.87,2.6,7.78,2.6,10.68,0,6.77-18.9,15.18-18.9,30.07,0,22.51,29.19,40.75,65.2,40.75s65.2-18.24,65.2-40.75C161.62,233.43,141.57,224.86,141.57,218.57Z" transform="translate(0)"/></svg>