<svg xmlns="http://www.w3.org/2000/svg" width="120mm" height="120mm" viewBox="0 0 340.16 340.16"><defs><style>.a{fill:#fff;}.b{fill:#0086a8;}.c{fill:#00577e;}</style></defs><title>samenwonen_trouwen</title><rect class="a" x="7.09" y="7.09" width="325.98" height="325.98" rx="35.43" ry="35.43"/><path class="b" d="M297.64,14.17A28.38,28.38,0,0,1,326,42.52V297.64A28.38,28.38,0,0,1,297.64,326H42.52a28.38,28.38,0,0,1-28.35-28.35V42.52A28.38,28.38,0,0,1,42.52,14.17H297.64m0-14.17H42.52A42.64,42.64,0,0,0,0,42.52V297.64a42.64,42.64,0,0,0,42.52,42.52H297.64a42.64,42.64,0,0,0,42.52-42.52V42.52A42.64,42.64,0,0,0,297.64,0h0Z" transform="translate(0)"/><path class="b" d="M94.86,196.74A31.72,31.72,0,1,0,63.13,165,31.72,31.72,0,0,0,94.86,196.74Z" transform="translate(0)"/><path class="b" d="M245.68,196.74A31.73,31.73,0,0,0,277.4,165c0-17.51-13.35-31.71-30.87-31.71S214,147.51,214,165A31.72,31.72,0,0,0,245.68,196.74Z" transform="translate(0)"/><path class="c" d="M217.61,48c-13.12-13.13-34.41-8.67-47.53,4.45C157,39.34,135.67,34.88,122.55,48a33.61,33.61,0,0,0,0,47.53l0,0,47.49,47.49L217.6,95.55h0A33.61,33.61,0,0,0,217.61,48Z" transform="translate(0)"/><path class="b" d="M290.08,199.95H279v0h-66.6v0h-8.54c-0.23,0-.46,0-0.68,0a15.15,15.15,0,0,0-14.49,11.22l-18.39,76h0l-18.39-76A15.15,15.15,0,0,0,137.38,200c-0.23,0-.45,0-0.68,0h-8.54v0H61.55v0H50.45A15.86,15.86,0,0,0,34.6,215.81v96.08H57V230a3,3,0,1,1,6,0v81.85h65.19V231.67h0s0,0,0,0v-4.52h4.36L154.77,312h31L208,227.1h4.36v4.52s0,0,0,0h0v80.22h65V230a3,3,0,1,1,6,0v81.85h22.55V215.81A15.86,15.86,0,0,0,290.08,199.95Z" transform="translate(0)"/></svg>