<svg xmlns="http://www.w3.org/2000/svg" width="120mm" height="120mm" viewBox="0 0 340.16 340.16"><defs><style>.a{fill:#fff;}.b{fill:#0286a8;}.c{fill:#00577e;}</style></defs><title>scheiden</title><rect class="a" x="7.09" y="7.09" width="325.98" height="325.98" rx="35.43" ry="35.43"/><path class="b" d="M297.64,14.17A28.38,28.38,0,0,1,326,42.52V297.64A28.38,28.38,0,0,1,297.64,326H42.52a28.38,28.38,0,0,1-28.35-28.35V42.52A28.38,28.38,0,0,1,42.52,14.17H297.64m0-14.17H42.52A42.64,42.64,0,0,0,0,42.52V297.64a42.64,42.64,0,0,0,42.52,42.52H297.64a42.64,42.64,0,0,0,42.52-42.52V42.52A42.64,42.64,0,0,0,297.64,0h0Z" transform="translate(0)"/><path class="b" d="M246,196.66a31.72,31.72,0,1,0-31.73-31.72A31.72,31.72,0,0,0,246,196.66Z" transform="translate(0)"/><path class="b" d="M290.35,199.86h-11.1v0h-66.6v0h-11.1a15.86,15.86,0,0,0-15.86,15.86v96.08h23.59V230a3,3,0,1,1,6,0v81.85h61.33V230a3,3,0,1,1,6,0v81.85H306.2V215.72A15.86,15.86,0,0,0,290.35,199.86Z" transform="translate(0)"/><path class="c" d="M175.33,50.35c11.21-14,34.93-14.87,47.26-1.09A33.47,33.47,0,0,1,220,96.52h0l-49.87,44.62-49.85-44.6,0,0a33.47,33.47,0,0,1-2.63-47.26c12.32-13.78,34.91-12.91,47.26,1.09l-8.2,30,16.8,14-9.11,24.64,5.76,22.07L167,120.42,179.72,94.2,164.34,78.86Z" transform="translate(0)"/><path class="b" d="M94.19,196.66a31.72,31.72,0,1,0-31.73-31.72A31.72,31.72,0,0,0,94.19,196.66Z" transform="translate(0)"/><path class="b" d="M138.58,199.86h-11.1v0H60.88v0H49.79a15.86,15.86,0,0,0-15.86,15.86v96.08H57.52V230a3,3,0,1,1,6,0v81.85h61.33V230a3,3,0,1,1,6,0v81.85h23.59V215.72A15.86,15.86,0,0,0,138.58,199.86Z" transform="translate(0)"/></svg>