<svg xmlns="http://www.w3.org/2000/svg" xmlns:xlink="http://www.w3.org/1999/xlink" width="120mm" height="120mm" viewBox="0 0 340.16 340.16"><defs><style>.a{fill:none;}.b{fill:#fff;}.c{fill:#0286a8;}.d{clip-path:url(#a);}.e{fill:#81c3d4;}.f{fill:#00577e;}</style><clipPath id="a" transform="translate(0)"><polygon class="a" points="211.17 31.11 179.17 164.43 307.97 130.43 307.97 296.88 29.97 296.6 29.97 31.11 211.17 31.11"/></clipPath></defs><title>tekort</title><rect class="b" x="7.09" y="7.09" width="325.98" height="325.98" rx="35.43" ry="35.43"/><path class="c" d="M297.64,14.17A28.38,28.38,0,0,1,326,42.52V297.64A28.38,28.38,0,0,1,297.64,326H42.52a28.38,28.38,0,0,1-28.35-28.35V42.52A28.38,28.38,0,0,1,42.52,14.17H297.64m0-14.17H42.52A42.64,42.64,0,0,0,0,42.52V297.64a42.64,42.64,0,0,0,42.52,42.52H297.64a42.64,42.64,0,0,0,42.52-42.52V42.52A42.64,42.64,0,0,0,297.64,0h0Z" transform="translate(0)"/><g class="d"><ellipse class="e" cx="169.84" cy="136" rx="112.23" ry="59.23"/><path class="f" d="M256.27,159.45c0-5.86,7.18-10.11,7.18-20.43,0-25.83-41.87-46.77-93.52-46.77S76.4,113.2,76.4,139c0,11.23,5,14.87,5,20.43,0,12.95-36.15,29-36.15,57.51,0,43,55.83,77.94,124.7,77.94S294.63,260,294.63,217C294.63,187.87,256.27,171.49,256.27,159.45Z" transform="translate(0)"/><circle class="e" cx="154.34" cy="60.75" r="15.59"/><circle class="e" cx="185.51" cy="60.75" r="15.59"/></g><path class="e" d="M291.18,110.77a20.87,20.87,0,0,1-.27,3.3l19-5c0-.45,0-0.9,0-1.35,0-27.17-34.37-50.11-81.42-57.36l-4,15.3C263.12,71.58,291.18,89.54,291.18,110.77Z" transform="translate(0)"/><path class="f" d="M224.52,65.67L205.94,136.4l85-22.33a20.87,20.87,0,0,0,.27-3.3C291.18,89.54,263.12,71.58,224.52,65.67Z" transform="translate(0)"/></svg>