<svg xmlns="http://www.w3.org/2000/svg" width="120mm" height="120mm" viewBox="0 0 340.16 340.16"><defs><style>.a{fill:#fff;}.b{fill:#0286a8;}.c{fill:#00587e;}</style></defs><title>uitkeringszekerheid_risico</title><rect class="a" x="7.09" y="7.09" width="325.98" height="325.98" rx="35.43" ry="35.43"/><path class="b" d="M297.64,14.17A28.38,28.38,0,0,1,326,42.52V297.64A28.38,28.38,0,0,1,297.64,326H42.52a28.38,28.38,0,0,1-28.35-28.35V42.52A28.38,28.38,0,0,1,42.52,14.17H297.64m0-14.17H42.52A42.64,42.64,0,0,0,0,42.52V297.64a42.64,42.64,0,0,0,42.52,42.52H297.64a42.64,42.64,0,0,0,42.52-42.52V42.52A42.64,42.64,0,0,0,297.64,0h0Z" transform="translate(0)"/><path class="b" d="M46.42,220.56a4,4,0,0,1,3.89-4H71.48a3.92,3.92,0,0,1,0,7.84H50.3A3.94,3.94,0,0,1,46.42,220.56Z" transform="translate(0)"/><path class="b" d="M273.85,224.15H264.5a3.61,3.61,0,0,1-3.62-3.62,3.66,3.66,0,0,1,3.62-3.62h9.36v-9.16a3.71,3.71,0,0,1,3.76-3.76,3.75,3.75,0,0,1,3.75,3.76v9.16h9.36a3.66,3.66,0,0,1,3.62,3.62,3.61,3.61,0,0,1-3.62,3.62h-9.36v9.16a3.75,3.75,0,0,1-3.75,3.76,3.71,3.71,0,0,1-3.76-3.76v-9.16Z" transform="translate(0)"/><path class="b" d="M70.46,269.86a4.43,4.43,0,0,1,4.47-4.47H89c5.16,0,9.16,1.45,11.83,4.12a12.75,12.75,0,0,1,3.48,9.28v0.12c0,6.38-3.19,10.32-8.12,12.35l6.21,7.54a5.2,5.2,0,0,1,1.45,3.42,4.15,4.15,0,0,1-4.23,4.12A5.34,5.34,0,0,1,95.23,304l-8.7-11H79.4v8.87a4.47,4.47,0,0,1-8.93,0v-32Zm18,15.25c4.35,0,6.84-2.32,6.84-5.74v-0.12c0-3.83-2.67-5.8-7-5.8H79.4v11.66h9Z" transform="translate(0)"/><path class="b" d="M112.8,269.51a4.47,4.47,0,1,1,8.93,0v32.36a4.47,4.47,0,1,1-8.93,0V269.51Z" transform="translate(0)"/><path class="b" d="M131.07,301.7a4.17,4.17,0,0,1-1.68-3.36,4.11,4.11,0,0,1,4.18-4.12,4.29,4.29,0,0,1,2.55.81,17.12,17.12,0,0,0,10.38,3.65c3.65,0,5.86-1.45,5.86-3.83v-0.12c0-2.26-1.39-3.42-8.18-5.16-8.18-2.09-13.46-4.35-13.46-12.41v-0.12c0-7.37,5.92-12.24,14.21-12.24a23.57,23.57,0,0,1,12.88,3.6,4.13,4.13,0,0,1-2.2,7.66,4.28,4.28,0,0,1-2.26-.64,16.89,16.89,0,0,0-8.53-2.73c-3.42,0-5.22,1.57-5.22,3.54v0.12c0,2.67,1.74,3.54,8.76,5.34,8.24,2.15,12.88,5.1,12.88,12.18V294c0,8.06-6.15,12.59-14.91,12.59A26.21,26.21,0,0,1,131.07,301.7Z" transform="translate(0)"/><path class="b" d="M169.41,269.51a4.47,4.47,0,1,1,8.93,0v32.36a4.47,4.47,0,1,1-8.93,0V269.51Z" transform="translate(0)"/><path class="b" d="M186.7,285.81V285.7c0-11.54,8.7-21,21.17-21,6.09,0,10.21,1.62,13.57,4.12a4.47,4.47,0,0,1,1.74,3.54,4.36,4.36,0,0,1-4.41,4.35,4.69,4.69,0,0,1-2.67-.87,13.35,13.35,0,0,0-8.29-2.9c-6.84,0-11.77,5.68-11.77,12.64v0.12c0,7,4.81,12.76,11.77,12.76a13,13,0,0,0,8.82-3.19,4.14,4.14,0,1,1,5.33,6.32c-3.65,3.19-7.95,5.1-14.44,5.1A20.49,20.49,0,0,1,186.7,285.81Z" transform="translate(0)"/><path class="b" d="M228.34,285.81V285.7c0-11.54,9.11-21,21.63-21s21.52,9.34,21.52,20.88v0.12c0,11.54-9.11,21-21.63,21S228.34,297.35,228.34,285.81Zm33.81,0V285.7c0-7-5.1-12.76-12.29-12.76s-12.18,5.68-12.18,12.64v0.12c0,7,5.1,12.76,12.29,12.76S262.15,292.77,262.15,285.81Z" transform="translate(0)"/><path class="b" d="M53.2,184.63l-14-.13a130.12,130.12,0,0,1,260.23-.09l-14,.14C284.79,121.18,232.7,69.63,169.32,69.63S53.8,121.22,53.2,184.63Z" transform="translate(0)"/><path class="b" d="M292.44,191H262.77a7,7,0,0,1,0-14h29.67A7,7,0,0,1,292.44,191Z" transform="translate(0)"/><path class="b" d="M235.42,127a7,7,0,0,1-4.95-11.95l21-21a7,7,0,1,1,9.9,9.9l-21,21A7,7,0,0,1,235.42,127Z" transform="translate(0)"/><path class="b" d="M169.32,99.3a7,7,0,0,1-7-7V62.63a7,7,0,0,1,14,0V92.3A7,7,0,0,1,169.32,99.3Z" transform="translate(0)"/><path class="b" d="M75.87,191.1H46.19a7,7,0,0,1,0-14H75.87A7,7,0,0,1,75.87,191.1Z" transform="translate(0)"/><path class="b" d="M103.38,127.06A7,7,0,0,1,98.43,125l-21-21a7,7,0,0,1,9.9-9.9l21,21A7,7,0,0,1,103.38,127.06Z" transform="translate(0)"/><path class="b" d="M169.48,99.36a7,7,0,0,1-7-7V62.68a7,7,0,1,1,14,0V92.36A7,7,0,0,1,169.48,99.36Z" transform="translate(0)"/><path class="c" d="M159.07,180.66S120.56,75.49,121.14,75.22s51.48,100.2,51.48,100.2Z" transform="translate(0)"/><path class="c" d="M159.07,184.66a4,4,0,0,1-3.76-2.62c-0.1-.26-9.74-26.6-19.19-52.63-5.55-15.29-9.95-27.49-13.07-36.25-1.86-5.21-3.28-9.26-4.23-12-0.51-1.49-.9-2.66-1.16-3.47-0.36-1.12-1.45-4.54,1.78-6.06,2.27-1.07,4.25-.14,5.87,2.74,0.42,0.74,1,1.83,1.75,3.23,1.38,2.59,3.37,6.41,5.93,11.35,4.3,8.31,10.24,19.91,17.68,34.48,12.65,24.8,25.4,50,25.53,50.21a4,4,0,0,1-2.12,5.54l-13.55,5.25A4,4,0,0,1,159.07,184.66Zm-14.7-56c5.67,15.63,11.77,32.34,17.06,46.8l5.63-2.18C160,159.46,151.95,143.52,144.37,128.66Z" transform="translate(0)"/><circle class="c" cx="170.03" cy="185.78" r="19.5" transform="translate(-19.71 351.39) rotate(-88.65)"/></svg>