<svg xmlns="http://www.w3.org/2000/svg" width="120mm" height="120mm" viewBox="0 0 340.16 340.16"><defs><style>.a{fill:#fff;}.b{fill:#0286a8;}</style></defs><title>vervroegen_uitstellen</title><rect class="a" x="7.09" y="7.09" width="325.98" height="325.98" rx="35.43" ry="35.43"/><path class="b" d="M297.64,14.17A28.38,28.38,0,0,1,326,42.52V297.64A28.38,28.38,0,0,1,297.64,326H42.52a28.38,28.38,0,0,1-28.35-28.35V42.52A28.38,28.38,0,0,1,42.52,14.17H297.64m0-14.17H42.52A42.64,42.64,0,0,0,0,42.52V297.64a42.64,42.64,0,0,0,42.52,42.52H297.64a42.64,42.64,0,0,0,42.52-42.52V42.52A42.64,42.64,0,0,0,297.64,0h0Z" transform="translate(0)"/><path class="b" d="M143,261a7.35,7.35,0,0,1,7.23-7.35h39.37a7.29,7.29,0,0,1,0,14.58H150.27A7.32,7.32,0,0,1,143,261Z" transform="translate(0)"/><path class="b" d="M163,91.12h-17.4a6.72,6.72,0,0,1-6.74-6.74,6.8,6.8,0,0,1,6.74-6.74H163v-17a6.9,6.9,0,0,1,7-7,7,7,0,0,1,7,7v17h17.4a6.8,6.8,0,0,1,6.74,6.74,6.72,6.72,0,0,1-6.74,6.74h-17.4v17a7,7,0,0,1-7,7,6.9,6.9,0,0,1-7-7v-17Z" transform="translate(0)"/><path class="b" d="M117.89,213.36c-5.56-5.56-9-13.73-9-28.88v-0.22c0-23.54,10.68-41.64,33.46-41.64a35.87,35.87,0,0,1,18.42,4.58,8,8,0,0,1,4.36,7.19,7.82,7.82,0,0,1-8,7.74,9.14,9.14,0,0,1-4.14-1.2,21.09,21.09,0,0,0-11.23-3.05c-9.48,0-14.28,7.63-15.37,17.66a26.39,26.39,0,0,1,15.8-4.9c15.15,0,26.81,8.39,26.81,24.31v0.22c0,15.59-12.53,26.38-29.1,26.38C130,221.53,123.23,218.7,117.89,213.36Zm34.44-17.44V195.7c0-6.43-5-11.12-13.3-11.12s-13.08,4.58-13.08,11v0.22c0,6.43,5,11.34,13.3,11.34S152.33,202.46,152.33,195.92Z" transform="translate(0)"/><path class="b" d="M188.41,208.13l28.34-49.7H187.54a7.21,7.21,0,0,1-7.3-7.19,7.3,7.3,0,0,1,7.3-7.3H229c4.69,0,7.63,2.73,7.63,7.52a18.42,18.42,0,0,1-2.4,8.17l-30.63,55.59c-2.18,4-4.8,5.67-8.07,5.67-4.47,0-8.61-2.73-8.61-7.52A12.4,12.4,0,0,1,188.41,208.13Z" transform="translate(0)"/></svg>