<svg xmlns="http://www.w3.org/2000/svg" width="120mm" height="120mm" viewBox="0 0 340.16 340.16"><defs><style>.a{fill:#fff;}.b{fill:#0086a8;}</style></defs><title>vragen</title><rect class="a" x="7.09" y="7.09" width="325.98" height="325.98" rx="35.43" ry="35.43"/><path class="b" d="M297.64,14.17A28.38,28.38,0,0,1,326,42.52V297.64A28.38,28.38,0,0,1,297.64,326H42.52a28.38,28.38,0,0,1-28.35-28.35V42.52A28.38,28.38,0,0,1,42.52,14.17H297.64m0-14.17H42.52A42.64,42.64,0,0,0,0,42.52V297.64a42.64,42.64,0,0,0,42.52,42.52H297.64a42.64,42.64,0,0,0,42.52-42.52V42.52A42.64,42.64,0,0,0,297.64,0h0Z" transform="translate(0)"/><path class="b" d="M162.51,220.36c-8.28,0-14.4-6.12-15.49-14.4l-3.6-31c-1.44-9.72,4.32-16.93,14-18,33.85-3.24,52.58-16.21,52.58-38.89v-0.72c0-20.17-15.49-34.21-41.42-34.21-19.09,0-34.57,6.84-49,19.81a21.7,21.7,0,0,1-13.32,5,19.95,19.95,0,0,1-13-35.29c19.09-18,43.22-29.89,76.35-29.89,50.42,0,84.63,28.09,84.63,73.11v0.72c0,45.38-32.77,65.9-72.75,72.75L180.15,206c-1.44,7.92-7.2,14.4-15.49,14.4h-2.16Zm0,26.29c14.77,0,25.57,10.8,25.57,24.85v3.6c0,14-10.8,24.85-25.57,24.85s-25.57-10.8-25.57-24.85v-3.6C136.94,257.45,147.74,246.65,162.51,246.65Z" transform="translate(0)"/></svg>