<svg xmlns="http://www.w3.org/2000/svg" width="120mm" height="120mm" viewBox="0 0 340.16 340.16"><defs><style>.a{fill:#fff;}.b{fill:#0286a8;}.c{fill:#81c3d4;}.d{fill:#00577e;}</style></defs><title>vrijwillig_pensioen</title><rect class="a" x="7.09" y="7.09" width="325.98" height="325.98" rx="35.43" ry="35.43"/><path class="b" d="M297.64,14.17A28.38,28.38,0,0,1,326,42.52V297.64A28.38,28.38,0,0,1,297.64,326H42.52a28.38,28.38,0,0,1-28.35-28.35V42.52A28.38,28.38,0,0,1,42.52,14.17H297.64m0-14.17H42.52A42.64,42.64,0,0,0,0,42.52V297.64a42.64,42.64,0,0,0,42.52,42.52H297.64a42.64,42.64,0,0,0,42.52-42.52V42.52A42.64,42.64,0,0,0,297.64,0h0Z" transform="translate(0)"/><path class="b" d="M40.67,298l-10.9-26.07a4.59,4.59,0,0,1-.43-1.78,3.63,3.63,0,0,1,3.7-3.65,3.84,3.84,0,0,1,3.75,2.59l8.4,21.75,8.5-22a3.83,3.83,0,0,1,3.55-2.35A3.57,3.57,0,0,1,60.88,270a4.31,4.31,0,0,1-.38,1.63L49.5,298a4.34,4.34,0,0,1-4.18,2.93H44.84A4.34,4.34,0,0,1,40.67,298Z" transform="translate(0)"/><path class="b" d="M65.58,270.48a3.67,3.67,0,0,1,3.7-3.7H80.94c4.27,0,7.58,1.2,9.79,3.41a10.55,10.55,0,0,1,2.88,7.68V278c0,5.28-2.64,8.55-6.72,10.22L92,294.43a4.31,4.31,0,0,1,1.2,2.83,3.44,3.44,0,0,1-3.5,3.41,4.43,4.43,0,0,1-3.65-1.92l-7.2-9.12H73V297a3.7,3.7,0,1,1-7.39,0v-26.5ZM80.46,283.1c3.6,0,5.66-1.92,5.66-4.75v-0.1c0-3.17-2.21-4.8-5.81-4.8H73v9.65h7.49Z" transform="translate(0)"/><path class="b" d="M99.66,270.19a3.7,3.7,0,1,1,7.39,0V297a3.7,3.7,0,1,1-7.39,0V270.19Z" transform="translate(0)"/><path class="b" d="M113.24,297.93a3.69,3.69,0,0,1-1.39-2.83,3.5,3.5,0,0,1,3.5-3.55,3.35,3.35,0,0,1,2.21.77A7.09,7.09,0,0,0,122,294c2.88,0,4.61-1.68,4.61-5.57V270.19a3.7,3.7,0,1,1,7.39,0v18.58c0,4-1.15,7-3.17,9s-5.09,3.12-8.74,3.12A14.22,14.22,0,0,1,113.24,297.93Z" transform="translate(0)"/><path class="b" d="M138.49,271.48a4.82,4.82,0,0,1-.29-1.39,3.67,3.67,0,0,1,3.79-3.6,3.73,3.73,0,0,1,3.6,2.64l6.67,20.59,6.72-20.4a3.89,3.89,0,0,1,3.74-2.93h0.58a3.84,3.84,0,0,1,3.74,2.93l6.72,20.4,6.67-20.59a3.7,3.7,0,0,1,3.55-2.64,3.57,3.57,0,0,1,3.65,3.55,5.1,5.1,0,0,1-.29,1.44l-9.41,26.4a4.1,4.1,0,0,1-3.84,3h-0.77a4,4,0,0,1-3.79-3l-6.62-19.25-6.62,19.25a4,4,0,0,1-3.79,3h-0.77a4.1,4.1,0,0,1-3.84-3Z" transform="translate(0)"/><path class="b" d="M192.68,270.19a3.7,3.7,0,1,1,7.39,0V297a3.7,3.7,0,1,1-7.39,0V270.19Z" transform="translate(0)"/><path class="b" d="M207.51,270.19a3.7,3.7,0,1,1,7.39,0v23.47h13.68a3.36,3.36,0,0,1,0,6.72H211.21a3.67,3.67,0,0,1-3.7-3.7v-26.5Z" transform="translate(0)"/><path class="b" d="M236.26,270.19a3.7,3.7,0,1,1,7.39,0v23.47h13.68a3.36,3.36,0,1,1,0,6.72H240a3.67,3.67,0,0,1-3.7-3.7v-26.5Z" transform="translate(0)"/><path class="b" d="M265.35,270.19a3.7,3.7,0,1,1,7.39,0V297a3.7,3.7,0,1,1-7.39,0V270.19Z" transform="translate(0)"/><path class="b" d="M278.69,283.68v-0.1a17.25,17.25,0,0,1,17.62-17.38c5.09,0,8.45,1.15,11.47,3.26a3.7,3.7,0,0,1,1.54,3,3.65,3.65,0,0,1-3.65,3.65,3.59,3.59,0,0,1-2.26-.77,11.77,11.77,0,0,0-7.34-2.3c-5.38,0-9.65,4.75-9.65,10.46v0.1c0,6.14,4.22,10.66,10.18,10.66a11.79,11.79,0,0,0,7-2v-4.8h-5a3.18,3.18,0,0,1-3.22-3.17,3.22,3.22,0,0,1,3.22-3.22H307a3.67,3.67,0,0,1,3.7,3.7v8.16a5,5,0,0,1-2.59,4.7A22.36,22.36,0,0,1,296.36,301C285.89,301,278.69,293.61,278.69,283.68Z" transform="translate(0)"/><ellipse class="c" cx="170.08" cy="115.83" rx="86.74" ry="45.78"/><path class="d" d="M235.52,134c0-4.53,5.55-7.81,5.55-15.79,0-20-32.36-36.14-72.28-36.14S96.51,98.21,96.51,118.17c0,8.68,3.85,11.49,3.85,15.79,0,10-27.94,22.44-27.94,44.45,0,33.27,43.15,60.24,96.38,60.24s96.38-27,96.38-60.24C265.17,155.92,235.52,143.26,235.52,134Z" transform="translate(0)"/><circle class="c" cx="156.74" cy="57.67" r="12.05"/><circle class="c" cx="180.84" cy="57.67" r="12.05"/></svg>