<svg xmlns="http://www.w3.org/2000/svg" width="120mm" height="120mm" viewBox="0 0 340.16 340.16"><defs><style>.a{fill:#fff;}.b{fill:#0286a8;}.c{fill:#81c3d4;}.d{fill:#00577e;}</style></defs><title>waardeoverdracht</title><rect class="a" x="7.09" y="7.09" width="325.98" height="325.98" rx="35.43" ry="35.43"/><path class="b" d="M297.64,14.17A28.38,28.38,0,0,1,326,42.52V297.64A28.38,28.38,0,0,1,297.64,326H42.52a28.38,28.38,0,0,1-28.35-28.35V42.52A28.38,28.38,0,0,1,42.52,14.17H297.64m0-14.17H42.52A42.64,42.64,0,0,0,0,42.52V297.64a42.64,42.64,0,0,0,42.52,42.52H297.64a42.64,42.64,0,0,0,42.52-42.52V42.52A42.64,42.64,0,0,0,297.64,0h0Z" transform="translate(0)"/><path class="c" d="M302.36,206.31c0,17.1-26.27,31-58.68,31S185,223.42,185,206.31s26.27-31,58.68-31S302.36,189.21,302.36,206.31Zm-66.78-47.49a8.15,8.15,0,1,0,8.15,8.15A8.15,8.15,0,0,0,235.58,158.82Zm16.3,0A8.15,8.15,0,1,0,260,167,8.15,8.15,0,0,0,251.88,158.82Z" transform="translate(0)"/><path class="d" d="M288.87,218.57c0-3.06,3.75-5.28,3.75-10.68,0-13.5-21.89-24.45-48.9-24.45s-48.9,10.95-48.9,24.45c0,5.87,2.6,7.77,2.6,10.68,0,6.77-18.9,15.18-18.9,30.07,0,22.5,29.19,40.75,65.2,40.75s65.2-18.24,65.2-40.75C308.92,233.43,288.87,224.87,288.87,218.57Z" transform="translate(0)"/><path class="c" d="M155.06,206.28c0,17.11-26.27,31-58.68,31s-58.67-13.86-58.67-31,26.27-31,58.67-31S155.06,189.18,155.06,206.28ZM88.28,158.79a8.15,8.15,0,1,0,8.15,8.15A8.15,8.15,0,0,0,88.28,158.79Zm16.3,0a8.15,8.15,0,1,0,8.15,8.15A8.15,8.15,0,0,0,104.58,158.79Z" transform="translate(0)"/><path class="d" d="M141.57,218.54c0-3.07,3.75-5.29,3.75-10.68,0-13.5-21.89-24.45-48.9-24.45s-48.89,10.95-48.89,24.45c0,5.87,2.6,7.77,2.6,10.68,0,6.77-18.9,15.18-18.9,30.07,0,22.5,29.19,40.75,65.2,40.75s65.2-18.24,65.2-40.75C161.62,233.4,141.57,224.84,141.57,218.54Z" transform="translate(0)"/><path class="b" d="M79.06,116.48a12.24,12.24,0,0,1-7.88-21.62c1.37-1.15,34.28-28.18,88-31.17,46.65-2.6,86.45,20.87,88.12,21.87a12.25,12.25,0,0,1-12.58,21c-0.33-.19-35.19-20.6-74.18-18.43-45.21,2.51-73.38,25.3-73.66,25.53A12.24,12.24,0,0,1,79.06,116.48Z" transform="translate(0)"/><polygon class="b" points="252.14 68.57 269.49 123.39 212.62 114.96 252.14 68.57"/></svg>