<svg xmlns="http://www.w3.org/2000/svg" width="120mm" height="120mm" viewBox="0 0 340.16 340.16"><defs><style>.a{fill:#fff;}.b{fill:#0286a8;}</style></defs><title>waardevast</title><rect class="a" x="7.09" y="7.09" width="325.98" height="325.98" rx="35.43" ry="35.43"/><path class="b" d="M297.64,14.17A28.38,28.38,0,0,1,326,42.52V297.64A28.38,28.38,0,0,1,297.64,326H42.52a28.38,28.38,0,0,1-28.35-28.35V42.52A28.38,28.38,0,0,1,42.52,14.17H297.64m0-14.17H42.52A42.64,42.64,0,0,0,0,42.52V297.64a42.64,42.64,0,0,0,42.52,42.52H297.64a42.64,42.64,0,0,0,42.52-42.52V42.52A42.64,42.64,0,0,0,297.64,0h0Z" transform="translate(0 0)"/><path class="b" d="M237.82,164.24H122a7,7,0,0,1-6.57-4.59L83.88,73.38A7,7,0,0,1,90.45,64H267.7a7,7,0,0,1,6.61,9.29l-29.88,86.27A7,7,0,0,1,237.82,164.24Zm-110.9-14H232.83l25-72.27H100.47Z" transform="translate(0 0)"/><path class="b" d="M111.72,217a23,23,0,0,1-22.93-22.93c0-11,10-22,25.18-38.61l2.77-3a7,7,0,1,1,10.37,9.41l-2.78,3.06c-11.07,12.17-21.53,23.66-21.53,29.19a8.94,8.94,0,0,0,8.93,8.93A7,7,0,0,1,111.72,217Z" transform="translate(0 0)"/><path class="b" d="M255.38,104.36H100.21a4,4,0,0,1,0-8H255.38A4,4,0,0,1,255.38,104.36Z" transform="translate(0 0)"/><path class="b" d="M243.07,131.42H110a4,4,0,0,1,0-8H243.07A4,4,0,0,1,243.07,131.42Z" transform="translate(0 0)"/><path class="b" d="M246.87,217H111.72a7,7,0,0,1,0-14H246.87A7,7,0,0,1,246.87,217Z" transform="translate(0 0)"/><path class="b" d="M116.49,245.21a14.95,14.95,0,1,1,14.94-14.95A15,15,0,0,1,116.49,245.21Zm0-21.89a6.95,6.95,0,1,0,6.94,6.95A7,7,0,0,0,116.49,223.32Z" transform="translate(0 0)"/><path class="b" d="M227.83,245.21a14.95,14.95,0,1,1,14.95-14.95A15,15,0,0,1,227.83,245.21Zm0-21.89a6.95,6.95,0,1,0,6.95,6.95A7,7,0,0,0,227.83,223.32Z" transform="translate(0 0)"/><path class="b" d="M83.84,73.38L79.36,61.1a6.22,6.22,0,0,0-.74-1.62A22.67,22.67,0,0,0,73.43,58L46.1,52.19A7,7,0,1,1,49,38.5l27.33,5.85c8,1.7,13,3.36,16.15,12L97,68.58Z" transform="translate(0 0)"/><path class="b" d="M228.33,155.26a4,4,0,0,1-4-4V71a4,4,0,1,1,8,0v80.28A4,4,0,0,1,228.33,155.26Z" transform="translate(0 0)"/><path class="b" d="M204,156.74a4,4,0,0,1-4-4V71a4,4,0,1,1,8,0v81.76A4,4,0,0,1,204,156.74Z" transform="translate(0 0)"/><path class="b" d="M179.58,158.21a4,4,0,0,1-4-4V71a4,4,0,1,1,8,0v83.23A4,4,0,0,1,179.58,158.21Z" transform="translate(0 0)"/><path class="b" d="M155.18,159.69a4,4,0,0,1-4-4V71a4,4,0,1,1,8,0v84.71A4,4,0,0,1,155.18,159.69Z" transform="translate(0 0)"/><path class="b" d="M130.84,161.44a4,4,0,0,1-4-4V71.25a4,4,0,1,1,8,0v86.19A4,4,0,0,1,130.84,161.44Z" transform="translate(0 0)"/><path class="b" d="M90,270.08a4.43,4.43,0,0,1,4.47-4.47h12.12c9.69,0,15.54,5.74,15.54,14v0.12c0,9.4-7.31,14.27-16.41,14.27H98.88v8.06a4.47,4.47,0,0,1-8.93,0v-32Zm16,16c4.47,0,7.08-2.67,7.08-6.15v-0.12c0-4-2.78-6.15-7.25-6.15h-6.9v12.41H106Z" transform="translate(0 0)"/><path class="b" d="M128.7,270.08a4.43,4.43,0,0,1,4.47-4.47h14.09c5.16,0,9.16,1.45,11.83,4.12a12.75,12.75,0,0,1,3.48,9.28v0.12c0,6.38-3.19,10.32-8.12,12.35l6.21,7.54a5.2,5.2,0,0,1,1.45,3.42,4.15,4.15,0,0,1-4.23,4.12,5.34,5.34,0,0,1-4.41-2.32l-8.7-11h-7.13v8.87a4.47,4.47,0,0,1-8.93,0v-32Zm18,15.25c4.35,0,6.84-2.32,6.84-5.74v-0.12c0-3.83-2.67-5.8-7-5.8h-8.87v11.66h9Z" transform="translate(0 0)"/><path class="b" d="M171,269.73a4.47,4.47,0,0,1,8.93,0v32.36a4.47,4.47,0,0,1-8.93,0V269.73Z" transform="translate(0 0)"/><path class="b" d="M188.61,303.25a4.46,4.46,0,0,1-1.68-3.42,4.23,4.23,0,0,1,4.23-4.29,4,4,0,0,1,2.67.93,8.56,8.56,0,0,0,5.39,2c3.48,0,5.57-2,5.57-6.73v-22a4.47,4.47,0,1,1,8.93,0v22.45c0,4.81-1.39,8.41-3.83,10.85s-6.15,3.77-10.56,3.77A17.18,17.18,0,0,1,188.61,303.25Z" transform="translate(0 0)"/><path class="b" d="M222,301.92a4.17,4.17,0,0,1-1.68-3.36,4.11,4.11,0,0,1,4.18-4.12,4.29,4.29,0,0,1,2.55.81,17.13,17.13,0,0,0,10.38,3.65c3.65,0,5.86-1.45,5.86-3.83V295c0-2.26-1.39-3.42-8.18-5.16-8.18-2.09-13.46-4.35-13.46-12.41v-0.12c0-7.37,5.92-12.24,14.21-12.24a23.56,23.56,0,0,1,12.87,3.6,4.13,4.13,0,0,1-2.2,7.66,4.28,4.28,0,0,1-2.26-.64,16.89,16.89,0,0,0-8.53-2.73c-3.42,0-5.22,1.57-5.22,3.54v0.12c0,2.67,1.74,3.54,8.76,5.34,8.24,2.15,12.87,5.1,12.87,12.18v0.12c0,8.06-6.15,12.59-14.91,12.59A26.21,26.21,0,0,1,222,301.92Z" transform="translate(0 0)"/></svg>