<svg xmlns="http://www.w3.org/2000/svg" width="120mm" height="120mm" viewBox="0 0 340.16 340.16"><defs><style>.a{fill:#fff;}.b{fill:#0286a8;}</style></defs><title>welvaartsvast</title><rect class="a" x="7.09" y="7.09" width="325.98" height="325.98" rx="35.43" ry="35.43"/><path class="b" d="M297.64,14.17A28.38,28.38,0,0,1,326,42.52V297.64A28.38,28.38,0,0,1,297.64,326H42.52a28.38,28.38,0,0,1-28.35-28.35V42.52A28.38,28.38,0,0,1,42.52,14.17H297.64m0-14.17H42.52A42.64,42.64,0,0,0,0,42.52V297.64a42.64,42.64,0,0,0,42.52,42.52H297.64a42.64,42.64,0,0,0,42.52-42.52V42.52A42.64,42.64,0,0,0,297.64,0h0Z" transform="translate(0 0)"/><path class="b" d="M86,269.73a4.47,4.47,0,1,1,8.93,0v28.36h16.53a4.06,4.06,0,0,1,0,8.12h-21A4.43,4.43,0,0,1,86,301.74v-32Z" transform="translate(0 0)"/><path class="b" d="M117.73,286v-0.12c0-11.54,9.11-21,21.63-21s21.52,9.34,21.52,20.88v0.12c0,11.54-9.11,21-21.63,21S117.73,297.57,117.73,286Zm33.81,0v-0.12c0-7-5.1-12.76-12.3-12.76s-12.18,5.68-12.18,12.64v0.12c0,7,5.1,12.76,12.3,12.76S151.55,293,151.55,286Z" transform="translate(0 0)"/><path class="b" d="M167,286v-0.12c0-11.54,9.11-21,21.63-21s21.52,9.34,21.52,20.88v0.12c0,11.54-9.11,21-21.63,21S167,297.57,167,286Zm33.81,0v-0.12c0-7-5.1-12.76-12.3-12.76s-12.18,5.68-12.18,12.64v0.12c0,7,5.1,12.76,12.3,12.76S200.85,293,200.85,286Z" transform="translate(0 0)"/><path class="b" d="M218.13,269.84a4.43,4.43,0,0,1,4.47-4.47h0.93c2.15,0,3.42,1,4.64,2.61l17.23,22.62V269.67a4.41,4.41,0,1,1,8.82,0V302a4.43,4.43,0,0,1-4.47,4.47h-0.29c-2.15,0-3.42-1-4.64-2.61L226.95,280.4v21.75a4.41,4.41,0,0,1-8.82,0V269.84Z" transform="translate(0 0)"/><path class="b" d="M237.82,164.24H122a7,7,0,0,1-6.57-4.59L83.88,73.38A7,7,0,0,1,90.45,64H267.7a7,7,0,0,1,6.61,9.29l-29.88,86.27A7,7,0,0,1,237.82,164.24Zm-110.9-14H232.83l25-72.27H100.47Z" transform="translate(0 0)"/><path class="b" d="M111.72,217a23,23,0,0,1-22.93-22.93c0-11,10-22,25.18-38.61l2.77-3a7,7,0,1,1,10.37,9.41l-2.78,3.06c-11.07,12.17-21.53,23.66-21.53,29.19a8.94,8.94,0,0,0,8.93,8.93A7,7,0,0,1,111.72,217Z" transform="translate(0 0)"/><path class="b" d="M255.38,104.36H100.21a4,4,0,0,1,0-8H255.38A4,4,0,0,1,255.38,104.36Z" transform="translate(0 0)"/><path class="b" d="M243.07,131.42H110a4,4,0,0,1,0-8H243.07A4,4,0,0,1,243.07,131.42Z" transform="translate(0 0)"/><path class="b" d="M246.87,217H111.72a7,7,0,0,1,0-14H246.87A7,7,0,0,1,246.87,217Z" transform="translate(0 0)"/><path class="b" d="M116.49,245.21a14.95,14.95,0,1,1,14.94-14.95A15,15,0,0,1,116.49,245.21Zm0-21.89a6.95,6.95,0,1,0,6.94,6.95A7,7,0,0,0,116.49,223.32Z" transform="translate(0 0)"/><path class="b" d="M227.83,245.21a14.95,14.95,0,1,1,14.95-14.95A15,15,0,0,1,227.83,245.21Zm0-21.89a6.95,6.95,0,1,0,6.95,6.95A7,7,0,0,0,227.83,223.32Z" transform="translate(0 0)"/><path class="b" d="M83.84,73.38L79.36,61.1a6.22,6.22,0,0,0-.74-1.62A22.67,22.67,0,0,0,73.43,58L46.1,52.19A7,7,0,1,1,49,38.5l27.33,5.85c8,1.7,13,3.36,16.15,12L97,68.58Z" transform="translate(0 0)"/><path class="b" d="M228.33,155.26a4,4,0,0,1-4-4V71a4,4,0,1,1,8,0v80.28A4,4,0,0,1,228.33,155.26Z" transform="translate(0 0)"/><path class="b" d="M204,156.74a4,4,0,0,1-4-4V71a4,4,0,1,1,8,0v81.76A4,4,0,0,1,204,156.74Z" transform="translate(0 0)"/><path class="b" d="M179.58,158.21a4,4,0,0,1-4-4V71a4,4,0,1,1,8,0v83.23A4,4,0,0,1,179.58,158.21Z" transform="translate(0 0)"/><path class="b" d="M155.18,159.69a4,4,0,0,1-4-4V71a4,4,0,1,1,8,0v84.71A4,4,0,0,1,155.18,159.69Z" transform="translate(0 0)"/><path class="b" d="M130.84,161.44a4,4,0,0,1-4-4V71.25a4,4,0,1,1,8,0v86.19A4,4,0,0,1,130.84,161.44Z" transform="translate(0 0)"/></svg>