<svg xmlns="http://www.w3.org/2000/svg" width="120mm" height="120mm" viewBox="0 0 340.16 340.16"><defs><style>.a{fill:#fff;}.b{fill:#0286a8;}.c{fill:none;stroke:#258981;stroke-miterlimit:10;stroke-width:12px;}</style></defs><title>werkloos</title><rect class="a" x="7.09" y="7.09" width="325.98" height="325.98" rx="35.43" ry="35.43"/><path class="b" d="M297.64,14.17A28.38,28.38,0,0,1,326,42.52V297.64A28.38,28.38,0,0,1,297.64,326H42.52a28.38,28.38,0,0,1-28.35-28.35V42.52A28.38,28.38,0,0,1,42.52,14.17H297.64m0-14.17H42.52A42.64,42.64,0,0,0,0,42.52V297.64a42.64,42.64,0,0,0,42.52,42.52H297.64a42.64,42.64,0,0,0,42.52-42.52V42.52A42.64,42.64,0,0,0,297.64,0h0Z" transform="translate(0 0)"/><path class="c" d="M307.91,108.94" transform="translate(0 0)"/><path class="c" d="M27.91,108.94" transform="translate(0 0)"/><path class="b" d="M25.22,271.69a4.81,4.81,0,0,1-.29-1.39,3.67,3.67,0,0,1,3.79-3.6,3.73,3.73,0,0,1,3.6,2.64L39,289.93l6.72-20.4a3.89,3.89,0,0,1,3.74-2.93H50a3.84,3.84,0,0,1,3.74,2.93l6.72,20.4,6.67-20.59a3.7,3.7,0,0,1,3.55-2.64,3.57,3.57,0,0,1,3.65,3.55,5.11,5.11,0,0,1-.29,1.44l-9.41,26.4a4.1,4.1,0,0,1-3.84,3H60.07a4,4,0,0,1-3.79-3l-6.62-19.25L43,298.09a4,4,0,0,1-3.79,3H38.47a4.1,4.1,0,0,1-3.84-3Z" transform="translate(0 0)"/><path class="b" d="M80,296.89V270.68a3.67,3.67,0,0,1,3.7-3.7h18.63a3.32,3.32,0,0,1,3.31,3.31,3.28,3.28,0,0,1-3.31,3.26h-15v6.82H100.2a3.32,3.32,0,0,1,3.31,3.31A3.28,3.28,0,0,1,100.2,287H87.38V294H102.6a3.32,3.32,0,0,1,3.31,3.31,3.28,3.28,0,0,1-3.31,3.26H83.73A3.67,3.67,0,0,1,80,296.89Z" transform="translate(0 0)"/><path class="b" d="M112.19,270.68a3.67,3.67,0,0,1,3.7-3.7h11.67c4.27,0,7.58,1.2,9.79,3.41a10.55,10.55,0,0,1,2.88,7.68v0.1c0,5.28-2.64,8.54-6.72,10.22l5.14,6.24a4.31,4.31,0,0,1,1.2,2.83,3.44,3.44,0,0,1-3.5,3.41,4.42,4.42,0,0,1-3.65-1.92l-7.2-9.12h-5.9v7.34a3.7,3.7,0,0,1-7.39,0v-26.5Zm14.88,12.63c3.6,0,5.66-1.92,5.66-4.75v-0.1c0-3.17-2.21-4.8-5.81-4.8h-7.34v9.65h7.49Z" transform="translate(0 0)"/><path class="b" d="M146.9,270.39a3.7,3.7,0,1,1,7.39,0v11.28l13.63-13.54a4.17,4.17,0,0,1,3.12-1.44,3.33,3.33,0,0,1,3.41,3.41,3.7,3.7,0,0,1-1.34,2.78l-9.46,8.83,10.32,13a3.94,3.94,0,0,1,1,2.59,3.57,3.57,0,0,1-3.74,3.6,3.73,3.73,0,0,1-3.12-1.78l-9.6-12.58-4.22,3.94v6.72a3.7,3.7,0,0,1-7.39,0V270.39Z" transform="translate(0 0)"/><path class="b" d="M181.07,270.39a3.7,3.7,0,1,1,7.39,0v23.47h13.68a3.36,3.36,0,1,1,0,6.72H184.77a3.67,3.67,0,0,1-3.7-3.7v-26.5Z" transform="translate(0 0)"/><path class="b" d="M207.38,283.88v-0.1c0-9.55,7.54-17.38,17.91-17.38s17.81,7.73,17.81,17.28v0.1c0,9.55-7.54,17.38-17.91,17.38S207.38,293.43,207.38,283.88Zm28,0v-0.1c0-5.76-4.22-10.56-10.18-10.56s-10.08,4.7-10.08,10.46v0.1c0,5.76,4.22,10.56,10.18,10.56S235.36,289.64,235.36,283.88Z" transform="translate(0 0)"/><path class="b" d="M248.18,283.88v-0.1c0-9.55,7.54-17.38,17.91-17.38s17.81,7.73,17.81,17.28v0.1c0,9.55-7.54,17.38-17.91,17.38S248.18,293.43,248.18,283.88Zm28,0v-0.1c0-5.76-4.22-10.56-10.18-10.56s-10.08,4.7-10.08,10.46v0.1c0,5.76,4.22,10.56,10.18,10.56S276.16,289.64,276.16,283.88Z" transform="translate(0 0)"/><path class="b" d="M289.55,297a3.45,3.45,0,0,1-1.39-2.78,3.4,3.4,0,0,1,3.46-3.41,3.56,3.56,0,0,1,2.11.67,14.16,14.16,0,0,0,8.59,3c3,0,4.85-1.2,4.85-3.17v-0.1c0-1.87-1.15-2.83-6.77-4.27-6.77-1.73-11.14-3.6-11.14-10.27v-0.1c0-6.1,4.9-10.13,11.76-10.13a19.51,19.51,0,0,1,10.66,3,3.37,3.37,0,0,1,1.63,2.93,3.4,3.4,0,0,1-3.46,3.41,3.55,3.55,0,0,1-1.87-.53,14,14,0,0,0-7.06-2.26c-2.83,0-4.32,1.3-4.32,2.93v0.1c0,2.21,1.44,2.93,7.25,4.42,6.82,1.78,10.66,4.22,10.66,10.08v0.1c0,6.67-5.09,10.42-12.34,10.42A21.69,21.69,0,0,1,289.55,297Z" transform="translate(0 0)"/><path class="b" d="M170.09,107.53a36.75,36.75,0,1,0-36.76-36.76A36.76,36.76,0,0,0,170.09,107.53Z" transform="translate(0 0)"/><path class="b" d="M221.52,111.25H208.67v0H131.49v0H118.64a18.38,18.38,0,0,0-18.38,18.38V241h26.18V146.65a3,3,0,1,1,6,0V241h74.93V146.65a3,3,0,1,1,6,0V241H239.9V129.63A18.38,18.38,0,0,0,221.52,111.25Z" transform="translate(0 0)"/></svg>