<svg xmlns="http://www.w3.org/2000/svg" xmlns:xlink="http://www.w3.org/1999/xlink" width="120mm" height="169.95mm" viewBox="0 0 340.16 481.75"><defs><style>.a,.d{fill:none;}.b{fill:#fff;}.c{fill:#0286a8;}.d{stroke:#00577e;stroke-width:8px;}.d,.g{stroke-linecap:round;stroke-miterlimit:10;}.e{fill:#00577e;}.f{clip-path:url(#a);}.g{fill:#258981;stroke:#fff;stroke-width:6px;}</style><clipPath id="a" transform="translate(0 0)"><path class="a" d="M32.62,311.81V215.72a15.86,15.86,0,0,1,15.86-15.86h11.1v0h66.6v0h11.1a15.86,15.86,0,0,1,15.86,15.86v96.08H129.34V231.58h0s0,0,0,0a1.58,1.58,0,1,0-3.17,0s0,0,0,0h0v80.22H59.57V231.58h0s0,0,0,0a1.59,1.59,0,1,0-3.17,0,0.23,0.23,0,0,0,0,0h0v80.22H32.62ZM92.88,196.66a31.72,31.72,0,1,0-31.73-31.72A31.72,31.72,0,0,0,92.88,196.66Z"/></clipPath></defs><title>wezenpensioen_op_risicobasis</title><rect class="b" x="7.09" y="7.09" width="325.98" height="325.98" rx="35.43" ry="35.43"/><path class="c" d="M297.64,14.18A28.38,28.38,0,0,1,326,42.52V297.64A28.38,28.38,0,0,1,297.64,326H42.52a28.38,28.38,0,0,1-28.35-28.35V42.52A28.38,28.38,0,0,1,42.52,14.18H297.64m0-14.17H42.52A42.64,42.64,0,0,0,0,42.52V297.64a42.64,42.64,0,0,0,42.52,42.52H297.64a42.64,42.64,0,0,0,42.52-42.52V42.52A42.64,42.64,0,0,0,297.64,0h0Z" transform="translate(0 0)"/><path class="d" d="M171.06,38V145.49s-0.59,12.67,10.9,13.23c13.67,0.67,12.25-14.56,12.25-14.56" transform="translate(0 0)"/><path class="e" d="M168.08,100.51a41.44,41.44,0,0,0-22,8.23c-6.55-9-16.3-14.64-27.19-14.64a31.09,31.09,0,0,0-10.17,1.72,62.53,62.53,0,0,1,59.39-57.87V37.87a3,3,0,1,1,5.95,0v0.07a62.54,62.54,0,0,1,59.39,57.87,31.16,31.16,0,0,0-10.17-1.72c-10.89,0-20.63,5.68-27.18,14.64a41.48,41.48,0,0,0-22-8.23" transform="translate(0 0)"/><path class="c" d="M264.77,237.43a24.84,24.84,0,1,0-24.85-24.85A24.84,24.84,0,0,0,264.77,237.43Z" transform="translate(0 0)"/><path class="c" d="M299.53,239.94h-8.69v0H238.68v0H230a12.42,12.42,0,0,0-12.42,12.42v59.28h17.52V263.51a2.35,2.35,0,1,1,4.7,0v48.13h49.81V263.51a2.35,2.35,0,1,1,4.7,0v48.13H312V252.36A12.42,12.42,0,0,0,299.53,239.94Z" transform="translate(0 0)"/><g class="f"><path class="c" d="M114.54,137.92a3,3,0,0,0-3-3h-0.23a3,3,0,0,0,0,5.9h0.23A3,3,0,0,0,114.54,137.92Z" transform="translate(0 0)"/><path class="c" d="M105.24,137.92a3,3,0,0,0-2.95-3h-0.23a3,3,0,1,0,0,5.9h0.23A3,3,0,0,0,105.24,137.92Z" transform="translate(0 0)"/><path class="c" d="M95.93,137.92a3,3,0,0,0-3-3H92.75a3,3,0,1,0,0,5.9H93A3,3,0,0,0,95.93,137.92Z" transform="translate(0 0)"/><path class="c" d="M86.62,137.92a3,3,0,0,0-2.95-3H83.44a3,3,0,0,0,0,5.9h0.23A3,3,0,0,0,86.62,137.92Z" transform="translate(0 0)"/><path class="c" d="M77.31,137.92a3,3,0,0,0-3-3H74.13a3,3,0,1,0,0,5.9h0.23A3,3,0,0,0,77.31,137.92Z" transform="translate(0 0)"/><path class="c" d="M123.85,146.9a3,3,0,0,0-3-3h-0.23a3,3,0,0,0,0,5.9h0.23A3,3,0,0,0,123.85,146.9Z" transform="translate(0 0)"/><path class="c" d="M114.54,146.9a3,3,0,0,0-3-3h-0.23a3,3,0,0,0,0,5.9h0.23A3,3,0,0,0,114.54,146.9Z" transform="translate(0 0)"/><path class="c" d="M105.24,146.9a3,3,0,0,0-3-3h-0.23a3,3,0,1,0,0,5.9h0.23A3,3,0,0,0,105.24,146.9Z" transform="translate(0 0)"/><path class="c" d="M95.93,146.9a3,3,0,0,0-3-3H92.75a3,3,0,0,0,0,5.9H93A3,3,0,0,0,95.93,146.9Z" transform="translate(0 0)"/><path class="c" d="M86.62,146.9a3,3,0,0,0-3-3H83.44a3,3,0,0,0,0,5.9h0.23A3,3,0,0,0,86.62,146.9Z" transform="translate(0 0)"/><path class="c" d="M77.31,146.9a3,3,0,0,0-3-3H74.13a3,3,0,1,0,0,5.9h0.23A3,3,0,0,0,77.31,146.9Z" transform="translate(0 0)"/><path class="c" d="M68,146.9a3,3,0,0,0-3-3H64.82a3,3,0,1,0,0,5.9h0.23A3,3,0,0,0,68,146.9Z" transform="translate(0 0)"/><path class="c" d="M123.85,155.87a3,3,0,0,0-3-3h-0.23a3,3,0,0,0,0,5.9h0.23A3,3,0,0,0,123.85,155.87Z" transform="translate(0 0)"/><path class="c" d="M114.54,155.87a3,3,0,0,0-3-3h-0.23a3,3,0,0,0,0,5.9h0.23A3,3,0,0,0,114.54,155.87Z" transform="translate(0 0)"/><path class="c" d="M105.24,155.87a3,3,0,0,0-3-3h-0.23a3,3,0,1,0,0,5.9h0.23A3,3,0,0,0,105.24,155.87Z" transform="translate(0 0)"/><path class="c" d="M95.93,155.87a3,3,0,0,0-3-3H92.75a3,3,0,0,0,0,5.9H93A3,3,0,0,0,95.93,155.87Z" transform="translate(0 0)"/><path class="c" d="M86.62,155.87a3,3,0,0,0-3-3H83.44a3,3,0,0,0,0,5.9h0.23A3,3,0,0,0,86.62,155.87Z" transform="translate(0 0)"/><path class="c" d="M77.31,155.87a3,3,0,0,0-3-3H74.13a3,3,0,1,0,0,5.9h0.23A3,3,0,0,0,77.31,155.87Z" transform="translate(0 0)"/><path class="c" d="M68,155.87a3,3,0,0,0-3-3H64.82a3,3,0,0,0,0,5.9h0.23A3,3,0,0,0,68,155.87Z" transform="translate(0 0)"/><path class="c" d="M123.85,164.84a3,3,0,0,0-3-3h-0.23a3,3,0,0,0,0,5.9h0.23A3,3,0,0,0,123.85,164.84Z" transform="translate(0 0)"/><path class="c" d="M114.54,164.84a3,3,0,0,0-3-3h-0.23a3,3,0,0,0,0,5.9h0.23A3,3,0,0,0,114.54,164.84Z" transform="translate(0 0)"/><path class="c" d="M105.24,164.84a3,3,0,0,0-2.95-3h-0.23a3,3,0,1,0,0,5.9h0.23A3,3,0,0,0,105.24,164.84Z" transform="translate(0 0)"/><path class="c" d="M95.93,164.84a3,3,0,0,0-3-3H92.75a3,3,0,1,0,0,5.9H93A3,3,0,0,0,95.93,164.84Z" transform="translate(0 0)"/><path class="c" d="M86.62,164.84a3,3,0,0,0-2.95-3H83.44a3,3,0,0,0,0,5.9h0.23A3,3,0,0,0,86.62,164.84Z" transform="translate(0 0)"/><path class="c" d="M77.31,164.84a3,3,0,0,0-3-3H74.13a3,3,0,1,0,0,5.9h0.23A3,3,0,0,0,77.31,164.84Z" transform="translate(0 0)"/><path class="c" d="M68,164.84a3,3,0,0,0-3-3H64.82a3,3,0,1,0,0,5.9H65A3,3,0,0,0,68,164.84Z" transform="translate(0 0)"/><path class="c" d="M123.85,173.81a3,3,0,0,0-3-3h-0.23a3,3,0,0,0,0,5.9h0.23A3,3,0,0,0,123.85,173.81Z" transform="translate(0 0)"/><path class="c" d="M114.54,173.81a3,3,0,0,0-3-3h-0.23a3,3,0,0,0,0,5.9h0.23A3,3,0,0,0,114.54,173.81Z" transform="translate(0 0)"/><path class="c" d="M105.24,173.81a3,3,0,0,0-3-3h-0.23a3,3,0,1,0,0,5.9h0.23A3,3,0,0,0,105.24,173.81Z" transform="translate(0 0)"/><path class="c" d="M95.93,173.81a3,3,0,0,0-3-3H92.75a3,3,0,0,0,0,5.9H93A3,3,0,0,0,95.93,173.81Z" transform="translate(0 0)"/><path class="c" d="M86.62,173.81a3,3,0,0,0-3-3H83.44a3,3,0,0,0,0,5.9h0.23A3,3,0,0,0,86.62,173.81Z" transform="translate(0 0)"/><path class="c" d="M77.31,173.81a3,3,0,0,0-3-3H74.13a3,3,0,1,0,0,5.9h0.23A3,3,0,0,0,77.31,173.81Z" transform="translate(0 0)"/><path class="c" d="M68,173.81a3,3,0,0,0-3-3H64.82a3,3,0,0,0,0,5.9h0.23A3,3,0,0,0,68,173.81Z" transform="translate(0 0)"/><path class="c" d="M123.85,182.78a3,3,0,0,0-3-3h-0.23a3,3,0,1,0,0,5.9h0.23A3,3,0,0,0,123.85,182.78Z" transform="translate(0 0)"/><path class="c" d="M114.54,182.78a3,3,0,0,0-3-3h-0.23a3,3,0,0,0,0,5.9h0.23A3,3,0,0,0,114.54,182.78Z" transform="translate(0 0)"/><path class="c" d="M105.24,182.78a3,3,0,0,0-3-3h-0.23a3,3,0,1,0,0,5.9h0.23A3,3,0,0,0,105.24,182.78Z" transform="translate(0 0)"/><path class="c" d="M95.93,182.78a3,3,0,0,0-3-3H92.75a3,3,0,0,0,0,5.9H93A3,3,0,0,0,95.93,182.78Z" transform="translate(0 0)"/><path class="c" d="M86.62,182.78a3,3,0,0,0-3-3H83.44a3,3,0,0,0,0,5.9h0.23A3,3,0,0,0,86.62,182.78Z" transform="translate(0 0)"/><path class="c" d="M77.31,182.78a3,3,0,0,0-3-3H74.13a3,3,0,1,0,0,5.9h0.23A3,3,0,0,0,77.31,182.78Z" transform="translate(0 0)"/><path class="c" d="M68,182.78a3,3,0,0,0-3-3H64.82a3,3,0,1,0,0,5.9h0.23A3,3,0,0,0,68,182.78Z" transform="translate(0 0)"/><path class="c" d="M114.54,191.75a3,3,0,0,0-3-3h-0.23a3,3,0,0,0,0,5.9h0.23A3,3,0,0,0,114.54,191.75Z" transform="translate(0 0)"/><path class="c" d="M105.24,191.75a3,3,0,0,0-2.95-3h-0.23a3,3,0,1,0,0,5.9h0.23A3,3,0,0,0,105.24,191.75Z" transform="translate(0 0)"/><path class="c" d="M95.93,191.75a3,3,0,0,0-3-3H92.75a3,3,0,1,0,0,5.9H93A3,3,0,0,0,95.93,191.75Z" transform="translate(0 0)"/><path class="c" d="M86.62,191.75a3,3,0,0,0-2.95-3H83.44a3,3,0,0,0,0,5.9h0.23A3,3,0,0,0,86.62,191.75Z" transform="translate(0 0)"/><path class="c" d="M77.31,191.75a3,3,0,0,0-3-3H74.13a3,3,0,0,0,0,5.9h0.23A3,3,0,0,0,77.31,191.75Z" transform="translate(0 0)"/><path class="c" d="M142.47,200.72a3,3,0,0,0-3-3h-0.23a3,3,0,1,0,0,5.9h0.23A3,3,0,0,0,142.47,200.72Z" transform="translate(0 0)"/><path class="c" d="M133.16,200.72a3,3,0,0,0-3-3H130a3,3,0,1,0,0,5.9h0.23A3,3,0,0,0,133.16,200.72Z" transform="translate(0 0)"/><path class="c" d="M123.85,200.72a3,3,0,0,0-3-3h-0.23a3,3,0,1,0,0,5.9h0.23A3,3,0,0,0,123.85,200.72Z" transform="translate(0 0)"/><path class="c" d="M114.54,200.72a3,3,0,0,0-3-3h-0.23a3,3,0,0,0,0,5.9h0.23A3,3,0,0,0,114.54,200.72Z" transform="translate(0 0)"/><path class="c" d="M105.24,200.72a3,3,0,0,0-3-3h-0.23a3,3,0,1,0,0,5.9h0.23A3,3,0,0,0,105.24,200.72Z" transform="translate(0 0)"/><path class="c" d="M95.93,200.72a3,3,0,0,0-3-3H92.75a3,3,0,1,0,0,5.9H93A3,3,0,0,0,95.93,200.72Z" transform="translate(0 0)"/><path class="c" d="M86.62,200.72a3,3,0,0,0-3-3H83.44a3,3,0,1,0,0,5.9h0.23A3,3,0,0,0,86.62,200.72Z" transform="translate(0 0)"/><path class="c" d="M77.31,200.72a3,3,0,0,0-3-3H74.13a3,3,0,1,0,0,5.9h0.23A3,3,0,0,0,77.31,200.72Z" transform="translate(0 0)"/><path class="c" d="M68,200.72a3,3,0,0,0-3-3H64.82a3,3,0,1,0,0,5.9h0.23A3,3,0,0,0,68,200.72Z" transform="translate(0 0)"/><path class="c" d="M58.69,200.72a3,3,0,0,0-3-3H55.52a3,3,0,1,0,0,5.9h0.23A3,3,0,0,0,58.69,200.72Z" transform="translate(0 0)"/><path class="c" d="M49.39,200.72a3,3,0,0,0-3-3H46.21a3,3,0,1,0,0,5.9h0.23A3,3,0,0,0,49.39,200.72Z" transform="translate(0 0)"/><path class="c" d="M151.78,209.68a3,3,0,0,0-3-2.95H148.6a3,3,0,0,0,0,5.9h0.23A3,3,0,0,0,151.78,209.68Z" transform="translate(0 0)"/><path class="c" d="M142.47,209.68a3,3,0,0,0-3-2.95h-0.23a3,3,0,1,0,0,5.9h0.23A3,3,0,0,0,142.47,209.68Z" transform="translate(0 0)"/><path class="c" d="M133.16,209.68a3,3,0,0,0-3-2.95H130a3,3,0,1,0,0,5.9h0.23A3,3,0,0,0,133.16,209.68Z" transform="translate(0 0)"/><path class="c" d="M123.85,209.68a3,3,0,0,0-3-2.95h-0.23a3,3,0,1,0,0,5.9h0.23A3,3,0,0,0,123.85,209.68Z" transform="translate(0 0)"/><path class="c" d="M114.54,209.68a3,3,0,0,0-3-2.95h-0.23a3,3,0,0,0,0,5.9h0.23A3,3,0,0,0,114.54,209.68Z" transform="translate(0 0)"/><path class="c" d="M105.24,209.68a3,3,0,0,0-3-2.95h-0.23a3,3,0,1,0,0,5.9h0.23A3,3,0,0,0,105.24,209.68Z" transform="translate(0 0)"/><path class="c" d="M95.93,209.68a3,3,0,0,0-3-2.95H92.75a3,3,0,1,0,0,5.9H93A3,3,0,0,0,95.93,209.68Z" transform="translate(0 0)"/><path class="c" d="M86.62,209.68a3,3,0,0,0-3-2.95H83.44a3,3,0,1,0,0,5.9h0.23A3,3,0,0,0,86.62,209.68Z" transform="translate(0 0)"/><path class="c" d="M77.31,209.68a3,3,0,0,0-3-2.95H74.13a3,3,0,1,0,0,5.9h0.23A3,3,0,0,0,77.31,209.68Z" transform="translate(0 0)"/><path class="c" d="M68,209.68a3,3,0,0,0-3-2.95H64.82a3,3,0,1,0,0,5.9h0.23A3,3,0,0,0,68,209.68Z" transform="translate(0 0)"/><path class="c" d="M58.69,209.68a3,3,0,0,0-3-2.95H55.52a3,3,0,1,0,0,5.9h0.23A3,3,0,0,0,58.69,209.68Z" transform="translate(0 0)"/><path class="c" d="M49.39,209.68a3,3,0,0,0-3-2.95H46.21a3,3,0,1,0,0,5.9h0.23A3,3,0,0,0,49.39,209.68Z" transform="translate(0 0)"/><path class="c" d="M40.08,209.68a3,3,0,0,0-3-2.95H36.9a3,3,0,1,0,0,5.9h0.23A3,3,0,0,0,40.08,209.68Z" transform="translate(0 0)"/><path class="c" d="M151.78,218.66a3,3,0,0,0-3-3H148.6a3,3,0,0,0,0,5.9h0.23A3,3,0,0,0,151.78,218.66Z" transform="translate(0 0)"/><path class="c" d="M142.47,218.66a3,3,0,0,0-3-3h-0.23a3,3,0,0,0,0,5.9h0.23A3,3,0,0,0,142.47,218.66Z" transform="translate(0 0)"/><path class="c" d="M133.16,218.66a3,3,0,0,0-3-3H130a3,3,0,1,0,0,5.9h0.23A3,3,0,0,0,133.16,218.66Z" transform="translate(0 0)"/><path class="c" d="M123.86,218.66a3,3,0,0,0-3-3h-0.23a3,3,0,1,0,0,5.9h0.23A3,3,0,0,0,123.86,218.66Z" transform="translate(0 0)"/><path class="c" d="M114.54,218.66a3,3,0,0,0-3-3h-0.23a3,3,0,0,0,0,5.9h0.23A3,3,0,0,0,114.54,218.66Z" transform="translate(0 0)"/><path class="c" d="M105.24,218.66a3,3,0,0,0-3-3h-0.23a3,3,0,0,0,0,5.9h0.23A3,3,0,0,0,105.24,218.66Z" transform="translate(0 0)"/><path class="c" d="M95.93,218.66a3,3,0,0,0-3-3H92.75a3,3,0,1,0,0,5.9H93A3,3,0,0,0,95.93,218.66Z" transform="translate(0 0)"/><path class="c" d="M86.62,218.66a3,3,0,0,0-3-3H83.44a3,3,0,0,0,0,5.9h0.23A3,3,0,0,0,86.62,218.66Z" transform="translate(0 0)"/><path class="c" d="M77.31,218.66a3,3,0,0,0-3-3H74.13a3,3,0,0,0,0,5.9h0.23A3,3,0,0,0,77.31,218.66Z" transform="translate(0 0)"/><path class="c" d="M68,218.66a3,3,0,0,0-3-3H64.82a3,3,0,0,0,0,5.9h0.23A3,3,0,0,0,68,218.66Z" transform="translate(0 0)"/><path class="c" d="M58.7,218.66a3,3,0,0,0-3-3H55.52a3,3,0,1,0,0,5.9h0.23A3,3,0,0,0,58.7,218.66Z" transform="translate(0 0)"/><path class="c" d="M49.39,218.66a3,3,0,0,0-3-3H46.21a3,3,0,0,0,0,5.9h0.23A3,3,0,0,0,49.39,218.66Z" transform="translate(0 0)"/><path class="c" d="M40.08,218.66a3,3,0,0,0-3-3H36.9a3,3,0,0,0,0,5.9h0.23A3,3,0,0,0,40.08,218.66Z" transform="translate(0 0)"/><path class="c" d="M151.78,227.63a3,3,0,0,0-3-3H148.6a3,3,0,1,0,0,5.9h0.23A3,3,0,0,0,151.78,227.63Z" transform="translate(0 0)"/><path class="c" d="M142.47,227.63a3,3,0,0,0-3-3h-0.23a3,3,0,1,0,0,5.9h0.23A3,3,0,0,0,142.47,227.63Z" transform="translate(0 0)"/><path class="c" d="M133.16,227.63a3,3,0,0,0-3-3H130a3,3,0,1,0,0,5.9h0.23A3,3,0,0,0,133.16,227.63Z" transform="translate(0 0)"/><path class="c" d="M123.85,227.63a3,3,0,0,0-3-3h-0.23a3,3,0,1,0,0,5.9h0.23A3,3,0,0,0,123.85,227.63Z" transform="translate(0 0)"/><path class="c" d="M114.54,227.63a3,3,0,0,0-3-3h-0.23a3,3,0,0,0,0,5.9h0.23A3,3,0,0,0,114.54,227.63Z" transform="translate(0 0)"/><path class="c" d="M105.24,227.63a3,3,0,0,0-3-3h-0.23a3,3,0,1,0,0,5.9h0.23A3,3,0,0,0,105.24,227.63Z" transform="translate(0 0)"/><path class="c" d="M95.93,227.63a3,3,0,0,0-3-3H92.75a3,3,0,1,0,0,5.9H93A3,3,0,0,0,95.93,227.63Z" transform="translate(0 0)"/><path class="c" d="M86.62,227.63a3,3,0,0,0-3-3H83.44a3,3,0,1,0,0,5.9h0.23A3,3,0,0,0,86.62,227.63Z" transform="translate(0 0)"/><path class="c" d="M77.31,227.63a3,3,0,0,0-3-3H74.13a3,3,0,1,0,0,5.9h0.23A3,3,0,0,0,77.31,227.63Z" transform="translate(0 0)"/><path class="c" d="M68,227.63a3,3,0,0,0-3-3H64.82a3,3,0,1,0,0,5.9h0.23A3,3,0,0,0,68,227.63Z" transform="translate(0 0)"/><path class="c" d="M58.69,227.63a3,3,0,0,0-3-3H55.52a3,3,0,1,0,0,5.9h0.23A3,3,0,0,0,58.69,227.63Z" transform="translate(0 0)"/><path class="c" d="M49.39,227.63a3,3,0,0,0-3-3H46.21a3,3,0,1,0,0,5.9h0.23A3,3,0,0,0,49.39,227.63Z" transform="translate(0 0)"/><path class="c" d="M40.08,227.63a3,3,0,0,0-3-3H36.9a3,3,0,1,0,0,5.9h0.23A3,3,0,0,0,40.08,227.63Z" transform="translate(0 0)"/><path class="c" d="M151.78,236.6a3,3,0,0,0-3-2.95H148.6a3,3,0,1,0,0,5.9h0.22A3,3,0,0,0,151.78,236.6Z" transform="translate(0 0)"/><path class="c" d="M142.47,236.6a3,3,0,0,0-3-2.95h-0.23a3,3,0,0,0,0,5.9h0.23A3,3,0,0,0,142.47,236.6Z" transform="translate(0 0)"/><path class="c" d="M133.16,236.6a3,3,0,0,0-3-2.95H130a3,3,0,1,0,0,5.9h0.23A3,3,0,0,0,133.16,236.6Z" transform="translate(0 0)"/><path class="c" d="M123.85,236.6a3,3,0,0,0-3-2.95h-0.23a3,3,0,1,0,0,5.9h0.23A3,3,0,0,0,123.85,236.6Z" transform="translate(0 0)"/><path class="c" d="M114.54,236.6a3,3,0,0,0-3-2.95h-0.23a3,3,0,1,0,0,5.9h0.23A3,3,0,0,0,114.54,236.6Z" transform="translate(0 0)"/><path class="c" d="M105.24,236.6a3,3,0,0,0-2.95-2.95h-0.23a3,3,0,1,0,0,5.9h0.23A3,3,0,0,0,105.24,236.6Z" transform="translate(0 0)"/><path class="c" d="M95.93,236.6a3,3,0,0,0-3-2.95H92.75a3,3,0,1,0,0,5.9H93A3,3,0,0,0,95.93,236.6Z" transform="translate(0 0)"/><path class="c" d="M86.62,236.6a3,3,0,0,0-2.95-2.95H83.44a3,3,0,1,0,0,5.9h0.23A3,3,0,0,0,86.62,236.6Z" transform="translate(0 0)"/><path class="c" d="M77.31,236.6a3,3,0,0,0-3-2.95H74.13a3,3,0,1,0,0,5.9h0.23A3,3,0,0,0,77.31,236.6Z" transform="translate(0 0)"/><path class="c" d="M68,236.6a3,3,0,0,0-3-2.95H64.82a3,3,0,1,0,0,5.9H65A3,3,0,0,0,68,236.6Z" transform="translate(0 0)"/><path class="c" d="M58.69,236.6a3,3,0,0,0-3-2.95H55.52a3,3,0,1,0,0,5.9h0.23A3,3,0,0,0,58.69,236.6Z" transform="translate(0 0)"/><path class="c" d="M49.38,236.6a3,3,0,0,0-3-2.95H46.21a3,3,0,1,0,0,5.9h0.23A3,3,0,0,0,49.38,236.6Z" transform="translate(0 0)"/><path class="c" d="M40.08,236.6a3,3,0,0,0-3-2.95H36.9a3,3,0,1,0,0,5.9h0.23A3,3,0,0,0,40.08,236.6Z" transform="translate(0 0)"/><path class="c" d="M151.78,245.57a3,3,0,0,0-3-3H148.6a3,3,0,0,0,0,5.9h0.23A3,3,0,0,0,151.78,245.57Z" transform="translate(0 0)"/><path class="c" d="M142.47,245.57a3,3,0,0,0-3-3h-0.23a3,3,0,0,0,0,5.9h0.23A3,3,0,0,0,142.47,245.57Z" transform="translate(0 0)"/><path class="c" d="M133.16,245.57a3,3,0,0,0-3-3H130a3,3,0,1,0,0,5.9h0.23A3,3,0,0,0,133.16,245.57Z" transform="translate(0 0)"/><path class="c" d="M123.86,245.57a3,3,0,0,0-3-3h-0.23a3,3,0,1,0,0,5.9h0.23A3,3,0,0,0,123.86,245.57Z" transform="translate(0 0)"/><path class="c" d="M114.54,245.57a3,3,0,0,0-3-3h-0.23a3,3,0,0,0,0,5.9h0.23A3,3,0,0,0,114.54,245.57Z" transform="translate(0 0)"/><path class="c" d="M105.24,245.57a3,3,0,0,0-3-3h-0.23a3,3,0,1,0,0,5.9h0.23A3,3,0,0,0,105.24,245.57Z" transform="translate(0 0)"/><path class="c" d="M95.93,245.57a3,3,0,0,0-3-3H92.75a3,3,0,1,0,0,5.9H93A3,3,0,0,0,95.93,245.57Z" transform="translate(0 0)"/><path class="c" d="M86.62,245.57a3,3,0,0,0-3-3H83.44a3,3,0,0,0,0,5.9h0.23A3,3,0,0,0,86.62,245.57Z" transform="translate(0 0)"/><path class="c" d="M77.31,245.57a3,3,0,0,0-3-3H74.13a3,3,0,0,0,0,5.9h0.23A3,3,0,0,0,77.31,245.57Z" transform="translate(0 0)"/><path class="c" d="M68,245.57a3,3,0,0,0-3-3H64.82a3,3,0,1,0,0,5.9h0.23A3,3,0,0,0,68,245.57Z" transform="translate(0 0)"/><path class="c" d="M58.7,245.57a3,3,0,0,0-3-3H55.52a3,3,0,1,0,0,5.9h0.23A3,3,0,0,0,58.7,245.57Z" transform="translate(0 0)"/><path class="c" d="M49.39,245.57a3,3,0,0,0-3-3H46.21a3,3,0,0,0,0,5.9h0.23A3,3,0,0,0,49.39,245.57Z" transform="translate(0 0)"/><path class="c" d="M40.08,245.57a3,3,0,0,0-3-3H36.9a3,3,0,1,0,0,5.9h0.23A3,3,0,0,0,40.08,245.57Z" transform="translate(0 0)"/><path class="c" d="M151.78,254.54a3,3,0,0,0-3-3H148.6a3,3,0,0,0,0,5.91h0.23A3,3,0,0,0,151.78,254.54Z" transform="translate(0 0)"/><path class="c" d="M142.47,254.54a3,3,0,0,0-3-3h-0.23a3,3,0,0,0,0,5.91h0.23A3,3,0,0,0,142.47,254.54Z" transform="translate(0 0)"/><path class="c" d="M133.16,254.54a3,3,0,0,0-3-3H130a3,3,0,1,0,0,5.91h0.23A3,3,0,0,0,133.16,254.54Z" transform="translate(0 0)"/><path class="c" d="M123.86,254.54a3,3,0,0,0-3-3h-0.23a3,3,0,0,0,0,5.91h0.23A3,3,0,0,0,123.86,254.54Z" transform="translate(0 0)"/><path class="c" d="M114.54,254.54a3,3,0,0,0-3-3h-0.23a3,3,0,0,0,0,5.91h0.23A3,3,0,0,0,114.54,254.54Z" transform="translate(0 0)"/><path class="c" d="M105.24,254.54a3,3,0,0,0-3-3h-0.23a3,3,0,0,0,0,5.91h0.23A3,3,0,0,0,105.24,254.54Z" transform="translate(0 0)"/><path class="c" d="M95.93,254.54a3,3,0,0,0-3-3H92.75a3,3,0,1,0,0,5.91H93A3,3,0,0,0,95.93,254.54Z" transform="translate(0 0)"/><path class="c" d="M86.62,254.54a3,3,0,0,0-3-3H83.44a3,3,0,0,0,0,5.91h0.23A3,3,0,0,0,86.62,254.54Z" transform="translate(0 0)"/><path class="c" d="M77.31,254.54a3,3,0,0,0-3-3H74.13a3,3,0,0,0,0,5.91h0.23A3,3,0,0,0,77.31,254.54Z" transform="translate(0 0)"/><path class="c" d="M68,254.54a3,3,0,0,0-3-3H64.82a3,3,0,0,0,0,5.91h0.23A3,3,0,0,0,68,254.54Z" transform="translate(0 0)"/><path class="c" d="M58.7,254.54a3,3,0,0,0-3-3H55.52a3,3,0,0,0,0,5.91h0.23A3,3,0,0,0,58.7,254.54Z" transform="translate(0 0)"/><path class="c" d="M49.39,254.54a3,3,0,0,0-3-3H46.21a3,3,0,0,0,0,5.91h0.23A3,3,0,0,0,49.39,254.54Z" transform="translate(0 0)"/><path class="c" d="M40.08,254.54a3,3,0,0,0-3-3H36.9a3,3,0,0,0,0,5.91h0.23A3,3,0,0,0,40.08,254.54Z" transform="translate(0 0)"/><path class="c" d="M151.78,263.51a3,3,0,0,0-3-3H148.6a3,3,0,0,0,0,5.91h0.23A3,3,0,0,0,151.78,263.51Z" transform="translate(0 0)"/><path class="c" d="M142.47,263.51a3,3,0,0,0-3-3h-0.23a3,3,0,0,0,0,5.91h0.23A3,3,0,0,0,142.47,263.51Z" transform="translate(0 0)"/><path class="c" d="M133.16,263.51a3,3,0,0,0-3-3H130a3,3,0,0,0,0,5.91h0.23A3,3,0,0,0,133.16,263.51Z" transform="translate(0 0)"/><path class="c" d="M123.85,263.51a3,3,0,0,0-3-3h-0.23a3,3,0,0,0,0,5.91h0.23A3,3,0,0,0,123.85,263.51Z" transform="translate(0 0)"/><path class="c" d="M114.54,263.51a3,3,0,0,0-3-3h-0.23a3,3,0,0,0,0,5.91h0.23A3,3,0,0,0,114.54,263.51Z" transform="translate(0 0)"/><path class="c" d="M105.24,263.51a3,3,0,0,0-3-3h-0.23a3,3,0,0,0,0,5.91h0.23A3,3,0,0,0,105.24,263.51Z" transform="translate(0 0)"/><path class="c" d="M95.93,263.51a3,3,0,0,0-3-3H92.75a3,3,0,0,0,0,5.91H93A3,3,0,0,0,95.93,263.51Z" transform="translate(0 0)"/><path class="c" d="M86.62,263.51a3,3,0,0,0-3-3H83.44a3,3,0,0,0,0,5.91h0.23A3,3,0,0,0,86.62,263.51Z" transform="translate(0 0)"/><path class="c" d="M77.31,263.51a3,3,0,0,0-3-3H74.13a3,3,0,0,0,0,5.91h0.23A3,3,0,0,0,77.31,263.51Z" transform="translate(0 0)"/><path class="c" d="M68,263.51a3,3,0,0,0-3-3H64.82a3,3,0,0,0,0,5.91h0.23A3,3,0,0,0,68,263.51Z" transform="translate(0 0)"/><path class="c" d="M58.69,263.51a3,3,0,0,0-3-3H55.52a3,3,0,0,0,0,5.91h0.23A3,3,0,0,0,58.69,263.51Z" transform="translate(0 0)"/><path class="c" d="M49.39,263.51a3,3,0,0,0-3-3H46.21a3,3,0,0,0,0,5.91h0.23A3,3,0,0,0,49.39,263.51Z" transform="translate(0 0)"/><path class="c" d="M40.08,263.51a3,3,0,0,0-3-3H36.9a3,3,0,0,0,0,5.91h0.23A3,3,0,0,0,40.08,263.51Z" transform="translate(0 0)"/><path class="c" d="M151.78,272.48a3,3,0,0,0-3-3H148.6a3,3,0,0,0,0,5.9h0.23A3,3,0,0,0,151.78,272.48Z" transform="translate(0 0)"/><path class="c" d="M142.47,272.48a3,3,0,0,0-3-3h-0.23a3,3,0,1,0,0,5.9h0.23A3,3,0,0,0,142.47,272.48Z" transform="translate(0 0)"/><path class="c" d="M133.16,272.48a3,3,0,0,0-3-3H130a3,3,0,0,0,0,5.9h0.23A3,3,0,0,0,133.16,272.48Z" transform="translate(0 0)"/><path class="c" d="M123.85,272.48a3,3,0,0,0-3-3h-0.23a3,3,0,0,0,0,5.9h0.23A3,3,0,0,0,123.85,272.48Z" transform="translate(0 0)"/><path class="c" d="M114.54,272.48a3,3,0,0,0-3-3h-0.23a3,3,0,0,0,0,5.9h0.23A3,3,0,0,0,114.54,272.48Z" transform="translate(0 0)"/><path class="c" d="M105.24,272.48a3,3,0,0,0-3-3h-0.23a3,3,0,1,0,0,5.9h0.23A3,3,0,0,0,105.24,272.48Z" transform="translate(0 0)"/><path class="c" d="M95.93,272.48a3,3,0,0,0-3-3H92.75a3,3,0,0,0,0,5.9H93A3,3,0,0,0,95.93,272.48Z" transform="translate(0 0)"/><path class="c" d="M86.62,272.48a3,3,0,0,0-3-3H83.44a3,3,0,0,0,0,5.9h0.23A3,3,0,0,0,86.62,272.48Z" transform="translate(0 0)"/><path class="c" d="M77.31,272.48a3,3,0,0,0-3-3H74.13a3,3,0,1,0,0,5.9h0.23A3,3,0,0,0,77.31,272.48Z" transform="translate(0 0)"/><path class="c" d="M68,272.48a3,3,0,0,0-3-3H64.82a3,3,0,0,0,0,5.9h0.23A3,3,0,0,0,68,272.48Z" transform="translate(0 0)"/><path class="c" d="M58.69,272.48a3,3,0,0,0-3-3H55.52a3,3,0,0,0,0,5.9h0.23A3,3,0,0,0,58.69,272.48Z" transform="translate(0 0)"/><path class="c" d="M49.39,272.48a3,3,0,0,0-3-3H46.21a3,3,0,0,0,0,5.9h0.23A3,3,0,0,0,49.39,272.48Z" transform="translate(0 0)"/><path class="c" d="M40.08,272.48a3,3,0,0,0-3-3H36.9a3,3,0,1,0,0,5.9h0.23A3,3,0,0,0,40.08,272.48Z" transform="translate(0 0)"/><path class="c" d="M151.78,281.46a3,3,0,0,0-3-3H148.6a3,3,0,0,0,0,5.9h0.23A3,3,0,0,0,151.78,281.46Z" transform="translate(0 0)"/><path class="c" d="M142.47,281.46a3,3,0,0,0-3-3h-0.23a3,3,0,1,0,0,5.9h0.23A3,3,0,0,0,142.47,281.46Z" transform="translate(0 0)"/><path class="c" d="M133.16,281.46a3,3,0,0,0-3-3H130a3,3,0,1,0,0,5.9h0.23A3,3,0,0,0,133.16,281.46Z" transform="translate(0 0)"/><path class="c" d="M123.85,281.46a3,3,0,0,0-3-3h-0.23a3,3,0,1,0,0,5.9h0.23A3,3,0,0,0,123.85,281.46Z" transform="translate(0 0)"/><path class="c" d="M114.54,281.46a3,3,0,0,0-3-3h-0.23a3,3,0,0,0,0,5.9h0.23A3,3,0,0,0,114.54,281.46Z" transform="translate(0 0)"/><path class="c" d="M105.24,281.46a3,3,0,0,0-3-3h-0.23a3,3,0,1,0,0,5.9h0.23A3,3,0,0,0,105.24,281.46Z" transform="translate(0 0)"/><path class="c" d="M95.93,281.46a3,3,0,0,0-3-3H92.75a3,3,0,1,0,0,5.9H93A3,3,0,0,0,95.93,281.46Z" transform="translate(0 0)"/><path class="c" d="M86.62,281.46a3,3,0,0,0-3-3H83.44a3,3,0,0,0,0,5.9h0.23A3,3,0,0,0,86.62,281.46Z" transform="translate(0 0)"/><path class="c" d="M77.31,281.46a3,3,0,0,0-3-3H74.13a3,3,0,1,0,0,5.9h0.23A3,3,0,0,0,77.31,281.46Z" transform="translate(0 0)"/><path class="c" d="M68,281.46a3,3,0,0,0-3-3H64.82a3,3,0,1,0,0,5.9h0.23A3,3,0,0,0,68,281.46Z" transform="translate(0 0)"/><path class="c" d="M58.69,281.46a3,3,0,0,0-3-3H55.52a3,3,0,1,0,0,5.9h0.23A3,3,0,0,0,58.69,281.46Z" transform="translate(0 0)"/><path class="c" d="M49.39,281.46a3,3,0,0,0-3-3H46.21a3,3,0,1,0,0,5.9h0.23A3,3,0,0,0,49.39,281.46Z" transform="translate(0 0)"/><path class="c" d="M40.08,281.46a3,3,0,0,0-3-3H36.9a3,3,0,1,0,0,5.9h0.23A3,3,0,0,0,40.08,281.46Z" transform="translate(0 0)"/><path class="c" d="M151.78,290.42a3,3,0,0,0-3-3H148.6a3,3,0,0,0,0,5.91h0.23A3,3,0,0,0,151.78,290.42Z" transform="translate(0 0)"/><path class="c" d="M142.47,290.42a3,3,0,0,0-3-3h-0.23a3,3,0,0,0,0,5.91h0.23A3,3,0,0,0,142.47,290.42Z" transform="translate(0 0)"/><path class="c" d="M133.16,290.42a3,3,0,0,0-3-3H130a3,3,0,0,0,0,5.91h0.23A3,3,0,0,0,133.16,290.42Z" transform="translate(0 0)"/><path class="c" d="M123.85,290.42a3,3,0,0,0-3-3h-0.23a3,3,0,0,0,0,5.91h0.23A3,3,0,0,0,123.85,290.42Z" transform="translate(0 0)"/><path class="c" d="M114.54,290.42a3,3,0,0,0-3-3h-0.23a3,3,0,0,0,0,5.91h0.23A3,3,0,0,0,114.54,290.42Z" transform="translate(0 0)"/><path class="c" d="M105.24,290.42a3,3,0,0,0-3-3h-0.23a3,3,0,0,0,0,5.91h0.23A3,3,0,0,0,105.24,290.42Z" transform="translate(0 0)"/><path class="c" d="M95.93,290.42a3,3,0,0,0-3-3H92.75a3,3,0,0,0,0,5.91H93A3,3,0,0,0,95.93,290.42Z" transform="translate(0 0)"/><path class="c" d="M86.62,290.42a3,3,0,0,0-3-3H83.44a3,3,0,0,0,0,5.91h0.23A3,3,0,0,0,86.62,290.42Z" transform="translate(0 0)"/><path class="c" d="M77.31,290.42a3,3,0,0,0-3-3H74.13a3,3,0,0,0,0,5.91h0.23A3,3,0,0,0,77.31,290.42Z" transform="translate(0 0)"/><path class="c" d="M68,290.42a3,3,0,0,0-3-3H64.82a3,3,0,0,0,0,5.91h0.23A3,3,0,0,0,68,290.42Z" transform="translate(0 0)"/><path class="c" d="M58.69,290.42a3,3,0,0,0-3-3H55.52a3,3,0,0,0,0,5.91h0.23A3,3,0,0,0,58.69,290.42Z" transform="translate(0 0)"/><path class="c" d="M49.39,290.42a3,3,0,0,0-3-3H46.21a3,3,0,0,0,0,5.91h0.23A3,3,0,0,0,49.39,290.42Z" transform="translate(0 0)"/><path class="c" d="M40.08,290.42a3,3,0,0,0-3-3H36.9a3,3,0,0,0,0,5.91h0.23A3,3,0,0,0,40.08,290.42Z" transform="translate(0 0)"/><path class="c" d="M151.78,299.39a3,3,0,0,0-3-3H148.6a3,3,0,0,0,0,5.9h0.23A3,3,0,0,0,151.78,299.39Z" transform="translate(0 0)"/><path class="c" d="M142.47,299.39a3,3,0,0,0-3-3h-0.23a3,3,0,0,0,0,5.9h0.23A3,3,0,0,0,142.47,299.39Z" transform="translate(0 0)"/><path class="c" d="M133.16,299.39a3,3,0,0,0-3-3H130a3,3,0,1,0,0,5.9h0.23A3,3,0,0,0,133.16,299.39Z" transform="translate(0 0)"/><path class="c" d="M123.86,299.39a3,3,0,0,0-3-3h-0.23a3,3,0,1,0,0,5.9h0.23A3,3,0,0,0,123.86,299.39Z" transform="translate(0 0)"/><path class="c" d="M114.54,299.39a3,3,0,0,0-3-3h-0.23a3,3,0,0,0,0,5.9h0.23A3,3,0,0,0,114.54,299.39Z" transform="translate(0 0)"/><path class="c" d="M105.24,299.39a3,3,0,0,0-3-3h-0.23a3,3,0,1,0,0,5.9h0.23A3,3,0,0,0,105.24,299.39Z" transform="translate(0 0)"/><path class="c" d="M95.93,299.39a3,3,0,0,0-3-3H92.75a3,3,0,1,0,0,5.9H93A3,3,0,0,0,95.93,299.39Z" transform="translate(0 0)"/><path class="c" d="M86.62,299.39a3,3,0,0,0-3-3H83.44a3,3,0,1,0,0,5.9h0.23A3,3,0,0,0,86.62,299.39Z" transform="translate(0 0)"/><path class="c" d="M77.31,299.39a3,3,0,0,0-3-3H74.13a3,3,0,1,0,0,5.9h0.23A3,3,0,0,0,77.31,299.39Z" transform="translate(0 0)"/><path class="c" d="M68,299.39a3,3,0,0,0-3-3H64.82a3,3,0,1,0,0,5.9h0.23A3,3,0,0,0,68,299.39Z" transform="translate(0 0)"/><path class="c" d="M58.7,299.39a3,3,0,0,0-3-3H55.52a3,3,0,1,0,0,5.9h0.23A3,3,0,0,0,58.7,299.39Z" transform="translate(0 0)"/><path class="c" d="M49.39,299.39a3,3,0,0,0-3-3H46.21a3,3,0,1,0,0,5.9h0.23A3,3,0,0,0,49.39,299.39Z" transform="translate(0 0)"/><path class="c" d="M40.08,299.39a3,3,0,0,0-3-3H36.9a3,3,0,1,0,0,5.9h0.23A3,3,0,0,0,40.08,299.39Z" transform="translate(0 0)"/><path class="c" d="M151.78,308.37a3,3,0,0,0-3-3H148.6a3,3,0,0,0,0,5.91h0.22A3,3,0,0,0,151.78,308.37Z" transform="translate(0 0)"/><path class="c" d="M142.47,308.37a3,3,0,0,0-3-3h-0.23a3,3,0,0,0,0,5.91h0.23A3,3,0,0,0,142.47,308.37Z" transform="translate(0 0)"/><path class="c" d="M133.16,308.37a3,3,0,0,0-3-3H130a3,3,0,0,0,0,5.91h0.23A3,3,0,0,0,133.16,308.37Z" transform="translate(0 0)"/><path class="c" d="M123.85,308.37a3,3,0,0,0-3-3h-0.23a3,3,0,0,0,0,5.91h0.23A3,3,0,0,0,123.85,308.37Z" transform="translate(0 0)"/><path class="c" d="M114.54,308.37a3,3,0,0,0-3-3h-0.23a3,3,0,0,0,0,5.91h0.23A3,3,0,0,0,114.54,308.37Z" transform="translate(0 0)"/><path class="c" d="M105.24,308.37a3,3,0,0,0-2.95-3h-0.23a3,3,0,0,0,0,5.91h0.23A3,3,0,0,0,105.24,308.37Z" transform="translate(0 0)"/><path class="c" d="M95.93,308.37a3,3,0,0,0-3-3H92.75a3,3,0,0,0,0,5.91H93A3,3,0,0,0,95.93,308.37Z" transform="translate(0 0)"/><path class="c" d="M86.62,308.37a3,3,0,0,0-2.95-3H83.44a3,3,0,0,0,0,5.91h0.23A3,3,0,0,0,86.62,308.37Z" transform="translate(0 0)"/><path class="c" d="M77.31,308.37a3,3,0,0,0-3-3H74.13a3,3,0,0,0,0,5.91h0.23A3,3,0,0,0,77.31,308.37Z" transform="translate(0 0)"/><path class="c" d="M68,308.37a3,3,0,0,0-3-3H64.82a3,3,0,0,0,0,5.91H65A3,3,0,0,0,68,308.37Z" transform="translate(0 0)"/><path class="c" d="M58.69,308.37a3,3,0,0,0-3-3H55.52a3,3,0,0,0,0,5.91h0.23A3,3,0,0,0,58.69,308.37Z" transform="translate(0 0)"/><path class="c" d="M49.38,308.37a3,3,0,0,0-3-3H46.21a3,3,0,0,0,0,5.91h0.23A3,3,0,0,0,49.38,308.37Z" transform="translate(0 0)"/><path class="c" d="M40.08,308.37a3,3,0,0,0-3-3H36.9a3,3,0,0,0,0,5.91h0.23A3,3,0,0,0,40.08,308.37Z" transform="translate(0 0)"/><path class="c" d="M151.78,317.33a3,3,0,0,0-3-2.95H148.6a3,3,0,0,0,0,5.91h0.23A3,3,0,0,0,151.78,317.33Z" transform="translate(0 0)"/><path class="c" d="M142.47,317.33a3,3,0,0,0-3-2.95h-0.23a3,3,0,0,0,0,5.91h0.23A3,3,0,0,0,142.47,317.33Z" transform="translate(0 0)"/><path class="c" d="M133.16,317.33a3,3,0,0,0-3-2.95H130a3,3,0,1,0,0,5.91h0.23A3,3,0,0,0,133.16,317.33Z" transform="translate(0 0)"/><path class="c" d="M123.86,317.33a3,3,0,0,0-3-2.95h-0.23a3,3,0,0,0,0,5.91h0.23A3,3,0,0,0,123.86,317.33Z" transform="translate(0 0)"/><path class="c" d="M114.54,317.33a3,3,0,0,0-3-2.95h-0.23a3,3,0,0,0,0,5.91h0.23A3,3,0,0,0,114.54,317.33Z" transform="translate(0 0)"/><path class="c" d="M105.24,317.33a3,3,0,0,0-3-2.95h-0.23a3,3,0,0,0,0,5.91h0.23A3,3,0,0,0,105.24,317.33Z" transform="translate(0 0)"/><path class="c" d="M95.93,317.33a3,3,0,0,0-3-2.95H92.75a3,3,0,0,0,0,5.91H93A3,3,0,0,0,95.93,317.33Z" transform="translate(0 0)"/><path class="c" d="M86.62,317.33a3,3,0,0,0-3-2.95H83.44a3,3,0,0,0,0,5.91h0.23A3,3,0,0,0,86.62,317.33Z" transform="translate(0 0)"/><path class="c" d="M77.31,317.33a3,3,0,0,0-3-2.95H74.13a3,3,0,0,0,0,5.91h0.23A3,3,0,0,0,77.31,317.33Z" transform="translate(0 0)"/><path class="c" d="M68,317.33a3,3,0,0,0-3-2.95H64.82a3,3,0,0,0,0,5.91h0.23A3,3,0,0,0,68,317.33Z" transform="translate(0 0)"/><path class="c" d="M58.7,317.33a3,3,0,0,0-3-2.95H55.52a3,3,0,0,0,0,5.91h0.23A3,3,0,0,0,58.7,317.33Z" transform="translate(0 0)"/><path class="c" d="M49.39,317.33a3,3,0,0,0-3-2.95H46.21a3,3,0,0,0,0,5.91h0.23A3,3,0,0,0,49.39,317.33Z" transform="translate(0 0)"/><path class="c" d="M40.08,317.33a3,3,0,0,0-3-2.95H36.9a3,3,0,0,0,0,5.91h0.23A3,3,0,0,0,40.08,317.33Z" transform="translate(0 0)"/><path class="c" d="M151.78,326.31a3,3,0,0,0-3-3H148.6a3,3,0,0,0,0,5.9h0.23A3,3,0,0,0,151.78,326.31Z" transform="translate(0 0)"/><path class="c" d="M142.47,326.31a3,3,0,0,0-3-3h-0.23a3,3,0,0,0,0,5.9h0.23A3,3,0,0,0,142.47,326.31Z" transform="translate(0 0)"/><path class="c" d="M133.16,326.31a3,3,0,0,0-3-3H130a3,3,0,0,0,0,5.9h0.23A3,3,0,0,0,133.16,326.31Z" transform="translate(0 0)"/><path class="c" d="M123.85,326.31a3,3,0,0,0-3-3h-0.23a3,3,0,0,0,0,5.9h0.23A3,3,0,0,0,123.85,326.31Z" transform="translate(0 0)"/><path class="c" d="M114.54,326.31a3,3,0,0,0-3-3h-0.23a3,3,0,0,0,0,5.9h0.23A3,3,0,0,0,114.54,326.31Z" transform="translate(0 0)"/><path class="c" d="M105.24,326.31a3,3,0,0,0-2.95-3h-0.23a3,3,0,1,0,0,5.9h0.23A3,3,0,0,0,105.24,326.31Z" transform="translate(0 0)"/><path class="c" d="M95.93,326.31a3,3,0,0,0-3-3H92.75a3,3,0,1,0,0,5.9H93A3,3,0,0,0,95.93,326.31Z" transform="translate(0 0)"/><path class="c" d="M86.62,326.31a3,3,0,0,0-2.95-3H83.44a3,3,0,0,0,0,5.9h0.23A3,3,0,0,0,86.62,326.31Z" transform="translate(0 0)"/><path class="c" d="M77.31,326.31a3,3,0,0,0-3-3H74.13a3,3,0,1,0,0,5.9h0.23A3,3,0,0,0,77.31,326.31Z" transform="translate(0 0)"/><path class="c" d="M68,326.31a3,3,0,0,0-3-3H64.82a3,3,0,1,0,0,5.9H65A3,3,0,0,0,68,326.31Z" transform="translate(0 0)"/><path class="c" d="M58.69,326.31a3,3,0,0,0-3-3H55.52a3,3,0,1,0,0,5.9h0.23A3,3,0,0,0,58.69,326.31Z" transform="translate(0 0)"/><path class="c" d="M49.38,326.31a3,3,0,0,0-3-3H46.21a3,3,0,0,0,0,5.9h0.23A3,3,0,0,0,49.38,326.31Z" transform="translate(0 0)"/><path class="c" d="M40.08,326.31a3,3,0,0,0-3-3H36.9a3,3,0,0,0,0,5.9h0.23A3,3,0,0,0,40.08,326.31Z" transform="translate(0 0)"/><path class="c" d="M151.78,335.28a3,3,0,0,0-3-3H148.6a3,3,0,0,0,0,5.9h0.23A3,3,0,0,0,151.78,335.28Z" transform="translate(0 0)"/><path class="c" d="M142.47,335.28a3,3,0,0,0-3-3h-0.23a3,3,0,1,0,0,5.9h0.23A3,3,0,0,0,142.47,335.28Z" transform="translate(0 0)"/><path class="c" d="M133.16,335.28a3,3,0,0,0-3-3H130a3,3,0,1,0,0,5.9h0.23A3,3,0,0,0,133.16,335.28Z" transform="translate(0 0)"/><path class="c" d="M123.85,335.28a3,3,0,0,0-3-3h-0.23a3,3,0,0,0,0,5.9h0.23A3,3,0,0,0,123.85,335.28Z" transform="translate(0 0)"/><path class="c" d="M114.54,335.28a3,3,0,0,0-3-3h-0.23a3,3,0,0,0,0,5.9h0.23A3,3,0,0,0,114.54,335.28Z" transform="translate(0 0)"/><path class="c" d="M105.24,335.28a3,3,0,0,0-3-3h-0.23a3,3,0,1,0,0,5.9h0.23A3,3,0,0,0,105.24,335.28Z" transform="translate(0 0)"/><path class="c" d="M95.93,335.28a3,3,0,0,0-3-3H92.75a3,3,0,0,0,0,5.9H93A3,3,0,0,0,95.93,335.28Z" transform="translate(0 0)"/><path class="c" d="M86.62,335.28a3,3,0,0,0-3-3H83.44a3,3,0,0,0,0,5.9h0.23A3,3,0,0,0,86.62,335.28Z" transform="translate(0 0)"/><path class="c" d="M77.31,335.28a3,3,0,0,0-3-3H74.13a3,3,0,1,0,0,5.9h0.23A3,3,0,0,0,77.31,335.28Z" transform="translate(0 0)"/><path class="c" d="M68,335.28a3,3,0,0,0-3-3H64.82a3,3,0,1,0,0,5.9h0.23A3,3,0,0,0,68,335.28Z" transform="translate(0 0)"/><path class="c" d="M58.69,335.28a3,3,0,0,0-3-3H55.52a3,3,0,0,0,0,5.9h0.23A3,3,0,0,0,58.69,335.28Z" transform="translate(0 0)"/><path class="c" d="M49.39,335.28a3,3,0,0,0-3-3H46.21a3,3,0,1,0,0,5.9h0.23A3,3,0,0,0,49.39,335.28Z" transform="translate(0 0)"/><path class="c" d="M40.08,335.28a3,3,0,0,0-3-3H36.9a3,3,0,1,0,0,5.9h0.23A3,3,0,0,0,40.08,335.28Z" transform="translate(0 0)"/><path class="c" d="M151.78,344.24a3,3,0,0,0-3-3H148.6a2.95,2.95,0,1,0,0,5.9h0.23A3,3,0,0,0,151.78,344.24Z" transform="translate(0 0)"/><path class="c" d="M142.47,344.24a3,3,0,0,0-3-3h-0.23a2.95,2.95,0,1,0,0,5.9h0.23A3,3,0,0,0,142.47,344.24Z" transform="translate(0 0)"/><path class="c" d="M133.16,344.24a3,3,0,0,0-3-3H130a2.95,2.95,0,1,0,0,5.9h0.23A3,3,0,0,0,133.16,344.24Z" transform="translate(0 0)"/><path class="c" d="M123.86,344.24a3,3,0,0,0-3-3h-0.23a2.95,2.95,0,1,0,0,5.9h0.23A3,3,0,0,0,123.86,344.24Z" transform="translate(0 0)"/><path class="c" d="M114.54,344.24a3,3,0,0,0-3-3h-0.23a2.95,2.95,0,1,0,0,5.9h0.23A3,3,0,0,0,114.54,344.24Z" transform="translate(0 0)"/><path class="c" d="M105.24,344.24a3,3,0,0,0-3-3h-0.23a2.95,2.95,0,1,0,0,5.9h0.23A3,3,0,0,0,105.24,344.24Z" transform="translate(0 0)"/><path class="c" d="M86.62,344.24a3,3,0,0,0-3-3H83.44a2.95,2.95,0,1,0,0,5.9h0.23A3,3,0,0,0,86.62,344.24Z" transform="translate(0 0)"/><path class="c" d="M77.31,344.24a3,3,0,0,0-3-3H74.13a2.95,2.95,0,1,0,0,5.9h0.23A3,3,0,0,0,77.31,344.24Z" transform="translate(0 0)"/><path class="c" d="M68,344.24a3,3,0,0,0-3-3H64.82a2.95,2.95,0,1,0,0,5.9h0.23A3,3,0,0,0,68,344.24Z" transform="translate(0 0)"/><path class="c" d="M58.7,344.24a3,3,0,0,0-3-3H55.52a2.95,2.95,0,1,0,0,5.9h0.23A3,3,0,0,0,58.7,344.24Z" transform="translate(0 0)"/><path class="c" d="M49.39,344.24a3,3,0,0,0-3-3H46.21a2.95,2.95,0,1,0,0,5.9h0.23A3,3,0,0,0,49.39,344.24Z" transform="translate(0 0)"/><path class="c" d="M40.08,344.24a3,3,0,0,0-3-3H36.9a2.95,2.95,0,1,0,0,5.9h0.23A3,3,0,0,0,40.08,344.24Z" transform="translate(0 0)"/><path class="c" d="M151.78,353.22a3,3,0,0,0-3-3H148.6a3,3,0,0,0,0,5.9h0.23A3,3,0,0,0,151.78,353.22Z" transform="translate(0 0)"/><path class="c" d="M142.47,353.22a3,3,0,0,0-3-3h-0.23a3,3,0,0,0,0,5.9h0.23A3,3,0,0,0,142.47,353.22Z" transform="translate(0 0)"/><path class="c" d="M123.85,353.22a3,3,0,0,0-3-3h-0.23a3,3,0,0,0,0,5.9h0.23A3,3,0,0,0,123.85,353.22Z" transform="translate(0 0)"/><path class="c" d="M114.54,353.22a3,3,0,0,0-3-3h-0.23a3,3,0,0,0,0,5.9h0.23A3,3,0,0,0,114.54,353.22Z" transform="translate(0 0)"/><path class="c" d="M105.24,353.22a3,3,0,0,0-2.95-3h-0.23a3,3,0,1,0,0,5.9h0.23A3,3,0,0,0,105.24,353.22Z" transform="translate(0 0)"/><path class="c" d="M86.62,353.22a3,3,0,0,0-2.95-3H83.44a3,3,0,0,0,0,5.9h0.23A3,3,0,0,0,86.62,353.22Z" transform="translate(0 0)"/><path class="c" d="M77.31,353.22a3,3,0,0,0-3-3H74.13a3,3,0,0,0,0,5.9h0.23A3,3,0,0,0,77.31,353.22Z" transform="translate(0 0)"/><path class="c" d="M68,353.22a3,3,0,0,0-3-3H64.82a3,3,0,1,0,0,5.9H65A3,3,0,0,0,68,353.22Z" transform="translate(0 0)"/><path class="c" d="M49.38,353.22a3,3,0,0,0-3-3H46.21a3,3,0,0,0,0,5.9h0.23A3,3,0,0,0,49.38,353.22Z" transform="translate(0 0)"/><path class="c" d="M40.08,353.22a3,3,0,0,0-3-3H36.9a3,3,0,0,0,0,5.9h0.23A3,3,0,0,0,40.08,353.22Z" transform="translate(0 0)"/><path class="c" d="M123.85,362.19a3,3,0,0,0-3-3h-0.23a3,3,0,0,0,0,5.91h0.23A3,3,0,0,0,123.85,362.19Z" transform="translate(0 0)"/><path class="c" d="M114.54,362.19a3,3,0,0,0-3-3h-0.23a3,3,0,0,0,0,5.91h0.23A3,3,0,0,0,114.54,362.19Z" transform="translate(0 0)"/><path class="c" d="M105.24,362.19a3,3,0,0,0-3-3h-0.23a3,3,0,0,0,0,5.91h0.23A3,3,0,0,0,105.24,362.19Z" transform="translate(0 0)"/><path class="c" d="M86.62,362.19a3,3,0,0,0-3-3H83.44a3,3,0,0,0,0,5.91h0.23A3,3,0,0,0,86.62,362.19Z" transform="translate(0 0)"/><path class="c" d="M77.31,362.19a3,3,0,0,0-3-3H74.13a3,3,0,0,0,0,5.91h0.23A3,3,0,0,0,77.31,362.19Z" transform="translate(0 0)"/><path class="c" d="M68,362.19a3,3,0,0,0-3-3H64.82a3,3,0,0,0,0,5.91h0.23A3,3,0,0,0,68,362.19Z" transform="translate(0 0)"/><path class="c" d="M123.86,371.16a3,3,0,0,0-3-3h-0.23a2.95,2.95,0,1,0,0,5.9h0.23A3,3,0,0,0,123.86,371.16Z" transform="translate(0 0)"/><path class="c" d="M114.54,371.16a3,3,0,0,0-3-3h-0.23a2.95,2.95,0,1,0,0,5.9h0.23A3,3,0,0,0,114.54,371.16Z" transform="translate(0 0)"/><path class="c" d="M105.24,371.16a3,3,0,0,0-3-3h-0.23a2.95,2.95,0,1,0,0,5.9h0.23A3,3,0,0,0,105.24,371.16Z" transform="translate(0 0)"/><path class="c" d="M86.62,371.16a3,3,0,0,0-3-3H83.44a2.95,2.95,0,1,0,0,5.9h0.23A3,3,0,0,0,86.62,371.16Z" transform="translate(0 0)"/><path class="c" d="M77.31,371.16a3,3,0,0,0-3-3H74.13a2.95,2.95,0,1,0,0,5.9h0.23A3,3,0,0,0,77.31,371.16Z" transform="translate(0 0)"/><path class="c" d="M68,371.16a3,3,0,0,0-3-3H64.82a2.95,2.95,0,1,0,0,5.9h0.23A3,3,0,0,0,68,371.16Z" transform="translate(0 0)"/><path class="c" d="M123.85,380.13a3,3,0,0,0-3-3h-0.23a3,3,0,1,0,0,5.9h0.23A3,3,0,0,0,123.85,380.13Z" transform="translate(0 0)"/><path class="c" d="M114.54,380.13a3,3,0,0,0-3-3h-0.23a3,3,0,0,0,0,5.9h0.23A3,3,0,0,0,114.54,380.13Z" transform="translate(0 0)"/><path class="c" d="M105.24,380.13a3,3,0,0,0-2.95-3h-0.23a3,3,0,1,0,0,5.9h0.23A3,3,0,0,0,105.24,380.13Z" transform="translate(0 0)"/><path class="c" d="M86.62,380.13a3,3,0,0,0-2.95-3H83.44a3,3,0,0,0,0,5.9h0.23A3,3,0,0,0,86.62,380.13Z" transform="translate(0 0)"/><path class="c" d="M77.31,380.13a3,3,0,0,0-3-3H74.13a3,3,0,1,0,0,5.9h0.23A3,3,0,0,0,77.31,380.13Z" transform="translate(0 0)"/><path class="c" d="M68,380.13a3,3,0,0,0-3-3H64.82a3,3,0,1,0,0,5.9H65A3,3,0,0,0,68,380.13Z" transform="translate(0 0)"/><path class="c" d="M123.85,389.09a3,3,0,0,0-3-2.95h-0.23a3,3,0,0,0,0,5.91h0.23A3,3,0,0,0,123.85,389.09Z" transform="translate(0 0)"/><path class="c" d="M114.54,389.09a3,3,0,0,0-3-2.95h-0.23a3,3,0,0,0,0,5.91h0.23A3,3,0,0,0,114.54,389.09Z" transform="translate(0 0)"/><path class="c" d="M105.24,389.09a3,3,0,0,0-3-2.95h-0.23a3,3,0,0,0,0,5.91h0.23A3,3,0,0,0,105.24,389.09Z" transform="translate(0 0)"/><path class="c" d="M86.62,389.09a3,3,0,0,0-3-2.95H83.44a3,3,0,0,0,0,5.91h0.23A3,3,0,0,0,86.62,389.09Z" transform="translate(0 0)"/><path class="c" d="M77.31,389.09a3,3,0,0,0-3-2.95H74.13a3,3,0,0,0,0,5.91h0.23A3,3,0,0,0,77.31,389.09Z" transform="translate(0 0)"/><path class="c" d="M68,389.09a3,3,0,0,0-3-2.95H64.82a3,3,0,0,0,0,5.91h0.23A3,3,0,0,0,68,389.09Z" transform="translate(0 0)"/><path class="c" d="M123.86,398.07a3,3,0,0,0-3-2.95h-0.23a3,3,0,1,0,0,5.9h0.23A3,3,0,0,0,123.86,398.07Z" transform="translate(0 0)"/><path class="c" d="M114.54,398.07a3,3,0,0,0-3-2.95h-0.23a3,3,0,0,0,0,5.9h0.23A3,3,0,0,0,114.54,398.07Z" transform="translate(0 0)"/><path class="c" d="M105.24,398.07a3,3,0,0,0-3-2.95h-0.23a3,3,0,1,0,0,5.9h0.23A3,3,0,0,0,105.24,398.07Z" transform="translate(0 0)"/><path class="c" d="M86.62,398.07a3,3,0,0,0-3-2.95H83.44a3,3,0,1,0,0,5.9h0.23A3,3,0,0,0,86.62,398.07Z" transform="translate(0 0)"/><path class="c" d="M77.31,398.07a3,3,0,0,0-3-2.95H74.13a3,3,0,1,0,0,5.9h0.23A3,3,0,0,0,77.31,398.07Z" transform="translate(0 0)"/><path class="c" d="M68,398.07a3,3,0,0,0-3-2.95H64.82a3,3,0,1,0,0,5.9h0.23A3,3,0,0,0,68,398.07Z" transform="translate(0 0)"/><path class="c" d="M123.85,407a3,3,0,0,0-3-3h-0.23a3,3,0,1,0,0,5.9h0.23A3,3,0,0,0,123.85,407Z" transform="translate(0 0)"/><path class="c" d="M114.54,407a3,3,0,0,0-3-3h-0.23a3,3,0,0,0,0,5.9h0.23A3,3,0,0,0,114.54,407Z" transform="translate(0 0)"/><path class="c" d="M105.24,407a3,3,0,0,0-3-3h-0.23a3,3,0,1,0,0,5.9h0.23A3,3,0,0,0,105.24,407Z" transform="translate(0 0)"/><path class="c" d="M86.62,407a3,3,0,0,0-3-3H83.44a3,3,0,0,0,0,5.9h0.23A3,3,0,0,0,86.62,407Z" transform="translate(0 0)"/><path class="c" d="M77.31,407a3,3,0,0,0-3-3H74.13a3,3,0,1,0,0,5.9h0.23A3,3,0,0,0,77.31,407Z" transform="translate(0 0)"/><path class="c" d="M68,407a3,3,0,0,0-3-3H64.82a3,3,0,1,0,0,5.9h0.23A3,3,0,0,0,68,407Z" transform="translate(0 0)"/><path class="c" d="M123.85,416a3,3,0,0,0-3-2.95h-0.23a3,3,0,0,0,0,5.91h0.23A3,3,0,0,0,123.85,416Z" transform="translate(0 0)"/><path class="c" d="M114.54,416a3,3,0,0,0-3-2.95h-0.23a3,3,0,0,0,0,5.91h0.23A3,3,0,0,0,114.54,416Z" transform="translate(0 0)"/><path class="c" d="M105.24,416a3,3,0,0,0-3-2.95h-0.23a3,3,0,0,0,0,5.91h0.23A3,3,0,0,0,105.24,416Z" transform="translate(0 0)"/><path class="c" d="M86.62,416a3,3,0,0,0-3-2.95H83.44a3,3,0,0,0,0,5.91h0.23A3,3,0,0,0,86.62,416Z" transform="translate(0 0)"/><path class="c" d="M77.31,416a3,3,0,0,0-3-2.95H74.13a3,3,0,0,0,0,5.91h0.23A3,3,0,0,0,77.31,416Z" transform="translate(0 0)"/><path class="c" d="M68,416a3,3,0,0,0-3-2.95H64.82a3,3,0,0,0,0,5.91h0.23A3,3,0,0,0,68,416Z" transform="translate(0 0)"/><path class="c" d="M123.85,425a3,3,0,0,0-3-3h-0.23a3,3,0,0,0,0,5.9h0.23A3,3,0,0,0,123.85,425Z" transform="translate(0 0)"/><path class="c" d="M114.54,425a3,3,0,0,0-3-3h-0.23a3,3,0,0,0,0,5.9h0.23A3,3,0,0,0,114.54,425Z" transform="translate(0 0)"/><path class="c" d="M105.24,425a3,3,0,0,0-3-3h-0.23a3,3,0,1,0,0,5.9h0.23A3,3,0,0,0,105.24,425Z" transform="translate(0 0)"/><path class="c" d="M86.62,425a3,3,0,0,0-3-3H83.44a3,3,0,0,0,0,5.9h0.23A3,3,0,0,0,86.62,425Z" transform="translate(0 0)"/><path class="c" d="M77.31,425a3,3,0,0,0-3-3H74.13a3,3,0,1,0,0,5.9h0.23A3,3,0,0,0,77.31,425Z" transform="translate(0 0)"/><path class="c" d="M68,425a3,3,0,0,0-3-3H64.82a3,3,0,1,0,0,5.9h0.23A3,3,0,0,0,68,425Z" transform="translate(0 0)"/><path class="c" d="M123.85,434a3,3,0,0,0-3-3h-0.23a3,3,0,1,0,0,5.9h0.23A3,3,0,0,0,123.85,434Z" transform="translate(0 0)"/><path class="c" d="M114.54,434a3,3,0,0,0-3-3h-0.23a3,3,0,0,0,0,5.9h0.23A3,3,0,0,0,114.54,434Z" transform="translate(0 0)"/><path class="c" d="M105.24,434a3,3,0,0,0-3-3h-0.23a3,3,0,1,0,0,5.9h0.23A3,3,0,0,0,105.24,434Z" transform="translate(0 0)"/><path class="c" d="M86.62,434a3,3,0,0,0-3-3H83.44a3,3,0,1,0,0,5.9h0.23A3,3,0,0,0,86.62,434Z" transform="translate(0 0)"/><path class="c" d="M77.31,434a3,3,0,0,0-3-3H74.13a3,3,0,1,0,0,5.9h0.23A3,3,0,0,0,77.31,434Z" transform="translate(0 0)"/><path class="c" d="M68,434a3,3,0,0,0-3-3H64.82a3,3,0,1,0,0,5.9h0.23A3,3,0,0,0,68,434Z" transform="translate(0 0)"/><path class="c" d="M123.85,442.92a3,3,0,0,0-3-3h-0.23a3,3,0,0,0,0,5.91h0.23A3,3,0,0,0,123.85,442.92Z" transform="translate(0 0)"/><path class="c" d="M114.54,442.92a3,3,0,0,0-3-3h-0.23a3,3,0,0,0,0,5.91h0.23A3,3,0,0,0,114.54,442.92Z" transform="translate(0 0)"/><path class="c" d="M105.24,442.92a3,3,0,0,0-3-3h-0.23a3,3,0,0,0,0,5.91h0.23A3,3,0,0,0,105.24,442.92Z" transform="translate(0 0)"/><path class="c" d="M86.62,442.92a3,3,0,0,0-3-3H83.44a3,3,0,0,0,0,5.91h0.23A3,3,0,0,0,86.62,442.92Z" transform="translate(0 0)"/><path class="c" d="M77.31,442.92a3,3,0,0,0-3-3H74.13a3,3,0,1,0,0,5.91h0.23A3,3,0,0,0,77.31,442.92Z" transform="translate(0 0)"/><path class="c" d="M68,442.92a3,3,0,0,0-3-3H64.82a3,3,0,0,0,0,5.91h0.23A3,3,0,0,0,68,442.92Z" transform="translate(0 0)"/><path class="c" d="M123.85,451.89a3,3,0,0,0-3-2.95h-0.23a3,3,0,1,0,0,5.9h0.23A3,3,0,0,0,123.85,451.89Z" transform="translate(0 0)"/><path class="c" d="M114.54,451.89a3,3,0,0,0-3-2.95h-0.23a3,3,0,0,0,0,5.9h0.23A3,3,0,0,0,114.54,451.89Z" transform="translate(0 0)"/><path class="c" d="M105.24,451.89a3,3,0,0,0-3-2.95h-0.23a3,3,0,1,0,0,5.9h0.23A3,3,0,0,0,105.24,451.89Z" transform="translate(0 0)"/><path class="c" d="M86.62,451.89a3,3,0,0,0-3-2.95H83.44a3,3,0,0,0,0,5.9h0.23A3,3,0,0,0,86.62,451.89Z" transform="translate(0 0)"/><path class="c" d="M77.31,451.89a3,3,0,0,0-3-2.95H74.13a3,3,0,1,0,0,5.9h0.23A3,3,0,0,0,77.31,451.89Z" transform="translate(0 0)"/><path class="c" d="M68,451.89a3,3,0,0,0-3-2.95H64.82a3,3,0,1,0,0,5.9h0.23A3,3,0,0,0,68,451.89Z" transform="translate(0 0)"/><path class="c" d="M123.85,460.86a3,3,0,0,0-3-3h-0.23a3,3,0,1,0,0,5.9h0.23A3,3,0,0,0,123.85,460.86Z" transform="translate(0 0)"/><path class="c" d="M114.54,460.86a3,3,0,0,0-3-3h-0.23a3,3,0,0,0,0,5.9h0.23A3,3,0,0,0,114.54,460.86Z" transform="translate(0 0)"/><path class="c" d="M105.24,460.86a3,3,0,0,0-3-3h-0.23a3,3,0,1,0,0,5.9h0.23A3,3,0,0,0,105.24,460.86Z" transform="translate(0 0)"/><path class="c" d="M86.62,460.86a3,3,0,0,0-3-3H83.44a3,3,0,0,0,0,5.9h0.23A3,3,0,0,0,86.62,460.86Z" transform="translate(0 0)"/><path class="c" d="M77.31,460.86a3,3,0,0,0-3-3H74.13a3,3,0,1,0,0,5.9h0.23A3,3,0,0,0,77.31,460.86Z" transform="translate(0 0)"/><path class="c" d="M68,460.86a3,3,0,0,0-3-3H64.82a3,3,0,1,0,0,5.9h0.23A3,3,0,0,0,68,460.86Z" transform="translate(0 0)"/><path class="c" d="M123.85,469.83a3,3,0,0,0-3-3h-0.23a3,3,0,1,0,0,5.9h0.23A3,3,0,0,0,123.85,469.83Z" transform="translate(0 0)"/><path class="c" d="M114.54,469.83a3,3,0,0,0-3-3h-0.23a3,3,0,0,0,0,5.9h0.23A3,3,0,0,0,114.54,469.83Z" transform="translate(0 0)"/><path class="c" d="M105.24,469.83a3,3,0,0,0-3-3h-0.23a3,3,0,1,0,0,5.9h0.23A3,3,0,0,0,105.24,469.83Z" transform="translate(0 0)"/><path class="c" d="M86.62,469.83a3,3,0,0,0-3-3H83.44a3,3,0,0,0,0,5.9h0.23A3,3,0,0,0,86.62,469.83Z" transform="translate(0 0)"/><path class="c" d="M77.31,469.83a3,3,0,0,0-3-3H74.13a3,3,0,1,0,0,5.9h0.23A3,3,0,0,0,77.31,469.83Z" transform="translate(0 0)"/><path class="c" d="M68,469.83a3,3,0,0,0-3-3H64.82a3,3,0,1,0,0,5.9h0.23A3,3,0,0,0,68,469.83Z" transform="translate(0 0)"/><path class="c" d="M123.85,478.8a3,3,0,0,0-3-2.95h-0.23a3,3,0,1,0,0,5.9h0.23A3,3,0,0,0,123.85,478.8Z" transform="translate(0 0)"/><path class="c" d="M114.54,478.8a3,3,0,0,0-3-2.95h-0.23a3,3,0,0,0,0,5.9h0.23A3,3,0,0,0,114.54,478.8Z" transform="translate(0 0)"/><path class="c" d="M105.24,478.8a3,3,0,0,0-3-2.95h-0.23a3,3,0,1,0,0,5.9h0.23A3,3,0,0,0,105.24,478.8Z" transform="translate(0 0)"/><path class="c" d="M86.62,478.8a3,3,0,0,0-3-2.95H83.44a3,3,0,0,0,0,5.9h0.23A3,3,0,0,0,86.62,478.8Z" transform="translate(0 0)"/><path class="c" d="M77.31,478.8a3,3,0,0,0-3-2.95H74.13a3,3,0,1,0,0,5.9h0.23A3,3,0,0,0,77.31,478.8Z" transform="translate(0 0)"/><path class="c" d="M68,478.8a3,3,0,0,0-3-2.95H64.82a3,3,0,1,0,0,5.9h0.23A3,3,0,0,0,68,478.8Z" transform="translate(0 0)"/></g><line class="g" x1="59.21" y1="229.27" x2="59.21" y2="313.5"/><line class="g" x1="126.54" y1="229.27" x2="126.54" y2="313.5"/></svg>