<svg xmlns="http://www.w3.org/2000/svg" xmlns:xlink="http://www.w3.org/1999/xlink" width="120mm" height="169.94mm" viewBox="0 0 340.16 481.73"><defs><style>.a{fill:none;}.b{fill:#fff;}.c,.f,.h{fill:#0086a8;}.d{fill:#80c2d3;}.e{fill:#00577e;}.f,.h{stroke:#fff;stroke-linecap:round;stroke-miterlimit:10;}.f{stroke-width:4.7px;}.g{clip-path:url(#a);}.h{stroke-width:6px;}</style><clipPath id="a" transform="translate(0 0)"><path class="a" d="M32.62,311.79V215.71a15.86,15.86,0,0,1,15.86-15.86h11.1v0h66.6v0h11.1a15.86,15.86,0,0,1,15.86,15.86v96.08H129.34V231.57h0s0,0,0,0a1.58,1.58,0,1,0-3.17,0s0,0,0,0h0v80.22H59.57V231.57h0s0,0,0,0a1.59,1.59,0,1,0-3.17,0,0.23,0.23,0,0,0,0,0h0v80.22H32.62ZM92.88,196.64a31.72,31.72,0,1,0-31.73-31.72A31.72,31.72,0,0,0,92.88,196.64Z"/></clipPath></defs><title>wezenpensioen_op_opbouwbasis</title><rect class="b" x="7.09" y="7.09" width="325.98" height="325.98" rx="35.43" ry="35.43"/><path class="c" d="M297.64,14.18A28.38,28.38,0,0,1,326,42.52V297.64A28.38,28.38,0,0,1,297.64,326H42.52a28.38,28.38,0,0,1-28.35-28.35V42.52A28.38,28.38,0,0,1,42.52,14.18H297.64m0-14.17H42.52A42.64,42.64,0,0,0,0,42.52V297.64a42.64,42.64,0,0,0,42.52,42.52H297.64a42.64,42.64,0,0,0,42.52-42.52V42.52A42.64,42.64,0,0,0,297.64,0h0Z" transform="translate(0 0)"/><path class="d" d="M217.85,73.1c0,14.11-21.67,25.55-48.41,25.55S121,87.21,121,73.1s21.67-25.55,48.41-25.55S217.85,59,217.85,73.1ZM162.75,33.92a6.72,6.72,0,1,0,6.72,6.72A6.72,6.72,0,0,0,162.75,33.92Zm13.45,0a6.72,6.72,0,1,0,6.72,6.72A6.72,6.72,0,0,0,176.2,33.92Z" transform="translate(0 0)"/><path class="e" d="M206.72,83.21c0-2.53,3.1-4.36,3.1-8.81,0-11.14-18.06-20.17-40.34-20.17s-40.34,9-40.34,20.17c0,4.84,2.15,6.41,2.15,8.81,0,5.59-15.59,12.52-15.59,24.81,0,18.57,24.08,33.61,53.79,33.61s53.79-15,53.79-33.61C223.26,95.47,206.72,88.41,206.72,83.21Z" transform="translate(0 0)"/><path class="c" d="M217.57,311.64V252.36A12.42,12.42,0,0,1,230,239.94h8.69v0h52.16v0h8.69A12.42,12.42,0,0,1,312,252.36v59.28H293.33V264.78h0v0a1.24,1.24,0,1,0-2.48,0s0,0,0,0h0v46.86H238.68V264.78h0s0,0,0,0a1.24,1.24,0,1,0-2.49,0v0h0v46.86H217.57Zm47.2-74.21a24.84,24.84,0,1,0-24.85-24.85A24.84,24.84,0,0,0,264.77,237.43Z" transform="translate(0 0)"/><line class="f" x1="237.44" y1="263.51" x2="237.44" y2="319.13"/><line class="f" x1="291.94" y1="263.51" x2="291.94" y2="315.8"/><g class="g"><path class="c" d="M114.54,137.91a3,3,0,0,0-3-3h-0.23a3,3,0,0,0,0,5.9h0.23A3,3,0,0,0,114.54,137.91Z" transform="translate(0 0)"/><path class="c" d="M105.24,137.91a3,3,0,0,0-2.95-3h-0.23a3,3,0,1,0,0,5.9h0.23A3,3,0,0,0,105.24,137.91Z" transform="translate(0 0)"/><path class="c" d="M95.93,137.91a3,3,0,0,0-3-3H92.75a3,3,0,1,0,0,5.9H93A3,3,0,0,0,95.93,137.91Z" transform="translate(0 0)"/><path class="c" d="M86.62,137.91a3,3,0,0,0-2.95-3H83.44a3,3,0,0,0,0,5.9h0.23A3,3,0,0,0,86.62,137.91Z" transform="translate(0 0)"/><path class="c" d="M77.31,137.91a3,3,0,0,0-3-3H74.13a3,3,0,1,0,0,5.9h0.23A3,3,0,0,0,77.31,137.91Z" transform="translate(0 0)"/><path class="c" d="M123.85,146.88a3,3,0,0,0-3-3h-0.23a3,3,0,0,0,0,5.9h0.23A3,3,0,0,0,123.85,146.88Z" transform="translate(0 0)"/><path class="c" d="M114.54,146.88a3,3,0,0,0-3-3h-0.23a3,3,0,0,0,0,5.9h0.23A3,3,0,0,0,114.54,146.88Z" transform="translate(0 0)"/><path class="c" d="M105.24,146.88a3,3,0,0,0-3-3h-0.23a3,3,0,1,0,0,5.9h0.23A3,3,0,0,0,105.24,146.88Z" transform="translate(0 0)"/><path class="c" d="M95.93,146.88a3,3,0,0,0-3-3H92.75a3,3,0,0,0,0,5.9H93A3,3,0,0,0,95.93,146.88Z" transform="translate(0 0)"/><path class="c" d="M86.62,146.88a3,3,0,0,0-3-3H83.44a3,3,0,0,0,0,5.9h0.23A3,3,0,0,0,86.62,146.88Z" transform="translate(0 0)"/><path class="c" d="M77.31,146.88a3,3,0,0,0-3-3H74.13a3,3,0,1,0,0,5.9h0.23A3,3,0,0,0,77.31,146.88Z" transform="translate(0 0)"/><path class="c" d="M68,146.88a3,3,0,0,0-3-3H64.82a3,3,0,1,0,0,5.9h0.23A3,3,0,0,0,68,146.88Z" transform="translate(0 0)"/><path class="c" d="M123.85,155.85a3,3,0,0,0-3-3h-0.23a3,3,0,0,0,0,5.9h0.23A3,3,0,0,0,123.85,155.85Z" transform="translate(0 0)"/><path class="c" d="M114.54,155.85a3,3,0,0,0-3-3h-0.23a3,3,0,0,0,0,5.9h0.23A3,3,0,0,0,114.54,155.85Z" transform="translate(0 0)"/><path class="c" d="M105.24,155.85a3,3,0,0,0-3-3h-0.23a3,3,0,1,0,0,5.9h0.23A3,3,0,0,0,105.24,155.85Z" transform="translate(0 0)"/><path class="c" d="M95.93,155.85a3,3,0,0,0-3-3H92.75a3,3,0,0,0,0,5.9H93A3,3,0,0,0,95.93,155.85Z" transform="translate(0 0)"/><path class="c" d="M86.62,155.85a3,3,0,0,0-3-3H83.44a3,3,0,0,0,0,5.9h0.23A3,3,0,0,0,86.62,155.85Z" transform="translate(0 0)"/><path class="c" d="M77.31,155.85a3,3,0,0,0-3-3H74.13a3,3,0,1,0,0,5.9h0.23A3,3,0,0,0,77.31,155.85Z" transform="translate(0 0)"/><path class="c" d="M68,155.85a3,3,0,0,0-3-3H64.82a3,3,0,0,0,0,5.9h0.23A3,3,0,0,0,68,155.85Z" transform="translate(0 0)"/><path class="c" d="M123.85,164.82a3,3,0,0,0-3-3h-0.23a3,3,0,0,0,0,5.9h0.23A3,3,0,0,0,123.85,164.82Z" transform="translate(0 0)"/><path class="c" d="M114.54,164.82a3,3,0,0,0-3-3h-0.23a3,3,0,0,0,0,5.9h0.23A3,3,0,0,0,114.54,164.82Z" transform="translate(0 0)"/><path class="c" d="M105.24,164.82a3,3,0,0,0-2.95-3h-0.23a3,3,0,1,0,0,5.9h0.23A3,3,0,0,0,105.24,164.82Z" transform="translate(0 0)"/><path class="c" d="M95.93,164.82a3,3,0,0,0-3-3H92.75a3,3,0,1,0,0,5.9H93A3,3,0,0,0,95.93,164.82Z" transform="translate(0 0)"/><path class="c" d="M86.62,164.82a3,3,0,0,0-2.95-3H83.44a3,3,0,0,0,0,5.9h0.23A3,3,0,0,0,86.62,164.82Z" transform="translate(0 0)"/><path class="c" d="M77.31,164.82a3,3,0,0,0-3-3H74.13a3,3,0,1,0,0,5.9h0.23A3,3,0,0,0,77.31,164.82Z" transform="translate(0 0)"/><path class="c" d="M68,164.82a3,3,0,0,0-3-3H64.82a3,3,0,1,0,0,5.9H65A3,3,0,0,0,68,164.82Z" transform="translate(0 0)"/><path class="c" d="M123.85,173.79a3,3,0,0,0-3-3h-0.23a3,3,0,0,0,0,5.9h0.23A3,3,0,0,0,123.85,173.79Z" transform="translate(0 0)"/><path class="c" d="M114.54,173.79a3,3,0,0,0-3-3h-0.23a3,3,0,0,0,0,5.9h0.23A3,3,0,0,0,114.54,173.79Z" transform="translate(0 0)"/><path class="c" d="M105.24,173.79a3,3,0,0,0-3-3h-0.23a3,3,0,1,0,0,5.9h0.23A3,3,0,0,0,105.24,173.79Z" transform="translate(0 0)"/><path class="c" d="M95.93,173.79a3,3,0,0,0-3-3H92.75a3,3,0,0,0,0,5.9H93A3,3,0,0,0,95.93,173.79Z" transform="translate(0 0)"/><path class="c" d="M86.62,173.79a3,3,0,0,0-3-3H83.44a3,3,0,0,0,0,5.9h0.23A3,3,0,0,0,86.62,173.79Z" transform="translate(0 0)"/><path class="c" d="M77.31,173.79a3,3,0,0,0-3-3H74.13a3,3,0,1,0,0,5.9h0.23A3,3,0,0,0,77.31,173.79Z" transform="translate(0 0)"/><path class="c" d="M68,173.79a3,3,0,0,0-3-3H64.82a3,3,0,0,0,0,5.9h0.23A3,3,0,0,0,68,173.79Z" transform="translate(0 0)"/><path class="c" d="M123.85,182.76a3,3,0,0,0-3-3h-0.23a3,3,0,1,0,0,5.9h0.23A3,3,0,0,0,123.85,182.76Z" transform="translate(0 0)"/><path class="c" d="M114.54,182.76a3,3,0,0,0-3-3h-0.23a3,3,0,0,0,0,5.9h0.23A3,3,0,0,0,114.54,182.76Z" transform="translate(0 0)"/><path class="c" d="M105.24,182.76a3,3,0,0,0-3-3h-0.23a3,3,0,1,0,0,5.9h0.23A3,3,0,0,0,105.24,182.76Z" transform="translate(0 0)"/><path class="c" d="M95.93,182.76a3,3,0,0,0-3-3H92.75a3,3,0,0,0,0,5.9H93A3,3,0,0,0,95.93,182.76Z" transform="translate(0 0)"/><path class="c" d="M86.62,182.76a3,3,0,0,0-3-3H83.44a3,3,0,0,0,0,5.9h0.23A3,3,0,0,0,86.62,182.76Z" transform="translate(0 0)"/><path class="c" d="M77.31,182.76a3,3,0,0,0-3-3H74.13a3,3,0,1,0,0,5.9h0.23A3,3,0,0,0,77.31,182.76Z" transform="translate(0 0)"/><path class="c" d="M68,182.76a3,3,0,0,0-3-3H64.82a3,3,0,1,0,0,5.9h0.23A3,3,0,0,0,68,182.76Z" transform="translate(0 0)"/><path class="c" d="M114.54,191.73a3,3,0,0,0-3-3h-0.23a3,3,0,0,0,0,5.9h0.23A3,3,0,0,0,114.54,191.73Z" transform="translate(0 0)"/><path class="c" d="M105.24,191.73a3,3,0,0,0-2.95-3h-0.23a3,3,0,1,0,0,5.9h0.23A3,3,0,0,0,105.24,191.73Z" transform="translate(0 0)"/><path class="c" d="M95.93,191.73a3,3,0,0,0-3-3H92.75a3,3,0,1,0,0,5.9H93A3,3,0,0,0,95.93,191.73Z" transform="translate(0 0)"/><path class="c" d="M86.62,191.73a3,3,0,0,0-2.95-3H83.44a3,3,0,0,0,0,5.9h0.23A3,3,0,0,0,86.62,191.73Z" transform="translate(0 0)"/><path class="c" d="M77.31,191.73a3,3,0,0,0-3-3H74.13a3,3,0,0,0,0,5.9h0.23A3,3,0,0,0,77.31,191.73Z" transform="translate(0 0)"/><path class="c" d="M142.47,200.7a3,3,0,0,0-3-3h-0.23a3,3,0,1,0,0,5.9h0.23A3,3,0,0,0,142.47,200.7Z" transform="translate(0 0)"/><path class="c" d="M133.16,200.7a3,3,0,0,0-3-3H130a3,3,0,1,0,0,5.9h0.23A3,3,0,0,0,133.16,200.7Z" transform="translate(0 0)"/><path class="c" d="M123.85,200.7a3,3,0,0,0-3-3h-0.23a3,3,0,1,0,0,5.9h0.23A3,3,0,0,0,123.85,200.7Z" transform="translate(0 0)"/><path class="c" d="M114.54,200.7a3,3,0,0,0-3-3h-0.23a3,3,0,0,0,0,5.9h0.23A3,3,0,0,0,114.54,200.7Z" transform="translate(0 0)"/><path class="c" d="M105.24,200.7a3,3,0,0,0-3-3h-0.23a3,3,0,1,0,0,5.9h0.23A3,3,0,0,0,105.24,200.7Z" transform="translate(0 0)"/><path class="c" d="M95.93,200.7a3,3,0,0,0-3-3H92.75a3,3,0,1,0,0,5.9H93A3,3,0,0,0,95.93,200.7Z" transform="translate(0 0)"/><path class="c" d="M86.62,200.7a3,3,0,0,0-3-3H83.44a3,3,0,1,0,0,5.9h0.23A3,3,0,0,0,86.62,200.7Z" transform="translate(0 0)"/><path class="c" d="M77.31,200.7a3,3,0,0,0-3-3H74.13a3,3,0,1,0,0,5.9h0.23A3,3,0,0,0,77.31,200.7Z" transform="translate(0 0)"/><path class="c" d="M68,200.7a3,3,0,0,0-3-3H64.82a3,3,0,1,0,0,5.9h0.23A3,3,0,0,0,68,200.7Z" transform="translate(0 0)"/><path class="c" d="M58.69,200.7a3,3,0,0,0-3-3H55.52a3,3,0,1,0,0,5.9h0.23A3,3,0,0,0,58.69,200.7Z" transform="translate(0 0)"/><path class="c" d="M49.39,200.7a3,3,0,0,0-3-3H46.21a3,3,0,1,0,0,5.9h0.23A3,3,0,0,0,49.39,200.7Z" transform="translate(0 0)"/><path class="c" d="M151.78,209.67a3,3,0,0,0-3-2.95H148.6a3,3,0,0,0,0,5.9h0.23A3,3,0,0,0,151.78,209.67Z" transform="translate(0 0)"/><path class="c" d="M142.47,209.67a3,3,0,0,0-3-2.95h-0.23a3,3,0,1,0,0,5.9h0.23A3,3,0,0,0,142.47,209.67Z" transform="translate(0 0)"/><path class="c" d="M133.16,209.67a3,3,0,0,0-3-2.95H130a3,3,0,1,0,0,5.9h0.23A3,3,0,0,0,133.16,209.67Z" transform="translate(0 0)"/><path class="c" d="M123.85,209.67a3,3,0,0,0-3-2.95h-0.23a3,3,0,1,0,0,5.9h0.23A3,3,0,0,0,123.85,209.67Z" transform="translate(0 0)"/><path class="c" d="M114.54,209.67a3,3,0,0,0-3-2.95h-0.23a3,3,0,0,0,0,5.9h0.23A3,3,0,0,0,114.54,209.67Z" transform="translate(0 0)"/><path class="c" d="M105.24,209.67a3,3,0,0,0-3-2.95h-0.23a3,3,0,1,0,0,5.9h0.23A3,3,0,0,0,105.24,209.67Z" transform="translate(0 0)"/><path class="c" d="M95.93,209.67a3,3,0,0,0-3-2.95H92.75a3,3,0,1,0,0,5.9H93A3,3,0,0,0,95.93,209.67Z" transform="translate(0 0)"/><path class="c" d="M86.62,209.67a3,3,0,0,0-3-2.95H83.44a3,3,0,1,0,0,5.9h0.23A3,3,0,0,0,86.62,209.67Z" transform="translate(0 0)"/><path class="c" d="M77.31,209.67a3,3,0,0,0-3-2.95H74.13a3,3,0,1,0,0,5.9h0.23A3,3,0,0,0,77.31,209.67Z" transform="translate(0 0)"/><path class="c" d="M68,209.67a3,3,0,0,0-3-2.95H64.82a3,3,0,1,0,0,5.9h0.23A3,3,0,0,0,68,209.67Z" transform="translate(0 0)"/><path class="c" d="M58.69,209.67a3,3,0,0,0-3-2.95H55.52a3,3,0,1,0,0,5.9h0.23A3,3,0,0,0,58.69,209.67Z" transform="translate(0 0)"/><path class="c" d="M49.39,209.67a3,3,0,0,0-3-2.95H46.21a3,3,0,1,0,0,5.9h0.23A3,3,0,0,0,49.39,209.67Z" transform="translate(0 0)"/><path class="c" d="M40.08,209.67a3,3,0,0,0-3-2.95H36.9a3,3,0,1,0,0,5.9h0.23A3,3,0,0,0,40.08,209.67Z" transform="translate(0 0)"/><path class="c" d="M151.78,218.64a3,3,0,0,0-3-3H148.6a3,3,0,0,0,0,5.9h0.23A3,3,0,0,0,151.78,218.64Z" transform="translate(0 0)"/><path class="c" d="M142.47,218.64a3,3,0,0,0-3-3h-0.23a3,3,0,0,0,0,5.9h0.23A3,3,0,0,0,142.47,218.64Z" transform="translate(0 0)"/><path class="c" d="M133.16,218.64a3,3,0,0,0-3-3H130a3,3,0,1,0,0,5.9h0.23A3,3,0,0,0,133.16,218.64Z" transform="translate(0 0)"/><path class="c" d="M123.86,218.64a3,3,0,0,0-3-3h-0.23a3,3,0,1,0,0,5.9h0.23A3,3,0,0,0,123.86,218.64Z" transform="translate(0 0)"/><path class="c" d="M114.54,218.64a3,3,0,0,0-3-3h-0.23a3,3,0,0,0,0,5.9h0.23A3,3,0,0,0,114.54,218.64Z" transform="translate(0 0)"/><path class="c" d="M105.24,218.64a3,3,0,0,0-3-3h-0.23a3,3,0,0,0,0,5.9h0.23A3,3,0,0,0,105.24,218.64Z" transform="translate(0 0)"/><path class="c" d="M95.93,218.64a3,3,0,0,0-3-3H92.75a3,3,0,1,0,0,5.9H93A3,3,0,0,0,95.93,218.64Z" transform="translate(0 0)"/><path class="c" d="M86.62,218.64a3,3,0,0,0-3-3H83.44a3,3,0,0,0,0,5.9h0.23A3,3,0,0,0,86.62,218.64Z" transform="translate(0 0)"/><path class="c" d="M77.31,218.64a3,3,0,0,0-3-3H74.13a3,3,0,0,0,0,5.9h0.23A3,3,0,0,0,77.31,218.64Z" transform="translate(0 0)"/><path class="c" d="M68,218.64a3,3,0,0,0-3-3H64.82a3,3,0,0,0,0,5.9h0.23A3,3,0,0,0,68,218.64Z" transform="translate(0 0)"/><path class="c" d="M58.7,218.64a3,3,0,0,0-3-3H55.52a3,3,0,1,0,0,5.9h0.23A3,3,0,0,0,58.7,218.64Z" transform="translate(0 0)"/><path class="c" d="M49.39,218.64a3,3,0,0,0-3-3H46.21a3,3,0,0,0,0,5.9h0.23A3,3,0,0,0,49.39,218.64Z" transform="translate(0 0)"/><path class="c" d="M40.08,218.64a3,3,0,0,0-3-3H36.9a3,3,0,0,0,0,5.9h0.23A3,3,0,0,0,40.08,218.64Z" transform="translate(0 0)"/><path class="c" d="M151.78,227.61a3,3,0,0,0-3-3H148.6a3,3,0,1,0,0,5.9h0.23A3,3,0,0,0,151.78,227.61Z" transform="translate(0 0)"/><path class="c" d="M142.47,227.61a3,3,0,0,0-3-3h-0.23a3,3,0,1,0,0,5.9h0.23A3,3,0,0,0,142.47,227.61Z" transform="translate(0 0)"/><path class="c" d="M133.16,227.61a3,3,0,0,0-3-3H130a3,3,0,1,0,0,5.9h0.23A3,3,0,0,0,133.16,227.61Z" transform="translate(0 0)"/><path class="c" d="M123.85,227.61a3,3,0,0,0-3-3h-0.23a3,3,0,1,0,0,5.9h0.23A3,3,0,0,0,123.85,227.61Z" transform="translate(0 0)"/><path class="c" d="M114.54,227.61a3,3,0,0,0-3-3h-0.23a3,3,0,0,0,0,5.9h0.23A3,3,0,0,0,114.54,227.61Z" transform="translate(0 0)"/><path class="c" d="M105.24,227.61a3,3,0,0,0-3-3h-0.23a3,3,0,1,0,0,5.9h0.23A3,3,0,0,0,105.24,227.61Z" transform="translate(0 0)"/><path class="c" d="M95.93,227.61a3,3,0,0,0-3-3H92.75a3,3,0,1,0,0,5.9H93A3,3,0,0,0,95.93,227.61Z" transform="translate(0 0)"/><path class="c" d="M86.62,227.61a3,3,0,0,0-3-3H83.44a3,3,0,1,0,0,5.9h0.23A3,3,0,0,0,86.62,227.61Z" transform="translate(0 0)"/><path class="c" d="M77.31,227.61a3,3,0,0,0-3-3H74.13a3,3,0,1,0,0,5.9h0.23A3,3,0,0,0,77.31,227.61Z" transform="translate(0 0)"/><path class="c" d="M68,227.61a3,3,0,0,0-3-3H64.82a3,3,0,1,0,0,5.9h0.23A3,3,0,0,0,68,227.61Z" transform="translate(0 0)"/><path class="c" d="M58.69,227.61a3,3,0,0,0-3-3H55.52a3,3,0,1,0,0,5.9h0.23A3,3,0,0,0,58.69,227.61Z" transform="translate(0 0)"/><path class="c" d="M49.39,227.61a3,3,0,0,0-3-3H46.21a3,3,0,1,0,0,5.9h0.23A3,3,0,0,0,49.39,227.61Z" transform="translate(0 0)"/><path class="c" d="M40.08,227.61a3,3,0,0,0-3-3H36.9a3,3,0,1,0,0,5.9h0.23A3,3,0,0,0,40.08,227.61Z" transform="translate(0 0)"/><path class="c" d="M151.78,236.58a3,3,0,0,0-3-2.95H148.6a3,3,0,1,0,0,5.9h0.22A3,3,0,0,0,151.78,236.58Z" transform="translate(0 0)"/><path class="c" d="M142.47,236.58a3,3,0,0,0-3-2.95h-0.23a3,3,0,0,0,0,5.9h0.23A3,3,0,0,0,142.47,236.58Z" transform="translate(0 0)"/><path class="c" d="M133.16,236.58a3,3,0,0,0-3-2.95H130a3,3,0,1,0,0,5.9h0.23A3,3,0,0,0,133.16,236.58Z" transform="translate(0 0)"/><path class="c" d="M123.85,236.58a3,3,0,0,0-3-2.95h-0.23a3,3,0,1,0,0,5.9h0.23A3,3,0,0,0,123.85,236.58Z" transform="translate(0 0)"/><path class="c" d="M114.54,236.58a3,3,0,0,0-3-2.95h-0.23a3,3,0,1,0,0,5.9h0.23A3,3,0,0,0,114.54,236.58Z" transform="translate(0 0)"/><path class="c" d="M105.24,236.58a3,3,0,0,0-2.95-2.95h-0.23a3,3,0,1,0,0,5.9h0.23A3,3,0,0,0,105.24,236.58Z" transform="translate(0 0)"/><path class="c" d="M95.93,236.58a3,3,0,0,0-3-2.95H92.75a3,3,0,1,0,0,5.9H93A3,3,0,0,0,95.93,236.58Z" transform="translate(0 0)"/><path class="c" d="M86.62,236.58a3,3,0,0,0-2.95-2.95H83.44a3,3,0,1,0,0,5.9h0.23A3,3,0,0,0,86.62,236.58Z" transform="translate(0 0)"/><path class="c" d="M77.31,236.58a3,3,0,0,0-3-2.95H74.13a3,3,0,1,0,0,5.9h0.23A3,3,0,0,0,77.31,236.58Z" transform="translate(0 0)"/><path class="c" d="M68,236.58a3,3,0,0,0-3-2.95H64.82a3,3,0,1,0,0,5.9H65A3,3,0,0,0,68,236.58Z" transform="translate(0 0)"/><path class="c" d="M58.69,236.58a3,3,0,0,0-3-2.95H55.52a3,3,0,1,0,0,5.9h0.23A3,3,0,0,0,58.69,236.58Z" transform="translate(0 0)"/><path class="c" d="M49.38,236.58a3,3,0,0,0-3-2.95H46.21a3,3,0,1,0,0,5.9h0.23A3,3,0,0,0,49.38,236.58Z" transform="translate(0 0)"/><path class="c" d="M40.08,236.58a3,3,0,0,0-3-2.95H36.9a3,3,0,1,0,0,5.9h0.23A3,3,0,0,0,40.08,236.58Z" transform="translate(0 0)"/><path class="c" d="M151.78,245.55a3,3,0,0,0-3-3H148.6a3,3,0,0,0,0,5.9h0.23A3,3,0,0,0,151.78,245.55Z" transform="translate(0 0)"/><path class="c" d="M142.47,245.55a3,3,0,0,0-3-3h-0.23a3,3,0,0,0,0,5.9h0.23A3,3,0,0,0,142.47,245.55Z" transform="translate(0 0)"/><path class="c" d="M133.16,245.55a3,3,0,0,0-3-3H130a3,3,0,1,0,0,5.9h0.23A3,3,0,0,0,133.16,245.55Z" transform="translate(0 0)"/><path class="c" d="M123.86,245.55a3,3,0,0,0-3-3h-0.23a3,3,0,1,0,0,5.9h0.23A3,3,0,0,0,123.86,245.55Z" transform="translate(0 0)"/><path class="c" d="M114.54,245.55a3,3,0,0,0-3-3h-0.23a3,3,0,0,0,0,5.9h0.23A3,3,0,0,0,114.54,245.55Z" transform="translate(0 0)"/><path class="c" d="M105.24,245.55a3,3,0,0,0-3-3h-0.23a3,3,0,1,0,0,5.9h0.23A3,3,0,0,0,105.24,245.55Z" transform="translate(0 0)"/><path class="c" d="M95.93,245.55a3,3,0,0,0-3-3H92.75a3,3,0,1,0,0,5.9H93A3,3,0,0,0,95.93,245.55Z" transform="translate(0 0)"/><path class="c" d="M86.62,245.55a3,3,0,0,0-3-3H83.44a3,3,0,0,0,0,5.9h0.23A3,3,0,0,0,86.62,245.55Z" transform="translate(0 0)"/><path class="c" d="M77.31,245.55a3,3,0,0,0-3-3H74.13a3,3,0,0,0,0,5.9h0.23A3,3,0,0,0,77.31,245.55Z" transform="translate(0 0)"/><path class="c" d="M68,245.55a3,3,0,0,0-3-3H64.82a3,3,0,1,0,0,5.9h0.23A3,3,0,0,0,68,245.55Z" transform="translate(0 0)"/><path class="c" d="M58.7,245.55a3,3,0,0,0-3-3H55.52a3,3,0,1,0,0,5.9h0.23A3,3,0,0,0,58.7,245.55Z" transform="translate(0 0)"/><path class="c" d="M49.39,245.55a3,3,0,0,0-3-3H46.21a3,3,0,0,0,0,5.9h0.23A3,3,0,0,0,49.39,245.55Z" transform="translate(0 0)"/><path class="c" d="M40.08,245.55a3,3,0,0,0-3-3H36.9a3,3,0,1,0,0,5.9h0.23A3,3,0,0,0,40.08,245.55Z" transform="translate(0 0)"/><path class="c" d="M151.78,254.52a3,3,0,0,0-3-3H148.6a3,3,0,0,0,0,5.91h0.23A3,3,0,0,0,151.78,254.52Z" transform="translate(0 0)"/><path class="c" d="M142.47,254.52a3,3,0,0,0-3-3h-0.23a3,3,0,0,0,0,5.91h0.23A3,3,0,0,0,142.47,254.52Z" transform="translate(0 0)"/><path class="c" d="M133.16,254.52a3,3,0,0,0-3-3H130a3,3,0,1,0,0,5.91h0.23A3,3,0,0,0,133.16,254.52Z" transform="translate(0 0)"/><path class="c" d="M123.86,254.52a3,3,0,0,0-3-3h-0.23a3,3,0,0,0,0,5.91h0.23A3,3,0,0,0,123.86,254.52Z" transform="translate(0 0)"/><path class="c" d="M114.54,254.52a3,3,0,0,0-3-3h-0.23a3,3,0,0,0,0,5.91h0.23A3,3,0,0,0,114.54,254.52Z" transform="translate(0 0)"/><path class="c" d="M105.24,254.52a3,3,0,0,0-3-3h-0.23a3,3,0,0,0,0,5.91h0.23A3,3,0,0,0,105.24,254.52Z" transform="translate(0 0)"/><path class="c" d="M95.93,254.52a3,3,0,0,0-3-3H92.75a3,3,0,1,0,0,5.91H93A3,3,0,0,0,95.93,254.52Z" transform="translate(0 0)"/><path class="c" d="M86.62,254.52a3,3,0,0,0-3-3H83.44a3,3,0,0,0,0,5.91h0.23A3,3,0,0,0,86.62,254.52Z" transform="translate(0 0)"/><path class="c" d="M77.31,254.52a3,3,0,0,0-3-3H74.13a3,3,0,0,0,0,5.91h0.23A3,3,0,0,0,77.31,254.52Z" transform="translate(0 0)"/><path class="c" d="M68,254.52a3,3,0,0,0-3-3H64.82a3,3,0,0,0,0,5.91h0.23A3,3,0,0,0,68,254.52Z" transform="translate(0 0)"/><path class="c" d="M58.7,254.52a3,3,0,0,0-3-3H55.52a3,3,0,0,0,0,5.91h0.23A3,3,0,0,0,58.7,254.52Z" transform="translate(0 0)"/><path class="c" d="M49.39,254.52a3,3,0,0,0-3-3H46.21a3,3,0,0,0,0,5.91h0.23A3,3,0,0,0,49.39,254.52Z" transform="translate(0 0)"/><path class="c" d="M40.08,254.52a3,3,0,0,0-3-3H36.9a3,3,0,0,0,0,5.91h0.23A3,3,0,0,0,40.08,254.52Z" transform="translate(0 0)"/><path class="c" d="M151.78,263.49a3,3,0,0,0-3-3H148.6a3,3,0,0,0,0,5.91h0.23A3,3,0,0,0,151.78,263.49Z" transform="translate(0 0)"/><path class="c" d="M142.47,263.49a3,3,0,0,0-3-3h-0.23a3,3,0,0,0,0,5.91h0.23A3,3,0,0,0,142.47,263.49Z" transform="translate(0 0)"/><path class="c" d="M133.16,263.49a3,3,0,0,0-3-3H130a3,3,0,0,0,0,5.91h0.23A3,3,0,0,0,133.16,263.49Z" transform="translate(0 0)"/><path class="c" d="M123.85,263.49a3,3,0,0,0-3-3h-0.23a3,3,0,0,0,0,5.91h0.23A3,3,0,0,0,123.85,263.49Z" transform="translate(0 0)"/><path class="c" d="M114.54,263.49a3,3,0,0,0-3-3h-0.23a3,3,0,0,0,0,5.91h0.23A3,3,0,0,0,114.54,263.49Z" transform="translate(0 0)"/><path class="c" d="M105.24,263.49a3,3,0,0,0-3-3h-0.23a3,3,0,0,0,0,5.91h0.23A3,3,0,0,0,105.24,263.49Z" transform="translate(0 0)"/><path class="c" d="M95.93,263.49a3,3,0,0,0-3-3H92.75a3,3,0,0,0,0,5.91H93A3,3,0,0,0,95.93,263.49Z" transform="translate(0 0)"/><path class="c" d="M86.62,263.49a3,3,0,0,0-3-3H83.44a3,3,0,0,0,0,5.91h0.23A3,3,0,0,0,86.62,263.49Z" transform="translate(0 0)"/><path class="c" d="M77.31,263.49a3,3,0,0,0-3-3H74.13a3,3,0,0,0,0,5.91h0.23A3,3,0,0,0,77.31,263.49Z" transform="translate(0 0)"/><path class="c" d="M68,263.49a3,3,0,0,0-3-3H64.82a3,3,0,0,0,0,5.91h0.23A3,3,0,0,0,68,263.49Z" transform="translate(0 0)"/><path class="c" d="M58.69,263.49a3,3,0,0,0-3-3H55.52a3,3,0,0,0,0,5.91h0.23A3,3,0,0,0,58.69,263.49Z" transform="translate(0 0)"/><path class="c" d="M49.39,263.49a3,3,0,0,0-3-3H46.21a3,3,0,0,0,0,5.91h0.23A3,3,0,0,0,49.39,263.49Z" transform="translate(0 0)"/><path class="c" d="M40.08,263.49a3,3,0,0,0-3-3H36.9a3,3,0,0,0,0,5.91h0.23A3,3,0,0,0,40.08,263.49Z" transform="translate(0 0)"/><path class="c" d="M151.78,272.47a3,3,0,0,0-3-3H148.6a3,3,0,0,0,0,5.9h0.23A3,3,0,0,0,151.78,272.47Z" transform="translate(0 0)"/><path class="c" d="M142.47,272.47a3,3,0,0,0-3-3h-0.23a3,3,0,1,0,0,5.9h0.23A3,3,0,0,0,142.47,272.47Z" transform="translate(0 0)"/><path class="c" d="M133.16,272.47a3,3,0,0,0-3-3H130a3,3,0,0,0,0,5.9h0.23A3,3,0,0,0,133.16,272.47Z" transform="translate(0 0)"/><path class="c" d="M123.85,272.47a3,3,0,0,0-3-3h-0.23a3,3,0,0,0,0,5.9h0.23A3,3,0,0,0,123.85,272.47Z" transform="translate(0 0)"/><path class="c" d="M114.54,272.47a3,3,0,0,0-3-3h-0.23a3,3,0,0,0,0,5.9h0.23A3,3,0,0,0,114.54,272.47Z" transform="translate(0 0)"/><path class="c" d="M105.24,272.47a3,3,0,0,0-3-3h-0.23a3,3,0,1,0,0,5.9h0.23A3,3,0,0,0,105.24,272.47Z" transform="translate(0 0)"/><path class="c" d="M95.93,272.47a3,3,0,0,0-3-3H92.75a3,3,0,0,0,0,5.9H93A3,3,0,0,0,95.93,272.47Z" transform="translate(0 0)"/><path class="c" d="M86.62,272.47a3,3,0,0,0-3-3H83.44a3,3,0,0,0,0,5.9h0.23A3,3,0,0,0,86.62,272.47Z" transform="translate(0 0)"/><path class="c" d="M77.31,272.47a3,3,0,0,0-3-3H74.13a3,3,0,1,0,0,5.9h0.23A3,3,0,0,0,77.31,272.47Z" transform="translate(0 0)"/><path class="c" d="M68,272.47a3,3,0,0,0-3-3H64.82a3,3,0,0,0,0,5.9h0.23A3,3,0,0,0,68,272.47Z" transform="translate(0 0)"/><path class="c" d="M58.69,272.47a3,3,0,0,0-3-3H55.52a3,3,0,0,0,0,5.9h0.23A3,3,0,0,0,58.69,272.47Z" transform="translate(0 0)"/><path class="c" d="M49.39,272.47a3,3,0,0,0-3-3H46.21a3,3,0,0,0,0,5.9h0.23A3,3,0,0,0,49.39,272.47Z" transform="translate(0 0)"/><path class="c" d="M40.08,272.47a3,3,0,0,0-3-3H36.9a3,3,0,1,0,0,5.9h0.23A3,3,0,0,0,40.08,272.47Z" transform="translate(0 0)"/><path class="c" d="M151.78,281.44a3,3,0,0,0-3-3H148.6a3,3,0,0,0,0,5.9h0.23A3,3,0,0,0,151.78,281.44Z" transform="translate(0 0)"/><path class="c" d="M142.47,281.44a3,3,0,0,0-3-3h-0.23a3,3,0,1,0,0,5.9h0.23A3,3,0,0,0,142.47,281.44Z" transform="translate(0 0)"/><path class="c" d="M133.16,281.44a3,3,0,0,0-3-3H130a3,3,0,1,0,0,5.9h0.23A3,3,0,0,0,133.16,281.44Z" transform="translate(0 0)"/><path class="c" d="M123.85,281.44a3,3,0,0,0-3-3h-0.23a3,3,0,1,0,0,5.9h0.23A3,3,0,0,0,123.85,281.44Z" transform="translate(0 0)"/><path class="c" d="M114.54,281.44a3,3,0,0,0-3-3h-0.23a3,3,0,0,0,0,5.9h0.23A3,3,0,0,0,114.54,281.44Z" transform="translate(0 0)"/><path class="c" d="M105.24,281.44a3,3,0,0,0-3-3h-0.23a3,3,0,1,0,0,5.9h0.23A3,3,0,0,0,105.24,281.44Z" transform="translate(0 0)"/><path class="c" d="M95.93,281.44a3,3,0,0,0-3-3H92.75a3,3,0,1,0,0,5.9H93A3,3,0,0,0,95.93,281.44Z" transform="translate(0 0)"/><path class="c" d="M86.62,281.44a3,3,0,0,0-3-3H83.44a3,3,0,0,0,0,5.9h0.23A3,3,0,0,0,86.62,281.44Z" transform="translate(0 0)"/><path class="c" d="M77.31,281.44a3,3,0,0,0-3-3H74.13a3,3,0,1,0,0,5.9h0.23A3,3,0,0,0,77.31,281.44Z" transform="translate(0 0)"/><path class="c" d="M68,281.44a3,3,0,0,0-3-3H64.82a3,3,0,1,0,0,5.9h0.23A3,3,0,0,0,68,281.44Z" transform="translate(0 0)"/><path class="c" d="M58.69,281.44a3,3,0,0,0-3-3H55.52a3,3,0,1,0,0,5.9h0.23A3,3,0,0,0,58.69,281.44Z" transform="translate(0 0)"/><path class="c" d="M49.39,281.44a3,3,0,0,0-3-3H46.21a3,3,0,1,0,0,5.9h0.23A3,3,0,0,0,49.39,281.44Z" transform="translate(0 0)"/><path class="c" d="M40.08,281.44a3,3,0,0,0-3-3H36.9a3,3,0,1,0,0,5.9h0.23A3,3,0,0,0,40.08,281.44Z" transform="translate(0 0)"/><path class="c" d="M151.78,290.4a3,3,0,0,0-3-3H148.6a3,3,0,0,0,0,5.91h0.23A3,3,0,0,0,151.78,290.4Z" transform="translate(0 0)"/><path class="c" d="M142.47,290.4a3,3,0,0,0-3-3h-0.23a3,3,0,0,0,0,5.91h0.23A3,3,0,0,0,142.47,290.4Z" transform="translate(0 0)"/><path class="c" d="M133.16,290.4a3,3,0,0,0-3-3H130a3,3,0,0,0,0,5.91h0.23A3,3,0,0,0,133.16,290.4Z" transform="translate(0 0)"/><path class="c" d="M123.85,290.4a3,3,0,0,0-3-3h-0.23a3,3,0,0,0,0,5.91h0.23A3,3,0,0,0,123.85,290.4Z" transform="translate(0 0)"/><path class="c" d="M114.54,290.4a3,3,0,0,0-3-3h-0.23a3,3,0,0,0,0,5.91h0.23A3,3,0,0,0,114.54,290.4Z" transform="translate(0 0)"/><path class="c" d="M105.24,290.4a3,3,0,0,0-3-3h-0.23a3,3,0,0,0,0,5.91h0.23A3,3,0,0,0,105.24,290.4Z" transform="translate(0 0)"/><path class="c" d="M95.93,290.4a3,3,0,0,0-3-3H92.75a3,3,0,0,0,0,5.91H93A3,3,0,0,0,95.93,290.4Z" transform="translate(0 0)"/><path class="c" d="M86.62,290.4a3,3,0,0,0-3-3H83.44a3,3,0,0,0,0,5.91h0.23A3,3,0,0,0,86.62,290.4Z" transform="translate(0 0)"/><path class="c" d="M77.31,290.4a3,3,0,0,0-3-3H74.13a3,3,0,0,0,0,5.91h0.23A3,3,0,0,0,77.31,290.4Z" transform="translate(0 0)"/><path class="c" d="M68,290.4a3,3,0,0,0-3-3H64.82a3,3,0,0,0,0,5.91h0.23A3,3,0,0,0,68,290.4Z" transform="translate(0 0)"/><path class="c" d="M58.69,290.4a3,3,0,0,0-3-3H55.52a3,3,0,0,0,0,5.91h0.23A3,3,0,0,0,58.69,290.4Z" transform="translate(0 0)"/><path class="c" d="M49.39,290.4a3,3,0,0,0-3-3H46.21a3,3,0,0,0,0,5.91h0.23A3,3,0,0,0,49.39,290.4Z" transform="translate(0 0)"/><path class="c" d="M40.08,290.4a3,3,0,0,0-3-3H36.9a3,3,0,0,0,0,5.91h0.23A3,3,0,0,0,40.08,290.4Z" transform="translate(0 0)"/><path class="c" d="M151.78,299.38a3,3,0,0,0-3-3H148.6a3,3,0,0,0,0,5.9h0.23A3,3,0,0,0,151.78,299.38Z" transform="translate(0 0)"/><path class="c" d="M142.47,299.38a3,3,0,0,0-3-3h-0.23a3,3,0,0,0,0,5.9h0.23A3,3,0,0,0,142.47,299.38Z" transform="translate(0 0)"/><path class="c" d="M133.16,299.38a3,3,0,0,0-3-3H130a3,3,0,1,0,0,5.9h0.23A3,3,0,0,0,133.16,299.38Z" transform="translate(0 0)"/><path class="c" d="M123.86,299.38a3,3,0,0,0-3-3h-0.23a3,3,0,1,0,0,5.9h0.23A3,3,0,0,0,123.86,299.38Z" transform="translate(0 0)"/><path class="c" d="M114.54,299.38a3,3,0,0,0-3-3h-0.23a3,3,0,0,0,0,5.9h0.23A3,3,0,0,0,114.54,299.38Z" transform="translate(0 0)"/><path class="c" d="M105.24,299.38a3,3,0,0,0-3-3h-0.23a3,3,0,1,0,0,5.9h0.23A3,3,0,0,0,105.24,299.38Z" transform="translate(0 0)"/><path class="c" d="M95.93,299.38a3,3,0,0,0-3-3H92.75a3,3,0,1,0,0,5.9H93A3,3,0,0,0,95.93,299.38Z" transform="translate(0 0)"/><path class="c" d="M86.62,299.38a3,3,0,0,0-3-3H83.44a3,3,0,1,0,0,5.9h0.23A3,3,0,0,0,86.62,299.38Z" transform="translate(0 0)"/><path class="c" d="M77.31,299.38a3,3,0,0,0-3-3H74.13a3,3,0,1,0,0,5.9h0.23A3,3,0,0,0,77.31,299.38Z" transform="translate(0 0)"/><path class="c" d="M68,299.38a3,3,0,0,0-3-3H64.82a3,3,0,1,0,0,5.9h0.23A3,3,0,0,0,68,299.38Z" transform="translate(0 0)"/><path class="c" d="M58.7,299.38a3,3,0,0,0-3-3H55.52a3,3,0,1,0,0,5.9h0.23A3,3,0,0,0,58.7,299.38Z" transform="translate(0 0)"/><path class="c" d="M49.39,299.38a3,3,0,0,0-3-3H46.21a3,3,0,1,0,0,5.9h0.23A3,3,0,0,0,49.39,299.38Z" transform="translate(0 0)"/><path class="c" d="M40.08,299.38a3,3,0,0,0-3-3H36.9a3,3,0,1,0,0,5.9h0.23A3,3,0,0,0,40.08,299.38Z" transform="translate(0 0)"/><path class="c" d="M151.78,308.35a3,3,0,0,0-3-3H148.6a3,3,0,0,0,0,5.91h0.22A3,3,0,0,0,151.78,308.35Z" transform="translate(0 0)"/><path class="c" d="M142.47,308.35a3,3,0,0,0-3-3h-0.23a3,3,0,0,0,0,5.91h0.23A3,3,0,0,0,142.47,308.35Z" transform="translate(0 0)"/><path class="c" d="M133.16,308.35a3,3,0,0,0-3-3H130a3,3,0,0,0,0,5.91h0.23A3,3,0,0,0,133.16,308.35Z" transform="translate(0 0)"/><path class="c" d="M123.85,308.35a3,3,0,0,0-3-3h-0.23a3,3,0,0,0,0,5.91h0.23A3,3,0,0,0,123.85,308.35Z" transform="translate(0 0)"/><path class="c" d="M114.54,308.35a3,3,0,0,0-3-3h-0.23a3,3,0,0,0,0,5.91h0.23A3,3,0,0,0,114.54,308.35Z" transform="translate(0 0)"/><path class="c" d="M105.24,308.35a3,3,0,0,0-2.95-3h-0.23a3,3,0,0,0,0,5.91h0.23A3,3,0,0,0,105.24,308.35Z" transform="translate(0 0)"/><path class="c" d="M95.93,308.35a3,3,0,0,0-3-3H92.75a3,3,0,0,0,0,5.91H93A3,3,0,0,0,95.93,308.35Z" transform="translate(0 0)"/><path class="c" d="M86.62,308.35a3,3,0,0,0-2.95-3H83.44a3,3,0,0,0,0,5.91h0.23A3,3,0,0,0,86.62,308.35Z" transform="translate(0 0)"/><path class="c" d="M77.31,308.35a3,3,0,0,0-3-3H74.13a3,3,0,0,0,0,5.91h0.23A3,3,0,0,0,77.31,308.35Z" transform="translate(0 0)"/><path class="c" d="M68,308.35a3,3,0,0,0-3-3H64.82a3,3,0,0,0,0,5.91H65A3,3,0,0,0,68,308.35Z" transform="translate(0 0)"/><path class="c" d="M58.69,308.35a3,3,0,0,0-3-3H55.52a3,3,0,0,0,0,5.91h0.23A3,3,0,0,0,58.69,308.35Z" transform="translate(0 0)"/><path class="c" d="M49.38,308.35a3,3,0,0,0-3-3H46.21a3,3,0,0,0,0,5.91h0.23A3,3,0,0,0,49.38,308.35Z" transform="translate(0 0)"/><path class="c" d="M40.08,308.35a3,3,0,0,0-3-3H36.9a3,3,0,0,0,0,5.91h0.23A3,3,0,0,0,40.08,308.35Z" transform="translate(0 0)"/><path class="c" d="M151.78,317.32a3,3,0,0,0-3-2.95H148.6a3,3,0,0,0,0,5.91h0.23A3,3,0,0,0,151.78,317.32Z" transform="translate(0 0)"/><path class="c" d="M142.47,317.32a3,3,0,0,0-3-2.95h-0.23a3,3,0,0,0,0,5.91h0.23A3,3,0,0,0,142.47,317.32Z" transform="translate(0 0)"/><path class="c" d="M133.16,317.32a3,3,0,0,0-3-2.95H130a3,3,0,1,0,0,5.91h0.23A3,3,0,0,0,133.16,317.32Z" transform="translate(0 0)"/><path class="c" d="M123.86,317.32a3,3,0,0,0-3-2.95h-0.23a3,3,0,0,0,0,5.91h0.23A3,3,0,0,0,123.86,317.32Z" transform="translate(0 0)"/><path class="c" d="M114.54,317.32a3,3,0,0,0-3-2.95h-0.23a3,3,0,0,0,0,5.91h0.23A3,3,0,0,0,114.54,317.32Z" transform="translate(0 0)"/><path class="c" d="M105.24,317.32a3,3,0,0,0-3-2.95h-0.23a3,3,0,0,0,0,5.91h0.23A3,3,0,0,0,105.24,317.32Z" transform="translate(0 0)"/><path class="c" d="M95.93,317.32a3,3,0,0,0-3-2.95H92.75a3,3,0,0,0,0,5.91H93A3,3,0,0,0,95.93,317.32Z" transform="translate(0 0)"/><path class="c" d="M86.62,317.32a3,3,0,0,0-3-2.95H83.44a3,3,0,0,0,0,5.91h0.23A3,3,0,0,0,86.62,317.32Z" transform="translate(0 0)"/><path class="c" d="M77.31,317.32a3,3,0,0,0-3-2.95H74.13a3,3,0,0,0,0,5.91h0.23A3,3,0,0,0,77.31,317.32Z" transform="translate(0 0)"/><path class="c" d="M68,317.32a3,3,0,0,0-3-2.95H64.82a3,3,0,0,0,0,5.91h0.23A3,3,0,0,0,68,317.32Z" transform="translate(0 0)"/><path class="c" d="M58.7,317.32a3,3,0,0,0-3-2.95H55.52a3,3,0,0,0,0,5.91h0.23A3,3,0,0,0,58.7,317.32Z" transform="translate(0 0)"/><path class="c" d="M49.39,317.32a3,3,0,0,0-3-2.95H46.21a3,3,0,0,0,0,5.91h0.23A3,3,0,0,0,49.39,317.32Z" transform="translate(0 0)"/><path class="c" d="M40.08,317.32a3,3,0,0,0-3-2.95H36.9a3,3,0,0,0,0,5.91h0.23A3,3,0,0,0,40.08,317.32Z" transform="translate(0 0)"/><path class="c" d="M151.78,326.29a3,3,0,0,0-3-3H148.6a3,3,0,0,0,0,5.9h0.23A3,3,0,0,0,151.78,326.29Z" transform="translate(0 0)"/><path class="c" d="M142.47,326.29a3,3,0,0,0-3-3h-0.23a3,3,0,0,0,0,5.9h0.23A3,3,0,0,0,142.47,326.29Z" transform="translate(0 0)"/><path class="c" d="M133.16,326.29a3,3,0,0,0-3-3H130a3,3,0,0,0,0,5.9h0.23A3,3,0,0,0,133.16,326.29Z" transform="translate(0 0)"/><path class="c" d="M123.85,326.29a3,3,0,0,0-3-3h-0.23a3,3,0,0,0,0,5.9h0.23A3,3,0,0,0,123.85,326.29Z" transform="translate(0 0)"/><path class="c" d="M114.54,326.29a3,3,0,0,0-3-3h-0.23a3,3,0,0,0,0,5.9h0.23A3,3,0,0,0,114.54,326.29Z" transform="translate(0 0)"/><path class="c" d="M105.24,326.29a3,3,0,0,0-2.95-3h-0.23a3,3,0,1,0,0,5.9h0.23A3,3,0,0,0,105.24,326.29Z" transform="translate(0 0)"/><path class="c" d="M95.93,326.29a3,3,0,0,0-3-3H92.75a3,3,0,1,0,0,5.9H93A3,3,0,0,0,95.93,326.29Z" transform="translate(0 0)"/><path class="c" d="M86.62,326.29a3,3,0,0,0-2.95-3H83.44a3,3,0,0,0,0,5.9h0.23A3,3,0,0,0,86.62,326.29Z" transform="translate(0 0)"/><path class="c" d="M77.31,326.29a3,3,0,0,0-3-3H74.13a3,3,0,1,0,0,5.9h0.23A3,3,0,0,0,77.31,326.29Z" transform="translate(0 0)"/><path class="c" d="M68,326.29a3,3,0,0,0-3-3H64.82a3,3,0,1,0,0,5.9H65A3,3,0,0,0,68,326.29Z" transform="translate(0 0)"/><path class="c" d="M58.69,326.29a3,3,0,0,0-3-3H55.52a3,3,0,1,0,0,5.9h0.23A3,3,0,0,0,58.69,326.29Z" transform="translate(0 0)"/><path class="c" d="M49.38,326.29a3,3,0,0,0-3-3H46.21a3,3,0,0,0,0,5.9h0.23A3,3,0,0,0,49.38,326.29Z" transform="translate(0 0)"/><path class="c" d="M40.08,326.29a3,3,0,0,0-3-3H36.9a3,3,0,0,0,0,5.9h0.23A3,3,0,0,0,40.08,326.29Z" transform="translate(0 0)"/><path class="c" d="M151.78,335.26a3,3,0,0,0-3-3H148.6a3,3,0,0,0,0,5.9h0.23A3,3,0,0,0,151.78,335.26Z" transform="translate(0 0)"/><path class="c" d="M142.47,335.26a3,3,0,0,0-3-3h-0.23a3,3,0,1,0,0,5.9h0.23A3,3,0,0,0,142.47,335.26Z" transform="translate(0 0)"/><path class="c" d="M133.16,335.26a3,3,0,0,0-3-3H130a3,3,0,1,0,0,5.9h0.23A3,3,0,0,0,133.16,335.26Z" transform="translate(0 0)"/><path class="c" d="M123.85,335.26a3,3,0,0,0-3-3h-0.23a3,3,0,0,0,0,5.9h0.23A3,3,0,0,0,123.85,335.26Z" transform="translate(0 0)"/><path class="c" d="M114.54,335.26a3,3,0,0,0-3-3h-0.23a3,3,0,0,0,0,5.9h0.23A3,3,0,0,0,114.54,335.26Z" transform="translate(0 0)"/><path class="c" d="M105.24,335.26a3,3,0,0,0-3-3h-0.23a3,3,0,1,0,0,5.9h0.23A3,3,0,0,0,105.24,335.26Z" transform="translate(0 0)"/><path class="c" d="M95.93,335.26a3,3,0,0,0-3-3H92.75a3,3,0,0,0,0,5.9H93A3,3,0,0,0,95.93,335.26Z" transform="translate(0 0)"/><path class="c" d="M86.62,335.26a3,3,0,0,0-3-3H83.44a3,3,0,0,0,0,5.9h0.23A3,3,0,0,0,86.62,335.26Z" transform="translate(0 0)"/><path class="c" d="M77.31,335.26a3,3,0,0,0-3-3H74.13a3,3,0,1,0,0,5.9h0.23A3,3,0,0,0,77.31,335.26Z" transform="translate(0 0)"/><path class="c" d="M68,335.26a3,3,0,0,0-3-3H64.82a3,3,0,1,0,0,5.9h0.23A3,3,0,0,0,68,335.26Z" transform="translate(0 0)"/><path class="c" d="M58.69,335.26a3,3,0,0,0-3-3H55.52a3,3,0,0,0,0,5.9h0.23A3,3,0,0,0,58.69,335.26Z" transform="translate(0 0)"/><path class="c" d="M49.39,335.26a3,3,0,0,0-3-3H46.21a3,3,0,1,0,0,5.9h0.23A3,3,0,0,0,49.39,335.26Z" transform="translate(0 0)"/><path class="c" d="M40.08,335.26a3,3,0,0,0-3-3H36.9a3,3,0,1,0,0,5.9h0.23A3,3,0,0,0,40.08,335.26Z" transform="translate(0 0)"/><path class="c" d="M151.78,344.23a3,3,0,0,0-3-3H148.6a2.95,2.95,0,1,0,0,5.9h0.23A3,3,0,0,0,151.78,344.23Z" transform="translate(0 0)"/><path class="c" d="M142.47,344.23a3,3,0,0,0-3-3h-0.23a2.95,2.95,0,1,0,0,5.9h0.23A3,3,0,0,0,142.47,344.23Z" transform="translate(0 0)"/><path class="c" d="M133.16,344.23a3,3,0,0,0-3-3H130a2.95,2.95,0,1,0,0,5.9h0.23A3,3,0,0,0,133.16,344.23Z" transform="translate(0 0)"/><path class="c" d="M123.86,344.23a3,3,0,0,0-3-3h-0.23a2.95,2.95,0,1,0,0,5.9h0.23A3,3,0,0,0,123.86,344.23Z" transform="translate(0 0)"/><path class="c" d="M114.54,344.23a3,3,0,0,0-3-3h-0.23a2.95,2.95,0,1,0,0,5.9h0.23A3,3,0,0,0,114.54,344.23Z" transform="translate(0 0)"/><path class="c" d="M105.24,344.23a3,3,0,0,0-3-3h-0.23a2.95,2.95,0,1,0,0,5.9h0.23A3,3,0,0,0,105.24,344.23Z" transform="translate(0 0)"/><path class="c" d="M86.62,344.23a3,3,0,0,0-3-3H83.44a2.95,2.95,0,1,0,0,5.9h0.23A3,3,0,0,0,86.62,344.23Z" transform="translate(0 0)"/><path class="c" d="M77.31,344.23a3,3,0,0,0-3-3H74.13a2.95,2.95,0,1,0,0,5.9h0.23A3,3,0,0,0,77.31,344.23Z" transform="translate(0 0)"/><path class="c" d="M68,344.23a3,3,0,0,0-3-3H64.82a2.95,2.95,0,1,0,0,5.9h0.23A3,3,0,0,0,68,344.23Z" transform="translate(0 0)"/><path class="c" d="M58.7,344.23a3,3,0,0,0-3-3H55.52a2.95,2.95,0,1,0,0,5.9h0.23A3,3,0,0,0,58.7,344.23Z" transform="translate(0 0)"/><path class="c" d="M49.39,344.23a3,3,0,0,0-3-3H46.21a2.95,2.95,0,1,0,0,5.9h0.23A3,3,0,0,0,49.39,344.23Z" transform="translate(0 0)"/><path class="c" d="M40.08,344.23a3,3,0,0,0-3-3H36.9a2.95,2.95,0,1,0,0,5.9h0.23A3,3,0,0,0,40.08,344.23Z" transform="translate(0 0)"/><path class="c" d="M151.78,353.2a3,3,0,0,0-3-3H148.6a3,3,0,0,0,0,5.9h0.23A3,3,0,0,0,151.78,353.2Z" transform="translate(0 0)"/><path class="c" d="M142.47,353.2a3,3,0,0,0-3-3h-0.23a3,3,0,0,0,0,5.9h0.23A3,3,0,0,0,142.47,353.2Z" transform="translate(0 0)"/><path class="c" d="M123.85,353.2a3,3,0,0,0-3-3h-0.23a3,3,0,0,0,0,5.9h0.23A3,3,0,0,0,123.85,353.2Z" transform="translate(0 0)"/><path class="c" d="M114.54,353.2a3,3,0,0,0-3-3h-0.23a3,3,0,0,0,0,5.9h0.23A3,3,0,0,0,114.54,353.2Z" transform="translate(0 0)"/><path class="c" d="M105.24,353.2a3,3,0,0,0-2.95-3h-0.23a3,3,0,1,0,0,5.9h0.23A3,3,0,0,0,105.24,353.2Z" transform="translate(0 0)"/><path class="c" d="M86.62,353.2a3,3,0,0,0-2.95-3H83.44a3,3,0,0,0,0,5.9h0.23A3,3,0,0,0,86.62,353.2Z" transform="translate(0 0)"/><path class="c" d="M77.31,353.2a3,3,0,0,0-3-3H74.13a3,3,0,0,0,0,5.9h0.23A3,3,0,0,0,77.31,353.2Z" transform="translate(0 0)"/><path class="c" d="M68,353.2a3,3,0,0,0-3-3H64.82a3,3,0,1,0,0,5.9H65A3,3,0,0,0,68,353.2Z" transform="translate(0 0)"/><path class="c" d="M49.38,353.2a3,3,0,0,0-3-3H46.21a3,3,0,0,0,0,5.9h0.23A3,3,0,0,0,49.38,353.2Z" transform="translate(0 0)"/><path class="c" d="M40.08,353.2a3,3,0,0,0-3-3H36.9a3,3,0,0,0,0,5.9h0.23A3,3,0,0,0,40.08,353.2Z" transform="translate(0 0)"/><path class="c" d="M123.85,362.17a3,3,0,0,0-3-3h-0.23a3,3,0,0,0,0,5.91h0.23A3,3,0,0,0,123.85,362.17Z" transform="translate(0 0)"/><path class="c" d="M114.54,362.17a3,3,0,0,0-3-3h-0.23a3,3,0,0,0,0,5.91h0.23A3,3,0,0,0,114.54,362.17Z" transform="translate(0 0)"/><path class="c" d="M105.24,362.17a3,3,0,0,0-3-3h-0.23a3,3,0,0,0,0,5.91h0.23A3,3,0,0,0,105.24,362.17Z" transform="translate(0 0)"/><path class="c" d="M86.62,362.17a3,3,0,0,0-3-3H83.44a3,3,0,0,0,0,5.91h0.23A3,3,0,0,0,86.62,362.17Z" transform="translate(0 0)"/><path class="c" d="M77.31,362.17a3,3,0,0,0-3-3H74.13a3,3,0,0,0,0,5.91h0.23A3,3,0,0,0,77.31,362.17Z" transform="translate(0 0)"/><path class="c" d="M68,362.17a3,3,0,0,0-3-3H64.82a3,3,0,0,0,0,5.91h0.23A3,3,0,0,0,68,362.17Z" transform="translate(0 0)"/><path class="c" d="M123.86,371.14a3,3,0,0,0-3-3h-0.23a2.95,2.95,0,1,0,0,5.9h0.23A3,3,0,0,0,123.86,371.14Z" transform="translate(0 0)"/><path class="c" d="M114.54,371.14a3,3,0,0,0-3-3h-0.23a2.95,2.95,0,1,0,0,5.9h0.23A3,3,0,0,0,114.54,371.14Z" transform="translate(0 0)"/><path class="c" d="M105.24,371.14a3,3,0,0,0-3-3h-0.23a2.95,2.95,0,1,0,0,5.9h0.23A3,3,0,0,0,105.24,371.14Z" transform="translate(0 0)"/><path class="c" d="M86.62,371.14a3,3,0,0,0-3-3H83.44a2.95,2.95,0,1,0,0,5.9h0.23A3,3,0,0,0,86.62,371.14Z" transform="translate(0 0)"/><path class="c" d="M77.31,371.14a3,3,0,0,0-3-3H74.13a2.95,2.95,0,1,0,0,5.9h0.23A3,3,0,0,0,77.31,371.14Z" transform="translate(0 0)"/><path class="c" d="M68,371.14a3,3,0,0,0-3-3H64.82a2.95,2.95,0,1,0,0,5.9h0.23A3,3,0,0,0,68,371.14Z" transform="translate(0 0)"/><path class="c" d="M123.85,380.11a3,3,0,0,0-3-3h-0.23a3,3,0,1,0,0,5.9h0.23A3,3,0,0,0,123.85,380.11Z" transform="translate(0 0)"/><path class="c" d="M114.54,380.11a3,3,0,0,0-3-3h-0.23a3,3,0,0,0,0,5.9h0.23A3,3,0,0,0,114.54,380.11Z" transform="translate(0 0)"/><path class="c" d="M105.24,380.11a3,3,0,0,0-2.95-3h-0.23a3,3,0,1,0,0,5.9h0.23A3,3,0,0,0,105.24,380.11Z" transform="translate(0 0)"/><path class="c" d="M86.62,380.11a3,3,0,0,0-2.95-3H83.44a3,3,0,0,0,0,5.9h0.23A3,3,0,0,0,86.62,380.11Z" transform="translate(0 0)"/><path class="c" d="M77.31,380.11a3,3,0,0,0-3-3H74.13a3,3,0,1,0,0,5.9h0.23A3,3,0,0,0,77.31,380.11Z" transform="translate(0 0)"/><path class="c" d="M68,380.11a3,3,0,0,0-3-3H64.82a3,3,0,1,0,0,5.9H65A3,3,0,0,0,68,380.11Z" transform="translate(0 0)"/><path class="c" d="M123.85,389.08a3,3,0,0,0-3-2.95h-0.23a3,3,0,0,0,0,5.91h0.23A3,3,0,0,0,123.85,389.08Z" transform="translate(0 0)"/><path class="c" d="M114.54,389.08a3,3,0,0,0-3-2.95h-0.23a3,3,0,0,0,0,5.91h0.23A3,3,0,0,0,114.54,389.08Z" transform="translate(0 0)"/><path class="c" d="M105.24,389.08a3,3,0,0,0-3-2.95h-0.23a3,3,0,0,0,0,5.91h0.23A3,3,0,0,0,105.24,389.08Z" transform="translate(0 0)"/><path class="c" d="M86.62,389.08a3,3,0,0,0-3-2.95H83.44a3,3,0,0,0,0,5.91h0.23A3,3,0,0,0,86.62,389.08Z" transform="translate(0 0)"/><path class="c" d="M77.31,389.08a3,3,0,0,0-3-2.95H74.13a3,3,0,0,0,0,5.91h0.23A3,3,0,0,0,77.31,389.08Z" transform="translate(0 0)"/><path class="c" d="M68,389.08a3,3,0,0,0-3-2.95H64.82a3,3,0,0,0,0,5.91h0.23A3,3,0,0,0,68,389.08Z" transform="translate(0 0)"/><path class="c" d="M123.86,398.05a3,3,0,0,0-3-2.95h-0.23a3,3,0,1,0,0,5.9h0.23A3,3,0,0,0,123.86,398.05Z" transform="translate(0 0)"/><path class="c" d="M114.54,398.05a3,3,0,0,0-3-2.95h-0.23a3,3,0,0,0,0,5.9h0.23A3,3,0,0,0,114.54,398.05Z" transform="translate(0 0)"/><path class="c" d="M105.24,398.05a3,3,0,0,0-3-2.95h-0.23a3,3,0,1,0,0,5.9h0.23A3,3,0,0,0,105.24,398.05Z" transform="translate(0 0)"/><path class="c" d="M86.62,398.05a3,3,0,0,0-3-2.95H83.44a3,3,0,1,0,0,5.9h0.23A3,3,0,0,0,86.62,398.05Z" transform="translate(0 0)"/><path class="c" d="M77.31,398.05a3,3,0,0,0-3-2.95H74.13a3,3,0,1,0,0,5.9h0.23A3,3,0,0,0,77.31,398.05Z" transform="translate(0 0)"/><path class="c" d="M68,398.05a3,3,0,0,0-3-2.95H64.82a3,3,0,1,0,0,5.9h0.23A3,3,0,0,0,68,398.05Z" transform="translate(0 0)"/><path class="c" d="M123.85,407a3,3,0,0,0-3-3h-0.23a3,3,0,1,0,0,5.9h0.23A3,3,0,0,0,123.85,407Z" transform="translate(0 0)"/><path class="c" d="M114.54,407a3,3,0,0,0-3-3h-0.23a3,3,0,0,0,0,5.9h0.23A3,3,0,0,0,114.54,407Z" transform="translate(0 0)"/><path class="c" d="M105.24,407a3,3,0,0,0-3-3h-0.23a3,3,0,1,0,0,5.9h0.23A3,3,0,0,0,105.24,407Z" transform="translate(0 0)"/><path class="c" d="M86.62,407a3,3,0,0,0-3-3H83.44a3,3,0,0,0,0,5.9h0.23A3,3,0,0,0,86.62,407Z" transform="translate(0 0)"/><path class="c" d="M77.31,407a3,3,0,0,0-3-3H74.13a3,3,0,1,0,0,5.9h0.23A3,3,0,0,0,77.31,407Z" transform="translate(0 0)"/><path class="c" d="M68,407a3,3,0,0,0-3-3H64.82a3,3,0,1,0,0,5.9h0.23A3,3,0,0,0,68,407Z" transform="translate(0 0)"/><path class="c" d="M123.85,416a3,3,0,0,0-3-2.95h-0.23a3,3,0,0,0,0,5.91h0.23A3,3,0,0,0,123.85,416Z" transform="translate(0 0)"/><path class="c" d="M114.54,416a3,3,0,0,0-3-2.95h-0.23a3,3,0,0,0,0,5.91h0.23A3,3,0,0,0,114.54,416Z" transform="translate(0 0)"/><path class="c" d="M105.24,416a3,3,0,0,0-3-2.95h-0.23a3,3,0,0,0,0,5.91h0.23A3,3,0,0,0,105.24,416Z" transform="translate(0 0)"/><path class="c" d="M86.62,416a3,3,0,0,0-3-2.95H83.44a3,3,0,0,0,0,5.91h0.23A3,3,0,0,0,86.62,416Z" transform="translate(0 0)"/><path class="c" d="M77.31,416a3,3,0,0,0-3-2.95H74.13a3,3,0,0,0,0,5.91h0.23A3,3,0,0,0,77.31,416Z" transform="translate(0 0)"/><path class="c" d="M68,416a3,3,0,0,0-3-2.95H64.82a3,3,0,0,0,0,5.91h0.23A3,3,0,0,0,68,416Z" transform="translate(0 0)"/><path class="c" d="M123.85,425a3,3,0,0,0-3-3h-0.23a3,3,0,0,0,0,5.9h0.23A3,3,0,0,0,123.85,425Z" transform="translate(0 0)"/><path class="c" d="M114.54,425a3,3,0,0,0-3-3h-0.23a3,3,0,0,0,0,5.9h0.23A3,3,0,0,0,114.54,425Z" transform="translate(0 0)"/><path class="c" d="M105.24,425a3,3,0,0,0-3-3h-0.23a3,3,0,1,0,0,5.9h0.23A3,3,0,0,0,105.24,425Z" transform="translate(0 0)"/><path class="c" d="M86.62,425a3,3,0,0,0-3-3H83.44a3,3,0,0,0,0,5.9h0.23A3,3,0,0,0,86.62,425Z" transform="translate(0 0)"/><path class="c" d="M77.31,425a3,3,0,0,0-3-3H74.13a3,3,0,1,0,0,5.9h0.23A3,3,0,0,0,77.31,425Z" transform="translate(0 0)"/><path class="c" d="M68,425a3,3,0,0,0-3-3H64.82a3,3,0,0,0,0,5.9h0.23A3,3,0,0,0,68,425Z" transform="translate(0 0)"/><path class="c" d="M123.85,433.93a3,3,0,0,0-3-3h-0.23a3,3,0,1,0,0,5.9h0.23A3,3,0,0,0,123.85,433.93Z" transform="translate(0 0)"/><path class="c" d="M114.54,433.93a3,3,0,0,0-3-3h-0.23a3,3,0,0,0,0,5.9h0.23A3,3,0,0,0,114.54,433.93Z" transform="translate(0 0)"/><path class="c" d="M105.24,433.93a3,3,0,0,0-3-3h-0.23a3,3,0,1,0,0,5.9h0.23A3,3,0,0,0,105.24,433.93Z" transform="translate(0 0)"/><path class="c" d="M86.62,433.93a3,3,0,0,0-3-3H83.44a3,3,0,1,0,0,5.9h0.23A3,3,0,0,0,86.62,433.93Z" transform="translate(0 0)"/><path class="c" d="M77.31,433.93a3,3,0,0,0-3-3H74.13a3,3,0,1,0,0,5.9h0.23A3,3,0,0,0,77.31,433.93Z" transform="translate(0 0)"/><path class="c" d="M68,433.93a3,3,0,0,0-3-3H64.82a3,3,0,1,0,0,5.9h0.23A3,3,0,0,0,68,433.93Z" transform="translate(0 0)"/><path class="c" d="M123.85,442.9a3,3,0,0,0-3-3h-0.23a3,3,0,0,0,0,5.91h0.23A3,3,0,0,0,123.85,442.9Z" transform="translate(0 0)"/><path class="c" d="M114.54,442.9a3,3,0,0,0-3-3h-0.23a3,3,0,0,0,0,5.91h0.23A3,3,0,0,0,114.54,442.9Z" transform="translate(0 0)"/><path class="c" d="M105.24,442.9a3,3,0,0,0-3-3h-0.23a3,3,0,0,0,0,5.91h0.23A3,3,0,0,0,105.24,442.9Z" transform="translate(0 0)"/><path class="c" d="M86.62,442.9a3,3,0,0,0-3-3H83.44a3,3,0,0,0,0,5.91h0.23A3,3,0,0,0,86.62,442.9Z" transform="translate(0 0)"/><path class="c" d="M77.31,442.9a3,3,0,0,0-3-3H74.13a3,3,0,1,0,0,5.91h0.23A3,3,0,0,0,77.31,442.9Z" transform="translate(0 0)"/><path class="c" d="M68,442.9a3,3,0,0,0-3-3H64.82a3,3,0,0,0,0,5.91h0.23A3,3,0,0,0,68,442.9Z" transform="translate(0 0)"/><path class="c" d="M123.85,451.87a3,3,0,0,0-3-2.95h-0.23a3,3,0,1,0,0,5.9h0.23A3,3,0,0,0,123.85,451.87Z" transform="translate(0 0)"/><path class="c" d="M114.54,451.87a3,3,0,0,0-3-2.95h-0.23a3,3,0,0,0,0,5.9h0.23A3,3,0,0,0,114.54,451.87Z" transform="translate(0 0)"/><path class="c" d="M105.24,451.87a3,3,0,0,0-3-2.95h-0.23a3,3,0,1,0,0,5.9h0.23A3,3,0,0,0,105.24,451.87Z" transform="translate(0 0)"/><path class="c" d="M86.62,451.87a3,3,0,0,0-3-2.95H83.44a3,3,0,0,0,0,5.9h0.23A3,3,0,0,0,86.62,451.87Z" transform="translate(0 0)"/><path class="c" d="M77.31,451.87a3,3,0,0,0-3-2.95H74.13a3,3,0,1,0,0,5.9h0.23A3,3,0,0,0,77.31,451.87Z" transform="translate(0 0)"/><path class="c" d="M68,451.87a3,3,0,0,0-3-2.95H64.82a3,3,0,1,0,0,5.9h0.23A3,3,0,0,0,68,451.87Z" transform="translate(0 0)"/><path class="c" d="M123.85,460.85a3,3,0,0,0-3-3h-0.23a3,3,0,1,0,0,5.9h0.23A3,3,0,0,0,123.85,460.85Z" transform="translate(0 0)"/><path class="c" d="M114.54,460.85a3,3,0,0,0-3-3h-0.23a3,3,0,0,0,0,5.9h0.23A3,3,0,0,0,114.54,460.85Z" transform="translate(0 0)"/><path class="c" d="M105.24,460.85a3,3,0,0,0-3-3h-0.23a3,3,0,1,0,0,5.9h0.23A3,3,0,0,0,105.24,460.85Z" transform="translate(0 0)"/><path class="c" d="M86.62,460.85a3,3,0,0,0-3-3H83.44a3,3,0,0,0,0,5.9h0.23A3,3,0,0,0,86.62,460.85Z" transform="translate(0 0)"/><path class="c" d="M77.31,460.85a3,3,0,0,0-3-3H74.13a3,3,0,1,0,0,5.9h0.23A3,3,0,0,0,77.31,460.85Z" transform="translate(0 0)"/><path class="c" d="M68,460.85a3,3,0,0,0-3-3H64.82a3,3,0,1,0,0,5.9h0.23A3,3,0,0,0,68,460.85Z" transform="translate(0 0)"/><path class="c" d="M123.85,469.81a3,3,0,0,0-3-3h-0.23a3,3,0,1,0,0,5.9h0.23A3,3,0,0,0,123.85,469.81Z" transform="translate(0 0)"/><path class="c" d="M114.54,469.81a3,3,0,0,0-3-3h-0.23a3,3,0,0,0,0,5.9h0.23A3,3,0,0,0,114.54,469.81Z" transform="translate(0 0)"/><path class="c" d="M105.24,469.81a3,3,0,0,0-3-3h-0.23a3,3,0,1,0,0,5.9h0.23A3,3,0,0,0,105.24,469.81Z" transform="translate(0 0)"/><path class="c" d="M86.62,469.81a3,3,0,0,0-3-3H83.44a3,3,0,0,0,0,5.9h0.23A3,3,0,0,0,86.62,469.81Z" transform="translate(0 0)"/><path class="c" d="M77.31,469.81a3,3,0,0,0-3-3H74.13a3,3,0,1,0,0,5.9h0.23A3,3,0,0,0,77.31,469.81Z" transform="translate(0 0)"/><path class="c" d="M68,469.81a3,3,0,0,0-3-3H64.82a3,3,0,1,0,0,5.9h0.23A3,3,0,0,0,68,469.81Z" transform="translate(0 0)"/><path class="c" d="M123.85,478.78a3,3,0,0,0-3-2.95h-0.23a3,3,0,1,0,0,5.9h0.23A3,3,0,0,0,123.85,478.78Z" transform="translate(0 0)"/><path class="c" d="M114.54,478.78a3,3,0,0,0-3-2.95h-0.23a3,3,0,0,0,0,5.9h0.23A3,3,0,0,0,114.54,478.78Z" transform="translate(0 0)"/><path class="c" d="M105.24,478.78a3,3,0,0,0-3-2.95h-0.23a3,3,0,1,0,0,5.9h0.23A3,3,0,0,0,105.24,478.78Z" transform="translate(0 0)"/><path class="c" d="M86.62,478.78a3,3,0,0,0-3-2.95H83.44a3,3,0,0,0,0,5.9h0.23A3,3,0,0,0,86.62,478.78Z" transform="translate(0 0)"/><path class="c" d="M77.31,478.78a3,3,0,0,0-3-2.95H74.13a3,3,0,1,0,0,5.9h0.23A3,3,0,0,0,77.31,478.78Z" transform="translate(0 0)"/><path class="c" d="M68,478.78a3,3,0,0,0-3-2.95H64.82a3,3,0,1,0,0,5.9h0.23A3,3,0,0,0,68,478.78Z" transform="translate(0 0)"/></g><line class="h" x1="59.21" y1="229.25" x2="59.21" y2="313.49"/><line class="h" x1="126.54" y1="229.25" x2="126.54" y2="313.49"/></svg>