<svg xmlns="http://www.w3.org/2000/svg" viewBox="-0.01 0 141.74 215.44">
  <path id="left" d="M37.19 122.45l-9.3 9.3 37.19 37.19 9.3-9.3-37.19-37.19zm18.06-85.8c0-9.98-8.1-18.08-18.08-18.08s-18.08 8.09-18.08 18.08c0 9.98 8.09 18.08 18.08 18.08s18.08-8.09 18.08-18.08m47.03 95.09l9.3-9.3-37.19-37.18-9.3-9.3-4.65-4.66c-12.84-12.84-33.65-12.84-46.49 0-12.84 12.84-12.84 33.66 0 46.48l4.65 4.66 9.3-9.3-4.65-4.66c-7.7-7.7-7.7-20.19 0-27.89 7.7-7.7 20.19-7.7 27.89 0l4.65 4.66 9.3 9.3 37.19 37.19zm37.19 18.6l-9.3-9.3-9.3-9.3-9.3 9.3 9.3 9.3-46.49 46.5-9.3 9.3 9.3 9.3 9.3-9.3 46.49-46.5 9.3-9.3z" />
  <path id="right" d="M65.09 94.56l-9.3-9.3-27.9 27.89-9.3 9.3-9.3 9.3-9.3 9.3 9.3 9.3 55.79 55.79 9.3-9.3-55.78-55.8 9.3-9.3 9.3-9.3 27.89-27.88zm60.2-71.55c0-12.7-10.3-23.01-23.01-23.01S79.27 10.31 79.27 23.01c0 12.7 10.3 23.02 23.01 23.02s23.01-10.31 23.01-23.02m4.89 43.64c-15.41-15.41-40.38-15.41-55.79 0l-9.3 9.31 9.3 9.3 9.3-9.3c10.27-10.28 26.92-10.28 37.19 0 10.27 10.26 10.27 26.92 0 37.19l-9.3 9.3-9.3 9.3-27.89 27.89-9.3 9.3 9.3 9.31 9.3-9.31 27.89-27.89 9.3-9.3 9.3-9.3c15.4-15.41 15.4-40.39 0-55.8" fill="currentColor"/>
</svg>